<?xml version="1.0" encoding="utf-8"?>
<!-- Generator: Adobe Illustrator 25.0.0, SVG Export Plug-In . SVG Version: 6.00 Build 0)  -->
<svg version="1.1" id="Layer_1" xmlns="http://www.w3.org/2000/svg" xmlns:xlink="http://www.w3.org/1999/xlink" x="0px" y="0px"
	 viewBox="0 0 3840 634.1" style="enable-background:new 0 0 3840 634.1;" xml:space="preserve">
<style type="text/css">
	.st0{fill:#9B9B9B;}
	.st1{fill:#4FA1D5;}
	.st2{fill:url(#SVGID_1_);}
	.st3{fill:url(#SVGID_2_);}
	.st4{fill:url(#SVGID_3_);}
	.st5{fill:url(#SVGID_4_);}
	.st6{fill:url(#SVGID_5_);}
	.st7{fill:#FFFFFF;}
</style>
<g>
	<g>
		<g>
			<linearGradient id="SVGID_1_" gradientUnits="userSpaceOnUse" x1="3111.2515" y1="2.2941" x2="3111.2515" y2="634.0501">
				<stop  offset="0" style="stop-color:#FFFFFF"/>
				<stop  offset="1" style="stop-color:#828282"/>
			</linearGradient>
			<path class="st2" d="M2929,405.1l11.4,8.9c39.8,30.8,87.7,56,138.9,56c21.9,0,56.8-8.9,56.8-36.6c0-27.6-29.2-30-49.5-34.1
				l-44.7-8.1c-86.9-15.4-159.9-66.6-159.9-162.4c0-145.3,132.4-226.5,265.5-226.5c69.8,0,134,17,194.1,53.6l-60.1,156.7
				c-38.2-26-81.2-46.3-129.1-46.3c-19.5,0-47.9,7.3-47.9,32.5c0,22.7,27.6,26,44.6,30l50.4,11.4c94.2,21.1,162.4,71.5,162.4,175.4
				c0,146.2-133.2,218.4-265.5,218.4c-77.2,0-166.5-21.1-235.5-56L2929,405.1z"/>
			<linearGradient id="SVGID_2_" gradientUnits="userSpaceOnUse" x1="3606.1421" y1="12.0354" x2="3606.1421" y2="624.3019">
				<stop  offset="0" style="stop-color:#FFFFFF"/>
				<stop  offset="1" style="stop-color:#828282"/>
			</linearGradient>
			<path class="st3" d="M3372.3,12H3840v171.8l-122.6,0.3v440.2h-222.5V184.1l-122.6-0.3V12L3372.3,12z"/>
		</g>
	</g>
	<g>
		<g>
			<g>
				<linearGradient id="SVGID_3_" gradientUnits="userSpaceOnUse" x1="164.6606" y1="1.3352" x2="164.6606" y2="633.529">
					<stop  offset="0" style="stop-color:#FFFFFF"/>
					<stop  offset="1" style="stop-color:#828282"/>
				</linearGradient>
				<path class="st4" d="M281.3,1.4c16-0.1,32,0,47.9,0c0.1,37.6,0,75.1,0,112.7c0.2,31.4-0.7,62.7-2,94
					c-2.1,45.2-5,90.6-12.5,135.3c-5.1,30.8-15.8,60.6-29,88.8c-21.6,45.5-55.5,84-93.6,116.4c-34.1,30-74.8,51.9-117.6,66.7
					C50.3,623.5,25.4,630,0,633.5c0-31.5,0-63,0-94.5c30.6-4.6,59.9-15.4,87.2-29.8c32.4-17.1,61.5-40.1,86-67.3
					c25.3-28,45.5-60.5,60.8-94.9c18-39.6,27.7-82.4,34.3-125.2c8.2-54.4,11.7-109.5,12.9-164.5C281.4,38.7,281.3,20,281.3,1.4z"/>
				<linearGradient id="SVGID_4_" gradientUnits="userSpaceOnUse" x1="392.6913" y1="1.3418" x2="392.6913" y2="633.6537">
					<stop  offset="0" style="stop-color:#FFFFFF"/>
					<stop  offset="1" style="stop-color:#828282"/>
				</linearGradient>
				<path class="st5" d="M348.6,1.4c29.4-0.2,58.8,0,88.2-0.1c0,210.7,0,421.4,0,632.2c-29.3,0.1-58.7-0.1-88,0.1
					c-0.4-67.2-0.1-134.4-0.2-201.6C348.6,288.5,348.7,145,348.6,1.4z"/>
				<linearGradient id="SVGID_5_" gradientUnits="userSpaceOnUse" x1="620.9083" y1="1.3372" x2="620.9083" y2="633.4512">
					<stop  offset="0" style="stop-color:#FFFFFF"/>
					<stop  offset="1" style="stop-color:#828282"/>
				</linearGradient>
				<path class="st6" d="M456.4,1.4c15.9,0,31.8,0,47.7,0c-0.5,64.2,1.7,128.6,9.3,192.5c6.3,49.6,15.1,99.5,34.9,145.7
					c18.7,44.7,45.7,86.2,80.9,119.7c33.6,32,74.3,56.6,118.5,70.8c12.3,3.9,25,7,37.8,8.9c0,31.5,0,63,0,94.5
					c-25.2-3.4-49.9-9.9-74-18.1c-28.6-10-56.3-22.9-81.8-39.4c-18.6-12-35.5-26.2-51.7-41.2c-26.7-24.7-50.7-52.7-68.7-84.4
					C495.3,425.7,485,399,477,371.7c-7.4-27.4-10.5-55.7-13.4-83.8c-5.5-60.8-7.6-121.9-7.2-183C456.4,70.4,456.4,35.9,456.4,1.4z"
					/>
			</g>
			<path class="st1" d="M1075.4,27.5C1100-4,1150.9-9.4,1181.1,17c12.3,10.4,21,24.7,25.4,40.2c55.9,192.2,112,384.3,167.7,576.5
				c-33,0-65.9-0.1-98.9,0c-15.5-53-30.7-106.1-46.1-159.1c-63.7-0.1-127.5,0-191.2-0.1c-15.6,53-31,106.1-46.3,159.2
				c-32.8-0.1-65.6,0-98.4-0.1C946.4,450.3,999.6,267,1052.9,83.7C1059.2,64.6,1061.6,43.1,1075.4,27.5 M1133.6,145.2
				c-23.4,79.6-46.3,159.4-69.5,239c46.3,0.2,92.6,0.1,138.9,0.1C1179.9,304.7,1156.8,224.9,1133.6,145.2z"/>
			<path class="st1" d="M1769.8,31.6c17.2-24.9,50.4-37,79.6-29.3c26.8,6.2,47.2,29.2,54.3,55.2c55.8,192,111.8,384,167.6,576
				c-33,0.3-66,0-99,0.1c-15.4-53-30.5-106.1-46-159.2c-63.6,0-127.2-0.1-190.9,0.1c-15.2,53.1-30.9,106-46.1,159.1
				c-32.8,0-65.5,0-98.2,0c53-184.3,106.7-368.5,160.2-552.7C1756.9,64.3,1759,46,1769.8,31.6 M1761.8,384.4
				c46.1,0.1,92.2,0,138.4,0c-23-79.9-46.3-159.7-69.2-239.5C1808,224.7,1784.7,304.5,1761.8,384.4z"/>
			<path class="st1" d="M1300.4,1.3c119.3,0,238.5,0,357.7,0c0,32.2,0,64.3,0,96.5c-43.9,0-87.8-0.1-131.7,0
				c0,178.6,0,357.2,0,535.8c-31.4,0-62.9,0-94.3,0c0-178.6,0-357.2,0-535.8c-43.9-0.1-87.8,0-131.7,0
				C1300.4,65.6,1300.4,33.5,1300.4,1.3z"/>
			<path class="st1" d="M2176.2,5.3c9.1-3.1,18.7-4.2,28.3-4c37.6,0.1,75.2,0,112.8,0.1c63.3,1.2,123.7,40.5,151.1,97.4
				c19,37,20.9,80,16.1,120.6c-3.3,42.5-21.1,85-53.8,113.2c-17.2,15.4-38.7,24.7-57.2,38.4c-10.1,7.7-10.7,22.7-5.4,33.5
				c49.9,77,101.8,152.9,152.7,229.2c-37.3,0.1-74.5-0.1-111.8,0.1c-48.8-73.3-97-146.9-145.6-220.3c-14.3-20.9-18.2-48.5-9.6-72.4
				c6.7-18.3,22.7-31.6,40.4-38.6c34-13,67.5-33.3,86.3-65.4c14.3-24.1,13.6-53.8,7.1-80.2c-7.5-34.2-40.9-61.1-76.1-60
				c-24.4,0.2-48.7-0.1-73,0.1c-11-0.3-21.4,9.3-21.2,20.5c-0.1,172,0.1,344-0.1,516.1c-31.7-0.1-63.3,0-95,0
				c-0.1-185.2,0.1-370.4-0.1-555.6C2122.3,45.7,2145.4,15.1,2176.2,5.3z"/>
			<path class="st1" d="M2570.6,1.3c33.3,0,66.6,0,100,0c0,210.8,0.1,421.6-0.1,632.3c-33.3-0.1-66.6,0-99.9,0
				C2570.6,422.9,2570.6,212.1,2570.6,1.3z"/>
		</g>
	</g>
</g>
</svg>
