<?xml version="1.0" encoding="utf-8"?>
<!-- Generator: Adobe Illustrator 26.0.3, SVG Export Plug-In . SVG Version: 6.00 Build 0)  -->
<svg version="1.1" id="Layer_1" xmlns="http://www.w3.org/2000/svg" xmlns:xlink="http://www.w3.org/1999/xlink" x="0px" y="0px"
	 viewBox="0 0 3839 1112.1" style="enable-background:new 0 0 3839 1112.1;" xml:space="preserve">
<style type="text/css">
	.st0{fill:#30308F;}
	.st1{fill:#FFFFFF;}
</style>
<g>
	<g>
		<g>
			<path d="M1521.8,184.5l-63.2-102.4h-45.8v146.5h45.4V126.3l63.6,102.4h45.4V82.1h-45.4V184.5z M1880.9,131.3v-14.5H1857V97h-44.2
				v19.8h-23.9v14.5h23.9v97.4h44.2v-97.4H1880.9z M1592.4,228.7h44.2v-97.4h-44.2V228.7z M1592.4,111.9h44.2V81.7h-44.2V111.9z
				 M2364.3,124.7c-35.5,0-64.4,24.3-64.4,54.9c0,30.1,28.9,54.9,64.4,54.9c35.5,0,64.4-24.3,64.4-54.9S2400.6,124.7,2364.3,124.7z
				 M2382,199.8c0,15.7-9.1,21.9-18.1,21.9c-8.7,0-18.1-6.6-18.1-21.9c0-5.8,0-21,0-21s0-14.5,0-20.2c0-15.3,9.1-21.9,18.1-21.9
				c8.7,0,18.1,6.2,18.1,21.9c0,5.8,0,16.9,0,20.6C2382,179.6,2382,194,2382,199.8z M2242.5,136.2c-7-4.1-14.5-7.8-24.8-8.7
				c-31.8-2.9-56.2,25.2-56.2,51.2c0,33.9,26,46.6,30.1,48.3c14.9,7,33.9,7,50.8-3.7c0,0.8,0,5.8,0,5.8h43.3V82.6h-43.3
				C2242.5,82.1,2242.5,113.5,2242.5,136.2z M2242.5,179.6c0,0,0,11.1,0,17.3c0,14.9-10.3,19-17.3,19s-17.3-4.1-17.3-19
				c0-5.4,0-17.3,0-17.3s0-12.4,0-17.3c0-15.3,10.3-19,17.3-19s17.3,3.7,17.3,19C2242.5,167.2,2242.5,179.6,2242.5,179.6z
				 M1739.8,126.7c-14.5,0.4-26.8,6.6-35.1,14.9c0-2.5,0-10.3,0-10.3h-43.8v97.4h43.8c0,0,0-59.8,0-64c0-8.7,9.1-17.8,21-17.8
				s20.2,9.5,20.2,17.8c0,6.2,0,64,0,64h43.8c0,0,0-46.2,0-52.8C1789.7,137,1756.3,126.3,1739.8,126.7z M2098,126.7
				c-14.5,0.4-26.8,6.6-35.1,14.9c0-2.5,0-10.3,0-10.3h-43.8v97.4h43.7c0,0,0-59.8,0-64c0-8.7,9.1-17.8,21-17.8s20.2,9.5,20.2,17.8
				c0,6.2,0,64,0,64h43.8c0,0,0-46.2,0-52.8C2147.6,137,2114.1,126.3,2098,126.7z M2005.2,180.4c0-30.1-29.3-55.3-65.2-55.3
				s-64.8,24.3-64.8,54.9c0,30.1,28.9,54.9,64.8,54.9c29.7,0,54.9-16.9,62.7-40h-43.8c0,0,0,0.4,0,5.8c0,17.8-11.6,21.9-18.1,21.9
				c-6.6,0-18.6-4.1-18.6-21.9c0-5.4,0-20.2,0-20.2H2005.2z M1925.5,146.1c3.3-6.2,9.9-8.7,15.7-9.1c5.8,0,12,2.9,15.7,9.1
				c2.9,4.9,2.9,10.7,2.9,19H1923C1922.2,156.4,1922.2,151.1,1925.5,146.1z M2446.8,100.3c0-4.9-3.7-7-10.7-7h-9.9v25.2h6.2v-10.3
				h2.9l4.9,10.3h6.6l-5.4-11.1C2444.7,106.1,2446.8,103.6,2446.8,100.3z M2435.3,104h-2.9v-7.4h2.5c3.7,0,5.4,1.3,5.4,3.7
				C2440.6,103.2,2438.6,104,2435.3,104z M2435.3,83.4c-12.4,0-22.7,9.9-22.7,22.7c0,12.4,10.3,22.7,22.7,22.7s22.7-10.3,22.7-22.7
				C2458,93.3,2447.6,83.4,2435.3,83.4z M2435.3,124.3c-9.9,0-18.1-8.3-18.1-18.1c0-9.9,8.3-18.1,18.1-18.1s18.1,8.3,18.1,18.1
				C2453.4,116,2445.6,124.3,2435.3,124.3z M2386.1,0h-933.7c-98.6-0.4-165.1,71-165.1,156s66,155.2,165.5,155.2h933.3
				c99.1,0,165.5-70.1,165.5-155.2C2551.2,70.6,2484.8-0.4,2386.1,0z M2385.7,273.2h-932.9c-78.8,0.4-126.7-52.4-126.7-117.6
				S1374.4,38.4,1452.9,38h932.9c78.4,0,126.7,52.4,126.7,117.6S2464.1,273.2,2385.7,273.2z M2386.1,0h-933.7
				c-98.6-0.4-165.1,71-165.1,156s66,155.2,165.5,155.2h933.3c99.1,0,165.5-70.1,165.5-155.2C2551.2,70.6,2484.8-0.4,2386.1,0z
				 M2385.7,273.2h-932.9c-78.8,0.4-126.7-52.4-126.7-117.6S1374.4,38.4,1452.9,38h932.9c78.4,0,126.7,52.4,126.7,117.6
				S2464.1,273.2,2385.7,273.2z M2386.1,0h-933.7c-98.6-0.4-165.1,71-165.1,156s66,155.2,165.5,155.2h933.3
				c99.1,0,165.5-70.1,165.5-155.2C2551.2,70.6,2484.8-0.4,2386.1,0z M2385.7,273.2h-932.9c-78.8,0.4-126.7-52.4-126.7-117.6
				S1374.4,38.4,1452.9,38h932.9c78.4,0,126.7,52.4,126.7,117.6S2464.1,273.2,2385.7,273.2z"/>
		</g>
	</g>
	<g>
		<g>
			<path class="st0" d="M3619.5,1065.2h5.8c6.8,0,9.9-2,9.9-6.9c0-5.1-3.4-7.3-10.4-7.3h-5.2v14.1 M3660.9,1068.4
				c0,19.4-15.8,35.2-35.3,35.2c-19.5,0-35.4-15.8-35.4-35.2c0-19.5,15.9-35.4,35.4-35.4C3645.1,1033.1,3660.9,1048.9,3660.9,1068.4
				z M3625.6,1024.7c-24.3,0-43.7,19.5-43.7,43.8c0,24.1,19.5,43.7,43.7,43.7s43.8-19.6,43.8-43.7
				C3669.4,1044.2,3649.7,1024.7,3625.6,1024.7z M3626.8,1043.5c13.7,0,20.7,4.7,20.7,13.9c0,6.3-4,11.2-10.7,12.8l10.9,21.6h-13.1
				l-9.3-19.8h-5.8v19.7h-11.8v-48.4L3626.8,1043.5L3626.8,1043.5z"/>
			<g>
				<path class="st0" d="M824.2,778l-24.6-126.6L743,778.1h81.2 M1713,1099.8H1579L1561,696.1l-174.4,403.7h-89.4l-74.6-365
					l-116.3,365H878.6l-34.3-195.2h-155l-87.9,195.2h-140L749,447.2h165.4l88,527.5l171.4-527.5h132.6l65.5,357.5l151.8-357.5h161
					L1713,1099.8"/>
				<polyline class="st0" points="2097.5,1099.8 2119.8,959.8 1885.7,959.8 1904.4,843.5 2107.9,843.5 2130.3,703.4 1924.6,703.4 
					1942.4,587.3 2176.3,587.3 2198.6,447.2 1827.6,447.2 1723.5,1099.8 2097.5,1099.8 				"/>
				<polyline class="st0" points="3839,447.2 3682.7,447.2 3550.1,660.3 3466.5,447.2 3313.1,447.2 3471,791.3 3422.4,1099.8 
					3556.5,1099.8 3597.7,827.1 3839,447.2 				"/>
				<path class="st0" d="M3042.9,975.6c71,31.8,157.8-30.5,194-139.1c36.2-108.5,8-222.3-63-254c-70.9-31.8-157.7,30.6-194,139.1
					C2943.9,830.1,2972,943.9,3042.9,975.6 M2840,717.4c41.7-180.4,195.9-298.7,344.4-264.5c148.6,34.4,235.2,208.3,193.7,388.7
					c-41.7,180.5-195.9,298.7-344.4,264.5C2885.2,1071.8,2798.3,897.9,2840,717.4"/>
				<path class="st0" d="M175.3,505.3C47.7,584.5-13.8,704.9,2.6,868.9c19,190.2,265.2,309.9,473.9,189.4c18.2-10.5,11.1-9,17.9-15
					l41.8-265.1h-249l-19.1,122.2h104l-11.9,65.6c-59.6,23.8-160.9,14.9-204-62.7c-27.3-49.1-52.7-158.7,62.7-259.2
					c93.9-82,256.2-96.8,350.1-53.6c0,0,11.9-68.6,20.9-132.7C409.3,395.1,269.2,447.2,175.3,505.3"/>
				<path class="st0" d="M2402.7,450.9l-103.6,647.6c0,0,214.4,0,301.6,0c124.3,0,305.8-183.1,140.5-332.7
					c170.1-176,1.5-313.4-88.7-314.9c-72.5-1.3-251.4,0-251.4,0L2402.7,450.9 M2476.7,842.7c0,0,28.1,0,112.3,0
					c106.4,0,103.6,130.2-14.8,130.2c-73.9,0-118.4,0-118.4,0L2476.7,842.7 M2518.2,588.5c0,0,3,0,87.2,0
					c94.6,0,75.4,121.3-14.8,121.3c-73.9,0-93.1,0-93.1,0L2518.2,588.5"/>
			</g>
		</g>
	</g>
</g>
</svg>
