<?xml version="1.0" encoding="UTF-8" standalone="no"?>
<svg
   xmlns:dc="http://purl.org/dc/elements/1.1/"
   xmlns:cc="http://creativecommons.org/ns#"
   xmlns:rdf="http://www.w3.org/1999/02/22-rdf-syntax-ns#"
   xmlns:svg="http://www.w3.org/2000/svg"
   xmlns="http://www.w3.org/2000/svg"
   viewBox="0 0 192 320"
   height="320"
   width="192"
   xml:space="preserve"
   id="svg2"
   version="1.1"><metadata
     id="metadata8"><rdf:RDF><cc:Work
         rdf:about=""><dc:format>image/svg+xml</dc:format><dc:type
           rdf:resource="http://purl.org/dc/dcmitype/StillImage" /></cc:Work></rdf:RDF></metadata><defs
     id="defs6"><clipPath
       id="clipPath18"
       clipPathUnits="userSpaceOnUse"><path
         id="path16"
         d="M 0,256 H 256 V 0 H 0 Z" /></clipPath></defs><g
     transform="matrix(1.3333333,0,0,-1.3333333,-74.666665,330.66719)"
     id="g10"><g
       id="g12"><g
         clip-path="url(#clipPath18)"
         id="g14"><g
           transform="translate(196,38.1934)"
           id="g20"><path
             id="path22"
             style="fill:#ffffff;fill-opacity:1;fill-rule:nonzero;stroke:none"
             d="m 0,0 v -3.742 -3.741 c 0,-12.474 -34,-18.71 -68,-18.71 -34,0 -68,6.236 -68,18.71 V -3.742 0 194.581 c 0,6.2 5.074,11.226 11.333,11.226 H -11.333 C -5.074,205.807 0,200.781 0,194.581 Z m -11.333,209.807 h -113.334 c -8.455,0 -15.333,-6.83 -15.333,-15.226 V 0 -3.742 -7.483 c 0,-21.616 59.977,-22.71 72,-22.71 12.023,0 72,1.094 72,22.71 V -3.742 0 194.581 c 0,8.396 -6.879,15.226 -15.333,15.226" /></g><g
           transform="translate(184,146.0488)"
           id="g24"><path
             id="path26"
             style="fill:#ffffff;fill-opacity:1;fill-rule:nonzero;stroke:none"
             d="M 0,0 V -2.537 C 0,-4.96 -1.985,-6.932 -4.426,-6.932 v -0.083 c -16.655,-2.013 -33.762,-3.034 -50.851,-3.034 -17.097,0 -34.69,1.022 -52.297,3.037 v 0.08 c -2.441,0 -4.426,1.972 -4.426,4.395 V 0 82.755 c 0,1.763 1.445,3.196 3.222,3.196 H -3.223 C -1.445,85.951 0,84.518 0,82.755 Z m -3.223,89.951 h -105.555 c -3.989,0 -7.222,-3.222 -7.222,-7.196 V 0 -2.537 c 0,-4.636 3.772,-8.395 8.426,-8.395 h -0.926 c 17.739,-2.048 35.483,-3.117 53.223,-3.117 17.26,0 34.516,1.011 51.777,3.117 H -4.426 C 0.228,-10.932 4,-7.173 4,-2.537 V 0 82.755 c 0,3.974 -3.233,7.196 -7.223,7.196" /></g><path
           id="path28"
           style="fill:#ffffff;fill-opacity:1;fill-rule:nonzero;stroke:none"
           d="m 92,220 h 72 V 160 H 92 Z m -4,-64 h 80 v 68 H 88 Z" /><g
           transform="translate(92,88)"
           id="g30"><path
             id="path32"
             style="fill:#ffffff;fill-opacity:1;fill-rule:nonzero;stroke:none"
             d="M 0,0 V -12 H -12 V 0 h -12 v 12 h 12 V 24 H 0 V 12 H 12 V 0 Z m 16,-4 v 4 12 4 H 12 4 v 8 4 h -4 -12 -4 v -4 -8 h -8 -4 V 12 0 -4 h 4 8 v -8 -4 h 4 12 4 v 4 8 h 8 z" /></g><g
           transform="translate(86,90)"
           id="g34"><path
             id="path36"
             style="fill:#ffffff;fill-opacity:1;fill-rule:nonzero;stroke:none"
             d="M 0,0 C -2.209,0 -4,1.791 -4,4 -4,6.209 -2.209,8 0,8 2.209,8 4,6.209 4,4 4,1.791 2.209,0 0,0 m 0,12 c -4.411,0 -8,-3.589 -8,-8 0,-4.411 3.589,-8 8,-8 4.411,0 8,3.589 8,8 0,4.411 -3.589,8 -8,8" /></g><g
           transform="translate(150,82)"
           id="g38"><path
             id="path40"
             style="fill:#ffffff;fill-opacity:1;fill-rule:nonzero;stroke:none"
             d="m 0,0 c -4.418,0 -8,3.582 -8,8 0,4.418 3.582,8 8,8 C 4.418,16 8,12.418 8,8 8,3.582 4.418,0 0,0 M 0,20 C -6.617,20 -12,14.617 -12,8 -12,1.383 -6.617,-4 0,-4 6.617,-4 12,1.383 12,8 12,14.617 6.617,20 0,20" /></g><g
           transform="translate(172,92)"
           id="g42"><path
             id="path44"
             style="fill:#ffffff;fill-opacity:1;fill-rule:nonzero;stroke:none"
             d="m 0,0 c -4.418,0 -8,3.582 -8,8 0,4.418 3.582,8 8,8 C 4.418,16 8,12.418 8,8 8,3.582 4.418,0 0,0 M 0,20 C -6.617,20 -12,14.617 -12,8 -12,1.383 -6.617,-4 0,-4 6.617,-4 12,1.383 12,8 12,14.617 6.617,20 0,20" /></g><g
           transform="translate(116.4629,52)"
           id="g46"><path
             id="path48"
             style="fill:#ffffff;fill-opacity:1;fill-rule:nonzero;stroke:none"
             d="m 0,0 h -8.926 c -1.945,0 -3.537,1.35 -3.537,3 0,1.65 1.592,3 3.537,3 H 0 C 1.945,6 3.537,4.65 3.537,3 3.537,1.35 1.945,0 0,0 m 0,10 h -8.926 c -4.156,0 -7.537,-3.141 -7.537,-7 0,-3.859 3.381,-7 7.537,-7 H 0 c 4.156,0 7.537,3.141 7.537,7 0,3.859 -3.381,7 -7.537,7" /></g><g
           transform="translate(144.4629,52)"
           id="g50"><path
             id="path52"
             style="fill:#ffffff;fill-opacity:1;fill-rule:nonzero;stroke:none"
             d="m 0,0 h -8.926 c -1.945,0 -3.537,1.35 -3.537,3 0,1.65 1.592,3 3.537,3 H 0 C 1.945,6 3.537,4.65 3.537,3 3.537,1.35 1.945,0 0,0 m 0,10 h -8.926 c -4.156,0 -7.537,-3.141 -7.537,-7 0,-3.859 3.381,-7 7.537,-7 H 0 c 4.156,0 7.537,3.141 7.537,7 0,3.859 -3.381,7 -7.537,7" /></g><g
           transform="translate(78,200)"
           id="g54"><path
             id="path56"
             style="fill:#ffffff;fill-opacity:1;fill-rule:nonzero;stroke:none"
             d="m 0,0 c -1.104,0 -2,-0.896 -2,-2 0,-1.104 0.896,-2 2,-2 1.104,0 2,0.896 2,2 0,1.104 -0.896,2 -2,2" /></g></g></g></g></svg>