<?xml version="1.0" encoding="UTF-8" standalone="no"?>
<svg
   xmlns:dc="http://purl.org/dc/elements/1.1/"
   xmlns:cc="http://creativecommons.org/ns#"
   xmlns:rdf="http://www.w3.org/1999/02/22-rdf-syntax-ns#"
   xmlns:svg="http://www.w3.org/2000/svg"
   xmlns="http://www.w3.org/2000/svg"
   viewBox="0 0 197.33333 320"
   height="320"
   width="197.33333"
   xml:space="preserve"
   id="svg2"
   version="1.1"><metadata
     id="metadata8"><rdf:RDF><cc:Work
         rdf:about=""><dc:format>image/svg+xml</dc:format><dc:type
           rdf:resource="http://purl.org/dc/dcmitype/StillImage" /></cc:Work></rdf:RDF></metadata><defs
     id="defs6"><clipPath
       id="clipPath22"
       clipPathUnits="userSpaceOnUse"><path
         id="path20"
         d="M 0,256 H 256 V 0 H 0 Z" /></clipPath></defs><g
     transform="matrix(1.3333333,0,0,-1.3333333,-71.999998,330.66666)"
     id="g10"><g
       transform="translate(192,76)"
       id="g12"><path
         id="path14"
         style="fill:#ffffff;fill-opacity:1;fill-rule:nonzero;stroke:none"
         d="m 0,0 h -4 -116 -4 v -4 -60 -4 h 4 116 4 v 4 60 z M -4,-64 H -120 V -4 H -4 Z" /></g><g
       id="g16"><g
         clip-path="url(#clipPath22)"
         id="g18"><g
           transform="translate(176,68)"
           id="g24"><path
             id="path26"
             style="fill:#ffffff;fill-opacity:1;fill-rule:nonzero;stroke:none"
             d="m 0,0 h -32 c -2.2,0 -4,-1.8 -4,-4 v -12 c 0,-2.2 1.8,-4 4,-4 H 0 c 2.2,0 4,1.8 4,4 V -4 C 4,-1.8 2.2,0 0,0 M 0,-16 H -32 V -4 H 0 Z" /></g><g
           transform="translate(176,44)"
           id="g28"><path
             id="path30"
             style="fill:#ffffff;fill-opacity:1;fill-rule:nonzero;stroke:none"
             d="m 0,0 h -32 c -2.2,0 -4,-1.8 -4,-4 v -20 c 0,-2.2 1.8,-4 4,-4 H 0 c 2.2,0 4,1.8 4,4 V -4 C 4,-1.8 2.2,0 0,0 M 0,-24 H -32 V -4 H 0 Z" /></g><g
           transform="translate(171.9883,204)"
           id="g32"><path
             id="path34"
             style="fill:#ffffff;fill-opacity:1;fill-rule:nonzero;stroke:none"
             d="m 0,0 h -80.433 c -4.243,0 -7.752,-3.319 -7.987,-7.556 l -3.556,-64 c -0.121,-2.186 0.672,-4.351 2.176,-5.942 1.505,-1.59 3.623,-2.502 5.812,-2.502 H 3.555 c 2.189,0 4.307,0.912 5.812,2.502 1.504,1.591 2.297,3.756 2.176,5.942 l -3.556,64 C 7.752,-3.319 4.243,0 0,0 m 0,-4 c 2.122,0 3.876,-1.659 3.993,-3.778 l 3.556,-64 C 7.677,-74.071 5.852,-76 3.555,-76 h -87.543 c -2.297,0 -4.121,1.929 -3.994,4.222 l 3.556,64 c 0.117,2.119 1.87,3.778 3.993,3.778 L 0,-4" /></g><g
           transform="translate(127.5474,68)"
           id="g36"><path
             id="path38"
             style="fill:#ffffff;fill-opacity:1;fill-rule:nonzero;stroke:none"
             d="m 0,0 h -47.095 c -2.455,0 -4.452,-1.523 -4.452,-3.396 v -45.208 c 0,-1.873 1.997,-3.396 4.452,-3.396 H 0 c 2.455,0 4.453,1.523 4.453,3.396 V -3.396 C 4.453,-1.523 2.455,0 0,0 m 0,-4 c 0.184,0 0.335,-0.025 0.453,-0.059 V -47.941 C 0.335,-47.975 0.184,-48 0,-48 h -47.095 c -0.183,0 -0.335,0.025 -0.452,0.059 V -4.059 C -47.43,-4.025 -47.278,-4 -47.095,-4 H 0" /></g><g
           transform="translate(160,58)"
           id="g40"><path
             id="path42"
             style="fill:#ffffff;fill-opacity:1;fill-rule:nonzero;stroke:none"
             d="m 0,0 c 0,-1.104 -0.896,-2 -2,-2 -1.104,0 -2,0.896 -2,2 0,1.104 0.896,2 2,2 1.104,0 2,-0.896 2,-2" /></g><g
           transform="translate(108,58)"
           id="g44"><path
             id="path46"
             style="fill:#ffffff;fill-opacity:1;fill-rule:nonzero;stroke:none"
             d="m 0,0 c 0,-1.104 -0.896,-2 -2,-2 -1.104,0 -2,0.896 -2,2 0,1.104 0.896,2 2,2 1.104,0 2,-0.896 2,-2" /></g><g
           transform="translate(152,30)"
           id="g48"><path
             id="path50"
             style="fill:#ffffff;fill-opacity:1;fill-rule:nonzero;stroke:none"
             d="m 0,0 c 0,-1.104 -0.896,-2 -2,-2 -1.104,0 -2,0.896 -2,2 0,1.104 0.896,2 2,2 1.104,0 2,-0.896 2,-2" /></g><g
           transform="translate(188,100)"
           id="g52"><path
             id="path54"
             style="fill:#ffffff;fill-opacity:1;fill-rule:nonzero;stroke:none"
             d="m 0,0 c 0,-1.104 -1.343,-2 -3,-2 -1.657,0 -3,0.896 -3,2 0,1.104 1.343,2 3,2 1.657,0 3,-0.896 3,-2" /></g><g
           transform="translate(184,94)"
           id="g56"><path
             id="path58"
             style="fill:#ffffff;fill-opacity:1;fill-rule:nonzero;stroke:none"
             d="m 0,0 c 0,-1.104 -1.343,-2 -3,-2 -1.657,0 -3,0.896 -3,2 0,1.104 1.343,2 3,2 1.657,0 3,-0.896 3,-2" /></g><g
           transform="translate(180,100)"
           id="g60"><path
             id="path62"
             style="fill:#ffffff;fill-opacity:1;fill-rule:nonzero;stroke:none"
             d="m 0,0 c 0,-1.104 -1.343,-2 -3,-2 -1.657,0 -3,0.896 -3,2 0,1.104 1.343,2 3,2 1.657,0 3,-0.896 3,-2" /></g><g
           transform="translate(176,94)"
           id="g64"><path
             id="path66"
             style="fill:#ffffff;fill-opacity:1;fill-rule:nonzero;stroke:none"
             d="m 0,0 c 0,-1.104 -1.343,-2 -3,-2 -1.657,0 -3,0.896 -3,2 0,1.104 1.343,2 3,2 1.657,0 3,-0.896 3,-2" /></g><g
           transform="translate(172,100)"
           id="g68"><path
             id="path70"
             style="fill:#ffffff;fill-opacity:1;fill-rule:nonzero;stroke:none"
             d="m 0,0 c 0,-1.104 -1.343,-2 -3,-2 -1.657,0 -3,0.896 -3,2 0,1.104 1.343,2 3,2 1.657,0 3,-0.896 3,-2" /></g><g
           transform="translate(137,98)"
           id="g72"><path
             id="path74"
             style="fill:#ffffff;fill-opacity:1;fill-rule:nonzero;stroke:none"
             d="m 0,0 c 0,-1.104 -1.343,-2 -3,-2 -1.657,0 -3,0.896 -3,2 0,1.104 1.343,2 3,2 1.657,0 3,-0.896 3,-2" /></g><g
           transform="translate(129,98)"
           id="g76"><path
             id="path78"
             style="fill:#ffffff;fill-opacity:1;fill-rule:nonzero;stroke:none"
             d="m 0,0 c 0,-1.104 -1.343,-2 -3,-2 -1.657,0 -3,0.896 -3,2 0,1.104 1.343,2 3,2 1.657,0 3,-0.896 3,-2" /></g><g
           transform="translate(168,94)"
           id="g80"><path
             id="path82"
             style="fill:#ffffff;fill-opacity:1;fill-rule:nonzero;stroke:none"
             d="m 0,0 c 0,-1.104 -1.343,-2 -3,-2 -1.657,0 -3,0.896 -3,2 0,1.104 1.343,2 3,2 1.657,0 3,-0.896 3,-2" /></g><g
           transform="translate(116,100)"
           id="g84"><path
             id="path86"
             style="fill:#ffffff;fill-opacity:1;fill-rule:nonzero;stroke:none"
             d="m 0,0 c 0,-1.104 -1.343,-2 -3,-2 -1.657,0 -3,0.896 -3,2 0,1.104 1.343,2 3,2 1.657,0 3,-0.896 3,-2" /></g><g
           transform="translate(112,94)"
           id="g88"><path
             id="path90"
             style="fill:#ffffff;fill-opacity:1;fill-rule:nonzero;stroke:none"
             d="m 0,0 c 0,-1.104 -1.343,-2 -3,-2 -1.657,0 -3,0.896 -3,2 0,1.104 1.343,2 3,2 1.657,0 3,-0.896 3,-2" /></g><g
           transform="translate(108,100)"
           id="g92"><path
             id="path94"
             style="fill:#ffffff;fill-opacity:1;fill-rule:nonzero;stroke:none"
             d="m 0,0 c 0,-1.104 -1.343,-2 -3,-2 -1.657,0 -3,0.896 -3,2 0,1.104 1.343,2 3,2 1.657,0 3,-0.896 3,-2" /></g><g
           transform="translate(104,94)"
           id="g96"><path
             id="path98"
             style="fill:#ffffff;fill-opacity:1;fill-rule:nonzero;stroke:none"
             d="m 0,0 c 0,-1.104 -1.343,-2 -3,-2 -1.657,0 -3,0.896 -3,2 0,1.104 1.343,2 3,2 1.657,0 3,-0.896 3,-2" /></g><g
           transform="translate(100,100)"
           id="g100"><path
             id="path102"
             style="fill:#ffffff;fill-opacity:1;fill-rule:nonzero;stroke:none"
             d="m 0,0 c 0,-1.104 -1.343,-2 -3,-2 -1.657,0 -3,0.896 -3,2 0,1.104 1.343,2 3,2 1.657,0 3,-0.896 3,-2" /></g><g
           transform="translate(96,94)"
           id="g104"><path
             id="path106"
             style="fill:#ffffff;fill-opacity:1;fill-rule:nonzero;stroke:none"
             d="m 0,0 c 0,-1.104 -1.343,-2 -3,-2 -1.657,0 -3,0.896 -3,2 0,1.104 1.343,2 3,2 1.657,0 3,-0.896 3,-2" /></g><g
           transform="translate(198,80)"
           id="g108"><path
             id="path110"
             style="fill:#ffffff;fill-opacity:1;fill-rule:nonzero;stroke:none"
             d="m 0,0 c 0,-2.209 -1.791,-4 -4,-4 h -132 c -2.209,0 -4,1.791 -4,4 V 8 H 0 Z m -134.667,24 h 2.667 6 c 0,-0.805 0.124,-1.594 0.357,-2.345 C -127.144,20.434 -128,18.817 -128,17 c 0,-2.018 1.042,-3.758 2.8,-5 h -13.467 z m 14.524,126.521 c 0.095,0.978 0.368,1.929 0.807,2.808 l 1.336,1.67 V 144 140.531 l 3.435,-0.491 28,-4 0.281,-0.04 h -27.867 c -3.104,0 -5.731,-2.393 -5.98,-5.447 l -7.696,-94.234 -0.006,-0.083 -0.004,-0.082 c -0.085,-2.123 0.686,-4.143 2.171,-5.689 0.475,-0.494 1.017,-0.913 1.597,-1.267 -0.319,-0.372 -0.601,-0.772 -0.848,-1.198 H -132 Z M -114,160 v 4 h 28 V 163.733 160 156 140 l -28,4 z m 96.075,-28 c 1.075,0 1.957,-0.816 1.999,-1.849 L -12.08,33.997 C -12.036,32.906 -12.943,32 -14.078,32 h -105.765 c -2.27,0 -4.085,1.813 -3.997,3.994 l 7.695,94.234 c 0.082,1 0.95,1.772 1.994,1.772 z M -82,156 h 32 v -16 h -32 z m 0,8 h 32 v -4 h -32 z m 36,-8 v 4 3.733 0.267 h 28 v -4 -16 l -28,-4 z m 28.565,-15.96 3.435,0.491 V 144 155.033 l 1.276,-1.585 c 0.478,-0.956 0.759,-1.997 0.828,-3.063 L -4,28 h -10.078 c 1.639,0 3.225,0.673 4.353,1.847 1.107,1.152 1.705,2.722 1.642,4.31 l -3.847,96.154 c -0.127,3.19 -2.76,5.689 -5.995,5.689 h -27.791 l 0.281,0.04 z M -50,24 c 0,2.209 1.791,4 4,4 2.209,0 4,-1.791 4,-4 0,-1.477 -0.81,-2.752 -2,-3.445 v -0.73 c 2.329,-0.412 4,-1.519 4,-2.825 0,-1.657 -2.687,-3 -6,-3 -3.313,0 -6,1.343 -6,3 0,1.306 1.671,2.413 4,2.825 v 0.73 c -1.19,0.693 -2,1.968 -2,3.445 m -60.357,-2.345 c 0.233,0.751 0.357,1.54 0.357,2.345 h 56 c 0,-0.805 0.124,-1.594 0.357,-2.345 C -55.144,20.434 -56,18.817 -56,17 c 0,-2.018 1.041,-3.758 2.8,-5 h -57.6 c 1.758,1.242 2.8,2.982 2.8,5 0,1.817 -0.856,3.434 -2.357,4.655 M -122,24 c 0,2.209 1.791,4 4,4 2.209,0 4,-1.791 4,-4 0,-1.477 -0.81,-2.752 -2,-3.445 v -0.73 c 2.329,-0.412 4,-1.519 4,-2.825 0,-1.657 -2.687,-3 -6,-3 -3.313,0 -6,1.343 -6,3 0,1.306 1.671,2.413 4,2.825 v 0.73 c -1.19,0.693 -2,1.968 -2,3.445 M -0.667,12 H -38.8 c 1.759,1.242 2.8,2.982 2.8,5 0,1.817 -0.856,3.434 -2.357,4.655 0.233,0.751 0.357,1.54 0.357,2.345 h 34 1.333 z m 0.675,16 -0.016,0.258 -7.896,122.385 c -0.104,1.607 -0.522,3.153 -1.242,4.593 l -0.193,0.385 -0.269,0.335 -4.392,5.454 v 2.59 4 h -4 -28 -1.734 -0.266 -2 -32 -2 -0.266 -1.734 -28 -4 v -4 -2.597 l -4.459,-5.576 -0.265,-0.331 -0.19,-0.379 c -0.661,-1.322 -1.068,-2.739 -1.211,-4.21 L -136.019,28 -144,12 V 8 0 c 0,-4.411 3.589,-8 8,-8 H -4 c 4.411,0 8,3.589 8,8 v 8 4 z" /></g><g
           transform="translate(130.1172,80)"
           id="g112"><path
             id="path114"
             style="fill:#ffffff;fill-opacity:1;fill-rule:nonzero;stroke:none"
             d="M 0,0 H -0.229 L -0.11,-0.007 Z" /></g></g></g></g></svg>