<?xml version="1.0" encoding="utf-8"?>
<!-- Generator: Adobe Illustrator 25.0.0, SVG Export Plug-In . SVG Version: 6.00 Build 0)  -->
<svg version="1.1" id="Layer_1" xmlns="http://www.w3.org/2000/svg" xmlns:xlink="http://www.w3.org/1999/xlink" x="0px" y="0px"
	 viewBox="0 0 3840 549.1" style="enable-background:new 0 0 3840 549.1;" xml:space="preserve">
<style type="text/css">
	.st0{fill:#929497;}
	.st1{fill:#231F20;}
	.st2{fill:#FFFFFF;}
</style>
<g>
	<g>
		<g>
			<path d="M47.7,69.5c0,0,0,188.1,0,190.9c-2.6,0-45.1,0-47.7,0C0,257.5,0,5.5,0,2.7c2.7,0,39.5,0,40.7,0L234,190.4
				c0,0,0-184.9,0-187.7c2.6,0,38.2,0,38.2,0s6.8,0,8.9,0c0,2.8,0,254.8,0,257.7c-2.6,0-36,0-37.3,0L47.7,69.5z"/>
			<path d="M526,69.5c0,0,0,188.1,0,190.9c-2.6,0-45.1,0-47.7,0c0-2.9,0-254.9,0-257.7c2.7,0,39.5,0,40.7,0l193.3,187.7
				c0,0,0-184.9,0-187.7c2.6,0,38.2,0,38.2,0s6.8,0,8.9,0c0,2.8,0,254.8,0,257.7c-2.6,0-36,0-37.3,0L526,69.5z"/>
			<path d="M1517.4,69.5c0,0,0,188.1,0,190.9c-2.6,0-45.1,0-47.7,0c0-2.9,0-254.9,0-257.7c2.6,0,39.5,0,40.7,0l193.2,187.7
				c0,0,0-184.9,0-187.7c2.6,0,38.2,0,38.2,0s6.8,0,8.9,0c0,2.8,0,254.8,0,257.7c-2.6,0-36,0-37.2,0L1517.4,69.5z"/>
			<path d="M394.7,2.7c0,0,6.8,0,8.9,0c0,2.8,0,254.8,0,257.7c-2.5,0-45.1,0-47.7,0c0-2.9,0-254.9,0-257.7
				C358.4,2.7,394.7,2.7,394.7,2.7z"/>
			<path d="M1084.3,2.7c0,0,6.7,0,8.8,0c0,2.6,0,41.8,0,44.4c-2.8,0-115,0-115,0s0,210.5,0,213.3c-2.6,0-47,0-49.6,0
				c0-2.9,0-213.3,0-213.3s-112.2,0-115,0c0-2.5,0-41.7,0-44.4C816.3,2.7,1084.3,2.7,1084.3,2.7z"/>
			<path d="M1390,2.7c0,0,6.9,0,8.9,0c0,2.6,0,41.8,0,44.4c-2.7,0-204.5,0-204.5,0v57.8c0,0,155.5,0,158.2,0c0,2.6,0,41.7,0,44.3
				c-2.7,0-158.2,0-158.2,0V216c0,0,201.8,0,204.5,0c0,2.6,0,41.8,0,44.4c-2.7,0-249,0-251.7,0c0-2.9,0-254.9,0-257.7
				C1149.9,2.7,1390,2.7,1390,2.7z"/>
			<path d="M2094.3,40.4c-18.7-24.6-46.3-37.7-79.7-37.7c0,0-188.4,0-191.2,0c0,2.8,0,254.8,0,257.7c2.8,0,191.2,0,191.2,0
				c33.4,0,61-13.1,79.7-37.7c17.4-22.9,26.7-54.4,26.7-91.3C2121,94.8,2111.7,63.2,2094.3,40.4z M2016,216h-146.6v-169h1.4H2016
				c45.8,0,62.1,45.6,62.1,84.5C2078.2,170.5,2061.8,216,2016,216z"/>
			<path d="M2432.9,2.7H2225c-30.1,0-54.6,24.7-54.6,54.7v148.4c0,30,24.5,54.6,54.6,54.6h207.9c30.1,0,54.7-24.6,54.7-54.6V57.4
				C2487.6,27.4,2463,2.7,2432.9,2.7z M2441.8,205.5c0,5.8-4.8,10.6-10.7,10.6h-204.3c-5.9,0-10.7-4.8-10.7-10.6V57.7
				c0-5.8,4.8-10.6,10.7-10.6h204.3c5.9,0,10.7,4.8,10.7,10.6V205.5z"/>
			<path class="st0" d="M2432.9,291.5H2225c-30.1,0-54.6,24.6-54.6,54.7v148.4c0,30,24.5,54.6,54.6,54.6h207.9
				c30.1,0,54.7-24.6,54.7-54.6V346.1C2487.6,316.1,2463,291.5,2432.9,291.5z M2441.8,494.2c0,5.9-4.8,10.7-10.7,10.7h-204.3
				c-5.9,0-10.7-4.8-10.7-10.7V346.4c0-5.9,4.8-10.6,10.7-10.6h204.3c5.9,0,10.7,4.7,10.7,10.6V494.2z"/>
		</g>
		<g>
			<path d="M3299.1,440.4c49.5,19.6,153.9,35.4,235.4,35.4c89.2,0,126.2-30.7,126.2-69.1c0-34.5-34.3-54.8-132.9-90.9
				c-131.7-48.7-228.3-87-228.3-173.5C3299.5,52.7,3415.8,0,3593,0c95.1,0,127.9,6.1,188.3,17.1l0.4,85
				c-59.3-11.2-111.9-30.7-193.7-30.7c-87.6,0-124.9,27.8-124.9,56.5c0,41.6,57.4,61.5,158.4,97.5c140.3,50.2,218.5,89,218.5,173.7
				c0,87.2-97.8,150.1-318.4,150.1c-90.6,0-153-6-222.5-17.1V440.4z"/>
			<g>
				<path d="M3111.4,509.6c-51.9,23.5-150.2,38.4-236,38.4h-328.2V1.2h328.2c85.9,0,184.1,15.1,236.1,38.6
					c126.3,57,167.6,148.3,167.6,234.9C3279,361.2,3238.2,452.4,3111.4,509.6z M2829.6,75.2h-105v397.4h105
					c161.2,0,262.8-68.9,262.8-197.9C3092.4,145.7,2990.7,75.2,2829.6,75.2z"/>
			</g>
		</g>
	</g>
</g>
</svg>
