<?xml version="1.0" encoding="UTF-8" standalone="no"?>
<svg
   xmlns:dc="http://purl.org/dc/elements/1.1/"
   xmlns:cc="http://creativecommons.org/ns#"
   xmlns:rdf="http://www.w3.org/1999/02/22-rdf-syntax-ns#"
   xmlns:svg="http://www.w3.org/2000/svg"
   xmlns="http://www.w3.org/2000/svg"
   viewBox="0 0 314.55093 144.01333"
   height="144.01334"
   width="314.55093"
   xml:space="preserve"
   id="svg2"
   version="1.1"><metadata
     id="metadata8"><rdf:RDF><cc:Work
         rdf:about=""><dc:format>image/svg+xml</dc:format><dc:type
           rdf:resource="http://purl.org/dc/dcmitype/StillImage" /></cc:Work></rdf:RDF></metadata><defs
     id="defs6"><clipPath
       id="clipPath18"
       clipPathUnits="userSpaceOnUse"><path
         id="path16"
         d="M 0,256 H 256 V 0 H 0 Z" /></clipPath></defs><g
     transform="matrix(1.3333333,0,0,-1.3333333,-13.391538,245.33986)"
     id="g10"><g
       id="g12"><g
         clip-path="url(#clipPath18)"
         id="g14"><g
           transform="translate(198,134.0049)"
           id="g20"><path
             id="path22"
             style="fill:#ffffff;fill-opacity:1;fill-rule:nonzero;stroke:none"
             d="M 0,0 C 0,3.314 2.686,6 6,6 9.314,6 12,3.314 12,0 12,-3.313 9.314,-6 6,-6 2.686,-6 0,-3.313 0,0 m -119.876,-46 h 3.752 c 1.173,0 2.124,-0.895 2.124,-2 0,-1.104 -0.951,-2 -2.124,-2 h -3.752 c -1.173,0 -2.124,0.896 -2.124,2 0,1.105 0.951,2 2.124,2 m -6.124,2 c 0,-3.313 -2.686,-6 -6,-6 -3.314,0 -6,2.687 -6,6 z m 6.124,2 c -0.748,0 -1.461,-0.139 -2.124,-0.38 V -42 Z m 7.876,-1.577 c -1.089,0.975 -2.535,1.577 -4.124,1.577 h 8.248 c -1.589,0 -3.035,-0.602 -4.124,-1.577 m 7.876,-2.423 c 1.173,0 2.124,-0.895 2.124,-2 0,-1.104 -0.951,-2 -2.124,-2 h -3.752 c -1.173,0 -2.124,0.896 -2.124,2 0,1.105 0.951,2 2.124,2 z M -2,-6 V -38 H -138 V 38 H -2 V 6 h 0.02 C -3.242,4.326 -4,2.252 -4,0 c 0,-2.252 0.758,-4.326 2.02,-6 z m 4,-38 c 0,-3.313 -2.687,-6 -6,-6 -3.313,0 -6,2.687 -6,6 z m -16,0 c 0,-3.313 -2.686,-6 -6,-6 -3.313,0 -6,2.687 -6,6 z m -21.877,-2 h 3.754 c 1.173,0 2.123,-0.896 2.123,-2.001 0,-1.103 -0.95,-1.999 -2.123,-1.999 h -3.754 c -1.17,0 -2.123,0.896 -2.123,1.999 0,1.105 0.953,2.001 2.123,2.001 M -42,-48.001 C -42,-49.104 -42.95,-50 -44.123,-50 h -3.754 c -1.17,0 -2.123,0.896 -2.123,1.999 0,1.105 0.953,2.001 2.123,2.001 h 3.754 c 1.173,0 2.123,-0.896 2.123,-2.001 M -44.123,-42 h 8.246 c -1.589,0 -3.033,-0.602 -4.123,-1.577 -1.09,0.975 -2.534,1.577 -4.123,1.577 M -30,-42.38 c -0.663,0.241 -1.376,0.38 -2.123,0.38 H -30 Z M 14,14 c 0,3.314 2.686,6 6,6 3.314,0 6,-2.686 6,-6 0,-3.314 -2.686,-6 -6,-6 -3.314,0 -6,2.686 -6,6 m 12,-28 c 0,-3.312 -2.686,-6 -6,-6 -3.314,0 -6,2.688 -6,6 0,3.313 2.686,6 6,6 3.314,0 6,-2.687 6,-6 M 20,-4 C 17.714,-4 15.61,-4.78 13.925,-6.076 15.221,-4.389 16,-2.286 16,0 16,2.286 15.221,4.389 13.925,6.076 15.61,4.78 17.714,4 20,4 22.286,4 24.39,4.78 26.075,6.076 24.779,4.389 24,2.286 24,0 24,-2.286 24.779,-4.389 26.075,-6.076 24.39,-4.78 22.286,-4 20,-4 m 20,4 c 0,-3.313 -2.686,-6 -6,-6 -3.314,0 -6,2.687 -6,6 0,3.314 2.686,6 6,6 3.314,0 6,-2.686 6,-6 M 30,-46 H 14 C 7.901,-46 2,-54.01 2,-54.01 H -142 V -54 h -0.007 c -0.08,0.108 -5.937,8 -11.993,8 h -16 c 0,0 -31.466,38.143 0,84 h 16 c 0,0 5.414,1.414 12,8 H 2 C 8.586,39.414 14,38 14,38 H 30 C 38.621,25.437 42.512,13.455 43.626,2.675 42.452,6.892 38.587,10 34,10 31.714,10 29.61,9.22 27.925,7.924 29.221,9.611 30,11.714 30,14 30,19.514 25.514,24 20,24 14.486,24 10,19.514 10,14 10,11.714 10.779,9.611 12.075,7.924 10.39,9.22 8.286,10 6,10 4.578,10 3.227,9.697 2,9.159 v 20.8 L 2.284,30 H 2 v 8 4 h -4 -136 -4 V 38 1.47 -38 v -2 -2 -2 c 0,-5.514 4.486,-10 10,-10 2.696,0 5.142,1.077 6.942,2.817 1.084,-1.688 2.999,-2.817 5.182,-2.817 h 3.752 c 1.589,0 3.035,0.602 4.124,1.577 1.089,-0.975 2.535,-1.577 4.124,-1.577 h 3.752 c 3.377,0 6.124,2.691 6.124,6 0,3.309 -2.747,6 -6.124,6 h 56.247 c -3.376,0 -6.123,-2.692 -6.123,-6.001 0,-3.308 2.747,-5.999 6.123,-5.999 h 3.754 c 1.589,0 3.033,0.602 4.123,1.577 1.09,-0.975 2.534,-1.577 4.123,-1.577 h 3.754 c 2.183,0 4.098,1.128 5.182,2.817 1.8,-1.74 4.246,-2.817 6.941,-2.817 3.273,0 6.175,1.588 8,4.025 1.825,-2.437 4.728,-4.025 8,-4.025 5.514,0 10,4.486 10,10 v 4 H 2 v 2 28.841 C 3.227,-9.697 4.578,-10 6,-10 c 2.286,0 4.39,0.779 6.075,2.075 C 10.779,-9.61 10,-11.714 10,-14 c 0,-5.514 4.486,-10 10,-10 5.514,0 10,4.486 10,10 0,2.286 -0.779,4.39 -2.075,6.075 C 29.61,-9.221 31.714,-10 34,-10 c 5.095,0 9.304,3.832 9.915,8.764 C 45.081,-27.71 30,-46 30,-46 m -189.679,-8 c -1.839,0 -4.419,2 -6.54,4 H -154 c 2.091,0 4.749,-2.061 6.688,-4 H -158 Z m 0,100 h 1.679 10.016 c -3.196,-2.554 -5.71,-3.646 -6.659,-4 h -11.576 c 2.121,2 4.701,4 6.54,4 m 179.358,0 c 1.839,0 4.419,-2 6.54,-4 H 14.637 c -0.917,0.342 -3.438,1.431 -6.653,4 H 18 Z M 34.805,38 33.194,40.414 31.835,42 c -3.107,3.492 -7.937,8 -12.156,8 H 18 3.657 2 -142 -143.657 -158 h -1.679 c -1.946,0 -6.028,-1.081 -12.159,-8 l -1.356,-1.586 -1.611,-2.414 c -15.537,-24.041 -14.549,-45.907 -10.868,-60.194 2.958,-11.483 7.991,-19.851 10.714,-23.806 l 1.882,-2.556 c 0,-0.001 0.001,-0.001 0.002,-0.002 l 1.237,-1.442 c 6.131,-6.919 10.213,-8 12.159,-8 h 1.679 13.972 l 0.007,-0.01 H -142 2 4.021 l 1.2,1.627 C 6.766,-54.305 10.952,-50 14,-50 h 16 1.886 l 1.2,1.455 c 0.344,0.417 8.479,10.404 12.588,26.351 3.68,14.287 4.669,36.153 -10.869,60.194" /></g><g
           transform="translate(36.0005,96.0049)"
           id="g24"><path
             id="path26"
             style="fill:#ffffff;fill-opacity:1;fill-rule:nonzero;stroke:none"
             d="m 0,0 c -4.419,0 -8,3.582 -8,8 0,4.418 3.581,8 8,8 C 4.418,16 8,12.418 8,8 8,3.582 4.418,0 0,0 M 0,20 C -6.617,20 -12,14.617 -12,8 -12,1.383 -6.617,-4 0,-4 6.617,-4 12,1.383 12,8 12,14.617 6.617,20 0,20" /></g><g
           transform="translate(50.416,130.5947)"
           id="g28"><path
             id="path30"
             style="fill:#ffffff;fill-opacity:1;fill-rule:nonzero;stroke:none"
             d="m 0,0 v -0.189 h -6.019 l -2.958,3.061 c -2.058,2.061 0,3.907 0,3.907 l 2.958,3.063 H 0 V 9.76 C 0.897,9.364 1.584,7.337 1.584,4.88 1.584,2.421 0.897,0.396 0,0 m -9.4,-9.006 h -0.084 c -0.395,-0.897 -2.422,-1.584 -4.88,-1.584 -2.459,0 -4.485,0.687 -4.88,1.584 h -0.189 v 6.02 l 3.062,2.956 c 0.687,0.687 1.35,0.915 1.929,0.915 1.157,0 1.979,-0.915 1.979,-0.915 L -9.4,-2.986 Z M -30.416,4.88 c 0,2.457 0.686,4.484 1.584,4.88 v 0.082 h 6.019 l 2.956,-3.063 c 0,0 2.059,-1.846 0,-3.907 l -2.956,-3.061 h -6.019 V 0 c -0.898,0.396 -1.584,2.421 -1.584,4.88 m 16.646,1.104 c -0.063,-0.322 -0.109,-0.657 -0.119,-1.014 -0.001,-0.039 0.002,-0.085 10e-4,-0.125 -0.183,0.016 -0.362,0.04 -0.554,0.04 -0.158,0 -0.327,-0.007 -0.503,-0.021 -10e-4,0.034 0.002,0.073 10e-4,0.106 -0.01,0.352 -0.055,0.682 -0.116,1 0.217,-0.021 0.427,-0.035 0.618,-0.035 0.233,0 0.452,0.025 0.672,0.049 m -5.663,13.842 h 0.189 c 0.395,0.898 2.421,1.584 4.88,1.584 2.458,0 4.485,-0.686 4.88,-1.584 H -9.4 v -6.02 l -3.063,-2.956 c 0,0 -0.822,-0.915 -1.979,-0.915 -0.579,0 -1.242,0.229 -1.929,0.915 l -3.062,2.956 z M 0,13.842 h -5.4 v 5.984 c 0,1.11 -0.452,2.113 -1.181,2.838 -2.034,2.452 -6.002,2.746 -7.783,2.746 -1.677,0 -5.293,-0.261 -7.408,-2.338 -1.006,-0.727 -1.661,-1.91 -1.661,-3.246 v -5.984 h -5.399 c -1.105,0 -2.105,-0.448 -2.829,-1.172 -2.46,-2.031 -2.755,-6.007 -2.755,-7.79 0,-1.677 0.261,-5.295 2.339,-7.409 0.727,-1.006 1.91,-1.66 3.245,-1.66 h 5.399 v -4.817 c 0,-1.336 0.655,-2.519 1.661,-3.245 2.115,-2.078 5.731,-2.339 7.408,-2.339 1.781,0 5.749,0.294 7.783,2.746 0.729,0.725 1.181,1.729 1.181,2.838 v 4.817 H 0 c 1.336,0 2.519,0.655 3.245,1.661 2.078,2.114 2.339,5.731 2.339,7.408 0,1.782 -0.295,5.757 -2.754,7.789 C 2.106,13.394 1.105,13.842 0,13.842" /></g><g
           transform="translate(188,163.9951)"
           id="g32"><path
             id="path34"
             style="fill:#ffffff;fill-opacity:1;fill-rule:nonzero;stroke:none"
             d="M 0,0 V -59.99 -60 H -120 V -59.99 0 0.01 h 49.083 C -70.919,0.007 -70.92,0.003 -70.922,0 h 6.824 c 0.034,0.001 0.065,0.01 0.098,0.01 h 8 c 0.033,0 0.064,-0.009 0.098,-0.01 h 6.825 c -0.002,0.003 -0.003,0.007 -0.005,0.01 H 0 Z m -56,4.01 h -8 -60 v -68 h 40 4 40 4 40 v 68 z" /></g></g></g></g></svg>