<?xml version="1.0" encoding="utf-8"?>
<!-- Generator: Adobe Illustrator 25.0.0, SVG Export Plug-In . SVG Version: 6.00 Build 0)  -->
<svg version="1.1" id="Layer_1" xmlns="http://www.w3.org/2000/svg" xmlns:xlink="http://www.w3.org/1999/xlink" x="0px" y="0px"
	 viewBox="0 0 3912.9 1002.2" style="enable-background:new 0 0 3912.9 1002.2;" xml:space="preserve">
<style type="text/css">
	.st0{fill:#62B847;}
	.st1{fill:#FFFFFF;}
	.st2{clip-path:url(#SVGID_2_);fill:#0D99D5;}
	.st3{clip-path:url(#SVGID_4_);fill:#944094;}
	.st4{clip-path:url(#SVGID_6_);fill:#E31F32;}
	.st5{clip-path:url(#SVGID_8_);fill:#F28020;}
	.st6{clip-path:url(#SVGID_10_);fill:#F4BE1A;}
	.st7{clip-path:url(#SVGID_12_);fill:#62B847;}
	.st8{clip-path:url(#SVGID_14_);fill:#0D99D5;}
	.st9{clip-path:url(#SVGID_16_);fill:#944094;}
	.st10{clip-path:url(#SVGID_18_);fill:#E31F32;}
	.st11{clip-path:url(#SVGID_20_);fill:#F28020;}
	.st12{clip-path:url(#SVGID_22_);fill:#F4BE1A;}
	.st13{clip-path:url(#SVGID_24_);fill:#62B847;}
</style>
<g>
	<g>
		<path class="st0" d="M627,159.9c18.2-22.3,32.4-46.6,41.8-73.6C679,56.7,682.4,28.3,679,0c-25,1.3-51.3,8.8-79,22.9
			s-49.9,31.7-68.2,52.6s-31.7,44.5-41.8,70.2c-11.5,30.4-15.5,58-11.5,85c27,2,54-4,82.3-18.2C586.5,199.8,608.8,182.2,627,159.9z"
			/>
		<path class="st1" d="M336.8,1002.2c13.5-0.7,27.7-3.4,41.2-7.4c6.7-2,18.2-6.7,35.8-14.2c14.8-6.1,27-10.8,37.8-13.5
			c15.5-4,31.7-6.1,48.6-6.1c16.9,0,33.1,2,48.6,6.1c9.4,2.7,22.3,7.4,37.8,14.2c15.5,6.7,27.7,10.8,35.8,13.5
			c14.2,4,28.3,6.1,43.2,5.4c21.6,0,41.8-6.1,60.7-18.2c16.2-10.8,32.4-25.6,49.3-45.9c10.8-12.8,25-32.4,43.2-58.7
			c19.6-29.7,37.1-61.4,52-96.5c5.4-12.8,11.5-28.3,16.9-45.9c-10.8-4-22.3-10.1-35.1-18.9c-26.3-17.5-47.9-39.1-64.1-64.1
			c-22.9-34.4-34.4-74.2-35.1-119.5c0-37.1,8.8-72.9,27-105.3c12.8-22.9,30.4-43.9,51.3-62.8c9.4-8.8,19.6-16.2,30.4-22.9
			c-25.6-37.8-60.1-64.8-102.6-81.7c-24.3-9.4-51.3-15.5-81-17.5c-15.5-1.3-31.7-0.7-47.9,2c-13.5,2-28.3,6.1-43.9,10.8
			c-10.1,4-22.9,8.8-39.1,14.8c-16.2,6.7-27.7,10.8-33.7,12.8c-10.8,3.4-20.2,5.4-27,5.4c-8.8,0-20.2-2-33.7-6.7
			c-4-1.3-16.9-6.7-39.8-15.5c-17.5-6.7-32.4-12.1-44.5-15.5c-16.9-4-32.4-6.1-47.2-6.1c-42.5,0.7-81.7,12.1-118.8,35.1
			c-37.1,22.3-66.1,52.6-87.7,91.1c-27.7,47.9-41.8,105.3-41.8,170.7c0,58.7,10.1,118.8,31,181.5c18.9,57.4,43.9,108,74.2,151.8
			c17.5,26.3,32.4,46.6,44.5,60.7c17.5,21.6,35.1,37.1,52,47.9C295,996.1,315.2,1002.2,336.8,1002.2z"/>
		<g>
			<defs>
				<path id="SVGID_1_" d="M336.8,1002.2c13.5-0.7,27.7-3.4,41.2-7.4c6.7-2,18.2-6.7,35.8-14.2c14.8-6.1,27-10.8,37.8-13.5
					c15.5-4,31.7-6.1,48.6-6.1c16.9,0,33.1,2,48.6,6.1c9.4,2.7,22.3,7.4,37.8,14.2c15.5,6.7,27.7,10.8,35.8,13.5
					c14.2,4,28.3,6.1,43.2,5.4c21.6,0,41.8-6.1,60.7-18.2c16.2-10.8,32.4-25.6,49.3-45.9c10.8-12.8,25-32.4,43.2-58.7
					c19.6-29.7,37.1-61.4,52-96.5c5.4-12.8,11.5-28.3,16.9-45.9c-10.8-4-22.3-10.1-35.1-18.9c-26.3-17.5-47.9-39.1-64.1-64.1
					c-22.9-34.4-34.4-74.2-35.1-119.5c0-37.1,8.8-72.9,27-105.3c12.8-22.9,30.4-43.9,51.3-62.8c9.4-8.8,19.6-16.2,30.4-22.9
					c-25.6-37.8-60.1-64.8-102.6-81.7c-24.3-9.4-51.3-15.5-81-17.5c-15.5-1.3-31.7-0.7-47.9,2c-13.5,2-28.3,6.1-43.9,10.8
					c-10.1,4-22.9,8.8-39.1,14.8c-16.2,6.7-27.7,10.8-33.7,12.8c-10.8,3.4-20.2,5.4-27,5.4c-8.8,0-20.2-2-33.7-6.7
					c-4-1.3-16.9-6.7-39.8-15.5c-17.5-6.7-32.4-12.1-44.5-15.5c-16.9-4-32.4-6.1-47.2-6.1c-42.5,0.7-81.7,12.1-118.8,35.1
					c-37.1,22.3-66.1,52.6-87.7,91.1c-27.7,47.9-41.8,105.3-41.8,170.7c0,58.7,10.1,118.8,31,181.5c18.9,57.4,43.9,108,74.2,151.8
					c17.5,26.3,32.4,46.6,44.5,60.7c17.5,21.6,35.1,37.1,52,47.9C295,996.1,315.2,1002.2,336.8,1002.2z"/>
			</defs>
			<clipPath id="SVGID_2_">
				<use xlink:href="#SVGID_1_"  style="overflow:visible;"/>
			</clipPath>
			<rect y="876.7" class="st2" width="960.4" height="125.5"/>
		</g>
		<g>
			<defs>
				<path id="SVGID_3_" d="M336.8,1002.2c13.5-0.7,27.7-3.4,41.2-7.4c6.7-2,18.2-6.7,35.8-14.2c14.8-6.1,27-10.8,37.8-13.5
					c15.5-4,31.7-6.1,48.6-6.1c16.9,0,33.1,2,48.6,6.1c9.4,2.7,22.3,7.4,37.8,14.2c15.5,6.7,27.7,10.8,35.8,13.5
					c14.2,4,28.3,6.1,43.2,5.4c21.6,0,41.8-6.1,60.7-18.2c16.2-10.8,32.4-25.6,49.3-45.9c10.8-12.8,25-32.4,43.2-58.7
					c19.6-29.7,37.1-61.4,52-96.5c5.4-12.8,11.5-28.3,16.9-45.9c-10.8-4-22.3-10.1-35.1-18.9c-26.3-17.5-47.9-39.1-64.1-64.1
					c-22.9-34.4-34.4-74.2-35.1-119.5c0-37.1,8.8-72.9,27-105.3c12.8-22.9,30.4-43.9,51.3-62.8c9.4-8.8,19.6-16.2,30.4-22.9
					c-25.6-37.8-60.1-64.8-102.6-81.7c-24.3-9.4-51.3-15.5-81-17.5c-15.5-1.3-31.7-0.7-47.9,2c-13.5,2-28.3,6.1-43.9,10.8
					c-10.1,4-22.9,8.8-39.1,14.8c-16.2,6.7-27.7,10.8-33.7,12.8c-10.8,3.4-20.2,5.4-27,5.4c-8.8,0-20.2-2-33.7-6.7
					c-4-1.3-16.9-6.7-39.8-15.5c-17.5-6.7-32.4-12.1-44.5-15.5c-16.9-4-32.4-6.1-47.2-6.1c-42.5,0.7-81.7,12.1-118.8,35.1
					c-37.1,22.3-66.1,52.6-87.7,91.1c-27.7,47.9-41.8,105.3-41.8,170.7c0,58.7,10.1,118.8,31,181.5c18.9,57.4,43.9,108,74.2,151.8
					c17.5,26.3,32.4,46.6,44.5,60.7c17.5,21.6,35.1,37.1,52,47.9C295,996.1,315.2,1002.2,336.8,1002.2z"/>
			</defs>
			<clipPath id="SVGID_4_">
				<use xlink:href="#SVGID_3_"  style="overflow:visible;"/>
			</clipPath>
			<rect y="751.1" class="st3" width="960.4" height="125.5"/>
		</g>
		<g>
			<defs>
				<path id="SVGID_5_" d="M336.8,1002.2c13.5-0.7,27.7-3.4,41.2-7.4c6.7-2,18.2-6.7,35.8-14.2c14.8-6.1,27-10.8,37.8-13.5
					c15.5-4,31.7-6.1,48.6-6.1c16.9,0,33.1,2,48.6,6.1c9.4,2.7,22.3,7.4,37.8,14.2c15.5,6.7,27.7,10.8,35.8,13.5
					c14.2,4,28.3,6.1,43.2,5.4c21.6,0,41.8-6.1,60.7-18.2c16.2-10.8,32.4-25.6,49.3-45.9c10.8-12.8,25-32.4,43.2-58.7
					c19.6-29.7,37.1-61.4,52-96.5c5.4-12.8,11.5-28.3,16.9-45.9c-10.8-4-22.3-10.1-35.1-18.9c-26.3-17.5-47.9-39.1-64.1-64.1
					c-22.9-34.4-34.4-74.2-35.1-119.5c0-37.1,8.8-72.9,27-105.3c12.8-22.9,30.4-43.9,51.3-62.8c9.4-8.8,19.6-16.2,30.4-22.9
					c-25.6-37.8-60.1-64.8-102.6-81.7c-24.3-9.4-51.3-15.5-81-17.5c-15.5-1.3-31.7-0.7-47.9,2c-13.5,2-28.3,6.1-43.9,10.8
					c-10.1,4-22.9,8.8-39.1,14.8c-16.2,6.7-27.7,10.8-33.7,12.8c-10.8,3.4-20.2,5.4-27,5.4c-8.8,0-20.2-2-33.7-6.7
					c-4-1.3-16.9-6.7-39.8-15.5c-17.5-6.7-32.4-12.1-44.5-15.5c-16.9-4-32.4-6.1-47.2-6.1c-42.5,0.7-81.7,12.1-118.8,35.1
					c-37.1,22.3-66.1,52.6-87.7,91.1c-27.7,47.9-41.8,105.3-41.8,170.7c0,58.7,10.1,118.8,31,181.5c18.9,57.4,43.9,108,74.2,151.8
					c17.5,26.3,32.4,46.6,44.5,60.7c17.5,21.6,35.1,37.1,52,47.9C295,996.1,315.2,1002.2,336.8,1002.2z"/>
			</defs>
			<clipPath id="SVGID_6_">
				<use xlink:href="#SVGID_5_"  style="overflow:visible;"/>
			</clipPath>
			<rect y="625.6" class="st4" width="960.4" height="125.5"/>
		</g>
		<g>
			<defs>
				<path id="SVGID_7_" d="M336.8,1002.2c13.5-0.7,27.7-3.4,41.2-7.4c6.7-2,18.2-6.7,35.8-14.2c14.8-6.1,27-10.8,37.8-13.5
					c15.5-4,31.7-6.1,48.6-6.1c16.9,0,33.1,2,48.6,6.1c9.4,2.7,22.3,7.4,37.8,14.2c15.5,6.7,27.7,10.8,35.8,13.5
					c14.2,4,28.3,6.1,43.2,5.4c21.6,0,41.8-6.1,60.7-18.2c16.2-10.8,32.4-25.6,49.3-45.9c10.8-12.8,25-32.4,43.2-58.7
					c19.6-29.7,37.1-61.4,52-96.5c5.4-12.8,11.5-28.3,16.9-45.9c-10.8-4-22.3-10.1-35.1-18.9c-26.3-17.5-47.9-39.1-64.1-64.1
					c-22.9-34.4-34.4-74.2-35.1-119.5c0-37.1,8.8-72.9,27-105.3c12.8-22.9,30.4-43.9,51.3-62.8c9.4-8.8,19.6-16.2,30.4-22.9
					c-25.6-37.8-60.1-64.8-102.6-81.7c-24.3-9.4-51.3-15.5-81-17.5c-15.5-1.3-31.7-0.7-47.9,2c-13.5,2-28.3,6.1-43.9,10.8
					c-10.1,4-22.9,8.8-39.1,14.8c-16.2,6.7-27.7,10.8-33.7,12.8c-10.8,3.4-20.2,5.4-27,5.4c-8.8,0-20.2-2-33.7-6.7
					c-4-1.3-16.9-6.7-39.8-15.5c-17.5-6.7-32.4-12.1-44.5-15.5c-16.9-4-32.4-6.1-47.2-6.1c-42.5,0.7-81.7,12.1-118.8,35.1
					c-37.1,22.3-66.1,52.6-87.7,91.1c-27.7,47.9-41.8,105.3-41.8,170.7c0,58.7,10.1,118.8,31,181.5c18.9,57.4,43.9,108,74.2,151.8
					c17.5,26.3,32.4,46.6,44.5,60.7c17.5,21.6,35.1,37.1,52,47.9C295,996.1,315.2,1002.2,336.8,1002.2z"/>
			</defs>
			<clipPath id="SVGID_8_">
				<use xlink:href="#SVGID_7_"  style="overflow:visible;"/>
			</clipPath>
			<rect y="500.1" class="st5" width="960.4" height="125.5"/>
		</g>
		<g>
			<defs>
				<path id="SVGID_9_" d="M336.8,1002.2c13.5-0.7,27.7-3.4,41.2-7.4c6.7-2,18.2-6.7,35.8-14.2c14.8-6.1,27-10.8,37.8-13.5
					c15.5-4,31.7-6.1,48.6-6.1c16.9,0,33.1,2,48.6,6.1c9.4,2.7,22.3,7.4,37.8,14.2c15.5,6.7,27.7,10.8,35.8,13.5
					c14.2,4,28.3,6.1,43.2,5.4c21.6,0,41.8-6.1,60.7-18.2c16.2-10.8,32.4-25.6,49.3-45.9c10.8-12.8,25-32.4,43.2-58.7
					c19.6-29.7,37.1-61.4,52-96.5c5.4-12.8,11.5-28.3,16.9-45.9c-10.8-4-22.3-10.1-35.1-18.9c-26.3-17.5-47.9-39.1-64.1-64.1
					c-22.9-34.4-34.4-74.2-35.1-119.5c0-37.1,8.8-72.9,27-105.3c12.8-22.9,30.4-43.9,51.3-62.8c9.4-8.8,19.6-16.2,30.4-22.9
					c-25.6-37.8-60.1-64.8-102.6-81.7c-24.3-9.4-51.3-15.5-81-17.5c-15.5-1.3-31.7-0.7-47.9,2c-13.5,2-28.3,6.1-43.9,10.8
					c-10.1,4-22.9,8.8-39.1,14.8c-16.2,6.7-27.7,10.8-33.7,12.8c-10.8,3.4-20.2,5.4-27,5.4c-8.8,0-20.2-2-33.7-6.7
					c-4-1.3-16.9-6.7-39.8-15.5c-17.5-6.7-32.4-12.1-44.5-15.5c-16.9-4-32.4-6.1-47.2-6.1c-42.5,0.7-81.7,12.1-118.8,35.1
					c-37.1,22.3-66.1,52.6-87.7,91.1c-27.7,47.9-41.8,105.3-41.8,170.7c0,58.7,10.1,118.8,31,181.5c18.9,57.4,43.9,108,74.2,151.8
					c17.5,26.3,32.4,46.6,44.5,60.7c17.5,21.6,35.1,37.1,52,47.9C295,996.1,315.2,1002.2,336.8,1002.2z"/>
			</defs>
			<clipPath id="SVGID_10_">
				<use xlink:href="#SVGID_9_"  style="overflow:visible;"/>
			</clipPath>
			<rect y="374.5" class="st6" width="960.4" height="125.5"/>
		</g>
		<g>
			<defs>
				<path id="SVGID_11_" d="M336.8,1002.2c13.5-0.7,27.7-3.4,41.2-7.4c6.7-2,18.2-6.7,35.8-14.2c14.8-6.1,27-10.8,37.8-13.5
					c15.5-4,31.7-6.1,48.6-6.1c16.9,0,33.1,2,48.6,6.1c9.4,2.7,22.3,7.4,37.8,14.2c15.5,6.7,27.7,10.8,35.8,13.5
					c14.2,4,28.3,6.1,43.2,5.4c21.6,0,41.8-6.1,60.7-18.2c16.2-10.8,32.4-25.6,49.3-45.9c10.8-12.8,25-32.4,43.2-58.7
					c19.6-29.7,37.1-61.4,52-96.5c5.4-12.8,11.5-28.3,16.9-45.9c-10.8-4-22.3-10.1-35.1-18.9c-26.3-17.5-47.9-39.1-64.1-64.1
					c-22.9-34.4-34.4-74.2-35.1-119.5c0-37.1,8.8-72.9,27-105.3c12.8-22.9,30.4-43.9,51.3-62.8c9.4-8.8,19.6-16.2,30.4-22.9
					c-25.6-37.8-60.1-64.8-102.6-81.7c-24.3-9.4-51.3-15.5-81-17.5c-15.5-1.3-31.7-0.7-47.9,2c-13.5,2-28.3,6.1-43.9,10.8
					c-10.1,4-22.9,8.8-39.1,14.8c-16.2,6.7-27.7,10.8-33.7,12.8c-10.8,3.4-20.2,5.4-27,5.4c-8.8,0-20.2-2-33.7-6.7
					c-4-1.3-16.9-6.7-39.8-15.5c-17.5-6.7-32.4-12.1-44.5-15.5c-16.9-4-32.4-6.1-47.2-6.1c-42.5,0.7-81.7,12.1-118.8,35.1
					c-37.1,22.3-66.1,52.6-87.7,91.1c-27.7,47.9-41.8,105.3-41.8,170.7c0,58.7,10.1,118.8,31,181.5c18.9,57.4,43.9,108,74.2,151.8
					c17.5,26.3,32.4,46.6,44.5,60.7c17.5,21.6,35.1,37.1,52,47.9C295,996.1,315.2,1002.2,336.8,1002.2z"/>
			</defs>
			<clipPath id="SVGID_12_">
				<use xlink:href="#SVGID_11_"  style="overflow:visible;"/>
			</clipPath>
			<rect y="225.3" class="st7" width="960.4" height="149.2"/>
		</g>
	</g>
	<path d="M1242.1,351.9c2.9,0,5.3,0.4,7.3,1.3c2,0.9,3.6,3,4.7,6.5l114.5,347.9c2.3,6.9,4.3,10.3,6,10.3c2.3,0,4.6-3.1,6.9-9.5
		l112.8-341.9c1.1-4.6,2.7-8.2,4.7-10.8c2-2.6,5.3-3.9,9.9-3.9h111.1c8,0,12.1,3.7,12.1,11.1c0,4.6-1.3,7.6-3.9,9
		c-2.6,1.4-5.9,2.4-9.9,3c-4,0.6-8.5,1-13.4,1.3c-4.9,0.3-9.9,1.6-15.1,3.9c-6.3,2.9-10.2,6.4-11.6,10.7c-1.4,4.3-2.2,12.1-2.2,23.5
		v20.5l9.5,374.7c0.6,15.4,1.6,26.5,3,33.4c1.4,6.8,6.7,12.3,15.9,16.3c5.2,2.3,10.3,3.6,15.5,3.8c5.2,0.3,9.6,0.6,13.3,0.8
		c3.7,0.3,6.7,1.3,9,3c2.3,1.7,3.4,5.2,3.4,10.3c0,3.4-1.6,6.5-4.7,9c-3.2,2.6-7.6,3.9-13.3,3.9c-9.2,0-20.2-1-33.2-3
		c-12.9-2-28-3-45.2-3c-18.9,0-35.5,1-49.5,3c-14.1,2-25.1,3-33.2,3c-11.5,0-17.2-4.6-17.2-13.8c0-8.6,4.3-12.9,12.9-12.9
		c10.9,0,19.4-0.8,25.4-2.6c6-1.7,10.6-4.7,13.8-9c3.2-4.3,5-9.8,5.6-16.7c0.6-6.8,0.9-15.4,0.9-25.7v-19.7l-6-316.5
		c0-6.3-1.4-9.4-4.3-9.4c-1.7,0-3.4,2.9-5.2,8.6l-126.6,387.5c-2.9,8.6-7.5,12.9-13.8,12.9c-7.5,0-12.1-3.4-13.8-10.3l-128.3-389.2
		c-2.9-7.4-4.9-11.1-6-11.1c-2.9,0-4.6,5.4-5.2,16.3l-14.6,261.7c-0.6,9.7-1,18.5-1.3,26.5c-0.3,8-0.4,15.1-0.4,21.4
		c0,26.8,2.3,46.3,6.9,58.6c4.6,12.3,15.2,18.4,31.9,18.4c1.7,0,3.4-0.1,5.2-0.4c1.7-0.3,3.7-0.4,6-0.4c10.9,0,16.4,4.3,16.4,12.9
		c0,9.2-7.2,13.8-21.5,13.8c-6.3,0-14.5-0.6-24.5-1.7c-10-1.1-21.7-1.7-34.9-1.7c-11.5,0-21.7,0.6-30.6,1.7
		c-8.9,1.2-16.5,1.7-22.8,1.7c-13.8,0-20.7-4.6-20.7-13.8c0-8.6,4-12.9,12.1-12.9c3.4,0,6.5,0.1,9,0.4c2.6,0.3,4.7,0.4,6.5,0.4
		c7.5,0,13.5-2.4,18.1-7.3c4.6-4.8,8-12.7,10.3-23.5c2.3-10.8,4-24.9,5.2-42.3c1.1-17.4,2.3-38.9,3.4-64.6l14.6-292.4
		c0-1.1,0.1-3.1,0.4-6c0.3-2.9,0.4-6.6,0.4-11.1c0-13.1-1.2-22.2-3.4-27.4c-2.3-5.1-7.5-9.1-15.5-12c-5.2-1.7-10-2.7-14.6-3
		c-4.6-0.3-8.6-0.6-12.1-0.9c-3.4-0.3-6.2-1.1-8.2-2.6c-2-1.4-3-4.4-3-9c0-7.5,4-11.2,12.1-11.2H1242.1z"/>
	<path d="M1899.7,794.6c0,18.4,1.1,32.2,3.4,41.3c2.3,9.2,8.3,13.8,18.1,13.8c6.3,0,12.1-2.9,17.2-8.6c5.2-5.7,10.3-8.6,15.5-8.6
		c6.9,0,10.3,4.3,10.3,12.9c0,4.6-2.6,10.2-7.8,16.8c-5.2,6.6-11.3,13.1-18.5,19.4c-7.2,6.3-14.9,11.8-23.3,16.4
		c-8.3,4.6-15.9,6.9-22.9,6.9c-15,0-27.4-4.9-37.2-14.6c-9.8-9.8-17.9-24.4-24.2-43.9h-5.2l-18.2,15.5c-15,12.6-29.1,23.4-42.3,32.3
		c-13.3,8.9-27.9,13.3-44.1,13.3c-18.4,0-33.3-6.2-44.5-18.5c-11.2-12.3-16.8-29.4-16.8-51.2c0-18.9,3.2-35.6,9.5-49.9
		c6.3-14.3,15.5-27.4,27.7-39.2c12.1-11.8,26.6-22.8,43.6-33.2s35.9-20.7,56.6-31l21.6-11.2c4.6-2.3,7.3-4.7,8.2-7.3
		c0.9-2.6,1.3-7,1.3-13.3v-61.1c0-24.1-1.9-41.6-5.6-52.5c-3.7-10.9-13.1-16.4-28.1-16.4c-15,0-26.8,5-35.4,15.1
		c-8.6,10-17,24.3-25.1,42.6c-6.4,14.4-13.4,26.6-21.2,36.6c-7.8,10.1-20.3,15.1-37.6,15.1c-4.6,0-8.5-1.4-11.7-4.3
		c-3.2-2.9-4.7-6.6-4.7-11.2c0-12.6,3.9-26.1,11.7-40.5c7.8-14.3,18.7-27.4,32.8-39.2c14.1-11.8,30.8-21.5,50.1-29.3
		c19.3-7.7,40.2-11.6,62.7-11.6c18.4,0,33.3,2.2,44.5,6.5c11.2,4.3,19.7,10.6,25.5,18.9c5.8,8.3,9.5,18.7,11.2,31
		c1.7,12.4,2.6,26.6,2.6,42.6V794.6z M1823.9,697.3c-1.7,0-4.6,1.2-8.6,3.4l-28.4,13.8c-33.9,17.2-50.8,45.9-50.8,86.1
		c0,16.7,3,29.3,9,37.9c6,8.6,13.9,12.9,23.7,12.9c6.9,0,13.8-1.9,20.7-5.6c6.9-3.7,13.2-8.9,18.9-15.5c5.7-6.6,10.5-14.5,14.2-23.7
		c3.7-9.2,5.6-19.5,5.6-31v-68C1828.2,700.7,1826.8,697.3,1823.9,697.3z"/>
	<path d="M2162.5,500.8c12.1,3.1,22.5,7.1,31.4,12.1c8.9,5,16.1,10.6,21.5,16.9c5.4,6.3,8.2,13.2,8.2,20.7c0,21.8-2.2,38.9-6.5,51.2
		c-4.3,12.4-9.9,18.5-16.8,18.5c-8,0-15.8-8.3-23.3-25c-5.2-10.9-9.8-21.1-13.8-30.6c-4-9.5-8.3-17.4-12.9-23.7
		c-4.6-6.3-9.6-11.3-15.1-15.1c-5.5-3.7-12.2-5.6-20.2-5.6c-10.3,0-21,3.9-31.9,11.6c-10.9,7.7-20.7,18.8-29.3,33.4
		c-8.6,14.6-15.7,32.1-21.1,52.7c-5.5,20.6-8.2,44-8.2,70.3c0,26.9,3,50.9,9,72c6,21.1,14.3,39,25,53.6
		c10.6,14.6,23.1,25.7,37.5,33.4c14.3,7.7,30.1,11.6,47.4,11.6c10.9,0,20.8-1.9,29.7-5.6c8.9-3.7,16.4-7.9,22.4-12.5
		c6-4.6,10.9-8.7,14.6-12.5c3.7-3.7,6.5-5.6,8.2-5.6c7.4,0,11.2,3.7,11.2,11.2c0,5.2-3,11.9-9,20.2c-6,8.3-14.4,16.4-25,24.1
		c-10.6,7.8-23.4,14.5-38.3,20.2c-14.9,5.7-31,8.6-48.2,8.6c-23,0-44.2-4.7-63.7-14.2c-19.5-9.5-36.5-23-50.8-40.5
		c-14.4-17.5-25.5-38.7-33.6-63.7c-8-25-12.1-53-12.1-84c0-32.1,4.4-61,13.4-86.5c8.9-25.5,21.1-47.4,36.6-65.5
		c15.5-18.1,33.9-32,55.1-41.8c21.2-9.8,44.5-14.6,69.8-14.6C2137.5,496.2,2150.4,497.7,2162.5,500.8z"/>
	<path d="M2349.7,824.4c0,10.3,1,18.1,3,23.3c2,5.2,5.6,9.2,10.8,12.1c4.6,2.3,9,3.7,13.3,4.3c4.3,0.6,8,1.3,11.2,2.2
		c3.1,0.9,5.7,2.2,7.8,3.9c2,1.7,3,4.6,3,8.6c0,9.2-5.2,13.8-15.5,13.8c-8.6,0-18.9-1-30.9-3c-12-2-24.8-3-38.4-3
		c-14.7,0-27.3,1-37.5,3c-10.3,2-18.6,3-24.9,3c-8.6,0-12.9-4.9-12.9-14.6c0-4,0.7-6.9,2.2-8.6c1.4-1.7,3.4-2.9,6-3.4
		c2.6-0.6,5.3-1,8.2-1.3c2.9-0.3,6-1.3,9.5-3c6.3-3.4,10.2-7.6,11.6-12.5c1.4-4.9,2.2-13.1,2.2-24.5V621.2c0-15.5-1.9-25.8-5.6-31
		c-3.7-5.2-7.8-8.5-12.1-9.9c-4.3-1.4-8.3-2.3-12.1-2.6c-3.7-0.3-5.6-3.3-5.6-9c0-6.3,3.9-11.5,11.6-15.5c7.8-4,18.8-10,33-18.1
		c8.5-5.2,15.7-10.3,21.7-15.5c5.9-5.2,10.9-9.8,14.9-13.8c4-4,7.2-7.3,9.8-9.9c2.6-2.6,5-3.9,7.2-3.9c5.7,0,8.5,6,8.5,18.1V824.4z
		 M2344.5,359.4c7.5,9.8,11.2,20.7,11.2,32.7c0,12.1-3.7,23-11.2,32.7c-7.5,9.8-16.4,14.6-26.7,14.6c-10.3,0-19.2-4.9-26.7-14.6
		c-7.5-9.8-11.2-20.7-11.2-32.7c0-12.1,3.7-23,11.2-32.7c7.5-9.8,16.4-14.6,26.7-14.6C2328.2,344.7,2337,349.6,2344.5,359.4z"/>
	<path d="M2524.7,548.3c0,7.5,0.8,11.2,2.6,11.2c1.7,0,4-1.7,6.9-5.2l9.4-11.2c12-14.9,25.9-26.4,41.6-34.4
		c15.7-8,32.2-12.1,49.4-12.1c35.5,0,63.1,12.2,82.8,36.6c19.8,24.4,29.6,60.4,29.6,108.1v185.1c0,17.8,4.3,29.6,12.9,35.3
		c4,2.3,8.2,3.7,12.5,4.3c4.3,0.6,8.2,1.2,11.6,1.7c3.4,0.6,6.2,1.7,8.2,3.4c2,1.7,3,4.9,3,9.5c0,9.2-5.2,13.8-15.5,13.8
		c-8.1,0-17.8-1-29.2-3c-11.4-2-24.5-3-39.3-3c-14.7,0-27.4,1-38,3c-10.6,2-18.7,3-24.5,3c-9.2,0-13.8-4.9-13.8-14.6
		c0-4,0.7-6.9,2.2-8.6c1.4-1.7,3.4-2.9,6-3.4c2.6-0.6,5.4-1,8.6-1.3c3.1-0.3,6.5-1.3,9.9-3c6.9-3.4,10.9-7.9,12.1-13.4
		c1.1-5.4,1.7-13.3,1.7-23.7v-174c0-34.4-6.4-60.4-19.1-77.9c-12.7-17.5-30.9-26.3-54.6-26.3c-21.9,0-39.8,7.5-53.7,22.4
		c-13.9,14.9-20.8,37.9-20.8,68.9v186.9c0,9.8,0.7,17.4,2.2,22.8c1.4,5.5,5,9.6,10.8,12.5c5.2,2.9,9.8,4.5,13.8,4.7
		c4,0.3,7.6,0.7,10.8,1.3c3.1,0.6,5.6,1.7,7.3,3.4c1.7,1.7,2.6,5.2,2.6,10.3c0,8.6-5.2,12.9-15.5,12.9c-8,0-17.8-1-29.2-3
		c-11.4-2-24.2-3-38.4-3c-14.7,0-27.3,1-37.5,3c-10.3,2-18.6,3-24.9,3c-9.2,0-13.8-4.9-13.8-14.6c0-4,0.7-6.9,2.2-8.6
		c1.4-1.7,3.3-2.9,5.6-3.4c2.3-0.6,5-1,8.2-1.3c3.1-0.3,6.5-1.3,9.9-3c6.3-2.9,10.3-6.9,12.1-12.1c1.7-5.2,2.6-13.5,2.6-25V623.2
		c0-15.5-1.9-25.8-5.6-31c-3.7-5.2-7.9-8.3-12.5-9.5c-4.6-1.1-8.8-1.9-12.5-2.2c-3.7-0.3-5.6-3.3-5.6-9c0-5.7,3.7-10.8,11.2-15.1
		c7.5-4.3,18.4-10.8,32.7-19.4c16.6-9.8,28.3-19.2,35.2-28.4c6.9-9.2,12.9-13.8,18-13.8c1.7,0,3.4,1.4,5.1,4.3
		c1.7,2.9,2.6,7.5,2.6,13.8V548.3z"/>
	<path d="M2871.3,500.9c0,7.5,3.7,11.2,11.2,11.2h64.6c5.2,0,8.3,0.6,9.5,1.7c1.1,1.2,1.7,3.4,1.7,6.9V538c0,4.6-0.6,7.7-1.7,9.5
		c-1.2,1.7-4.3,2.6-9.5,2.6h-65.4c-6.9,0-10.3,3.7-10.3,11.2v217.9c0,27,2.4,46.7,7.3,59c4.9,12.4,13.9,18.5,27.1,18.5
		c6.3,0,11.9-1.1,16.8-3.4c4.9-2.3,9.3-5,13.3-8.2c4-3.1,7.6-5.9,10.8-8.2c3.1-2.3,6.2-3.4,9-3.4c5.7,0,8.6,4,8.6,12.1
		c0,4-2.6,9.5-7.8,16.4c-5.2,6.9-12.2,13.8-21.1,20.7c-8.9,6.9-19.2,12.8-31,17.7c-11.8,4.9-24.2,7.3-37.4,7.3
		c-44.9,0-67.3-36.4-67.3-109.4v-36.2l3.4-185.1c0-8-0.6-14.5-1.7-19.4c-1.1-4.9-4.6-7.3-10.3-7.3h-15.5c-10.3,0-15.5-3.7-15.5-11.2
		c0-3.4,1.4-6.6,4.3-9.5c2.9-2.9,6.9-6,12.1-9.5s11-7.7,17.6-12.9c6.6-5.2,13.8-12.1,21.6-20.7c13.5-16.1,23.4-29.8,29.9-41.3
		c6.4-11.5,12.2-17.2,17.2-17.2c3.9,0,6.3,1.9,7.1,5.6c0.8,3.7,1.3,8.8,1.3,15.1V500.9z"/>
	<path d="M2957.8,617.2c8.6-25.3,21-46.8,37-64.6c16.1-17.8,35.3-31.6,57.7-41.3c22.4-9.8,47.4-14.6,74.9-14.6
		c26.4,0,50.5,5,72.3,15.1c21.8,10,40.3,24.1,55.5,42.2c15.2,18.1,27,39.8,35.3,65c8.3,25.3,12.5,53.4,12.5,84.4
		c0,30.4-4.3,58.3-12.9,83.5c-8.6,25.3-20.8,46.8-36.6,64.6c-15.8,17.8-35.2,31.6-58.1,41.3c-23,9.8-48.8,14.6-77.5,14.6
		c-25.8,0-49.4-5-70.6-15.1c-21.3-10-39.5-24.1-54.7-42.2c-15.2-18.1-27-39.7-35.3-65c-8.3-25.3-12.5-53.1-12.5-83.5
		C2944.8,670.6,2949.2,642.4,2957.8,617.2z M3048.2,564.6c-17.8,29.3-26.7,70.9-26.7,124.9c0,60.9,9.6,108.4,28.9,142.5
		c19.2,34.2,44.3,51.2,75.3,51.2c31.6,0,56.4-14.8,74.5-44.4c18.1-29.6,27.1-71,27.1-124.4c0-60.8-9.6-108.4-28.8-142.5
		c-19.2-34.1-44.1-51.2-74.5-51.2C3091.2,520.7,3066,535.4,3048.2,564.6z"/>
	<path d="M3511.2,507.7c13.2,7.4,19.8,18.6,19.8,33.7c0,20.1-0.9,34.9-2.6,44.3c-1.7,9.5-5.5,14.2-11.2,14.2c-6.3,0-10-4-11.2-12.1
		c-1.2-8-5.2-18.1-12.1-30.1c-14.4-24.7-33.3-37-56.8-37c-16.7,0-30,4.7-40,14.2c-10,9.4-15.1,21.6-15.1,36.4c0,9.7,2,17.9,6,24.4
		c4,6.6,9.8,12.7,17.2,18.4c7.5,5.7,16.5,11.3,27.1,16.7c10.6,5.4,22.5,11.6,35.7,18.4c28.1,14.9,48.8,31.6,62,50.2
		c13.2,18.6,19.8,41.9,19.8,69.9c0,21.7-3.3,41.2-9.9,58.3c-6.6,17.1-15.9,31.6-28,43.3c-12.1,11.7-26.3,20.7-42.6,27
		c-16.4,6.3-34.3,9.4-53.8,9.4c-19.5,0-37-2.2-52.5-6.5c-15.5-4.3-27.3-9-35.3-14.2c-5.2-2.9-8.3-6.6-9.5-11.2
		c-1.2-4.6-1.7-10.9-1.7-18.9V835c0-23.5,0.6-40.6,1.7-51.2c1.1-10.6,4.9-15.9,11.2-15.9c4,0,6.9,1.4,8.6,4.3
		c1.7,2.9,3.3,7,4.7,12.5c1.4,5.5,3.1,12.1,5.2,19.8c2,7.7,5.3,16.5,9.9,26.3c16.1,35,39,52.5,68.9,52.5c18.4,0,33.4-6.3,45.2-18.9
		c11.8-12.6,17.7-29.6,17.7-50.8c0-10.9-1.9-20.5-5.6-28.8c-3.7-8.3-9.2-15.8-16.4-22.4c-7.2-6.6-15.9-12.9-26.3-18.9
		s-21.8-12.5-34.4-19.4c-14.4-7.5-27-14.8-37.9-22c-10.9-7.2-20.1-14.9-27.6-23.3c-7.5-8.3-13.1-17.8-16.8-28.4
		c-3.7-10.6-5.6-23.1-5.6-37.5c0-35.6,11-63.9,33.2-84.8c22.1-21,50.4-31.4,84.8-31.4C3473.3,496.6,3498,500.3,3511.2,507.7z"/>
	<path d="M3661.5,548.3c0,7.5,0.6,11.2,1.7,11.2c1.7,0,4-1.7,6.9-5.2l8.6-11.2c10.9-14.3,23.8-25.7,38.7-34
		c14.9-8.3,30.4-12.5,46.5-12.5c34.4,0,61.3,11.8,80.5,35.3c19.2,23.5,28.8,57.1,28.8,100.8v192.9c0,9.2,0.6,16.4,1.7,21.5
		c1.1,5.2,4,9.2,8.6,12.1c4.6,3.4,8.6,5.6,12.1,6.5c3.4,0.9,6.5,1.7,9,2.6c2.6,0.9,4.6,2.2,6,3.9c1.4,1.7,2.2,4.9,2.2,9.5
		c0,8-4.3,12.1-12.9,12.1c-6.3,0-14.8-0.9-25.3-2.6c-10.6-1.7-22.9-2.6-37.1-2.6c-14.7,0-28,0.9-39.7,2.6
		c-11.7,1.7-21.6,2.6-29.6,2.6c-10.3,0-15.5-4.6-15.5-13.8c0-4,0.9-6.9,2.6-8.6c1.7-1.7,4-2.9,6.9-3.4c2.9-0.6,6.2-1.1,9.9-1.7
		c3.7-0.6,7.6-1.7,11.6-3.4c8.6-4,13.8-8.6,15.5-13.8c1.7-5.2,2.6-12.9,2.6-23.3v-174c0-69.5-22.8-104.2-68.4-104.2
		c-20.8,0-38,7.5-51.6,22.4c-13.6,14.9-20.4,37.9-20.4,68.9v186.9c0,8.6,0.9,15.8,2.6,21.5c1.7,5.7,5.2,10.3,10.3,13.8
		c4,2.9,8,4.5,12.1,4.7c4,0.3,7.6,0.9,10.8,1.7c3.2,0.9,5.7,2.2,7.8,3.9c2,1.7,3,5.2,3,10.3c0,8-4.9,12.1-14.6,12.1
		c-5.7,0-14.3-0.9-25.8-2.6c-11.4-1.7-25.4-2.6-41.8-2.6c-16.5,0-30.4,0.9-41.8,2.6c-11.4,1.7-20.6,2.6-27.5,2.6
		c-10.3,0-15.5-4.6-15.5-13.8c0-4,0.9-6.7,2.6-8.2c1.7-1.4,3.9-2.4,6.5-3c2.6-0.6,5.7-1.1,9.5-1.7c3.7-0.6,7.9-1.7,12.5-3.4
		c9.2-3.4,14.5-7.9,15.9-13.4c1.4-5.4,2.2-13.6,2.2-24.5V395.9c0-12.6-2-21.5-6-26.7c-4-5.2-8.3-8.7-12.9-10.8
		c-4.6-2-8.9-3.4-12.9-4.3c-4-0.9-6-3.6-6-8.2c0-6.3,3.9-10.5,11.6-12.5c7.7-2,17.1-5,28-9c19.9-7.5,34.5-14.5,43.8-21.1
		c9.4-6.6,15.5-9.9,18.3-9.9c4.5,0,7.4,1.4,8.5,4.3c1.1,2.9,1.7,6.9,1.7,12.1c0,8-0.4,16.9-1.3,26.7c-0.9,9.8-1.3,20.4-1.3,31.9
		V548.3z"/>
</g>
</svg>
