<?xml version="1.0" encoding="UTF-8" standalone="no"?>
<svg
   xmlns:dc="http://purl.org/dc/elements/1.1/"
   xmlns:cc="http://creativecommons.org/ns#"
   xmlns:rdf="http://www.w3.org/1999/02/22-rdf-syntax-ns#"
   xmlns:svg="http://www.w3.org/2000/svg"
   xmlns="http://www.w3.org/2000/svg"
   viewBox="0 0 245.33333 314.66665"
   height="314.66666"
   width="245.33333"
   xml:space="preserve"
   id="svg2"
   version="1.1"><metadata
     id="metadata8"><rdf:RDF><cc:Work
         rdf:about=""><dc:format>image/svg+xml</dc:format><dc:type
           rdf:resource="http://purl.org/dc/dcmitype/StillImage" /></cc:Work></rdf:RDF></metadata><defs
     id="defs6"><clipPath
       id="clipPath18"
       clipPathUnits="userSpaceOnUse"><path
         id="path16"
         d="M 0,256 H 256 V 0 H 0 Z" /></clipPath></defs><g
     transform="matrix(1.3333333,0,0,-1.3333333,-47.999999,330.66666)"
     id="g10"><g
       id="g12"><g
         clip-path="url(#clipPath18)"
         id="g14"><g
           transform="translate(216,18)"
           id="g20"><path
             id="path22"
             style="fill:#ffffff;fill-opacity:1;fill-rule:nonzero;stroke:none"
             d="m 0,0 c 0,-1.104 -0.896,-2 -2,-2 h -18 -136 -18 c -1.104,0 -2,0.896 -2,2 v 176 c 0,1.104 0.896,2 2,2 h 10 c 0,2.209 1.791,4 4,4 h 2.125 16.029 4.475 98.742 4.475 16.029 2.125 c 2.209,0 4,-1.791 4,-4 h 10 c 1.104,0 2,-0.896 2,-2 z m -41.141,186 h -93.718 c 2.118,2.943 4.738,5.696 7.867,8.216 10.234,8.244 24.081,12.784 38.992,12.784 14.911,0 28.759,-4.54 38.992,-12.784 3.129,-2.52 5.749,-5.273 7.867,-8.216 M -88,226 c 31.961,0 59.035,-16.783 68.438,-40 h -16.756 c -2.542,4.103 -5.957,7.929 -10.18,11.331 C -57.44,206.146 -72.18,211 -88,211 c -15.82,0 -30.56,-4.854 -41.502,-13.669 -4.223,-3.402 -7.637,-7.228 -10.179,-11.331 h -16.757 c 9.403,23.217 36.477,40 68.438,40 m 86,-44 h -7.073 c -1.266,2.182 -3.536,3.699 -6.171,3.949 C -24.852,212.026 -54.275,230 -88,230 c -33.725,0 -63.149,-17.974 -72.756,-44.051 -2.635,-0.25 -4.905,-1.767 -6.17,-3.949 H -174 c -3.309,0 -6,-2.691 -6,-6 V 0 c 0,-3.309 2.691,-6 6,-6 h 20 132 20 c 3.309,0 6,2.691 6,6 v 176 c 0,3.309 -2.691,6 -6,6" /></g><g
           transform="translate(128,156)"
           id="g24"><path
             id="path26"
             style="fill:#ffffff;fill-opacity:1;fill-rule:nonzero;stroke:none"
             d="m 0,0 c 26.51,0 48,-21.49 48,-48 0,-26.51 -21.49,-48 -48,-48 -26.51,0 -48,21.49 -48,48 0,26.51 21.49,48 48,48 m 0,-100 c 28.673,0 52,23.327 52,52 0,28.673 -23.327,52 -52,52 -28.673,0 -52,-23.327 -52,-52 0,-28.673 23.327,-52 52,-52" /></g><g
           transform="translate(58,160)"
           id="g28"><path
             id="path30"
             style="fill:#ffffff;fill-opacity:1;fill-rule:nonzero;stroke:none"
             d="m 0,0 c 3.309,0 6,-2.691 6,-6 0,-3.309 -2.691,-6 -6,-6 -3.309,0 -6,2.691 -6,6 0,3.309 2.691,6 6,6 m 0,-16 c 5.523,0 10,4.477 10,10 0,5.523 -4.477,10 -10,10 -5.523,0 -10,-4.477 -10,-10 0,-5.523 4.477,-10 10,-10" /></g><g
           transform="translate(58,36)"
           id="g32"><path
             id="path34"
             style="fill:#ffffff;fill-opacity:1;fill-rule:nonzero;stroke:none"
             d="m 0,0 c -3.309,0 -6,2.691 -6,6 0,3.309 2.691,6 6,6 C 3.309,12 6,9.309 6,6 6,2.691 3.309,0 0,0 M 0,16 C -5.523,16 -10,11.522 -10,6 -10,0.478 -5.523,-4 0,-4 5.523,-4 10,0.478 10,6 10,11.522 5.523,16 0,16" /></g><g
           transform="translate(198,36)"
           id="g36"><path
             id="path38"
             style="fill:#ffffff;fill-opacity:1;fill-rule:nonzero;stroke:none"
             d="m 0,0 c -3.309,0 -6,2.691 -6,6 0,3.309 2.691,6 6,6 C 3.309,12 6,9.309 6,6 6,2.691 3.309,0 0,0 M 0,16 C -5.522,16 -10,11.522 -10,6 -10,0.478 -5.522,-4 0,-4 5.522,-4 10,0.478 10,6 10,11.522 5.522,16 0,16" /></g><g
           transform="translate(128,28)"
           id="g40"><path
             id="path42"
             style="fill:#ffffff;fill-opacity:1;fill-rule:nonzero;stroke:none"
             d="M 0,0 C -11.564,0 -16.857,4.178 -18.905,6.495 -13.013,5.836 -6.656,5.363 0,5.225 6.656,5.363 13.014,5.836 18.905,6.495 16.857,4.178 11.564,0 0,0 m 70,28 c 0.681,0 1.345,-0.065 2,-0.16 V 28 31.882 168 H 68 V 31.877 C 60.001,30.985 53.579,24.835 52.266,16.966 44.759,14.83 24.405,9.728 0,9.211 -24.405,9.728 -44.759,14.83 -52.266,16.966 -53.579,24.835 -60,30.985 -68,31.877 v 76.241 c 8.986,0.999 16,8.633 16,17.882 0,9.249 -7.014,16.883 -16,17.882 V 168 h -4 V 143.882 140 139.84 c 0.655,0.095 1.319,0.16 2,0.16 7.72,0 14,-6.28 14,-14 0,-7.72 -6.28,-14 -14,-14 -0.681,0 -1.345,0.065 -2,0.16 V 112 108.118 31.882 28 27.84 c 0.655,0.095 1.319,0.16 2,0.16 6.627,0 12.181,-4.633 13.624,-10.827 l 0.371,-3.27 3.942,-1.143 c 5.45,-1.496 15.434,-3.925 28.025,-5.629 l 0.46,-0.92 C -23.055,5.166 -17.954,-4 0,-4 17.954,-4 23.055,5.166 23.578,6.211 l 0.46,0.92 c 12.592,1.704 22.575,4.133 28.025,5.629 l 3.942,1.143 0.372,3.27 C 57.819,23.367 63.373,28 70,28" /></g><g
           transform="translate(198,44)"
           id="g44"><path
             id="path46"
             style="fill:#ffffff;fill-opacity:1;fill-rule:nonzero;stroke:none"
             d="m 0,0 c -1.104,0 -2,-0.896 -2,-2 0,-1.104 0.896,-2 2,-2 1.104,0 2,0.896 2,2 0,1.104 -0.896,2 -2,2" /></g></g></g></g></svg>