<?xml version="1.0" encoding="utf-8"?>
<!-- Generator: Adobe Illustrator 25.0.0, SVG Export Plug-In . SVG Version: 6.00 Build 0)  -->
<svg version="1.1" id="Layer_1" xmlns="http://www.w3.org/2000/svg" xmlns:xlink="http://www.w3.org/1999/xlink" x="0px" y="0px"
	 viewBox="0 0 2010.8 2159" style="enable-background:new 0 0 2010.8 2159;" xml:space="preserve">
<style type="text/css">
	.st0{fill:#C2C3C4;}
	.st1{fill:url(#SVGID_1_);}
	.st2{fill:url(#SVGID_2_);}
	.st3{fill:none;stroke:#000000;stroke-width:8.0596;stroke-miterlimit:10;}
	.st4{fill:url(#SVGID_3_);}
	.st5{fill:url(#SVGID_4_);}
	.st6{fill:url(#SVGID_5_);}
	.st7{fill:url(#SVGID_6_);}
	.st8{fill:url(#SVGID_7_);}
	.st9{fill:url(#SVGID_8_);}
	.st10{fill:url(#SVGID_9_);}
	.st11{opacity:0.7;fill:url(#SVGID_10_);enable-background:new    ;}
	.st12{opacity:0.7;fill:url(#SVGID_11_);enable-background:new    ;}
	.st13{opacity:0.7;}
	.st14{opacity:0.7;fill:url(#SVGID_12_);enable-background:new    ;}
	.st15{opacity:0.7;fill:url(#SVGID_13_);enable-background:new    ;}
	.st16{fill:url(#SVGID_14_);}
	.st17{fill:url(#SVGID_15_);}
	.st18{opacity:0.7;fill:url(#SVGID_16_);enable-background:new    ;}
	.st19{opacity:0.7;fill:url(#SVGID_17_);enable-background:new    ;}
	.st20{opacity:0.7;fill:url(#SVGID_18_);enable-background:new    ;}
	.st21{opacity:0.7;fill:url(#SVGID_19_);enable-background:new    ;}
	.st22{opacity:0.7;fill:url(#SVGID_20_);enable-background:new    ;}
	.st23{opacity:0.7;fill:url(#SVGID_21_);enable-background:new    ;}
	.st24{opacity:0.7;fill:url(#SVGID_22_);enable-background:new    ;}
	.st25{fill:url(#SVGID_23_);}
	.st26{fill:url(#SVGID_24_);}
	.st27{fill:none;stroke:#000000;stroke-width:8.0815;stroke-miterlimit:10;}
	.st28{fill:url(#SVGID_25_);}
	.st29{fill:url(#SVGID_26_);}
	.st30{fill:url(#SVGID_27_);}
	.st31{fill:url(#SVGID_28_);}
	.st32{fill:url(#SVGID_29_);}
	.st33{fill:url(#SVGID_30_);}
	.st34{fill:url(#SVGID_31_);}
	.st35{opacity:0.7;fill:url(#SVGID_32_);enable-background:new    ;}
	.st36{opacity:0.7;fill:url(#SVGID_33_);enable-background:new    ;}
	.st37{opacity:0.7;fill:url(#SVGID_34_);enable-background:new    ;}
	.st38{opacity:0.7;fill:url(#SVGID_35_);enable-background:new    ;}
	.st39{fill:url(#SVGID_36_);}
	.st40{fill:url(#SVGID_37_);}
	.st41{opacity:0.7;fill:url(#SVGID_38_);enable-background:new    ;}
	.st42{opacity:0.7;fill:url(#SVGID_39_);enable-background:new    ;}
	.st43{opacity:0.7;fill:url(#SVGID_40_);enable-background:new    ;}
	.st44{opacity:0.7;fill:url(#SVGID_41_);enable-background:new    ;}
	.st45{opacity:0.7;fill:url(#SVGID_42_);enable-background:new    ;}
	.st46{opacity:0.7;fill:url(#SVGID_43_);enable-background:new    ;}
	.st47{opacity:0.7;fill:url(#SVGID_44_);enable-background:new    ;}
	.st48{fill:url(#SVGID_45_);}
	.st49{fill:url(#SVGID_46_);}
	.st50{fill:none;stroke:#000000;stroke-width:4.2135;stroke-miterlimit:10;}
	.st51{fill:url(#SVGID_47_);}
	.st52{fill:url(#SVGID_48_);}
	.st53{fill:url(#SVGID_49_);}
	.st54{fill:url(#SVGID_50_);}
	.st55{fill:url(#SVGID_51_);}
	.st56{fill:url(#SVGID_52_);}
	.st57{fill:url(#SVGID_53_);}
	.st58{opacity:0.7;fill:url(#SVGID_54_);enable-background:new    ;}
	.st59{opacity:0.7;fill:url(#SVGID_55_);enable-background:new    ;}
	.st60{opacity:0.7;fill:url(#SVGID_56_);enable-background:new    ;}
	.st61{opacity:0.7;fill:url(#SVGID_57_);enable-background:new    ;}
	.st62{fill:url(#SVGID_58_);}
	.st63{fill:url(#SVGID_59_);}
	.st64{opacity:0.7;fill:url(#SVGID_60_);enable-background:new    ;}
	.st65{opacity:0.7;fill:url(#SVGID_61_);enable-background:new    ;}
	.st66{opacity:0.7;fill:url(#SVGID_62_);enable-background:new    ;}
	.st67{opacity:0.7;fill:url(#SVGID_63_);enable-background:new    ;}
	.st68{opacity:0.7;fill:url(#SVGID_64_);enable-background:new    ;}
	.st69{opacity:0.7;fill:url(#SVGID_65_);enable-background:new    ;}
	.st70{opacity:0.7;fill:url(#SVGID_66_);enable-background:new    ;}
	.st71{fill:url(#SVGID_67_);}
	.st72{fill:url(#SVGID_68_);}
	.st73{fill:none;stroke:#000000;stroke-width:4.3485;stroke-miterlimit:10;}
	.st74{fill:url(#SVGID_69_);}
	.st75{fill:url(#SVGID_70_);}
	.st76{fill:url(#SVGID_71_);}
	.st77{fill:url(#SVGID_72_);}
	.st78{fill:url(#SVGID_73_);}
	.st79{fill:url(#SVGID_74_);}
	.st80{fill:url(#SVGID_75_);}
	.st81{opacity:0.7;fill:url(#SVGID_76_);enable-background:new    ;}
	.st82{opacity:0.7;fill:url(#SVGID_77_);enable-background:new    ;}
	.st83{opacity:0.7;fill:url(#SVGID_78_);enable-background:new    ;}
	.st84{opacity:0.7;fill:url(#SVGID_79_);enable-background:new    ;}
	.st85{fill:url(#SVGID_80_);}
	.st86{fill:url(#SVGID_81_);}
	.st87{opacity:0.7;fill:url(#SVGID_82_);enable-background:new    ;}
	.st88{opacity:0.7;fill:url(#SVGID_83_);enable-background:new    ;}
	.st89{opacity:0.7;fill:url(#SVGID_84_);enable-background:new    ;}
	.st90{opacity:0.7;fill:url(#SVGID_85_);enable-background:new    ;}
	.st91{opacity:0.7;fill:url(#SVGID_86_);enable-background:new    ;}
	.st92{opacity:0.7;fill:url(#SVGID_87_);enable-background:new    ;}
	.st93{opacity:0.7;fill:url(#SVGID_88_);enable-background:new    ;}
	.st94{fill:#FFFFFF;}
	.st95{fill:url(#SVGID_89_);}
	.st96{fill:url(#SVGID_90_);}
	.st97{fill:url(#SVGID_91_);}
	.st98{fill:url(#SVGID_92_);}
	.st99{fill:url(#SVGID_93_);}
	.st100{fill:url(#SVGID_94_);}
	.st101{fill:url(#SVGID_95_);}
	.st102{fill:url(#SVGID_96_);}
	.st103{fill:url(#SVGID_97_);}
	.st104{opacity:0.7;fill:url(#SVGID_98_);enable-background:new    ;}
	.st105{opacity:0.7;fill:url(#SVGID_99_);enable-background:new    ;}
	.st106{opacity:0.7;fill:url(#SVGID_100_);enable-background:new    ;}
	.st107{opacity:0.7;fill:url(#SVGID_101_);enable-background:new    ;}
	.st108{fill:url(#SVGID_102_);}
	.st109{fill:url(#SVGID_103_);}
	.st110{opacity:0.7;fill:url(#SVGID_104_);enable-background:new    ;}
	.st111{opacity:0.7;fill:url(#SVGID_105_);enable-background:new    ;}
	.st112{opacity:0.7;fill:url(#SVGID_106_);enable-background:new    ;}
	.st113{opacity:0.7;fill:url(#SVGID_107_);enable-background:new    ;}
	.st114{opacity:0.7;fill:url(#SVGID_108_);enable-background:new    ;}
	.st115{opacity:0.7;fill:url(#SVGID_109_);enable-background:new    ;}
	.st116{opacity:0.7;fill:url(#SVGID_110_);enable-background:new    ;}
	.st117{fill:url(#SVGID_111_);}
	.st118{fill:url(#SVGID_112_);}
	.st119{fill:url(#SVGID_113_);}
	.st120{fill:url(#SVGID_114_);}
	.st121{fill:url(#SVGID_115_);}
	.st122{fill:url(#SVGID_116_);}
	.st123{fill:url(#SVGID_117_);}
	.st124{fill:url(#SVGID_118_);}
	.st125{fill:url(#SVGID_119_);}
	.st126{opacity:0.7;fill:url(#SVGID_120_);enable-background:new    ;}
	.st127{opacity:0.7;fill:url(#SVGID_121_);enable-background:new    ;}
	.st128{opacity:0.7;fill:url(#SVGID_122_);enable-background:new    ;}
	.st129{opacity:0.7;fill:url(#SVGID_123_);enable-background:new    ;}
	.st130{fill:url(#SVGID_124_);}
	.st131{fill:url(#SVGID_125_);}
	.st132{opacity:0.7;fill:url(#SVGID_126_);enable-background:new    ;}
	.st133{opacity:0.7;fill:url(#SVGID_127_);enable-background:new    ;}
	.st134{opacity:0.7;fill:url(#SVGID_128_);enable-background:new    ;}
	.st135{opacity:0.7;fill:url(#SVGID_129_);enable-background:new    ;}
	.st136{opacity:0.7;fill:url(#SVGID_130_);enable-background:new    ;}
	.st137{opacity:0.7;fill:url(#SVGID_131_);enable-background:new    ;}
	.st138{opacity:0.7;fill:url(#SVGID_132_);enable-background:new    ;}
	.st139{fill:url(#SVGID_133_);}
	.st140{fill:url(#SVGID_134_);}
	.st141{fill:url(#SVGID_135_);}
	.st142{fill:url(#SVGID_136_);}
	.st143{fill:url(#SVGID_137_);}
	.st144{fill:url(#SVGID_138_);}
	.st145{fill:url(#SVGID_139_);}
	.st146{fill:url(#SVGID_140_);}
	.st147{fill:url(#SVGID_141_);}
	.st148{opacity:0.7;fill:url(#SVGID_142_);enable-background:new    ;}
	.st149{opacity:0.7;fill:url(#SVGID_143_);enable-background:new    ;}
	.st150{opacity:0.7;fill:url(#SVGID_144_);enable-background:new    ;}
	.st151{opacity:0.7;fill:url(#SVGID_145_);enable-background:new    ;}
	.st152{fill:url(#SVGID_146_);}
	.st153{fill:url(#SVGID_147_);}
	.st154{opacity:0.7;fill:url(#SVGID_148_);enable-background:new    ;}
	.st155{opacity:0.7;fill:url(#SVGID_149_);enable-background:new    ;}
	.st156{opacity:0.7;fill:url(#SVGID_150_);enable-background:new    ;}
	.st157{opacity:0.7;fill:url(#SVGID_151_);enable-background:new    ;}
	.st158{opacity:0.7;fill:url(#SVGID_152_);enable-background:new    ;}
	.st159{opacity:0.7;fill:url(#SVGID_153_);enable-background:new    ;}
	.st160{opacity:0.7;fill:url(#SVGID_154_);enable-background:new    ;}
	.st161{fill:url(#SVGID_155_);}
	.st162{fill:url(#SVGID_156_);}
	.st163{fill:url(#SVGID_157_);}
	.st164{fill:url(#SVGID_158_);}
	.st165{fill:url(#SVGID_159_);}
	.st166{fill:url(#SVGID_160_);}
	.st167{fill:url(#SVGID_161_);}
	.st168{fill:url(#SVGID_162_);}
	.st169{fill:url(#SVGID_163_);}
	.st170{opacity:0.7;fill:url(#SVGID_164_);enable-background:new    ;}
	.st171{opacity:0.7;fill:url(#SVGID_165_);enable-background:new    ;}
	.st172{opacity:0.7;fill:url(#SVGID_166_);enable-background:new    ;}
	.st173{opacity:0.7;fill:url(#SVGID_167_);enable-background:new    ;}
	.st174{fill:url(#SVGID_168_);}
	.st175{fill:url(#SVGID_169_);}
	.st176{opacity:0.7;fill:url(#SVGID_170_);enable-background:new    ;}
	.st177{opacity:0.7;fill:url(#SVGID_171_);enable-background:new    ;}
	.st178{opacity:0.7;fill:url(#SVGID_172_);enable-background:new    ;}
	.st179{opacity:0.7;fill:url(#SVGID_173_);enable-background:new    ;}
	.st180{opacity:0.7;fill:url(#SVGID_174_);enable-background:new    ;}
	.st181{opacity:0.7;fill:url(#SVGID_175_);enable-background:new    ;}
	.st182{opacity:0.7;fill:url(#SVGID_176_);enable-background:new    ;}
</style>
<g>
	<g>
		<polyline points="354.1,1953.1 235.8,2159 384,2159 384,2112.3 317.8,2112.3 379,2010 461.7,2159 523.2,2159 403.6,1953.1 
			354.1,1953.1 		"/>
		<polyline points="657.4,2159 720.8,2048.9 720.8,2159 771.7,2159 771.9,1953.1 721,1953.1 637,2098.9 552.9,1953.1 502.1,1953.1 
			502.2,2159 553.1,2159 553.1,2048.9 616.5,2159 657.4,2159 		"/>
		<path d="M242.4,2035H113.7v43.4h74.6v33.8H55.1v-114.6h184.9v-44.6H53.4c-40.4,0-53.4,12.4-53.4,51.1v103.5
			c0,38.9,13,51.3,53.4,51.3h135.5c40.4,0,53.3-12.4,53.3-51.3L242.4,2035"/>
		<path d="M1222.9,1953.1h-121.1c-40.6,0-53.4,12.4-53.4,51.2v103.4c0,38.9,12.9,51.2,53.4,51.2h121.1c40.4,0,53.5-12.3,53.5-51.2
			v-37.5h-55.3v42.1h-117.5v-114.5h117.5v37.3h55.3v-30.7C1276.5,1965.5,1263.3,1953.1,1222.9,1953.1"/>
		<path d="M1474.3,2112.3h-120.4v-159.2h-55.3v154.6c0,38.9,13,51.3,53.4,51.3h124c40.5,0,53.5-12.4,53.5-51.3v-154.6h-55.3v159.2"
			/>
		<path d="M1725.8,2101.1c0,9.9-2.2,12.6-17.2,12.6h-99.4v-39.8h99.4c15,0,17.2,2.8,17.2,12.5V2101.1 M1609.2,1994.5h99.2
			c15.3,0,16,3.3,16,9.2v18.8c0,5.9-0.7,9.3-16,9.3h-99.2V1994.5L1609.2,1994.5z M1755,2053.1c13.3-6.3,20.6-18,20.6-33.3v-24.1
			c0-29.2-15.6-42.6-49-42.6h-172.6V2159h160.6c41.8,0,62.9-14.5,62.9-43.5v-24.9C1777.4,2072.9,1769.5,2060,1755,2053.1z"/>
		<polyline points="1853.5,2073.7 1944.1,2073.7 1944.1,2030.5 1853.5,2030.5 1853.5,1996.4 2008.8,1996.4 2008.8,1953.1 
			1798.2,1953.1 1798.2,2159 2010.8,2159 2010.8,2112.3 1853.5,2112.3 1853.5,2073.7 		"/>
		<polyline points="851.6,2073.7 942.1,2073.7 942.1,2030.5 851.6,2030.5 851.6,1996.4 1006.8,1996.4 1006.8,1953.1 796.3,1953.1 
			796.3,2159 1008.7,2159 1008.7,2112.3 851.6,2112.3 851.6,2073.7 		"/>
		<polyline class="st0" points="1437.6,1896.2 1437.6,1737.9 1407.3,1737.9 1407.3,1838.9 1356.2,1737.9 1315.6,1737.9 
			1315.6,1896.2 1345.7,1896.2 1345.7,1772.8 1407.6,1896.2 1437.6,1896.2 		"/>
		<polyline class="st0" points="565.4,1772.8 627.4,1896.2 657.2,1896.2 657.2,1737.9 627.1,1737.9 627.1,1838.9 575.9,1737.9 
			535.3,1737.9 535.3,1896.2 565.4,1896.2 565.4,1772.8 		"/>
		<polyline class="st0" points="72.1,1772.8 134.2,1896.2 163.9,1896.2 163.9,1737.9 133.8,1737.9 133.8,1838.9 82.7,1737.9 
			42.1,1737.9 42.1,1896.2 72.1,1896.2 72.1,1772.8 		"/>
		<rect x="332.6" y="1737.9" class="st0" width="33.9" height="158.3"/>
		<polyline class="st0" points="843.2,1896.2 875.4,1896.2 875.4,1763.1 926.2,1763.1 926.2,1738 792.3,1738 792.3,1763.1 
			843.2,1763.1 843.2,1896.2 		"/>
		<path class="st0" d="M1615.1,1762.2h42.4c10.4,0,21.1,7.9,21.1,17.5v74.8c0,10.2-11,17.3-21.1,17.3h-42.4V1762.2 M1658.4,1896.2
			c27.7,0,50-18.3,50-40.8v-76.5c0-22.6-22.4-40.9-50-40.9h-73.1v158.3L1658.4,1896.2L1658.4,1896.2z"/>
		<path class="st0" d="M1942.6,1855.7c0,9.5-10.8,17.4-21.1,17.4h-25.1c-10.4,0-21.1-7.9-21.1-17.4v-77.2c0-9.8,10.7-17.4,21.1-17.4
			h25.1c10.3,0,21.1,7.7,21.1,17.4V1855.7 M1972.4,1777.6c0-22.5-22.5-40.8-50-40.8h-27c-27.5,0-50,18.3-50,40.8v78.9
			c0,22.6,22.4,40.8,50,40.8h27c27.5,0,50-18.2,50-40.8V1777.6z"/>
		<path class="st0" d="M1050.6,1855.5c0,22,21.2,39.7,47.8,40.7h69.7v-25.1h-66.7c-10.4,0-21.1-6.8-21.1-16.4v-28.6h87.9v-25.3
			h-87.9v-21.2c0-9.6,10.7-16.5,21.1-16.5h66.7v-25h-68.6c-27,0.6-48.8,18.5-48.8,40.7L1050.6,1855.5"/>
	</g>
	<g>
		<g>
			
				<linearGradient id="SVGID_1_" gradientUnits="userSpaceOnUse" x1="1319.4508" y1="-7262.8467" x2="1530.7747" y2="-7262.8467" gradientTransform="matrix(1 0 0 1 0 7645.3281)">
				<stop  offset="0" style="stop-color:#3C4DA1"/>
				<stop  offset="0.9932" style="stop-color:#45495F"/>
			</linearGradient>
			<polygon class="st1" points="1530.8,303.9 1530.8,339 1319.5,461 1319.5,425.9 			"/>
			
				<linearGradient id="SVGID_2_" gradientUnits="userSpaceOnUse" x1="757.5192" y1="-6563.9292" x2="757.5192" y2="-6261.3818" gradientTransform="matrix(1 0 0 1 0 7645.3281)">
				<stop  offset="3.680000e-02" style="stop-color:#F7FBFF"/>
				<stop  offset="0.8957" style="stop-color:#E7ECFE"/>
			</linearGradient>
			<polygon class="st2" points="541.1,1081.4 510.7,1098.9 1004.3,1383.9 1004.3,1348.8 			"/>
			<g>
				<path class="st27" d="M510.7,529l493.6-285"/>
			</g>
			<path class="st27" d="M1004.3,244l315.1,181.9"/>
			
				<linearGradient id="SVGID_3_" gradientUnits="userSpaceOnUse" x1="1482.7148" y1="-6546.4438" x2="1482.7148" y2="-6851.29" gradientTransform="matrix(1 0 0 1 0 7645.3281)">
				<stop  offset="3.680000e-02" style="stop-color:#ADC1EA"/>
				<stop  offset="0.8957" style="stop-color:#7185B8"/>
			</linearGradient>
			<polygon class="st4" points="1467.5,811.5 1467.5,1081.4 1497.9,1098.9 1497.9,794 			"/>
			
				<linearGradient id="SVGID_4_" gradientUnits="userSpaceOnUse" x1="1004.3135" y1="-6412.6553" x2="1497.9021" y2="-6412.6553" gradientTransform="matrix(1 0 0 1 0 7645.3281)">
				<stop  offset="3.680000e-02" style="stop-color:#F7FBFF"/>
				<stop  offset="0.8957" style="stop-color:#6F83B9"/>
			</linearGradient>
			<polygon class="st5" points="1467.5,1081.4 1004.3,1348.8 1004.3,1383.9 1497.9,1098.9 			"/>
			<g>
				<g>
					
						<linearGradient id="SVGID_5_" gradientUnits="userSpaceOnUse" x1="1183.0145" y1="-3789.0315" x2="1887.927" y2="-3789.0315" gradientTransform="matrix(1 0 0 1 -883.6135 4806.4336)">
						<stop  offset="0" style="stop-color:#617CC6"/>
						<stop  offset="0.9932" style="stop-color:#91B0D7"/>
					</linearGradient>
					<path class="st6" d="M677.1,625v377.9l327.2,188.9V813.9L677.1,625z M510.7,529L299.4,407v813.9l704.9,407v-244l-493.6-285V529
						z"/>
				</g>
			</g>
			
				<linearGradient id="SVGID_6_" gradientUnits="userSpaceOnUse" x1="757.5192" y1="-7401.3315" x2="757.5192" y2="-6546.4438" gradientTransform="matrix(1 0 0 1 0 7645.3281)">
				<stop  offset="1.491781e-07" style="stop-color:#4C5794"/>
				<stop  offset="1" style="stop-color:#424873"/>
			</linearGradient>
			<polygon class="st7" points="510.7,529 510.7,529 510.7,1098.9 541.1,1081.4 541.1,546.5 541.1,546.5 1004.3,279.1 1004.3,244 
							"/>
			
				<linearGradient id="SVGID_7_" gradientUnits="userSpaceOnUse" x1="1078.7766" y1="-6905.8696" x2="1634.7129" y2="-6349.9326" gradientTransform="matrix(1 0 0 1 0 7645.3281)">
				<stop  offset="7.458905e-08" style="stop-color:#3F578E"/>
				<stop  offset="0.1523" style="stop-color:#435A92"/>
				<stop  offset="0.3057" style="stop-color:#4F639D"/>
				<stop  offset="0.4593" style="stop-color:#6373B0"/>
				<stop  offset="0.5006" style="stop-color:#6A78B6"/>
				<stop  offset="0.8998" style="stop-color:#6F83C1"/>
				<stop  offset="1" style="stop-color:#7187C4"/>
			</linearGradient>
			<polygon class="st8" points="1004.3,1627.9 1004.3,1383.9 1497.9,1098.9 1497.9,794 1331.5,890.1 1331.5,1002.9 1004.3,1191.8 
				1004.3,813.9 1709.2,407 1709.2,1220.9 1706.4,1222.6 			"/>
			<g>
				<g>
					
						<linearGradient id="SVGID_8_" gradientUnits="userSpaceOnUse" x1="1887.927" y1="-4806.4336" x2="1887.927" y2="-3992.512" gradientTransform="matrix(1 0 0 1 -883.6135 4806.4336)">
						<stop  offset="0" style="stop-color:#9AA8D4"/>
						<stop  offset="6.100000e-02" style="stop-color:#A2AFD7"/>
						<stop  offset="0.2422" style="stop-color:#B6BFDF"/>
						<stop  offset="0.4249" style="stop-color:#C2C9E3"/>
						<stop  offset="0.6099" style="stop-color:#C6CCE5"/>
						<stop  offset="1" style="stop-color:#F2F1F7"/>
					</linearGradient>
					<path class="st9" d="M1319.5,425.9l211.3-122L1004.3,0L299.4,407l211.3,122l493.6-285L1319.5,425.9z M1678.9,389.5l-377.7,218
						l-296.9-171.4L677.1,625l327.2,188.9l704.9-407L1678.9,389.5z"/>
				</g>
			</g>
			
				<linearGradient id="SVGID_9_" gradientUnits="userSpaceOnUse" x1="1004.3135" y1="-7292.8218" x2="1319.4508" y2="-7292.8218" gradientTransform="matrix(1 0 0 1 0 7645.3281)">
				<stop  offset="3.680000e-02" style="stop-color:#8792C3"/>
				<stop  offset="1" style="stop-color:#5C6D99"/>
			</linearGradient>
			<polygon class="st10" points="1004.3,244 1004.3,279.1 1319.5,461 1319.5,425.9 			"/>
			
				<linearGradient id="SVGID_10_" gradientUnits="userSpaceOnUse" x1="963.0479" y1="-6654.354" x2="1004.3135" y2="-6654.354" gradientTransform="matrix(1 0 0 1 0 7645.3281)">
				<stop  offset="0.5313" style="stop-color:#ACC3D6;stop-opacity:0"/>
				<stop  offset="1" style="stop-color:#ACC3D6"/>
			</linearGradient>
			<polygon class="st11" points="963,790.1 963,1168 1004.3,1191.8 1004.3,813.9 			"/>
			
				<linearGradient id="SVGID_11_" gradientUnits="userSpaceOnUse" x1="963.0479" y1="-6151.3232" x2="1004.3135" y2="-6151.3232" gradientTransform="matrix(1 0 0 1 0 7645.3281)">
				<stop  offset="0.5313" style="stop-color:#ACC3D6;stop-opacity:0"/>
				<stop  offset="1" style="stop-color:#ACC3D6"/>
			</linearGradient>
			<polygon class="st12" points="963,1360.1 963,1604.1 1004.3,1627.9 1004.3,1383.9 			"/>
			<g class="st13">
				
					<linearGradient id="SVGID_12_" gradientUnits="userSpaceOnUse" x1="18230.4844" y1="-9956.5371" x2="18271.7715" y2="-9956.5371" gradientTransform="matrix(0.5 -0.866 0.866 0.5 -98.2376 21275.7051)">
					<stop  offset="0.6232" style="stop-color:#47588B;stop-opacity:0"/>
					<stop  offset="1" style="stop-color:#47588B"/>
				</linearGradient>
				<polygon class="st14" points="299.4,454.6 510.7,576.6 510.7,529 299.4,407 				"/>
				
					<linearGradient id="SVGID_13_" gradientUnits="userSpaceOnUse" x1="18230.4844" y1="-9453.5088" x2="18271.7715" y2="-9453.5088" gradientTransform="matrix(0.5 -0.866 0.866 0.5 -98.2376 21275.7051)">
					<stop  offset="0.6232" style="stop-color:#47588B;stop-opacity:0"/>
					<stop  offset="1" style="stop-color:#47588B"/>
				</linearGradient>
				<polygon class="st15" points="677.1,672.6 1004.3,861.6 1004.3,814 677.1,625 				"/>
			</g>
			
				<linearGradient id="SVGID_14_" gradientUnits="userSpaceOnUse" x1="868.6238" y1="-7083.229" x2="847.9905" y2="-7118.9668" gradientTransform="matrix(1 0 0 1 0 7645.3281)">
				<stop  offset="2.290950e-07" style="stop-color:#DBDDE8;stop-opacity:0"/>
				<stop  offset="0.1847" style="stop-color:#D8DAE6;stop-opacity:3.690000e-02"/>
				<stop  offset="0.3247" style="stop-color:#CED1DF;stop-opacity:6.490000e-02"/>
				<stop  offset="0.4499" style="stop-color:#BEC1D4;stop-opacity:9.000000e-02"/>
				<stop  offset="0.5666" style="stop-color:#A7ABC4;stop-opacity:0.1133"/>
				<stop  offset="0.6774" style="stop-color:#898EB0;stop-opacity:0.1355"/>
				<stop  offset="0.7836" style="stop-color:#656A97;stop-opacity:0.1567"/>
				<stop  offset="0.8864" style="stop-color:#3A4079;stop-opacity:0.1773"/>
				<stop  offset="0.9839" style="stop-color:#091157;stop-opacity:0.1968"/>
				<stop  offset="1" style="stop-color:#000851;stop-opacity:0.2"/>
			</linearGradient>
			<polygon class="st16" points="1033.5,453 718.4,648.9 677.1,625 1004.3,436.1 			"/>
			
				<linearGradient id="SVGID_15_" gradientUnits="userSpaceOnUse" x1="22790.625" y1="-6411.9922" x2="22779.6777" y2="-6430.9531" gradientTransform="matrix(-1 0 0 1 23551.1133 7645.3281)">
				<stop  offset="2.290950e-07" style="stop-color:#DBDDE8;stop-opacity:0"/>
				<stop  offset="0.312" style="stop-color:#D9DBE7;stop-opacity:6.240000e-02"/>
				<stop  offset="0.4549" style="stop-color:#D1D4E1;stop-opacity:9.100000e-02"/>
				<stop  offset="0.5633" style="stop-color:#C5C7D9;stop-opacity:0.1127"/>
				<stop  offset="0.6543" style="stop-color:#B3B6CC;stop-opacity:0.1309"/>
				<stop  offset="0.7345" style="stop-color:#9B9FBC;stop-opacity:0.1469"/>
				<stop  offset="0.807" style="stop-color:#7E82A8;stop-opacity:0.1614"/>
				<stop  offset="0.8737" style="stop-color:#5B6190;stop-opacity:0.1747"/>
				<stop  offset="0.9359" style="stop-color:#333974;stop-opacity:0.1872"/>
				<stop  offset="0.9924" style="stop-color:#070E56;stop-opacity:0.1985"/>
				<stop  offset="1" style="stop-color:#000851;stop-opacity:0.2"/>
			</linearGradient>
			<polygon class="st17" points="519.2,1094 1004.3,1368.3 1004.3,1348.8 541.1,1081.4 			"/>
			<g class="st13">
				
					<linearGradient id="SVGID_16_" gradientUnits="userSpaceOnUse" x1="17736.9141" y1="-9264.5771" x2="17778.1719" y2="-9264.5771" gradientTransform="matrix(0.5 -0.866 0.866 0.5 -98.2376 21275.7051)">
					<stop  offset="0.6232" style="stop-color:#47588B;stop-opacity:0"/>
					<stop  offset="1" style="stop-color:#47588B"/>
				</linearGradient>
				<polygon class="st18" points="510.7,1098.9 674.2,1212.3 1004.3,1431.5 1004.3,1383.9 				"/>
			</g>
			<g class="st13">
				
					<linearGradient id="SVGID_17_" gradientUnits="userSpaceOnUse" x1="28513.4961" y1="9388.623" x2="28554.7715" y2="9388.623" gradientTransform="matrix(-0.5 -0.866 -0.866 0.5 23659.1387 21275.7051)">
					<stop  offset="0.7598" style="stop-color:#3B4D86;stop-opacity:0"/>
					<stop  offset="1" style="stop-color:#3B4D86"/>
				</linearGradient>
				<polygon class="st19" points="1497.9,1146.5 1210.7,1271.8 1004.3,1383.9 1215.9,1261.7 1497.9,1098.9 				"/>
			</g>
			<g>
				
					<linearGradient id="SVGID_18_" gradientUnits="userSpaceOnUse" x1="29581.5801" y1="9388.667" x2="29541.7402" y2="9388.667" gradientTransform="matrix(-0.5 -0.866 -0.866 0.5 23659.1387 21275.7051)">
					<stop  offset="0.6232" style="stop-color:#E8F2F3;stop-opacity:0"/>
					<stop  offset="0.9975" style="stop-color:#E8F2F3"/>
				</linearGradient>
				<polygon class="st20" points="1004.3,244.2 510.7,529 471.1,506.1 1004.3,198.4 				"/>
			</g>
			<g class="st13">
				
					<linearGradient id="SVGID_19_" gradientUnits="userSpaceOnUse" x1="18774.502" y1="-9432.2139" x2="18734.7266" y2="-9432.2139" gradientTransform="matrix(0.5 -0.866 0.866 0.5 -37.3636 21275.7051)">
					<stop  offset="0.6232" style="stop-color:#E8F2F3;stop-opacity:0"/>
					<stop  offset="0.9975" style="stop-color:#E8F2F3"/>
				</linearGradient>
				<polygon class="st21" points="1004.3,244.2 1319.5,425.9 1359,403.1 1004.3,198.4 				"/>
			</g>
			<g class="st13">
				
					<linearGradient id="SVGID_20_" gradientUnits="userSpaceOnUse" x1="-5619.3608" y1="4822.7686" x2="-5579.6494" y2="4822.7686" gradientTransform="matrix(0.5 0.866 0.866 -0.5 28.4645 7614.061)">
					<stop  offset="0.6232" style="stop-color:#E8F2F3;stop-opacity:0"/>
					<stop  offset="0.9975" style="stop-color:#E8F2F3"/>
				</linearGradient>
				<polygon class="st22" points="1279.7,403.1 1491.1,281.1 1530.8,303.9 1319.5,425.9 				"/>
			</g>
			<g>
				
					<linearGradient id="SVGID_21_" gradientUnits="userSpaceOnUse" x1="22070.707" y1="20358.0801" x2="22111.9727" y2="20358.0801" gradientTransform="matrix(-1 0 0 -1 23609.875 21292.5996)">
					<stop  offset="0.7598" style="stop-color:#3B4D86;stop-opacity:0"/>
					<stop  offset="1" style="stop-color:#3B4D86"/>
				</linearGradient>
				<polygon class="st23" points="1539.2,1075.1 1539.2,770.2 1497.9,794 1497.9,1098.9 				"/>
			</g>
			
				<linearGradient id="SVGID_22_" gradientUnits="userSpaceOnUse" x1="1519.1122" y1="-6532.8218" x2="1497.3062" y2="-6545.4121" gradientTransform="matrix(1 0 0 1 0 7645.3281)">
				<stop  offset="0.7598" style="stop-color:#3B4D86;stop-opacity:0"/>
				<stop  offset="1" style="stop-color:#3B4D86"/>
			</linearGradient>
			<polygon class="st24" points="1497.9,1149.2 1497.9,1098.9 1539.2,1075.1 			"/>
		</g>
	</g>
</g>
</svg>
