<?xml version="1.0" encoding="utf-8"?>
<!-- Generator: Adobe Illustrator 26.0.3, SVG Export Plug-In . SVG Version: 6.00 Build 0)  -->
<svg version="1.1" id="Layer_1" xmlns="http://www.w3.org/2000/svg" xmlns:xlink="http://www.w3.org/1999/xlink" x="0px" y="0px"
	 viewBox="0 0 3839 793.5" style="enable-background:new 0 0 3839 793.5;" xml:space="preserve">
<style type="text/css">
	.st0{display:none;}
	.st1{display:inline;}
	.st2{fill:url(#SVGID_1_);}
	.st3{fill:url(#SVGID_00000154411834958825412560000016388276797406747563_);}
	.st4{clip-path:url(#SVGID_00000022543483861396637740000016662012003075543964_);}
	.st5{clip-path:url(#SVGID_00000033367015013965032580000010785295191740750994_);fill:none;}
	.st6{fill:none;}
	.st7{fill:url(#SVGID_00000144306509480848804720000014171349637263923089_);}
	.st8{clip-path:url(#SVGID_00000081642018982663473500000000760706047353069711_);}
	.st9{clip-path:url(#SVGID_00000146491190105197983540000005064633326444796590_);}
	.st10{clip-path:url(#SVGID_00000015317522397484024540000012549620216115799742_);}
	.st11{fill:url(#SVGID_00000139251648676231581700000017903613625891227569_);}
	.st12{fill:url(#SVGID_00000083773434887753054980000006269726777004513197_);}
	.st13{clip-path:url(#SVGID_00000149383770720399505440000014789173207799778976_);}
	.st14{clip-path:url(#SVGID_00000031188642840489795150000006926841574383276975_);fill:none;}
	.st15{fill:url(#SVGID_00000051384491948520441400000007979229128976574605_);}
	.st16{clip-path:url(#SVGID_00000093877329935068024220000011982934663949215369_);}
	.st17{clip-path:url(#SVGID_00000058557930894513974500000017089782215995585172_);}
	.st18{clip-path:url(#SVGID_00000112616387021696801300000018444688321222292158_);}
	.st19{fill:#FFFFFF;}
	.st20{fill:url(#SVGID_00000008868233684604685080000006905950612817590414_);}
	.st21{fill:url(#SVGID_00000030455989224608727390000008339782147115650705_);}
	.st22{clip-path:url(#SVGID_00000074430427603457789930000016190090080449930903_);fill:#FFFFFF;}
	.st23{clip-path:url(#SVGID_00000097484907464348344020000012003726208681571986_);fill:none;}
	.st24{fill:url(#SVGID_00000096055670093237255870000007212648188777738163_);}
	.st25{clip-path:url(#SVGID_00000031897533814841076380000002314131718670696861_);fill:#FFFFFF;}
	.st26{clip-path:url(#SVGID_00000085224462835581223450000006085313015579863696_);fill:#FFFFFF;}
	.st27{clip-path:url(#SVGID_00000021802275142003474620000015193237033864998057_);}
	.st28{clip-path:url(#SVGID_00000021802275142003474620000015193237033864998057_);fill:#FFFFFF;}
	.st29{fill:url(#SVGID_00000057150157837861957670000013362035777737936512_);}
	.st30{fill:url(#SVGID_00000016794325529130259500000005656402172555633317_);}
	.st31{clip-path:url(#SVGID_00000062165779680720645980000005027517832822122161_);fill:#FFFFFF;}
	.st32{clip-path:url(#SVGID_00000061430832625895029410000000726057123586232452_);fill:none;}
	.st33{fill:url(#SVGID_00000178894650312242672000000011858724233019178391_);}
	.st34{clip-path:url(#SVGID_00000038388781165090420200000013671341726778897819_);fill:#FFFFFF;}
	.st35{clip-path:url(#SVGID_00000116193831103203314800000005517602005010862262_);fill:#FFFFFF;}
	.st36{clip-path:url(#SVGID_00000062894880275556652470000012116467551330090382_);}
	.st37{clip-path:url(#SVGID_00000062894880275556652470000012116467551330090382_);fill:#FFFFFF;}
	.st38{clip-path:url(#SVGID_00000031899790874893216110000012856792546324030902_);}
	.st39{clip-path:url(#SVGID_00000167387685072783887110000006946674296240607398_);}
	.st40{clip-path:url(#SVGID_00000085243858526855036720000015176883500194071709_);}
	.st41{clip-path:url(#SVGID_00000134223682842955619670000006755329580832638894_);}
	.st42{clip-path:url(#SVGID_00000109740085679241349260000009838839939261182634_);}
	.st43{clip-path:url(#SVGID_00000052823773170788160010000001151468104349951877_);}
	.st44{clip-path:url(#SVGID_00000064354192487755440300000007820301299688695738_);fill:#FFFFFF;}
	.st45{clip-path:url(#SVGID_00000134936100628249921960000009634368913295992978_);fill:#FFFFFF;}
	.st46{clip-path:url(#SVGID_00000109740785319854737070000004215159682912059300_);}
	.st47{clip-path:url(#SVGID_00000109740785319854737070000004215159682912059300_);fill:#FFFFFF;}
	.st48{clip-path:url(#SVGID_00000121990759964056380030000004611667343495011222_);fill:#FFFFFF;}
	.st49{clip-path:url(#SVGID_00000018211451229738971920000004245210189570020793_);fill:#FFFFFF;}
	.st50{clip-path:url(#SVGID_00000100365329954494011490000002579604681501161394_);}
	.st51{clip-path:url(#SVGID_00000100365329954494011490000002579604681501161394_);fill:#FFFFFF;}
	.st52{fill:url(#SVGID_00000124146300228059113650000006245086345470679450_);}
	.st53{fill:url(#SVGID_00000004547077551977614220000010805397635452346530_);}
	.st54{clip-path:url(#SVGID_00000020368175185594896970000012674637608086603142_);}
	.st55{clip-path:url(#SVGID_00000159440944729039417040000003655934361792739260_);fill:none;}
	.st56{fill:url(#SVGID_00000027600726848235542990000006131210675785631400_);}
	.st57{fill:url(#SVGID_00000137810502738850499560000004847462135018492050_);}
	.st58{clip-path:url(#SVGID_00000010284334852277138410000008651922175264714174_);}
	.st59{clip-path:url(#SVGID_00000107557020080648697030000012680041561683016110_);fill:none;}
	.st60{fill:url(#SVGID_00000009585985128479474720000013856816906953814151_);}
	.st61{clip-path:url(#SVGID_00000049943034429324183370000002047580245577038496_);}
	.st62{clip-path:url(#SVGID_00000031204360133369372290000005440202098319916693_);}
	.st63{clip-path:url(#SVGID_00000109743876191217434160000003022928696847972225_);}
	.st64{fill:url(#SVGID_00000143609782145884706920000011104087473100180371_);}
	.st65{clip-path:url(#SVGID_00000062896478617646460190000010861177476069231532_);}
	.st66{clip-path:url(#SVGID_00000070079021688245934680000010262293439012684991_);}
	.st67{clip-path:url(#SVGID_00000016775084963471892690000006274638178260585356_);}
	.st68{clip-path:url(#SVGID_00000104675334146315303050000006072252418906503352_);}
	.st69{clip-path:url(#SVGID_00000034072622592365276770000004861218626186305703_);}
	.st70{clip-path:url(#SVGID_00000107555489915566834120000016455547552961414801_);}
	.st71{fill:url(#SVGID_00000158000657420413679850000005636389245360455345_);}
	.st72{clip-path:url(#SVGID_00000164482158364068673960000010138809308015556285_);}
	.st73{clip-path:url(#SVGID_00000155868123367114579530000016871782070187218837_);}
	.st74{clip-path:url(#SVGID_00000035510953212498671370000008855355607859053746_);}
	.st75{fill:url(#SVGID_00000127031812260922347020000015852093959452535720_);}
	.st76{fill:url(#SVGID_00000145744287620375117190000015759660730479847614_);}
	.st77{clip-path:url(#SVGID_00000132771551865028551280000002976089635554422934_);}
	.st78{clip-path:url(#SVGID_00000022531097370072033970000000568516101572441528_);fill:none;}
	.st79{clip-path:url(#SVGID_00000047050905298189439400000007442864326978929556_);}
	.st80{clip-path:url(#SVGID_00000097472595278059756810000014485687408846494906_);}
	.st81{clip-path:url(#SVGID_00000140709710123901085130000000824998621016664234_);}
	.st82{fill:url(#SVGID_00000165919418267600833420000006167451226138710404_);}
	.st83{clip-path:url(#SVGID_00000096745038873350410770000006205171104525148554_);}
	.st84{clip-path:url(#SVGID_00000057116576095492573950000008084781922382802102_);}
	.st85{clip-path:url(#SVGID_00000113342586758950706670000001572601055427894935_);}
	.st86{clip-path:url(#SVGID_00000147205168251826717030000012467382037629756815_);}
	.st87{clip-path:url(#SVGID_00000145765051030007520940000017175243487927900825_);}
	.st88{clip-path:url(#SVGID_00000054266942705171328960000006207574417750147759_);}
	.st89{clip-path:url(#SVGID_00000181071554304962965130000018043284049439796886_);}
	.st90{clip-path:url(#SVGID_00000008123045732898189800000017537197008233883037_);}
	.st91{clip-path:url(#SVGID_00000000204600496155194340000000373941239421813135_);}
	.st92{fill:url(#SVGID_00000146458180246769740400000013409696495558491012_);}
	.st93{clip-path:url(#SVGID_00000068660215504144040430000009639014450809555876_);}
	.st94{clip-path:url(#SVGID_00000150781197555711882110000015442434931023666855_);}
	.st95{clip-path:url(#SVGID_00000062175120559177806160000005742664895147236506_);}
	.st96{clip-path:url(#SVGID_00000135677302032906051870000007771106129032655005_);}
	.st97{clip-path:url(#SVGID_00000039123060399536392140000009445200588433728435_);fill:#FFFFFF;}
	.st98{clip-path:url(#SVGID_00000073695552207753551930000009252024831685374604_);}
	.st99{clip-path:url(#SVGID_00000091695982325683657580000014107466114778930869_);}
	.st100{clip-path:url(#SVGID_00000170979823296330433540000000687206938114097830_);fill:#FFFFFF;}
	.st101{clip-path:url(#SVGID_00000080208706252976505370000002900334647450421149_);}
	.st102{fill:url(#SVGID_00000098217043106816562710000009655758778699789730_);}
	.st103{fill:url(#SVGID_00000119106185473133754420000014834696989384301493_);}
	.st104{clip-path:url(#SVGID_00000035530335345575293400000001494146478640474514_);}
	.st105{clip-path:url(#SVGID_00000020371654601304396700000004291630285959917475_);fill:none;}
	.st106{clip-path:url(#SVGID_00000137840183429121816430000013788693377989251244_);}
	.st107{clip-path:url(#SVGID_00000019638591631731471410000004621852219388325284_);}
	.st108{clip-path:url(#SVGID_00000000215841285852007610000015243890330835794580_);}
	.st109{fill:url(#SVGID_00000159432134099048402740000011824701045435668923_);}
	.st110{fill:url(#SVGID_00000031186347713533474210000007591522554656925361_);}
	.st111{fill:url(#SVGID_00000147936392596133606100000006171008084350187431_);}
	.st112{clip-path:url(#SVGID_00000074417415627295820970000015351857877688316066_);}
	.st113{clip-path:url(#SVGID_00000134230869703076195840000003456874500636960917_);fill:none;}
	.st114{fill:url(#SVGID_00000014625096951524846030000013606882972444522624_);}
	.st115{fill:url(#SVGID_00000139984667503181336290000013470227895976510367_);}
	.st116{clip-path:url(#SVGID_00000068671280642774320680000007969722564118184870_);}
	.st117{clip-path:url(#SVGID_00000067224232500681996110000011487099255182723207_);fill:none;}
	.st118{clip-path:url(#SVGID_00000097502169860152891140000016293352916445761172_);}
	.st119{clip-path:url(#SVGID_00000131345249176971257610000004033627437546586296_);}
	.st120{clip-path:url(#SVGID_00000159439195931232110460000013608674626341214891_);}
	.st121{fill:url(#SVGID_00000045592698917324422300000000891488534910053781_);}
	.st122{fill:url(#SVGID_00000082354004853829389720000001646862756247875214_);}
	.st123{fill:url(#SVGID_00000123418574998236810280000001803884460696515744_);}
	.st124{clip-path:url(#SVGID_00000033365724843696053950000000755132635078309550_);}
	.st125{clip-path:url(#SVGID_00000088817818637110618520000000342537565711837576_);fill:none;}
	.st126{clip-path:url(#SVGID_00000036950087498740738850000017857803681295508610_);}
	.st127{clip-path:url(#SVGID_00000158008254295395068500000002589559627935046567_);}
	.st128{clip-path:url(#SVGID_00000054252522604386725890000010253969392161864621_);}
	.st129{fill:url(#SVGID_00000163034892752015221490000011069867439576918202_);}
	.st130{fill:url(#SVGID_00000158031305793730996020000017429838410548479913_);}
	.st131{fill:url(#SVGID_00000119802625768722749050000010679662119724998318_);}
	.st132{clip-path:url(#SVGID_00000066489187912322744760000016947472614965140882_);}
	.st133{clip-path:url(#SVGID_00000068656948346556791450000005863395237078394504_);fill:none;}
	.st134{clip-path:url(#SVGID_00000068657149769728037010000013705755326760966025_);}
	.st135{clip-path:url(#SVGID_00000114753455054956162610000016853823865632896919_);}
	.st136{clip-path:url(#SVGID_00000067915636812275236700000012368434512217714562_);}
	.st137{fill:url(#SVGID_00000035525611948900616120000014947058516737458843_);}
	.st138{fill:url(#SVGID_00000088109801135396622610000008304229408174908074_);}
	.st139{fill:url(#SVGID_00000016051575127392720160000016843684691413138598_);}
	.st140{clip-path:url(#SVGID_00000060015829516582459320000000340352008478817206_);}
	.st141{clip-path:url(#SVGID_00000167358291480454208290000011384162532871227325_);fill:none;}
	.st142{clip-path:url(#SVGID_00000146470644027033336060000001721813321113719449_);}
	.st143{clip-path:url(#SVGID_00000016763758178243760340000014096093098180613036_);}
	.st144{clip-path:url(#SVGID_00000166674817058631017790000012129330277067272869_);}
	.st145{fill:url(#SVGID_00000155850107288023980130000011062498859932056194_);}
	.st146{fill:url(#SVGID_00000178179751204313699340000001170077085136251543_);}
	.st147{fill:url(#SVGID_00000058576631142164585930000002130258511359086721_);}
	.st148{clip-path:url(#SVGID_00000001622516445155237770000009729729160383573391_);}
	.st149{clip-path:url(#SVGID_00000015326745706039916960000016868960554988355497_);fill:none;}
	.st150{clip-path:url(#SVGID_00000037652312641114864630000004919412836238157718_);}
	.st151{clip-path:url(#SVGID_00000033343722132718968610000010427231133054237068_);fill:#FFFFFF;}
	.st152{clip-path:url(#SVGID_00000130645611077992848860000010242869138769212056_);}
	.st153{fill:url(#SVGID_00000136405784239569593920000012919812401804650112_);}
	.st154{fill:url(#SVGID_00000135672346637828681700000014230700581153077920_);}
	.st155{fill:url(#SVGID_00000173839429888900511000000009044127672871143313_);}
	.st156{clip-path:url(#SVGID_00000152260226112135202390000017372470493003572380_);fill:#FFFFFF;}
	.st157{clip-path:url(#SVGID_00000152224309432693433430000009014485966490244011_);fill:none;}
	.st158{clip-path:url(#SVGID_00000085240428076524908290000005781792899232519094_);}
	.st159{clip-path:url(#SVGID_00000018949538146610652300000010227309695002274747_);fill:#FFFFFF;}
	.st160{clip-path:url(#SVGID_00000121278045555431632520000005344390804735873959_);}
	.st161{fill:url(#SVGID_00000031180758650325915240000007774122113647865744_);}
	.st162{fill:url(#SVGID_00000033368821457194089540000010220580291972850329_);}
	.st163{fill:url(#SVGID_00000165942073544477964290000008897081317951159704_);}
	.st164{clip-path:url(#SVGID_00000065075744916963395430000017293389679844279173_);fill:#FFFFFF;}
	.st165{clip-path:url(#SVGID_00000147936224523821714950000008852901727524794532_);fill:none;}
</style>
<g class="st0">
	<g class="st1">
		<g>
			<g>
				
					<linearGradient id="SVGID_1_" gradientUnits="userSpaceOnUse" x1="6070.9736" y1="10625.3164" x2="6070.9736" y2="11418.8447" gradientTransform="matrix(1 0 0 -1 -4213.2275 11144.4902)">
					<stop  offset="0.3079" style="stop-color:#000000"/>
					<stop  offset="0.3997" style="stop-color:#1B0007"/>
					<stop  offset="0.5976" style="stop-color:#610018"/>
					<stop  offset="0.8838" style="stop-color:#CE0033"/>
					<stop  offset="1" style="stop-color:#FD003E"/>
				</linearGradient>
				<path class="st2" d="M1921.8-268.1c3-1.5,6.5-3.2,10.5-5c13.2-6.2,23.7,12.3,11.6,20.5c-4.2,2.9-8,5.5-11.1,7.6
					c-38.8,27.2-72.7,59.2-72.7,167.4c0,135.9,112.5,268.4,112.5,366.9c0,76.4-21.6,146.5-191.1,228.7c-5.6,2.7-12.2,0.6-15.3-4.7
					l0,0c-3.3-5.7-1.1-13,4.6-16.1c67.7-36.2,87.6-111.2,84.7-175.6c-6-134-114.5-249.2-112.5-359.1
					C1744.2-103,1770.3-191.7,1921.8-268.1z"/>
				<path d="M1815.9,278c-9.6-3.6-29.1-13.9-41.4-41.1L1640.3-60.9c-5.7-12.7-23.5-13.2-29.9-0.9L1511,126.9
					c-5.1,9.8-15.3,15.9-26.3,15.9h-119.2h-4c-4,0-8,3.2-8.6,7.1c-0.8,5.1,2.9,9.5,7.8,9.9c33.1,3,53,25.1,52.7,60.8
					c-0.2,32.9-27.7,59.9-60.7,59.9h-8.6c-88.3,0-92.1-101.4-92.1-123.6c0-25.8,0-77.6,0-77.6c0-38.1,15.3-104.9,89.7-104.9
					c69.5,0,108.5,32,140.3,74.4c5.2,7,16.3,1.2,13.6-7.1l-27.9-87.4c-2.7-8.4-12.6-12.1-20.2-7.5c-20.5,12.6-32.5,10.5-32.5,10.5
					c-10.1,0.3-42.2-8.8-81.2-8.8c-62.2,0-112.5,24.7-146.9,57.9c-3.4,3.3-9.1,2.2-10.8-2.3l-20.7-50.3H967.6v-0.1h-92.2
					c-5.9,0-11.6-0.2-17.5-0.5c-31.6-1.7-142.6-7.5-199.4-7.5c-71.2,0-127,22.3-132.6,74.8C521.7,60,549,80.6,564.8,95
					c8.5,7.8,48.5,33.1,69,42.6c21.4,9.9,106.8,52.7,98,86.6c-8.8,33.6-37.7,41.9-71,41.9c-52.3,0-108.4-43.3-150-82.1
					c-7.2-6.8-18.4,1.6-13.9,10.5c17.2,33.6,39.2,74.5,53.6,96.1c4.1,6.1,11.5,9.1,18.7,7.2c15.5-3.9,35.6-6,47.8-5.4
					c15.7,0.7,48.6,5,63,5c119.8,0,157.3-31.5,161.2-86.1c5.4-75.1-84.3-125.1-138.9-147c-48.8-19.7-67.7-49.3-65.6-64
					c3.4-25.5,27.7-29.8,48-29c63,2.4,181.8,33.1,181.8,76.3c0,0,0,192.1,0,200.5c0,11.2-12.2,31.4-27.7,31.4h-0.3
					c-2.8,0-5.6,1-7.6,3c-5.4,5.4-1.6,11.7,3.5,11.7h66.9l0,0h66.3h189.1c6.1,0,11.4-3.6,13.8-9.3l10.3-25.1c2-4.8,8.1-6.3,12-2.8
					c33.7,30.5,83.1,49.6,150.6,49.6c15.7,0,48.4-4.3,63.6-9.9c4.8-1.7,10-2.7,15.1-2.7h126.5h20.4c7.5,0,11.1-9.4,5.5-14.4
					c-2.5-2.2-4.7-4.2-6.3-5.7c-12-10.9-11.5-18.3-11.8-24.6c-0.3-6.2,1-12.3,3.9-17.9l89.6-170.2l76.6,169.9
					c2.6,5.7,3.8,11.9,3.3,18.1c-0.1,0.8-0.1,1.5-0.2,2.1c-1.4,8-8.6,24.2-22.1,24.2h-2.2c-3.3,0-6.6,1.1-9.1,3.3
					c-7.5,6.7-2.9,15.1,3.7,15.1h113.3c5.2,0,9.4-4.7,8.3-10.1C1821,281.4,1818.8,279,1815.9,278z M1158.1,41.4
					c-15.4,24.3-23.8,50-23.8,72.6c0,30.1,5.6,59.6,17.3,86c2.6,5.8,1.4,12.6-3,17.1c-21.7,22-69.1,52.7-136.9,52.7h-16.6
					c-15.1,0-27.4-12.2-27.4-27.4v-92.3v-4.9c0-5.1,7.7-11.5,16.4-9.8c13.3,2.6,36.6,10.9,55.3,21.7c13.1,7.6,24.9,15.5,38.5,26.8
					c6,4.9,15,0.6,15-7.1v-29V90.5v-29c0-7.7-9.1-12-15-7.1c-13.6,11.2-25.4,19.1-38.5,26.8c-18.6,10.7-42.7,22-55.9,25.1
					c-10.2,2.4-13.8-1.6-15.7-5.5v-5.6V4.7c0-14.4,11.7-26.1,26.1-26.1h33.5c54.9,0,105.1,31.5,129.1,52.3
					C1159.5,33.4,1160.2,38,1158.1,41.4z"/>
				<path d="M3715.9-42.2c-0.8-2.4-3.2-3.9-5.8-3.9h-26.3h-49.5H3608c-2.6,0-4.9,1.5-5.8,3.9c-1.1,3.3,0.7,6.6,3.7,7.6
					c9.5,3.1,32.2,13.1,32.2,36.9v143.1c0,5.5-6.4,8.4-10.6,4.9L3477.1,25.6c-46.9-39-113.4-64.9-157.3-79.1
					c-9.7-3.1-16.4,9.7-8.2,15.8c1.4,1.1,2.9,2.2,4.4,3.3c50.1,37.7,55.5,91.7,55.5,97.8v192.2v9.3c0,7.2-5.9,13.1-13.1,13.1
					c-16.8,0-54.3-27.3-73.5-47.3c-18-18.8-26.6-44.8-46.8-68.5c-16.1-18.8-29.7-25.8-29.7-25.8c101.1,0,104.1-82,104.1-91.2
					c0-13.7,0-91.6-126.6-91.6h-292.1h-49.7c-2.6,0-4.9,1.5-5.8,3.9c-1.1,3.3,0.7,6.7,3.7,7.6c9.5,3.1,32.2,13.1,32.2,36.9v180.1
					c0,62.2-43.5,83-78.4,83c-63.6,0-88-37.5-88-84.6v-27.3l0,0V2c0-23.9,22.7-33.9,32.2-36.9c2.5-0.8,4.1-3,4.1-5.6v-0.1
					c0-3.2-2.6-5.9-5.9-5.9h-114.1h-17.5h-229.9h-117.1c-7.1,0-13.7,4.1-16.8,10.5l-18.8,39c-3.2,6.7,4.4,13.3,10.6,9.2
					c25.2-17.1,67.6-36.7,129.6-39.1c6.8-0.2,12.4,5.2,12.4,12v246.9c0,11.7-4.3,20.8-10.2,27.7c-4.5,5.4-11.3,8.4-18.4,8.4h-15.2
					c-4.9,0-9.9-1.3-14.1-4.1c-9.7-6.3-18.8-15.1-24.4-27.5L2160.3-61.2c-5.8-12.7-23.5-13.2-29.9-0.9l-139.7,265.1l-40.3,76.4
					l2.8,14.6h40.5h7.2h88l0,0c7.5,0,11.1-9.4,5.5-14.4c0,0-0.1,0-0.1-0.1c-2.5-2.2-4.6-4.1-6.2-5.6c-11.9-10.7-11.5-18.1-11.8-24.4
					c-0.3-6.3,1-12.6,3.9-18.1l89.7-170.2l76.6,169.9c2.6,5.7,3.8,11.9,3.3,18.1c-0.1,0.8-0.1,1.5-0.2,2.1
					c-1.4,8-8.6,24.2-22.1,24.2h-0.2c-2.7,0-5.4,0.8-7.5,2.5c-8.8,6.8-4.1,15.9,2.7,15.9h112.9h6.6h89.2h26.3h53.9
					c4.6,0,8.6-3.5,8.8-8.1c0.2-3.7-2.1-7.2-5.5-8.4c-11.3-4.3-36.3-17.2-36.3-45.4V-14.9c0-7,5.7-12.3,12.7-12
					c47.9,1.9,84.2,14,109.7,27.4c4.1,2.2,6.7,6.4,6.7,11v159.1h0.4c4.1,73.1,38.8,129.2,165.9,129.2c73.7,0,142.7-38.6,142.7-109.7
					c0-8.7,0-182.3,0-182.3c0-10.8,3.4-18.4,7.7-23.7c6.3-7.7,15.9-11.8,25.9-11.8h15c10,0,19.7,4.1,25.9,11.8
					c4.3,5.4,7.7,13,7.7,23.7v221c0,32.8-26,45.2-38.2,49.2c-2.9,0.9-5.2,3.3-5.9,6.4c-1,5.4,3,10.1,8.2,10.1h54.3h61.3h56.8
					c3.5,0,6.8-2.1,8-5.4c1.7-4.7-0.8-9.6-5.1-11c-11.9-3.9-38.5-16.3-38.5-49.3V19.3V-5.6c0-18.7,16.1-25.5,27.1-25.5h31.6
					c29.4,0,58.6,24.8,58.6,66.2c0,60.7-39.5,75.4-55.7,75.4c-10.8,0-19.2,0.2-28.2-3.1c0,0-0.1,0-0.1-0.1
					c-5.7-2.7-11.7,2.6-9.9,8.5c0.1,0.3,0.1,0.5,0.2,0.5c9.5,32.1,26.5,81.2,49.8,112.5c36.1,48.7,104.6,87.5,219.6,87.5h49.4
					c3.1,0,6-1.9,6.9-4.7c1.3-4-0.9-8-4.6-9.2c-9.9-3-30.9-11.9-30.9-34.3V106.5c0-5.5,6.4-8.4,10.6-4.9l238.7,198.2
					c6.9,5.7,17.2,0.8,17.2-8.1V2.3c0-23.9,22.7-33.9,32.2-36.9C3715.2-35.5,3717-38.8,3715.9-42.2z"/>
			</g>
			<g>
				
					<radialGradient id="SVGID_00000174567267923355207460000009682758666661400471_" cx="4442.644" cy="11081.8115" r="224.4318" fx="4444.4375" fy="11078.6748" gradientTransform="matrix(1 0 0 -1 -4213.2275 11144.4902)" gradientUnits="userSpaceOnUse">
					<stop  offset="0" style="stop-color:#FFFFFF"/>
					<stop  offset="0.1072" style="stop-color:#E1E7F2"/>
					<stop  offset="0.4368" style="stop-color:#88A1CC"/>
					<stop  offset="0.7055" style="stop-color:#476EB0"/>
					<stop  offset="0.8997" style="stop-color:#1E4E9F"/>
					<stop  offset="1" style="stop-color:#0F4298"/>
				</radialGradient>
				<circle style="fill:url(#SVGID_00000174567267923355207460000009682758666661400471_);" cx="181.1" cy="128.6" r="189.9"/>
				<g>
					<g>
						<defs>
							<path id="SVGID_00000146473872995372161360000013896602466081841545_" d="M86.4,205.5c25.3-6.2,50.6-12,75.9-18
								c25.4-6,50.3-13.6,75-22c24.4-8.3,48.5-17.7,72.9-25.5c20.3-6.5,41-12.4,60.5-21c-1.6-33.6-12-64.9-29-91.7
								c-21.8,6.3-44,11.6-66.1,17.3c-25.2,6.6-50.3,13.6-75.4,20.6C175.7,72,151,78.8,126.5,85.7c-26.2,7.4-52.4,15.3-78.1,24.3
								c-11,3.8-22,7.4-33.1,10.8c-5.9,1.7-11.7,3.7-17.5,5.8c-2.2,0.7-4.3,1.4-6.5,2.2c0,35,9.5,67.7,26,95.9
								C40.1,217.4,63.1,211.2,86.4,205.5z"/>
						</defs>
						<clipPath id="SVGID_00000103230763056941139900000016002247652789455775_">
							<use xlink:href="#SVGID_00000146473872995372161360000013896602466081841545_"  style="overflow:visible;"/>
						</clipPath>
						<path style="clip-path:url(#SVGID_00000103230763056941139900000016002247652789455775_);" d="M-23.3,299.7
							c-9.2,0-18.1-0.2-26.9-0.6c-13.2-0.6-23.7-11.6-23.2-24.9c0.5-13.4,11.8-23.8,25.2-23c74.9,3.8,176.4-11,271.4-39.5
							c92.9-28,166.2-64.5,196-97.8c3.5-3.9,8.6-10.3,10.9-16.8c1.5-4.4-1.2-9.2-5.9-10c-10-1.6-32.3-1.9-80.4,9.7
							c-51,12.2-114.5,33.3-175.8,53.8c-63.6,21.2-123.6,41.2-171.6,52.3c-48.3,11.1-99.6,17.6-114.6-18.7
							c-6-14.3-9.2-36.9,9.2-63.4C-69.3,63.7,52,20.6,120.7,0.1C223.8-31,333.8-49.3,400.8-46.8c13.3,0.5,23.6,11.6,23,24.9
							c-0.5,13.3-11.6,23.6-24.9,23c-62.1-2.4-166,15.1-264.6,44.7C30.6,76.9-47.6,116-69.7,147.8c-1.1,1.6-2.1,3.2-2.8,4.6
							c-2.1,3.9-0.4,10.4,6.6,11c10.5,0.9,30.5-1.5,66.8-11.3c43.6-11.6,96.2-28.7,152-47.3C312.1,51.7,412,21.5,456,48.1
							c12.3,7.4,20.1,18.8,22.3,33c3.5,21.5-4.4,43.2-23.6,64.5c-36,40.2-115.4,81-217.9,111.7C146.4,284.7,53.3,299.7-23.3,299.7z"
							/>
					</g>
					<g>
						<defs>
							<path id="SVGID_00000170991428907764470260000008538208988669289632_" d="M86.4,205.5c25.3-6.2,50.6-12,75.9-18
								c25.4-6,50.3-13.6,75-22c24.4-8.3,48.5-17.7,72.9-25.5c20.3-6.5,41-12.4,60.5-21c-1.6-33.6-12-64.9-29-91.7
								c-21.8,6.3-44,11.6-66.1,17.3c-25.2,6.6-50.3,13.6-75.4,20.6C175.7,72,151,78.8,126.5,85.7c-26.2,7.4-52.4,15.3-78.1,24.3
								c-11,3.8-22,7.4-33.1,10.8c-5.9,1.7-11.7,3.7-17.5,5.8c-2.2,0.7-4.3,1.4-6.5,2.2c0,35,9.5,67.7,26,95.9
								C40.1,217.4,63.1,211.2,86.4,205.5z"/>
						</defs>
						<clipPath id="SVGID_00000051384252330375421000000008787995659929897627_">
							<use xlink:href="#SVGID_00000170991428907764470260000008538208988669289632_"  style="overflow:visible;"/>
						</clipPath>
						<path style="clip-path:url(#SVGID_00000051384252330375421000000008787995659929897627_);fill:none;" d="M-30.9,252.8
							c-22-37.6-33.6-80.5-33.6-124.1V88.4l38.2-12.8c1-0.3,2.1-0.6,3-1c0.8-0.3,1.6-0.5,2.4-0.8c7.1-2.5,13.9-4.6,20.3-6.6
							c11.4-3.5,23-7.3,34.4-11.3c27-9.5,53.9-17.3,76.8-23.8c17.7-4.9,35.6-10,52.9-14.7c7.4-2.1,14.7-4.1,22.1-6.1l12-3.3
							c21-5.9,42.6-11.8,64.3-17.5c6.9-1.7,13.8-3.6,20.8-5.4c15.2-3.8,29.6-7.5,43.8-11.6L366.6-38l22.4,35.5
							c22.4,35.6,35.5,76.7,37.6,118.7l2,38.5l-35.4,15.4c-18.6,8.1-37,13.9-54.7,19.5c-3.7,1.1-7.3,2.4-11,3.5
							c-13.3,4.2-26.4,9.1-40.3,14c-10.3,3.7-21,7.6-31.8,11.2c-29.2,9.9-55.4,17.6-80.2,23.5c-8.5,2.1-17,4-25.5,6
							c-16.5,3.8-33.4,7.8-50,11.9c-26,6.4-46.9,12.1-65.6,18l-42.4,13.4L-30.9,252.8z"/>
					</g>
				</g>
				<g>
					<path d="M-65.9,163.4c-7-0.6-8.6-7.1-6.6-11c0.7-1.4,1.6-3,2.8-4.6c10.1-14.6,32.1-30.7,62.9-46.9C-3.5,78.5,3.6,57.4,14,38.2
						c-51,21.9-100.3,49.9-122.9,82.4c-18.3,26.4-15.1,49.1-9.2,63.4c15,36.3,66.4,29.8,114.6,18.7c2.9-0.7,5.8-1.4,8.8-2.1
						c-6-14.6-10.2-30.2-12.4-46.4C-38.4,162.3-56.2,164.3-65.9,163.4z"/>
					<path d="M325.4,5.1c27.9-3.3,53-4.7,73.5-3.9c13.3,0.5,24.4-9.8,24.9-23c0.5-13.3-9.8-24.4-23-24.9
						c-33.2-1.3-76.9,2.6-125.1,10.6C294.5-25.4,311.3-11.4,325.4,5.1z"/>
					<path d="M478.4,81.1c-2.3-14.2-10-25.6-22.3-33c-21.4-12.9-55.9-12.5-104-2.5c7,14.4,12.2,29.8,15.4,45.9
						c32.2-6.3,48.7-5.9,56.9-4.5c4.6,0.8,7.4,5.6,5.9,10c-2.3,6.5-7.4,12.9-10.9,16.8c-11,12.3-28,25.1-49.6,37.6
						c-2.7,22.7-9.4,44.2-19.4,63.7c47.1-21.9,83.4-45.7,104.5-69.4C473.9,124.3,481.9,102.6,478.4,81.1z"/>
					<path d="M34.2,248.9c-29.6,2.7-57.4,3.5-82.3,2.2c-13.4-0.7-24.7,9.7-25.2,23c-0.5,13.3,10,24.3,23.2,24.9
						c8.7,0.4,17.7,0.6,26.9,0.6c33.1,0,69.2-2.8,106.8-8.2C64.7,280.2,48,265.8,34.2,248.9z"/>
					<path class="st6" d="M275.7-36.2c-27.8-16-60.1-25.2-94.6-25.2c-72.2,0-135,40.3-167.1,99.6C52.2,21.8,91.3,8.9,120.7,0.1
						C172.8-15.6,226.5-28.1,275.7-36.2z"/>
					<path class="st6" d="M-6.8,100.9c-1.3,9-2,18.3-2,27.7c0,8.7,0.6,17.3,1.7,25.6c2.6-0.7,5.2-1.3,7.9-2.1
						c43.6-11.6,96.2-28.7,152-47.3C234.8,77.5,301,56.2,352,45.6c-7.1-14.7-16.1-28.3-26.6-40.6c-56.6,6.6-125,21-191.1,40.8
						C78.2,62.7,29.5,81.8-6.8,100.9z"/>
					<path class="st6" d="M83.5,291.5c28.5,17.1,61.9,27,97.6,27c73.7,0,137.7-42,169.1-103.4c-32.9,15.3-71.2,29.7-113.4,42.3
						C185.4,272.9,133.1,284.4,83.5,291.5z"/>
					<path class="st6" d="M369.7,151.4c0.9-7.5,1.4-15.1,1.4-22.8c0-12.7-1.3-25-3.6-37c-7,1.4-14.8,3.1-23.4,5.1
						c-51,12.2-114.5,33.3-175.8,53.8c-59.8,19.9-116.3,38.7-162.8,50.2c7.2,17.6,17,33.8,28.8,48.3c59.4-5.4,125.7-18.3,189.1-37.3
						C281.9,193.9,332.7,172.9,369.7,151.4z"/>
				</g>
			</g>
		</g>
	</g>
	<g class="st1">
		<g>
			
				<linearGradient id="SVGID_00000070827907079067506630000005081596546935554186_" gradientUnits="userSpaceOnUse" x1="6015.3887" y1="9636.083" x2="6015.3887" y2="10407.3271" gradientTransform="matrix(1 0 0 -1 -4213.2275 11144.4902)">
				<stop  offset="0" style="stop-color:#FFFFFF"/>
				<stop  offset="0.3809" style="stop-color:#FFFFFF"/>
				<stop  offset="0.4042" style="stop-color:#F4E7E9"/>
				<stop  offset="0.4844" style="stop-color:#D099A4"/>
				<stop  offset="0.5416" style="stop-color:#B96978"/>
				<stop  offset="0.5698" style="stop-color:#B05667"/>
				<stop  offset="0.7789" style="stop-color:#CE0033"/>
				<stop  offset="1" style="stop-color:#FD003E"/>
			</linearGradient>
			<path style="fill:url(#SVGID_00000070827907079067506630000005081596546935554186_);" d="M1864.4,743.3c2.9-1.5,6.3-3.1,10.2-4.9
				c12.8-6,23,12,11.3,19.9c-4.1,2.8-7.8,5.3-10.8,7.4c-37.7,26.4-70.7,57.5-70.7,162.7c0,132.1,109.3,260.9,109.3,356.6
				c0,74.3-21,142.4-185.7,222.3c-5.4,2.6-11.9,0.6-14.9-4.6l0,0c-3.2-5.5-1.1-12.6,4.5-15.6c65.8-35.2,85.1-108.1,82.3-170.7
				c-5.8-130.2-111.3-242.2-109.3-349C1691.8,903.7,1717.1,817.5,1864.4,743.3z"/>
		</g>
	</g>
</g>
<g>
	<g>
		<g>
			<g>
				
					<linearGradient id="SVGID_00000029725845097684005360000001660880135162137504_" gradientUnits="userSpaceOnUse" x1="1980.522" y1="793.5215" x2="1980.522" y2="0">
					<stop  offset="0.3079" style="stop-color:#000000"/>
					<stop  offset="0.3997" style="stop-color:#1B0007"/>
					<stop  offset="0.5976" style="stop-color:#610018"/>
					<stop  offset="0.8838" style="stop-color:#CE0033"/>
					<stop  offset="1" style="stop-color:#FD003E"/>
				</linearGradient>
				<path style="fill:url(#SVGID_00000029725845097684005360000001660880135162137504_);" d="M2044.6,6.3c3-1.5,6.5-3.2,10.5-5
					c13.2-6.2,23.7,12.3,11.6,20.5c-4.2,2.9-8,5.5-11.1,7.6c-38.8,27.2-72.7,59.2-72.7,167.4c0,135.9,112.5,268.4,112.5,366.9
					c0,76.4-21.6,146.5-191.1,228.7c-5.6,2.7-12.2,0.6-15.3-4.7l0,0c-3.3-5.7-1.1-13,4.6-16.1c67.7-36.2,87.6-111.2,84.7-175.6
					c-6-134-114.5-249.2-112.5-359.1C1867,171.3,1893,82.6,2044.6,6.3z"/>
				<path d="M1938.7,552.3c-9.6-3.6-29.1-13.9-41.4-41.1l-134.3-297.8c-5.7-12.7-23.5-13.2-29.9-0.9l-99.4,188.7
					c-5.1,9.8-15.3,15.9-26.3,15.9h-119.2h-4c-4,0-8,3.2-8.6,7.1c-0.8,5.1,2.9,9.5,7.8,9.9c33.1,3,53,25.1,52.7,60.8
					c-0.2,32.9-27.7,59.9-60.7,59.9h-8.6c-88.3,0-92.1-101.4-92.1-123.6c0-25.8,0-77.6,0-77.6c0-38.1,15.3-104.9,89.7-104.9
					c69.5,0,108.5,32,140.3,74.4c5.2,7,16.3,1.2,13.6-7.1l-27.9-87.4c-2.7-8.4-12.6-12.1-20.2-7.5c-20.5,12.6-32.5,10.5-32.5,10.5
					c-10.1,0.3-42.2-8.8-81.2-8.8c-62.2,0-112.5,24.7-146.9,57.9c-3.4,3.3-9.1,2.2-10.8-2.3l-15.4-37.5c-3.2-7.8-7.3-12.8-15.7-12.8
					h-177.2v-0.1h-92.2c-5.9,0-11.6-0.2-17.5-0.5c-31.6-1.7-142.6-7.5-199.4-7.5c-71.2,0-127,22.3-132.6,74.8
					c-4.2,39.5,23.2,60.1,38.9,74.5c8.5,7.8,48.5,33.1,69,42.6c21.4,9.9,106.8,52.7,98,86.6c-8.8,33.6-37.7,41.9-71,41.9
					c-52.3,0-108.4-43.3-150-82.1c-7.2-6.8-18.4,1.6-13.9,10.5c17.2,33.6,39.2,74.5,53.6,96.1c4.1,6.1,11.5,9.1,18.7,7.2
					c15.5-3.9,35.6-6,47.8-5.4c15.7,0.7,48.6,5,63,5c119.8,0,157.3-31.5,161.2-86.1c5.4-75.1-84.3-125.1-138.9-147
					c-48.8-19.7-67.7-49.3-65.6-64c3.4-25.5,27.7-29.8,48-29c63,2.4,181.8,33.1,181.8,76.3c0,0,0,192.1,0,200.5
					c0,11.2-12.2,31.4-27.7,31.4h-0.3c-2.8,0-5.6,1-7.6,3c-5.4,5.4-1.6,11.7,3.5,11.7h66.9l0,0h66.3h189.1c6.1,0,11.4-3.6,13.8-9.3
					l10.3-25.1c2-4.8,8.1-6.3,12-2.8c33.7,30.5,83.1,49.6,150.6,49.6c15.7,0,48.4-4.3,63.6-9.9c4.8-1.7,10-2.7,15.1-2.7h126.5h20.4
					c7.5,0,11.1-9.4,5.5-14.4c-2.5-2.2-4.7-4.2-6.3-5.7c-12-10.9-11.5-18.3-11.8-24.6c-0.3-6.2,1-12.3,3.9-17.9l89.6-170.2
					l76.5,169.9c2.6,5.7,3.8,11.9,3.3,18.1c-0.1,0.8-0.1,1.5-0.2,2.1c-1.4,8-8.6,24.2-22.1,24.2h-2.2c-3.3,0-6.6,1.1-9.1,3.3
					c-7.5,6.7-2.9,15.1,3.7,15.1h113.3c5.2,0,9.4-4.7,8.3-10.1C1943.8,555.7,1941.6,553.3,1938.7,552.3z M1280.8,315.8
					c-15.4,24.3-23.8,50-23.8,72.6c0,30.1,5.6,59.6,17.3,86c2.6,5.8,1.4,12.6-3,17.1c-21.7,22-69.1,52.7-136.9,52.7h-16.6
					c-15.1,0-27.4-12.2-27.4-27.4v-92.3v-4.9c0-5.1,7.7-11.5,16.4-9.8c13.3,2.6,36.6,10.9,55.3,21.7c13.1,7.6,24.9,15.5,38.5,26.8
					c6,4.9,15,0.6,15-7.1v-29v-57.3v-29c0-7.7-9.1-12-15-7.1c-13.6,11.2-25.4,19.1-38.5,26.8c-18.6,10.7-42.7,22-55.9,25.1
					c-10.2,2.4-13.8-1.6-15.7-5.5v-5.6V279c0-14.4,11.7-26.1,26.1-26.1h33.5c54.9,0,105,31.5,129.1,52.3
					C1282.3,307.7,1283,312.4,1280.8,315.8z"/>
				<path d="M3838.7,232.1c-0.8-2.4-3.2-3.9-5.8-3.9h-26.3h-49.5h-26.3c-2.6,0-4.9,1.5-5.8,3.9c-1.1,3.3,0.7,6.6,3.7,7.6
					c9.5,3.1,32.2,13.1,32.2,36.9v143.1c0,5.5-6.4,8.4-10.6,4.9l-150.4-124.8c-46.9-39-113.4-64.9-157.3-79.1
					c-9.7-3.1-16.4,9.7-8.2,15.8c1.4,1.1,2.9,2.2,4.4,3.3c50.1,37.7,55.5,91.7,55.5,97.8V530v9.3c0,7.2-5.9,13.1-13.1,13.1
					c-16.8,0-54.3-27.3-73.5-47.3c-18-18.8-26.6-44.8-46.8-68.5c-16.1-18.8-29.7-25.8-29.7-25.8c101.1,0,104.1-82,104.1-91.2
					c0-13.7,0-91.6-126.6-91.6h-292.1h-49.7c-2.6,0-4.9,1.5-5.8,3.9c-1.1,3.3,0.7,6.7,3.7,7.6c9.5,3.1,32.2,13.1,32.2,36.9v180.1
					c0,62.2-43.5,83-78.4,83c-63.6,0-88-37.5-88-84.6v-27.3l0,0V276.4c0-23.9,22.7-33.9,32.2-36.9c2.5-0.8,4.1-3,4.1-5.6v-0.1
					c0-3.2-2.6-5.9-5.9-5.9H2747h-17.5h-229.9h-117.1c-7.1,0-13.7,4.1-16.8,10.5l-18.8,39c-3.2,6.7,4.4,13.3,10.6,9.2
					c25.2-17.1,67.6-36.7,129.6-39.1c6.8-0.2,12.4,5.2,12.4,12v246.9c0,11.7-4.3,20.8-10.2,27.7c-4.5,5.4-11.3,8.4-18.4,8.4h-15.2
					c-4.9,0-9.9-1.3-14.1-4.1c-9.7-6.3-18.8-15.1-24.4-27.5l-134.3-297.8c-5.8-12.7-23.5-13.2-29.9-0.9l-139.7,265.1l-40.3,76.4
					l2.8,14.6h40.5h7.2h88l0,0c7.5,0,11.1-9.4,5.5-14.4c0,0-0.1,0-0.1-0.1c-2.5-2.2-4.6-4.1-6.2-5.6c-11.9-10.7-11.5-18.1-11.8-24.4
					c-0.3-6.3,1-12.6,3.9-18.1l89.7-170.2l76.5,169.9c2.6,5.7,3.8,11.9,3.3,18.1c-0.1,0.8-0.1,1.5-0.2,2.1
					c-1.4,8-8.6,24.2-22.1,24.2h-0.2c-2.7,0-5.4,0.8-7.5,2.5c-8.8,6.8-4.1,15.9,2.7,15.9h112.9h6.6h89.2h26.3h53.9
					c4.6,0,8.6-3.5,8.8-8.1c0.2-3.7-2.1-7.2-5.5-8.4c-11.3-4.3-36.3-17.2-36.3-45.4V259.5c0-7,5.7-12.3,12.7-12
					c47.9,1.9,84.2,14,109.7,27.4c4.1,2.2,6.7,6.4,6.7,11v159.1h0.4c4.1,73.1,38.8,129.2,165.9,129.2c73.7,0,142.7-38.6,142.7-109.7
					c0-8.7,0-182.3,0-182.3c0-10.8,3.4-18.4,7.7-23.7c6.3-7.7,15.9-11.8,25.9-11.8h15c10,0,19.7,4.1,25.9,11.8
					c4.3,5.4,7.7,13,7.7,23.7v220.7c0,32.8-26,45.2-38.2,49.2c-2.9,0.9-5.2,3.3-5.9,6.4c-1,5.4,3,10.1,8.2,10.1h54.3h61.3h56.8
					c3.5,0,6.8-2.1,8-5.4c1.7-4.7-0.8-9.6-5.1-11c-11.9-3.9-38.5-16.3-38.5-49.3V293.6v-24.9c0-18.7,16.1-25.5,27.1-25.5h31.6
					c29.4,0,58.6,24.8,58.6,66.2c0,60.7-39.5,75.4-55.7,75.4c-10.8,0-19.2,0.2-28.2-3.1c0,0-0.1,0-0.1-0.1
					c-5.7-2.7-11.7,2.6-9.9,8.5c0.1,0.3,0.1,0.5,0.2,0.5c9.5,32.1,26.5,81.2,49.8,112.5c36.1,48.7,104.6,87.5,219.6,87.5h49.4
					c3.1,0,6-1.9,6.9-4.7c1.3-4-0.9-8-4.6-9.2c-9.9-3-30.9-11.9-30.9-34.3V380.9c0-5.5,6.4-8.4,10.6-4.9l238.7,198.2
					c6.9,5.7,17.2,0.8,17.2-8.1V276.7c0-23.9,22.7-33.9,32.2-36.9C3837.9,238.8,3839.8,235.5,3838.7,232.1z"/>
			</g>
		</g>
	</g>
	<g>
		
			<radialGradient id="SVGID_00000091736067609909437440000001882630711163093888_" cx="4565.3945" cy="10807.459" r="224.4259" fx="4567.188" fy="10804.3223" gradientTransform="matrix(1 0 0 -1 -4213.2275 11144.4902)" gradientUnits="userSpaceOnUse">
			<stop  offset="0" style="stop-color:#FFFFFF"/>
			<stop  offset="0.1072" style="stop-color:#E1E7F2"/>
			<stop  offset="0.4368" style="stop-color:#88A1CC"/>
			<stop  offset="0.7055" style="stop-color:#476EB0"/>
			<stop  offset="0.8997" style="stop-color:#1E4E9F"/>
			<stop  offset="1" style="stop-color:#0F4298"/>
		</radialGradient>
		<circle style="fill:url(#SVGID_00000091736067609909437440000001882630711163093888_);" cx="303.9" cy="402.9" r="189.9"/>
		<g>
			<g>
				<defs>
					<path id="SVGID_00000109720088547363056450000015815829782206789289_" d="M209.1,479.9c25.3-6.2,50.6-12,75.9-18
						c25.4-6,50.3-13.6,75-22c24.4-8.3,48.5-17.7,72.9-25.5c20.3-6.5,40.9-12.4,60.5-21c-1.6-33.6-12-64.9-29-91.7
						c-21.8,6.3-44,11.6-66.1,17.3c-25.2,6.6-50.3,13.6-75.4,20.6c-24.6,6.8-49.3,13.6-73.8,20.5c-26.2,7.4-52.4,15.3-78.1,24.3
						c-11,3.8-22,7.4-33.1,10.8c-5.9,1.7-11.7,3.7-17.5,5.8c-2.2,0.7-4.3,1.4-6.5,2.2c0,35,9.5,67.7,26,95.9
						C162.8,491.7,185.9,485.5,209.1,479.9z"/>
				</defs>
				<clipPath id="SVGID_00000036216515100532978220000018007039294139945640_">
					<use xlink:href="#SVGID_00000109720088547363056450000015815829782206789289_"  style="overflow:visible;"/>
				</clipPath>
				<path style="clip-path:url(#SVGID_00000036216515100532978220000018007039294139945640_);" d="M99.4,574
					c-9.2,0-18.1-0.2-26.9-0.6c-13.2-0.6-23.7-11.6-23.1-24.9c0.5-13.4,11.8-23.8,25.2-23c74.9,3.8,176.3-11,271.4-39.5
					c92.9-28,166.2-64.5,196-97.8c3.5-3.9,8.6-10.3,10.9-16.8c1.5-4.4-1.2-9.2-5.9-10c-10-1.6-32.3-1.9-80.4,9.7
					c-51,12.2-114.5,33.3-175.8,53.8C227.3,446,167.3,466,119.3,477.1C71,488.2,19.7,494.7,4.7,458.4c-6-14.3-9.2-36.9,9.2-63.4
					c39.6-56.9,160.9-100,229.6-120.6c103.1-31.1,213.1-49.4,280.1-46.8c13.3,0.5,23.6,11.6,23,24.9c-0.5,13.3-11.6,23.6-24.9,23
					c-62.1-2.4-166,15.1-264.6,44.7c-103.7,31.1-181.9,70.2-204,102c-1.1,1.6-2.1,3.2-2.8,4.6c-2.1,3.9-0.4,10.4,6.6,11
					c10.5,0.9,30.5-1.5,66.8-11.3c43.6-11.6,96.2-28.7,152-47.3c159.3-53.1,259.2-83.3,303.2-56.7c12.3,7.4,20.1,18.8,22.3,33
					c3.5,21.5-4.4,43.2-23.6,64.5c-36,40.2-115.4,81-217.9,111.7C269.2,559,176.1,574,99.4,574z"/>
			</g>
			<g>
				<defs>
					<path id="SVGID_00000103238855629611091690000007449307792859065775_" d="M209.1,479.9c25.3-6.2,50.6-12,75.9-18
						c25.4-6,50.3-13.6,75-22c24.4-8.3,48.5-17.7,72.9-25.5c20.3-6.5,40.9-12.4,60.5-21c-1.6-33.6-12-64.9-29-91.7
						c-21.8,6.3-44,11.6-66.1,17.3c-25.2,6.6-50.3,13.6-75.4,20.6c-24.6,6.8-49.3,13.6-73.8,20.5c-26.2,7.4-52.4,15.3-78.1,24.3
						c-11,3.8-22,7.4-33.1,10.8c-5.9,1.7-11.7,3.7-17.5,5.8c-2.2,0.7-4.3,1.4-6.5,2.2c0,35,9.5,67.7,26,95.9
						C162.8,491.7,185.9,485.5,209.1,479.9z"/>
				</defs>
				<clipPath id="SVGID_00000126321013592003222760000013295353828220164492_">
					<use xlink:href="#SVGID_00000103238855629611091690000007449307792859065775_"  style="overflow:visible;"/>
				</clipPath>
				<path style="clip-path:url(#SVGID_00000126321013592003222760000013295353828220164492_);fill:none;" d="M91.8,527.1
					c-22-37.6-33.6-80.5-33.6-124.1v-40.2L96.3,350c1-0.3,2.1-0.6,3-1c0.8-0.3,1.6-0.5,2.4-0.8c7.1-2.5,13.9-4.6,20.3-6.6
					c11.4-3.5,23-7.3,34.4-11.3c27-9.5,53.9-17.3,76.8-23.8c17.7-4.9,35.6-10,52.9-14.7c7.4-2.1,14.7-4.1,22.1-6.1l12-3.3
					c21-5.9,42.6-11.8,64.3-17.5c6.9-1.7,13.8-3.6,20.8-5.4c15.2-3.8,29.6-7.5,43.8-11.6l40.3-11.6l22.4,35.5
					c22.4,35.6,35.5,76.7,37.6,118.7l2,38.5l-35.4,15.4c-18.6,8.1-37,13.9-54.7,19.5c-3.7,1.1-7.3,2.4-11,3.5
					c-13.3,4.2-26.4,9.1-40.3,14c-10.3,3.7-21,7.6-31.8,11.2c-29.2,9.9-55.4,17.6-80.1,23.5c-8.5,2.1-17,4-25.5,6
					c-16.5,3.8-33.4,7.8-50,11.9c-26,6.4-46.9,12.1-65.6,18l-42.4,13.4L91.8,527.1z"/>
			</g>
		</g>
		<g>
			<path d="M56.8,437.8c-7-0.6-8.6-7.1-6.6-11c0.7-1.4,1.6-3,2.8-4.6c10.1-14.6,32.1-30.7,62.9-46.9c3.3-22.4,10.4-43.5,20.8-62.7
				c-51,21.9-100.3,49.9-122.9,82.4c-18.3,26.4-15.1,49.1-9.2,63.4c15,36.3,66.4,29.8,114.6,18.7c2.9-0.7,5.8-1.4,8.8-2.1
				c-6-14.6-10.2-30.2-12.4-46.4C84.3,436.6,66.5,438.7,56.8,437.8z"/>
			<path d="M448.2,279.4c27.9-3.3,53-4.7,73.5-3.9c13.3,0.5,24.4-9.8,24.9-23c0.5-13.3-9.8-24.4-23-24.9
				c-33.2-1.3-76.9,2.6-125.1,10.6C417.3,249,434.1,263,448.2,279.4z"/>
			<path d="M601.1,355.5c-2.3-14.2-10-25.6-22.3-33c-21.4-12.9-55.9-12.5-104-2.5c7,14.4,12.2,29.8,15.4,45.9
				c32.2-6.3,48.7-5.9,56.9-4.5c4.6,0.8,7.4,5.6,5.9,10c-2.3,6.5-7.4,12.9-10.9,16.8c-11,12.3-28,25.1-49.6,37.6
				c-2.7,22.7-9.4,44.2-19.4,63.7c47.1-21.9,83.4-45.7,104.5-69.4C596.7,398.7,604.6,377,601.1,355.5z"/>
			<path d="M156.9,523.2c-29.6,2.7-57.4,3.5-82.3,2.2c-13.4-0.7-24.7,9.7-25.2,23c-0.5,13.3,10,24.3,23.1,24.9
				c8.7,0.4,17.7,0.6,26.9,0.6c33.1,0,69.2-2.8,106.8-8.2C187.4,554.6,170.8,540.1,156.9,523.2z"/>
			<path class="st6" d="M398.4,238.2c-27.8-16-60.1-25.2-94.6-25.2c-72.2,0-135,40.3-167.1,99.6c38.2-16.4,77.3-29.3,106.7-38.2
				C295.5,258.7,349.3,246.3,398.4,238.2z"/>
			<path class="st6" d="M115.9,375.3c-1.3,9-2,18.3-2,27.7c0,8.7,0.6,17.3,1.7,25.6c2.6-0.7,5.2-1.3,7.9-2.1
				c43.6-11.6,96.2-28.7,152-47.3c82-27.3,148.2-48.6,199.2-59.2c-7.1-14.7-16.1-28.3-26.6-40.6c-56.6,6.6-125,21-191.1,40.8
				C200.9,337,152.3,356.2,115.9,375.3z"/>
			<path class="st6" d="M206.2,565.9c28.5,17.1,61.9,27,97.6,27c73.7,0,137.7-42,169.1-103.4c-32.9,15.3-71.2,29.7-113.4,42.3
				C308.2,547.2,255.9,558.8,206.2,565.9z"/>
			<path class="st6" d="M492.4,425.7c0.9-7.5,1.4-15.1,1.4-22.8c0-12.7-1.3-25-3.6-37c-7,1.4-14.8,3.1-23.4,5.1
				c-51,12.2-114.5,33.3-175.8,53.8c-59.8,19.9-116.3,38.7-162.8,50.2c7.2,17.6,17,33.8,28.8,48.3c59.4-5.4,125.7-18.3,189.1-37.3
				C404.6,468.3,455.4,447.2,492.4,425.7z"/>
		</g>
	</g>
</g>
</svg>
