<?xml version="1.0" encoding="utf-8"?>
<!-- Generator: Adobe Illustrator 25.1.0, SVG Export Plug-In . SVG Version: 6.00 Build 0)  -->
<svg version="1.1" id="Layer_1" xmlns="http://www.w3.org/2000/svg" xmlns:xlink="http://www.w3.org/1999/xlink" x="0px" y="0px"
	 viewBox="0 0 2522.7 2160" style="enable-background:new 0 0 2522.7 2160;" xml:space="preserve">
<style type="text/css">
	.st0{fill:#334FA2;}
	.st1{fill:#F01B25;}
	.st2{fill:#354EA2;}
	.st3{fill:#23B057;}
	.st4{fill:#FFA623;}
	.st5{fill:#FFFFFF;}
</style>
<g>
	<g>
		<g>
			<polyline class="st0" points="139.2,357.5 262.6,357.5 262.6,83.3 179.2,83.3 179.2,240.5 178.5,240.5 123.4,83.3 0,83.3 
				0,357.5 83.5,357.5 83.5,199.2 84.2,199.2 139.2,357.5 			"/>
		</g>
		<g>
			<polyline class="st0" points="604.8,357.5 728.2,357.5 728.2,83.3 644.8,83.3 644.8,240.5 644,240.5 589,83.3 465.6,83.3 
				465.6,357.5 549.1,357.5 549.1,199.2 549.8,199.2 604.8,357.5 			"/>
		</g>
		<g>
			<polyline class="st0" points="1406.5,357.5 1529.9,357.5 1529.9,83.3 1446.5,83.3 1446.5,240.5 1445.7,240.5 1390.6,83.3 
				1267.3,83.3 1267.3,357.5 1350.7,357.5 1350.7,199.2 1351.4,199.2 1406.5,357.5 			"/>
		</g>
		<g>
			<rect x="313.1" y="83.3" class="st0" width="102.9" height="274.2"/>
		</g>
		<g>
			<polyline class="st0" points="823.5,157.8 758,157.8 758,83.3 992,83.3 992,157.8 926.4,157.8 926.4,357.5 823.5,357.5 
				823.5,157.8 			"/>
		</g>
		<g>
			<path class="st0" d="M1674.9,295.2h10.1c16.6,0,27.6-5.1,34.1-16.1c6.9-11.4,7.6-32.1,7.6-58.7c0-26.6-0.8-47.4-7.6-58.7
				c-6.5-11-17.5-16.1-34.1-16.1h-10.1V295.2 M1574.2,83.3h121.9c104,0,137.1,58.9,137.1,140.1c0,82.8-51.1,134.1-131,134.1h-128.1
				V83.3z"/>
		</g>
		<g>
			<path class="st0" d="M1994.6,295.2c15.8,0,27.7-7.8,27.7-74.8c0-65.6-11.1-74.9-27.7-74.9c-16.6,0-27.7,9.3-27.7,74.9
				C1966.8,287.5,1978.8,295.2,1994.6,295.2 M1994.6,76c89.6,0,134.2,58.9,134.2,144.4c0,85.5-44.6,144.3-134.2,144.3
				c-89.6,0-134.2-58.9-134.2-144.3C1860.3,134.9,1905,76,1994.6,76z"/>
		</g>
		<g>
			<path class="st1" d="M2255,182.2c14.1,0,22.6-14.4,22.6-32.7c-0.1-15.5-7.2-32.4-26.1-32.4c-11.5,0-20.5,7.2-23.9,16.1
				c-1.3,2.7-1.8,6.6-1.8,13.1c1.2,17.5,9.6,36,28.9,36H2255 M2312.8,46.8c-5.5-0.4-10.8-0.3-18.2,0.1
				c-43.4,2.1-60.9,20.5-66.9,41.4h1c10.8-9.4,24.1-13.8,42.1-13.8c34.4,0,65.9,24.9,65.9,71.9c0,44.9-34.5,80-80.9,80
				c-61.1,0-87.7-46.7-87.7-96.7c0-40.7,14.4-75.1,38.1-97.3c22.6-20.8,51.6-31.4,87.1-32.2c9.4-0.5,15,0,19.5,0.4V46.8z"/>
		</g>
		<g>
			<path class="st1" d="M2444.4,128.5V90.7c0-13.9,0.8-28.4,1.5-43.7h-1.2c-6.9,14.8-12.8,28.9-20.5,44.2l-18,36.5l-0.2,0.7H2444.4
				 M2444.4,222.7v-49.2h-91.5v-39.3l73.4-130.9h73.1v125.1h23.3v45.1h-23.3v49.2H2444.4z"/>
		</g>
		<g>
			<polyline class="st0" points="1022.4,83.2 1226,83.2 1226,155.7 1123.8,155.7 1123.8,184.4 1217.9,184.4 1217.9,254.7 
				1123.8,254.7 1123.8,285.4 1229.2,285.4 1229.2,357.4 1022.4,357.4 1022.4,83.2 			"/>
		</g>
		<g>
			<path class="st0" d="M2199.7,357.5c-14.6,0-26.3-11.8-26.3-26.4c0-14.5,11.8-26.3,26.3-26.3c14.5,0,26.3,11.8,26.3,26.3
				C2226,345.7,2214.3,357.5,2199.7,357.5 M2199.7,299.3c-17.6,0-31.9,14.3-31.9,31.9c0,17.7,14.3,31.9,31.9,31.9
				c17.6,0,31.9-14.2,31.9-31.9C2231.6,313.6,2217.3,299.3,2199.7,299.3z"/>
		</g>
		<g>
			<path class="st0" d="M2194.5,328.8h6.3c3.3-0.1,5.2-1.7,5.2-4.8c0-3.1-1.9-4.4-5.2-4.5h-6.3V328.8 M2194.5,348.7h-7.5v-35.1h14.9
				c6,0.1,12.2,2,12.2,9.1c0,4.6-3,7.6-7.3,8.5v0.1c5.8,0.7,5.8,4.2,6.4,9.1c0.3,2.2,0.6,6.4,2,8.3h-8.3c-0.7-3.1-1-6.3-1.3-9.4
				c-0.2-2-0.7-4.6-3.2-4.7h-7.9V348.7z"/>
		</g>
	</g>
	<g>
		<g id="layer2_58_">
			<g id="polygon3542_58_">
				<polygon class="st2" points="1245.5,675.4 1053.3,1018.5 1245.5,944.8 1429.1,1015.1 1478.2,960 1478.2,585.2 				"/>
			</g>
			<g id="polygon3558_58_">
				<polygon class="st2" points="1842.8,1908.2 1495.6,1455 1495.6,2054.2 1245.5,2160 1245.5,1136.4 1495.6,1040.6 1842.8,1537 
					1842.8,905.9 2079,814.8 2079,1809 				"/>
			</g>
			<g id="polygon3560_58_">
				<polygon class="st2" points="648.2,1908.2 869.8,1810.1 648.2,1380 				"/>
			</g>
		</g>
		<g id="layer3_58_">
			<g id="polygon3538_58_">
				<polygon class="st3" points="884.3,814.8 995.5,1040.6 1053.3,1018.5 1245.5,675.4 1012.9,584.9 				"/>
			</g>
			<g id="polygon3540_58_">
				<polygon class="st3" points="1429.1,1015.1 1606.8,814.8 1842.8,905.9 1842.8,1537 1495.6,1040.6 				"/>
			</g>
			<g id="polygon3552_58_">
				<polygon class="st3" points="648.2,905.9 412,814.8 412,1809 648.2,1908.2 648.2,1380 995.5,2054.2 1245.5,2160 1245.5,1136.4 
					995.5,1040.6 995.5,1560.3 				"/>
			</g>
		</g>
		<g id="layer4_58_">
			<g id="polygon3554_58_">
				<polygon class="st1" points="995.5,1040.6 995.5,1560.3 648.2,905.9 884.3,814.8 				"/>
			</g>
			<g id="polygon3556_58_">
				<polygon class="st1" points="1842.8,1908.2 1495.6,1455 1495.6,1702.6 1566.5,1802.1 				"/>
			</g>
		</g>
		<g id="layer5_58_">
			<g id="polygon3544_58_">
				<polygon class="st4" points="1495.6,1040.6 1245.5,1136.4 995.5,1040.6 1245.5,944.8 				"/>
			</g>
			<g id="polygon3546_58_">
				<polygon class="st4" points="1606.7,814.8 1842.8,724 2079,814.8 1842.8,905.9 				"/>
			</g>
			<g id="polygon3548_58_">
				<polygon class="st4" points="412,814.8 648.2,724 884.3,814.8 648.2,905.9 				"/>
			</g>
			<g id="polygon3550_58_">
				<polygon class="st4" points="1478.2,585.2 1245.5,495.3 1012.9,584.9 1245.5,675.4 				"/>
			</g>
		</g>
	</g>
</g>
</svg>
