<?xml version="1.0" encoding="utf-8"?>
<!-- Generator: Adobe Illustrator 25.2.1, SVG Export Plug-In . SVG Version: 6.00 Build 0)  -->
<svg version="1.1" id="Layer_1" xmlns="http://www.w3.org/2000/svg" xmlns:xlink="http://www.w3.org/1999/xlink" x="0px" y="0px"
	 viewBox="0 0 2014.5 2160" style="enable-background:new 0 0 2014.5 2160;" xml:space="preserve">
<style type="text/css">
	.st0{fill:#FDBC14;}
	.st1{fill:#299DD8;}
	.st2{fill:#FFFFFF;}
	.st3{fill:#050303;}
	.st4{fill:#231715;}
	.st5{fill:#FAFCFC;}
	.st6{fill:#DCE8EA;}
	.st7{fill:#F91716;}
	.st8{fill:#A39062;}
	.st9{fill:#C2AC6D;}
	.st10{fill:#069ACB;}
	.st11{fill:#49B9C5;}
</style>
<g>
	<polygon class="st0" points="510.9,145.3 428.2,624.6 108.1,382.8 27.4,476.2 0,1144.2 186.5,696.8 625.6,1057.3 625.6,213.3 
		572.6,259.9 566,213.3 528,276.9 	"/>
	<polygon class="st0" points="1262.8,0 706.1,162.3 706.1,1148.5 1189.6,800.6 1106.9,811.2 1157.8,773.1 1077.1,781.5 
		1179.1,720.1 856.8,762.5 856.8,671.3 1280.9,370.2 856.8,388.1 856.8,377.9 1249,156.1 1111.2,153.9 1240.5,77.5 1158.9,69.1 	"/>
	<path class="st1" d="M534.2,1091.2c0,0-245.4-193.1-428.3,59.3C-61.6,1381.6,91.2,1721,91.2,1721s59.3,201.4,557.6,439
		l-108.1-750.7l-258.8,86.9l48.7,8.5l-76.3,53.1l80.6,14.8l-70,53.1l150.7,12.8l44.5,184.4c0,0-252.3-110.2-282.1-307.4
		c-29.6-197.3,8.5-237.6,95.5-280.1c86.9-42.3,339.3,127.4,381.7,157L534.2,1091.2z"/>
	<polygon class="st1" points="1064.6,953.4 587.3,1604.3 962.8,2117.5 920.3,2011.6 979.8,2073 954.2,1975.5 1028.5,1998.8 
		814.3,1568.4 824.9,1551.3 1217.2,1581.1 1015.8,1235.3 1028.5,1214.3 1359.3,1349.9 1297.8,1267.3 1391,1307.4 1312.6,1199.3 
		1367.8,1207.9 	"/>
	<path class="st0" d="M1963.6,669.2l-235.4-335.1l-328.7-87l-199.3,290.6l142,309.5l241.9,313.9l188.6,67.9l241.8-286.4
		L1963.6,669.2z M1611.7,500.6l45.5,2.1l38.2,50.9l-30.9,48.9l-54-2.2l-26.4-48.7L1611.7,500.6z M1446.1,690.4l-29.6-17l-8.4-25.4
		l27.6-27.5l44.5,8.5l9.6,31.8L1446.1,690.4z M1849.2,930.1l-57.2,57.2l-44.6,29.7l-102.9-3.3l-77.3-53.5l85.7,19.1l74.2-6
		l59.4-42.4l40.3-64.7l22.3-103.9l15.9,99.7L1849.2,930.1z"/>
	<path class="st1" d="M1495,1275.6L1172.6,1668l-14.8,320.2l129.3,110.2l243.9-48.8l373.4-335.1l31.5-430.5L1495,1275.6z
		 M1469.6,1937.3l-43.4,2.3l-31.9-47.9l-80.6-1l-27.5-90.1l25.5-45.6l72-31.8l54.1,72.2l36.1,4.1l81.5-23.3l48.8,111.3
		L1469.6,1937.3z M1608.5,1527l-66.8,9.5l-32.4-56.7l34.5-62l80.6-4.5l18,70.2L1608.5,1527z M1784.4,1617.1l-38.1,28.6l-33.8-18.1
		V1580l27.5-13.8l44.5,14.9V1617.1z"/>
</g>
</svg>
