<?xml version="1.0" encoding="UTF-8" standalone="no"?>
<svg
   xmlns:dc="http://purl.org/dc/elements/1.1/"
   xmlns:cc="http://creativecommons.org/ns#"
   xmlns:rdf="http://www.w3.org/1999/02/22-rdf-syntax-ns#"
   xmlns:svg="http://www.w3.org/2000/svg"
   xmlns="http://www.w3.org/2000/svg"
   viewBox="0 0 321.50399 260.58267"
   height="260.58267"
   width="321.504"
   xml:space="preserve"
   id="svg2"
   version="1.1"><metadata
     id="metadata8"><rdf:RDF><cc:Work
         rdf:about=""><dc:format>image/svg+xml</dc:format><dc:type
           rdf:resource="http://purl.org/dc/dcmitype/StillImage" /></cc:Work></rdf:RDF></metadata><defs
     id="defs6"><clipPath
       id="clipPath18"
       clipPathUnits="userSpaceOnUse"><path
         id="path16"
         d="M 0,256 H 256 V 0 H 0 Z" /></clipPath></defs><g
     transform="matrix(1.3333333,0,0,-1.3333333,-9.9306664,298.66666)"
     id="g10"><g
       id="g12"><g
         clip-path="url(#clipPath18)"
         id="g14"><g
           transform="translate(128,96)"
           id="g20"><path
             id="path22"
             style="fill:#ffffff;fill-opacity:1;fill-rule:nonzero;stroke:none"
             d="M 0,0 C -17.673,0 -32,14.327 -32,32 -32,49.673 -17.673,64 0,64 17.673,64 32,49.673 32,32 32,14.327 17.673,0 0,0 M 0,68 C -19.851,68 -36,51.851 -36,32 -36,12.149 -19.851,-4 0,-4 19.851,-4 36,12.149 36,32 36,51.851 19.851,68 0,68" /></g><g
           transform="translate(128,104)"
           id="g24"><path
             id="path26"
             style="fill:#ffffff;fill-opacity:1;fill-rule:nonzero;stroke:none"
             d="M 0,0 C -13.255,0 -24,10.745 -24,24 -24,37.255 -13.255,48 0,48 13.255,48 24,37.255 24,24 24,10.745 13.255,0 0,0 M 0,52 C -15.439,52 -28,39.439 -28,24 -28,8.561 -15.439,-4 0,-4 15.439,-4 28,8.561 28,24 28,39.439 15.439,52 0,52" /></g><g
           transform="translate(240,40)"
           id="g28"><path
             id="path30"
             style="fill:#ffffff;fill-opacity:1;fill-rule:nonzero;stroke:none"
             d="M 0,0 C 0,0 -41.029,-5.471 -84.636,-7.364 L -112,20 -139.065,-7.065 C -182.783,-4.243 -224,4 -224,4 l -4,12 68,72 -68,72 4,12 c 0,0 37.701,5.026 79.233,7.11 l 2.575,-2.575 3.85,-3.85 23.513,-23.514 2.829,-2.828 2.828,2.828 23.514,23.514 3.85,3.85 2.576,2.575 C -37.701,177.026 0,172 0,172 L 4,160 -68,88 4,16 Z m -112.149,-4 c -5.852,0 -11.805,0.159 -17.762,0.433 L -112,14.343 -93.958,-3.698 C -100.059,-3.889 -106.156,-4 -112.149,-4 M -220,38 h 7.276 l -3.866,-4.093 C -216.715,33.965 -216.853,34 -217,34 h -3 z m 0,8 h 14.832 l -3.787,-4.009 c -0.016,0 -0.029,0.009 -0.045,0.009 h -11 z m 0,8 h 22.387 l -3.778,-4 H -220 Z m 0,8 h 29.942 l -3.777,-4 H -220 Z m 0,8 h 37.498 l -3.778,-4 H -220 Z m 0,8 h 45.054 l -3.778,-4 H -220 Z m 0,8 h 52.609 l -3.777,-4 H -220 Z m 0,8 h 48.832 l 3.777,-4 H -220 Z m 0,8 h 41.276 l 3.778,-4 H -220 Z m 0,8 h 33.72 l 3.778,-4 H -220 Z m 0,8 h 26.165 l 3.777,-4 H -220 Z m 0,8 h 18.609 l 3.778,-4 H -220 Z m 0,8 h 11 c 0.016,0 0.029,0.008 0.045,0.009 L -205.168,130 H -220 Z m 0,8 h 3 c 0.147,0 0.285,0.036 0.41,0.093 L -212.724,138 H -220 Z m 87.325,37.624 c 0.098,0.003 0.196,0.007 0.293,0.01 2.185,0.074 4.371,0.138 6.554,0.191 0.129,0.003 0.257,0.006 0.386,0.009 2.181,0.052 4.358,0.092 6.527,0.12 0.101,0.001 0.201,0.002 0.302,0.004 2.215,0.027 4.422,0.042 6.613,0.042 2.191,0 4.398,-0.015 6.613,-0.042 0.101,-0.002 0.201,-0.003 0.302,-0.004 2.169,-0.028 4.347,-0.068 6.527,-0.12 0.128,-0.003 0.257,-0.006 0.386,-0.009 2.183,-0.053 4.368,-0.117 6.554,-0.191 0.097,-0.003 0.195,-0.007 0.293,-0.01 2.233,-0.077 4.465,-0.164 6.689,-0.26 l -3.85,-3.85 L -112,152 l -23.514,23.514 -3.85,3.85 c 2.225,0.096 4.456,0.183 6.689,0.26 M -4,146 H -4.343 L -4,146.343 Z m 0,-8 h -8.343 l 4,4 H -4 Z m 0,-8 h -16.343 l 4,4 H -4 Z m 0,-8 h -24.343 l 4,4 H -4 Z m 0,-8 h -32.343 l 4,4 H -4 Z m 0,-8 h -40.343 l 4,4 H -4 Z m 0,-8 h -48.343 l 4,4 H -4 Z m 0,-8 h -56.343 l 4,4 H -4 Z m 0,-8 h -51 c -0.365,0 -0.671,-0.205 -0.846,-0.498 L -60.343,86 H -4 Z m 0,-8 h -43 c -0.158,0 -0.64,-0.038 -1.24,-0.103 L -53.373,79.029 -52,78 h 48 z m 0,-8 h -36.343 l -4,4 H -4 Z m 0,-8 h -28.343 l -4,4 H -4 Z m 0,-8 h -20.343 l -4,4 H -4 Z m 0,-8 h -11 c -0.158,0 -0.64,-0.038 -1.24,-0.103 L -20.343,46 H -4 Z m 0,-8 h -4.343 l -4,4 H -4 Z M -4,29.657 -4.343,30 H -4 Z M 2.343,23.313 0,28 v 2 h 3 c 0.553,0 1,0.447 1,1 v 2 c 0,0.553 -0.447,1 -1,1 H 0 v 4 h 3 c 0.553,0 1,0.447 1,1 v 2 c 0,0.553 -0.447,1 -1,1 H 0 v 4 h 3 c 0.553,0 1,0.447 1,1 v 2 c 0,0.553 -0.447,1 -1,1 H 0 v 4 h 3 c 0.553,0 1,0.447 1,1 v 2 c 0,0.553 -0.447,1 -1,1 H 0 v 4 h 3 c 0.553,0 1,0.447 1,1 v 2 c 0,0.553 -0.447,1 -1,1 H 0 v 4 h 3 c 0.553,0 1,0.447 1,1 v 2 c 0,0.553 -0.447,1 -1,1 H 0 v 4 h 3 c 0.553,0 1,0.447 1,1 v 2 c 0,0.553 -0.447,1 -1,1 H 0 v 4 h 3 c 0.553,0 1,0.447 1,1 v 2 c 0,0.552 -0.447,1 -1,1 H 0 v 4 h 3 c 0.553,0 1,0.448 1,1 v 2 c 0,0.552 -0.447,1 -1,1 H 0 v 4 h 3 c 0.553,0 1,0.448 1,1 v 2 c 0,0.552 -0.447,1 -1,1 H 0 v 4 h 3 c 0.553,0 1,0.448 1,1 v 2 c 0,0.552 -0.447,1 -1,1 H 0 v 4 h 3 c 0.553,0 1,0.448 1,1 v 2 c 0,0.552 -0.447,1 -1,1 H 0 v 4 h 3 c 0.553,0 1,0.448 1,1 v 2 c 0,0.552 -0.447,1 -1,1 H 0 v 4 h 3 c 0.553,0 1,0.448 1,1 v 2 c 0,0.552 -0.447,1 -1,1 H 0 v 4 h 3 c 0.553,0 1,0.448 1,1 v 2 c 0,0.552 -0.447,1 -1,1 H 0 v 2 l 2.343,4.687 4.485,4.484 1.748,1.749 -0.781,2.345 -4,12 -0.79,2.37 -2.477,0.33 c -0.462,0.061 -36.07,4.762 -75.963,6.944 l 0.057,0.057 -9.085,0.394 c -4.255,0.185 -8.405,0.327 -12.445,0.432 -0.229,0.006 -0.457,0.013 -0.687,0.019 -0.625,0.015 -1.249,0.03 -1.868,0.043 -0.551,0.013 -1.1,0.024 -1.65,0.035 -0.497,0.009 -0.993,0.019 -1.486,0.028 -0.841,0.014 -1.68,0.026 -2.519,0.037 -0.321,0.004 -0.64,0.007 -0.96,0.011 -0.714,0.008 -1.427,0.014 -2.139,0.02 -0.293,0.002 -0.586,0.004 -0.877,0.006 -0.971,0.005 -1.941,0.009 -2.906,0.009 -0.965,0 -1.935,-0.004 -2.906,-0.009 -0.291,-0.002 -0.584,-0.004 -0.877,-0.006 -0.712,-0.006 -1.425,-0.012 -2.139,-0.02 -0.32,-0.004 -0.639,-0.007 -0.96,-0.011 -0.838,-0.011 -1.678,-0.023 -2.519,-0.037 -0.492,-0.009 -0.989,-0.019 -1.485,-0.028 -0.551,-0.011 -1.1,-0.022 -1.651,-0.035 -0.62,-0.013 -1.243,-0.028 -1.869,-0.043 -0.228,-0.006 -0.457,-0.013 -0.686,-0.019 -4.04,-0.105 -8.19,-0.247 -12.445,-0.432 l -9.086,-0.394 0.057,-0.057 c -39.892,-2.182 -75.5,-6.883 -75.963,-6.944 l -2.476,-0.33 -0.79,-2.37 -4,-12 -0.757,-2.271 1.644,-1.741 4.847,-5.132 L -224,148 v -2 h -3 c -0.552,0 -1,-0.448 -1,-1 v -2 c 0,-0.552 0.448,-1 1,-1 h 3 v -4 h -3 c -0.552,0 -1,-0.448 -1,-1 v -2 c 0,-0.552 0.448,-1 1,-1 h 3 v -4 h -3 c -0.552,0 -1,-0.448 -1,-1 v -2 c 0,-0.552 0.448,-1 1,-1 h 3 v -4 h -3 c -0.552,0 -1,-0.448 -1,-1 v -2 c 0,-0.552 0.448,-1 1,-1 h 3 v -4 h -3 c -0.552,0 -1,-0.448 -1,-1 v -2 c 0,-0.552 0.448,-1 1,-1 h 3 v -4 h -3 c -0.552,0 -1,-0.448 -1,-1 v -2 c 0,-0.552 0.448,-1 1,-1 h 3 v -4 h -3 c -0.552,0 -1,-0.448 -1,-1 v -2 c 0,-0.552 0.448,-1 1,-1 h 3 v -4 h -3 c -0.552,0 -1,-0.448 -1,-1 v -2 c 0,-0.553 0.448,-1 1,-1 h 3 v -4 h -3 c -0.552,0 -1,-0.447 -1,-1 v -2 c 0,-0.553 0.448,-1 1,-1 h 3 v -4 h -3 c -0.552,0 -1,-0.447 -1,-1 v -2 c 0,-0.553 0.448,-1 1,-1 h 3 v -4 h -3 c -0.552,0 -1,-0.447 -1,-1 v -2 c 0,-0.553 0.448,-1 1,-1 h 3 v -4 h -3 c -0.552,0 -1,-0.447 -1,-1 v -2 c 0,-0.553 0.448,-1 1,-1 h 3 v -4 h -3 c -0.552,0 -1,-0.447 -1,-1 v -2 c 0,-0.553 0.448,-1 1,-1 h 3 v -4 h -3 c -0.552,0 -1,-0.447 -1,-1 v -2 c 0,-0.553 0.448,-1 1,-1 h 3 v -4 h -3 c -0.552,0 -1,-0.447 -1,-1 v -2 c 0,-0.553 0.448,-1 1,-1 h 3 v -2 l -2.061,-4.121 -4.847,-5.133 -1.644,-1.74 0.757,-2.271 4,-12 0.734,-2.202 2.277,-0.455 c 0.414,-0.083 41.981,-8.328 85.461,-11.135 l 1.806,-0.117 1.28,1.28 2.509,2.509 c 7.583,-0.401 14.832,-0.615 21.579,-0.615 6.886,0 14.3,0.149 22.063,0.429 l 2.621,-2.621 1.244,-1.245 1.758,0.077 c 43.284,1.88 84.579,7.34 84.991,7.395 l 2.694,0.36 0.659,2.635 4,16 0.549,2.197 -1.602,1.601 z" /></g></g></g></g></svg>