<?xml version="1.0" encoding="UTF-8" standalone="no"?>
<svg
   xmlns:dc="http://purl.org/dc/elements/1.1/"
   xmlns:cc="http://creativecommons.org/ns#"
   xmlns:rdf="http://www.w3.org/1999/02/22-rdf-syntax-ns#"
   xmlns:svg="http://www.w3.org/2000/svg"
   xmlns="http://www.w3.org/2000/svg"
   viewBox="0 0 320 314.66665"
   height="314.66666"
   width="320"
   xml:space="preserve"
   id="svg2"
   version="1.1"><metadata
     id="metadata8"><rdf:RDF><cc:Work
         rdf:about=""><dc:format>image/svg+xml</dc:format><dc:type
           rdf:resource="http://purl.org/dc/dcmitype/StillImage" /></cc:Work></rdf:RDF></metadata><defs
     id="defs6"><clipPath
       id="clipPath18"
       clipPathUnits="userSpaceOnUse"><path
         id="path16"
         d="M 0,256 H 256 V 0 H 0 Z" /></clipPath></defs><g
     transform="matrix(1.3333333,0,0,-1.3333333,-10.666666,330.66666)"
     id="g10"><g
       id="g12"><g
         clip-path="url(#clipPath18)"
         id="g14"><g
           transform="translate(244,180)"
           id="g20"><path
             id="path22"
             style="fill:#ffffff;fill-opacity:1;fill-rule:nonzero;stroke:none"
             d="m 0,0 -4,-4 h -20 v -32 c 0,-2.209 -1.791,-4 -4,-4 -2.209,0 -4,1.791 -4,4 V 0 c 0,2.209 1.791,4 4,4 h 4 20 z m -4,-164 h -16 v 20 c 0,4.411 -3.589,8 -8,8 -4.411,0 -8,-3.589 -8,-8 v -20 h -12 v 28 h 20 24 v 4 h -44 v 4 h 44 v 4 h -44 v 4 h 44 v 4 h -44 v 4 h 44 v 4 h -44 v 4 h 44 v 4 h -44 v 92 c 0,35.29 -30.505,64 -68,64 -37.495,0 -68,-28.71 -68,-64 v -92 h -44 v -4 h 44 v -4 h -44 v -4 h 44 v -4 h -44 v -4 h 44 v -4 h -44 v -4 h 44 v -4 h -44 v -4 h 24 20 v -28 h -4 v 12 c 0,4.411 -3.589,8 -8,8 0,4.411 -3.589,8 -8,8 -4.411,0 -8,-3.589 -8,-8 -4.411,0 -8,-3.589 -8,-8 v -12 h -8 c -2.2,0 -4,1.8 -4,4 V -5.657 l 1.172,-1.172 1.171,-1.171 h 1.657 16 v -28 c 0,-4.411 3.589,-8 8,-8 4.411,0 8,3.589 8,8 V 0 c 0,4.411 -3.589,8 -8,8 h -4 -20 -1.657 L -230.828,6.829 -232,5.657 V 52 c 0,6.6 5.4,12 12,12 h 36 v -3.931 h 4 V 64 h 4 v -3.931 h 4 V 64 h 4 v -3.931 h 4 V 64 h 4 v -3.931 h 4 V 64 h 4 v -3.931 h 4 V 64 h 4 v -3.931 h 4 V 64 h 4 v -3.931 h 4 V 64 h 4 v -3.931 h 4 V 64 h 4 v -3.931 h 4 V 64 h 4 v -3.931 h 4 V 64 h 4 v -3.931 h 4 V 64 h 4 v -3.931 h 4 V 64 h 4 v -3.931 h 4 V 64 h 4 v -3.931 h 4 V 64 h 4 v -3.931 h 4 V 64 h 4 v -3.931 h 4 V 64 h 4 v -3.931 h 4 V 64 h 40 C -5.4,64 0,58.6 0,52 V 5.657 L -1.172,6.829 -2.344,8 H -4 -24 -28 c -4.411,0 -8,-3.589 -8,-8 v -36 c 0,-4.411 3.589,-8 8,-8 4.411,0 8,3.589 8,8 v 28 h 16 1.656 L -1.172,-6.829 0,-5.657 V -160 c 0,-2.2 -1.8,-4 -4,-4 m -28,0 v 20 c 0,2.209 1.791,4 4,4 2.209,0 4,-1.791 4,-4 v -20 z m -36,0 v 92 h -96 v -92 h -16 v 28 4 4 4 4 4 4 4 4 4 92 c 0,33.137 28.654,60 64,60 35.347,0 64,-26.863 64,-60 v -92 -4 -4 -4 -4 -4 -4 -4 -4 -4 -28 z m -16,0 v 8 8 c 0,17.645 -14.355,32 -32,32 -17.645,0 -32,-14.355 -32,-32 v -8 -8 h -12 v 88 h 8 v -64 h 4 v 64 h 4 v -40 h 4 v 40 h 4 v -40 h 4 v 40 h 4 v -40 h 4 v 40 h 16 v -40 h 4 v 40 h 4 v -40 h 4 v 40 h 4 v -40 h 4 v 40 h 4 v -64 h 4 v 64 h 8 v -88 z m -60,0 v 8 8 c 0,15.464 12.536,28 28,28 15.464,0 28,-12.536 28,-28 v -8 -8 z m -56,0 h -8 -8 v 12 c 0,2.209 1.791,4 4,4 h 4 v 4 c 0,2.209 1.791,4 4,4 2.209,0 4,-1.791 4,-4 v -4 h 4 c 2.209,0 4,-1.791 4,-4 v -12 z m -28,160 -4,4 4,4 h 20 4 c 2.209,0 4,-1.791 4,-4 v -36 c 0,-2.209 -1.791,-4 -4,-4 -2.209,0 -4,1.791 -4,4 v 32 z m 216,72 h -40 -4 -4 -4 -4 -4 -4 -4 -4 -4 -4 -4 -4 -4 -4 -4 -4 -4 -4 -4 -4 -4 -4 -4 -4 -4 -4 -4 -4 -4 -4 -4 -4 -4 -36 c -8.822,0 -16,-7.178 -16,-16 v -212 c 0,-4.411 3.589,-8 8,-8 h 8 4 8 8 8 4 4 4 16 4 12 4 56 4 12 4 16 4 12 4 8 4 16 c 4.411,0 8,3.589 8,8 V 52 c 0,8.822 -7.178,16 -16,16" /></g><g
           transform="translate(128.8945,100.4473)"
           id="g24"><path
             id="path26"
             style="fill:#ffffff;fill-opacity:1;fill-rule:nonzero;stroke:none"
             d="M 0,0 C -0.169,0.339 -0.532,0.508 -0.895,0.508 -1.257,0.508 -1.62,0.339 -1.789,0 l -4,-8 c -0.247,-0.494 -0.047,-1.095 0.447,-1.342 0.144,-0.071 0.296,-0.105 0.446,-0.105 0.368,0 0.72,0.202 0.896,0.552 l 1.105,2.211 v -25.763 h 4 v 25.763 l 1.106,-2.211 c 0.176,-0.35 0.528,-0.552 0.895,-0.552 0.151,0 0.303,0.034 0.447,0.105 C 4.047,-9.095 4.247,-8.494 4,-8 Z" /></g></g></g></g></svg>