<?xml version="1.0" encoding="UTF-8" standalone="no"?>
<svg
   xmlns:dc="http://purl.org/dc/elements/1.1/"
   xmlns:cc="http://creativecommons.org/ns#"
   xmlns:rdf="http://www.w3.org/1999/02/22-rdf-syntax-ns#"
   xmlns:svg="http://www.w3.org/2000/svg"
   xmlns="http://www.w3.org/2000/svg"
   viewBox="0 0 320 234.66665"
   height="234.66666"
   width="320"
   xml:space="preserve"
   id="svg2"
   version="1.1"><metadata
     id="metadata8"><rdf:RDF><cc:Work
         rdf:about=""><dc:format>image/svg+xml</dc:format><dc:type
           rdf:resource="http://purl.org/dc/dcmitype/StillImage" /></cc:Work></rdf:RDF></metadata><defs
     id="defs6"><clipPath
       id="clipPath18"
       clipPathUnits="userSpaceOnUse"><path
         id="path16"
         d="M 0,256 H 256 V 0 H 0 Z" /></clipPath></defs><g
     transform="matrix(1.3333333,0,0,-1.3333333,-10.666666,287.99999)"
     id="g10"><g
       id="g12"><g
         clip-path="url(#clipPath18)"
         id="g14"><g
           transform="translate(36,116)"
           id="g20"><path
             id="path22"
             style="fill:#ffffff;fill-opacity:1;fill-rule:nonzero;stroke:none"
             d="m 0,0 c 4.418,0 8,-3.582 8,-8 0,-4.418 -3.582,-8 -8,-8 -4.418,0 -8,3.582 -8,8 0,4.418 3.582,8 8,8 m 0,-20 c 6.617,0 12,5.383 12,12 0,6.617 -5.383,12 -12,12 -6.617,0 -12,-5.383 -12,-12 0,-6.617 5.383,-12 12,-12" /></g><g
           transform="translate(244,196)"
           id="g24"><path
             id="path26"
             style="fill:#ffffff;fill-opacity:1;fill-rule:nonzero;stroke:none"
             d="m 0,0 h -4 v -4 h 4 v -4 h -4 v -4 h 4 v -4 h -4 v -4 h 4 v -4 h -4 v -4 h 4 v -4 h -4 v -4 h 4 v -4 h -4 v -4 h 4 v -4 h -4 v -4 h 4 v -4 h -4 v -4 h 4 v -4 h -4 v -4 h 4 v -4 h -4 v -4 h 4 v -4 h -4 v -4 h 4 v -4 h -4 v -4 h 4 v -4 h -4 v -4 h 4 v -4 h -4 v -4 h 4 v -4 h -4 v -4 h 4 v -4 h -4 v -4 h 4 v -4 h -4 v -4 h 4 v -4 h -4 v -4 h 4 v -2 c 0,-1.104 -0.896,-2 -2,-2 h -2 -2 c -1.104,0 -2,0.896 -2,2 V 6 c 0,1.104 0.896,2 2,2 h 2 V 4 h 4 z m -48,-124 c 0,8.837 7.163,16 16,16 8.837,0 16,-7.163 16,-16 0,-8.837 -7.163,-16 -16,-16 -8.837,0 -16,7.163 -16,16 m 44,-26 c 0,-1.104 -0.896,-2 -2,-2 h -56 c -1.104,0 -2,0.896 -2,2 v 2 4 20.601 c 3.894,3.656 7.401,7.713 10.457,12.114 l 3.709,-3.71 c -1.374,-2.71 -2.166,-5.764 -2.166,-9.005 0,-11.028 8.972,-20 20,-20 11.028,0 20,8.972 20,20 0,11.028 -8.972,20 -20,20 -6.32,0 -11.956,-2.955 -15.624,-7.548 l -3.676,3.676 c 0,-0.001 -0.001,-0.001 -0.001,-0.002 7.16,11.593 11.301,25.247 11.301,39.874 0,21.852 -9.235,41.535 -24,55.399 L -64,8 v 4 2 c 0,1.104 0.896,2 2,2 h 56 c 1.104,0 2,-0.896 2,-2 v -2 h -2 c -3.309,0 -6,-2.691 -6,-6 v -130 -18 c 0,-3.309 2.691,-6 6,-6 h 2 z m -112,6 h -48 v 17.085 c 13.088,-10.676 29.793,-17.085 48,-17.085 18.207,0 34.912,6.409 48,17.085 V -144 Z m -84,4 c -8.836,0 -16,7.163 -16,16 0,8.837 7.164,16 16,16 8.836,0 16,-7.163 16,-16 0,-8.837 -7.164,-16 -16,-16 m 32,-8 v -2 c 0,-1.104 -0.896,-2 -2,-2 h -28 v 2 6 0.102 c 10.092,1.006 18,9.545 18,19.898 0,11.028 -8.972,20 -20,20 -11.028,0 -20,-8.972 -20,-20 0,-10.353 7.908,-18.892 18,-19.898 v -0.102 -6 -2 h -24 c -1.104,0 -2,0.896 -2,2 v 2 h 2 c 3.309,0 6,2.691 6,6 v 18 36 94 c 0,3.309 -2.691,6 -6,6 h -2 v 2 c 0,1.104 0.896,2 2,2 h 56 c 1.104,0 2,-0.896 2,-2 V 12 8 -12.601 c -14.765,-13.864 -24,-33.547 -24,-55.399 0,-21.852 9.235,-41.535 24,-55.399 V -144 Z m -64,6 v 2 h 4 v 4 h -4 v 4 h 4 v 4 h -4 v 4 h 4 v 4 h -4 v 4 h 4 v 4 h -4 v 4 h 4 v 4 h -4 v 4 h 4 v 4 h -4 v 4 h 4 v 4 h -4 v 4 h 4 v 4 h -4 v 4 h 4 v 4 h -4 v 4 h 4 v 4 h -4 v 4 h 4 v 4 h -4 v 4 h 4 v 4 h -4 v 4 h 4 v 4 h -4 v 4 h 4 v 4 h -4 v 4 h 4 v 4 h -4 v 4 h 4 v 4 h -4 v 4 h 4 v 4 h -4 v 4 h 4 v 4 h -4 v 4 h 4 v 4 h 2 c 1.104,0 2,-0.896 2,-2 v -148 c 0,-1.104 -0.896,-2 -2,-2 h -2 -2 c -1.104,0 -2,0.896 -2,2 M -116,8 h 48 V -9.085 C -81.088,1.591 -97.793,8 -116,8 -134.207,8 -150.912,1.591 -164,-9.085 V 8 Z m 0,-148 c -39.701,0 -72,32.299 -72,72 0,39.701 32.299,72 72,72 39.701,0 72,-32.299 72,-72 0,-39.701 -32.299,-72 -72,-72 M 0,8 v 4 2 c 0,3.309 -2.691,6 -6,6 h -56 c -3.309,0 -6,-2.691 -6,-6 v -2 h -96 v 2 c 0,3.309 -2.691,6 -6,6 h -56 c -3.309,0 -6,-2.691 -6,-6 V 12 8 h -4 v -4 -4 -4 -4 -4 -4 -4 -4 -4 -4 -4 -4 -4 -4 -4 -4 -4 -4 -4 -4 -4 -4 -4 -4 -4 -4 -4 -4 -4 -4 -4 -4 -4 -4 -4 -4 -4 -2 c 0,-2.606 1.673,-4.823 4,-5.65 V -150 c 0,-3.309 2.691,-6 6,-6 h 56 c 3.309,0 6,2.691 6,6 v 2 h 96 v -2 c 0,-3.309 2.691,-6 6,-6 h 56 c 3.309,0 6,2.691 6,6 v 2.35 c 2.326,0.827 4,3.044 4,5.65 v 2 4 4 4 4 4 4 4 4 4 4 4 4 4 4 4 4 4 4 4 4 4 4 4 4 4 4 4 4 4 4 4 4 4 4 4 4 4 z" /></g></g></g></g></svg>