<?xml version="1.0" encoding="UTF-8" standalone="no"?>
<svg
   xmlns:dc="http://purl.org/dc/elements/1.1/"
   xmlns:cc="http://creativecommons.org/ns#"
   xmlns:rdf="http://www.w3.org/1999/02/22-rdf-syntax-ns#"
   xmlns:svg="http://www.w3.org/2000/svg"
   xmlns="http://www.w3.org/2000/svg"
   viewBox="0 0 245.33333 325.33331"
   height="325.33331"
   width="245.33333"
   xml:space="preserve"
   id="svg2"
   version="1.1"><metadata
     id="metadata8"><rdf:RDF><cc:Work
         rdf:about=""><dc:format>image/svg+xml</dc:format><dc:type
           rdf:resource="http://purl.org/dc/dcmitype/StillImage" /></cc:Work></rdf:RDF></metadata><defs
     id="defs6"><clipPath
       id="clipPath36"
       clipPathUnits="userSpaceOnUse"><path
         id="path34"
         d="M 0,256 H 256 V 0 H 0 Z" /></clipPath></defs><g
     transform="matrix(1.3333333,0,0,-1.3333333,-47.999999,335.99999)"
     id="g10"><path
       id="path12"
       style="fill:#ffffff;fill-opacity:1;fill-rule:nonzero;stroke:none"
       d="M 208,24 H 48 v 4 h 160 z" /><path
       id="path14"
       style="fill:#ffffff;fill-opacity:1;fill-rule:nonzero;stroke:none"
       d="M 196,32 H 60 v 4 h 136 z" /><path
       id="path16"
       style="fill:#ffffff;fill-opacity:1;fill-rule:nonzero;stroke:none"
       d="M 96,80 H 68 V 56 H 96 Z M 92,60 H 72 v 16 h 20 z" /><path
       id="path18"
       style="fill:#ffffff;fill-opacity:1;fill-rule:nonzero;stroke:none"
       d="M 188,80 H 160 V 56 h 28 z m -4,-20 h -20 v 16 h 20 z" /><g
       transform="translate(156,132)"
       id="g20"><path
         id="path22"
         style="fill:#ffffff;fill-opacity:1;fill-rule:nonzero;stroke:none"
         d="m 0,0 h -4 -48 -4 v -4 -56 -4 h 4 48 4 v 4 56 z m -4,-60 h -48 v 56 h 48 z" /></g><g
       transform="translate(136,132)"
       id="g24"><path
         id="path26"
         style="fill:#ffffff;fill-opacity:1;fill-rule:nonzero;stroke:none"
         d="m 0,0 h -4 -8 -4 v -4 -28 -4 h 4 8 4 v 4 28 z m -4,-32 h -8 v 28 h 8 z" /></g><path
       id="path28"
       style="fill:#ffffff;fill-opacity:1;fill-rule:nonzero;stroke:none"
       d="M 96,64 H 80 v 4 h 16 z" /><g
       id="g30"><g
         clip-path="url(#clipPath36)"
         id="g32"><g
           transform="translate(52,224)"
           id="g38"><path
             id="path40"
             style="fill:#ffffff;fill-opacity:1;fill-rule:nonzero;stroke:none"
             d="m 0,0 h -8 c -4.411,0 -8,-3.589 -8,-8 v -116 c 0,-4.411 3.589,-8 8,-8 h 8 c 4.411,0 8,3.589 8,8 V -8 C 8,-3.589 4.411,0 0,0 m 0,-4 c 2.2,0 4,-1.8 4,-4 v -116 c 0,-2.2 -1.8,-4 -4,-4 h -8 c -2.2,0 -4,1.8 -4,4 V -8 c 0,2.2 1.8,4 4,4 h 8" /></g><g
           transform="translate(212,224)"
           id="g42"><path
             id="path44"
             style="fill:#ffffff;fill-opacity:1;fill-rule:nonzero;stroke:none"
             d="m 0,0 h -8 c -4.411,0 -8,-3.589 -8,-8 v -116 c 0,-4.411 3.589,-8 8,-8 h 8 c 4.411,0 8,3.589 8,8 V -8 C 8,-3.589 4.411,0 0,0 m 0,-4 c 2.2,0 4,-1.8 4,-4 v -116 c 0,-2.2 -1.8,-4 -4,-4 h -8 c -2.2,0 -4,1.8 -4,4 V -8 c 0,2.2 1.8,4 4,4 h 8" /></g><path
           id="path46"
           style="fill:#ffffff;fill-opacity:1;fill-rule:nonzero;stroke:none"
           d="m 52,96 h -4 v 124 h 4 z" /><path
           id="path48"
           style="fill:#ffffff;fill-opacity:1;fill-rule:nonzero;stroke:none"
           d="m 208,96 h -4 v 124 h 4 z" /><g
           transform="translate(82,252)"
           id="g50"><path
             id="path52"
             style="fill:#ffffff;fill-opacity:1;fill-rule:nonzero;stroke:none"
             d="m 0,0 h -8 c -2.607,0 -4.832,-1.672 -5.657,-4 H -14 -20 c -3.309,0 -6,-2.691 -6,-6 v -108 c 0,-3.309 2.691,-6 6,-6 h 6 120 6 c 3.309,0 6,2.691 6,6 v 108 c 0,3.309 -2.691,6 -6,6 H 106 5.657 C 4.832,-1.672 2.607,0 0,0 m 0,-4 c 1.104,0 2,-0.896 2,-2 v -2 h 104 6 c 1.104,0 2,-0.896 2,-2 v -108 c 0,-1.104 -0.896,-2 -2,-2 h -6 -120 -6 c -1.104,0 -2,0.896 -2,2 v 108 c 0,1.104 0.896,2 2,2 h 6 4 v 2 c 0,1.104 0.896,2 2,2 h 8" /></g><path
           id="path54"
           style="fill:#ffffff;fill-opacity:1;fill-rule:nonzero;stroke:none"
           d="M 188,196 H 68 v 4 h 120 z" /><path
           id="path56"
           style="fill:#ffffff;fill-opacity:1;fill-rule:nonzero;stroke:none"
           d="M 140,188 H 68 v 4 h 72 z" /><path
           id="path58"
           style="fill:#ffffff;fill-opacity:1;fill-rule:nonzero;stroke:none"
           d="m 192,188 h -12 v 4 h 12 z" /><path
           id="path60"
           style="fill:#ffffff;fill-opacity:1;fill-rule:nonzero;stroke:none"
           d="M 188,180 H 68 v 4 h 120 z" /><g
           transform="translate(184,200)"
           id="g62"><path
             id="path64"
             style="fill:#ffffff;fill-opacity:1;fill-rule:nonzero;stroke:none"
             d="m 0,0 h -4 -40 -4 v -4 -12 -4 h 4 40 4 v 4 12 z m -4,-16 h -40 v 12 h 40 z" /></g><path
           id="path66"
           style="fill:#ffffff;fill-opacity:1;fill-rule:nonzero;stroke:none"
           d="m 68,132 h -4 v 112 h 4 z" /><path
           id="path68"
           style="fill:#ffffff;fill-opacity:1;fill-rule:nonzero;stroke:none"
           d="m 192,132 h -4 v 112 h 4 z" /><g
           transform="translate(208,220)"
           id="g70"><path
             id="path72"
             style="fill:#ffffff;fill-opacity:1;fill-rule:nonzero;stroke:none"
             d="m 0,0 h 4 v 24 4 H 0 -124 V 24 H 0 Z" /></g><g
           transform="translate(48,220)"
           id="g74"><path
             id="path76"
             style="fill:#ffffff;fill-opacity:1;fill-rule:nonzero;stroke:none"
             d="m 0,0 v 24 h 22 v 4 H 0 -4 V 24 0 Z" /></g><g
           transform="translate(208,96)"
           id="g78"><path
             id="path80"
             style="fill:#ffffff;fill-opacity:1;fill-rule:nonzero;stroke:none"
             d="M 0,0 V -84 H -160 V 0 h -4 v -84 -4 h 4 160 4 v 4 84 z" /></g><g
           transform="translate(56,96)"
           id="g82"><path
             id="path84"
             style="fill:#ffffff;fill-opacity:1;fill-rule:nonzero;stroke:none"
             d="M 0,0 V -28 L -4,-68 H -8 V 0 h -4 v -68 -4 h 4 4 3.62 l 0.36,3.602 4,40 0.02,0.199 V -28 0 Z" /></g><g
           transform="translate(208,28)"
           id="g86"><path
             id="path88"
             style="fill:#ffffff;fill-opacity:1;fill-rule:nonzero;stroke:none"
             d="m 0,0 h -4 l -4,40 v 28 h -4 V 40 39.801 l 0.02,-0.199 4,-40 L -7.62,-4 H -4 0 4 V 0 68 H 0 Z" /></g><path
           id="path90"
           style="fill:#ffffff;fill-opacity:1;fill-rule:nonzero;stroke:none"
           d="M 200,40 H 56 v 4 h 144 z" /><path
           id="path92"
           style="fill:#ffffff;fill-opacity:1;fill-rule:nonzero;stroke:none"
           d="M 200,48 H 56 v 4 h 144 z" /><g
           transform="translate(80,60)"
           id="g94"><path
             id="path96"
             style="fill:#ffffff;fill-opacity:1;fill-rule:nonzero;stroke:none"
             d="m 0,0 v 16 h 16 v 4 H 0 -4 V 16 0 -4 h 4 16 v 4 z" /></g><g
           transform="translate(176,60)"
           id="g98"><path
             id="path100"
             style="fill:#ffffff;fill-opacity:1;fill-rule:nonzero;stroke:none"
             d="m 0,0 v 16 h -16 v 4 H 0 4 V 16 0 -4 H 0 -16 v 4 z" /></g><path
           id="path102"
           style="fill:#ffffff;fill-opacity:1;fill-rule:nonzero;stroke:none"
           d="m 152,96 h -48 v 4 h 48 z" /></g></g></g></svg>