<?xml version="1.0" encoding="UTF-8" standalone="no"?>
<svg
   xmlns:dc="http://purl.org/dc/elements/1.1/"
   xmlns:cc="http://creativecommons.org/ns#"
   xmlns:rdf="http://www.w3.org/1999/02/22-rdf-syntax-ns#"
   xmlns:svg="http://www.w3.org/2000/svg"
   xmlns="http://www.w3.org/2000/svg"
   viewBox="0 0 314.66665 240"
   height="240"
   width="314.66666"
   xml:space="preserve"
   id="svg2"
   version="1.1"><metadata
     id="metadata8"><rdf:RDF><cc:Work
         rdf:about=""><dc:format>image/svg+xml</dc:format><dc:type
           rdf:resource="http://purl.org/dc/dcmitype/StillImage" /></cc:Work></rdf:RDF></metadata><defs
     id="defs6" /><g
     transform="matrix(1.3333333,0,0,-1.3333333,-10.666266,287.99999)"
     id="g10"><g
       transform="translate(233.3437,52)"
       id="g12"><path
         id="path14"
         style="fill:#ffffff;fill-opacity:1;fill-rule:nonzero;stroke:none"
         d="m 0,0 -101.344,41.978 v 4.33 l 104,-43.079 v 4.33 l -104,43.078 v 4.33 l 104,-43.078 v 4.329 l -104,43.078 v 4.33 l 104,-43.078 v 4.329 l -104,43.078 v 4.33 l 104,-43.078 v 4.329 l -104,43.078 v 4.33 l 104,-43.078 v 4.329 l -104,43.078 v 4.33 l 104,-43.078 v 4.329 l -104,43.079 v 4.329 l 104,-43.078 v 4.33 l -104,43.078 v 4.329 l 104,-43.077 v 4.329 l -104,43.078 v 4.33 l 104,-43.079 v 4.33 l -104,43.078 v 4.33 l 104,-43.078 v 4.329 l -104,43.078 v 4.33 l 104,-43.078 v 4.329 l -104,43.079 v 4.329 l 104,-43.078 v 4.33 l -104,43.078 v 4.329 l 104,-43.078 v 4.33 l -104,43.078 V 160 h 108 V 0 Z m 6.656,-12 h -108 v 8 h 6.476 10.452 10.453 10.452 10.452 10.454 10.452 10.452 10.453 10.452 3.452 4 z m -112,0 h -116 v 8 h 116 z m 4,45.318 v 4.33 L -10.453,0 h -10.452 z m 0,-8.659 v 4.33 L -31.357,0 h -10.454 z m 0,-8.659 v 4.33 L -52.263,0 h -10.452 z m 0,-8.658 v 4.329 L -73.168,0 H -83.62 Z m 0,-4.33 L -94.072,0 h -7.272 z m -120,156.988 h 116 v -4 -4.126 -4.33 -4.329 -4.33 -4.329 -4.33 -4.33 -4.329 -4.33 -4.329 -4.33 -4.329 -4.33 -4.329 -4.33 -4.329 -4.33 -4.33 -4.33 -4.329 -4.33 -4.329 -4.33 -4.329 -4.329 -4.33 -4.33 -4.329 -4.33 -4.33 -4.329 -4.33 V 13.328 8.998 4.669 0.339 0 h -116 z m 228,4 h -108 -4 -116 -4 v -4 -160 -4 -8 -4 h 4 116 4 108 4 v 4 8 4 160 4 z" /></g><g
       transform="translate(180.7539,208)"
       id="g16"><path
         id="path18"
         style="fill:#ffffff;fill-opacity:1;fill-rule:nonzero;stroke:none"
         d="m 0,0 55.246,-22.884 v 4.33 L 10.452,0 Z" /></g><g
       transform="translate(201.6592,208)"
       id="g20"><path
         id="path22"
         style="fill:#ffffff;fill-opacity:1;fill-rule:nonzero;stroke:none"
         d="m 0,0 34.341,-14.225 v 4.33 L 10.452,0 Z" /></g><g
       transform="translate(222.5645,208)"
       id="g24"><path
         id="path26"
         style="fill:#ffffff;fill-opacity:1;fill-rule:nonzero;stroke:none"
         d="m 0,0 13.436,-5.565 v 4.329 L 10.452,0 Z" /></g><g
       transform="translate(138.9443,208)"
       id="g28"><path
         id="path30"
         style="fill:#ffffff;fill-opacity:1;fill-rule:nonzero;stroke:none"
         d="m 0,0 97.056,-40.202 v 4.33 L 10.452,0 Z" /></g><g
       transform="translate(159.8486,208)"
       id="g32"><path
         id="path34"
         style="fill:#ffffff;fill-opacity:1;fill-rule:nonzero;stroke:none"
         d="m 0,0 76.151,-31.543 v 4.33 L 10.453,0 Z" /></g></g></svg>