<?xml version="1.0" encoding="utf-8"?>
<!-- Generator: Adobe Illustrator 25.4.1, SVG Export Plug-In . SVG Version: 6.00 Build 0)  -->
<svg version="1.1" id="Layer_1" xmlns="http://www.w3.org/2000/svg" xmlns:xlink="http://www.w3.org/1999/xlink" x="0px" y="0px"
	 viewBox="0 0 3839 468.5" style="enable-background:new 0 0 3839 468.5;" xml:space="preserve">
<style type="text/css">
	.st0{fill:#929497;}
	.st1{fill:#CE181E;}
	.st2{fill:#A0C90C;}
	.st3{fill:#E20123;}
	.st4{fill:#02A7E0;}
	.st5{fill:#F5AB00;}
	.st6{fill:#F02590;}
	.st7{fill:#049B81;}
	.st8{fill:#FFFFFF;}
</style>
<g>
	<path class="st0" d="M2064.5,248.8H1888c-25.6,0-46.3,20.9-46.3,46.4v125.9c0,25.4,20.8,46.4,46.3,46.4h176.5
		c25.6,0,46.4-20.9,46.4-46.4V295.2C2110.8,269.7,2090.1,248.8,2064.5,248.8 M2072,420.8c0,5-4.1,9.1-9.1,9.1h-173.3
		c-5.1,0-9.1-4.1-9.1-9.1V295.4c0-5,4-9,9.1-9h173.3c5,0,9.1,4,9.1,9V420.8z"/>
	<polygon points="40.5,60.5 40.5,222.5 0,222.5 0,3.8 34.6,3.8 198.5,163 198.5,3.8 230.9,3.8 238.5,3.8 238.5,222.5 206.9,222.5 	
		"/>
	<polygon points="446.4,60.5 446.4,222.5 405.9,222.5 405.9,3.8 440.5,3.8 604.4,163 604.4,3.8 636.8,3.8 644.4,3.8 644.4,222.5 
		612.8,222.5 	"/>
	<polygon points="1287.5,60.5 1287.5,222.5 1247.1,222.5 1247.1,3.8 1281.6,3.8 1445.6,163 1445.6,3.8 1478,3.8 1485.6,3.8 
		1485.6,222.5 1454,222.5 	"/>
	<polygon points="334.9,3.8 342.4,3.8 342.4,222.5 301.9,222.5 301.9,3.8 	"/>
	<polygon points="920.1,3.8 927.5,3.8 927.5,41.4 829.9,41.4 829.9,222.5 787.8,222.5 787.8,41.4 690.2,41.4 690.2,3.8 	"/>
	<polygon points="1179.5,3.8 1187,3.8 1187,41.4 1013.5,41.4 1013.5,90.5 1147.7,90.5 1147.7,128 1013.5,128 1013.5,184.8 
		1187,184.8 1187,222.5 973.4,222.5 973.4,3.8 	"/>
	<path d="M1777.1,35.8c-15.8-20.9-39.3-32-67.6-32h-162.2v218.7h162.2c28.3,0,51.8-11.1,67.6-31.9c14.8-19.4,22.7-46.2,22.7-77.5
		C1799.7,81.9,1791.9,55.1,1777.1,35.8 M1710.6,184.8h-124.3V41.4h1.1h123.2c38.9,0,52.7,38.6,52.7,71.6
		C1763.4,146.2,1749.5,184.8,1710.6,184.8"/>
	<path d="M2064.5,3.8H1888c-25.6,0-46.3,20.9-46.3,46.4v126c0,25.4,20.8,46.3,46.3,46.3h176.5c25.6,0,46.4-21,46.4-46.3v-126
		C2110.8,24.7,2090.1,3.8,2064.5,3.8 M2072,175.8c0,4.9-4.1,9-9.1,9h-173.3c-5.1,0-9.1-4.1-9.1-9V50.4c0-4.9,4-8.9,9.1-8.9h173.3
		c5,0,9.1,4,9.1,8.9V175.8z"/>
	<path d="M3380,375.7c42.1,16.6,130.6,30,199.8,30c75.7,0,107.1-25.9,107.1-58.5c0-29.3-29.2-46.5-112.9-77.1
		c-111.7-41.3-193.7-74-193.7-147.3c0-76,98.7-120.7,249.1-120.7c80.7,0,108.4,5.1,159.8,14.5l0.4,72.2c-50.4-9.6-95-26-164.4-26
		c-74.3,0-106.1,23.5-106.1,47.9c0,35.3,48.9,52.1,134.5,82.6c119.1,42.6,185.4,75.5,185.4,147.4c0,74-83,127.3-270.2,127.3
		c-76.9,0-129.9-5-188.9-14.5V375.7z"/>
	<path d="M3220.7,434.4c-44.1,19.9-127.4,32.6-200.3,32.6H2742V2.9h278.5c72.9,0,156.2,12.9,200.3,32.8
		C3328,84.1,3363,161.6,3363,235C3363,308.5,3328.3,385.9,3220.7,434.4 M2981.6,65.7h-89.1v337.2h89.1c136.8,0,223-58.4,223-167.9
		C3204.6,125.6,3118.4,65.7,2981.6,65.7"/>
	<path class="st1" d="M2546.8,213c0,0,129.9-20.7,129.9-101.6C2676.7,32.4,2538.4,0,2391.2,0c-132.8,0-220.1,16.2-220.1,16.2v71.8
		c60.3-14.6,118-27,196.6-27c84.3,0,148.7,25.1,148.7,60.7c0,42.8-63.6,67.3-200.7,67.3h-63v64.7h58.6
		c144.3,0,226.4,21.7,226.4,74.7c0,47.3-73.3,76-164.7,76c-79.7,0-152.6-16.9-211.8-33.3v77.4c28.4,4.9,103.8,20,244.2,20
		c155.6,0,290.8-50,290.8-138.1C2696,256.5,2602.3,213,2546.8,213"/>
</g>
</svg>
