<?xml version="1.0" encoding="utf-8"?>
<!-- Generator: Adobe Illustrator 26.0.1, SVG Export Plug-In . SVG Version: 6.00 Build 0)  -->
<svg version="1.1" id="Layer_1" xmlns="http://www.w3.org/2000/svg" xmlns:xlink="http://www.w3.org/1999/xlink" x="0px" y="0px"
	 viewBox="0 0 2659.3 2159" style="enable-background:new 0 0 2659.3 2159;" xml:space="preserve">
<style type="text/css">
	.st0{fill:#FF0000;}
	.st1{fill:#B5B5B5;}
	.st2{fill:#02A5F4;}
	.st3{fill:#F65BA6;}
	.st4{fill:#6784E7;}
	.st5{fill:#FFD52F;}
	.st6{fill:#FFFFFF;}
</style>
<g>
	<g>
		<g>
			<path class="st0" d="M2163,654.8C1768.7-94.8,1007-117.9,744,173.3C680,244.4,461.2,651.7,1068.3,1034
				c-315.8,93.4-572-269.9-572-269.9c394.3,749.5,1156,772.7,1419,481.4c64.1-71.1,282.9-478.4-324.2-860.7
				C1906.9,291.6,2163,654.8,2163,654.8z M1683.3,1028.8c-119.5,132.4-374.7,96.8-570.1-79.6C917.9,772.8,856.5,522.5,976,390.1
				s374.7-96.8,570.1,79.6S1802.9,896.3,1683.3,1028.8z"/>
			
				<ellipse transform="matrix(0.6701 -0.7423 0.7423 0.6701 -141.7042 1385.8562)" class="st0" cx="1488.2" cy="852.3" rx="178.3" ry="263.1"/>
			<path d="M568.2,1555.7h-18.8H521h-80.5h-6h-7l-64.8,45.3l-15.7,73.4c-2.2,10.5,5.8,20.5,16.6,20.5h19.7h27.4h80.5h8.3h4.6
				l64.8-45.3l15.7-73.4C587,1565.7,579,1555.7,568.2,1555.7z M514.5,1586.7l-13,60.9l-38.2,26.7H426c-5.4,0-9.5-5-8.3-10.3l13-60.9
				l38.1-26.7h37.5C511.5,1576.4,515.6,1581.4,514.5,1586.7z"/>
			<path d="M785,1555.7h-10.3h-6.5H660l0,0h-40.2l-29.7,139h35.6l38.1-26.6l19.6-91.9h61.6c9.7,0,16.9,9,14.9,18.4l-21.3,99.9h68.1
				l21.3-99.9C832.3,1574.7,812,1555.7,785,1555.7z"/>
			<polygon points="317.5,1478.6 279.5,1505.2 249.1,1647.6 210.9,1674.2 191.9,1674.2 228,1505.2 233.7,1478.6 198,1478.6 
				159.9,1505.2 159.9,1505.2 129.6,1647.6 91.5,1674.2 72.5,1674.2 108.4,1505.2 108.4,1505.2 114.1,1478.6 78.5,1478.6 
				40.5,1505.2 0,1694.8 51.6,1694.8 68.1,1694.8 119.5,1694.8 187.5,1694.8 239.1,1694.8 251.9,1694.8 316.7,1649.6 353.1,1478.6 
							"/>
			<path d="M1075.3,1558c5.3-3.5,10.2-7.4,14.7-11.8c18.3-18.4,32-42.7,32-42.7h-72.4c0,0-13.7,24.3-32,42.7
				c-3.5,3.5-7.3,6.7-11.4,9.6h-71.5h-6.6h-6.4l-64.8,45.3l-15.7,73.4c-2.2,10.5,5.8,20.5,16.6,20.5h16.6h30.7h80.5h21.5h46.6
				l26.5-124.2C1081.3,1565.5,1079.1,1560.7,1075.3,1558z M1008.8,1586.7l-18.7,87.6h-70c-5.4,0-9.5-5-8.3-10.3l13-60.9l38.1-26.7
				h37.5C1005.9,1576.4,1010,1581.4,1008.8,1586.7z"/>
			<path d="M1307.3,1555.7h-12.4h-17.7h-95.2h-6.2h-6.7l-64.8,45.3l-15.7,73.4c-2.2,10.5,5.8,20.5,16.6,20.5h24.1h23.1h91.8
				l28.7-20.6h-105.5c-5.4,0-9.5-5-8.3-10.3l4.7-22.3h99.4l66.2-46.3l2.1-9.9C1334.7,1570.2,1323,1555.7,1307.3,1555.7z
				 M1270.6,1586.7l-2.7,12.8l-29,20.4h-70.6l3.6-16.9l38.1-26.6h52.2C1267.7,1576.4,1271.7,1581.4,1270.6,1586.7z"/>
			<path d="M1524.4,1555.7h-101.3l0,0h-6.8l-64.8,45.3l-20,93.8h68.1l19.6-91.8l38.1-26.6h27.3c14.2,0,24.3,13.9,19.9,27.5
				c-0.9,2.7-2.1,5.2-3.6,7.5l-5.4,8.5h46.1l31.5-22.1C1573.1,1580.6,1563.8,1555.7,1524.4,1555.7z"/>
			<path d="M2615.9,1555.7h-10.3h-6.5h-108.3l0,0h-40.2l-29.7,139h35.7l38.1-26.6l19.6-91.9h61.6c9.7,0,16.9,9,14.9,18.4l-21.3,99.9
				h68.1l21.3-99.9C2663,1574.7,2642.8,1555.7,2615.9,1555.7z"/>
			<polygon points="2100.4,1576.4 2085.2,1647.6 2047.1,1674.2 2033.4,1674.2 2058.6,1555.7 2015.7,1555.7 1986.2,1576.4 
				1971.1,1647.6 1932.9,1674.2 1919.1,1674.2 1944.4,1555.7 1901.4,1555.7 1872,1576.4 1846.8,1694.8 2088.1,1694.8 2152.9,1649.6 
				2172.9,1555.7 2129.9,1555.7 			"/>
			<path d="M1802.1,1566h-14.5h-12.5h-62.5c-8.6-0.5-14.4-6.3-13-17.5c3.3-25.8,25.3-39.3,36.4-39.3h99l43.7-30.6h-164.2l0,0
				c-52.2,0-80.9,38.6-87,88.7c-4.4,20.7,11.4,40.2,32.5,40.2h14.5h12.5h62.5c8.6,0.5,14.4,6.3,13,17.5
				c-3.2,24.9-23.9,38.4-35.2,39.3h-202.7l-43.7,30.6h102.5h-0.1h164.2l0,0c52.2,0,80.9-38.6,87-88.7
				C1839.1,1585.5,1823.3,1566,1802.1,1566z"/>
			<path d="M2352,1555.7h-80.5c-39.7,0-74.2,27.7-82.3,66.6c-8.3,39.9-3.4,75.2,52.6,72.5h39.9l29.4-20.6h-32.3
				c-16.7,0-29.2-15.4-25.7-31.8l4.7-22c5.5-25.7,28.2-44.1,54.5-44.1h35.4l-25.3,118.4h68.1l29.7-139h-57.7H2352L2352,1555.7z"/>
			<path class="st2" d="M914.1,1779l-34.2,125.2c-7.7,28-48.9,22.5-48.9-6.6v-42.9c0-42.4-47.9-47.4-47.9-47.4
				c-103.3,0-169.6,120.4-169,183.4c0,57.4,30,118.6,107.7,104.7c50.7-9,95.3-50.9,95.3-50.9c1.3-1.3,2.6-2.6,3.8-3.9
				c23.9-24.4,63,5.1,46.1,34.8l0,0c-54.6,85.5-374.6,137-374.6-96.6c0-91.4,101-269.6,424.7-211.1L914.1,1779z"/>
			<path class="st0" d="M1493.5,2104.4l-35.7,25.9c-71.1,44.9-174.9,15.6-172.8-77.3c0.2-10.1,2.1-20.1,4.7-29.9l58.3-213.3
				c5.5-20.3,18.8-37.9,37.6-47.4c40.4-20.6,69.5,13.4,62.8,43.1l-58.8,215.2c-23.5,81.3,20.8,91.8,40.1,79.2l45.8-33.3l35,0.5
				l-3.9,29.6L1493.5,2104.4z"/>
			<path class="st3" d="M1971.1,1990.9l11.9-43.6c6.7-29.7-22.4-63.7-62.8-43.1c-18.7,9.5-32,27.1-37.6,47.4L1846,2086l-2.5,9
				c-9.6,35,17.4,49.9,44.3,53.6c37.7,5.3,45.2-12.4,47.7-24.5c1.1-5.2,2.7-10.4,5.3-15.1c22.3-40.4,53.8-75.5,81-100.7
				c21.4-19.8,56.1-11.9,66.5,15.3l3.7,9.6c5.9,15.5,28.1,14.4,32.5-1.6l38.4-140.3C2107.6,1884.4,2035.6,1906.2,1971.1,1990.9z"/>
			<path class="st4" d="M1624.4,1878c22.6-4.5,36.9,23,20.5,39.1c-68.3,66.9-82.8,196-0.9,196c82.6,0,104.6-158.6,37.7-175.7
				c-24.8-5-9.1-12.2-2.1-15.7c60.1-30.5,159.1-42.4,156,65.3c-2,66.9-83.2,172-216.5,172c-87.9,0-147.8-50.6-147.8-124.6
				C1471.2,1970.3,1539.5,1894.9,1624.4,1878z"/>
		</g>
		<path class="st5" d="M1051.5,1878c22.6-4.5,36.9,23,20.5,39.1c-68.3,66.9-82.8,196-0.9,196c82.6,0,104.6-158.6,37.7-175.7
			c-24.8-5-9.1-12.2-2.1-15.7c60.1-30.5,159.1-42.4,156,65.3c-2,66.9-83.2,172-216.5,172c-87.9,0-147.8-50.6-147.8-124.6
			C898.4,1970.3,966.6,1894.9,1051.5,1878z"/>
	</g>
</g>
</svg>
