<?xml version="1.0" encoding="UTF-8" standalone="no"?>
<svg
   xmlns:dc="http://purl.org/dc/elements/1.1/"
   xmlns:cc="http://creativecommons.org/ns#"
   xmlns:rdf="http://www.w3.org/1999/02/22-rdf-syntax-ns#"
   xmlns:svg="http://www.w3.org/2000/svg"
   xmlns="http://www.w3.org/2000/svg"
   viewBox="0 0 170.66665 298.66665"
   height="298.66666"
   width="170.66666"
   xml:space="preserve"
   id="svg2"
   version="1.1"><metadata
     id="metadata8"><rdf:RDF><cc:Work
         rdf:about=""><dc:format>image/svg+xml</dc:format><dc:type
           rdf:resource="http://purl.org/dc/dcmitype/StillImage" /></cc:Work></rdf:RDF></metadata><defs
     id="defs6"><clipPath
       id="clipPath18"
       clipPathUnits="userSpaceOnUse"><path
         id="path16"
         d="M 0,256 H 256 V 0 H 0 Z" /></clipPath></defs><g
     transform="matrix(1.3333333,0,0,-1.3333333,-85.333331,319.99999)"
     id="g10"><g
       id="g12"><g
         clip-path="url(#clipPath18)"
         id="g14"><path
           id="path20"
           style="fill:#ffffff;fill-opacity:1;fill-rule:nonzero;stroke:none"
           d="m 84,84 h 56 V 28 H 84 Z m 0,-60 h 56 c 2.209,0 4,1.791 4,4 v 56 c 0,2.209 -1.791,4 -4,4 H 84 c -2.209,0 -4,-1.791 -4,-4 V 28 c 0,-2.209 1.791,-4 4,-4" /><path
           id="path22"
           style="fill:#ffffff;fill-opacity:1;fill-rule:nonzero;stroke:none"
           d="m 152,76 h 20 V 60 h -20 z m 0,-20 h 20 c 2.209,0 4,1.791 4,4 v 16 c 0,2.209 -1.791,4 -4,4 h -20 c -2.209,0 -4,-1.791 -4,-4 V 60 c 0,-2.209 1.791,-4 4,-4" /><path
           id="path24"
           style="fill:#ffffff;fill-opacity:1;fill-rule:nonzero;stroke:none"
           d="m 152,48 h 20 V 28 h -20 z m 0,-24 h 20 c 2.209,0 4,1.791 4,4 v 20 c 0,2.209 -1.791,4 -4,4 h -20 c -2.209,0 -4,-1.791 -4,-4 V 28 c 0,-2.209 1.791,-4 4,-4" /><g
           transform="translate(180,212)"
           id="g26"><path
             id="path28"
             style="fill:#ffffff;fill-opacity:1;fill-rule:nonzero;stroke:none"
             d="m 0,0 h -104 v 12 c 0,2.206 1.794,4 4,4 h 96 c 2.206,0 4,-1.794 4,-4 z m -4,20 h -96 c -4.418,0 -8,-3.582 -8,-8 V -4 H 4 v 16 c 0,4.418 -3.582,8 -8,8" /></g><g
           transform="translate(80,192)"
           id="g30"><path
             id="path32"
             style="fill:#ffffff;fill-opacity:1;fill-rule:nonzero;stroke:none"
             d="M 0,0 C -2.206,0 -4,1.794 -4,4 -4,6.206 -2.206,8 0,8 2.206,8 4,6.206 4,4 4,1.794 2.206,0 0,0 m 0,12 c -4.418,0 -8,-3.582 -8,-8 0,-4.418 3.582,-8 8,-8 4.418,0 8,3.582 8,8 0,4.418 -3.582,8 -8,8" /></g><g
           transform="translate(176,192)"
           id="g34"><path
             id="path36"
             style="fill:#ffffff;fill-opacity:1;fill-rule:nonzero;stroke:none"
             d="M 0,0 C -2.206,0 -4,1.794 -4,4 -4,6.206 -2.206,8 0,8 2.206,8 4,6.206 4,4 4,1.794 2.206,0 0,0 m 0,12 c -4.418,0 -8,-3.582 -8,-8 0,-4.418 3.582,-8 8,-8 4.418,0 8,3.582 8,8 0,4.418 -3.582,8 -8,8" /></g><g
           transform="translate(114,80)"
           id="g38"><path
             id="path40"
             style="fill:#ffffff;fill-opacity:1;fill-rule:nonzero;stroke:none"
             d="m 0,0 c -1.104,0 -2,-0.896 -2,-2 0,-1.104 0.896,-2 2,-2 1.104,0 2,0.896 2,2 0,1.104 -0.896,2 -2,2" /></g><g
           transform="translate(158,68)"
           id="g42"><path
             id="path44"
             style="fill:#ffffff;fill-opacity:1;fill-rule:nonzero;stroke:none"
             d="m 0,0 c -1.104,0 -2,-0.896 -2,-2 0,-1.104 0.896,-2 2,-2 1.104,0 2,0.896 2,2 0,1.104 -0.896,2 -2,2" /></g><g
           transform="translate(158,44)"
           id="g46"><path
             id="path48"
             style="fill:#ffffff;fill-opacity:1;fill-rule:nonzero;stroke:none"
             d="m 0,0 c -1.104,0 -2,-0.896 -2,-2 0,-1.104 0.896,-2 2,-2 1.104,0 2,0.896 2,2 0,1.104 -0.896,2 -2,2" /></g><g
           transform="translate(188,116)"
           id="g50"><path
             id="path52"
             style="fill:#ffffff;fill-opacity:1;fill-rule:nonzero;stroke:none"
             d="m 0,0 v -4 -4 c 0,-4.411 -3.589,-8 -8,-8 h -104 c -4.411,0 -8,3.589 -8,8 v 4 4 108 c 0,6.617 5.383,12 12,12 h 96 c 6.617,0 12,-5.383 12,-12 z m -8,-96 h -104 v 76 H -8 Z m -4,220 h -96 c -8.822,0 -16,-7.178 -16,-16 V -8 c 0,-5.213 3.347,-9.647 8,-11.3 v -76.7 -4 h 4 104 4 v 80.7 c 4.653,1.653 8,6.087 8,11.3 v 116 c 0,8.822 -7.178,16 -16,16" /></g><path
           id="path54"
           style="fill:#ffffff;fill-opacity:1;fill-rule:nonzero;stroke:none"
           d="M 180,184 H 76 v -52 h 104 z m -4,-48 H 80 v 44 h 96 z" /><g
           transform="translate(114,123)"
           id="g56"><path
             id="path58"
             style="fill:#ffffff;fill-opacity:1;fill-rule:nonzero;stroke:none"
             d="m 0,0 c 0,-0.553 -0.896,-1 -2,-1 -1.104,0 -2,0.447 -2,1 0,0.553 0.896,1 2,1 1.104,0 2,-0.447 2,-1" /></g><g
           transform="translate(120,125)"
           id="g60"><path
             id="path62"
             style="fill:#ffffff;fill-opacity:1;fill-rule:nonzero;stroke:none"
             d="m 0,0 c 0,-0.553 -0.896,-1 -2,-1 -1.104,0 -2,0.447 -2,1 0,0.553 0.896,1 2,1 1.104,0 2,-0.447 2,-1" /></g><g
           transform="translate(88,125)"
           id="g64"><path
             id="path66"
             style="fill:#ffffff;fill-opacity:1;fill-rule:nonzero;stroke:none"
             d="m 0,0 c 0,-0.553 -0.896,-1 -2,-1 -1.104,0 -2,0.447 -2,1 0,0.553 0.896,1 2,1 1.104,0 2,-0.447 2,-1" /></g><g
           transform="translate(108,121)"
           id="g68"><path
             id="path70"
             style="fill:#ffffff;fill-opacity:1;fill-rule:nonzero;stroke:none"
             d="m 0,0 c 0,-0.553 -0.896,-1 -2,-1 -1.104,0 -2,0.447 -2,1 0,0.553 0.896,1 2,1 1.104,0 2,-0.447 2,-1" /></g><g
           transform="translate(114,119)"
           id="g72"><path
             id="path74"
             style="fill:#ffffff;fill-opacity:1;fill-rule:nonzero;stroke:none"
             d="m 0,0 c 0,-0.553 -0.896,-1 -2,-1 -1.104,0 -2,0.447 -2,1 0,0.553 0.896,1 2,1 1.104,0 2,-0.447 2,-1" /></g><g
           transform="translate(120,121)"
           id="g76"><path
             id="path78"
             style="fill:#ffffff;fill-opacity:1;fill-rule:nonzero;stroke:none"
             d="m 0,0 c 0,-0.553 -0.896,-1 -2,-1 -1.104,0 -2,0.447 -2,1 0,0.553 0.896,1 2,1 1.104,0 2,-0.447 2,-1" /></g><g
           transform="translate(108,117)"
           id="g80"><path
             id="path82"
             style="fill:#ffffff;fill-opacity:1;fill-rule:nonzero;stroke:none"
             d="m 0,0 c 0,-0.553 -0.896,-1 -2,-1 -1.104,0 -2,0.447 -2,1 0,0.553 0.896,1 2,1 1.104,0 2,-0.447 2,-1" /></g><g
           transform="translate(100,118)"
           id="g84"><path
             id="path86"
             style="fill:#ffffff;fill-opacity:1;fill-rule:nonzero;stroke:none"
             d="m 0,0 c 0,-1.104 -2.687,-2 -6,-2 -3.313,0 -6,0.896 -6,2 0,1.104 2.687,2 6,2 3.313,0 6,-0.896 6,-2" /></g><g
           transform="translate(94,116)"
           id="g88"><path
             id="path90"
             style="fill:#ffffff;fill-opacity:1;fill-rule:nonzero;stroke:none"
             d="m 0,0 v 0 c -1.104,0 -2,0.896 -2,2 v 8 c 0,1.104 0.896,2 2,2 1.104,0 2,-0.896 2,-2 V 2 C 2,0.896 1.104,0 0,0" /></g><g
           transform="translate(162,123)"
           id="g92"><path
             id="path94"
             style="fill:#ffffff;fill-opacity:1;fill-rule:nonzero;stroke:none"
             d="m 0,0 c 0,-0.553 -0.896,-1 -2,-1 -1.104,0 -2,0.447 -2,1 0,0.553 0.896,1 2,1 1.104,0 2,-0.447 2,-1" /></g><g
           transform="translate(168,125)"
           id="g96"><path
             id="path98"
             style="fill:#ffffff;fill-opacity:1;fill-rule:nonzero;stroke:none"
             d="m 0,0 c 0,-0.553 -0.896,-1 -2,-1 -1.104,0 -2,0.447 -2,1 0,0.553 0.896,1 2,1 1.104,0 2,-0.447 2,-1" /></g><g
           transform="translate(136,125)"
           id="g100"><path
             id="path102"
             style="fill:#ffffff;fill-opacity:1;fill-rule:nonzero;stroke:none"
             d="m 0,0 c 0,-0.553 -0.896,-1 -2,-1 -1.104,0 -2,0.447 -2,1 0,0.553 0.896,1 2,1 1.104,0 2,-0.447 2,-1" /></g><g
           transform="translate(156,121)"
           id="g104"><path
             id="path106"
             style="fill:#ffffff;fill-opacity:1;fill-rule:nonzero;stroke:none"
             d="m 0,0 c 0,-0.553 -0.896,-1 -2,-1 -1.104,0 -2,0.447 -2,1 0,0.553 0.896,1 2,1 1.104,0 2,-0.447 2,-1" /></g><g
           transform="translate(162,119)"
           id="g108"><path
             id="path110"
             style="fill:#ffffff;fill-opacity:1;fill-rule:nonzero;stroke:none"
             d="m 0,0 c 0,-0.553 -0.896,-1 -2,-1 -1.104,0 -2,0.447 -2,1 0,0.553 0.896,1 2,1 1.104,0 2,-0.447 2,-1" /></g><g
           transform="translate(168,121)"
           id="g112"><path
             id="path114"
             style="fill:#ffffff;fill-opacity:1;fill-rule:nonzero;stroke:none"
             d="m 0,0 c 0,-0.553 -0.896,-1 -2,-1 -1.104,0 -2,0.447 -2,1 0,0.553 0.896,1 2,1 1.104,0 2,-0.447 2,-1" /></g><g
           transform="translate(156,117)"
           id="g116"><path
             id="path118"
             style="fill:#ffffff;fill-opacity:1;fill-rule:nonzero;stroke:none"
             d="m 0,0 c 0,-0.553 -0.896,-1 -2,-1 -1.104,0 -2,0.447 -2,1 0,0.553 0.896,1 2,1 1.104,0 2,-0.447 2,-1" /></g><g
           transform="translate(148,118)"
           id="g120"><path
             id="path122"
             style="fill:#ffffff;fill-opacity:1;fill-rule:nonzero;stroke:none"
             d="m 0,0 c 0,-1.104 -2.687,-2 -6,-2 -3.313,0 -6,0.896 -6,2 0,1.104 2.687,2 6,2 3.313,0 6,-0.896 6,-2" /></g><g
           transform="translate(142,116)"
           id="g124"><path
             id="path126"
             style="fill:#ffffff;fill-opacity:1;fill-rule:nonzero;stroke:none"
             d="m 0,0 v 0 c -1.104,0 -2,0.896 -2,2 v 8 c 0,1.104 0.896,2 2,2 1.104,0 2,-0.896 2,-2 V 2 C 2,0.896 1.104,0 0,0" /></g><path
           id="path128"
           style="fill:#ffffff;fill-opacity:1;fill-rule:nonzero;stroke:none"
           d="M 188,108 H 68 v 4 h 120 z" /><g
           transform="translate(76,132)"
           id="g130"><path
             id="path132"
             style="fill:#ffffff;fill-opacity:1;fill-rule:nonzero;stroke:none"
             d="m 0,0 -8,-20 h 4 L 4,0 Z" /></g><g
           transform="translate(176,132)"
           id="g134"><path
             id="path136"
             style="fill:#ffffff;fill-opacity:1;fill-rule:nonzero;stroke:none"
             d="m 0,0 8,-20 h 4 L 4,0 Z" /></g><g
           transform="translate(84,164)"
           id="g138"><path
             id="path140"
             style="fill:#ffffff;fill-opacity:1;fill-rule:nonzero;stroke:none"
             d="M 0,0 H 8 V -4 H 4 L 0,-8 v -8 h 4 8 v 4 H 4 v 4 h 4 4 V 0 4 H 4 Z" /></g><path
           id="path142"
           style="fill:#ffffff;fill-opacity:1;fill-rule:nonzero;stroke:none"
           d="m 104,164 h 4 v -12 h -4 z m 0,4 -4,-4 v -16 h 4 4 l 4,4 v 16 h -4 z" /><g
           transform="translate(124,152)"
           id="g144"><path
             id="path146"
             style="fill:#ffffff;fill-opacity:1;fill-rule:nonzero;stroke:none"
             d="m 0,0 v 16 h -4 l -4,-4 h 4 V 0 l -4,-4 h 4 4 l 4,4 z" /></g><g
           transform="translate(168,164)"
           id="g148"><path
             id="path150"
             style="fill:#ffffff;fill-opacity:1;fill-rule:nonzero;stroke:none"
             d="m 0,0 h -20 l 4,4 H 4 Z" /></g><g
           transform="translate(164,156)"
           id="g152"><path
             id="path154"
             style="fill:#ffffff;fill-opacity:1;fill-rule:nonzero;stroke:none"
             d="m 0,0 h -16 l 4,4 H 4 Z" /></g><g
           transform="translate(160,148)"
           id="g156"><path
             id="path158"
             style="fill:#ffffff;fill-opacity:1;fill-rule:nonzero;stroke:none"
             d="m 0,0 h -12 l 4,4 H 4 Z" /></g><g
           transform="translate(140,164)"
           id="g160"><path
             id="path162"
             style="fill:#ffffff;fill-opacity:1;fill-rule:nonzero;stroke:none"
             d="M 0,0 4,4 H -4 L -8,0 v -8 h 8 v -4 h -4 l -4,-4 h 8 l 4,4 v 8 H 0 -4 v 4 z" /></g></g></g></g></svg>