<?xml version="1.0" encoding="UTF-8" standalone="no"?>
<svg
   xmlns:dc="http://purl.org/dc/elements/1.1/"
   xmlns:cc="http://creativecommons.org/ns#"
   xmlns:rdf="http://www.w3.org/1999/02/22-rdf-syntax-ns#"
   xmlns:svg="http://www.w3.org/2000/svg"
   xmlns="http://www.w3.org/2000/svg"
   viewBox="0 0 309.33331 320"
   height="320"
   width="309.33331"
   xml:space="preserve"
   id="svg2"
   version="1.1"><metadata
     id="metadata8"><rdf:RDF><cc:Work
         rdf:about=""><dc:format>image/svg+xml</dc:format><dc:type
           rdf:resource="http://purl.org/dc/dcmitype/StillImage" /></cc:Work></rdf:RDF></metadata><defs
     id="defs6"><clipPath
       id="clipPath18"
       clipPathUnits="userSpaceOnUse"><path
         id="path16"
         d="M 0,256 H 256 V 0 H 0 Z" /></clipPath></defs><g
     transform="matrix(1.3333333,0,0,-1.3333333,-16,330.66666)"
     id="g10"><g
       id="g12"><g
         clip-path="url(#clipPath18)"
         id="g14"><g
           transform="translate(34,192)"
           id="g20"><path
             id="path22"
             style="fill:#ffffff;fill-opacity:1;fill-rule:nonzero;stroke:none"
             d="m 0,0 c -1.104,0 -2,-0.896 -2,-2 0,-1.104 0.896,-2 2,-2 1.104,0 2,0.896 2,2 0,1.104 -0.896,2 -2,2" /></g><g
           transform="translate(42,192)"
           id="g24"><path
             id="path26"
             style="fill:#ffffff;fill-opacity:1;fill-rule:nonzero;stroke:none"
             d="m 0,0 c -1.104,0 -2,-0.896 -2,-2 0,-1.104 0.896,-2 2,-2 1.104,0 2,0.896 2,2 0,1.104 -0.896,2 -2,2" /></g><g
           transform="translate(50,192)"
           id="g28"><path
             id="path30"
             style="fill:#ffffff;fill-opacity:1;fill-rule:nonzero;stroke:none"
             d="m 0,0 c -1.104,0 -2,-0.896 -2,-2 0,-1.104 0.896,-2 2,-2 1.104,0 2,0.896 2,2 0,1.104 -0.896,2 -2,2" /></g><g
           transform="translate(34,184)"
           id="g32"><path
             id="path34"
             style="fill:#ffffff;fill-opacity:1;fill-rule:nonzero;stroke:none"
             d="m 0,0 c -1.104,0 -2,-0.896 -2,-2 0,-1.104 0.896,-2 2,-2 1.104,0 2,0.896 2,2 0,1.104 -0.896,2 -2,2" /></g><g
           transform="translate(42,184)"
           id="g36"><path
             id="path38"
             style="fill:#ffffff;fill-opacity:1;fill-rule:nonzero;stroke:none"
             d="m 0,0 c -1.104,0 -2,-0.896 -2,-2 0,-1.104 0.896,-2 2,-2 1.104,0 2,0.896 2,2 0,1.104 -0.896,2 -2,2" /></g><g
           transform="translate(50,184)"
           id="g40"><path
             id="path42"
             style="fill:#ffffff;fill-opacity:1;fill-rule:nonzero;stroke:none"
             d="m 0,0 c -1.104,0 -2,-0.896 -2,-2 0,-1.104 0.896,-2 2,-2 1.104,0 2,0.896 2,2 0,1.104 -0.896,2 -2,2" /></g><g
           transform="translate(206,192)"
           id="g44"><path
             id="path46"
             style="fill:#ffffff;fill-opacity:1;fill-rule:nonzero;stroke:none"
             d="m 0,0 c -1.104,0 -2,-0.896 -2,-2 0,-1.104 0.896,-2 2,-2 1.104,0 2,0.896 2,2 0,1.104 -0.896,2 -2,2" /></g><g
           transform="translate(214,192)"
           id="g48"><path
             id="path50"
             style="fill:#ffffff;fill-opacity:1;fill-rule:nonzero;stroke:none"
             d="m 0,0 c -1.104,0 -2,-0.896 -2,-2 0,-1.104 0.896,-2 2,-2 1.104,0 2,0.896 2,2 0,1.104 -0.896,2 -2,2" /></g><g
           transform="translate(222,192)"
           id="g52"><path
             id="path54"
             style="fill:#ffffff;fill-opacity:1;fill-rule:nonzero;stroke:none"
             d="m 0,0 c -1.104,0 -2,-0.896 -2,-2 0,-1.104 0.896,-2 2,-2 1.104,0 2,0.896 2,2 0,1.104 -0.896,2 -2,2" /></g><g
           transform="translate(206,184)"
           id="g56"><path
             id="path58"
             style="fill:#ffffff;fill-opacity:1;fill-rule:nonzero;stroke:none"
             d="m 0,0 c -1.104,0 -2,-0.896 -2,-2 0,-1.104 0.896,-2 2,-2 1.104,0 2,0.896 2,2 0,1.104 -0.896,2 -2,2" /></g><g
           transform="translate(214,184)"
           id="g60"><path
             id="path62"
             style="fill:#ffffff;fill-opacity:1;fill-rule:nonzero;stroke:none"
             d="m 0,0 c -1.104,0 -2,-0.896 -2,-2 0,-1.104 0.896,-2 2,-2 1.104,0 2,0.896 2,2 0,1.104 -0.896,2 -2,2" /></g><g
           transform="translate(222,184)"
           id="g64"><path
             id="path66"
             style="fill:#ffffff;fill-opacity:1;fill-rule:nonzero;stroke:none"
             d="m 0,0 c -1.104,0 -2,-0.896 -2,-2 0,-1.104 0.896,-2 2,-2 1.104,0 2,0.896 2,2 0,1.104 -0.896,2 -2,2" /></g><g
           transform="translate(192,120)"
           id="g68"><path
             id="path70"
             style="fill:#ffffff;fill-opacity:1;fill-rule:nonzero;stroke:none"
             d="m 0,0 h -128 v -96 c 0,-2.209 1.791,-4 4,-4 H -4 c 2.209,0 4,1.791 4,4 z M -4,-96 H -124 V -4 H -4 Z" /></g><g
           transform="translate(232,248)"
           id="g72"><path
             id="path74"
             style="fill:#ffffff;fill-opacity:1;fill-rule:nonzero;stroke:none"
             d="m 0,0 h -208 c -6.617,0 -12,-5.383 -12,-12 v -98 c 0,-3.309 2.691,-6 6,-6 H 6 c 3.309,0 6,2.691 6,6 v 98 C 12,-5.383 6.617,0 0,0 m 0,-4 c 4.418,0 8,-3.582 8,-8 v -98 c 0,-1.104 -0.896,-2 -2,-2 h -220 c -1.104,0 -2,0.896 -2,2 v 98 c 0,4.418 3.582,8 8,8 H 0" /></g><g
           transform="translate(184,232)"
           id="g76"><path
             id="path78"
             style="fill:#ffffff;fill-opacity:1;fill-rule:nonzero;stroke:none"
             d="m 0,0 h -4 -104 -4 v -4 -80 -4 h 4 104 4 v 4 80 z M -4,-84 H -108 V -4 H -4 Z" /></g><g
           transform="translate(51,240)"
           id="g80"><path
             id="path82"
             style="fill:#ffffff;fill-opacity:1;fill-rule:nonzero;stroke:none"
             d="m 0,0 h -6 c -2.757,0 -5,-2.243 -5,-5 v -6 c 0,-2.757 2.243,-5 5,-5 h 6 c 2.757,0 5,2.243 5,5 v 6 C 5,-2.243 2.757,0 0,0 m 0,-4 c 0.552,0 1,-0.448 1,-1 v -6 c 0,-0.552 -0.448,-1 -1,-1 h -6 c -0.552,0 -1,0.448 -1,1 v 6 c 0,0.552 0.448,1 1,1 h 6" /></g><g
           transform="translate(51,152)"
           id="g84"><path
             id="path86"
             style="fill:#ffffff;fill-opacity:1;fill-rule:nonzero;stroke:none"
             d="m 0,0 h -6 c -2.757,0 -5,-2.243 -5,-5 v -6 c 0,-2.757 2.243,-5 5,-5 h 6 c 2.757,0 5,2.243 5,5 v 6 C 5,-2.243 2.757,0 0,0 m 0,-4 c 0.552,0 1,-0.448 1,-1 v -6 c 0,-0.552 -0.448,-1 -1,-1 h -6 c -0.552,0 -1,0.448 -1,1 v 6 c 0,0.552 0.448,1 1,1 h 6" /></g><g
           transform="translate(211,240)"
           id="g88"><path
             id="path90"
             style="fill:#ffffff;fill-opacity:1;fill-rule:nonzero;stroke:none"
             d="m 0,0 h -6 c -2.757,0 -5,-2.243 -5,-5 v -6 c 0,-2.757 2.243,-5 5,-5 h 6 c 2.757,0 5,2.243 5,5 v 6 C 5,-2.243 2.757,0 0,0 m 0,-4 c 0.553,0 1,-0.448 1,-1 v -6 c 0,-0.552 -0.447,-1 -1,-1 h -6 c -0.553,0 -1,0.448 -1,1 v 6 c 0,0.552 0.447,1 1,1 h 6" /></g><g
           transform="translate(211,152)"
           id="g92"><path
             id="path94"
             style="fill:#ffffff;fill-opacity:1;fill-rule:nonzero;stroke:none"
             d="m 0,0 h -6 c -2.757,0 -5,-2.243 -5,-5 v -6 c 0,-2.757 2.243,-5 5,-5 h 6 c 2.757,0 5,2.243 5,5 v 6 C 5,-2.243 2.757,0 0,0 m 0,-4 c 0.553,0 1,-0.448 1,-1 v -6 c 0,-0.552 -0.447,-1 -1,-1 h -6 c -0.553,0 -1,0.448 -1,1 v 6 c 0,0.552 0.447,1 1,1 h 6" /></g><g
           transform="translate(20,220)"
           id="g96"><path
             id="path98"
             style="fill:#ffffff;fill-opacity:1;fill-rule:nonzero;stroke:none"
             d="m 0,0 v 0 c -1.1,0 -2,0.9 -2,2 v 12 c 0,1.1 0.9,2 2,2 1.1,0 2,-0.9 2,-2 V 2 C 2,0.9 1.1,0 0,0" /></g><g
           transform="translate(236,220)"
           id="g100"><path
             id="path102"
             style="fill:#ffffff;fill-opacity:1;fill-rule:nonzero;stroke:none"
             d="m 0,0 v 0 c -1.1,0 -2,0.9 -2,2 v 12 c 0,1.1 0.9,2 2,2 1.1,0 2,-0.9 2,-2 V 2 C 2,0.9 1.1,0 0,0" /></g><path
           id="path104"
           style="fill:#ffffff;fill-opacity:1;fill-rule:nonzero;stroke:none"
           d="m 44,120 h -4 v 16 h 4 z" /><path
           id="path106"
           style="fill:#ffffff;fill-opacity:1;fill-rule:nonzero;stroke:none"
           d="m 212,120 h -4 v 16 h 4 z" /><g
           transform="translate(215,80.5)"
           id="g108"><path
             id="path110"
             style="fill:#ffffff;fill-opacity:1;fill-rule:nonzero;stroke:none"
             d="m 0,0 c -5.514,0 -10,-4.486 -10,-10 0,-5.514 4.486,-10 10,-10 5.514,0 10,4.486 10,10 C 10,-4.486 5.514,0 0,0 m 0,-4 c 3.309,0 6,-2.691 6,-6 0,-3.309 -2.691,-6 -6,-6 -3.309,0 -6,2.691 -6,6 0,3.309 2.691,6 6,6" /></g><g
           transform="translate(215,106.5)"
           id="g112"><path
             id="path114"
             style="fill:#ffffff;fill-opacity:1;fill-rule:nonzero;stroke:none"
             d="m 0,0 c -5.514,0 -10,-4.486 -10,-10 0,-5.514 4.486,-10 10,-10 5.514,0 10,4.486 10,10 C 10,-4.486 5.514,0 0,0 m 0,-4 c 3.309,0 6,-2.691 6,-6 0,-3.309 -2.691,-6 -6,-6 -3.309,0 -6,2.691 -6,6 0,3.309 2.691,6 6,6" /></g><g
           transform="translate(202,93.5)"
           id="g116"><path
             id="path118"
             style="fill:#ffffff;fill-opacity:1;fill-rule:nonzero;stroke:none"
             d="m 0,0 c -5.514,0 -10,-4.486 -10,-10 0,-5.514 4.486,-10 10,-10 5.514,0 10,4.486 10,10 C 10,-4.486 5.514,0 0,0 m 0,-4 c 3.309,0 6,-2.691 6,-6 0,-3.309 -2.691,-6 -6,-6 -3.309,0 -6,2.691 -6,6 0,3.309 2.691,6 6,6" /></g><g
           transform="translate(228,93.5)"
           id="g120"><path
             id="path122"
             style="fill:#ffffff;fill-opacity:1;fill-rule:nonzero;stroke:none"
             d="m 0,0 c -5.514,0 -10,-4.486 -10,-10 0,-5.514 4.486,-10 10,-10 5.514,0 10,4.486 10,10 C 10,-4.486 5.514,0 0,0 m 0,-4 c 3.309,0 6,-2.691 6,-6 0,-3.309 -2.691,-6 -6,-6 -3.309,0 -6,2.691 -6,6 0,3.309 2.691,6 6,6" /></g><path
           id="path124"
           style="fill:#ffffff;fill-opacity:1;fill-rule:nonzero;stroke:none"
           d="M 180,108 H 76 V 28 H 180 Z M 176,32 H 80 v 72 h 96 z" /><g
           transform="translate(197,50)"
           id="g126"><path
             id="path128"
             style="fill:#ffffff;fill-opacity:1;fill-rule:nonzero;stroke:none"
             d="m 0,0 c -3.859,0 -7,-3.141 -7,-7 0,-3.859 3.141,-7 7,-7 3.859,0 7,3.141 7,7 0,3.859 -3.141,7 -7,7 m 0,-4 c 1.657,0 3,-1.343 3,-3 0,-1.657 -1.343,-3 -3,-3 -1.657,0 -3,1.343 -3,3 0,1.657 1.343,3 3,3" /></g><g
           transform="translate(197,38)"
           id="g130"><path
             id="path132"
             style="fill:#ffffff;fill-opacity:1;fill-rule:nonzero;stroke:none"
             d="m 0,0 c -3.859,0 -7,-3.141 -7,-7 0,-3.859 3.141,-7 7,-7 3.859,0 7,3.141 7,7 0,3.859 -3.141,7 -7,7 m 0,-4 c 1.657,0 3,-1.343 3,-3 0,-1.657 -1.343,-3 -3,-3 -1.657,0 -3,1.343 -3,3 0,1.657 1.343,3 3,3" /></g><g
           transform="translate(45,99)"
           id="g134"><path
             id="path136"
             style="fill:#ffffff;fill-opacity:1;fill-rule:nonzero;stroke:none"
             d="m 0,0 h -6 c -3.309,0 -6,-2.691 -6,-6 v -4 h -4 c -3.309,0 -6,-2.691 -6,-6 v -6 c 0,-3.309 2.691,-6 6,-6 h 4 v -4 c 0,-3.309 2.691,-6 6,-6 h 6 c 3.309,0 6,2.691 6,6 v 4 h 4 c 3.309,0 6,2.691 6,6 v 6 c 0,3.309 -2.691,6 -6,6 H 6 v 4 C 6,-2.691 3.309,0 0,0 m 0,-4 c 1.103,0 2,-0.897 2,-2 v -8 h 8 c 1.103,0 2,-0.897 2,-2 v -6 c 0,-1.103 -0.897,-2 -2,-2 H 2 v -8 c 0,-1.103 -0.897,-2 -2,-2 h -6 c -1.103,0 -2,0.897 -2,2 v 8 h -8 c -1.103,0 -2,0.897 -2,2 v 6 c 0,1.103 0.897,2 2,2 h 8 v 8 c 0,1.103 0.897,2 2,2 h 6" /></g><g
           transform="translate(240,20)"
           id="g138"><path
             id="path140"
             style="fill:#ffffff;fill-opacity:1;fill-rule:nonzero;stroke:none"
             d="m 0,0 c 0,-4.418 -3.582,-8 -8,-8 h -208 c -4.418,0 -8,3.582 -8,8 v 106 c 0,0.234 0.048,0.455 0.122,0.664 0.642,-3.768 3.934,-6.664 7.878,-6.664 H -8 c 3.944,0 7.236,2.896 7.878,6.664 C -0.048,106.455 0,106.234 0,106 Z M -216,112 H -8 c 2.206,0 4,-1.794 4,-4 0,-2.206 -1.794,-4 -4,-4 h -208 c -2.206,0 -4,1.794 -4,4 0,2.206 1.794,4 4,4 M 0,111.65 c 0,0 -3.6,4.35 -8,4.35 h -208 c -4.4,0 -8,-4.35 -8,-4.35 -2.327,-0.826 -4,-3.044 -4,-5.65 V 0 c 0,-6.617 5.383,-12 12,-12 H -8 c 6.617,0 12,5.383 12,12 v 106 c 0,2.606 -1.674,4.824 -4,5.65" /></g></g></g></g></svg>