<?xml version="1.0" encoding="UTF-8" standalone="no"?>
<svg
   xmlns:dc="http://purl.org/dc/elements/1.1/"
   xmlns:cc="http://creativecommons.org/ns#"
   xmlns:rdf="http://www.w3.org/1999/02/22-rdf-syntax-ns#"
   xmlns:svg="http://www.w3.org/2000/svg"
   xmlns="http://www.w3.org/2000/svg"
   viewBox="0 0 320 160"
   height="160"
   width="320"
   xml:space="preserve"
   id="svg2"
   version="1.1"><metadata
     id="metadata8"><rdf:RDF><cc:Work
         rdf:about=""><dc:format>image/svg+xml</dc:format><dc:type
           rdf:resource="http://purl.org/dc/dcmitype/StillImage" /></cc:Work></rdf:RDF></metadata><defs
     id="defs6"><clipPath
       id="clipPath18"
       clipPathUnits="userSpaceOnUse"><path
         id="path16"
         d="M 0,256 H 256 V 0 H 0 Z" /></clipPath></defs><g
     transform="matrix(1.3333333,0,0,-1.3333333,-10.666666,250.66666)"
     id="g10"><g
       id="g12"><g
         clip-path="url(#clipPath18)"
         id="g14"><g
           transform="translate(12,180)"
           id="g20"><path
             id="path22"
             style="fill:#ffffff;fill-opacity:1;fill-rule:nonzero;stroke:none"
             d="m 0,0 c 0,2.209 1.791,4 4,4 h 224 c 2.209,0 4,-1.791 4,-4 z M 232,-8 H 0 v 4 h 232 z m 0,-92 c 0,-4.418 -3.582,-8 -8,-8 H 8 c -4.418,0 -8,3.582 -8,8 v 88 H 232 Z M 228,8 H 4 C -0.411,8 -4,4.411 -4,0 v -100 c 0,-6.617 5.383,-12 12,-12 h 216 c 6.617,0 12,5.383 12,12 V 0 c 0,4.411 -3.589,8 -8,8" /></g><g
           transform="translate(20,122)"
           id="g24"><path
             id="path26"
             style="fill:#ffffff;fill-opacity:1;fill-rule:nonzero;stroke:none"
             d="M 0,0 C 0,1.104 0.896,2 2,2 H 6 C 7.104,2 8,1.104 8,0 V -4 C 8,-5.104 7.104,-6 6,-6 H 2 c -1.104,0 -2,0.896 -2,2 z m 4,24 c 0,1.104 0.896,2 2,2 1.104,0 2,-0.896 2,-2 V 20 C 8,18.896 7.104,18 6,18 4.896,18 4,18.896 4,20 Z m 10,2 h 4 c 1.104,0 2,-0.896 2,-2 v -4 c 0,-1.104 -0.896,-2 -2,-2 h -4 c -1.104,0 -2,0.896 -2,2 v 4 c 0,1.104 0.896,2 2,2 m 12,0 h 4 c 1.104,0 2,-0.896 2,-2 v -4 c 0,-1.104 -0.896,-2 -2,-2 h -4 c -1.104,0 -2,0.896 -2,2 v 4 c 0,1.104 0.896,2 2,2 m 12,0 h 4 c 1.104,0 2,-0.896 2,-2 v -4 c 0,-1.104 -0.896,-2 -2,-2 h -4 c -1.104,0 -2,0.896 -2,2 v 4 c 0,1.104 0.896,2 2,2 m 12,0 h 4 c 1.104,0 2,-0.896 2,-2 v -4 c 0,-1.104 -0.896,-2 -2,-2 h -4 c -1.104,0 -2,0.896 -2,2 v 4 c 0,1.104 0.896,2 2,2 m 12,0 h 4 c 1.104,0 2,-0.896 2,-2 v -4 c 0,-1.104 -0.896,-2 -2,-2 h -4 c -1.104,0 -2,0.896 -2,2 v 4 c 0,1.104 0.896,2 2,2 m 12,0 h 4 c 1.104,0 2,-0.896 2,-2 v -4 c 0,-1.104 -0.896,-2 -2,-2 h -4 c -1.104,0 -2,0.896 -2,2 v 4 c 0,1.104 0.896,2 2,2 m 12,0 h 4 c 1.104,0 2,-0.896 2,-2 v -4 c 0,-1.104 -0.896,-2 -2,-2 h -4 c -1.104,0 -2,0.896 -2,2 v 4 c 0,1.104 0.896,2 2,2 m 12,0 h 4 c 1.104,0 2,-0.896 2,-2 v -4 c 0,-1.104 -0.896,-2 -2,-2 h -4 c -1.104,0 -2,0.896 -2,2 v 4 c 0,1.104 0.896,2 2,2 m 12,0 h 4 c 1.104,0 2,-0.896 2,-2 v -4 c 0,-1.104 -0.896,-2 -2,-2 h -4 c -1.104,0 -2,0.896 -2,2 v 4 c 0,1.104 0.896,2 2,2 m 12,0 h 4 c 1.104,0 2,-0.896 2,-2 v -4 c 0,-1.104 -0.896,-2 -2,-2 h -4 c -1.104,0 -2,0.896 -2,2 v 4 c 0,1.104 0.896,2 2,2 m 12,0 h 4 c 1.104,0 2,-0.896 2,-2 v -4 c 0,-1.104 -0.896,-2 -2,-2 h -4 c -1.104,0 -2,0.896 -2,2 v 4 c 0,1.104 0.896,2 2,2 m 12,0 h 4 c 1.104,0 2,-0.896 2,-2 v -4 c 0,-1.104 -0.896,-2 -2,-2 h -4 c -1.104,0 -2,0.896 -2,2 v 4 c 0,1.104 0.896,2 2,2 m 12,0 h 4 c 1.104,0 2,-0.896 2,-2 v -4 c 0,-1.104 -0.896,-2 -2,-2 h -4 c -1.104,0 -2,0.896 -2,2 v 4 c 0,1.104 0.896,2 2,2 m 12,0 h 4 c 1.104,0 2,-0.896 2,-2 v -4 c 0,-1.104 -0.896,-2 -2,-2 h -4 c -1.104,0 -2,0.896 -2,2 v 4 c 0,1.104 0.896,2 2,2 m 6,-18 c 0,-1.104 -0.896,-2 -2,-2 h -4 -4 c -1.104,0 -2,0.896 -2,2 v 4 c 0,1.104 0.896,2 2,2 h 4 4 c 1.104,0 2,-0.896 2,-2 z m -4,-24 c 0,-1.104 -0.896,-2 -2,-2 h -4 c -1.104,0 -2,0.896 -2,2 v 4 c 0,1.104 0.896,2 2,2 h 4 c 1.104,0 2,-0.896 2,-2 z m -14,-2 h -4 c -1.104,0 -2,0.896 -2,2 v 4 c 0,1.104 0.896,2 2,2 h 4 c 1.104,0 2,-0.896 2,-2 v -4 c 0,-1.104 -0.896,-2 -2,-2 m -12,0 h -8 c -1.104,0 -2,0.896 -2,2 v 4 c 0,1.104 0.896,2 2,2 h 8 c 1.104,0 2,-0.896 2,-2 v -4 c 0,-1.104 -0.896,-2 -2,-2 m -16,0 h -4 c -1.104,0 -2,0.896 -2,2 v 4 c 0,1.104 0.896,2 2,2 h 4 c 1.104,0 2,-0.896 2,-2 v -4 c 0,-1.104 -0.896,-2 -2,-2 m -2,-10 c 0,-1.104 -0.896,-2 -2,-2 H 30 c -1.104,0 -2,0.896 -2,2 v 4 c 0,1.104 0.896,2 2,2 h 4 8 4 8 4 8 4 8 4 8 4 8 4 8 4 8 c 1.104,0 2,-0.896 2,-2 z M 22,-18 h -8 c -1.104,0 -2,0.896 -2,2 v 4 c 0,1.104 0.896,2 2,2 h 4 4 c 1.104,0 2,-0.896 2,-2 v -4 c 0,-1.104 -0.896,-2 -2,-2 M 12,0 c 0,1.104 0.896,2 2,2 h 4 c 1.104,0 2,-0.896 2,-2 v -4 c 0,-1.104 -0.896,-2 -2,-2 h -4 c -1.104,0 -2,0.896 -2,2 z M 28,12 V 8 C 28,6.896 27.104,6 26,6 h -4 c -1.104,0 -2,0.896 -2,2 v 4 c 0,1.104 0.896,2 2,2 h 4 c 1.104,0 2,-0.896 2,-2 m 12,0 V 8 C 40,6.896 39.104,6 38,6 h -4 c -1.104,0 -2,0.896 -2,2 v 4 c 0,1.104 0.896,2 2,2 h 4 c 1.104,0 2,-0.896 2,-2 m 12,0 V 8 C 52,6.896 51.104,6 50,6 h -4 c -1.104,0 -2,0.896 -2,2 v 4 c 0,1.104 0.896,2 2,2 h 4 c 1.104,0 2,-0.896 2,-2 m 12,0 V 8 C 64,6.896 63.104,6 62,6 h -4 c -1.104,0 -2,0.896 -2,2 v 4 c 0,1.104 0.896,2 2,2 h 4 c 1.104,0 2,-0.896 2,-2 m 12,0 V 8 C 76,6.896 75.104,6 74,6 h -4 c -1.104,0 -2,0.896 -2,2 v 4 c 0,1.104 0.896,2 2,2 h 4 c 1.104,0 2,-0.896 2,-2 m 12,0 V 8 C 88,6.896 87.104,6 86,6 h -4 c -1.104,0 -2,0.896 -2,2 v 4 c 0,1.104 0.896,2 2,2 h 4 c 1.104,0 2,-0.896 2,-2 m 12,0 V 8 C 100,6.896 99.104,6 98,6 h -4 c -1.104,0 -2,0.896 -2,2 v 4 c 0,1.104 0.896,2 2,2 h 4 c 1.104,0 2,-0.896 2,-2 m 12,0 V 8 c 0,-1.104 -0.896,-2 -2,-2 h -4 c -1.104,0 -2,0.896 -2,2 v 4 c 0,1.104 0.896,2 2,2 h 4 c 1.104,0 2,-0.896 2,-2 m 12,0 V 8 c 0,-1.104 -0.896,-2 -2,-2 h -4 c -1.104,0 -2,0.896 -2,2 v 4 c 0,1.104 0.896,2 2,2 h 4 c 1.104,0 2,-0.896 2,-2 m 12,0 V 8 c 0,-1.104 -0.896,-2 -2,-2 h -4 c -1.104,0 -2,0.896 -2,2 v 4 c 0,1.104 0.896,2 2,2 h 4 c 1.104,0 2,-0.896 2,-2 m 12,0 V 8 c 0,-1.104 -0.896,-2 -2,-2 h -4 c -1.104,0 -2,0.896 -2,2 v 4 c 0,1.104 0.896,2 2,2 h 4 c 1.104,0 2,-0.896 2,-2 m 12,0 V 8 c 0,-1.104 -0.896,-2 -2,-2 h -4 c -1.104,0 -2,0.896 -2,2 v 4 c 0,1.104 0.896,2 2,2 h 4 c 1.104,0 2,-0.896 2,-2 M 144,-4 v 4 c 0,1.104 0.896,2 2,2 h 4 c 1.104,0 2,-0.896 2,-2 v -4 c 0,-1.104 -0.896,-2 -2,-2 h -4 c -1.104,0 -2,0.896 -2,2 m -10,-2 c -1.104,0 -2,0.896 -2,2 v 4 c 0,1.104 0.896,2 2,2 h 4 c 1.104,0 2,-0.896 2,-2 v -4 c 0,-1.104 -0.896,-2 -2,-2 z m -12,0 c -1.104,0 -2,0.896 -2,2 v 4 c 0,1.104 0.896,2 2,2 h 4 c 1.104,0 2,-0.896 2,-2 v -4 c 0,-1.104 -0.896,-2 -2,-2 z m -10,-10 v 4 c 0,1.104 0.896,2 2,2 h 4 c 1.104,0 2,-0.896 2,-2 v -4 c 0,-1.104 -0.896,-2 -2,-2 h -4 c -1.104,0 -2,0.896 -2,2 m -12,0 v 4 c 0,1.104 0.896,2 2,2 h 4 c 1.104,0 2,-0.896 2,-2 v -4 c 0,-1.104 -0.896,-2 -2,-2 h -4 c -1.104,0 -2,0.896 -2,2 m -12,0 v 4 c 0,1.104 0.896,2 2,2 h 4 c 1.104,0 2,-0.896 2,-2 v -4 c 0,-1.104 -0.896,-2 -2,-2 h -4 c -1.104,0 -2,0.896 -2,2 m -12,0 v 4 c 0,1.104 0.896,2 2,2 h 4 c 1.104,0 2,-0.896 2,-2 v -4 c 0,-1.104 -0.896,-2 -2,-2 h -4 c -1.104,0 -2,0.896 -2,2 m -12,0 v 4 c 0,1.104 0.896,2 2,2 h 4 c 1.104,0 2,-0.896 2,-2 v -4 c 0,-1.104 -0.896,-2 -2,-2 h -4 c -1.104,0 -2,0.896 -2,2 m -12,0 v 4 c 0,1.104 0.896,2 2,2 h 4 c 1.104,0 2,-0.896 2,-2 v -4 c 0,-1.104 -0.896,-2 -2,-2 h -4 c -1.104,0 -2,0.896 -2,2 m -12,0 v 4 c 0,1.104 0.896,2 2,2 h 4 c 1.104,0 2,-0.896 2,-2 v -4 c 0,-1.104 -0.896,-2 -2,-2 h -4 c -1.104,0 -2,0.896 -2,2 m -12,0 v 4 c 0,1.104 0.896,2 2,2 h 4 c 1.104,0 2,-0.896 2,-2 v -4 c 0,-1.104 -0.896,-2 -2,-2 h -4 c -1.104,0 -2,0.896 -2,2 m 2,18 c 1.104,0 2,-0.896 2,-2 v -4 c 0,-1.104 -0.896,-2 -2,-2 h -4 c -1.104,0 -2,0.896 -2,2 v 4 c 0,1.104 0.896,2 2,2 z m 12,0 c 1.104,0 2,-0.896 2,-2 v -4 c 0,-1.104 -0.896,-2 -2,-2 h -4 c -1.104,0 -2,0.896 -2,2 v 4 c 0,1.104 0.896,2 2,2 z m 12,0 c 1.104,0 2,-0.896 2,-2 v -4 c 0,-1.104 -0.896,-2 -2,-2 h -4 c -1.104,0 -2,0.896 -2,2 v 4 c 0,1.104 0.896,2 2,2 z m 12,0 c 1.104,0 2,-0.896 2,-2 v -4 c 0,-1.104 -0.896,-2 -2,-2 h -4 c -1.104,0 -2,0.896 -2,2 v 4 c 0,1.104 0.896,2 2,2 z m 12,0 c 1.104,0 2,-0.896 2,-2 v -4 c 0,-1.104 -0.896,-2 -2,-2 h -4 c -1.104,0 -2,0.896 -2,2 v 4 c 0,1.104 0.896,2 2,2 z m 12,0 c 1.104,0 2,-0.896 2,-2 v -4 c 0,-1.104 -0.896,-2 -2,-2 h -4 c -1.104,0 -2,0.896 -2,2 v 4 c 0,1.104 0.896,2 2,2 z m 12,0 c 1.104,0 2,-0.896 2,-2 v -4 c 0,-1.104 -0.896,-2 -2,-2 h -4 c -1.104,0 -2,0.896 -2,2 v 4 c 0,1.104 0.896,2 2,2 z m 12,0 c 1.104,0 2,-0.896 2,-2 v -4 c 0,-1.104 -0.896,-2 -2,-2 h -4 c -1.104,0 -2,0.896 -2,2 v 4 c 0,1.104 0.896,2 2,2 z m 58,-2 v -4 c 0,-1.104 -0.896,-2 -2,-2 h -4 -8 c -1.104,0 -2,0.896 -2,2 v 4 c 0,1.104 0.896,2 2,2 h 8 4 c 1.104,0 2,-0.896 2,-2 M 4,8 v 4 c 0,1.104 0.896,2 2,2 h 8 c 1.104,0 2,-0.896 2,-2 V 8 C 16,6.896 15.104,6 14,6 H 6 C 4.896,6 4,6.896 4,8 M 6,-18 H 2 c -1.104,0 -2,0.896 -2,2 v 4 c 0,1.104 0.896,2 2,2 h 4 c 1.104,0 2,-0.896 2,-2 v -4 c 0,-1.104 -0.896,-2 -2,-2 m -4,-4 h 4 c 1.538,0 2.937,0.586 4,1.541 1.063,-0.955 2.462,-1.541 4,-1.541 h 8 c 0.933,0 1.813,0.221 2.602,0.602 C 24.22,-22.187 24,-23.067 24,-24 v -4 c 0,-3.309 2.691,-6 6,-6 h 96 c 3.309,0 6,2.691 6,6 v 4 c 0,0.783 -0.155,1.529 -0.429,2.216 0.915,0.249 1.742,0.708 2.429,1.325 1.062,-0.955 2.463,-1.541 4,-1.541 h 8 c 1.537,0 2.937,0.586 4,1.541 1.062,-0.955 2.463,-1.541 4,-1.541 h 4 c 1.537,0 2.937,0.586 4,1.541 1.062,-0.955 2.463,-1.541 4,-1.541 h 4 c 3.309,0 6,2.691 6,6 v 4 c 0,1.537 -0.586,2.937 -1.541,4 0.955,1.063 1.541,2.463 1.541,4 v 4 c 0,0.783 -0.155,1.529 -0.429,2.216 C 178.118,2.908 180,5.236 180,8 v 4 c 0,1.538 -0.586,2.937 -1.541,4 0.955,1.063 1.541,2.462 1.541,4 v 4 c 0,3.309 -2.691,6 -6,6 h -4 c -1.537,0 -2.938,-0.586 -4,-1.541 -1.063,0.955 -2.463,1.541 -4,1.541 h -4 c -1.537,0 -2.938,-0.586 -4,-1.541 -1.063,0.955 -2.463,1.541 -4,1.541 h -4 c -1.537,0 -2.938,-0.586 -4,-1.541 -1.063,0.955 -2.463,1.541 -4,1.541 h -4 c -1.537,0 -2.938,-0.586 -4,-1.541 -1.063,0.955 -2.463,1.541 -4,1.541 h -4 c -1.537,0 -2.937,-0.586 -4,-1.541 -1.062,0.955 -2.463,1.541 -4,1.541 h -4 c -1.538,0 -2.937,-0.586 -4,-1.541 C 104.937,29.414 103.538,30 102,30 H 98 C 96.462,30 95.063,29.414 94,28.459 92.937,29.414 91.538,30 90,30 H 86 C 84.462,30 83.063,29.414 82,28.459 80.937,29.414 79.538,30 78,30 H 74 C 72.462,30 71.063,29.414 70,28.459 68.937,29.414 67.538,30 66,30 H 62 C 60.462,30 59.063,29.414 58,28.459 56.937,29.414 55.538,30 54,30 H 50 C 48.462,30 47.063,29.414 46,28.459 44.937,29.414 43.538,30 42,30 H 38 C 36.462,30 35.063,29.414 34,28.459 32.937,29.414 31.538,30 30,30 H 26 C 24.462,30 23.063,29.414 22,28.459 20.937,29.414 19.538,30 18,30 H 14 C 12.462,30 11.063,29.414 10,28.459 8.937,29.414 7.538,30 6,30 2.691,30 0,27.309 0,24 V 20 C 0,18.462 0.586,17.063 1.541,16 0.586,14.937 0,13.538 0,12 V 8 C 0,7.217 0.155,6.471 0.429,5.784 -2.119,5.091 -4,2.764 -4,0 v -4 c 0,-1.537 0.586,-2.937 1.541,-4 C -3.414,-9.063 -4,-10.463 -4,-12 v -4 c 0,-3.309 2.691,-6 6,-6" /></g><g
           transform="translate(208,146)"
           id="g28"><path
             id="path30"
             style="fill:#ffffff;fill-opacity:1;fill-rule:nonzero;stroke:none"
             d="m 0,0 c 0,1.104 0.896,2 2,2 h 12 c 1.104,0 2,-0.896 2,-2 v -4 c 0,-1.104 -0.896,-2 -2,-2 H 2 c -1.104,0 -2,0.896 -2,2 z m 0,-16 v 4 c 0,1.104 0.896,2 2,2 h 12 c 1.104,0 2,-0.896 2,-2 v -4 c 0,-1.104 -0.896,-2 -2,-2 H 2 c -1.104,0 -2,0.896 -2,2 m 0,-12 v 4 c 0,1.104 0.896,2 2,2 h 12 c 1.104,0 2,-0.896 2,-2 v -4 c 0,-1.104 -0.896,-2 -2,-2 H 2 c -1.104,0 -2,0.896 -2,2 m 16,-12 c 0,-1.104 -0.896,-2 -2,-2 H 2 c -1.104,0 -2,0.896 -2,2 v 4 c 0,1.104 0.896,2 2,2 h 12 c 1.104,0 2,-0.896 2,-2 z M 2,-46 h 12 c 3.309,0 6,2.691 6,6 v 4 c 0,1.537 -0.586,2.937 -1.541,4 0.955,1.063 1.541,2.463 1.541,4 v 4 c 0,1.537 -0.586,2.938 -1.541,4 0.955,1.063 1.541,2.462 1.541,4 v 4 c 0,1.538 -0.586,2.937 -1.541,4 0.955,1.063 1.541,2.462 1.541,4 v 4 c 0,3.309 -2.691,6 -6,6 H 2 C -1.309,6 -4,3.309 -4,0 v -4 c 0,-1.538 0.586,-2.937 1.541,-4 C -3.414,-9.063 -4,-10.462 -4,-12 v -4 c 0,-1.538 0.586,-2.937 1.541,-4 C -3.414,-21.062 -4,-22.463 -4,-24 v -4 c 0,-1.537 0.586,-2.937 1.541,-4 C -3.414,-33.063 -4,-34.463 -4,-36 v -4 c 0,-3.309 2.691,-6 6,-6" /></g></g></g></g></svg>