<?xml version="1.0" encoding="utf-8"?>
<!-- Generator: Adobe Illustrator 25.0.0, SVG Export Plug-In . SVG Version: 6.00 Build 0)  -->
<svg version="1.1" id="Layer_1" xmlns="http://www.w3.org/2000/svg" xmlns:xlink="http://www.w3.org/1999/xlink" x="0px" y="0px"
	 viewBox="0 0 3840 1533.8" style="enable-background:new 0 0 3840 1533.8;" xml:space="preserve">
<style type="text/css">
	.st0{fill:#30308F;}
	.st1{fill:#00968C;}
	.st2{fill:#DFB10A;}
	.st3{fill:#4F549D;}
	.st4{fill:#BD0547;}
	.st5{fill:#7AAC3B;}
	.st6{fill:#C6C6C6;}
	.st7{fill:#FFFFFF;}
	.st8{fill:#383C70;}
	.st9{fill:#696FD0;}
	.st10{fill:#B28D08;}
	.st11{fill:#FFCA0B;}
	.st12{fill:#5A7F2B;}
	.st13{fill:#9EDF4D;}
	.st14{fill:none;stroke:#231F20;stroke-width:2.7824;stroke-miterlimit:10;}
	.st15{fill:#006962;}
	.st16{fill:#00C9BC;}
	.st17{fill:#900436;}
	.st18{fill:#F0065A;}
	.st19{fill:none;stroke:#231F20;stroke-width:2.792;stroke-miterlimit:10;}
</style>
<g>
	<path id="path4493_9_" class="st0" d="M3681.3,576h-27.7v-16.7h73.5V576h-28.1v92.4h-17.8V576z"/>
	<path id="path4497_9_" class="st0" d="M3820.8,623.9c-0.5-14.1-1.3-31.1-1.1-45.8h-0.5c-3.2,13.3-7.2,28-11.5,41.7l-14.3,47.3
		h-13.6l-13-46.6c-3.8-13.9-7.2-28.8-9.8-42.4h-0.3c-0.5,14.2-1,31.5-1.8,46.5l-2.2,43.8h-16.6l6.5-109.1h23.4l12.7,43.8
		c3.4,12.8,6.5,25.8,8.9,37.9h0.5c2.6-11.9,5.9-25.3,9.7-38.1l13.4-43.7h23.1l5.7,109.1h-17.3L3820.8,623.9z"/>
	<g>
		<path class="st0" d="M821.6,347.6l-24.5-126.3l-56.4,126.3H821.6 M1707.5,668.4h-133.6L1556,265.9l-173.8,402.5h-89.1l-74.3-363.8
			l-115.8,363.8H875.8l-34.2-194.5H687.2l-87.6,194.5H460L746.6,17.9h164.8l87.6,525.7l170.8-525.7h132.2l65.3,356.4l151.5-356.4
			h160.4L1707.5,668.4"/>
		<polyline class="st0" points="2090.7,668.4 2113,528.8 1879.8,528.8 1898.3,413 2101.1,413 2123.4,273.3 1918.4,273.3 
			1936.2,157.5 2169.4,157.5 2191.7,17.9 1821.9,17.9 1717.9,668.4 2090.7,668.4 		"/>
		<polyline class="st0" points="3826.8,17.9 3670.9,17.9 3538.7,230.3 3455.5,17.9 3302.6,17.9 3460,360.9 3411.5,668.4 
			3545.2,668.4 3586.2,396.6 3826.8,17.9 		"/>
		<path class="st0" d="M3033.2,544.5c70.7,31.6,157.3-30.4,193.3-138.6c36.1-108.2,8-221.6-62.7-253.3
			c-70.7-31.6-157.2,30.5-193.3,138.6C2934.4,399.6,2962.5,512.9,3033.2,544.5 M2830.9,287.2c41.5-179.8,195.2-297.9,343.4-263.6
			c148.1,34.2,234.5,207.8,193.1,387.6C3325.8,590.9,3172.1,709,3024,674.7C2875.8,640.5,2789.4,467,2830.9,287.2"/>
		<path class="st0" d="M174.9,75.8C47.5,154.6-13.7,274.9,2.6,438.2c18.9,189.5,264.4,308.9,472.3,188.7
			c18.2-10.6,11.1-8.9,17.8-14.9l41.6-264.3h-248l-19,121.7h103.6L359,534.7c-59.4,23.8-160.4,14.9-203.5-62.4
			C128.3,423.5,103,314.3,218,213.9c93.5-81.7,255.4-96.5,349-53.4c0,0,11.9-68.4,20.8-132.2C408-34.1,268.4,17.9,174.9,75.8"/>
		<path class="st0" d="M2395.1,21.6l-103.2,645.5c0,0,213.7,0,300.7,0c123.8,0,304.9-182.5,140-331.6
			c169.5-175.4,1.5-312.4-88.4-313.9c-72.2-1.2-250.6,0-250.6,0H2395.1 M2468.8,412.1c0,0,28,0,112,0
			c106.1,0,103.2,129.7-14.7,129.7c-73.7,0-117.9,0-117.9,0L2468.8,412.1 M2510.1,158.6c0,0,2.9,0,87,0
			c94.3,0,75.2,120.9-14.7,120.9c-73.7,0-92.9,0-92.9,0L2510.1,158.6"/>
	</g>
	<g>
		<path class="st1" d="M3198.9,1393.8c-4.3-6.2-9.5-11.7-15.2-16.6c-26.8-23-128.9-110.2-205.5-172.9c59.7-32.6,88.4-55,88.4-55
			s83-55,100.7-139.3c13.5-80.8-1.7-123-118.4-180.3c-92.7-45.5-286.1-86.1-389,57.6c-23.8,33.1-23.8,84.4-13.9,110.5
			c23.2,61,43.1,109.3,38.9,342.9c-0.5,28.4-20.1,40.4-22.4,68.3c-2.5,30.1,8.2,109.6,92.7,113.1c72.7,3,85.4-59.5,85.4-85.3
			c0-42.7,0-119.9,0-119.9s196.9,165.3,230.8,194.2c18.3,15.6,41.9,24.4,65.9,22.3c18.2-1.6,39.2-9.2,59.6-29.4
			C3238.6,1462.9,3213.7,1414.9,3198.9,1393.8z M2840.2,1082.4l0.4-135.4H2943c47.1,0,72.7,55.7,41.4,90.9
			C2962.6,1062.5,2920.2,1082.4,2840.2,1082.4z"/>
		<path class="st2" d="M2405.2,906.9c-190.2-1-343.3,107.8-342.5,310c0.7,170.1,94.5,294.8,274.9,289.4
			c134.5-4.1,351.5-122,351.5-308.8C2689.1,1040.8,2587.6,907.8,2405.2,906.9z M2529.8,1197.4c-7.9,74.8-84.1,135.6-170.1,135.6
			c-86,0.1-149.3-60.6-141.4-135.4c7.9-74.8,84.1-135.6,170.1-135.6C2474.4,1061.9,2537.7,1122.5,2529.8,1197.4z"/>
		<path class="st3" d="M1463,888.4c-169.8-5.6-334.7,144.1-354.3,314.2c-22.8,197.5,104.8,301.1,276.2,304.5
			c194.5,3.9,330.1-120.9,345.4-291.4C1745.5,1047.1,1632.9,894,1463,888.4z M1402.5,1349.8c-76.4,0-127.5-67.8-114.3-151.3
			c13.2-83.6,85.9-151.3,162.2-151.3s111.1,74.9,109.2,159.6C1556.9,1324,1478.8,1349.8,1402.5,1349.8z"/>
		<path class="st4" d="M981.1,922.5c12.7-3.1,25,4.5,29.2,16.8c18.6,54.7,93.5,82.6,143.2,36.3c18-16.8,23.6-38.6,28-84.8
			c11.5-119.6-211.4-178.2-329.6-89.4c-81.7,61.3-248.9,241.2-244.9,454.9c-1.7,58.8,15.7,101.6,15.7,101.6S653.2,1463.5,759,1505
			c64.3,26.6,161.3,21.8,161.3,21.8s182.3,0.1,182.8,0.1c72,0,137.2-177.1-45.8-161.8c-77,6.4-301.9,64.8-297.3-129.9
			C763.4,1078.8,912.9,939,981.1,922.5z"/>
		<path class="st5" d="M1877.2,1327.5l-8.2-315.4c-0.4-15.2-1.6-30.3-3.6-45.4c-5.4-40.7-18.1-118.2-40.1-148.5
			c-36.8-50.7-113.7-53-138.4-3.9c-16.8,33.4-14.6,90.3,11.8,157.8c13.4,34.2,20.3,70.7,22.2,107.4c0,0,14.8,237.6,19.8,316.7
			c2.2,34.6-11,114.1,34.3,130.7c69.1,25.3,182.3-70.3,318.9-74.3c78.8-2.3,127.3-219.2-118.9-160.5
			C1920.5,1305,1877.2,1327.5,1877.2,1327.5z"/>
	</g>
</g>
</svg>
