<?xml version="1.0" encoding="UTF-8" standalone="no"?>
<svg
   xmlns:dc="http://purl.org/dc/elements/1.1/"
   xmlns:cc="http://creativecommons.org/ns#"
   xmlns:rdf="http://www.w3.org/1999/02/22-rdf-syntax-ns#"
   xmlns:svg="http://www.w3.org/2000/svg"
   xmlns="http://www.w3.org/2000/svg"
   viewBox="0 0 320 266.66665"
   height="266.66666"
   width="320"
   xml:space="preserve"
   id="svg2"
   version="1.1"><metadata
     id="metadata8"><rdf:RDF><cc:Work
         rdf:about=""><dc:format>image/svg+xml</dc:format><dc:type
           rdf:resource="http://purl.org/dc/dcmitype/StillImage" /></cc:Work></rdf:RDF></metadata><defs
     id="defs6"><clipPath
       id="clipPath58"
       clipPathUnits="userSpaceOnUse"><path
         id="path56"
         d="M 0,256 H 256 V 0 H 0 Z" /></clipPath></defs><g
     transform="matrix(1.3333333,0,0,-1.3333333,-10.666666,309.33333)"
     id="g10"><path
       id="path12"
       style="fill:#ffffff;fill-opacity:1;fill-rule:nonzero;stroke:none"
       d="m 56,128 h -4 v -24 h 4 z" /><path
       id="path14"
       style="fill:#ffffff;fill-opacity:1;fill-rule:nonzero;stroke:none"
       d="m 64,128 h -4 v -24 h 4 z" /><path
       id="path16"
       style="fill:#ffffff;fill-opacity:1;fill-rule:nonzero;stroke:none"
       d="m 72,128 h -4 v -24 h 4 z" /><path
       id="path18"
       style="fill:#ffffff;fill-opacity:1;fill-rule:nonzero;stroke:none"
       d="m 80,128 h -4 v -24 h 4 z" /><path
       id="path20"
       style="fill:#ffffff;fill-opacity:1;fill-rule:nonzero;stroke:none"
       d="m 88,128 h -4 v -24 h 4 z" /><path
       id="path22"
       style="fill:#ffffff;fill-opacity:1;fill-rule:nonzero;stroke:none"
       d="m 96,128 h -4 v -24 h 4 z" /><path
       id="path24"
       style="fill:#ffffff;fill-opacity:1;fill-rule:nonzero;stroke:none"
       d="m 104,128 h -4 v -24 h 4 z" /><path
       id="path26"
       style="fill:#ffffff;fill-opacity:1;fill-rule:nonzero;stroke:none"
       d="m 112,128 h -4 v -24 h 4 z" /><path
       id="path28"
       style="fill:#ffffff;fill-opacity:1;fill-rule:nonzero;stroke:none"
       d="m 120,128 h -4 v -24 h 4 z" /><path
       id="path30"
       style="fill:#ffffff;fill-opacity:1;fill-rule:nonzero;stroke:none"
       d="m 128,128 h -4 v -24 h 4 z" /><path
       id="path32"
       style="fill:#ffffff;fill-opacity:1;fill-rule:nonzero;stroke:none"
       d="m 136,128 h -4 v -24 h 4 z" /><path
       id="path34"
       style="fill:#ffffff;fill-opacity:1;fill-rule:nonzero;stroke:none"
       d="m 144,128 h -4 v -24 h 4 z" /><path
       id="path36"
       style="fill:#ffffff;fill-opacity:1;fill-rule:nonzero;stroke:none"
       d="m 152,128 h -4 v -24 h 4 z" /><path
       id="path38"
       style="fill:#ffffff;fill-opacity:1;fill-rule:nonzero;stroke:none"
       d="m 160,128 h -4 v -24 h 4 z" /><path
       id="path40"
       style="fill:#ffffff;fill-opacity:1;fill-rule:nonzero;stroke:none"
       d="m 168,128 h -4 v -24 h 4 z" /><path
       id="path42"
       style="fill:#ffffff;fill-opacity:1;fill-rule:nonzero;stroke:none"
       d="m 176,128 h -4 v -24 h 4 z" /><path
       id="path44"
       style="fill:#ffffff;fill-opacity:1;fill-rule:nonzero;stroke:none"
       d="m 184,128 h -4 v -24 h 4 z" /><path
       id="path46"
       style="fill:#ffffff;fill-opacity:1;fill-rule:nonzero;stroke:none"
       d="m 192,128 h -4 v -24 h 4 z" /><path
       id="path48"
       style="fill:#ffffff;fill-opacity:1;fill-rule:nonzero;stroke:none"
       d="m 200,128 h -4 v -24 h 4 z" /><path
       id="path50"
       style="fill:#ffffff;fill-opacity:1;fill-rule:nonzero;stroke:none"
       d="m 208,128 h -4 v -24 h 4 z" /><g
       id="g52"><g
         clip-path="url(#clipPath58)"
         id="g54"><g
           transform="translate(244,60)"
           id="g60"><path
             id="path62"
             style="fill:#ffffff;fill-opacity:1;fill-rule:nonzero;stroke:none"
             d="m 0,0 h -232 v 160 h 32 V 40 h -4 V 36 12 c 0,-4.411 3.589,-8 8,-8 h 164 c 4.411,0 8,3.589 8,8 v 24 4 h -4 V 160 H 0 Z m 0,-24 h -4 v 4 4 c 0,4.411 -3.589,8 -8,8 h -4 -60 -4 -60 -4 c -4.411,0 -8,-3.589 -8,-8 v -4 -4 h -8 v 8 h -4 v -8 h -4 v 8 h -4 v -8 h -4 v 8 h -4 v -8 h -4 v 8 h -4 v -8 h -4 v 8 h -4 v -8 h -4 v 8 h -4 v -8 h -4 v 8 h -4 v -8 h -4 v 8 h -4 v -8 h -12 V -4 H 0 Z m -140,12 h 60 v -4 h -60 z m 64,0 h 60 v -4 h -60 z m -72,-12 v 4 4 c 0,2.209 1.791,4 4,4 v -4 -4 h 4 60 4 60 4 v 4 4 c 2.209,0 4,-1.791 4,-4 v -4 -4 z M -28,36 V 12 c 0,-2.209 -1.791,-4 -4,-4 h -164 c -2.209,0 -4,1.791 -4,4 v 24 h 4 164 z m -4,4 H -196 V 168 H -32 Z M 0,164 h -28 v 4 4 h -4 -164 -4 v -4 -4 h -32 -4 v -4 -184 -4 h 4 80 4 140 4 4 4 v 4 184 4 z" /></g></g></g></g></svg>