<?xml version="1.0" encoding="UTF-8" standalone="no"?>
<svg
   xmlns:dc="http://purl.org/dc/elements/1.1/"
   xmlns:cc="http://creativecommons.org/ns#"
   xmlns:rdf="http://www.w3.org/1999/02/22-rdf-syntax-ns#"
   xmlns:svg="http://www.w3.org/2000/svg"
   xmlns="http://www.w3.org/2000/svg"
   viewBox="0 0 320 240"
   height="240"
   width="320"
   xml:space="preserve"
   id="svg2"
   version="1.1"><metadata
     id="metadata8"><rdf:RDF><cc:Work
         rdf:about=""><dc:format>image/svg+xml</dc:format><dc:type
           rdf:resource="http://purl.org/dc/dcmitype/StillImage" /></cc:Work></rdf:RDF></metadata><defs
     id="defs6" /><g
     transform="matrix(1.3333333,0,0,-1.3333333,-10.666666,287.99999)"
     id="g10"><g
       transform="translate(244,116.916)"
       id="g12"><path
         id="path14"
         style="fill:#ffffff;fill-opacity:1;fill-rule:nonzero;stroke:none"
         d="m 0,0 -25.675,18.339 -1.043,0.745 H -28 v 16 4 56 H 0 Z m -16,-4.916 h -4 -16 -4 -4 -4 -4 -4 -8 -4 -8 -4 -8 -4 -8 -4 -8 -4 -8 -4 -8 -4 -8 -4 -8 -4 -8 -4 -8 -4 -8 -4 -8 -4 -20 l 28,20 4,-16 h 164 l 4,16 h 4 l 28,-20 z m -20,-52 h 16 v -8 h -16 z m 16,4 h -16 v 8 h 16 z m 0,12 h -16 v 8 h 16 z m 0,12 h -16 v 8 h 16 z m 0,12 h -16 v 8 h 16 z m -180,0 h -8 v 8 h 8 z m 12,0 h -4 -4 v 8 h 8 z m 12,0 h -4 -4 v 8 h 8 z m 12,0 h -4 -4 v 8 h 8 z m 12,0 h -4 -4 v 8 h 8 z m 12,0 h -4 -4 v 8 h 8 z m 12,0 h -4 -4 v 8 h 8 z m 12,0 h -4 -4 v 8 h 8 z m 12,0 h -4 -4 v 8 h 8 z m 12,0 h -4 -4 v 8 h 8 z m 12,0 h -4 -4 v 8 h 8 z m 12,0 h -4 -4 v 8 h 8 z m 12,0 h -4 -4 v 8 h 8 z m -4,-4 h 4 4 4 v -8 h -8 -4 z m -4,-24 h 4 v -8 h -4 z m -12,0 h 4 4 v -8 h -8 z m -12,-8 v 8 h 4 4 v -8 h -4 z m -92,-4 h 4 4 8 4 8 4 8 4 8 4 8 4 8 4 8 4 4 v -8 h -96 z m -4,12 h 4 4 v -8 h -4 -4 z m -20,12 h 8 4 v -8 h -12 z m 20,4 h -4 -4 v 8 h 4 4 z m 12,0 h -4 -4 v 8 h 4 4 z m 12,0 h -4 -4 v 8 h 4 4 z m 12,0 h -4 -4 v 8 h 4 4 z m 12,0 h -4 -4 v 8 h 4 4 z m 12,0 h -4 -4 v 8 h 4 4 z m 12,0 h -4 -4 v 8 h 4 4 z m 12,0 h -4 -4 v 8 h 4 4 z m 12,0 h -4 -4 v 8 h 4 4 z m 12,0 h -4 -4 v 8 h 4 4 z m -16,-4 h 4 4 v -8 h -4 -4 z m -20,-12 h 4 4 v -8 h -8 z m -12,0 h 4 4 v -8 h -8 z m -12,0 h 4 4 v -8 h -8 z m -12,0 h 4 4 v -8 h -8 z m -12,0 h 4 4 v -8 h -8 z m -12,0 h 4 4 v -8 h -8 z m 16,4 h -4 -4 v 8 h 4 4 z m 12,0 h -4 -4 v 8 h 4 4 z m 12,0 h -4 -4 v 8 h 4 4 z m 12,0 h -4 -4 v 8 h 4 4 z m 12,0 h -4 -4 v 8 h 4 4 z m 12,0 h -4 -4 v 8 h 4 4 z m -80,8 h 4 4 v -8 h -4 -4 z m -12,0 h 4 4 v -8 h -4 -4 z m 96,-20 h -8 v 8 h 4 4 z m 20,12 h -4 -4 v 8 h 4 4 z m 8,12 h -4 -4 v 8 h 4 4 z m -144,8 h 8 4 v -8 h -8 -4 z m 4,-24 h 12 4 v -8 h -16 z m 144,4 h -4 -4 v 8 h 4 4 z m 12,24 h -4 v 8 h 4 z m 48,-60 h -232 v 68 h 20 v -8 -4 -8 -4 h 4 v -8 -4 -8 -4 h 4 16 4 v -8 -4 h 4 96 4 v 4 8 h 4 8 4 4 4 v 4 8 4 8 h 8 4 v 4 8 4 8 h 4 v -8 -4 -8 -4 -8 -4 -8 -4 -8 -4 h 4 16 4 v 4 8 4 8 4 8 4 8 4 8 H 0 Z m -232,172 h 28 v -56 -4 V 20 L -206.325,18.339 -232,0 Z m 195.877,-80 -3,-12 h -157.754 l -3,12 z m -163.877,20 h 168 v -16 H -35.123 -200 Z m 0,8 v 52 h 4 v -52 h 4 v 52 h 4 v -52 h 4 v 52 h 4 v -52 h 4 v 52 h 4 v -52 h 4 v 52 h 4 v -52 h 4 v 52 h 4 v -52 h 4 v 52 h 4 v -52 h 4 v 52 h 4 v -52 h 4 v 52 h 4 v -52 h 4 v 52 h 4 v -52 h 4 v 52 h 4 v -52 h 4 v 52 h 4 v -52 h 4 v 52 h 4 v -52 h 4 v 52 h 4 v -52 h 4 v 52 h 4 v -52 h 4 v 52 h 4 v -52 h 4 v 52 h 4 v -52 h 4 v 52 h 4 v -52 h 4 v 52 h 4 v -52 h 4 v 52 h 4 v -52 h 4 v 52 h 8 v -56 h -168 z m 200,56 h -28 -172 -2 -2 -28 -4 v -4 -97.941 -6.059 -68 -4 h 4 232 4 v 4 68 6.059 97.941 4 z" /></g></g></svg>