<?xml version="1.0" encoding="UTF-8" standalone="no"?>
<svg
   xmlns:dc="http://purl.org/dc/elements/1.1/"
   xmlns:cc="http://creativecommons.org/ns#"
   xmlns:rdf="http://www.w3.org/1999/02/22-rdf-syntax-ns#"
   xmlns:svg="http://www.w3.org/2000/svg"
   xmlns="http://www.w3.org/2000/svg"
   viewBox="0 0 330.66665 160"
   height="160"
   width="330.66666"
   xml:space="preserve"
   id="svg2"
   version="1.1"><metadata
     id="metadata8"><rdf:RDF><cc:Work
         rdf:about=""><dc:format>image/svg+xml</dc:format><dc:type
           rdf:resource="http://purl.org/dc/dcmitype/StillImage" /></cc:Work></rdf:RDF></metadata><defs
     id="defs6" /><g
     transform="matrix(1.3333333,0,0,-1.3333333,-5.3333332,245.33333)"
     id="g10"><g
       transform="translate(8,152)"
       id="g12"><path
         id="path14"
         style="fill:#ffffff;fill-opacity:1;fill-rule:nonzero;stroke:none"
         d="M 0,0 V 28 H 51.408 L 20,4 h 4.233 l 31.408,24 h 5.2 L 29.433,4 h 4.233 l 31.408,24 h 5.2 L 38.866,4 h 4.233 l 31.407,24 h 5.201 L 48.299,4 h 4.232 L 83.939,28 H 89.14 L 57.731,4 h 4.233 l 31.408,24 h 5.201 L 67.165,4 h 4.232 l 31.408,24 h 5.2 L 76.598,4 h 4.232 l 31.408,24 h 5.2 L 86.03,4 h 4.233 l 31.408,24 h 5.2 L 95.463,4 h 4.233 l 31.408,24 h 5.2 L 104.896,4 h 4.233 l 31.408,24 h 5.2 L 114.329,4 h 4.233 l 31.408,24 h 5.2 L 123.762,4 h 4.232 l 31.408,24 h 5.201 L 133.194,4 h 4.234 l 31.408,24 h 5.2 L 142.628,4 h 4.232 l 31.409,24 h 5.2 L 152.061,4 h 4.232 l 31.408,24 h 5.2 L 161.493,4 h 4.234 l 31.407,24 h 5.2 L 170.927,4 h 4.232 l 31.408,24 h 5.201 L 180.359,4 h 4.233 L 216,28 h 24 V 0 Z M 240,-20 H 14.062 0 v 16 h 240 z m 0,-64 H 0 v 60 H 14.062 240 Z m 0,116 H 0 -4 v -4 -28 -4 -16 -4 -60 -4 h 4 240 4 v 4 60 4 16 4 28 4 z" /></g><g
       transform="translate(228,144)"
       id="g16"><path
         id="path18"
         style="fill:#ffffff;fill-opacity:1;fill-rule:nonzero;stroke:none"
         d="M 0,0 H -48.195 L -52,-4 h 48.119 z" /></g><path
       id="path20"
       style="fill:#ffffff;fill-opacity:1;fill-rule:nonzero;stroke:none"
       d="m 24,112.075 h -8 v 8 h 8 z m 4,8 h 8 v -8 h -4 -4 z m 12,0 h 8 v -8 h -4 -4 z m 12,0 h 8 v -8 h -4 -4 z m 12,0 h 8 v -8 h -4 -4 z m 12,0 h 8 v -8 h -4 -4 z m 12,0 h 8 v -8 h -4 -4 z m 12,0 h 8 v -8 h -4 -4 z m 12,0 h 8 v -8 h -4 -4 z m 12,0 h 8 v -8 h -4 -4 z m 12,0 h 12 v -8 h -8 -4 z m 20,0 h 12 v -8 h -4 -8 z m 20,0 h 12 v -8 h -8 -4 z m 20,0 h 8 v -8 h -8 z m 12,0 h 8 v -8 h -8 z m 12,0 h 8 v -8 h -8 z m 12,0 h 8 v -8 h -8 z m 8,-20 h -8 v 8 h 8 z m 0,-24 h -8 v 8 4 8 h 8 z m -12,0 h -8 v 8 h 8 z m -12,0 h -8 v 8 h 8 z m -12,0 h -8 v 8 h 8 z m -16,12 h -8 v 8 h 8 z m -12,0 h -8 v 8 h 8 z m -12,0 h -8 v 8 h 8 z m 0,12 h -8 v 8 h 8 z m 12,0 h -8 v 8 h 4 4 z m 12,0 h -8 v 8 h 8 z m 16,0 h -8 v 8 h 8 z m 12,0 h -8 v 8 h 8 z m -8,-4 h 8 v -8 h -8 z m -12,0 h 8 v -8 h -8 z m 32,-8 h -8 v 8 h 8 z m 0,12 h -8 v 8 h 8 z m -80,-12 h -4 v 8 4 h -4 v 8 h 8 z M 136,76 h -16 v 8.075 h 8 4 4 z m -20,0 H 36 v 8.075 h 8 4 8 4 8 4 8 4 8 4 8 4 8 z M 32,76 H 16 v 8.075 H 32 Z M 16,96.075 h 12 4 v -8 H 16 Z m 24,4 h -4 v 0.074 h -4 v 7.926 h 4 4 z m 12,0 h -4 -4 v 8 h 4 4 z m 12,0 h -4 -4 v 8 h 4 4 z m 12,0 h -4 -4 v 8 h 4 4 z m 12,0 h -4 -4 v 8 h 4 4 z m 12,0 h -4 -4 v 8 h 4 4 z m 12,0 h -4 -4 v 8 h 4 4 z m 12,0 h -4 -4 v 8 h 4 4 z m 12,0 h -4 -4 v 8 h 4 4 z m -16,-4 h 4 4 v -8 h -8 z m -12,0 h 4 4 v -8 h -8 z m -12,0 h 4 4 v -8 h -8 z m -12,0 h 4 4 v -8 h -8 z m -12,0 h 4 4 v -8 h -8 z m -12,0 h 4 4 v -8 h -8 z m -12,0 h 4 4 v -8 h -8 z m -12,0 h 4 4 v -8 h -8 z m 100,-8 h -4 v 8 h 4 z m -120,20 h 8 4 v -7.926 H 16 Z m -4,16 v -4 -8 -4 -7.926 -0.074 -3.926 -0.074 -8 -4 V 76 72 h 4 16 4 80 4 16 4 v 4 8.075 h 4 4 4 4 8 4 8 4 8 4 v -8 -4 h 4 8 4 8 4 8 4 8 4 v 4 20 4 8 4 8 4 h -4 -8 -4 -8 -4 -8 -4 -8 -4 -4 -12 -4 -4 -12 -4 -4 -12 -4 -8 -4 -8 -4 -8 -4 -8 -4 -8 -4 -8 -4 -8 -4 -8 -4 -8 -4 -8 z" /></g></svg>