<svg height="314.66666" viewBox="0 0 277.34399 314.66665" width="277.34399" xmlns="http://www.w3.org/2000/svg" xmlns:xlink="http://www.w3.org/1999/xlink"><clipPath id="a"><path d="m0 256h256v-256h-256z"/></clipPath><g clip-path="url(#a)" fill="#fff" transform="matrix(1.3333333 0 0 -1.3333333 -31.994533 330.66679)"><path d="m0 0c0 2.109 1.709 3.818 3.818 3.818h160.364c2.109 0 3.818-1.709 3.818-3.818v-76.364c0-2.108-1.709-3.818-3.818-3.818h-160.364c-2.109 0-3.818 1.71-3.818 3.818zm3.818-84h160.364c4.211 0 7.636 3.426 7.636 7.636v76.364c0 4.211-3.425 7.636-7.636 7.636h-160.364c-4.211 0-7.636-3.425-7.636-7.636v-76.364c0-4.21 3.425-7.636 7.636-7.636" transform="translate(44 228.1818)"/><path d="m0 0c0-.957-.775-1.732-1.732-1.732h-44.536c-.957 0-1.732.775-1.732 1.732v8.536c0 .956.775 1.732 1.732 1.732h44.536c.957 0 1.732-.776 1.732-1.732zm-1.732 13.732h-44.536c-2.865 0-5.196-2.331-5.196-5.196v-8.536c0-2.865 2.331-5.196 5.196-5.196h44.536c2.865 0 5.196 2.331 5.196 5.196v8.536c0 2.865-2.331 5.196-5.196 5.196" transform="translate(152 109.7321)"/><path d="m0 0h-4v8h12v-8zm8-12h-8v8h8zm0-12h-16v8h4 4 8zm-20 0h-8v8h4 4zm-12 0h-8v8h4 4zm-12 0h-4-4v8h4 4zm-4-12h-56v8h4 8 4 8 4 8 4 8 4 4zm-64 12v8h4 4v-8h-4zm-4 0h-8v8h4 4zm-12 0h-4-4-8v8h12 4zm-8-12h-8v8h8zm-8 32h8 4v-8h-12zm0 12h8v-8h-8zm12 0h8v-8h-4-4zm12 0h8v-8h-4-4zm12 0h8v-8h-4-4zm12 0h8v-8h-4-4zm12 0h8v-8h-4-4zm12 0h8v-8h-4-4zm12 0h8v-8h-4-4zm12 0h8v-8h-4-4zm12 0h8v-8h-4-4zm12 0h8v-8h-4-4zm-8-12h4 4v-8h-4-4zm-12 0h4 4v-8h-4-4zm-12 0h4 4v-8h-4-4zm-20-12h4 4v-8h-8zm-12 0h4 4v-8h-8zm-12 0h4 4v-8h-8zm16 4h-4-4v8h4 4zm12 0h-4-4v8h4 4zm12 0h-4-4v8h4 4zm-44 8h4 4v-8h-4-4zm-12 0h4 4v-8h-4-4zm-12 0h4 4v-8h-4-4zm72-20h-8v8h4 4zm44 12h-4-4v8h4 4zm0 24h-4-8-4-8-4-8-4-8-4-8-4-8-4-8-4-8-4-8-4-8-4-8-4v-4-8-4-8-4-8-4-8-4h4 8 4v4 8h4 4 8 4 4v-8-4h4 56 4v4 8h4 8 4 8 4 16 4v4 8 4 8 4 8 4h-4z" transform="translate(192 64)"/><path d="m0 0c-.118-2.12-1.871-3.778-3.994-3.778h-184.432c-2.123 0-3.876 1.658-3.994 3.778l-3.555 64c-.128 2.293 1.697 4.222 3.993 4.222h191.544c2.296 0 4.121-1.929 3.994-4.222zm-196.21 120.222v4h6c1.105 0 2 .895 2 2 0 1.104-.895 2-2 2h-6v4h6c1.105 0 2 .895 2 2 0 1.104-.895 2-2 2h-6v4h6c1.105 0 2 .895 2 2 0 1.104-.895 2-2 2h-6v4h6c1.105 0 2 .895 2 2 0 1.104-.895 2-2 2h-6v4h6c1.105 0 2 .895 2 2 0 1.104-.895 2-2 2h-6v4h6c1.105 0 2 .895 2 2 0 1.104-.895 2-2 2h-6v4h6c1.105 0 2 .895 2 2 0 1.104-.895 2-2 2h-6v4h6c1.105 0 2 .895 2 2 0 1.104-.895 2-2 2h-6v4h6c1.105 0 2 .895 2 2 0 1.104-.895 2-2 2h-6v4h6c1.105 0 2 .895 2 2 0 1.104-.895 2-2 2h-6v4h6c1.105 0 2 .895 2 2 0 1.104-.895 2-2 2h-6v4h6c1.105 0 2 .895 2 2 0 1.104-.895 2-2 2h-6c0 4.418 3.582 8 8 8h184c4.418 0 8-3.582 8-8h-6c-1.104 0-2-.896-2-2 0-1.105.896-2 2-2h6v-4h-6c-1.104 0-2-.896-2-2 0-1.105.896-2 2-2h6v-4h-6c-1.104 0-2-.896-2-2 0-1.105.896-2 2-2h6v-4h-6c-1.104 0-2-.896-2-2 0-1.105.896-2 2-2h6v-4h-6c-1.104 0-2-.896-2-2 0-1.105.896-2 2-2h6v-4h-6c-1.104 0-2-.896-2-2 0-1.105.896-2 2-2h6v-4h-6c-1.104 0-2-.896-2-2 0-1.105.896-2 2-2h6v-4h-6c-1.104 0-2-.896-2-2 0-1.105.896-2 2-2h6v-4h-6c-1.104 0-2-.896-2-2 0-1.105.896-2 2-2h6v-4h-6c-1.104 0-2-.896-2-2 0-1.105.896-2 2-2h6v-4h-6c-1.104 0-2-.896-2-2 0-1.105.896-2 2-2h6v-4h-6c-1.104 0-2-.896-2-2 0-1.105.896-2 2-2h6v-4-32c0-4.418-3.582-8-8-8h-184c-4.418 0-8 3.582-8 8zm195.772-48h-191.544c-1.208 0-2.39-.287-3.464-.803l-.341 7.508c2.067-1.689 4.705-2.705 7.577-2.705h184c2.872 0 5.51 1.016 7.578 2.705l-.342-7.508c-1.074.516-2.256.803-3.464.803m8.232 16h-.004v32 96c0 6.617-5.383 12-12 12h-184c-6.617 0-12-5.383-12-12v-96-32h-.004l.008-.182.79-20.891c-.418-1.064-.618-2.213-.553-3.371l3.555-64c.236-4.237 3.744-7.556 7.988-7.556h184.432c4.244 0 7.752 3.319 7.988 7.556l3.555 64c.065 1.158-.134 2.307-.553 3.371l.79 20.891z" transform="translate(224.2099 19.7781)"/></g></svg>