<?xml version="1.0" encoding="utf-8"?>
<!-- Generator: Adobe Illustrator 25.4.1, SVG Export Plug-In . SVG Version: 6.00 Build 0)  -->
<svg version="1.1" id="Layer_1" xmlns="http://www.w3.org/2000/svg" xmlns:xlink="http://www.w3.org/1999/xlink" x="0px" y="0px"
	 viewBox="0 0 3839 1015.3" style="enable-background:new 0 0 3839 1015.3;" xml:space="preserve">
<style type="text/css">
	.st0{fill:#FFFFFF;}
	.st1{fill:#034693;}
	.st2{fill:#FFFFFF;stroke:#3852A1;stroke-width:6.1873;stroke-linecap:round;stroke-linejoin:round;stroke-miterlimit:10;}
	.st3{fill:#008ED6;}
	.st4{fill:#FF0000;}
	.st5{fill:url(#SVGID_1_);}
	.st6{fill:url(#SVGID_00000181066565413287036380000006878846928752599958_);}
	.st7{fill:#F4F8F4;}
	.st8{fill:url(#SVGID_00000045596244082037345760000015792583138870486963_);}
	.st9{fill:url(#SVGID_00000156570777483476481530000011665684778920484258_);}
	.st10{fill:url(#SVGID_00000014615587664931675590000002233816583954750899_);}
	.st11{fill:url(#SVGID_00000165915211743976014460000005811066230706597304_);}
	.st12{fill:url(#SVGID_00000174597748014901320260000012997389947220897676_);}
	.st13{fill:url(#SVGID_00000174582797504121868990000015775701179117460149_);}
	.st14{fill:url(#SVGID_00000166658913281178369990000000362950591320869019_);}
	.st15{fill:url(#SVGID_00000113330175509284344090000002984580033387430314_);}
	.st16{fill:url(#SVGID_00000122714131375567542140000012829233889239252395_);}
	.st17{fill:url(#SVGID_00000046326152174962299140000016536188598199145911_);}
	.st18{fill:url(#SVGID_00000093148898506904633600000011825333243477646728_);}
	.st19{fill:url(#SVGID_00000008142883954414071010000017704150599954475702_);}
	.st20{fill:url(#SVGID_00000109746944731073491500000001021474785378167733_);}
	.st21{fill:url(#SVGID_00000097501673470587206210000001831147778381594511_);}
	.st22{fill:url(#SVGID_00000054986929241801915760000012854208651604258984_);}
	.st23{fill:url(#SVGID_00000135685984783286515390000005514543546718301573_);}
	.st24{fill:url(#SVGID_00000113347067640156179510000014325485351984746146_);}
	.st25{fill:url(#SVGID_00000034796194544627123540000016199718481140278940_);}
	.st26{fill:url(#SVGID_00000148655094996101326850000017853963435450619288_);}
	.st27{fill:url(#SVGID_00000132050555313459223980000000576296907681216142_);}
	.st28{fill:url(#SVGID_00000173146986842461399770000007355248375944328627_);}
	.st29{fill:url(#SVGID_00000066474720135298821440000017445993545091285160_);}
	.st30{fill:#DBDCD9;}
	.st31{fill:url(#SVGID_00000025428075958726131030000005989328133880172717_);}
	.st32{fill:url(#SVGID_00000044888769933768147030000001480101543593745299_);}
	.st33{fill:url(#SVGID_00000003784058570460364770000015399232782791868349_);}
	.st34{fill:url(#SVGID_00000182526202241185930320000017838537458325476531_);}
	.st35{fill:url(#SVGID_00000082349506605107272970000011661182221717994636_);}
	.st36{fill:url(#SVGID_00000181791451408144969530000000971197651957834395_);}
	.st37{fill:url(#SVGID_00000055698213611003637440000009851635751048413116_);}
	.st38{fill:url(#SVGID_00000148639736997171310010000013921672173822201231_);}
	.st39{fill:url(#SVGID_00000062896312821903636310000016615929823402366380_);}
	.st40{fill:url(#SVGID_00000122713228856925413050000010746281066389300360_);}
	.st41{fill:url(#SVGID_00000008855771854559841020000010474121377047931815_);}
	.st42{fill:url(#SVGID_00000050641012410887610000000006036858786690366904_);}
	.st43{fill:url(#SVGID_00000124879601202718146670000011105278099811571881_);}
	.st44{fill:url(#SVGID_00000023254787977611340270000013893003607509075332_);}
	.st45{fill:url(#SVGID_00000013875445112642751420000018107586462760109990_);}
	.st46{fill:url(#SVGID_00000005252186322173343260000007816309154877107897_);}
	.st47{fill:url(#SVGID_00000150811971577269251500000011529127081157431175_);}
	.st48{fill:url(#SVGID_00000062905772224619791430000000236659083104180865_);}
	.st49{fill:url(#SVGID_00000139273240143211341330000015312108854937841324_);}
	.st50{fill:url(#SVGID_00000168833446598451101110000017836955507824924061_);}
	.st51{fill:url(#SVGID_00000163761775130827452380000011815112633954615446_);}
	.st52{fill:url(#SVGID_00000155832010880205213920000018271351552366916796_);}
	.st53{fill:url(#SVGID_00000067957198317362531290000002464819414391681708_);}
	.st54{fill:url(#SVGID_00000160150147088987471380000009126440186076089262_);}
	.st55{fill:url(#SVGID_00000051382334216443987360000003861170831497037990_);}
	.st56{fill:url(#SVGID_00000082356343434703718500000005632835744044317846_);}
	.st57{fill:url(#SVGID_00000112624194569285800920000016103704889941681077_);}
	.st58{fill:url(#SVGID_00000166661140901016280050000003171619811896782483_);}
	.st59{fill:url(#SVGID_00000170243828347818490160000006255558860537256375_);}
	.st60{fill:url(#SVGID_00000120560114973085642950000002535818309263580565_);}
	.st61{fill:url(#SVGID_00000109718340227723642710000006875292271091632828_);}
	.st62{fill:url(#SVGID_00000152951594183477177000000018182223106531581845_);}
	.st63{fill:url(#SVGID_00000141450861095864632690000017369843653225090958_);}
	.st64{fill:url(#SVGID_00000089533076858300759350000002001715546049056659_);}
	.st65{fill:url(#SVGID_00000100377482570906310560000006812279791049313428_);}
	.st66{fill:url(#SVGID_00000160874586561358600390000015012624865078903216_);}
	.st67{fill:url(#SVGID_00000150063749156130997110000011676008300512697263_);}
	.st68{fill:url(#SVGID_00000050662877468809825420000010157666106635118493_);}
	.st69{fill:url(#SVGID_00000073722030435954659380000001205090679426412165_);}
	.st70{fill:url(#SVGID_00000183940241950002964420000016932137712175541137_);}
	.st71{fill:url(#SVGID_00000168838255495048798070000013960923776703367356_);}
	.st72{fill:url(#SVGID_00000153706189485125109770000000593563986315493770_);}
	.st73{fill:url(#SVGID_00000008130834065581185180000009300808681122607520_);}
	.st74{fill:url(#SVGID_00000030472031511947365350000005029227984496450992_);}
	.st75{fill:url(#SVGID_00000023990666610865496700000000325479601386237363_);}
	.st76{fill:url(#SVGID_00000022547831312440190520000000955942122907095444_);}
	.st77{fill:url(#SVGID_00000138549221190055946400000008619312074557907644_);}
	.st78{fill:url(#SVGID_00000063606135335271796350000017226717974407074459_);}
	.st79{fill:url(#SVGID_00000026132727024175264070000017904485452884523426_);}
	.st80{fill:url(#SVGID_00000020364380149104521540000017985130013118644141_);}
	.st81{fill:url(#SVGID_00000122712407058185956540000003229447930619718563_);}
	.st82{fill:url(#SVGID_00000146470551565226837260000008141381100934581140_);}
	.st83{fill:url(#SVGID_00000122685053339576441310000011668145131513515966_);}
	.st84{fill:url(#SVGID_00000008860266968506319110000010983434014191401142_);}
	.st85{fill:url(#SVGID_00000119824794883663157280000011276325666520015793_);}
	.st86{fill:url(#SVGID_00000077325677432557231170000016685946222406825615_);}
	.st87{fill:url(#SVGID_00000089542820429278227510000001388115726346096288_);}
	.st88{fill:url(#SVGID_00000162322435327808617800000000615844942224443297_);}
	.st89{fill:url(#SVGID_00000004530361249515502780000006884149405959390376_);}
	.st90{fill:url(#SVGID_00000008858927939338923680000006530102396772093321_);}
	.st91{fill:url(#SVGID_00000088845812698997648650000009496218177269589406_);}
	.st92{fill:url(#SVGID_00000149357814507701278050000010031614438437785244_);}
	.st93{fill:url(#SVGID_00000116952677462776338290000008789131502819493510_);}
	.st94{fill:url(#SVGID_00000013908914415969429100000013713338080220150920_);}
	.st95{fill:url(#SVGID_00000124135621360473119470000017369821610088813190_);}
	.st96{fill:url(#SVGID_00000149344524938766330870000016699223190390104508_);}
	.st97{fill:url(#SVGID_00000105386882164453723780000016140311810066769071_);}
	.st98{fill:url(#SVGID_00000026848391246589937280000011824835774926262453_);}
	.st99{fill:url(#SVGID_00000036962121193585456440000007404058342181526423_);}
	.st100{fill:url(#SVGID_00000049918194108129599710000012681492649263486629_);}
	.st101{fill:url(#SVGID_00000142133623431953839270000013090823729020177842_);}
	.st102{fill:url(#SVGID_00000103246073657343114770000004324693821244570802_);}
	.st103{fill:url(#SVGID_00000122712144362280745560000013840689151811449227_);}
	.st104{fill:url(#SVGID_00000020368795930351863310000005991740711239367838_);}
	.st105{fill:url(#SVGID_00000139254272364482357820000001976321461268706730_);}
	.st106{fill:url(#SVGID_00000156572131921970584430000015884879257423528359_);}
	.st107{fill:url(#SVGID_00000091702308323775260200000004983787005098634147_);}
	.st108{fill:url(#SVGID_00000146464815991826773860000012490507116877193911_);}
	.st109{fill:url(#SVGID_00000140728627423083087870000008560613311183239340_);}
	.st110{fill:url(#SVGID_00000021838323044115535370000011766409758346774918_);}
	.st111{fill:url(#SVGID_00000137820997084874774160000017942418854747845259_);}
	.st112{fill:url(#SVGID_00000088822532661535128960000000262532446056111290_);}
	.st113{fill:url(#SVGID_00000054263820699366321370000005800252435097882288_);}
	.st114{fill:url(#SVGID_00000032620515212660337120000012506479885432888503_);}
	.st115{fill:url(#SVGID_00000150816644082725472310000017501693101148116894_);}
	.st116{fill:url(#SVGID_00000057850073306521151620000012920467386511452341_);}
	.st117{fill:url(#SVGID_00000029017117312571709440000004039480149576471972_);}
	.st118{fill:url(#SVGID_00000010994685300840629450000006811575562272444294_);}
	.st119{fill:url(#SVGID_00000070806218332205221840000010855637996949684644_);}
	.st120{fill:url(#SVGID_00000076574230034033614570000012413666189635587499_);}
	.st121{fill:url(#SVGID_00000091712427244953876470000015422346482300197823_);}
	.st122{fill:url(#SVGID_00000169520156888121809900000003219456506791036549_);}
	.st123{fill:url(#SVGID_00000083781272651000971480000005734608876168224191_);}
	.st124{fill:url(#SVGID_00000068643257209559876800000015608488306504346533_);}
	.st125{fill:url(#SVGID_00000104667333163291178410000016559023862658149817_);}
	.st126{fill:url(#SVGID_00000121261511198101824050000002202141560731115669_);}
	.st127{fill:url(#SVGID_00000111887706239838890520000015717185946233670071_);}
	.st128{fill:url(#SVGID_00000088825236367965657990000011789075339293855416_);}
	.st129{fill:url(#SVGID_00000055687685848431108630000010121357681985078439_);}
	.st130{fill:url(#SVGID_00000021799783393631851470000010834529327169983160_);}
	.st131{fill:url(#SVGID_00000012440463076838523530000016295659663736980618_);}
	.st132{fill:url(#SVGID_00000029024450009332080190000010792912601848174261_);}
	.st133{fill:url(#SVGID_00000023238791260722729820000001104717409223387524_);}
	.st134{fill:url(#SVGID_00000042002761413653999290000008858942921918208154_);}
	.st135{fill:url(#SVGID_00000178883019634410431170000004481807555430906774_);}
	.st136{fill:url(#SVGID_00000101785469304565483110000012315683401455889541_);}
	.st137{fill:url(#SVGID_00000054252115933861494780000012803988226951047574_);}
	.st138{fill:url(#SVGID_00000028287702365000447780000010123859077552954015_);}
	.st139{fill:url(#SVGID_00000049936292100200758970000012931525008263876533_);}
	.st140{fill:url(#SVGID_00000124132173749868762640000011013376506543266191_);}
	.st141{fill:url(#SVGID_00000103982324237174053490000000147082138542304949_);}
	.st142{fill:url(#SVGID_00000118378509883172396390000004312640181755225001_);}
	.st143{fill:url(#SVGID_00000162338407572711584090000017299589370315869621_);}
	.st144{fill:url(#SVGID_00000051348038682319025040000001274355716309764543_);}
	.st145{fill:url(#SVGID_00000180358302404935766660000000000712372417044670_);}
	.st146{fill:url(#SVGID_00000067219788404325638780000016731791357293116553_);}
	.st147{fill:url(#SVGID_00000115492168694710104810000006112903572059920792_);}
	.st148{fill:url(#SVGID_00000182486475907219190130000012498935099882992557_);}
	.st149{fill:url(#SVGID_00000053546763974617298300000018109820478133386420_);}
	.st150{fill:url(#SVGID_00000006681080023190575550000004801033761212819647_);}
	.st151{fill:url(#SVGID_00000121247202665920129640000004841293125282281099_);}
	.st152{fill:url(#SVGID_00000085960792371604880620000000657461294518886796_);}
	.st153{fill:url(#SVGID_00000147942662083216930320000014747671641276316089_);}
	.st154{fill:url(#SVGID_00000122710665799683500200000007546171661290133897_);}
	.st155{fill:url(#SVGID_00000163054723735344616990000013009888352027071617_);}
	.st156{fill:url(#SVGID_00000099649770032747571710000008047081755049606316_);}
	.st157{fill:url(#SVGID_00000141455761434431286640000001016029225755307186_);}
	.st158{fill:url(#SVGID_00000109736958241889163660000012481732825985855413_);}
	.st159{fill:url(#SVGID_00000127756354614392704360000015644657596166694063_);}
	.st160{fill:url(#SVGID_00000035516157022419495950000017770411061701313928_);}
	.st161{fill:url(#SVGID_00000123407417245771268620000003079101754985516223_);}
	.st162{fill:url(#SVGID_00000063617844362065518240000004748797350433303431_);}
	.st163{fill:url(#SVGID_00000047761338338871197810000001466859946043012766_);}
	.st164{fill:url(#SVGID_00000054254335040346122700000017628348727429143704_);}
	.st165{fill:url(#SVGID_00000027600396125367192200000017611649700212511887_);}
	.st166{fill:url(#SVGID_00000023256016485229276670000002682455917719101582_);}
	.st167{fill:url(#SVGID_00000140717809439273157940000007655668719165628844_);}
	.st168{fill:url(#SVGID_00000087370226668192486310000017378653956586351278_);}
	.st169{fill:url(#SVGID_00000051365348781781311640000015017219676859665343_);}
	.st170{fill:url(#SVGID_00000049938437661364180900000018262006896179922870_);}
	.st171{fill:url(#SVGID_00000111180836028846682750000015242424739346363532_);}
	.st172{fill:url(#SVGID_00000136392023030634950740000000947870271582909342_);}
	.st173{fill:url(#SVGID_00000036956717007669759500000000695332542786840983_);}
	.st174{fill:url(#SVGID_00000017504571877873813960000001998934225548985524_);}
	.st175{fill:url(#SVGID_00000042719305907681346930000004891129757938877826_);}
	.st176{fill:url(#SVGID_00000090265018215626126000000000605446115315033782_);}
	.st177{fill:url(#SVGID_00000159465445437449021320000013020325457985640078_);}
	.st178{fill:url(#SVGID_00000115508102368994325630000006663036133134464927_);}
	.st179{fill:url(#SVGID_00000109026489053690819200000016249213975700095889_);}
	.st180{fill:url(#SVGID_00000035504250370636852700000004854333440801664937_);}
	.st181{fill:url(#SVGID_00000096768634700354003260000007945336094473996447_);}
	.st182{fill:url(#SVGID_00000126310127609941670210000007043910442343708830_);}
	.st183{fill:url(#SVGID_00000100381494738502334490000004472262198345281172_);}
	.st184{fill:url(#SVGID_00000066485716676435429980000004235661016488137619_);}
	.st185{fill:url(#SVGID_00000011744672119927283960000018111913995344050356_);}
	.st186{fill:url(#SVGID_00000058584611016304597900000011417731815601067179_);}
	.st187{fill:url(#SVGID_00000088836744951630410180000001284261306208539550_);}
	.st188{fill:url(#SVGID_00000070829532603766722200000009969970415109753219_);}
	.st189{fill:url(#SVGID_00000050634053840718895890000003840700591502695599_);}
	.st190{fill:url(#SVGID_00000000908806760544783490000007628898585411725495_);}
	.st191{fill:url(#SVGID_00000167365831205559509930000014940079081614854312_);}
	.st192{fill:url(#SVGID_00000160898594488583626860000017966906922608230285_);}
	.st193{fill:url(#SVGID_00000152239467600234753390000000488679135938735779_);}
	.st194{fill:url(#SVGID_00000140723928425485553630000011987956550248735641_);}
	.st195{fill:#F6F7F7;}
	.st196{fill:url(#SVGID_00000179608636814122903250000003307078967728079806_);}
	.st197{fill:url(#SVGID_00000164472585535632069380000012843006704277241251_);}
	.st198{fill:url(#SVGID_00000130636904665795736190000012500211099252536501_);}
	.st199{fill:url(#SVGID_00000101077263782695986870000011152557791668359841_);}
	.st200{fill:url(#SVGID_00000158020142453305041860000000817063091620679581_);}
	.st201{fill:url(#SVGID_00000048493928620069582530000013741964694236443313_);}
	.st202{fill:url(#SVGID_00000116929467091374828660000006417329395991799997_);}
	.st203{fill:url(#SVGID_00000000924821121055451240000014548630429884969099_);}
	.st204{fill:url(#SVGID_00000109014972237019949080000006893407352845150361_);}
	.st205{fill:url(#SVGID_00000129196113782941457640000015916954498267092402_);}
	.st206{fill:url(#SVGID_00000090264719209870758560000010252881810776213649_);}
	.st207{fill:url(#SVGID_00000048483316383777617700000014771033629418243496_);}
	.st208{fill:url(#SVGID_00000143582628887562609040000002881293874284477367_);}
	.st209{fill:url(#SVGID_00000054988681486680599130000012775880402638730380_);}
	.st210{fill:#A8988B;}
	.st211{fill:#0C0002;}
</style>
<g>
	<g>
		<g>
			<g>
				<path class="st0" d="M2529,88.5C2512.7,36.9,2464.1,0,2408,0s-104.7,36.8-121,88.5l-42.8,126.8V7.3h-224.2
					c-39.8,0-76.7,16.3-104.7,42.8V7.3h-230c-42.8,0-81.1,17.7-109.2,47.1V7.3h-218.2c-92.9,0-169.6,76.7-169.6,169.6
					c0,44.3,17.7,85.5,45.8,115h-45.8v197.6h218.2c61.9,0,115-32.5,146-82.6c25.1,48.6,75.2,82.6,134.2,82.6h231.5v-42.8
					c26.5,26.5,63.4,42.8,104.7,42.8h639.9L2529,88.5z"/>
				<g>
					<g>
						<path class="st1" d="M1407,327.3h-184.4v57.6H1407c35.4,0,64.9-29.5,64.9-64.9s-29.5-64.9-64.9-64.9h-47.2
							c-42.8,0-78.2-35.4-78.2-78.2s35.4-78.2,78.2-78.2h182.9V41.3h-184.4c-75.2,0-135.7,60.4-135.7,135.7s60.4,135.6,135.6,135.6
							h47.1c4.5,0,7.3,3,7.3,7.3C1412.8,324.3,1409.8,327.3,1407,327.3z"/>
						<path class="st1" d="M1358.2,171.1h184.4V112h-184.4c-35.4,0-64.9,29.5-64.9,64.9s29.5,64.9,64.9,64.9h47.1
							c42.8,0,78.2,35.4,78.2,78.2s-35.4,78.2-78.2,78.2h-182.7v57.6H1407c75.2,0,135.7-60.4,135.7-135.7s-60.4-135.7-135.7-135.7
							h-47.2c-4.5,0-7.3-3-7.3-7.3C1352.4,174.1,1355.4,171.1,1358.2,171.1z"/>
					</g>
					<g>
						<path class="st1" d="M2020.3,112c-25.1,0-44.3,19.2-44.3,44.3v184.4c0,25.1,19.2,44.3,44.3,44.3h119.5V255.1h-91.4v57.6h33.9
							v13.3h-33.9c-7.3,0-13.3-6-13.3-13.3V182.9c0-7.3,6-13.3,13.3-13.3H2212V112H2020.3z"/>
						<path class="st1" d="M2383,384.9h134.2l-91.4-271.4c-3-7.3-8.8-13.3-17.7-13.3c-7.3,0-14.8,6-17.7,11.8l-118,343.5h67.9
							l41.3-122.4v51.6h1.5L2383,384.9L2383,384.9z M2406.6,261l19.2,59.1H2386L2406.6,261z"/>
						<path class="st1" d="M2496.5,101.7c-11.8-38.3-47.1-67.9-89.9-67.9s-78.2,28-88.5,66.4l-107.7,315.6V184.4h-162.3V242h106.2
							v156.3h-132.7c-32.5,0-57.6-26.5-57.6-57.6V156.3c0-32.5,26.5-57.6,57.6-57.6h190.2V41.3h-191.7c-63.4,0-115,51.6-115,115
							v184.4c0,63.4,51.6,115,115,115h237.5l119.5-346.4c4.5-13.3,16.3-22.1,31-22.1c14.7,0,26.5,8.8,31,22.1l97.4,289.1h-153.3
							v57.6h233l0,0L2496.5,101.7z"/>
					</g>
					<g>
						<path class="st1" d="M1685.5,398.1c-32.5,0-57.6-26.5-57.6-57.6V156.3c0-32.5,26.5-57.6,57.6-57.6h197.6V41.3h-197.6
							c-63.4,0-115,51.6-115,115v184.4c0,63.4,51.6,115,115,115h197.6v-57.4L1685.5,398.1L1685.5,398.1z"/>
						<path class="st1" d="M1698.8,314.1h143v-57.6h-200.6v85.5c0,25.1,19.2,44.3,44.3,44.3h197.6v-57.6H1712
							C1704.7,327.3,1698.8,321.3,1698.8,314.1z"/>
						<path class="st1" d="M1841.8,184.4h-143c0-7.3,6-13.3,13.3-13.3h169.6V112h-196.1c-25.1,0-44.3,19.2-44.3,44.3v85.6h200.6
							C1841.8,241.9,1841.8,184.4,1841.8,184.4z"/>
					</g>
				</g>
			</g>
		</g>
		<g>
			<g>
				<rect x="1232" y="763.7" class="st4" width="179.1" height="78.1"/>
				<polygon class="st4" points="1713.1,937.3 1713.1,662.9 1713.1,584.8 1515.2,584.8 1515.2,662.9 1616.4,662.9 1616.4,937.3 
					1487.4,937.3 1487.4,1015.3 1830.6,1015.3 1830.6,937.3 				"/>
				<path class="st4" d="M716,937.3V662.9h468.4v-78.1H685.8c-36.8,0-66.6,29.8-66.6,66.6v297.4c0,36.8,29.8,66.6,66.6,66.6h498.6
					V763.7H881v78.1h206.7v95.5L716,937.3L716,937.3z"/>
				<path class="st4" d="M1884.7,651.4v297.4c0,36.8,29.8,66.6,66.6,66.6h482.2c36.8,0,66.6-29.8,66.6-66.6V651.4
					c0-36.8-29.8-66.6-66.6-66.6h-482.2C1914.5,584.8,1884.7,614.6,1884.7,651.4z M1981.5,937.3V662.9h421.8v274.4H1981.5z"/>
				<path class="st4" d="M2554.1,651.4v297.4c0,36.8,29.8,66.6,66.6,66.6h482.2c36.8,0,66.6-29.8,66.6-66.6V651.4
					c0-36.8-29.8-66.6-66.6-66.6h-482.2C2583.9,584.8,2554.1,614.6,2554.1,651.4z M2650.9,937.3V662.9h421.8v274.4H2650.9z"/>
				<path class="st4" d="M3223.6,651.4v297.4c0,36.8,29.8,66.6,66.6,66.6h482.2c36.8,0,66.6-29.8,66.6-66.6V651.4
					c0-36.8-29.8-66.6-66.6-66.6h-482.2C3253.4,584.8,3223.6,614.6,3223.6,651.4z M3320.4,937.3V662.9h421.8v274.4H3320.4z"/>
				<path class="st4" d="M498.6,763.7H96.8V662.9h468.4v-78.1H66.6C29.8,584.8,0,614.6,0,651.4v123.8c0,36.8,29.8,66.6,66.6,66.6
					h401.8v95.5H0v78.1h498.6c36.8,0,66.6-29.8,66.6-66.6V830.3C565.2,793.6,535.3,763.7,498.6,763.7z"/>
			</g>
		</g>
	</g>
</g>
</svg>
