<?xml version="1.0" encoding="UTF-8" standalone="no"?>
<svg
   xmlns:dc="http://purl.org/dc/elements/1.1/"
   xmlns:cc="http://creativecommons.org/ns#"
   xmlns:rdf="http://www.w3.org/1999/02/22-rdf-syntax-ns#"
   xmlns:svg="http://www.w3.org/2000/svg"
   xmlns="http://www.w3.org/2000/svg"
   viewBox="0 0 234.66665 320"
   height="320"
   width="234.66666"
   xml:space="preserve"
   id="svg2"
   version="1.1"><metadata
     id="metadata8"><rdf:RDF><cc:Work
         rdf:about=""><dc:format>image/svg+xml</dc:format><dc:type
           rdf:resource="http://purl.org/dc/dcmitype/StillImage" /></cc:Work></rdf:RDF></metadata><defs
     id="defs6"><clipPath
       id="clipPath18"
       clipPathUnits="userSpaceOnUse"><path
         id="path16"
         d="M 0,256 H 256 V 0 H 0 Z" /></clipPath></defs><g
     transform="matrix(1.3333333,0,0,-1.3333333,-53.333332,330.66666)"
     id="g10"><g
       id="g12"><g
         clip-path="url(#clipPath18)"
         id="g14"><g
           transform="translate(212,32)"
           id="g20"><path
             id="path22"
             style="fill:#ffffff;fill-opacity:1;fill-rule:nonzero;stroke:none"
             d="m 0,0 h -8 v 180 l -24,24 h -128 -4 -4 v 6 c 0,1.104 0.896,2 2,2 h 141.172 c 0.53,0 1.039,-0.211 1.414,-0.586 L -0.586,188.586 C -0.211,188.211 0,187.702 0,187.171 Z m -160,0 v 200 h 128 l 20,-20 V 0 Z M 0,-18 c 0,-1.104 -0.896,-2 -2,-2 h -164 c -1.104,0 -2,0.896 -2,2 v 14 h 156 4 8 z m -168,166 h 4 V 0 h -4 z m 0,52 h 4 v -48 h -4 z m 170.242,-8.585 -22.828,22.828 c -1.133,1.133 -2.64,1.757 -4.242,1.757 H -166 c -3.309,0 -6,-2.691 -6,-6 V -18 c 0,-3.309 2.691,-6 6,-6 H -2 c 3.309,0 6,2.691 6,6 v 205.171 c 0,1.603 -0.624,3.11 -1.758,4.244" /></g></g></g></g></svg>