<?xml version="1.0" encoding="UTF-8" standalone="no"?>
<svg
   xmlns:dc="http://purl.org/dc/elements/1.1/"
   xmlns:cc="http://creativecommons.org/ns#"
   xmlns:rdf="http://www.w3.org/1999/02/22-rdf-syntax-ns#"
   xmlns:svg="http://www.w3.org/2000/svg"
   xmlns="http://www.w3.org/2000/svg"
   viewBox="0 0 170.66665 320"
   height="320"
   width="170.66666"
   xml:space="preserve"
   id="svg2"
   version="1.1"><metadata
     id="metadata8"><rdf:RDF><cc:Work
         rdf:about=""><dc:format>image/svg+xml</dc:format><dc:type
           rdf:resource="http://purl.org/dc/dcmitype/StillImage" /></cc:Work></rdf:RDF></metadata><defs
     id="defs6"><clipPath
       id="clipPath42"
       clipPathUnits="userSpaceOnUse"><path
         id="path40"
         d="M 0,256 H 256 V 0 H 0 Z" /></clipPath></defs><g
     transform="matrix(1.3333333,0,0,-1.3333333,-85.333331,330.66666)"
     id="g10"><path
       id="path12"
       style="fill:#ffffff;fill-opacity:1;fill-rule:nonzero;stroke:none"
       d="m 80,236 h -4 v -60 h 4 z" /><path
       id="path14"
       style="fill:#ffffff;fill-opacity:1;fill-rule:nonzero;stroke:none"
       d="m 88,236 h -4 v -60 h 4 z" /><path
       id="path16"
       style="fill:#ffffff;fill-opacity:1;fill-rule:nonzero;stroke:none"
       d="m 96,236 h -4 v -60 h 4 z" /><path
       id="path18"
       style="fill:#ffffff;fill-opacity:1;fill-rule:nonzero;stroke:none"
       d="m 104,236 h -4 v -60 h 4 z" /><path
       id="path20"
       style="fill:#ffffff;fill-opacity:1;fill-rule:nonzero;stroke:none"
       d="m 112,236 h -4 v -60 h 4 z" /><path
       id="path22"
       style="fill:#ffffff;fill-opacity:1;fill-rule:nonzero;stroke:none"
       d="m 120,236 h -4 v -60 h 4 z" /><path
       id="path24"
       style="fill:#ffffff;fill-opacity:1;fill-rule:nonzero;stroke:none"
       d="m 136,176 h 4 v 60 h -4 z" /><path
       id="path26"
       style="fill:#ffffff;fill-opacity:1;fill-rule:nonzero;stroke:none"
       d="m 144,176 h 4 v 60 h -4 z" /><path
       id="path28"
       style="fill:#ffffff;fill-opacity:1;fill-rule:nonzero;stroke:none"
       d="m 152,176 h 4 v 60 h -4 z" /><path
       id="path30"
       style="fill:#ffffff;fill-opacity:1;fill-rule:nonzero;stroke:none"
       d="m 160,176 h 4 v 60 h -4 z" /><path
       id="path32"
       style="fill:#ffffff;fill-opacity:1;fill-rule:nonzero;stroke:none"
       d="m 168,176 h 4 v 60 h -4 z" /><path
       id="path34"
       style="fill:#ffffff;fill-opacity:1;fill-rule:nonzero;stroke:none"
       d="m 176,176 h 4 v 60 h -4 z" /><g
       id="g36"><g
         clip-path="url(#clipPath42)"
         id="g38"><path
           id="path44"
           style="fill:#ffffff;fill-opacity:1;fill-rule:nonzero;stroke:none"
           d="m 132,244 h 56 V 168 H 132 Z M 188,52 h -4 -52 v 112 h 56 z m 0,-40 h -56 v 16.075 c 11.912,0.36 23.961,2.295 34.326,5.567 6.41,2.022 17.682,6.319 21.146,12.371 L 188,46.937 Z M 131.562,46.684 128.949,36 c -0.152,-0.456 -0.551,-0.684 -0.949,-0.684 -0.398,0 -0.797,0.228 -0.949,0.684 l -2.613,10.684 c -0.215,0.647 0.267,1.316 0.95,1.316 h 5.224 c 0.683,0 1.165,-0.669 0.95,-1.316 M 124,52 H 72 68 v 112 h 56 z m 0,-19.932 C 97.559,32.88 75.698,41.539 72,48 h 48.496 c -0.159,-0.776 -0.139,-1.587 0.081,-2.363 l 2.589,-10.587 0.039,-0.159 0.052,-0.156 c 0.173,-0.52 0.427,-0.996 0.743,-1.418 z M 124,12 H 68 v 34.937 l 0.528,-0.924 C 71.992,39.961 83.263,35.664 89.673,33.642 100.04,30.37 112.088,28.435 124,28.075 Z m 11.504,36 H 184 C 180.302,41.539 158.44,32.88 132,32.068 v 1.249 c 0.316,0.422 0.57,0.898 0.743,1.418 l 0.052,0.156 0.039,0.159 2.589,10.587 c 0.22,0.776 0.239,1.587 0.081,2.363 M 68,244 h 56 V 168 H 68 Z m 120,4 h -56 -4 -4 -56 -4 V 244 12 8 h 4 56 4 4 56 4 v 4 152 4 76 4 z" /></g></g></g></svg>