<?xml version="1.0" encoding="UTF-8" standalone="no"?>
<svg
   xmlns:dc="http://purl.org/dc/elements/1.1/"
   xmlns:cc="http://creativecommons.org/ns#"
   xmlns:rdf="http://www.w3.org/1999/02/22-rdf-syntax-ns#"
   xmlns:svg="http://www.w3.org/2000/svg"
   xmlns="http://www.w3.org/2000/svg"
   viewBox="0 0 320 261.33331"
   height="261.33331"
   width="320"
   xml:space="preserve"
   id="svg2"
   version="1.1"><metadata
     id="metadata8"><rdf:RDF><cc:Work
         rdf:about=""><dc:format>image/svg+xml</dc:format><dc:type
           rdf:resource="http://purl.org/dc/dcmitype/StillImage" /></cc:Work></rdf:RDF></metadata><defs
     id="defs6"><clipPath
       id="clipPath18"
       clipPathUnits="userSpaceOnUse"><path
         id="path16"
         d="M 0,256 H 256 V 0 H 0 Z" /></clipPath></defs><g
     transform="matrix(1.3333333,0,0,-1.3333333,-10.666666,301.33333)"
     id="g10"><g
       id="g12"><g
         clip-path="url(#clipPath18)"
         id="g14"><g
           transform="translate(128,60)"
           id="g20"><path
             id="path22"
             style="fill:#ffffff;fill-opacity:1;fill-rule:nonzero;stroke:none"
             d="M 0,0 H 95.525 109.885 112 V -26 H 0 Z m -112,-26 c -1.157,0 -2.199,11.548 -2.929,30 H -4 V 0 -26 Z m 0,188 h 224 c 2.209,0 4,-42.085 4,-94 0,-22.817 -0.347,-43.72 -0.922,-60 h -230.157 c -0.575,16.279 -0.921,37.189 -0.921,60 0,51.915 1.791,94 4,94 M 116,-26 V 0 2.015 c 1.328,0.565 2.919,1.583 3.004,3.836 C 119.646,23.042 120,45.113 120,68 c 0,25.163 -0.417,48.829 -1.175,66.638 -0.371,8.71 -0.804,15.565 -1.288,20.376 -0.259,2.573 -0.525,4.5 -0.814,5.891 C 115.663,166 112.906,166 112,166 h -224 c -3.663,0 -4.46,-3.835 -4.722,-5.095 -0.29,-1.391 -0.556,-3.318 -0.815,-5.891 -0.484,-4.811 -0.917,-11.666 -1.288,-20.376 C -119.583,116.829 -120,93.163 -120,68 c 0,-25.163 0.417,-48.829 1.175,-66.638 0.371,-8.71 0.804,-15.565 1.288,-20.376 0.259,-2.573 0.525,-4.5 0.815,-5.89 C -115.663,-30 -112.906,-30 -112,-30 h 108 4 112 4 z" /></g></g></g></g></svg>