<?xml version="1.0" encoding="UTF-8" standalone="no"?>
<svg
   xmlns:dc="http://purl.org/dc/elements/1.1/"
   xmlns:cc="http://creativecommons.org/ns#"
   xmlns:rdf="http://www.w3.org/1999/02/22-rdf-syntax-ns#"
   xmlns:svg="http://www.w3.org/2000/svg"
   xmlns="http://www.w3.org/2000/svg"
   viewBox="0 0 288 320"
   height="320"
   width="288"
   xml:space="preserve"
   id="svg2"
   version="1.1"><metadata
     id="metadata8"><rdf:RDF><cc:Work
         rdf:about=""><dc:format>image/svg+xml</dc:format><dc:type
           rdf:resource="http://purl.org/dc/dcmitype/StillImage" /></cc:Work></rdf:RDF></metadata><defs
     id="defs6"><clipPath
       id="clipPath30"
       clipPathUnits="userSpaceOnUse"><path
         id="path28"
         d="M 0,256 H 256 V 0 H 0 Z" /></clipPath></defs><g
     transform="matrix(1.3333333,0,0,-1.3333333,-26.666666,330.66666)"
     id="g10"><g
       transform="translate(108,28)"
       id="g12"><path
         id="path14"
         style="fill:#ffffff;fill-opacity:1;fill-rule:nonzero;stroke:none"
         d="m 0,0 h -4 -32 -4 v -4 -12 -4 h 4 32 4 v 4 12 z m -4,-16 h -32 v 12 h 32 z" /></g><g
       transform="translate(152,28)"
       id="g16"><path
         id="path18"
         style="fill:#ffffff;fill-opacity:1;fill-rule:nonzero;stroke:none"
         d="m 0,0 h -4 -40 -4 v -4 -12 -4 h 4 40 4 v 4 12 z m -4,-16 h -40 v 12 h 40 z" /></g><g
       transform="translate(188,28)"
       id="g20"><path
         id="path22"
         style="fill:#ffffff;fill-opacity:1;fill-rule:nonzero;stroke:none"
         d="m 0,0 h -4 -32 -4 v -4 -12 -4 h 4 32 4 v 4 12 z m -4,-16 h -32 v 12 h 32 z" /></g><g
       id="g24"><g
         clip-path="url(#clipPath30)"
         id="g26"><g
           transform="translate(128,246)"
           id="g32"><path
             id="path34"
             style="fill:#ffffff;fill-opacity:1;fill-rule:nonzero;stroke:none"
             d="m 0,0 c -4.411,0 -8,-3.589 -8,-8 0,-4.411 3.589,-8 8,-8 4.411,0 8,3.589 8,8 0,4.411 -3.589,8 -8,8 m 0,-4 c 2.209,0 4,-1.791 4,-4 0,-2.209 -1.791,-4 -4,-4 -2.209,0 -4,1.791 -4,4 0,2.209 1.791,4 4,4" /></g><g
           transform="translate(67,244)"
           id="g36"><path
             id="path38"
             style="fill:#ffffff;fill-opacity:1;fill-rule:nonzero;stroke:none"
             d="m 0,0 c -3.86,0 -7,-3.14 -7,-7 0,-3.86 3.14,-7 7,-7 3.86,0 7,3.14 7,7 0,3.86 -3.14,7 -7,7 m 0,-4 c 1.657,0 3,-1.343 3,-3 0,-1.657 -1.343,-3 -3,-3 -1.657,0 -3,1.343 -3,3 0,1.657 1.343,3 3,3" /></g><g
           transform="translate(189,244)"
           id="g40"><path
             id="path42"
             style="fill:#ffffff;fill-opacity:1;fill-rule:nonzero;stroke:none"
             d="m 0,0 c -3.859,0 -7,-3.14 -7,-7 0,-3.86 3.141,-7 7,-7 3.859,0 7,3.14 7,7 0,3.86 -3.141,7 -7,7 m 0,-4 c 1.657,0 3,-1.343 3,-3 0,-1.657 -1.343,-3 -3,-3 -1.657,0 -3,1.343 -3,3 0,1.657 1.343,3 3,3" /></g><g
           transform="translate(200,232)"
           id="g44"><path
             id="path46"
             style="fill:#ffffff;fill-opacity:1;fill-rule:nonzero;stroke:none"
             d="m 0,0 h -144 c -2.209,0 -4,-1.791 -4,-4 v -88 c 0,-2.209 1.791,-4 4,-4 H 0 c 2.209,0 4,1.791 4,4 V -4 C 4,-1.791 2.209,0 0,0 M 0,-92 H -144 V -4 H 0 Z" /></g><path
           id="path48"
           style="fill:#ffffff;fill-opacity:1;fill-rule:nonzero;stroke:none"
           d="M 196,224 H 60 v -80 h 136 z m -3.886,-76.19 H 63.885 v 72.381 h 128.229 z" /><g
           transform="translate(228,176)"
           id="g50"><path
             id="path52"
             style="fill:#ffffff;fill-opacity:1;fill-rule:nonzero;stroke:none"
             d="M 0,0 V -8 -20 H 4 V -8 0 Z" /></g><g
           transform="translate(224,140)"
           id="g54"><path
             id="path56"
             style="fill:#ffffff;fill-opacity:1;fill-rule:nonzero;stroke:none"
             d="m 0,0 h -192 c -6.617,0 -12,-5.383 -12,-12 0,-6.617 5.383,-12 12,-12 H 0 c 6.617,0 12,5.383 12,12 C 12,-5.383 6.617,0 0,0 m 0,-4 c 4.418,0 8,-3.582 8,-8 0,-4.418 -3.582,-8 -8,-8 h -192 c -4.418,0 -8,3.582 -8,8 0,4.418 3.582,8 8,8 H 0" /></g><path
           id="path58"
           style="fill:#ffffff;fill-opacity:1;fill-rule:nonzero;stroke:none"
           d="m 44,120 h -4 v 16 h 4 z" /><path
           id="path60"
           style="fill:#ffffff;fill-opacity:1;fill-rule:nonzero;stroke:none"
           d="m 216,120 h -4 v 16 h 4 z" /><g
           transform="translate(188,120)"
           id="g62"><path
             id="path64"
             style="fill:#ffffff;fill-opacity:1;fill-rule:nonzero;stroke:none"
             d="m 0,0 h -4 -112 -4 v -4 -88 -4 h 4 112 4 v 4 88 z M -4,-92 H -116 V -4 H -4 Z" /></g><g
           transform="translate(45,112.8828)"
           id="g66"><path
             id="path68"
             style="fill:#ffffff;fill-opacity:1;fill-rule:nonzero;stroke:none"
             d="m 0,0 c -10.477,0 -19,-8.523 -19,-19 0,-10.478 8.523,-19 19,-19 10.477,0 19,8.522 19,19 C 19,-8.523 10.477,0 0,0 m 0,-4 c 8.284,0 15,-6.716 15,-15 0,-8.285 -6.716,-15 -15,-15 -8.284,0 -15,6.715 -15,15 0,8.284 6.716,15 15,15" /></g><g
           transform="translate(45,86.3828)"
           id="g70"><path
             id="path72"
             style="fill:#ffffff;fill-opacity:1;fill-rule:nonzero;stroke:none"
             d="M 0,0 C -4.142,0 -7.5,3.357 -7.5,7.5 -7.5,11.642 -4.142,15 0,15 4.142,15 7.5,11.642 7.5,7.5 7.5,3.357 4.142,0 0,0 m 0,17.5 c -5.523,0 -10,-4.478 -10,-10 0,-5.523 4.477,-10 10,-10 5.523,0 10,4.477 10,10 0,5.522 -4.477,10 -10,10" /></g><g
           transform="translate(47.647,76.7061)"
           id="g74"><path
             id="path76"
             style="fill:#ffffff;fill-opacity:1;fill-rule:nonzero;stroke:none"
             d="m 0,0 h -5.294 c -2.692,0 -4.882,-2.19 -4.882,-4.883 v -3.94 h -3.942 c -2.692,0 -4.882,-2.191 -4.882,-4.883 V -19 c 0,-2.692 2.19,-4.883 4.882,-4.883 h 3.942 v -3.94 c 0,-2.693 2.19,-4.883 4.882,-4.883 H 0 c 2.692,0 4.882,2.19 4.882,4.883 v 3.94 h 3.942 c 2.692,0 4.882,2.191 4.882,4.883 v 5.294 c 0,2.692 -2.19,4.883 -4.882,4.883 H 4.882 v 3.94 C 4.882,-2.19 2.692,0 0,0 m 0,-4 c 0.487,0 0.882,-0.396 0.882,-0.883 v -7.94 h 7.942 c 0.487,0 0.882,-0.396 0.882,-0.883 V -19 c 0,-0.487 -0.395,-0.883 -0.882,-0.883 H 0.882 v -7.94 c 0,-0.488 -0.395,-0.883 -0.882,-0.883 h -5.294 c -0.487,0 -0.882,0.395 -0.882,0.883 v 7.94 h -7.942 c -0.487,0 -0.882,0.396 -0.882,0.883 v 5.294 c 0,0.487 0.395,0.883 0.882,0.883 h 7.942 v 7.94 c 0,0.487 0.395,0.883 0.882,0.883 H 0" /></g><g
           transform="translate(200,34)"
           id="g78"><path
             id="path80"
             style="fill:#ffffff;fill-opacity:1;fill-rule:nonzero;stroke:none"
             d="m 0,0 c -4.411,0 -8,-3.589 -8,-8 0,-4.411 3.589,-8 8,-8 4.411,0 8,3.589 8,8 0,4.411 -3.589,8 -8,8 m 0,-4 c 2.209,0 4,-1.791 4,-4 0,-2.209 -1.791,-4 -4,-4 -2.209,0 -4,1.791 -4,4 0,2.209 1.791,4 4,4" /></g><g
           transform="translate(210,107)"
           id="g82"><path
             id="path84"
             style="fill:#ffffff;fill-opacity:1;fill-rule:nonzero;stroke:none"
             d="m 0,0 c -4.963,0 -9,-4.037 -9,-9 0,-4.963 4.037,-9 9,-9 4.963,0 9,4.037 9,9 0,4.963 -4.037,9 -9,9 m 0,-4 c 2.762,0 5,-2.238 5,-5 0,-2.762 -2.238,-5 -5,-5 -2.762,0 -5,2.238 -5,5 0,2.762 2.238,5 5,5" /></g><g
           transform="translate(210,86)"
           id="g86"><path
             id="path88"
             style="fill:#ffffff;fill-opacity:1;fill-rule:nonzero;stroke:none"
             d="m 0,0 c -4.963,0 -9,-4.037 -9,-9 0,-4.963 4.037,-9 9,-9 4.963,0 9,4.037 9,9 0,4.963 -4.037,9 -9,9 m 0,-4 c 2.762,0 5,-2.238 5,-5 0,-2.762 -2.238,-5 -5,-5 -2.762,0 -5,2.238 -5,5 0,2.762 2.238,5 5,5" /></g><g
           transform="translate(220.5,96)"
           id="g90"><path
             id="path92"
             style="fill:#ffffff;fill-opacity:1;fill-rule:nonzero;stroke:none"
             d="m 0,0 c -4.963,0 -9,-4.037 -9,-9 0,-4.963 4.037,-9 9,-9 4.963,0 9,4.037 9,9 0,4.963 -4.037,9 -9,9 m 0,-4 c 2.762,0 5,-2.238 5,-5 0,-2.762 -2.238,-5 -5,-5 -2.762,0 -5,2.238 -5,5 0,2.762 2.238,5 5,5" /></g><g
           transform="translate(199.5,96)"
           id="g94"><path
             id="path96"
             style="fill:#ffffff;fill-opacity:1;fill-rule:nonzero;stroke:none"
             d="m 0,0 c -4.963,0 -9,-4.037 -9,-9 0,-4.963 4.037,-9 9,-9 4.963,0 9,4.037 9,9 0,4.963 -4.037,9 -9,9 m 0,-4 c 2.762,0 5,-2.238 5,-5 0,-2.762 -2.238,-5 -5,-5 -2.762,0 -5,2.238 -5,5 0,2.762 2.238,5 5,5" /></g><g
           transform="translate(232,132)"
           id="g98"><path
             id="path100"
             style="fill:#ffffff;fill-opacity:1;fill-rule:nonzero;stroke:none"
             d="m 0,0 v -4 -12 -84 c 0,-11.046 -8.954,-20 -20,-20 h -168 c -11.046,0 -20,8.954 -20,20 v 84 12 4 c -2.209,0 -4,-1.791 -4,-4 v -96 c 0,-13.255 10.745,-24 24,-24 h 168 c 13.255,0 24,10.745 24,24 V -4 C 4,-1.791 2.209,0 0,0" /></g><g
           transform="translate(216,248)"
           id="g102"><path
             id="path104"
             style="fill:#ffffff;fill-opacity:1;fill-rule:nonzero;stroke:none"
             d="m 0,0 h -176 c -11.028,0 -20,-8.972 -20,-20 v -90 c 0,-2.606 1.673,-4.824 4,-5.65 v 5.65 2 88 c 0,8.836 7.164,16 16,16 H 0 c 8.837,0 16,-7.164 16,-16 v -88 -2 -5.65 c 2.326,0.826 4,3.044 4,5.65 v 90 C 20,-8.972 11.028,0 0,0" /></g></g></g></g></svg>