<?xml version="1.0" encoding="utf-8"?>
<!-- Generator: Adobe Illustrator 26.0.1, SVG Export Plug-In . SVG Version: 6.00 Build 0)  -->
<svg version="1.1" id="Layer_1" xmlns="http://www.w3.org/2000/svg" xmlns:xlink="http://www.w3.org/1999/xlink" x="0px" y="0px"
	 viewBox="0 0 3839 1253.7" style="enable-background:new 0 0 3839 1253.7;" xml:space="preserve">
<style type="text/css">
	.st0{fill:#FFFFFF;}
	.st1{fill:url(#SVGID_1_);}
</style>
<g>
	<g>
		<path class="st0" d="M1090.9,1252.3c-41.9,0-76-34.1-76-76v-587c0-13.7,11.1-24.8,24.8-24.8h272.7c13.7,0,24.8,11.1,24.8,24.8
			v638.2c0,13.7-11.1,24.8-24.8,24.8L1090.9,1252.3L1090.9,1252.3z"/>
		<path class="st0" d="M1938.1,1252.3c-41.9,0-76-34.1-76-76v-587c0-13.7,11.1-24.8,24.8-24.8h271.9c13.7,0,24.8,11.1,24.8,24.8
			v638.2c0,13.7-11.1,24.8-24.8,24.8L1938.1,1252.3L1938.1,1252.3z"/>
		<path class="st0" d="M1229,1252.3c-13.7,0-24.8-11.1-24.8-24.8V978.1c0-13.7,11.1-24.8,24.8-24.8h15.7
			c-26.1-38.8-40.5-84.8-40.5-132.1v-20.2c0-130.5,106.1-236.5,236.5-236.5h512.8c13.7,0,24.8,11.1,24.8,24.8v249.3
			c0,13.4-10.6,24.2-23.8,24.8c26.1,38.8,40.5,84.8,40.5,132.1v20.2c0,130.5-106.1,236.5-236.5,236.5H1229z"/>
		<path class="st0" d="M835.2,690.5c-129.4,0-234.5-105.2-234.5-234.5V234.5C600.6,105.2,705.8,0,835.2,0l391.3,0.4
			c129.2,0.1,234.2,105.4,234.2,234.5v221c0,129.4-105.2,234.5-234.5,234.5H835.2z M1139.2,389.5v-90.7h-217v90.7L1139.2,389.5
			L1139.2,389.5z"/>
		<path class="st0" d="M3213.5,691.8c-129.4,0-234.5-105.2-234.5-234.5V235.7c0-129.4,105.2-234.5,234.5-234.5l391.3,0.4
			C3733.9,1.8,3839,107,3839,236.1v221c0,129.4-105.2,234.5-234.5,234.5L3213.5,691.8L3213.5,691.8z M3517.5,390.7V300h-217v90.7
			H3517.5z"/>
		<path class="st0" d="M2285.3,1253.7c-129.4,0-234.5-105.2-234.5-234.5V797.7c0-129.4,105.2-234.5,234.5-234.5l391.3,0.4
			c129.2,0.1,234.2,105.4,234.2,234.5v221c0,129.4-105.2,234.5-234.5,234.5H2285.3z M2589.3,952.6v-90.7h-217v90.7H2589.3z"/>
		<path class="st0" d="M234.5,691.8C105.2,691.8,0,586.5,0,457.3V235.7C0,106.5,105.2,1.2,234.5,1.2l433.1,0.2
			c41.9,0,75.9,34.1,75.9,76v197.8c0,13.7-11.1,24.8-24.8,24.8H321.5v90.7h397.2c13.7,0,24.8,11.1,24.8,24.8L792.3,667
			c0,13.7-11.1,24.8-24.8,24.8L234.5,691.8L234.5,691.8z"/>
		<path class="st0" d="M2612.9,691.8c-129.4,0-234.5-105.2-234.5-234.5V235.7c0-129.4,105.2-234.5,234.5-234.5L3046,1.4
			c41.9,0,75.9,34.1,75.9,76v197.8c0,13.7-11.1,24.8-24.8,24.8h-397.2v90.7h397.2c13.7,0,24.8,11.1,24.8,24.8V667
			c0,13.7-11.1,24.8-24.8,24.8L2612.9,691.8L2612.9,691.8z"/>
		<path class="st0" d="M1552.2,690.8c-129.4,0-234.5-105.2-234.5-234.5V26.6c0-13.7,11.1-24.8,24.8-24.8h220.8c41.9,0,76,34.1,76,76
			v312h257.2c13.7,0,24.8,11.1,24.8,24.8v251.5c0,13.7-11.1,24.8-24.8,24.8L1552.2,690.8L1552.2,690.8z"/>
		<path class="st0" d="M2012.6,691.8c-129.4,0-234.5-105.2-234.5-234.5V25.9c0-6.6,2.6-12.9,7.3-17.5c4.6-4.6,11-7.3,17.5-7.3
			l642.8,0.4c41.9,0,75.9,34.1,75.9,76v197.8c0,13.7-11.1,24.8-24.8,24.8h-11.4v90.7h11.4c13.7,0,24.8,11.1,24.8,24.8v251.5
			c0,13.7-11.1,24.8-24.8,24.8L2012.6,691.8L2012.6,691.8z"/>
		<path class="st0" d="M3391.4,1250.5c-41.4-0.5-75.1-34.5-75.1-76V861.9h-217v365.6c0,13.7-11.1,24.8-24.8,24.8h-220.8
			c-41.9,0-76-34.1-76-76V587.9c0-13.7,11.1-24.8,24.8-24.8h266.7c0.6,0,1.2,0,1.7,0.1l332.6,0.3c129.2,0.1,234.2,105.4,234.2,234.5
			v430.2c0,6.6-2.7,13-7.4,17.6c-4.6,4.6-10.9,7.2-17.4,7.2C3613,1253,3391.4,1250.5,3391.4,1250.5z"/>
		<path class="st0" d="M546.1,1252.3c-8.9,0-17-4.7-21.5-12.4L156.1,601.6c-4.4-7.7-4.4-17.1,0-24.8s12.6-12.4,21.5-12.4h314
			c8.9,0,17,4.7,21.5,12.4l159.4,276l159.4-276c4.4-7.7,12.6-12.4,21.5-12.4h314c8.9,0,17,4.7,21.5,12.4c4.4,7.7,4.4,17.1,0,24.8
			l-368.5,638.2c-4.4,7.7-12.6,12.4-21.5,12.4H546.1z"/>
	</g>
	<g>
		<g>
			<path d="M1039.7,1176.4V589.2h272.7v638.2h-221.6C1062.6,1227.5,1039.7,1204.6,1039.7,1176.4z"/>
			<path d="M1887,1176.4V589.2h271.9v638.2h-220.8C1909.9,1227.5,1887,1204.6,1887,1176.4z"/>
			<path d="M1229,1227.5V978.1h69.7c-42.8-38.8-69.7-94.8-69.7-156.9v-20.2c0-116.8,95-211.7,211.7-211.7h512.8v249.3h-53
				c42.8,38.8,69.7,94.8,69.7,156.9v20.2c0,116.8-95,211.7-211.7,211.7H1229z"/>
			<path d="M835.2,665.7c-115.7,0-209.7-94.1-209.7-209.7V234.5c0-115.7,94.1-209.7,209.7-209.7l391.3,0.4
				c115.6,0.1,209.5,94.2,209.5,209.7v221c0,115.7-94.1,209.7-209.7,209.7H835.2z"/>
			<path d="M3213.5,667c-115.7,0-209.7-94.1-209.7-209.7V235.7c0-115.7,94.1-209.7,209.7-209.7l391.3,0.4
				c115.6,0.1,209.5,94.2,209.5,209.7v221c0,115.7-94.1,209.7-209.7,209.7L3213.5,667L3213.5,667z"/>
			<path d="M2285.3,1228.9c-115.7,0-209.7-94.1-209.7-209.7V797.7c0-115.7,94.1-209.7,209.7-209.7l391.3,0.4
				c115.6,0.1,209.5,94.2,209.5,209.7v221c0,115.7-94.1,209.7-209.7,209.7L2285.3,1228.9L2285.3,1228.9z"/>
			<path d="M234.5,667c-115.9,0-209.7-93.9-209.7-209.7V235.7C24.8,120.2,118.9,26,234.5,26l433.1,0.2c28.2,0,51.1,22.9,51.1,51.2
				L855.3,667H234.5z"/>
			<path d="M2612.9,667c-115.9,0-209.7-93.9-209.7-209.7V235.7c0-115.7,94.1-209.7,209.7-209.7l433.1,0.2
				c28.2,0,51.1,22.9,51.1,51.2v338.1V667H2612.9z"/>
			<path d="M1552.2,666c-115.9,0-209.7-93.9-209.7-209.7V26.6h220.8c28.3,0,51.2,22.9,51.2,51.2v336.7h282V666L1552.2,666
				L1552.2,666z"/>
			<path d="M2012.6,667c-115.9,0-209.7-93.9-209.7-209.7V25.9l642.8,0.4c28.2,0,51.1,22.9,51.1,51.2v197.8h-36.2v140.3h36.2v251.5
				h-484.2V667z"/>
			<path d="M3341.1,1174.5V837.1h-266.6v390.4h-220.8c-28.3,0-51.2-22.9-51.2-51.2V587.9h266.7v0.1l334.3,0.3
				c115.8,0.1,209.5,94,209.5,209.7v430.2l-221.4-2.5C3363.6,1225.4,3341.1,1202.6,3341.1,1174.5z"/>
			<polygon points="546.1,1227.5 177.6,589.2 491.6,589.2 672.4,902.5 853.3,589.2 1167.3,589.2 798.8,1227.5 			"/>
		</g>
		<rect x="1363.8" y="573" width="45.9" height="45.9"/>
	</g>
	<g>
		<g>
			
				<linearGradient id="SVGID_1_" gradientUnits="userSpaceOnUse" x1="84.9779" y1="-3138.8977" x2="3754.0225" y2="-3138.8977" gradientTransform="matrix(1 0 0 -1 0 -2512.061)">
				<stop  offset="0" style="stop-color:#D81526"/>
				<stop  offset="0.25" style="stop-color:#DE551E"/>
				<stop  offset="0.5" style="stop-color:#EEB824"/>
				<stop  offset="0.75" style="stop-color:#75B230"/>
				<stop  offset="1" style="stop-color:#49A070"/>
			</linearGradient>
			<path class="st1" d="M835.2,605.5h391c82.6,0,149.6-67,149.6-149.6v-221c0-82.6-66.9-149.5-149.4-149.6L835.3,85
				c-82.7-0.1-149.8,66.9-149.8,149.6V456C685.6,538.6,752.6,605.5,835.2,605.5z M837.2,271.8c0-32,26-58,58-58h270.9
				c32,0,58,26,58,58v144.6c0,32-26,58-58,58H895.2c-32,0-58-26-58-58V271.8z M3604.7,86.6l-391-0.4
				c-82.7-0.1-149.8,66.9-149.8,149.6v221.4c0,82.6,67,149.6,149.6,149.6h391c82.6,0,149.6-67,149.6-149.6v-221
				C3754,153.7,3687.1,86.7,3604.7,86.6z M3602.5,417.7c0,32-26,58-58,58h-270.9c-32,0-58-26-58-58V273c0-32,26-58,58-58h270.9
				c32,0,58,26,58,58V417.7z M658.5,475.7H294.6c-32,0-58-26-58-58V273c0-32,26-58,58-58h363.9V86.4l-423.9-0.2
				c-82.6,0-149.7,67-149.7,149.6v221.4c0,82.7,67,149.7,149.6,149.7h424V475.7z M2612.9,606.8h424V475.7H2673c-32,0-58-26-58-58
				V273c0-32,26-58,58-58h363.9V86.4L2613,86.2c-82.7-0.1-149.8,66.9-149.8,149.6v221.4C2463.4,539.9,2530.3,606.8,2612.9,606.8z
				 M1552.2,605.8h284V474.7h-223.9c-32,0-58-26-58-58V86.8h-151.7v369.5C1402.6,538.9,1469.5,605.8,1552.2,605.8z M2012.6,606.8
				h424V475.7h-383.2c-21.4,0-38.8-17.4-38.8-38.8l0,0c0-21.4,17.4-38.8,38.8-38.8h347V294.8h-345.9c-22,0-39.9-17.9-39.9-39.9
				s17.9-39.9,39.9-39.9h382.1V86.4L1863,86v371.2C1863,539.9,1929.9,606.8,2012.6,606.8z M1099.9,1167.3h152.4V649.4h-152.4V1167.3
				z M1947.2,1167.3h151.6V649.4h-151.6L1947.2,1167.3L1947.2,1167.3z M1758.4,843.9h-284.9c-18.1,0-32.7-14.7-32.7-32.7l0,0
				c0-18.1,14.7-32.7,32.7-32.7h419.8v-129h-452.5c-83.7,0-151.6,67.9-151.6,151.6v20.2c0,83.7,67.9,151.6,151.6,151.6h284.9
				c18.1,0,32.7,14.7,32.7,32.7c0,18-14.7,32.7-32.7,32.7h-436.5v129h469.2c83.7,0,151.6-67.9,151.6-151.6v-20.2
				C1910,911.8,1842.1,843.9,1758.4,843.9z M2676.5,648.5l-391-0.4c-82.7-0.1-149.8,66.9-149.8,149.6v221.4
				c0,82.6,67,149.6,149.6,149.6h391c82.6,0,149.6-67,149.6-149.6v-221C2825.9,715.5,2759,648.5,2676.5,648.5z M2674.3,979.5
				c0,32-26,58-58,58h-270.9c-32,0-58-26-58-58V835c0-32,26-58,58-58h270.9c32,0,58,26,58,58V979.5z M3403.5,648.5l-391-0.4
				c-1.1,0-2.3,0.1-3.4,0.2v-0.2h-146.4v519.3h151.6V835c0-32,26-58,58-58h270.9c32,0,58,26,58,58v330.7l151.6,1.7V798.1
				C3552.9,715.5,3486,648.5,3403.5,648.5z M672.4,1022.8L456.8,649.4H281.7l299,517.9H764l299-517.9H888L672.4,1022.8z"/>
		</g>
	</g>
</g>
</svg>
