<?xml version="1.0" encoding="UTF-8"?>
<svg xmlns="http://www.w3.org/2000/svg" xmlns:xlink="http://www.w3.org/1999/xlink" width="25px" height="18px" viewBox="0 0 24 18" version="1.1">
<g id="surface1">
<path style=" stroke:none;fill-rule:nonzero;fill:rgb(80.392157%,12.54902%,12.156863%);fill-opacity:1;" d="M 9.941406 17.75 C 5.367188 17.660156 3.808594 17.582031 2.847656 17.375 C 2.195312 17.234375 1.632812 16.929688 1.222656 16.480469 C 0.902344 16.144531 0.648438 15.628906 0.449219 14.914062 C 0.28125 14.316406 0.214844 13.824219 0.117188 12.613281 C -0.0234375 9.886719 -0.0585938 7.652344 0.117188 5.160156 C 0.269531 3.777344 0.339844 2.144531 1.316406 1.1875 C 1.773438 0.746094 2.3125 0.457031 2.914062 0.339844 C 3.851562 0.148438 7.863281 0 12.007812 0 C 16.148438 0 20.164062 0.148438 21.101562 0.339844 C 21.855469 0.484375 22.5625 0.933594 22.976562 1.507812 C 23.867188 2.984375 23.882812 4.820312 23.972656 6.257812 C 24.007812 6.941406 24.007812 10.832031 23.972656 11.515625 C 23.832031 13.785156 23.71875 14.585938 23.398438 15.421875 C 23.199219 15.945312 23.035156 16.222656 22.742188 16.53125 C 22.28125 17.003906 21.695312 17.320312 21.066406 17.433594 C 17.113281 17.746094 13.753906 17.816406 9.941406 17.75 Z M 15.996094 8.628906 C 13.796875 7.390625 11.691406 6.238281 9.539062 5.050781 L 9.539062 12.171875 C 11.804688 10.871094 14.191406 9.679688 16.007812 8.621094 Z M 15.996094 8.628906 "/>
</g>
</svg>
