<?xml version="1.0" encoding="UTF-8"?>
<svg xmlns="http://www.w3.org/2000/svg" xmlns:xlink="http://www.w3.org/1999/xlink" width="30px" height="21px" viewBox="0 0 29 21" version="1.1">
<g id="surface1">
<path style=" stroke:none;fill-rule:nonzero;fill:rgb(100%,100%,100%);fill-opacity:1;" d="M 19.316406 10.195312 C 16.660156 8.730469 14.113281 7.382812 11.511719 5.976562 L 11.511719 14.386719 C 14.25 12.851562 17.136719 11.449219 19.328125 10.195312 Z M 19.316406 10.195312 "/>
<path style=" stroke:none;fill-rule:nonzero;fill:rgb(90.980392%,87.843137%,87.843137%);fill-opacity:1;" d="M 19.316406 10.195312 C 16.660156 8.730469 11.511719 5.976562 11.511719 5.976562 L 18.375 10.734375 C 18.375 10.734375 17.125 11.449219 19.316406 10.195312 Z M 19.316406 10.195312 "/>
<path style=" stroke:none;fill-rule:nonzero;fill:rgb(80.392157%,12.54902%,12.156863%);fill-opacity:1;" d="M 12.011719 20.972656 C 6.488281 20.867188 4.601562 20.773438 3.441406 20.527344 C 2.65625 20.363281 1.976562 20 1.476562 19.472656 C 1.089844 19.074219 0.78125 18.464844 0.542969 17.621094 C 0.339844 16.917969 0.261719 16.332031 0.144531 14.902344 C -0.0273438 11.679688 -0.0703125 9.039062 0.144531 6.09375 C 0.324219 4.464844 0.410156 2.535156 1.589844 1.40625 C 2.144531 0.878906 2.792969 0.539062 3.519531 0.398438 C 4.65625 0.175781 9.5 0 14.511719 0 C 19.511719 0 24.363281 0.175781 25.5 0.398438 C 26.410156 0.574219 27.261719 1.101562 27.761719 1.78125 C 28.839844 3.527344 28.855469 5.695312 28.964844 7.394531 C 29.011719 8.203125 29.011719 12.796875 28.964844 13.605469 C 28.796875 16.285156 28.660156 17.234375 28.273438 18.21875 C 28.035156 18.839844 27.832031 19.167969 27.476562 19.53125 C 26.921875 20.089844 26.21875 20.460938 25.453125 20.597656 C 20.675781 20.96875 16.617188 21.046875 12.011719 20.972656 Z M 19.328125 10.195312 C 16.671875 8.730469 14.125 7.371094 11.523438 5.964844 L 11.523438 14.378906 C 14.261719 12.84375 17.148438 11.4375 19.339844 10.183594 Z M 19.328125 10.195312 "/>
</g>
</svg>
