<?xml version="1.0" encoding="UTF-8"?>
<svg xmlns="http://www.w3.org/2000/svg" xmlns:xlink="http://www.w3.org/1999/xlink" width="30px" height="22px" viewBox="0 0 30 22" version="1.1">
<g id="surface1">
<path style=" stroke:none;fill-rule:nonzero;fill:rgb(80.392157%,12.54902%,12.156863%);fill-opacity:1;" d="M 12.425781 21.695312 C 6.710938 21.585938 4.761719 21.488281 3.558594 21.234375 C 2.746094 21.066406 2.042969 20.691406 1.527344 20.144531 C 1.128906 19.730469 0.808594 19.101562 0.5625 18.230469 C 0.351562 17.5 0.269531 16.894531 0.148438 15.417969 C -0.0273438 12.082031 -0.0742188 9.351562 0.148438 6.304688 C 0.335938 4.617188 0.425781 2.621094 1.644531 1.453125 C 2.21875 0.910156 2.890625 0.558594 3.640625 0.414062 C 4.816406 0.183594 9.828125 0 15.011719 0 C 20.183594 0 25.203125 0.183594 26.378906 0.414062 C 27.320312 0.59375 28.203125 1.140625 28.71875 1.84375 C 29.835938 3.648438 29.851562 5.890625 29.964844 7.648438 C 30.011719 8.484375 30.011719 13.238281 29.964844 14.074219 C 29.789062 16.847656 29.648438 17.828125 29.25 18.847656 C 29 19.488281 28.792969 19.828125 28.425781 20.203125 C 27.851562 20.78125 27.121094 21.167969 26.332031 21.308594 C 21.390625 21.691406 17.191406 21.773438 12.425781 21.695312 Z M 19.996094 10.546875 C 17.246094 9.03125 14.613281 7.625 11.921875 6.171875 L 11.921875 14.875 C 14.753906 13.285156 17.738281 11.832031 20.007812 10.535156 Z M 19.996094 10.546875 "/>
</g>
</svg>
