<?xml version="1.0" encoding="utf-8"?>
<!-- Generator: Adobe Illustrator 26.0.1, SVG Export Plug-In . SVG Version: 6.00 Build 0)  -->
<svg version="1.1" id="Layer_1" xmlns="http://www.w3.org/2000/svg" xmlns:xlink="http://www.w3.org/1999/xlink" x="0px" y="0px"
	 viewBox="0 0 2857.4 2159" style="enable-background:new 0 0 2857.4 2159;" xml:space="preserve">
<style type="text/css">
	.st0{fill:#F05100;}
	.st1{fill:#39689C;}
	.st2{fill:#CF3312;}
	.st3{fill:#FFFFFF;}
</style>
<g id="g10_00000119081871470102156130000014287217374063881635_" transform="matrix(1.3333333,0,0,-1.3333333,0,269.33333)">
	<g id="g12_00000096026727101762389840000008542147534222388102_" transform="scale(0.1)">
		<path id="path14_00000085212140296855536230000007871610876966813089_" d="M102.8-10894.1c0,119.8-22.7,274.7-75.6,339.9
			c346.5,0,1094.9-2.3,1415.7-2.3c738.1,0,1851.8-409.7,1851.8-1790.9c0-1025.1-786.1-1788.9-1851.8-1788.9
			c-233.7,0-1126.3,2.8-1442.9,2.8c64.9,119.9,102.8,282.4,102.8,410.7V-10894.1z M633.5-13785.5c340.7-44.1,655.2-57.6,939.8-16.9
			c275.4,39.3,1200.5,238.5,1194.7,1466.9c-5.4,1164.1-724.3,1430.1-1278.3,1462.6c-289,17-568.1,6.2-856.2-43.8L633.5-13785.5"/>
		<path id="path16_00000065763676373500172540000010251051300532609978_" d="M3598.6-11654.1l530.3,82.8c0-108.5,0-427,0-467
			c136,336.2,559.3,606.3,1160.9,372.2l-141.1-369.2c-550.6,261.1-1019.8,32.1-1019.8-579.3v-1261.6c0-60,13-181.2,49-258.9h-551
			c55.7,68.6,81.4,199,81.4,258.9v1819.9C3708.3-11924.3,3681.5-11720,3598.6-11654.1"/>
		<path id="path18_00000101067004736220040000000012246197766457067693_" d="M20366.2-11907.2c0-34.4,0-1501.6,0-1611.4
			c0-505.6,348.7-640.9,607-640.9c109.3-5.4,263.9,20.1,372,44.1l66.7,312.2c-126.1-48-272.5-59.5-360.2-59.5
			c-162,0-279.1,107.5-279.1,275.6c0,150.9-3.9,1629.9,0,1677.2h-1.8c21.6,0,357.4,1.2,391.4,0c110.3-3.9,194.8-10.6,267.6-39.9
			l0.4,294.1c0,0-645.3,0.8-657.6,0.8l2.7,754.2l-489-135.1c67.6-63,89.5-247.6,89.5-369.2c0,0-0.3-225.3-0.3-252.5
			c-22.1,0-270.1-1.1-311.3-1.1v-248.5C20107.4-11907.1,20366.2-11907.2,20366.2-11907.2"/>
		<path id="path20_00000077312061238708562990000006937531435657272498_" d="M18253.6-13611.1c210.1-150.1,539.8-283.2,781.6-283.2
			c335.6,0,575.7,163.1,575.7,470.4c0,567-1293,473.2-1293,1192.6c0,486.4,435,669.4,849.5,669.4c133.3,0,437.3-28.9,630.8-103.6
			l-1.5-332.2c-171.6,146.7-433.9,182.4-606.7,182.4c-274.2,0-480.2-136.1-480.2-402.9c0-392,1291.8-369.3,1291.8-1173.6
			c0-520.1-450.7-762.7-946.6-762.7c-241.8,0-493.5,42.9-703.4,102.8L18253.6-13611.1"/>
		<path id="path22_00000090978692329342441780000003179662992602428545_" d="M10450-11912.3c0,29.4,1.1,292.9,1.1,326.6l-537-83
			c64.8-67.8,114.4-279.4,114.4-430.5v-1759.5c0-60-25.7-205.6-81.4-274.1h585.5c-55.7,68.6-81.4,214.2-81.4,274.1v1323.9
			c0,484.4,299.6,653.8,597.8,653.8c270,0,513.9-116.9,513.9-653.8v-1323.9c0-60-25.7-205.6-81.4-274.1h567.8
			c-55.7,68.6-81.4,214.2-81.4,274.1v1323.9c0,537,331.9,653.8,602.1,653.8c269.9,0,552.4-169.5,552.4-653.8v-1323.9
			c0-60-25.8-205.6-81.4-274.1h546.6c-55.7,68.6-81.4,214.2-81.4,274.1v1575.2c0,268.5-273.8,698.6-913.6,698.6
			c-372,0-586.9-165.4-750.2-308c-138.7,162-364.6,313.9-727.6,313.9C10760.9-11578.9,10552.1-11786.2,10450-11912.3L10450-11912.3"
			/>
		<path id="path24_00000031204371189139428630000016878516055983548827_" d="M9183.9-12737.7c-76.6-72.1-237.1-128.1-402.7-149.8
			c-435.2-57.1-812.2-129.4-812.2-553.3c0-251.4,273.9-449.5,491.1-449.5c575.2,0,723.8,414.9,723.8,741.9L9183.9-12737.7z
			 M7825.2-11700.1c219.6,88,573.8,128.4,795.9,128.4c567.3,0,944.1-283.4,944.1-941.5v-1091.4c0-202.4,3-393.6,75.1-528.1h-456
			l-16.4,287.1c-172.8-222.9-378.9-322.7-729.2-322.7c-690.8,0-841.8,472.1-841.8,699.1c0,809.6,770.6,819.1,1105.2,866.7
			c185.1,26.3,423.5,78.6,459.2,252.1c59.2,287.2-146.2,502.5-565.7,502.5c-307.8,0-559.9-93.6-770.5-219.6L7825.2-11700.1z
			 M17626.7-12737.7c-76.6-72.1-237.1-128.1-402.7-149.8c-435.2-57.1-812.2-129.4-812.2-553.3c0-251.4,273.9-449.5,491.2-449.5
			c575.2,0,723.8,414.9,723.8,741.9V-12737.7z M16268-11700.1c219.6,88,573.7,128.4,795.8,128.4c567.4,0,944.2-283.4,944.2-941.5
			v-1091.4c0-202.4-44.2-389.5,75-528.1h-456l-16.4,287.1c-172.8-222.9-378.9-322.7-729.2-322.7c-690.9,0-841.7,472.1-841.7,699.1
			c0,809.6,770.5,819.1,1105.1,866.7c185.1,26.3,423.5,78.6,459.2,252.1c59.2,287.2-146.2,502.5-565.7,502.5
			c-307.8,0-559.9-93.6-770.4-219.6L16268-11700.1"/>
		<path id="path26_00000133518003287607786320000007826833536634614918_" d="M15782.6-12034.9c-171.2,99.9-441.2,179.1-629.6,179.1
			c-661,0-964.1-406.7-964.1-992.4c0-580.2,296.1-1024.5,942.9-1024.5c221.7,0,523.6,99.3,757.7,243.4l-95.3-426.9
			c-238.4-70.8-439.2-104.6-705.2-104.6c-908.9,0-1334.8,644.5-1334.8,1315.2c0,741.5,571.4,1262.7,1344.6,1262.7
			c338,0,584.9-82.9,684.6-111.2L15782.6-12034.9"/>
		<path id="path28_00000171704681705628186580000007310925672181128079_" d="M5608.6-12879.2c0.3,61.3,8.4,119.8,15.4,176.2h1758.4
			c0,604.6-302.2,1123.2-1018.6,1123.2c-743.4,0-1184.8-581.4-1184.8-1322.9c0-670.7,491.4-1269.8,1333-1269.8
			c266,0,488.6,65.6,728.7,149.6l84.6,428.7c-205.3-169.1-537.4-269.1-837-269.1C5949.6-13863.3,5606.1-13473.4,5608.6-12879.2z
			 M5679.5-12434.7c57,294.2,329.2,593.8,655,593.8c497.7,0,641.7-388.4,641.7-593.8C6976.2-12434.7,5679.5-12435.6,5679.5-12434.7"
			/>
		<path id="path34_00000044142107811299981080000011306777866633901461_" class="st0" d="M12665.6,1860.9
			c488.8-73.4,987.9-244,1248.2-323.7c524.2-160.3,1375.6-658.4,1676.2-897.4c142.1-112.9,441.1-408.8,557-557.8
			c112.7-145.1,328.3-459.3,465.7-653.1c218.8-319.6,476.4-795.7,695-1233.8c244.2-489.4,260.9-631.2,334.7-1040.2l161.4-721.4
			c15-124.7,27.7-582.2-240.9-646.4c-268.5-64.1-516.7,59.9-633.6,240.8c-162,250.5-139.6,606.3-322.8,1013.5
			c-142.8,329-205.2,807.1-433.4,1151.2l-178.9,302.5c-316.5,487.2-646.4,874-843.2,1126.3c-173.2,211.9-496.7,500-803.5,705
			c-283.8,171.9-742.1,368.2-1073,469.2c-105.4,34.3-556.5,166.9-836.8,204.2c-380.5,42.7-630.7,102.9-992.1,128.3
			c-446.4,31.4-660.5,71.2-1239.4,3.5c-219.3-59.5-566.8-83-879.5-202.7c-252.6-103-603.8-269.4-947.9-471.5
			c-370.4-203.1-932.6-618.5-1305.4-973.1c-375.6-401.5-563.6-617-822.7-1125.9c-114.7-251.9-336.7-641.4-426-916.4
			c-61.2-279.2-177.9-799.8-158.1-1052.7c8.8-453-30.9-546.4,3.2-916.8c1.2-333.3,110.7-564.5,156.2-837.2
			c39-188.5,219.8-840.4,331.6-991.8c508.3-1095.2,1190.7-1569.6,1951.1-1911.7c214.3-109.1,885.1-288.6,1079.1-340.1
			c330.8-59.7,766.2-99.5,1185.3-107.7c440.9-8.6,1048.5,51.2,1417.4,186.9c399,146.8,860.6,355.4,855.2,349.6
			c185.2,102.1,468,268.6,555.8,341.9c170.2,109,272.6,151.2,373.5,256.2c145.4,127.2,233.4,200.5,343.6,358.1
			c61.3,88.9,158.7,224.9,253.7,345.2c102,167.3,160.7,343.5,260.4,561.5c119.2,322.6,100.8,306.9,123.3,649.5
			c21.4,99.3-2.3,432.9-20.3,489.6c-53.7,307.8-34.7,579.5-105.1,878.4c-95.3,404.4-174.3,707.1-295.9,1095.1
			c-114.2,436.9-449.8,841.5-701.7,1130.7c-156,179.1-640,602.3-1311.6,866.7c-189,63.6-498.6,135.8-695.1,171.6
			c-419.5,43.9-487.8,15.6-889.5-13.7c-138.3-24.1-459.3-89.7-577.2-131.2c-345-121.2-471.9-198.2-824.8-414.4
			c-164.2-95.3-288-168.2-455.8-325.6c-134-124.1-229.7-334.7-338.3-458.3c-148.7-202.3-314.2-472.2-425.2-763.1
			c-120.4-289.5-159.2-697-140.9-959.2c0-199.8,54.4-565.7,76-645.8c21.6-80.1,75.6-328.5,87.4-378.3
			c11.7-49.8,141-312.7,158.8-350.7c72.8-155.1,212.3-377.9,447.2-605.4c173.4-189.5,508.6-375.3,759.5-447.3
			c224.9-123.5,604.5-144.4,814.4-144.8c103.3,6.1,367.2,22.4,505,55.5c279.2,67,330.8,68.8,618.6,193.8
			c258.3,119.8,433.5,162.9,613.5,295.8c0,0,246.9,193.6,359.1,335c59.3,74.7,160.8,430.8,142.7,651.4
			c-8.5,302,35.6,473.3-26.1,721.6c-61.7,248.5-166.8,536.4-280.9,713.8c-115.5,179.7-363.8,354.9-646.4,494.2
			c-158.2,78.1-533.1,150.6-692.1,169.5c-302.2,35.8-554.9-101.3-708.3-258.1c-133.1-152.1-396.1-467.9-291.3-794.5
			c94.8-295.4,209.3-610.2,652.4-586.9c304.2-63.4,655.9,28.5,773.1-25.3c173.9-98.8,240.8-316.9,177.4-469
			c-44-293.1-324.9-328.3-624.6-350.5c-268.2-44.9-949.2,86.3-1099,198.5c-100.4,59.6-254.2,203-362.4,299.7
			c-78,69.7-166.1,225-226.2,336.5c-73.9,137-111.2,237.9-130.3,327.2c-22.6,105.8-69.1,308.3-51.4,510.7
			c11.9,136.5,48.4,194.6,84.8,394.1c72.5,226.3,162.4,398.6,307.2,594.7c188.6,191.5,428.2,419.4,662,525.3
			c206.2,109,567.4,149,894.3,129.9c265.1-25.3,578.9-57.6,786.3-127.1c354.9-126.8,456.3-152.1,747.7-335.8
			c246.3-152.4,493.9-432.7,632.1-664.9c294.1-601.6,462.6-1271,340-2172.1c-10-152.3-57.4-300.9-152.4-502.5
			c-87.6-186-241.4-412.3-472-582.7c-92.9-86-239.3-191.7-358.5-253.7c-169.2-102.7-283-156.1-459.7-244.9
			c-155.1-72.8-335.8-156.2-571.6-221.7c-255.5-101-451.5-105.2-772.7-153c-316.3-79.3-1181.6-22.6-1697,204.7
			c-351.7,147.9-746.5,408.7-1046.6,726.5c-166.7,174.6-329.8,491.7-377.8,556.6c-238.7,458.8-285.4,890.3-323.6,980.9
			c-52,123.2-77.8,399.4-112.7,588.2c-39.2,211.9-14.9,1100.2,198.9,1670.4c120.6,227,191.2,429.4,272.7,535.8
			c146.7,208.6,217.5,338.9,342.2,486.8c188.1,228.1,324.9,414.1,508.1,545.2c466.7,379.6,856.5,579.6,1383.8,830.2
			c655.2,266.8,852,211.7,1472.1,201.8c278.9-2.4,684.9-90,884.5-126.4c370.6-49.3,582.9-138.7,833.7-208.6
			c268-74.8,423-194.3,642.9-327.2c181.1-116.9,394-277.1,534.7-407.1c360.1-264,533.8-541.6,754.5-882.4
			c39.9-57.2,302.1-615.6,343.8-771.2c19.3-77.9,78.6-301.4,116.6-432.1c48.9-207.3,72.6-390.8,127.2-624.7
			c48.9-241,132-695.9,168.1-1121c60.5-364.7-36.4-1109.2-93.8-1337.7c-127.5-426.2-350.6-946.2-791.1-1447.1
			c-187.1-221.8-385.9-393.8-615.8-580.3c-175.8-146.6-326.6-232-598.1-394c-368.8-220.1-649.4-360.5-1166.3-562.6
			c-210.6-67.6-475.6-156.4-761.4-215.6c-553.7-51.1-1122.6-100.2-1743.7-26.4C9123.7-9532,8501.5-9357,8134-9244.1
			c-202.8,76-595.6,240.8-760.4,329.5c-107.2,54.5-466.4,300.2-527.5,359.3c-246.3,152.4-797.3,670.6-1153.1,1153.6
			c-77.9,149.3-358.3,597.2-419,793.4c-161.6,331.8-274.3,733.2-340.6,904.6c-69.8,400.2-187.7,658.1-233.9,1059.9
			c5.4,94.6-18.9,317.1-40.4,440.3c31.3,275.1-10.5,534.1,44,833.5c48,252.6,111.5,358.1,126.6,586.5
			c14.7,97.7,140.4,391.5,174,522.2c101.4,215.4,126.7,392.8,259.2,633.4c190.9,375,390.3,806.4,696.8,1183.2
			c87.5,116.8,335.7,397.1,420.3,494.4C6579.8,249.7,6697.1,281.3,6924,482c23.6,14.7,173.4,185.6,330.1,244.3
			c260,200.7,484.6,274.4,731.9,457.1c495.8,247,676.5,330.3,1168.6,535.1c284.3,101.4,680.9,157.5,823.9,212.9
			c271.7,16.9,547.4,103.7,833.1,86.3c320.8,3.1,644.2-19.8,966.6-49.1C11997.4,1954.9,12280.9,1944.4,12665.6,1860.9"/>
	</g>
</g>
</svg>
