<?xml version="1.0" encoding="UTF-8" standalone="no"?>
<svg
   xmlns:dc="http://purl.org/dc/elements/1.1/"
   xmlns:cc="http://creativecommons.org/ns#"
   xmlns:rdf="http://www.w3.org/1999/02/22-rdf-syntax-ns#"
   xmlns:svg="http://www.w3.org/2000/svg"
   xmlns="http://www.w3.org/2000/svg"
   viewBox="0 0 320 234.66665"
   height="234.66666"
   width="320"
   xml:space="preserve"
   id="svg2"
   version="1.1"><metadata
     id="metadata8"><rdf:RDF><cc:Work
         rdf:about=""><dc:format>image/svg+xml</dc:format><dc:type
           rdf:resource="http://purl.org/dc/dcmitype/StillImage" /></cc:Work></rdf:RDF></metadata><defs
     id="defs6"><clipPath
       id="clipPath22"
       clipPathUnits="userSpaceOnUse"><path
         id="path20"
         d="M 0,256 H 256 V 0 H 0 Z" /></clipPath></defs><g
     transform="matrix(1.3333333,0,0,-1.3333333,-10.666666,287.99999)"
     id="g10"><path
       id="path12"
       style="fill:#ffffff;fill-opacity:1;fill-rule:nonzero;stroke:none"
       d="m 144,120 h 12 v 4 h -12 z" /><path
       id="path14"
       style="fill:#ffffff;fill-opacity:1;fill-rule:nonzero;stroke:none"
       d="m 100,120 h 12 v 4 h -12 z" /><g
       id="g16"><g
         clip-path="url(#clipPath22)"
         id="g18"><g
           transform="translate(244,138)"
           id="g24"><path
             id="path26"
             style="fill:#ffffff;fill-opacity:1;fill-rule:nonzero;stroke:none"
             d="M 0,0 C 0,-0.745 -0.412,-1.388 -1.017,-1.732 L -2.5,22 H -2 c 1.104,0 2,-0.896 2,-2 z M -2.04,-22 -12,-26 v 8 h 9.871 c 0.792,0 1.463,0.464 1.787,1.124 l 0.329,-2.903 C 0.121,-20.964 -0.824,-22 -2.04,-22 M -20,-18 h 4 v -4 h -4 z m -4,-4 h -53.144 l 1.144,4 v 8 h 50 c 1.104,0 2,-0.896 2,-2 v -4 z m -16,-70.105 c 0,-1.334 -1.341,-1.895 -2.957,-1.895 -1.854,0 -4.071,0.738 -5.043,1.895 -4.993,5.941 -10.41,18.16 -20,32.991 -12.752,19.719 -36,25.114 -48,25.114 -12,0 -35.248,-5.395 -48,-25.114 -9.59,-14.831 -15.007,-27.05 -20,-32.991 -0.972,-1.157 -3.189,-1.895 -5.043,-1.895 -1.616,0 -2.957,0.561 -2.957,1.895 V -26 h 38.287 l 0.382,-1.338 c 0.685,-1.37 2.074,-2.212 3.568,-2.212 0.217,0 0.435,0.018 0.655,0.054 5.158,0.855 29.108,3.496 29.108,3.496 1.335,0 2.67,0.034 4,0 1.329,0.034 2.664,0 4,0 0,0 23.95,-2.641 29.108,-3.496 0.22,-0.036 0.439,-0.054 0.655,-0.054 1.494,0 2.883,0.842 3.568,2.212 L -78.286,-26 H -40 Z M -208,-22 v 6 4 c 0,1.104 0.896,2 2,2 h 50 v -8 l 1.143,-4 z m -8,4 h 4 v -4 h -4 z m -13.96,-4 c -1.216,0 -2.162,1.036 -2.027,2.221 l 0.329,2.903 c 0.325,-0.66 0.995,-1.124 1.787,-1.124 H -220 v -8 z M -232,20 c 0,1.104 0.896,2 2,2 h 0.5 l -1.483,-23.732 C -231.588,-1.388 -232,-0.745 -232,0 Z m 76,-13.983 -43.638,3.966 -0.18,0.017 H -200 c -2.206,0 -4,1.794 -4,4 v 4 c 0,2.206 1.794,4 4,4 h 44 z M -76,22 h 44 c 2.206,0 4,-1.794 4,-4 v -4 c 0,-2.206 -1.794,-4 -4,-4 h -0.182 L -32.362,9.983 -76,6.017 Z m -12,0 h 8 V 6 h -8 z m -20,0 h 16 V 6 h -16 z m -12,0 h 8 V 6 h -8 z m -20,0 h 16 V 6 h -16 z m -12,0 h 8 V 6 h -8 z m 16,24 v -8 l 16,-8 h 4 4 l 16,8 v 8 l -16,8 h 17.528 l 14,-28 H -90 h -52 -9.528 l 14,28 H -120 Z m 31.82,-6 h 0.18 v 4 h -0.18 c -0.107,0.635 -0.259,1.252 -0.463,1.849 L -100,43.528 v -3.056 l -4.643,-2.321 c 0.204,0.597 0.356,1.214 0.463,1.849 m -19.557,0 h 15.473 c -0.891,-3.445 -4.016,-6 -7.736,-6 -3.72,0 -6.845,2.555 -7.737,6 m -4.083,4 H -128 v -4 h 0.18 c 0.107,-0.635 0.26,-1.252 0.462,-1.849 L -132,40.472 v 3.056 l 4.642,2.321 c -0.202,-0.597 -0.355,-1.214 -0.462,-1.849 m 19.556,0 h -15.473 c 0.892,3.445 4.017,6 7.737,6 3.72,0 6.845,-2.555 7.736,-6 M -80,-17.439 -82.314,-25.537 C -87.42,-24.692 -112,-22 -112,-22 c -1.27,0 -2.615,0.035 -4,0 -1.385,0.035 -2.73,0 -4,0 0,0 -24.591,-2.694 -29.686,-3.537 L -152,-17.439 V 2 h 10 52 10 z M -224.049,45.086 C -221.93,50.047 -215.287,62 -208,62 c 11.781,0 86.604,3.726 92,3.995 5.396,-0.269 80.22,-3.995 92,-3.995 7.255,0 13.921,-11.961 16.05,-16.918 L -4.258,-14 H -20 v 2 2 4 h -4 -2 -50 v 8 l 44,4 c 4.418,0 8,3.582 8,8 v 4 c 0,4.418 -3.582,8 -8,8 h -44 l -16,32 h -48 l -16,-32 h -44 c -4.418,0 -8,-3.582 -8,-8 v -4 c 0,-4.418 3.582,-8 8,-8 l 44,-4 v -8 h -50 -2 -4 v -4 -2 -2 h -15.742 z m 92.084,28.518 c 0.153,-1.537 1.176,-2.891 2.7,-3.399 l 2.246,-0.748 C -149.383,68.363 -198.776,66 -208,66 Z M -104,74 l -12,-4 -12,4 z m 1.175,-3.825 c 1.513,0.464 2.634,1.805 2.795,3.428 L -24,66 c -9.224,0 -58.617,2.363 -80.981,3.457 z M 4,20 c 0,3.309 -2.691,6 -6,6 H -2.75 L -4,46 c 0,0 -6.292,15.712 -16.083,19.277 0.032,0.172 0.069,0.344 0.078,0.524 0.107,2.129 -1.475,3.967 -3.597,4.179 l -80,8 c -0.128,0.013 -0.258,0.019 -0.388,0.02 -0.002,0 -0.003,0 -0.005,0 H -104 -128 c -0.133,0 -0.266,-0.007 -0.398,-0.02 l -80,-8 c -2.121,-0.212 -3.703,-2.05 -3.597,-4.179 0.009,-0.18 0.046,-0.352 0.078,-0.524 C -221.708,61.712 -228,46 -228,46 l -1.25,-20 H -230 c -3.309,0 -6,-2.691 -6,-6 V 0 c 0,-1.649 0.669,-3.145 1.749,-4.23 l -1.711,-15.099 c -0.191,-1.687 0.35,-3.383 1.484,-4.652 0.929,-1.041 2.188,-1.722 3.552,-1.942 l 9.435,-3.789 5.491,-2.205 V -26 h 4 4 12 v -66.105 c 0,-2.839 2.177,-5.895 6.957,-5.895 2.451,0 6.045,0.87 8.105,3.321 2.908,3.46 5.755,8.529 9.359,14.946 3.064,5.457 6.537,11.64 10.938,18.446 11.887,18.383 33.653,23.287 44.641,23.287 10.987,0 32.754,-4.904 44.641,-23.287 4.401,-6.806 7.875,-12.989 10.938,-18.446 3.605,-6.417 6.45,-11.486 9.358,-14.946 2.061,-2.451 5.655,-3.321 8.106,-3.321 4.78,0 6.957,3.056 6.957,5.895 V -26 h 12 4 4 v -5.917 l 5.49,2.205 9.436,3.789 c 1.363,0.22 2.623,0.901 3.553,1.942 1.133,1.269 1.674,2.965 1.483,4.652 L 2.25,-4.228 C 3.333,-3.142 4,-1.647 4,0 Z" /></g></g></g></g></svg>