<?xml version="1.0" encoding="utf-8"?>
<!-- Generator: Adobe Illustrator 26.0.3, SVG Export Plug-In . SVG Version: 6.00 Build 0)  -->
<svg version="1.1" id="Layer_1" xmlns="http://www.w3.org/2000/svg" xmlns:xlink="http://www.w3.org/1999/xlink" x="0px" y="0px"
	 viewBox="0 0 3839 662.1" style="enable-background:new 0 0 3839 662.1;" xml:space="preserve">
<style type="text/css">
	.st0{fill:#FFFFFF;}
</style>
<g>
	<polyline points="2690.3,354.7 2690.3,662.1 2643,662.1 2643,307.4 3791.7,307.4 3791.7,47.4 2643,47.4 2643,0.1 3839,0.1 
		3839,354.7 2690.3,354.7 	"/>
	<polyline points="0,0 1196.2,0 1196.2,354.7 47.3,354.7 47.3,662.1 0,662.1 0,307.4 1148.9,307.4 1148.9,47.3 0,47.3 0,0 	"/>
	<polyline points="1806.4,0 1806.4,614.8 1196.2,614.8 1196.2,662.1 1856.1,662.1 1856.1,47.3 2466.3,47.3 2466.3,0 1806.4,0 	"/>
</g>
</svg>
