<?xml version="1.0" encoding="utf-8"?>
<!-- Generator: Adobe Illustrator 25.2.3, SVG Export Plug-In . SVG Version: 6.00 Build 0)  -->
<svg version="1.1" id="Layer_1" xmlns="http://www.w3.org/2000/svg" xmlns:xlink="http://www.w3.org/1999/xlink" x="0px" y="0px"
	 viewBox="0 0 3839 2167.94" style="enable-background:new 0 0 3839 2167.94;" xml:space="preserve">
<style type="text/css">
	.st0{fill:#0D1415;}
	.st1{fill:#FFFFFF;}
	.st2{fill:#636363;}
	.st3{fill:#3CC7C7;}
</style>
<g>
	<g>
		<path class="st3" d="M30.44,72.47c-15.7,17.27-24.35,39.76-24.55,63.09L0,843.59c0,52.36,87.89,99.58,87.89,99.58
			c22.37,14.7,67.09-6.57,68.14-33.31l12.29-643.85c0.12-6.53,5.23-11.88,11.75-12.31l0.38-0.02c7.29-0.48,13.46,5.29,13.41,12.59
			c-0.21,33.01,0.41,117.68,11.61,144.18c21.5,50.85,93.61,291.3,105.15,374.99c5.61,40.67-20.3,107.95,40.7,154.93
			c11.38,8.76,40.22,18.81,57.22,5.22c26.43-21.12,70.28-60.39,94.67-79.71c15.25-12.08,25.15-29.63,27.63-48.93
			c0,0-0.34-24.27,14.73-58.9c61.43-141.19,197.02-487.5,222.29-544.86c18.99-43.11,44.18-59.61,44.18-59.61
			c8.44-7.58,21.9-2.02,22.54,9.31l35.06,783.4c0.42,73.73,137.58,69.11,134.15-5.11l3.42-900.95C1007.1,17.98,989.03,0,966.79,0
			H765.75c-21,0-40.75,10-53.17,26.94c0,0-106.18,114.19-123.54,157.49c-28.79,71.78-9.66,83.33-25.24,123.42
			c-18.83,48.45-51.98,147.97-74.33,195.15c-19.17,40.47-28.34,111.26-35.06,137.32c-2.93,11.35-18.95,11.45-22.05,0.15
			c-14.06-51.31-27.95-162.6-96.46-320.7c-10.9-25.15-36.28-203.9-47.1-282.66c-2.92-21.25-21.3-36.86-42.73-36.29
			c-43.31,1.15-110.72,3.64-128.72,8.3C85.47,17.36,52.18,48.55,30.44,72.47z"/>
		<path class="st3" d="M1694.92,910.91c-158.45-5.49-347.66-60.8-476.43-126.82c-12.77-6.55-18.92-21.56-20.07-35.87l-7.58-43.5
			c-1.4-17.27,7.35-33.73,22.44-42.24c30.56-17.25,101.98-29.26,154.6-47.49c74.64-25.86,157.66-87.25,154.61-185.84
			c-2.9-93.95-65.28-152.16-134-151.46c-45.42,0.46-143.8-2.99-184.46,44.88c-43.48,51.19-164.09,60.6-164.09,153.37l14.73,312.26
			c2.63,53.35,26.84,95.59,75.73,117.11c97.36,42.84,276.18,113.62,326.81,112.2c75.03-2.1,156.79-1.18,198.45,9.12
			C1780.47,1057.47,1789.83,914.2,1694.92,910.91z M1184.39,533.64c-10.89-17.58,21.59-69.4,53.29-96.77
			c20.31-17.53,63.11-21.04,99.58-25.95c36.47-4.91,28.75,29.45,28.75,29.45s-13.32,37.66-35.06,56.1
			c-21.74,18.44-37.14,13.3-71.5,25.95C1226.35,534.61,1193.51,548.36,1184.39,533.64z"/>
		<path class="st3" d="M2067.25,381.47c20.17-35.36-5.61-82.04-112.9-50.49c-59.28,17.44-66,14.64-123.9,42.12
			c-53.1,25.2-174.98,130.3-189.55,156.33c-56.1,100.28-40.74,105.19-40.74,222.23c0,118.35,231.5,181.63,453.77,155.74
			c0,0,44.18-9.12,27.35,30.85c-16.83,39.97-25.11,58.04-46.28,86.95c-21.74,29.69-124.4,92.04-227.11,64.57
			c-25.97-6.95-52.44-11.65-79.33-11.97c-61.48-0.75-156.35,11.55-156.35,51.19c0,58.9,77.84,60.31,77.84,60.31
			s163.39,14.02,206.87,14.02c115.67,0,394.1-38.57,394.1-183.02s13.29-607.27,32.93-679.5c10.92-40.17,29.99-72.52,7.55-92.85
			c-22.44-20.34-99.91-12.55-120.45,45.17c-5.86,16.46-37.17,85.55-37.17,85.55c-16.56,38.56-29.51,76.57-28.05,118.51
			c2.58,74.4,5.96,188.18-10.52,217.38c-19.73,34.95-153.51,81.68-257.35,48.39c-40.96-13.13-73.63-37.31-75.03-101.68
			C1759.66,511.91,2026.64,452.66,2067.25,381.47z"/>
		<path class="st3" d="M2317.66,538.78c1.88-50.5-3.57-95.83,53.08-152.9c148.57-149.66,176.96-142.55,249.82-142.55
			c175.78,0,207.94,87.12,159.88,133.7c-60.77,58.9-63.78-10.6-169.96-4.21c-48.55,2.92-78.17,38.38-136.48,138.66
			c-14.52,24.96-9.84,59.08-9.84,78.72v90.27c0,73.82,80.18,133.66,111.73,133.66c44.11,0,87.26-100.38,123.42-151
			c14.02-19.63,14.05-59.35,33.19-69.75c19.63-10.66,10.28-35.91,20.1-59.28c11.76-28,48.62-92.23,48.62-110.8
			c0,0,6.54-121.08,26.1-163.24c14.87-32.05,41.06-76.58,70-76.58c47.68,0,95.62-5.48,81.34,40.2
			c-32.72,104.72-26.1,98.85-26.1,160.37c0,85.99-1.59,312.71,0.59,378.18c1.15,34.38,6.55,70.96,21.32,102.03
			c16.36,34.42,35.51,86.37,14.47,107.41c-32.72,32.72-49.35,60.77-113.86-4.67c-55.36-56.16-78.83-108.95-74.8-143.05
			c0.93-7.82-8.23-12.97-14.27-7.93c-5.09,4.24-43.23,133.21-194.43,133.21c-162.02,0-274.18-171.1-274.18-304.8
			C2317.39,592.64,2316.45,571.12,2317.66,538.78z"/>
		<path class="st3" d="M1060.27,1110.53c71.53,16.36,260.21,48.8,337.2,64.76c38.4,7.96,74.91,23.16,107.57,44.88
			c45.42,30.19,104.71,74.18,113.21,103.07c18.33,62.31,48.87,95.37,48.87,260.86s22.18,241.23-39.52,277.69
			c-52.93,31.28-149.2,105.89-261.66,120c-49.12,6.16-97.12,19.27-142.37,39.35l-320.12,142.01c-39.7,17.61-83.14-15.76-76.35-58.66
			l70.48-492.33c3.27-20.7,12.07-46.67,19.17-66.38c7.29-20.25,13.53-51.83-3.81-78.41c-28.05-43.01-36.4-57.17-30.79-95.5
			c5.61-38.33-4.07-101.49,91.89-92.56c40.2,3.74,113.13,106.59,113.13,178.58c0,61.57-53.34,370.03-68.79,458.04
			c-1.87,10.63,8.29,19.38,18.54,16.01l211.77-75.75c20.77-6.83,59.52-24.73,76.64-38.33c28.07-22.31,72.67-52.36,116.41-62.18
			c44.64-10.02,46.24-135.72,45.81-200.09c-0.15-22.21-6.61-43.87-18.75-62.47c-35.94-55.08-83.93-131.65-142.53-166.13
			c-46.08-27.11-296.13-84.15-393.36-77.6c-64.24,4.32-91.55-75.16-98.44-131.37c-3.24-26.42,19.95-48.77,46.16-44.15
			C941.31,1084.54,989.52,1094.34,1060.27,1110.53z"/>
		<path class="st3" d="M2361.57,1762.68c-22.44-62.64-3.74-199.15-3.74-199.15c9.35-58.9-37.4-84.15-92.56-84.15
			s-23.17,160.35-38.6,228.14c-49.56,217.78-115.94,194.48-214.78,194.48c-96.57,0-153.41-138.35-160.61-211.31
			c-7.48-75.73,15.69-139.31-4.88-236.55c-13.34-63.06-69.14-63.93-104.24-59.84c-18.5,2.16-31.6,19.11-29.47,37.62
			c4.98,43.15,10.65,126.06,13.04,154.19c9.77,115.02-9.09,311.68,110.59,381.8c0,0,106.38,69.19,199.88,69.19
			c106.32,0,164.05-40.72,209.73-60.5c13.38-5.8,28.61,1.6,32.63,15.62c9.3,32.41,30.82,84.15,71.06,84.15
			c24.78,0,79.27-17.69,79.27-54.7C2428.88,1970.25,2376.75,1805.08,2361.57,1762.68z"/>
		<path class="st3" d="M2999.18,1392.7c-53.12-56.62-125.48-100.32-265.49-108.73c-153.06-9.2-317.89,169.23-317.89,374.93
			s159.88,386.15,357.16,386.15c197.28,0,323.5-107.52,316.96-143.99c-2.26-12.59-12.27-27.97-44.88-28.05
			c-61.83-0.15-188.17,46.2-270.21,49.79c-112.2,4.91-220.66-143.29-220.66-239.59c0-99.11,72.65-276.42,219.95-275.12
			c79.24,0.7,114.57,32.02,155.91,61.01C2962.03,1491.53,3058.27,1455.68,2999.18,1392.7z"/>
		<path class="st3" d="M3802.84,1941.73c-15.56-15.2-99.87-69.69-112.93-78.54c-10.19-6.91-9.58-27.82,19.17-34.13
			c28.75-6.31,63.81-60.54,56.1-90.69c-7.71-30.15-76.64-147.96-213.38-147.96c-100.28,0-99.42,38.56-180.92,48.39
			c-25.67,3.1-61.09,19.34-93.29,32.26c-10.86,4.36-23.06-1.91-25.97-13.25c0,0-11.32-75.76-19.38-99.89
			c-21.54-64.46-29.11-137.96-3.07-224.71c9.4-31.31-36.95-74.21-95.57-29.14c-74.8,57.5-28.98,205.7-28.98,233.75
			c0,65.92,15.95,144.22,15.89,210.84c-0.05,60.28,14.91,155.95,15.43,223.93c0.89,117.8,126.95,96.77,126.95,27.35v-125.99
			c0-14.82,14.88-25.01,28.7-19.65c0,0,302.05,114.08,329.4,143.53c27.35,29.45,146.29,78.07,193.28,47.22
			C3861.25,2014.19,3832.03,1970.25,3802.84,1941.73z M3599.92,1781.81c-53.99,34.36-121.9,5.37-167.13,0.04
			c-91.05-10.74-67.45-41.22-39.4-41.22c41.27,0,69.52-22.36,164.22-22.36C3593.62,1718.27,3652.87,1748.11,3599.92,1781.81z"/>
	</g>
</g>
</svg>
