<?xml version="1.0" encoding="UTF-8" standalone="no"?>
<svg
   xmlns:dc="http://purl.org/dc/elements/1.1/"
   xmlns:cc="http://creativecommons.org/ns#"
   xmlns:rdf="http://www.w3.org/1999/02/22-rdf-syntax-ns#"
   xmlns:svg="http://www.w3.org/2000/svg"
   xmlns="http://www.w3.org/2000/svg"
   viewBox="0 0 320.48666 288"
   height="288"
   width="320.48666"
   xml:space="preserve"
   id="svg2"
   version="1.1"><metadata
     id="metadata8"><rdf:RDF><cc:Work
         rdf:about=""><dc:format>image/svg+xml</dc:format><dc:type
           rdf:resource="http://purl.org/dc/dcmitype/StillImage" /></cc:Work></rdf:RDF></metadata><defs
     id="defs6"><clipPath
       id="clipPath18"
       clipPathUnits="userSpaceOnUse"><path
         id="path16"
         d="M 0,256 H 256 V 0 H 0 Z" /></clipPath></defs><g
     transform="matrix(1.3333333,0,0,-1.3333333,-10.374666,314.66666)"
     id="g10"><g
       id="g12"><g
         clip-path="url(#clipPath18)"
         id="g14"><g
           transform="translate(236,160)"
           id="g20"><path
             id="path22"
             style="fill:#ffffff;fill-opacity:1;fill-rule:nonzero;stroke:none"
             d="m 0,0 v -132 c 0,-2.209 -1.791,-4 -4,-4 h -204 c -2.209,0 -4,1.791 -4,4 V 0 l -12,40 11.027,29.404 c 0.585,1.562 2.077,2.596 3.745,2.596 H -6.771 c 1.667,0 3.159,-1.034 3.745,-2.596 L 8,40 Z M 11.745,41.404 0.719,70.809 C -0.445,73.914 -3.456,76 -6.771,76 h -202.457 c -3.316,0 -6.326,-2.086 -7.491,-5.191 l -11.026,-29.405 -0.474,-1.262 0.388,-1.291 L -216,-0.587 V -132 c 0,-4.411 3.589,-8 8,-8 H -4 c 4.411,0 8,3.589 8,8 V -0.396 l 7.922,39.612 0.224,1.119 z" /></g><g
           transform="translate(227.3477,191.4346)"
           id="g24"><path
             id="path26"
             style="fill:#ffffff;fill-opacity:1;fill-rule:nonzero;stroke:none"
             d="m 0,0 -3.348,-23.435 c 0,-2.209 -1.791,-4 -4,-4 h -144 c -2.209,0 -4,1.791 -4,4 L -158.695,0 c -0.345,2.41 1.525,4.565 3.96,4.565 H -3.96 C -1.525,4.565 0.345,2.41 0,0 m -3.96,8.565 h -150.775 c -2.321,0 -4.524,-1.005 -6.044,-2.758 -1.521,-1.753 -2.204,-4.076 -1.876,-6.373 l 3.314,-23.2 c 0.175,-4.258 3.694,-7.669 7.993,-7.669 h 144 c 4.3,0 7.819,3.411 7.994,7.669 l 3.314,23.2 C 4.288,1.731 3.604,4.054 2.084,5.807 0.563,7.56 -1.64,8.565 -3.96,8.565" /></g><path
           id="path28"
           style="fill:#ffffff;fill-opacity:1;fill-rule:nonzero;stroke:none"
           d="m 216,116 h -12 v 8 h 12 z m -16,0 h -12 v 8 h 12 z m -16,0 h -12 v 8 h 12 z m -16,0 h -12 v 8 h 12 z m -16,0 h -12 v 8 h 12 z m -16,0 h -12 v 8 h 12 z m -16,0 h -12 v 8 h 12 z m -16,0 H 92 v 8 h 12 z m -16,0 H 76 v 8 h 12 z m -12,24 h 12 v -8 H 76 Z m 16,0 h 12 v -8 H 92 Z m 16,0 h 12 v -8 h -12 z m 16,0 h 12 v -8 h -12 z m 16,0 h 12 v -8 h -12 z m 16,0 h 12 v -8 h -12 z m 16,0 h 12 v -8 h -12 z m 16,0 h 12 v -8 h -12 z m 16,0 h 12 v -8 h -12 z m 0,4 h -4 -12 -4 -12 -4 -12 -4 -12 -4 -12 -4 -12 -4 -12 -4 -12 -4 v -4 -8 -4 -4 -8 -4 h 4 12 4 12 4 12 4 12 4 12 4 12 4 12 4 12 4 12 4 v 4 8 4 4 8 4 h -4 z" /><path
           id="path30"
           style="fill:#ffffff;fill-opacity:1;fill-rule:nonzero;stroke:none"
           d="m 216,92 h -12 v 8 h 12 z m 0,-32 h -12 v 8 h 12 z m 0,-16 h -4 v 8 h 4 z m -8,0 h -4 v 8 h 4 z m -8,0 h -4 v 8 h 4 z m -8,0 h -4 v 8 h 4 z m -8,0 h -4 v 8 h 4 z m -8,0 h -60 v 8 h 60 z m -64,0 h -4 v 8 h 4 z m -8,0 h -4 v 8 h 4 z m -8,0 h -4 v 8 h 4 z m -8,0 h -4 v 8 h 4 z m -8,0 h -4 v 8 h 4 z M 76,68 H 88 V 60 H 76 Z m 0,32 H 88 V 92 H 76 Z m 16,0 h 12 V 92 H 92 Z m 16,0 h 12 v -8 h -12 z m 16,0 h 12 v -8 h -12 z m 16,0 h 12 v -8 h -12 z m 16,0 h 12 v -8 h -12 z m 16,0 h 12 v -8 h -12 z m 16,0 h 12 v -8 h -12 z m 8,-16 h 12 v -8 h -12 z m -8,-16 h 12 v -8 h -12 z m -16,0 h 12 v -8 h -12 z m -64,0 h 12 v -8 h -12 z m -16,0 h 12 V 60 H 92 Z m 4,8 H 84 v 8 h 12 z m 16,0 h -12 v 8 h 12 z m 16,0 h -12 v 8 h 12 z m 16,0 h -12 v 8 h 12 z m 16,0 h -12 v 8 h 12 z m 16,0 h -12 v 8 h 12 z m 16,0 h -12 v 8 h 12 z m -36,-8 h 12 v -8 h -12 z m -16,0 h 12 v -8 h -12 z m -16,0 h 12 v -8 h -12 z m 80,36 h -4 -12 -4 -12 -4 -12 -4 -12 -4 -12 -4 -12 -4 -12 -4 -12 -4 v -4 -8 -4 h 4 4 v -4 -8 -4 h -4 -4 v -4 -8 -4 -4 -8 -4 h 4 4 4 4 4 4 4 4 4 4 4 60 4 4 4 4 4 4 4 4 4 4 4 v 4 8 4 4 8 4 h -4 -4 v 4 8 4 h 4 4 v 4 8 4 h -4 z" /><g
           transform="translate(160.877,176)"
           id="g32"><path
             id="path34"
             style="fill:#ffffff;fill-opacity:1;fill-rule:nonzero;stroke:none"
             d="m 0,0 h -57.754 l -2,8 H 2 Z m -64.877,12 4,-16 h 64 l 4,16 z" /></g><g
           transform="translate(88,188)"
           id="g36"><path
             id="path38"
             style="fill:#ffffff;fill-opacity:1;fill-rule:nonzero;stroke:none"
             d="M 0,0 4,-16 H 8 L 4,0 Z" /></g><g
           transform="translate(80,188)"
           id="g40"><path
             id="path42"
             style="fill:#ffffff;fill-opacity:1;fill-rule:nonzero;stroke:none"
             d="M 0,0 4,-16 H 8 L 4,0 Z" /></g><g
           transform="translate(72,188)"
           id="g44"><path
             id="path46"
             style="fill:#ffffff;fill-opacity:1;fill-rule:nonzero;stroke:none"
             d="M 0,0 4,-16 H 8 L 4,0 Z" /></g><g
           transform="translate(172,188)"
           id="g48"><path
             id="path50"
             style="fill:#ffffff;fill-opacity:1;fill-rule:nonzero;stroke:none"
             d="M 0,0 -4,-16 H 0 L 4,0 Z" /></g><g
           transform="translate(176,172)"
           id="g52"><path
             id="path54"
             style="fill:#ffffff;fill-opacity:1;fill-rule:nonzero;stroke:none"
             d="M 0,0 H 4 L 8,16 H 4 Z" /></g><g
           transform="translate(217,176)"
           id="g56"><path
             id="path58"
             style="fill:#ffffff;fill-opacity:1;fill-rule:nonzero;stroke:none"
             d="M 0,0 H 4 L 6,8 H 2 Z" /></g><g
           transform="translate(209,176)"
           id="g60"><path
             id="path62"
             style="fill:#ffffff;fill-opacity:1;fill-rule:nonzero;stroke:none"
             d="M 0,0 H 4 L 6,8 H 2 Z" /></g><g
           transform="translate(201,176)"
           id="g64"><path
             id="path66"
             style="fill:#ffffff;fill-opacity:1;fill-rule:nonzero;stroke:none"
             d="M 0,0 H 4 L 6,8 H 2 Z" /></g><g
           transform="translate(185,176)"
           id="g68"><path
             id="path70"
             style="fill:#ffffff;fill-opacity:1;fill-rule:nonzero;stroke:none"
             d="M 0,0 H 4 L 6,8 H 2 Z" /></g><g
           transform="translate(165.5107,216)"
           id="g72"><path
             id="path74"
             style="fill:#ffffff;fill-opacity:1;fill-rule:nonzero;stroke:none"
             d="m 0,0 -1.511,12 h -4 L -4.178,0 Z" /></g><g
           transform="translate(173.8672,216)"
           id="g76"><path
             id="path78"
             style="fill:#ffffff;fill-opacity:1;fill-rule:nonzero;stroke:none"
             d="m 0,0 -1.867,12 h -4 L -4.179,0 Z" /></g><g
           transform="translate(148.7998,216)"
           id="g80"><path
             id="path82"
             style="fill:#ffffff;fill-opacity:1;fill-rule:nonzero;stroke:none"
             d="m 0,0 -0.8,12 h -4 L -4.178,0 Z" /></g><g
           transform="translate(182.2227,216)"
           id="g84"><path
             id="path86"
             style="fill:#ffffff;fill-opacity:1;fill-rule:nonzero;stroke:none"
             d="m 0,0 -2.223,12 h -4 L -4.178,0 Z" /></g><g
           transform="translate(157.1553,216)"
           id="g88"><path
             id="path90"
             style="fill:#ffffff;fill-opacity:1;fill-rule:nonzero;stroke:none"
             d="m 0,0 -1.155,12 h -4 L -4.178,0 Z" /></g><g
           transform="translate(207.2891,216)"
           id="g92"><path
             id="path94"
             style="fill:#ffffff;fill-opacity:1;fill-rule:nonzero;stroke:none"
             d="m 0,0 -3.289,12 h -4 L -4.178,0 Z" /></g><g
           transform="translate(190.5781,216)"
           id="g96"><path
             id="path98"
             style="fill:#ffffff;fill-opacity:1;fill-rule:nonzero;stroke:none"
             d="m 0,0 -2.578,12 h -4 l 2.4,-12 z" /></g><g
           transform="translate(215.6445,216)"
           id="g100"><path
             id="path102"
             style="fill:#ffffff;fill-opacity:1;fill-rule:nonzero;stroke:none"
             d="m 0,0 -3.645,12 h -4 L -4.178,0 Z" /></g><g
           transform="translate(224,216)"
           id="g104"><path
             id="path106"
             style="fill:#ffffff;fill-opacity:1;fill-rule:nonzero;stroke:none"
             d="M 0,0 -4,12 H -8 L -4.178,0 Z" /></g><g
           transform="translate(140.4443,216)"
           id="g108"><path
             id="path110"
             style="fill:#ffffff;fill-opacity:1;fill-rule:nonzero;stroke:none"
             d="m 0,0 -0.444,12 h -4 L -4.178,0 Z" /></g><g
           transform="translate(198.9336,216)"
           id="g112"><path
             id="path114"
             style="fill:#ffffff;fill-opacity:1;fill-rule:nonzero;stroke:none"
             d="m 0,0 -2.934,12 h -4 L -4.178,0 Z" /></g><g
           transform="translate(36,216)"
           id="g116"><path
             id="path118"
             style="fill:#ffffff;fill-opacity:1;fill-rule:nonzero;stroke:none"
             d="M 0,0 H 4.178 L 8,12 H 4 Z" /></g><g
           transform="translate(44.3555,216)"
           id="g120"><path
             id="path122"
             style="fill:#ffffff;fill-opacity:1;fill-rule:nonzero;stroke:none"
             d="m 0,0 h 4.178 l 3.467,12 h -4 z" /></g><g
           transform="translate(76,228)"
           id="g124"><path
             id="path126"
             style="fill:#ffffff;fill-opacity:1;fill-rule:nonzero;stroke:none"
             d="M 0,0 H -4 L -6.578,-12 H -2.4 Z" /></g><g
           transform="translate(68,228)"
           id="g128"><path
             id="path130"
             style="fill:#ffffff;fill-opacity:1;fill-rule:nonzero;stroke:none"
             d="m 0,0 h -4 l -2.934,-12 h 4.179 z" /></g><g
           transform="translate(52.7109,216)"
           id="g132"><path
             id="path134"
             style="fill:#ffffff;fill-opacity:1;fill-rule:nonzero;stroke:none"
             d="m 0,0 h 4.178 l 3.111,12 h -4 z" /></g><g
           transform="translate(132,228)"
           id="g136"><path
             id="path138"
             style="fill:#ffffff;fill-opacity:1;fill-rule:nonzero;stroke:none"
             d="M 0,0 H -4 L -4.089,-12 H 0.089 Z" /></g><g
           transform="translate(84,228)"
           id="g140"><path
             id="path142"
             style="fill:#ffffff;fill-opacity:1;fill-rule:nonzero;stroke:none"
             d="m 0,0 h -4 l -2.222,-12 h 4.178 z" /></g><g
           transform="translate(116,228)"
           id="g144"><path
             id="path146"
             style="fill:#ffffff;fill-opacity:1;fill-rule:nonzero;stroke:none"
             d="m 0,0 h -4 l -0.8,-12 h 4.178 z" /></g><g
           transform="translate(92,228)"
           id="g148"><path
             id="path150"
             style="fill:#ffffff;fill-opacity:1;fill-rule:nonzero;stroke:none"
             d="m 0,0 h -4 l -1.867,-12 h 4.178 z" /></g><g
           transform="translate(124,228)"
           id="g152"><path
             id="path154"
             style="fill:#ffffff;fill-opacity:1;fill-rule:nonzero;stroke:none"
             d="m 0,0 h -4 l -0.444,-12 h 4.177 z" /></g><g
           transform="translate(100,228)"
           id="g156"><path
             id="path158"
             style="fill:#ffffff;fill-opacity:1;fill-rule:nonzero;stroke:none"
             d="m 0,0 h -4 l -1.511,-12 h 4.178 z" /></g><g
           transform="translate(108,228)"
           id="g160"><path
             id="path162"
             style="fill:#ffffff;fill-opacity:1;fill-rule:nonzero;stroke:none"
             d="m 0,0 h -4 l -1.156,-12 h 4.178 z" /></g></g></g></g></svg>