<?xml version="1.0" encoding="UTF-8" standalone="no"?>
<svg
   xmlns:dc="http://purl.org/dc/elements/1.1/"
   xmlns:cc="http://creativecommons.org/ns#"
   xmlns:rdf="http://www.w3.org/1999/02/22-rdf-syntax-ns#"
   xmlns:svg="http://www.w3.org/2000/svg"
   xmlns="http://www.w3.org/2000/svg"
   viewBox="0 0 309.33331 319.76532"
   height="319.76532"
   width="309.33331"
   xml:space="preserve"
   id="svg2"
   version="1.1"><metadata
     id="metadata8"><rdf:RDF><cc:Work
         rdf:about=""><dc:format>image/svg+xml</dc:format><dc:type
           rdf:resource="http://purl.org/dc/dcmitype/StillImage" /></cc:Work></rdf:RDF></metadata><defs
     id="defs6"><clipPath
       id="clipPath18"
       clipPathUnits="userSpaceOnUse"><path
         id="path16"
         d="M 0,256 H 256 V 0 H 0 Z" /></clipPath></defs><g
     transform="matrix(1.3333333,0,0,-1.3333333,-16,330.66666)"
     id="g10"><g
       id="g12"><g
         clip-path="url(#clipPath18)"
         id="g14"><g
           transform="translate(240,20)"
           id="g20"><path
             id="path22"
             style="fill:#ffffff;fill-opacity:1;fill-rule:nonzero;stroke:none"
             d="m 0,0 c 0,-2.2 -1.8,-4 -4,-4 l -98.525,-3.649 c -1.664,-0.062 -3.329,-0.105 -4.995,-0.134 l 8.332,18.585 0.981,2.188 C -51.724,19.68 -16,59.665 -16,108 c 0,19.557 -5.854,37.744 -15.896,52.916 l 0.982,2.19 26.564,59.258 0.717,1.599 C -1.606,223.773 0,222.074 0,220 Z m -220,-4 c -2.2,0 -4,1.8 -4,4 v 220 c 0,2.074 1.606,3.773 3.633,3.963 l 0.717,-1.599 26.564,-59.258 0.982,-2.19 C -202.147,145.744 -208,127.557 -208,108 c 0,-48.335 35.724,-88.32 82.207,-95.01 l 0.981,-2.188 8.331,-18.585 c -1.665,0.029 -3.33,0.072 -4.994,0.134 z m 173.449,142.001 v 0 C -57.93,162.782 -82.946,180 -112,180 c -29.054,0 -54.07,-17.218 -65.449,-41.999 l -10.073,22.472 c 15.327,21.992 39.999,37.009 68.216,39.237 0.208,0.016 0.415,0.031 0.623,0.046 0.559,0.04 1.12,0.077 1.682,0.107 0.412,0.021 0.826,0.037 1.24,0.054 0.403,0.016 0.804,0.035 1.208,0.046 0.849,0.022 1.699,0.037 2.553,0.037 0.854,0 1.704,-0.015 2.553,-0.037 0.404,-0.011 0.805,-0.03 1.208,-0.046 0.414,-0.017 0.828,-0.033 1.24,-0.054 0.562,-0.03 1.122,-0.067 1.682,-0.107 0.208,-0.015 0.416,-0.03 0.623,-0.046 28.217,-2.228 52.888,-17.245 68.216,-39.237 z m -40.658,-100.477 1.557,3.472 C -58.926,51.516 -40,77.539 -40,108 c 0,8.766 -1.57,17.165 -4.439,24.934 l 1.538,3.431 9.029,20.141 C -25.091,142.413 -20,125.793 -20,108 -20,62.64 -52.999,24.847 -96.251,17.354 Z M -184,108 c 0,-30.461 18.926,-56.484 45.652,-67.004 l 1.557,-3.472 9.042,-20.17 C -171,24.847 -204,62.64 -204,108 c 0,17.793 5.09,34.413 13.873,48.506 l 9.028,-20.141 1.538,-3.431 C -182.429,125.165 -184,116.766 -184,108 m 93.141,-68.84 -10.083,-22.493 c -0.529,-0.063 -1.057,-0.128 -1.588,-0.183 l -0.349,-0.033 c -0.146,-0.014 -0.295,-0.025 -0.442,-0.039 -1.427,-0.133 -2.857,-0.236 -4.28,-0.305 -0.031,-0.002 -0.061,-0.002 -0.092,-0.003 C -109.139,16.036 -110.578,16 -112,16 c -1.422,0 -2.861,0.036 -4.307,0.104 -0.03,0.001 -0.062,0.001 -0.092,0.003 -1.424,0.069 -2.853,0.172 -4.28,0.305 -0.147,0.014 -0.295,0.025 -0.442,0.039 l -0.349,0.033 c -0.531,0.055 -1.059,0.12 -1.588,0.183 l -10.083,22.493 c 0.9,-0.276 1.809,-0.532 2.724,-0.773 0.446,-0.117 0.896,-0.224 1.344,-0.332 0.595,-0.146 1.193,-0.284 1.794,-0.415 0.443,-0.096 0.886,-0.191 1.333,-0.278 0.755,-0.149 1.515,-0.282 2.279,-0.407 0.28,-0.046 0.556,-0.101 0.837,-0.142 1.024,-0.156 2.056,-0.283 3.094,-0.394 0.348,-0.037 0.699,-0.066 1.049,-0.099 0.783,-0.072 1.569,-0.132 2.358,-0.179 0.338,-0.02 0.675,-0.041 1.014,-0.057 1.099,-0.051 2.203,-0.084 3.315,-0.084 1.112,0 2.216,0.033 3.315,0.084 0.339,0.016 0.676,0.037 1.014,0.057 0.789,0.047 1.575,0.107 2.358,0.179 0.35,0.033 0.701,0.062 1.049,0.099 1.037,0.111 2.071,0.238 3.094,0.394 0.28,0.041 0.557,0.096 0.837,0.142 0.764,0.125 1.524,0.258 2.279,0.407 0.447,0.087 0.89,0.182 1.332,0.278 0.602,0.131 1.2,0.269 1.795,0.415 0.448,0.108 0.898,0.215 1.343,0.332 0.915,0.241 1.824,0.497 2.725,0.773 m 39.983,98.607 c 0.11,-0.224 0.217,-0.45 0.325,-0.676 C -46.356,128.266 -44,118.404 -44,108 -44,76.411 -65.652,49.787 -94.894,42.183 c -0.155,-0.041 -0.312,-0.078 -0.468,-0.117 -0.835,-0.211 -1.677,-0.404 -2.525,-0.584 -0.264,-0.055 -0.528,-0.111 -0.794,-0.164 -0.87,-0.173 -1.746,-0.331 -2.628,-0.47 -0.146,-0.024 -0.292,-0.052 -0.438,-0.075 -1.007,-0.152 -2.022,-0.279 -3.042,-0.387 -0.275,-0.03 -0.553,-0.051 -0.829,-0.077 -0.778,-0.073 -1.562,-0.133 -2.348,-0.179 -0.304,-0.018 -0.606,-0.037 -0.911,-0.051 C -109.912,40.032 -110.952,40 -112,40 c -1.047,0 -2.087,0.032 -3.124,0.079 -0.304,0.014 -0.607,0.033 -0.91,0.051 -0.787,0.046 -1.57,0.106 -2.348,0.179 -0.277,0.026 -0.554,0.047 -0.829,0.077 -1.02,0.108 -2.035,0.235 -3.041,0.387 -0.147,0.023 -0.293,0.051 -0.439,0.075 -0.882,0.139 -1.758,0.297 -2.628,0.47 -0.265,0.053 -0.53,0.109 -0.795,0.164 -0.846,0.18 -1.688,0.373 -2.524,0.584 -0.155,0.039 -0.313,0.076 -0.468,0.117 C -158.348,49.787 -180,76.411 -180,108 c 0,10.404 2.356,20.266 6.551,29.091 0.108,0.226 0.215,0.452 0.325,0.676 11.059,22.616 34.299,38.233 61.124,38.233 26.825,0 50.065,-15.617 61.124,-38.233 M -112,-7.824 h -0.079 l -9.083,20.262 c 1.498,-0.142 3.006,-0.252 4.523,-0.325 0.142,-0.007 0.285,-0.009 0.427,-0.015 0.617,-0.028 1.235,-0.053 1.856,-0.068 0.783,-0.019 1.568,-0.03 2.356,-0.03 0.788,0 1.573,0.011 2.356,0.03 0.621,0.015 1.239,0.04 1.856,0.068 0.142,0.006 0.285,0.008 0.427,0.015 1.517,0.073 3.024,0.183 4.523,0.325 l -9.083,-20.262 z M -8,224 -34.563,164.742 c 0,0 -10e-4,0 -10e-4,0.001 -2.178,2.966 -4.521,5.802 -7.017,8.495 -0.018,0.019 -0.035,0.037 -0.052,0.056 -0.608,0.655 -1.225,1.302 -1.851,1.94 -0.015,0.015 -0.03,0.03 -0.044,0.044 -2.552,2.597 -5.25,5.05 -8.082,7.344 -0.061,0.049 -0.121,0.098 -0.182,0.147 -0.645,0.52 -1.296,1.031 -1.955,1.535 -0.066,0.05 -0.13,0.1 -0.196,0.15 -2.165,1.647 -4.401,3.205 -6.705,4.666 -0.043,0.027 -0.086,0.054 -0.129,0.081 -0.696,0.44 -1.398,0.87 -2.105,1.292 -0.131,0.078 -0.262,0.154 -0.391,0.232 -0.641,0.378 -1.287,0.749 -1.937,1.112 -0.141,0.079 -0.281,0.158 -0.423,0.236 -0.698,0.386 -1.401,0.764 -2.11,1.133 -0.075,0.039 -0.15,0.079 -0.224,0.118 -1.599,0.827 -3.225,1.611 -4.876,2.349 -0.134,0.059 -0.268,0.117 -0.402,0.176 -0.667,0.295 -1.337,0.582 -2.012,0.862 -0.209,0.087 -0.42,0.172 -0.63,0.257 -0.615,0.25 -1.234,0.494 -1.855,0.732 -0.224,0.085 -0.446,0.171 -0.671,0.255 -0.658,0.245 -1.319,0.483 -1.984,0.715 -0.172,0.06 -0.343,0.122 -0.516,0.182 -1.684,0.575 -3.388,1.106 -5.112,1.589 -0.22,0.062 -0.442,0.119 -0.663,0.179 -0.631,0.172 -1.266,0.34 -1.904,0.5 -0.281,0.07 -0.563,0.139 -0.846,0.207 -0.591,0.142 -1.185,0.279 -1.78,0.41 -0.292,0.065 -0.585,0.13 -0.878,0.191 -0.626,0.133 -1.254,0.257 -1.884,0.376 -0.251,0.048 -0.501,0.098 -0.752,0.144 -1.757,0.319 -3.531,0.591 -5.32,0.813 -0.278,0.034 -0.557,0.063 -0.837,0.095 -0.618,0.072 -1.237,0.139 -1.859,0.198 -0.328,0.032 -0.656,0.06 -0.985,0.088 -0.588,0.05 -1.176,0.095 -1.767,0.134 -0.333,0.022 -0.666,0.045 -1.001,0.064 -0.621,0.035 -1.244,0.061 -1.869,0.085 -0.293,0.011 -0.586,0.025 -0.88,0.033 -0.914,0.026 -1.83,0.042 -2.75,0.042 -0.92,0 -1.836,-0.016 -2.75,-0.042 -0.294,-0.008 -0.587,-0.022 -0.88,-0.033 -0.625,-0.024 -1.248,-0.05 -1.87,-0.085 -0.333,-0.019 -0.667,-0.042 -1,-0.064 -0.59,-0.039 -1.179,-0.084 -1.767,-0.134 -0.328,-0.028 -0.657,-0.056 -0.985,-0.088 -0.622,-0.059 -1.241,-0.126 -1.86,-0.198 -0.279,-0.032 -0.558,-0.061 -0.836,-0.095 -1.789,-0.222 -3.562,-0.494 -5.32,-0.813 -0.251,-0.046 -0.501,-0.096 -0.752,-0.144 -0.63,-0.119 -1.259,-0.243 -1.884,-0.376 -0.294,-0.061 -0.586,-0.126 -0.878,-0.191 -0.595,-0.131 -1.189,-0.268 -1.78,-0.41 -0.282,-0.068 -0.565,-0.137 -0.847,-0.207 -0.637,-0.16 -1.272,-0.328 -1.904,-0.5 -0.22,-0.06 -0.442,-0.117 -0.662,-0.179 -1.724,-0.483 -3.428,-1.014 -5.112,-1.589 -0.173,-0.06 -0.343,-0.122 -0.516,-0.182 -0.664,-0.232 -1.326,-0.47 -1.984,-0.715 -0.225,-0.084 -0.447,-0.17 -0.671,-0.255 -0.621,-0.238 -1.24,-0.482 -1.855,-0.732 -0.21,-0.085 -0.421,-0.17 -0.63,-0.257 -0.675,-0.28 -1.345,-0.567 -2.012,-0.862 -0.134,-0.059 -0.269,-0.117 -0.403,-0.176 -1.65,-0.738 -3.276,-1.522 -4.875,-2.349 -0.075,-0.039 -0.149,-0.079 -0.224,-0.118 -0.709,-0.369 -1.412,-0.747 -2.11,-1.133 -0.142,-0.078 -0.282,-0.157 -0.423,-0.236 -0.65,-0.363 -1.295,-0.734 -1.937,-1.112 -0.13,-0.078 -0.261,-0.154 -0.391,-0.232 -0.707,-0.422 -1.409,-0.852 -2.105,-1.292 -0.043,-0.027 -0.086,-0.054 -0.129,-0.081 -2.304,-1.461 -4.54,-3.019 -6.705,-4.666 -0.066,-0.05 -0.13,-0.1 -0.196,-0.15 -0.659,-0.504 -1.31,-1.015 -1.955,-1.535 -0.061,-0.049 -0.121,-0.098 -0.182,-0.147 -2.831,-2.294 -5.53,-4.747 -8.082,-7.344 -0.014,-0.014 -0.029,-0.029 -0.044,-0.044 -0.626,-0.638 -1.242,-1.285 -1.851,-1.94 -0.017,-0.019 -0.034,-0.037 -0.052,-0.056 -2.496,-2.693 -4.839,-5.529 -7.017,-8.495 0,-0.001 0,-0.001 0,-0.001 L -216,224 Z m 4,4 h -216 c -4.411,0 -8,-3.589 -8,-8 V 0 c 0,-4.382 3.542,-7.953 7.913,-8 l 98.464,-3.646 c 3.191,-0.119 6.429,-0.178 9.623,-0.178 3.193,0 6.432,0.059 9.623,0.178 L -3.913,-8 C 0.458,-7.953 4,-4.382 4,0 v 220 c 0,4.411 -3.589,8 -8,8" /></g><path
           id="path24"
           style="fill:#ffffff;fill-opacity:1;fill-rule:nonzero;stroke:none"
           d="m 36,168 h -4 v -4 h 4 z" /><path
           id="path26"
           style="fill:#ffffff;fill-opacity:1;fill-rule:nonzero;stroke:none"
           d="m 36,88 h -4 v -4 h 4 z" /><path
           id="path28"
           style="fill:#ffffff;fill-opacity:1;fill-rule:nonzero;stroke:none"
           d="m 28,148 h -4 v -4 h 4 z" /><path
           id="path30"
           style="fill:#ffffff;fill-opacity:1;fill-rule:nonzero;stroke:none"
           d="m 24,128 h -4 v -4 h 4 z" /><path
           id="path32"
           style="fill:#ffffff;fill-opacity:1;fill-rule:nonzero;stroke:none"
           d="m 24,104 h 4 v 4 h -4 z" /><path
           id="path34"
           style="fill:#ffffff;fill-opacity:1;fill-rule:nonzero;stroke:none"
           d="m 224,168 h -4 v -4 h 4 z" /><path
           id="path36"
           style="fill:#ffffff;fill-opacity:1;fill-rule:nonzero;stroke:none"
           d="m 224,88 h -4 v -4 h 4 z" /><path
           id="path38"
           style="fill:#ffffff;fill-opacity:1;fill-rule:nonzero;stroke:none"
           d="m 232,148 h -4 v -4 h 4 z" /><path
           id="path40"
           style="fill:#ffffff;fill-opacity:1;fill-rule:nonzero;stroke:none"
           d="m 232,124 h 4 v 4 h -4 z" /><path
           id="path42"
           style="fill:#ffffff;fill-opacity:1;fill-rule:nonzero;stroke:none"
           d="m 232,108 h -4 v -4 h 4 z" /><g
           transform="translate(43.77,24)"
           id="g44"><path
             id="path46"
             style="fill:#ffffff;fill-opacity:1;fill-rule:nonzero;stroke:none"
             d="m 0,0 c -6.627,0 -12,5.373 -12,12 0,6.627 5.373,12 12,12 C 6.627,24 12,18.627 12,12 12,5.373 6.627,0 0,0 m -16.856,28.856 c 1.969,1.969 4.665,2.917 7.628,2.917 C -5.73,31.774 -1.863,30.438 1.63,27.917 1.094,27.972 0.55,28 0,28 c -8.823,0 -16,-7.178 -16,-16 0,-0.555 0.029,-1.103 0.084,-1.643 -4.664,6.456 -5.236,14.204 -0.94,18.499 M 7.4,28.257 c -4.777,4.777 -10.838,7.516 -16.627,7.516 h -10e-4 c -4.166,0 -7.782,-1.414 -10.457,-4.088 -3.287,-3.287 -4.688,-8.195 -3.845,-13.464 0.78,-4.873 3.363,-9.71 7.273,-13.621 1.569,-1.569 3.277,-2.913 5.067,-4.016 C -8.302,-2.247 -4.354,-4 0,-4 8.822,-4 16,3.178 16,12 16,16.78 10.879,24 10.879,24 9.878,25.5 8.723,26.935 7.4,28.257" /></g><g
           transform="translate(228.1465,34.3574)"
           id="g48"><path
             id="path50"
             style="fill:#ffffff;fill-opacity:1;fill-rule:nonzero;stroke:none"
             d="m 0,0 c 0.055,0.54 0.084,1.088 0.084,1.643 0,8.822 -7.178,16 -16,16 -0.551,0 -1.095,-0.029 -1.631,-0.083 3.494,2.521 7.36,3.857 10.859,3.856 2.962,0 5.659,-0.948 7.627,-2.917 C 5.236,14.203 4.663,6.456 0,0 m -15.916,-10.357 c -6.628,0 -12,5.373 -12,12 0,6.627 5.372,12 12,12 6.627,0 12,-5.373 12,-12 0,-6.627 -5.373,-12 -12,-12 m 9.228,35.773 h -0.001 c -5.79,0 -11.85,-2.739 -16.627,-7.517 -1.323,-1.322 -2.479,-2.756 -3.48,-4.256 0,0 -5.12,-7.22 -5.12,-12 0,-8.823 7.177,-16 16,-16 4.353,0 8.302,1.753 11.189,4.584 1.791,1.102 3.498,2.447 5.067,4.015 3.911,3.911 6.494,8.748 7.273,13.621 0.844,5.27 -0.558,10.178 -3.844,13.464 -2.675,2.675 -6.291,4.089 -10.457,4.089" /></g></g></g></g></svg>