<?xml version="1.0" encoding="UTF-8" standalone="no"?>
<svg
   xmlns:dc="http://purl.org/dc/elements/1.1/"
   xmlns:cc="http://creativecommons.org/ns#"
   xmlns:rdf="http://www.w3.org/1999/02/22-rdf-syntax-ns#"
   xmlns:svg="http://www.w3.org/2000/svg"
   xmlns="http://www.w3.org/2000/svg"
   viewBox="0 0 202.66665 320"
   height="320"
   width="202.66666"
   xml:space="preserve"
   id="svg2"
   version="1.1"><metadata
     id="metadata8"><rdf:RDF><cc:Work
         rdf:about=""><dc:format>image/svg+xml</dc:format><dc:type
           rdf:resource="http://purl.org/dc/dcmitype/StillImage" /></cc:Work></rdf:RDF></metadata><defs
     id="defs6"><clipPath
       id="clipPath18"
       clipPathUnits="userSpaceOnUse"><path
         id="path16"
         d="M 0,256 H 256 V 0 H 0 Z" /></clipPath></defs><g
     transform="matrix(1.3333333,0,0,-1.3333333,-69.333332,330.66666)"
     id="g10"><g
       id="g12"><g
         clip-path="url(#clipPath18)"
         id="g14"><g
           transform="translate(200,136)"
           id="g20"><path
             id="path22"
             style="fill:#ffffff;fill-opacity:1;fill-rule:nonzero;stroke:none"
             d="m 0,0 c 0,-4.418 -3.582,-8 -8,-8 h -12 -104 -12 c -4.418,0 -8,3.582 -8,8 v 100 c 0,4.418 3.582,8 8,8 H -8 c 4.418,0 8,-3.582 8,-8 z m -24,-14 v -2 -2 -2 h -96 v 2 2 2 2 h 96 z m 6,-10 c 1.104,0 2,-0.896 2,-2 v -54 c 0,-19.882 -16.118,-36 -36,-36 h -40 c -19.882,0 -36,16.118 -36,36 v 54 c 0,1.104 0.896,2 2,2 h 2 104 z m 10,-8 v -48 c 0,-24.301 -19.699,-44 -44,-44 h -40 c -24.301,0 -44,19.699 -44,44 v 48 c 0,2.995 1.649,5.603 4.086,6.974 C -131.966,-25.344 -132,-25.668 -132,-26 v -54 c 0,-22.056 17.944,-40 40,-40 h 40 c 22.056,0 40,17.944 40,40 v 54 c 0,0.332 -0.034,0.656 -0.086,0.974 C -9.649,-26.397 -8,-29.005 -8,-32 m 0,144 h -128 c -6.617,0 -12,-5.383 -12,-12 V 0 c 0,-6.617 5.383,-12 12,-12 h 12 v -2 -2 -2 -2 h -2 -2 c -6.617,0 -12,-5.383 -12,-12 v -48 c 0,-26.467 21.533,-48 48,-48 h 40 c 26.467,0 48,21.533 48,48 v 48 c 0,6.617 -5.383,12 -12,12 h -2 -2 v 2 2 2 2 h 12 c 6.617,0 12,5.383 12,12 v 100 c 0,6.617 -5.383,12 -12,12" /></g><g
           transform="translate(188,148)"
           id="g24"><path
             id="path26"
             style="fill:#ffffff;fill-opacity:1;fill-rule:nonzero;stroke:none"
             d="m 0,0 c 0,-2.209 -1.791,-4 -4,-4 h -112 c -2.209,0 -4,1.791 -4,4 v 80 c 0,2.209 1.791,4 4,4 H -4 c 2.209,0 4,-1.791 4,-4 z m -4,88 h -112 c -4.411,0 -8,-3.589 -8,-8 V 0 c 0,-4.411 3.589,-8 8,-8 H -4 c 4.411,0 8,3.589 8,8 v 80 c 0,4.411 -3.589,8 -8,8" /></g><path
           id="path28"
           style="fill:#ffffff;fill-opacity:1;fill-rule:nonzero;stroke:none"
           d="M 164,152 H 88 v 72 h 76 z m -76,76 h -4 v -4 -72 -4 h 4 76 4 v 4 72 4 h -4 z" /><g
           transform="translate(104,64)"
           id="g30"><path
             id="path32"
             style="fill:#ffffff;fill-opacity:1;fill-rule:nonzero;stroke:none"
             d="m 0,0 v 4 h 4 z m -20,4 h 4 V 0 Z m 4,20 v -4 h -4 z M -4,8 V 0 c 0,-2.209 -1.791,-4 -4,-4 -2.209,0 -4,1.791 -4,4 v 8 h -8 c -2.209,0 -4,1.791 -4,4 0,2.209 1.791,4 4,4 h 8 v 8 c 0,2.209 1.791,4 4,4 2.209,0 4,-1.791 4,-4 V 16 H 4 C 6.209,16 8,14.209 8,12 8,9.791 6.209,8 4,8 Z M 4,20 H 0 v 4 z M 0,29.657 C -1.511,31.168 -3.52,32 -5.657,32 h -4.686 C -12.48,32 -14.489,31.168 -16,29.657 L -25.657,20 C -27.168,18.489 -28,16.48 -28,14.343 V 9.657 C -28,7.52 -27.168,5.511 -25.657,4 L -16,-5.657 C -14.489,-7.168 -12.48,-8 -10.343,-8 h 4.686 C -3.52,-8 -1.511,-7.168 0,-5.657 L 9.657,4 C 11.168,5.511 12,7.52 12,9.657 v 4.686 C 12,16.48 11.168,18.489 9.657,20 Z" /></g><g
           transform="translate(140,60)"
           id="g34"><path
             id="path36"
             style="fill:#ffffff;fill-opacity:1;fill-rule:nonzero;stroke:none"
             d="m 0,0 c -4.418,0 -8,3.582 -8,8 0,4.418 3.582,8 8,8 C 4.418,16 8,12.418 8,8 8,3.582 4.418,0 0,0 M 0,20 C -6.617,20 -12,14.617 -12,8 -12,1.383 -6.617,-4 0,-4 6.617,-4 12,1.383 12,8 12,14.617 6.617,20 0,20" /></g><g
           transform="translate(164,72)"
           id="g38"><path
             id="path40"
             style="fill:#ffffff;fill-opacity:1;fill-rule:nonzero;stroke:none"
             d="m 0,0 c -4.418,0 -8,3.582 -8,8 0,4.418 3.582,8 8,8 C 4.418,16 8,12.418 8,8 8,3.582 4.418,0 0,0 M 0,20 C -6.617,20 -12,14.617 -12,8 -12,1.383 -6.617,-4 0,-4 6.617,-4 12,1.383 12,8 12,14.617 6.617,20 0,20" /></g><g
           transform="translate(150,100)"
           id="g42"><path
             id="path44"
             style="fill:#ffffff;fill-opacity:1;fill-rule:nonzero;stroke:none"
             d="m 0,0 h 12 c 1.104,0 2,0.896 2,2 0,1.104 -0.896,2 -2,2 H 0 C -1.104,4 -2,3.104 -2,2 -2,0.896 -1.104,0 0,0" /></g><g
           transform="translate(130,100)"
           id="g46"><path
             id="path48"
             style="fill:#ffffff;fill-opacity:1;fill-rule:nonzero;stroke:none"
             d="m 0,0 h 12 c 1.104,0 2,0.896 2,2 0,1.104 -0.896,2 -2,2 H 0 C -1.104,4 -2,3.104 -2,2 -2,0.896 -1.104,0 0,0" /></g></g></g></g></svg>