<?xml version="1.0" encoding="UTF-8" standalone="no"?>
<svg
   xmlns:dc="http://purl.org/dc/elements/1.1/"
   xmlns:cc="http://creativecommons.org/ns#"
   xmlns:rdf="http://www.w3.org/1999/02/22-rdf-syntax-ns#"
   xmlns:svg="http://www.w3.org/2000/svg"
   xmlns="http://www.w3.org/2000/svg"
   viewBox="0 0 309.33331 202.66665"
   height="202.66666"
   width="309.33331"
   xml:space="preserve"
   id="svg2"
   version="1.1"><metadata
     id="metadata8"><rdf:RDF><cc:Work
         rdf:about=""><dc:format>image/svg+xml</dc:format><dc:type
           rdf:resource="http://purl.org/dc/dcmitype/StillImage" /></cc:Work></rdf:RDF></metadata><defs
     id="defs6"><clipPath
       id="clipPath18"
       clipPathUnits="userSpaceOnUse"><path
         id="path16"
         d="M 0,256 H 256 V 0 H 0 Z" /></clipPath></defs><g
     transform="matrix(1.3333333,0,0,-1.3333333,-16,271.99973)"
     id="g10"><g
       id="g12"><g
         clip-path="url(#clipPath18)"
         id="g14"><g
           transform="translate(240,76.8398)"
           id="g20"><path
             id="path22"
             style="fill:#ffffff;fill-opacity:1;fill-rule:nonzero;stroke:none"
             d="m 0,0 c 0,-7.579 -10.883,-14.321 -18.064,-15.158 -32.508,-3.789 -63.413,-5.682 -94.215,-5.682 -30.818,0 -61.534,1.895 -93.657,5.682 C -213.127,-14.311 -224,-7.579 -224,0 v 63.16 54.316 c 0,3.79 7.226,5.684 10.839,5.684 H -10.839 C -7.226,123.16 0,121.266 0,117.476 Z m -10.839,127.16 h -202.322 c -4.649,0 -14.839,-2.438 -14.839,-9.684 V 0 c 0,-10.124 12.791,-18.093 21.596,-19.131 32.587,-3.842 63.375,-5.709 94.125,-5.709 30.749,0 61.718,1.867 94.677,5.708 C -8.794,-18.104 4,-10.142 4,0 v 117.476 c 0,7.246 -10.19,9.684 -14.839,9.684" /></g><g
           transform="translate(183.9824,81.7422)"
           id="g24"><path
             id="path26"
             style="fill:#ffffff;fill-opacity:1;fill-rule:nonzero;stroke:none"
             d="m 0,0 c -4.6,-0.63 -15.718,-1.229 -32,-1.533 v 4.075 c 15.93,0.406 28.018,1.245 28.018,2.52 V 98.52 c 0,2.07 -1.647,3.738 -3.692,3.738 h -96.617 c -2.045,0 -3.691,-1.668 -3.691,-3.738 V 5.062 c 0,-1.274 12.07,-2.113 27.982,-2.519 V -1.533 C -96.281,-1.229 -107.399,-0.63 -112,0 V 110.258 H 0 Z m -79.898,6.542 c -14.794,0.377 -21.297,0.988 -24.084,1.389 v 90.327 h 96 V 7.931 c -2.79,-0.402 -9.3,-1.013 -24.12,-1.39 L -36,6.441 V 2.542 -1.601 c -0.238,-0.003 -0.482,-0.006 -0.723,-0.009 -6.168,-0.086 -12.737,-0.132 -19.277,-0.132 -6.539,0 -13.109,0.046 -19.277,0.132 -0.24,0.003 -0.484,0.006 -0.723,0.009 V 2.543 6.442 Z M 0.273,114.258 h -112.545 c -2.065,0 -3.728,-1.686 -3.728,-3.779 V -2.907 c 0,-1.373 15.837,-2.247 36,-2.622 v -0.008 c 2.881,-0.052 5.864,-0.091 8.882,-0.123 0.491,-0.005 0.981,-0.011 1.475,-0.016 0.768,-0.007 1.531,-0.014 2.304,-0.02 1.526,-0.013 3.063,-0.023 4.605,-0.03 0.293,-0.001 0.584,-0.003 0.878,-0.004 1.947,-0.008 3.901,-0.012 5.856,-0.012 1.955,0 3.91,0.004 5.856,0.012 0.294,0.001 0.585,0.003 0.878,0.004 1.542,0.007 3.079,0.017 4.605,0.03 0.773,0.006 1.537,0.013 2.305,0.02 0.493,0.005 0.983,0.011 1.473,0.016 3.019,0.032 6.002,0.071 8.883,0.123 v 0.008 c 20.163,0.375 36,1.249 36,2.622 v 113.386 c 0,2.093 -1.662,3.779 -3.727,3.779" /></g><path
           id="path28"
           style="fill:#ffffff;fill-opacity:1;fill-rule:nonzero;stroke:none"
           d="m 167.982,96 h -80 v 76 h 80 z m 4,80 h -88 V 92 h 88 z" /><g
           transform="translate(34.7178,168)"
           id="g30"><path
             id="path32"
             style="fill:#ffffff;fill-opacity:1;fill-rule:nonzero;stroke:none"
             d="m 0,0 h -8.049 c -2.195,0 -3.975,1.791 -3.975,4 0,2.209 1.78,4 3.975,4 H 0 C 2.196,8 3.976,6.209 3.976,4 3.976,1.791 2.196,0 0,0 m 0,12 h -8.049 c -4.397,0 -7.975,-3.589 -7.975,-8 0,-4.411 3.578,-8 7.975,-8 H 0 c 4.398,0 7.976,3.589 7.976,8 0,4.411 -3.578,8 -7.976,8" /></g><g
           transform="translate(56.0244,168)"
           id="g34"><path
             id="path36"
             style="fill:#ffffff;fill-opacity:1;fill-rule:nonzero;stroke:none"
             d="m 0,0 h -0.049 c -2.196,0 -3.975,1.791 -3.975,4 0,2.209 1.779,4 3.975,4 H 0 C 2.196,8 3.976,6.209 3.976,4 3.976,1.791 2.196,0 0,0 m 0,12 h -0.049 c -4.398,0 -7.975,-3.589 -7.975,-8 0,-4.411 3.577,-8 7.975,-8 4.447,0 8.025,3.589 8.025,8 0,4.411 -3.578,8 -7.976,8" /></g><g
           transform="translate(224,144)"
           id="g38"><path
             id="path40"
             style="fill:#ffffff;fill-opacity:1;fill-rule:nonzero;stroke:none"
             d="m 0,0 c -5.522,0 -10,4.477 -10,10 0,5.523 4.478,10 10,10 C 5.522,20 10,15.523 10,10 10,4.477 5.522,0 0,0 m -20,-16 c -5.522,0 -10,4.477 -10,10 0,5.523 4.478,10 10,10 5.522,0 10,-4.477 10,-10 0,-5.523 -4.478,-10 -10,-10 M 0,24 c -7.72,0 -14,-6.28 -14,-14 0,-1.249 0.18,-2.453 0.488,-3.605 C -15.453,7.415 -17.658,8 -20,8 -27.72,8 -34,1.72 -34,-6 c 0,-7.72 6.28,-14 14,-14 7.72,0 14,6.28 14,14 0,1.249 -0.18,2.453 -0.488,3.605 C -4.547,-3.415 -2.342,-4 0,-4 7.72,-4 14,2.28 14,10 14,17.72 7.72,24 0,24" /></g><g
           transform="translate(40,160)"
           id="g42"><path
             id="path44"
             style="fill:#ffffff;fill-opacity:1;fill-rule:nonzero;stroke:none"
             d="m 0,0 c 11.046,0 20,-8.954 20,-20 0,-11.046 -8.954,-20 -20,-20 -11.046,0 -20,8.954 -20,20 0,11.046 8.954,20 20,20 m 0,-44 c 13.233,0 24,10.767 24,24 C 24,-6.767 13.233,4 0,4 -13.233,4 -24,-6.767 -24,-20 c 0,-13.233 10.767,-24 24,-24" /></g><g
           transform="translate(40,152)"
           id="g46"><path
             id="path48"
             style="fill:#ffffff;fill-opacity:1;fill-rule:nonzero;stroke:none"
             d="m 0,0 c 6.627,0 12,-5.373 12,-12 0,-6.627 -5.373,-12 -12,-12 -6.627,0 -12,5.373 -12,12 0,6.627 5.373,12 12,12 m 0,-28 c 8.822,0 16,7.178 16,16 0,8.822 -7.178,16 -16,16 -8.822,0 -16,-7.178 -16,-16 0,-8.822 7.178,-16 16,-16" /></g><g
           transform="translate(226,188)"
           id="g50"><path
             id="path52"
             style="fill:#ffffff;fill-opacity:1;fill-rule:nonzero;stroke:none"
             d="m 0,0 c 3.313,0 6,-2.687 6,-6 0,-3.313 -2.687,-6 -6,-6 -3.313,0 -6,2.687 -6,6 0,3.313 2.687,6 6,6 m 0,-16 c 5.514,0 10,4.486 10,10 0,5.514 -4.486,10 -10,10 -5.514,0 -10,-4.486 -10,-10 0,-5.514 4.486,-10 10,-10" /></g><g
           transform="translate(30,104)"
           id="g54"><path
             id="path56"
             style="fill:#ffffff;fill-opacity:1;fill-rule:nonzero;stroke:none"
             d="m 0,0 c -1.104,0 -2,-0.896 -2,-2 0,-1.104 0.896,-2 2,-2 1.104,0 2,0.896 2,2 0,1.104 -0.896,2 -2,2" /></g><g
           transform="translate(36,104)"
           id="g58"><path
             id="path60"
             style="fill:#ffffff;fill-opacity:1;fill-rule:nonzero;stroke:none"
             d="m 0,0 c -1.104,0 -2,-0.896 -2,-2 0,-1.104 0.896,-2 2,-2 1.104,0 2,0.896 2,2 0,1.104 -0.896,2 -2,2" /></g><g
           transform="translate(42,104)"
           id="g62"><path
             id="path64"
             style="fill:#ffffff;fill-opacity:1;fill-rule:nonzero;stroke:none"
             d="m 0,0 c -1.104,0 -2,-0.896 -2,-2 0,-1.104 0.896,-2 2,-2 1.104,0 2,0.896 2,2 0,1.104 -0.896,2 -2,2" /></g><g
           transform="translate(48,104)"
           id="g66"><path
             id="path68"
             style="fill:#ffffff;fill-opacity:1;fill-rule:nonzero;stroke:none"
             d="m 0,0 c -1.104,0 -2,-0.896 -2,-2 0,-1.104 0.896,-2 2,-2 1.104,0 2,0.896 2,2 0,1.104 -0.896,2 -2,2" /></g><g
           transform="translate(54,104)"
           id="g70"><path
             id="path72"
             style="fill:#ffffff;fill-opacity:1;fill-rule:nonzero;stroke:none"
             d="m 0,0 c -1.104,0 -2,-0.896 -2,-2 0,-1.104 0.896,-2 2,-2 1.104,0 2,0.896 2,2 0,1.104 -0.896,2 -2,2" /></g><g
           transform="translate(30,98)"
           id="g74"><path
             id="path76"
             style="fill:#ffffff;fill-opacity:1;fill-rule:nonzero;stroke:none"
             d="m 0,0 c -1.104,0 -2,-0.896 -2,-2 0,-1.104 0.896,-2 2,-2 1.104,0 2,0.896 2,2 0,1.104 -0.896,2 -2,2" /></g><g
           transform="translate(36,98)"
           id="g78"><path
             id="path80"
             style="fill:#ffffff;fill-opacity:1;fill-rule:nonzero;stroke:none"
             d="m 0,0 c -1.104,0 -2,-0.896 -2,-2 0,-1.104 0.896,-2 2,-2 1.104,0 2,0.896 2,2 0,1.104 -0.896,2 -2,2" /></g><g
           transform="translate(42,98)"
           id="g82"><path
             id="path84"
             style="fill:#ffffff;fill-opacity:1;fill-rule:nonzero;stroke:none"
             d="m 0,0 c -1.104,0 -2,-0.896 -2,-2 0,-1.104 0.896,-2 2,-2 1.104,0 2,0.896 2,2 0,1.104 -0.896,2 -2,2" /></g><g
           transform="translate(48,98)"
           id="g86"><path
             id="path88"
             style="fill:#ffffff;fill-opacity:1;fill-rule:nonzero;stroke:none"
             d="m 0,0 c -1.104,0 -2,-0.896 -2,-2 0,-1.104 0.896,-2 2,-2 1.104,0 2,0.896 2,2 0,1.104 -0.896,2 -2,2" /></g><g
           transform="translate(54,98)"
           id="g90"><path
             id="path92"
             style="fill:#ffffff;fill-opacity:1;fill-rule:nonzero;stroke:none"
             d="m 0,0 c -1.104,0 -2,-0.896 -2,-2 0,-1.104 0.896,-2 2,-2 1.104,0 2,0.896 2,2 0,1.104 -0.896,2 -2,2" /></g><g
           transform="translate(30,92)"
           id="g94"><path
             id="path96"
             style="fill:#ffffff;fill-opacity:1;fill-rule:nonzero;stroke:none"
             d="m 0,0 c -1.104,0 -2,-0.896 -2,-2 0,-1.104 0.896,-2 2,-2 1.104,0 2,0.896 2,2 0,1.104 -0.896,2 -2,2" /></g><g
           transform="translate(36,92)"
           id="g98"><path
             id="path100"
             style="fill:#ffffff;fill-opacity:1;fill-rule:nonzero;stroke:none"
             d="m 0,0 c -1.104,0 -2,-0.896 -2,-2 0,-1.104 0.896,-2 2,-2 1.104,0 2,0.896 2,2 0,1.104 -0.896,2 -2,2" /></g><g
           transform="translate(42,92)"
           id="g102"><path
             id="path104"
             style="fill:#ffffff;fill-opacity:1;fill-rule:nonzero;stroke:none"
             d="m 0,0 c -1.104,0 -2,-0.896 -2,-2 0,-1.104 0.896,-2 2,-2 1.104,0 2,0.896 2,2 0,1.104 -0.896,2 -2,2" /></g><g
           transform="translate(48,92)"
           id="g106"><path
             id="path108"
             style="fill:#ffffff;fill-opacity:1;fill-rule:nonzero;stroke:none"
             d="m 0,0 c -1.104,0 -2,-0.896 -2,-2 0,-1.104 0.896,-2 2,-2 1.104,0 2,0.896 2,2 0,1.104 -0.896,2 -2,2" /></g><g
           transform="translate(54,92)"
           id="g110"><path
             id="path112"
             style="fill:#ffffff;fill-opacity:1;fill-rule:nonzero;stroke:none"
             d="m 0,0 c -1.104,0 -2,-0.896 -2,-2 0,-1.104 0.896,-2 2,-2 1.104,0 2,0.896 2,2 0,1.104 -0.896,2 -2,2" /></g><g
           transform="translate(30,86)"
           id="g114"><path
             id="path116"
             style="fill:#ffffff;fill-opacity:1;fill-rule:nonzero;stroke:none"
             d="m 0,0 c -1.104,0 -2,-0.896 -2,-2 0,-1.104 0.896,-2 2,-2 1.104,0 2,0.896 2,2 0,1.104 -0.896,2 -2,2" /></g><g
           transform="translate(36,86)"
           id="g118"><path
             id="path120"
             style="fill:#ffffff;fill-opacity:1;fill-rule:nonzero;stroke:none"
             d="m 0,0 c -1.104,0 -2,-0.896 -2,-2 0,-1.104 0.896,-2 2,-2 1.104,0 2,0.896 2,2 0,1.104 -0.896,2 -2,2" /></g><g
           transform="translate(42,86)"
           id="g122"><path
             id="path124"
             style="fill:#ffffff;fill-opacity:1;fill-rule:nonzero;stroke:none"
             d="m 0,0 c -1.104,0 -2,-0.896 -2,-2 0,-1.104 0.896,-2 2,-2 1.104,0 2,0.896 2,2 0,1.104 -0.896,2 -2,2" /></g><g
           transform="translate(48,86)"
           id="g126"><path
             id="path128"
             style="fill:#ffffff;fill-opacity:1;fill-rule:nonzero;stroke:none"
             d="m 0,0 c -1.104,0 -2,-0.896 -2,-2 0,-1.104 0.896,-2 2,-2 1.104,0 2,0.896 2,2 0,1.104 -0.896,2 -2,2" /></g><g
           transform="translate(54,86)"
           id="g130"><path
             id="path132"
             style="fill:#ffffff;fill-opacity:1;fill-rule:nonzero;stroke:none"
             d="m 0,0 c -1.104,0 -2,-0.896 -2,-2 0,-1.104 0.896,-2 2,-2 1.104,0 2,0.896 2,2 0,1.104 -0.896,2 -2,2" /></g><g
           transform="translate(198,104)"
           id="g134"><path
             id="path136"
             style="fill:#ffffff;fill-opacity:1;fill-rule:nonzero;stroke:none"
             d="m 0,0 c -1.104,0 -2,-0.896 -2,-2 0,-1.104 0.896,-2 2,-2 1.104,0 2,0.896 2,2 0,1.104 -0.896,2 -2,2" /></g><g
           transform="translate(214,104)"
           id="g138"><path
             id="path140"
             style="fill:#ffffff;fill-opacity:1;fill-rule:nonzero;stroke:none"
             d="m 0,0 c -1.104,0 -2,-0.896 -2,-2 0,-1.104 0.896,-2 2,-2 1.104,0 2,0.896 2,2 0,1.104 -0.896,2 -2,2" /></g><g
           transform="translate(230,104)"
           id="g142"><path
             id="path144"
             style="fill:#ffffff;fill-opacity:1;fill-rule:nonzero;stroke:none"
             d="m 0,0 c -1.104,0 -2,-0.896 -2,-2 0,-1.104 0.896,-2 2,-2 1.104,0 2,0.896 2,2 0,1.104 -0.896,2 -2,2" /></g><g
           transform="translate(198,92)"
           id="g146"><path
             id="path148"
             style="fill:#ffffff;fill-opacity:1;fill-rule:nonzero;stroke:none"
             d="m 0,0 c -1.104,0 -2,-0.896 -2,-2 0,-1.104 0.896,-2 2,-2 1.104,0 2,0.896 2,2 0,1.104 -0.896,2 -2,2" /></g><g
           transform="translate(214,92)"
           id="g150"><path
             id="path152"
             style="fill:#ffffff;fill-opacity:1;fill-rule:nonzero;stroke:none"
             d="m 0,0 c -1.104,0 -2,-0.896 -2,-2 0,-1.104 0.896,-2 2,-2 1.104,0 2,0.896 2,2 0,1.104 -0.896,2 -2,2" /></g><g
           transform="translate(230,92)"
           id="g154"><path
             id="path156"
             style="fill:#ffffff;fill-opacity:1;fill-rule:nonzero;stroke:none"
             d="m 0,0 c -1.104,0 -2,-0.896 -2,-2 0,-1.104 0.896,-2 2,-2 1.104,0 2,0.896 2,2 0,1.104 -0.896,2 -2,2" /></g><g
           transform="translate(198,80)"
           id="g158"><path
             id="path160"
             style="fill:#ffffff;fill-opacity:1;fill-rule:nonzero;stroke:none"
             d="m 0,0 c -1.104,0 -2,-0.896 -2,-2 0,-1.104 0.896,-2 2,-2 1.104,0 2,0.896 2,2 0,1.104 -0.896,2 -2,2" /></g><g
           transform="translate(214,80)"
           id="g162"><path
             id="path164"
             style="fill:#ffffff;fill-opacity:1;fill-rule:nonzero;stroke:none"
             d="m 0,0 c -1.104,0 -2,-0.896 -2,-2 0,-1.104 0.896,-2 2,-2 1.104,0 2,0.896 2,2 0,1.104 -0.896,2 -2,2" /></g><g
           transform="translate(230,80)"
           id="g166"><path
             id="path168"
             style="fill:#ffffff;fill-opacity:1;fill-rule:nonzero;stroke:none"
             d="m 0,0 c -1.104,0 -2,-0.896 -2,-2 0,-1.104 0.896,-2 2,-2 1.104,0 2,0.896 2,2 0,1.104 -0.896,2 -2,2" /></g></g></g></g></svg>