<?xml version="1.0" encoding="utf-8"?>
<!-- Generator: Adobe Illustrator 26.0.3, SVG Export Plug-In . SVG Version: 6.00 Build 0)  -->
<svg version="1.1" id="Layer_1" xmlns="http://www.w3.org/2000/svg" xmlns:xlink="http://www.w3.org/1999/xlink" x="0px" y="0px"
	 viewBox="0 0 3839 1477.2" style="enable-background:new 0 0 3839 1477.2;" xml:space="preserve">
<style type="text/css">
	.st0{fill:#C497FF;}
	.st1{fill:#65B7FF;}
	.st2{fill:#FFFFFF;}
	.st3{fill:#636363;}
</style>
<g>
	<g>
		<g>
			<polygon class="st1" points="525.1,1054.2 439.4,864.3 494.6,803.7 415.6,825.7 284.7,663.7 370.4,853.5 315.2,914.1 
				394.1,892.2 			"/>
			<g>
				<polygon class="st1" points="525.1,1054.2 439.4,864.3 494.6,803.7 415.6,825.7 284.7,663.7 370.4,853.5 315.2,914.1 
					394.1,892.2 				"/>
			</g>
			<g>
				<path class="st1" d="M448.9,866.2l0.8,1.7c3.2,0.8,6.4,1.4,9.7,2l20.3,3.1l-6.6-33.3L448.9,866.2z"/>
				<path class="st1" d="M353.9,711.8l6.6,33.1l57.7,71.4l47.5-13.2l-1.9-9.6l-17.8-2.7c-4.7-0.7-8.5-4.3-9.4-9l-8.4-42.2
					c-0.8-4.2,2.7-7.9,6.9-7.2l116.1,17.9c4.7,0.7,8.5,4.3,9.4,9l8.4,42.2c0.8,4.2-2.7,7.9-6.9,7.2l-17-2.6l15.8,79.6l24.7,3.8
					c35,5.4,64.6-25.6,57.7-60.3l-14-70.5c-9-45.5-45.6-80.5-91.5-87.6l-126.2-19.4C376.6,646.1,347,677.1,353.9,711.8z"/>
			</g>
			<path class="st1" d="M214.3,157.5c24.5-30.7,50.2-46.4,76.3-46.8c73.3-1,145.9,122.3,186.2,315.2l13.2,2
				C449.5,230.3,374.5,97,290.4,98.2c-49.9,0.7-95.3,48.5-131.3,128.8l12.8,2C185,200.4,199.1,176.4,214.3,157.5z"/>
			<path class="st1" d="M521.6,760.4l-12.5-1.9c0.1,74.1-4.2,145.9-12.6,213.2l9.7,21.6C516.2,921.4,521.7,842.9,521.6,760.4z"/>
			<path class="st1" d="M499.7,1035.3l-10.5-13c-9.6,59.5-22.6,114.5-38.8,163.1c-19.2,57.7-41.6,102.9-66.8,134.3
				c-24.5,30.7-50.2,46.4-76.3,46.8c-74.8,1-148.8-127.4-188.6-327c-14.9-74.8-24.5-157.8-28.2-242.7c-4.4-2.2-8.7-4.5-12.8-7
				c3.6,90.7,13.6,176.1,28.7,252.2c40.1,201.6,115.9,338.2,201.1,337.1C392.9,1377.9,465.1,1238.7,499.7,1035.3z"/>
			<g>
				<path class="st1" d="M365.5,1171.8l-13-65.4c-0.8-3.9-3.9-6.8-7.8-7.4l-13.2-2l15.6,78.5c0.8,3.9,3.9,6.8,7.8,7.4l0,0
					C361.3,1183.9,366.8,1178.2,365.5,1171.8z"/>
				<path class="st1" d="M261,672l-65.3-10c-5.1-0.8-9.5,3.8-8.5,8.9l14.8,74.5l81,12.5L267.2,678C266.6,674.9,264.1,672.5,261,672z
					 M241.3,698.8l4.7,23.5l-19-2.9l-4.7-23.5L241.3,698.8z"/>
				<path class="st1" d="M410.8,1239.9c17.7-11.7,26.1-32.7,22.1-52.8l-16.3-82.3c-4.3-21.7-16.9-40.4-34.3-52.8
					c0.4-0.4,0.8-0.8,1.2-1.2c11.5-12.1,16.5-29.1,13.2-45.5l-19.8-99.7l-28.5,7.9l19.4,97.6c3,14.8-9.7,28.1-24.7,25.8l-120.9-18.6
					l-6.6-33l105.8,16.3c5.1,0.8,9.5-3.8,8.5-8.9l-14.8-74.5l-116.4-17.9l-6.6-33l135.4,20.9l33.3-36.6l-44.3-98.2l2,9.9l6.6,33l0,0
					l-178.4-27.5c-52.5-8.1-94.2-48.1-104.6-100.1L34.8,632l35.4,5.4l5.1,25.7c7.7,38.8,38.9,68.7,78,74.7l13.4,2.1l-17.4-87.4
					c-3-14.8,9.7-28.1,24.7-25.8l82.5,12.7c14.7,2.3,27.5,10.2,36,21.6l0.1,0l47.2,58.4l-8.3-41.7c-4.3-21.7-16.9-40.4-34.3-52.8
					c0.4-0.4,0.8-0.8,1.2-1.2c11.5-12.1,16.5-29.1,13.2-45.5l-17.6-88.4l16,2.5l66.4,10.2l12.4,62.3c9,45.5,45.6,80.5,91.5,87.6
					l59.9,9.2c35,5.4,64.6-25.6,57.7-60.3L568.8,455l-177.2-27.3l-29.5-148.4c-0.8-3.9-3.9-6.8-7.8-7.4L46.9,224.6
					c-6.4-1-11.9,4.7-10.6,11.1l39.6,199.2l0,0l12.8,64.4l116.4,17.9l4.7,23.5L93.4,522.7l18.8,94.5l15.9,2.4
					c-7.5,11.2-10.4,25.1-7.8,38.6l7.5,37.5c-12-9.4-20.6-22.9-23.7-38.4l-7.9-39.5c-0.8-3.9-3.9-6.8-7.8-7.4l-77.7-11.9
					c-6.4-1-11.9,4.7-10.6,11.1l12.9,64.9c12.8,64.2,64.3,113.5,129,123.5l6.2,1l12.7,63.7l0,0l12.7,63.7l116.4,17.9l4.7,23.5
					l-116.4-17.9l18.8,94.5l15.9,2.4c-7.5,11.2-10.4,25.1-7.7,38.6l26.7,134.2c0.8,3.9,3.9,6.8,7.8,7.4l90.9,14l-0.7-3.7
					c7.3,3.5,15.2,5.9,23.5,7.2l20.3,3.1C386.7,1249.6,400,1247.1,410.8,1239.9z M513.7,523.6l9.9,50c0.8,4.2-2.7,7.9-6.9,7.2
					l-49.7-7.6c-4.7-0.7-8.5-4.3-9.4-9l-10.1-50.8L513.7,523.6z M100.9,408.9L98,394.6l-3.3-16.8L76,284l-5.1-25.9L336,298.9
					l2.2,10.9l16,80.6l7.3,36.5l-35.4-5.4L324,411l-16.8-84.5l-78-12L237,354l1.4,7.1l5.1,25.9l-35.4-5.4l-2.8-13.9l-3.8-19.1
					l-7.9-39.6l-81-12.5l17.2,86.8l1,4.8l5.3,26.4L100.9,408.9z M149.9,332l19,2.9l14.4,72.6l97.4,15l-14.4-72.6l16,2.5l12,60.3
					l5.4,27.4l-25.4-3.9l-107-16.5L149.9,332z M137.2,591.2l-6.6-33l105.8,16.3c5.1,0.8,9.5-3.8,8.5-8.9l-14.8-74.5l-116.4-17.9
					l-6.6-33l151.7,23.4l24,120.4c3,14.8-9.7,28.1-24.7,25.8L137.2,591.2z M186,836.6l-6.6-33L331.2,827l6.6,33L186,836.6z
					 M379.2,1218.6l-21.3-3.3c-23.1-3.5-41.4-21.2-46-44l-15.9-79.8l-15.3-2.4c-5.1-0.8-9.5,3.8-8.5,8.9l14.8,74.5l2.9,14.7
					l3.6,18.2l-35.4-5.4l-1.2-6.2l-22.7-114.2c-3-14.8,9.7-28.1,24.7-25.8l82.5,12.7c23.1,3.5,41.4,21.2,46,44l16.4,82.2
					C406.9,1207.7,394.2,1220.9,379.2,1218.6z"/>
			</g>
		</g>
	</g>
	<g>
		<g>
			<g>
				<g>
					<polygon class="st1" points="1202.2,0 970.7,0 792.6,178.1 792.6,473.9 970.7,652 1067.8,651.9 1067.8,429.4 1015.1,429.4 
						1015.1,222.5 1157.9,222.5 1157.9,343.6 1380.3,343.6 1380.3,178.1 					"/>
					<polygon class="st1" points="1105.1,429.4 1105.1,651.9 1157.9,651.9 1157.9,858.9 1015.1,858.9 1015.1,725.4 792.6,725.4 
						792.6,903.2 970.7,1081.4 1202.2,1081.4 1380.3,903.2 1380.3,607.6 1202.2,429.4 					"/>
				</g>
				<g>
					<polygon class="st1" points="1714.5,858.9 1661.8,858.9 1661.8,0 1439.3,0 1439.3,903.2 1617.4,1081.4 1714.5,1081.4 					"/>
					<polygon class="st1" points="1804.6,0 1804.6,858.9 1751.9,858.9 1751.9,1081.4 1849,1081.4 2027.1,903.2 2027.1,0 					"/>
				</g>
				<g>
					<polygon class="st1" points="3473.7,429.4 3473.7,222.5 3473.7,0 3473.7,0 3251.2,0 3251.2,1081.4 3473.7,1081.4 
						3473.7,1039.1 3473.7,651.9 					"/>
					<polygon class="st1" points="3660.9,0 3619.1,0 3588.6,0 3511.1,0 3511.1,222.5 3616.5,222.5 3616.5,319.6 3616.5,398.1 
						3616.5,429.4 3511.1,429.4 3511.1,651.9 3616.5,651.9 3616.5,687.2 3616.5,763.2 3616.5,1074.1 3839,1074.1 3839,760.8 
						3839,687.2 3839,661.9 3717.8,540.7 3839,419.5 3839,398.1 3839,320.6 3839,226.6 3839,196.5 3839,178.1 					"/>
				</g>
				<g>
					<rect x="2977.1" y="429.4" class="st1" width="174.7" height="222.5"/>
					<polygon class="st1" points="3189.2,0 2939.8,0 2939.8,0 2717.3,0 2717.3,1081.4 2892.8,1081.4 2892.8,1081.4 3189.2,1081.4 
						3189.2,858.9 2939.8,858.9 2939.8,774.6 2939.8,651.9 2939.8,429.4 2939.8,387.6 2939.8,222.5 3189.2,222.5 					"/>
				</g>
				<g>
					<polygon class="st1" points="2492.6,0 2342.8,0 2342.8,222.5 2448.2,222.5 2448.2,500.1 2342.8,500.1 2342.8,722.5 
						2492.6,722.5 2670.7,544.4 2670.7,178.1 					"/>
					<polygon class="st1" points="2305.4,722.5 2305.4,500.1 2305.4,222.5 2305.4,0 2083,0 2083,1081.4 2305.4,1081.4 					"/>
				</g>
			</g>
			<g>
				<path class="st1" d="M2066.4,1293.7v-48.4c0-37.2-30.2-67.4-67.4-67.4h-321v299.4h66.6v-116.1h131.6l97.4,116.1h87l-97.4-116.1
					h35.8C2036.2,1361.1,2066.4,1330.9,2066.4,1293.7z M1744.6,1307.4v-75.9h255.1v75.9H1744.6z"/>
				<path class="st1" d="M1615.3,1231.5v-53.6h-329.9c-37.6,0-68,30.5-68,68v163.3c0,37.6,30.5,68,68,68h329.9v-169.8h-199v53.6
					h132.3v62.5H1284v-192.1H1615.3z"/>
				<polygon class="st1" points="2939.8,1231.5 2939.8,1177.9 2657.7,1177.9 2591.1,1177.9 2591.1,1231.5 2591.1,1477.2 
					2657.7,1477.2 2657.7,1361.1 2896,1361.1 2896,1307.4 2657.7,1307.4 2657.7,1231.5 				"/>
				<polygon class="st1" points="3391,1177.9 3296.8,1177.9 3183.5,1291.1 3070.2,1177.9 2976,1177.9 3125.7,1327.5 2976,1477.2 
					3070.2,1477.2 3183.5,1363.9 3296.8,1477.2 3391,1477.2 3241.4,1327.5 				"/>
				<polygon class="st1" points="2464.2,1477.2 2539.1,1477.2 2385.6,1177.9 2255.6,1177.9 2102.2,1477.2 2177.1,1477.2 
					2303,1231.5 2338.2,1231.5 				"/>
			</g>
		</g>
	</g>
</g>
</svg>
