<?xml version="1.0" encoding="UTF-8" standalone="no"?>
<svg
   xmlns:dc="http://purl.org/dc/elements/1.1/"
   xmlns:cc="http://creativecommons.org/ns#"
   xmlns:rdf="http://www.w3.org/1999/02/22-rdf-syntax-ns#"
   xmlns:svg="http://www.w3.org/2000/svg"
   xmlns="http://www.w3.org/2000/svg"
   viewBox="0 0 320 149.33333"
   height="149.33333"
   width="320"
   xml:space="preserve"
   id="svg2"
   version="1.1"><metadata
     id="metadata8"><rdf:RDF><cc:Work
         rdf:about=""><dc:format>image/svg+xml</dc:format><dc:type
           rdf:resource="http://purl.org/dc/dcmitype/StillImage" /></cc:Work></rdf:RDF></metadata><defs
     id="defs6"><clipPath
       id="clipPath18"
       clipPathUnits="userSpaceOnUse"><path
         id="path16"
         d="M 0,256 H 256 V 0 H 0 Z" /></clipPath></defs><g
     transform="matrix(1.3333333,0,0,-1.3333333,-10.666666,245.33319)"
     id="g10"><g
       id="g12"><g
         clip-path="url(#clipPath18)"
         id="g14"><g
           transform="translate(244,123.7119)"
           id="g20"><path
             id="path22"
             style="fill:#ffffff;fill-opacity:1;fill-rule:nonzero;stroke:none"
             d="M 0,0 C 0,-2.741 -0.351,-5.462 -1.045,-8.113 -2.709,-14.47 -6.36,-26.072 -12,-31.712 l -0.854,-0.853 c -0.725,-0.726 -1.698,-1.146 -2.724,-1.17 -4.477,-0.108 -17.146,-0.701 -20.422,-3.977 -4,-4 -8,-10 -12,-10 h -136 c -4,0 -6.94,7.471 -12,10 -6.384,3.192 -16.59,3.837 -20.452,3.967 -1.012,0.034 -1.968,0.453 -2.684,1.169 l -0.864,0.864 c -5.64,5.64 -9.291,17.242 -10.955,23.599 C -231.649,-5.462 -232,-2.741 -232,0 v 12.288 c 0,20 16,32 16,32 16,0 20,4 24,8 4,4 8,4 8,4 h 136 c 0,0 4,0 8,-4 4,-4 8,-8 24,-8 0,0 16,-12 16,-32 z m -28,-44.712 c -4.676,-1.559 -8.731,-2.505 -11.956,-3.085 1.363,1.276 2.663,2.734 3.945,4.178 0.106,0.118 0.204,0.226 0.309,0.343 3.437,0.581 8.392,1.94 12.799,5.108 1.98,0.194 4.259,0.34 6.833,0.415 -2.523,-2.383 -6.354,-5.101 -11.93,-6.959 m -187.914,6.943 c 1.571,-0.068 4.212,-0.237 7.138,-0.628 4.867,-3.384 10.336,-4.614 13.669,-5.059 0.678,-0.709 1.348,-1.493 2.009,-2.27 0.629,-0.74 1.282,-1.504 1.973,-2.232 -3.355,0.561 -7.745,1.536 -12.875,3.246 -5.564,1.855 -9.391,4.565 -11.914,6.943 m 22.239,93.946 c -0.385,-0.33 -0.769,-0.677 -1.154,-1.06 -3.337,-3.338 -6.264,-6.26 -17.6,-6.754 6.02,4.473 13.142,6.7 18.754,7.814 m 174.104,-7.814 c -11.336,0.494 -14.263,3.416 -17.601,6.754 -0.384,0.383 -0.768,0.73 -1.153,1.06 5.612,-1.114 12.734,-3.341 18.754,-7.814 m 5.971,-0.875 -1.067,0.8 h -0.135 c -12.776,11.854 -32.351,12 -33.198,12 H -49.242 -184 c -0.847,0 -20.422,-0.146 -33.198,-12 h -0.135 l -1.067,-0.8 c -0.719,-0.539 -17.6,-13.45 -17.6,-35.2 V 0 c 0,-3.077 0.396,-6.148 1.175,-9.127 2.171,-8.291 6.014,-19.431 11.996,-25.413 l 0.865,-0.864 c 0.077,-0.078 0.161,-0.147 0.241,-0.22 1.915,-2.798 6.894,-8.641 16.774,-11.934 12.321,-4.107 20.602,-4.154 20.949,-4.154 h 136 c 0.347,0 8.629,0.047 20.948,4.154 9.885,3.294 14.864,9.14 16.777,11.937 0.083,0.076 0.17,0.147 0.25,0.227 l 0.853,0.854 c 5.983,5.982 9.826,17.122 11.997,25.413 C 3.604,-6.148 4,-3.077 4,0 v 12.288 c 0,21.75 -16.881,34.661 -17.6,35.2" /></g><path
           id="path24"
           style="fill:#ffffff;fill-opacity:1;fill-rule:nonzero;stroke:none"
           d="M 196,96 H 60 v 76 H 196 Z M 60,176 h -4 v -4 -76 -4 h 4 136 4 v 4 76 4 h -4 z" /><g
           transform="translate(224,96)"
           id="g26"><path
             id="path28"
             style="fill:#ffffff;fill-opacity:1;fill-rule:nonzero;stroke:none"
             d="M 0,0 C -2.209,0 -4,0.896 -4,2 -4,3.104 -2.209,4 0,4 2.209,4 4,3.104 4,2 4,0.896 2.209,0 0,0 m -12,0 c -2.209,0 -4,0.896 -4,2 0,1.104 1.791,2 4,2 2.209,0 4,-0.896 4,-2 0,-1.104 -1.791,-2 -4,-2 M 0,8 C -2.464,8 -4.568,7.287 -6,6.097 -7.432,7.287 -9.536,8 -12,8 c -4.636,0 -8,-2.523 -8,-6 0,-3.477 3.364,-6 8,-6 2.464,0 4.568,0.713 6,1.903 C -4.568,-3.287 -2.464,-4 0,-4 4.636,-4 8,-1.477 8,2 8,5.477 4.636,8 0,8" /></g><g
           transform="translate(38,94)"
           id="g30"><path
             id="path32"
             style="fill:#ffffff;fill-opacity:1;fill-rule:nonzero;stroke:none"
             d="M 0,0 C -4.418,0 -8,1.791 -8,4 -8,6.209 -4.418,8 0,8 4.418,8 8,6.209 8,4 8,1.791 4.418,0 0,0 m 0,12 c -6.953,0 -12,-3.364 -12,-8 0,-4.636 5.047,-8 12,-8 6.953,0 12,3.364 12,8 0,4.636 -5.047,8 -12,8" /></g><g
           transform="translate(38,117)"
           id="g34"><path
             id="path36"
             style="fill:#ffffff;fill-opacity:1;fill-rule:nonzero;stroke:none"
             d="M 0,0 C 0,1.654 1.346,3 3,3 4.654,3 6,1.654 6,0 6,-1.654 4.654,-3 3,-3 1.346,-3 0,-1.654 0,0 M 10,0 C 10,3.859 6.86,7 3,7 -0.86,7 -4,3.859 -4,0 c 0,-3.859 3.14,-7 7,-7 3.86,0 7,3.141 7,7" /></g><g
           transform="translate(212,117)"
           id="g38"><path
             id="path40"
             style="fill:#ffffff;fill-opacity:1;fill-rule:nonzero;stroke:none"
             d="M 0,0 C 0,1.654 1.346,3 3,3 4.654,3 6,1.654 6,0 6,-1.654 4.654,-3 3,-3 1.346,-3 0,-1.654 0,0 M 10,0 C 10,3.859 6.859,7 3,7 -0.859,7 -4,3.859 -4,0 c 0,-3.859 3.141,-7 7,-7 3.859,0 7,3.141 7,7" /></g><g
           transform="translate(231.5,150)"
           id="g42"><path
             id="path44"
             style="fill:#ffffff;fill-opacity:1;fill-rule:nonzero;stroke:none"
             d="m 0,0 c 2.762,0 5,-2.239 5,-5 0,-2.761 -2.238,-5 -5,-5 -2.762,0 -5,2.239 -5,5 0,2.761 2.238,5 5,5 m -9.5,-19.5 c -2.762,0 -5,2.239 -5,5 0,2.761 2.238,5 5,5 2.762,0 5,-2.239 5,-5 0,-2.761 -2.238,-5 -5,-5 M -19,-10 c -2.762,0 -5,2.239 -5,5 0,2.761 2.238,5 5,5 2.762,0 5,-2.239 5,-5 0,-2.761 -2.238,-5 -5,-5 m -6.5,19 c 0,1.657 1.343,3 3,3 1.657,0 3,-1.343 3,-3 0,-1.657 -1.343,-3 -3,-3 -1.657,0 -3,1.343 -3,3 M -8.985,-5.515 c -0.171,0.01 -0.342,0.015 -0.515,0.015 -0.173,0 -0.344,-0.005 -0.515,-0.015 0.01,0.171 0.015,0.342 0.015,0.515 0,0.173 -0.005,0.344 -0.015,0.515 0.171,-0.01 0.342,-0.015 0.515,-0.015 0.173,0 0.344,0.005 0.515,0.015 C -8.995,-4.656 -9,-4.827 -9,-5 c 0,-0.173 0.005,-0.344 0.015,-0.515 M -9.5,9.5 c 2.762,0 5,-2.239 5,-5 0,-2.761 -2.238,-5 -5,-5 -2.762,0 -5,2.239 -5,5 0,2.761 2.238,5 5,5 m 9,-5 c 0,4.963 -4.037,9 -9,9 -2.441,0 -4.655,-0.98 -6.278,-2.564 -0.843,2.92 -3.534,5.064 -6.722,5.064 -3.859,0 -7,-3.14 -7,-7 0,-3.231 2.204,-5.951 5.186,-6.753 C -26.544,0.607 -28,-2.026 -28,-5 c 0,-4.962 4.037,-9 9,-9 0.173,0 0.344,0.005 0.515,0.015 -0.01,-0.171 -0.015,-0.342 -0.015,-0.515 0,-4.962 4.037,-9 9,-9 4.963,0 9,4.038 9,9 0,0.173 -0.005,0.344 -0.015,0.515 C -0.344,-13.995 -0.173,-14 0,-14 4.963,-14 9,-9.962 9,-5 9,-0.037 4.963,4 0,4 -0.173,4 -0.344,3.995 -0.515,3.985 -0.505,4.156 -0.5,4.327 -0.5,4.5" /></g><g
           transform="translate(46.2109,141.4224)"
           id="g46"><path
             id="path48"
             style="fill:#ffffff;fill-opacity:1;fill-rule:nonzero;stroke:none"
             d="m 0,0 -0.211,-0.422 h -4.288 l -0.884,0.884 -3.171,3.171 3.171,3.172 0.773,0.773 h 4.399 L 0,7.155 C 1.126,4.903 1.126,2.252 0,0 m -8.633,-8.578 c -1.126,-0.563 -2.352,-0.844 -3.578,-0.844 -1.226,0 -2.452,0.281 -3.578,0.844 l -0.422,0.211 v 4.288 l 0.828,0.828 3.172,3.172 3.171,-3.172 0.829,-0.828 V -8.367 Z M -24.422,0 c -1.126,2.252 -1.126,4.903 0,7.155 l 0.211,0.423 h 4.399 l 0.772,-0.773 3.172,-3.172 -3.172,-3.171 -0.884,-0.884 h -4.287 z m 8.633,15.845 c 1.126,0.563 2.352,0.844 3.578,0.844 1.226,0 2.452,-0.281 3.578,-0.844 l 0.422,-0.212 v -4.399 l -0.829,-0.828 -3.171,-3.172 -3.172,3.172 -0.828,0.828 v 4.399 z M 3.367,9.367 2.261,11.578 h -2.472 -4 v 4.055 2.472 l -2.211,1.106 -0.422,0.211 c -1.658,0.829 -3.514,1.267 -5.367,1.267 -1.853,0 -3.709,-0.438 -5.367,-1.267 L -18,19.211 -20.211,18.105 v -2.472 -4.055 h -4 -2.472 L -27.789,9.367 -28,8.944 c -1.68,-3.36 -1.68,-7.373 0,-10.733 l 0.211,-0.422 1.106,-2.211 h 2.472 4 v -3.945 -2.472 l 2.211,-1.105 0.422,-0.211 c 1.658,-0.829 3.514,-1.267 5.367,-1.267 1.853,0 3.709,0.438 5.367,1.267 l 0.422,0.211 2.211,1.105 v 2.472 3.945 h 4 2.472 l 1.106,2.211 0.211,0.422 c 1.68,3.36 1.68,7.373 0,10.733 z" /></g></g></g></g></svg>