<?xml version="1.0" encoding="UTF-8" standalone="no"?>
<svg
   xmlns:dc="http://purl.org/dc/elements/1.1/"
   xmlns:cc="http://creativecommons.org/ns#"
   xmlns:rdf="http://www.w3.org/1999/02/22-rdf-syntax-ns#"
   xmlns:svg="http://www.w3.org/2000/svg"
   xmlns="http://www.w3.org/2000/svg"
   viewBox="0 0 320 202.66665"
   height="202.66666"
   width="320"
   xml:space="preserve"
   id="svg2"
   version="1.1"><metadata
     id="metadata8"><rdf:RDF><cc:Work
         rdf:about=""><dc:format>image/svg+xml</dc:format><dc:type
           rdf:resource="http://purl.org/dc/dcmitype/StillImage" /></cc:Work></rdf:RDF></metadata><defs
     id="defs6"><clipPath
       id="clipPath26"
       clipPathUnits="userSpaceOnUse"><path
         id="path24"
         d="M 0,256 H 256 V 0 H 0 Z" /></clipPath></defs><g
     transform="matrix(1.3333333,0,0,-1.3333333,-10.666666,271.99999)"
     id="g10"><g
       transform="translate(32,100)"
       id="g12"><path
         id="path14"
         style="fill:#ffffff;fill-opacity:1;fill-rule:nonzero;stroke:none"
         d="m 0,0 1.5,4 h 189 L 192,0 Z M 12,32 H 180 L 189,8 H 3 Z m 170.772,4 H 180 12 9.228 l -0.973,-2.596 -12,-32 L -5.772,-4 H 0 h 192 5.772 l -2.027,5.404 -12,32 z" /></g><g
       transform="translate(219.0234,112)"
       id="g16"><path
         id="path18"
         style="fill:#ffffff;fill-opacity:1;fill-rule:nonzero;stroke:none"
         d="m 0,0 -1.199,4 h -179.648 l -1.2,-4 z" /></g><g
       id="g20"><g
         clip-path="url(#clipPath26)"
         id="g22"><g
           transform="translate(244,152)"
           id="g28"><path
             id="path30"
             style="fill:#ffffff;fill-opacity:1;fill-rule:nonzero;stroke:none"
             d="m 0,0 v -12 -68 c 0,-8.837 -7.163,-16 -16,-16 h -200 c -8.836,0 -16,7.163 -16,16 v 68 12 8 l 12,8 v 8 20 l 4,4 V 28 l 8,-4 V 8 -8 h -2.883 l -0.912,-2.735 -16,-48 -0.205,-0.616 V -60 -64 -76 c 0,-6.617 5.383,-12 12,-12 h 200 c 6.617,0 12,5.383 12,12 v 12 4 0.649 l -0.205,0.616 -16,48 L -21.117,-8 H -24 V 8 24 l 8,4 v 20 l 4,-4 V 24 16 L 0,8 Z m -212,48 h 48 V 28 h -43.056 L -212,30.472 Z m 140,0 V 28 h -4 -4 -72 -4 -4 v 20 z m 44,-28 h -40 v 4 h 40 z M -68,0 h 40 v -8 h -40 z m -136,0 h 40 v -8 h -40 z m 0,16 h 40 v -4 h -40 z m 40,-12 h -40 v 4 h 40 z m 136,0 h -40 v 4 h 40 z m -40,12 h 40 v -4 h -40 z m -84,-20 h 72 4 v 4 24 h 4 V -8 h -88 v 32 h 4 V 0 -4 Z m 72,4 h -72 v 8 h 72 z m -72,24 h 72 V 12 h -72 z m -12,-4 h -40 v 4 h 40 z m 128,-80 h -4 -20 -4 -160 l 16,48 h 44 4 88 4 44 l 16,-48 z m -24,-4 h 20 v -12 h -20 z m -164,0 h 160 v -12 -4 h 4 20 4 v 4 12 h 28 v -12 c 0,-4.418 -3.582,-8 -8,-8 h -200 c -4.418,0 -8,3.582 -8,8 z M -20,48 V 30.472 L -24.944,28 H -68 V 48 Z M 2.219,11.328 -8,18.141 V 24 44 45.657 l -1.172,1.172 -4,4 L -14.343,52 H -20 h -192 -5.657 l -1.172,-1.171 -4,-4 L -224,45.657 V 44 24 18.141 L -234.219,11.328 -236,10.141 V 8 0 -12 -80 c 0,-11.028 8.972,-20 20,-20 h 200 c 11.028,0 20,8.972 20,20 v 68 12 8 2.141 z" /></g></g></g></g></svg>