<?xml version="1.0" encoding="UTF-8" standalone="no"?>
<svg
   xmlns:dc="http://purl.org/dc/elements/1.1/"
   xmlns:cc="http://creativecommons.org/ns#"
   xmlns:rdf="http://www.w3.org/1999/02/22-rdf-syntax-ns#"
   xmlns:svg="http://www.w3.org/2000/svg"
   xmlns="http://www.w3.org/2000/svg"
   viewBox="0 0 320 138.66666"
   height="138.66666"
   width="320"
   xml:space="preserve"
   id="svg2"
   version="1.1"><metadata
     id="metadata8"><rdf:RDF><cc:Work
         rdf:about=""><dc:format>image/svg+xml</dc:format><dc:type
           rdf:resource="http://purl.org/dc/dcmitype/StillImage" /></cc:Work></rdf:RDF></metadata><defs
     id="defs6"><clipPath
       id="clipPath20"
       clipPathUnits="userSpaceOnUse"><path
         id="path18"
         d="M 0,256 H 256 V 0 H 0 Z" /></clipPath></defs><g
     transform="matrix(1.3333333,0,0,-1.3333333,-10.666666,239.99999)"
     id="g10"><path
       id="path12"
       style="fill:#ffffff;fill-opacity:1;fill-rule:nonzero;stroke:none"
       d="M 192,96 H 64 v 64 h 128 z m 4,68 H 60 V 92 h 136 z" /><g
       id="g14"><g
         clip-path="url(#clipPath20)"
         id="g16"><g
           transform="translate(228,132)"
           id="g22"><path
             id="path24"
             style="fill:#ffffff;fill-opacity:1;fill-rule:nonzero;stroke:none"
             d="m 0,0 c 4.418,0 8,-3.582 8,-8 0,-4.418 -3.582,-8 -8,-8 -4.418,0 -8,3.582 -8,8 0,4.418 3.582,8 8,8 m 0,-20 c 6.617,0 12,5.383 12,12 0,6.617 -5.383,12 -12,12 -6.617,0 -12,-5.383 -12,-12 0,-6.617 5.383,-12 12,-12" /></g><g
           transform="translate(204,88)"
           id="g26"><path
             id="path28"
             style="fill:#ffffff;fill-opacity:1;fill-rule:nonzero;stroke:none"
             d="M 0,0 H -5.585 C -6.683,1.176 -8.255,1.913 -10,1.913 h -4 c -1.745,0 -3.317,-0.737 -4.415,-1.913 h -77.971 c -0.858,2.233 -3.051,3.826 -5.614,3.826 -2.563,0 -4.756,-1.593 -5.614,-3.826 h -25.971 c -1.097,1.176 -2.67,1.913 -4.415,1.913 h -4 c -1.745,0 -3.318,-0.737 -4.415,-1.913 H -152 V 80 H 0 Z m 0,84 h -152 c -2.209,0 -4,-1.713 -4,-3.826 V -0.174 c 0,-2.113 1.791,-3.826 4,-3.826 h 8 c 0,1.057 0.896,1.913 2,1.913 h 4 c 1.104,0 2,-0.856 2,-1.913 h 32 v 1.913 c 0,1.057 0.896,1.913 2,1.913 1.104,0 2,-0.856 2,-1.913 V -4 h 84 c 0,1.057 0.896,1.913 2,1.913 h 4 c 1.104,0 2,-0.856 2,-1.913 h 8 c 2.209,0 4,1.713 4,3.826 V 80.174 C 4,82.287 2.209,84 0,84" /></g><g
           transform="translate(218,104)"
           id="g30"><path
             id="path32"
             style="fill:#ffffff;fill-opacity:1;fill-rule:nonzero;stroke:none"
             d="M 0,0 C 0,2.206 1.794,4 4,4 6.206,4 8,2.206 8,0 8,-2.206 6.206,-4 4,-4 1.794,-4 0,-2.206 0,0 M 26,48 V -4 C 26,-15.046 17.046,-24 6,-24 h -8.35 c 0.223,0.627 0.35,1.298 0.35,2 V -5.273 C -0.533,-6.941 1.609,-8 4,-8 8.411,-8 12,-4.411 12,0 12,4.411 8.411,8 4,8 1.609,8 -0.533,6.941 -2,5.273 V 20 32 41.083 C -0.821,40.398 0.542,40 2,40 c 0,-4.411 3.589,-8 8,-8 4.411,0 8,3.589 8,8 4.411,0 8,3.589 8,8 0,4.411 -3.589,8 -8,8 0,4.411 -3.589,8 -8,8 C 5.589,64 2,60.411 2,56 H 0 -2 v 14 2 H 6 C 17.046,72 26,63.046 26,52 Z M -6,-22 c 0,-1.104 -0.896,-2 -2,-2 h -164 c -1.104,0 -2,0.896 -2,2 v 80 4 2 4 c 0,0 0.246,0.002 0.611,0.062 0.131,0.02 0.259,0.045 0.385,0.078 1.047,0.252 2.588,0.964 2.934,2.99 0.084,0.494 0.488,0.87 0.989,0.87 h 3.081 152 3.081 c 0.501,0 0.905,-0.376 0.989,-0.87 0.345,-2.026 1.887,-2.738 2.934,-2.99 0.126,-0.033 0.254,-0.058 0.385,-0.078 C -6.246,68.002 -6,68 -6,68 v -4 -2 -4 z m 6.775,77.896 c 0.081,0.013 0.162,0.027 0.243,0.038 C 0.937,55.923 0.856,55.909 0.775,55.896 m -0.943,-0.203 c 0.057,0.016 0.114,0.03 0.171,0.044 -0.057,-0.014 -0.114,-0.028 -0.171,-0.044 M 2,44 c -2.209,0 -4,1.791 -4,4 0,2.209 1.791,4 4,4 2.209,0 4,-1.791 4,-4 0,-2.209 -1.791,-4 -4,-4 m 8,0 c 2.209,0 4,-1.791 4,-4 0,-2.209 -1.791,-4 -4,-4 -2.209,0 -4,1.791 -4,4 0,2.209 1.791,4 4,4 m 8,8 c 2.209,0 4,-1.791 4,-4 0,-2.209 -1.791,-4 -4,-4 -2.209,0 -4,1.791 -4,4 0,2.209 1.791,4 4,4 m -8,0 c -2.209,0 -4,1.791 -4,4 0,2.209 1.791,4 4,4 2.209,0 4,-1.791 4,-4 0,-2.209 -1.791,-4 -4,-4 M -182,16 c -2.209,0 -4,1.791 -4,4 0,2.209 1.791,4 4,4 2.209,0 4,-1.791 4,-4 0,-2.209 -1.791,-4 -4,-4 m 1,-8 h -2.083 c 0.685,1.179 1.083,2.542 1.083,4 1.458,0 2.822,0.398 4,1.082 V 6.975 C -178.838,7.609 -179.87,8 -181,8 m -7,-5 c 0,0.553 0.448,1 1,1 h 6 c 0.552,0 1,-0.447 1,-1 v -6 c 0,-0.553 -0.448,-1 -1,-1 h -6 c -0.552,0 -1,0.447 -1,1 z m -6,25 c 0,2.209 1.791,4 4,4 2.209,0 4,-1.791 4,-4 0,-2.209 -1.791,-4 -4,-4 -2.209,0 -4,1.791 -4,4 m -4,-12 c -2.209,0 -4,1.791 -4,4 0,2.209 1.791,4 4,4 2.209,0 4,-1.791 4,-4 0,-2.209 -1.791,-4 -4,-4 m 8,0 c 2.209,0 4,-1.791 4,-4 0,-2.209 -1.791,-4 -4,-4 -2.209,0 -4,1.791 -4,4 0,2.209 1.791,4 4,4 m 4,-40 c -11.046,0 -20,8.954 -20,20 v 24 32 c 0,11.046 8.954,20 20,20 h 7.792 0.208 V 58 48 36 26.917 c -1.178,0.685 -2.542,1.083 -4,1.083 0,4.411 -3.589,8 -8,8 -4.411,0 -8,-3.589 -8,-8 -4.411,0 -8,-3.589 -8,-8 0,-4.411 3.589,-8 8,-8 0,-3.78 2.638,-6.948 6.168,-7.78 C -191.931,3.827 -192,3.423 -192,3 v -6 c 0,-2.757 2.243,-5 5,-5 h 6 c 1.13,0 2.162,0.391 3,1.025 V -22 c 0,-0.702 0.127,-1.373 0.35,-2 z M 6,76 H -5 c -0.343,0 -0.677,-0.035 -1,-0.101 v -3.881 l -0.029,0.005 C -6.541,74.352 -8.558,76 -10.919,76 H -14 h -152 -3.081 c -2.369,0 -4.391,-1.66 -4.89,-3.979 v 0 L -174,72.014 v 3.876 c -0.324,0.067 -0.656,0.11 -1,0.11 h -11 c -13.233,0 -24,-10.767 -24,-24 V -4 c 0,-13.233 10.767,-24 24,-24 H 6 c 13.233,0 24,10.767 24,24 V 52 C 30,65.233 19.233,76 6,76" /></g><g
           transform="translate(28,144)"
           id="g34"><path
             id="path36"
             style="fill:#ffffff;fill-opacity:1;fill-rule:nonzero;stroke:none"
             d="m 0,0 c -4.418,0 -8,3.582 -8,8 0,4.418 3.582,8 8,8 C 4.418,16 8,12.418 8,8 8,3.582 4.418,0 0,0 M 0,20 C -6.617,20 -12,14.617 -12,8 -12,1.383 -6.617,-4 0,-4 6.617,-4 12,1.383 12,8 12,14.617 6.617,20 0,20" /></g></g></g></g></svg>