<?xml version="1.0" encoding="UTF-8" standalone="no"?>
<svg
   xmlns:dc="http://purl.org/dc/elements/1.1/"
   xmlns:cc="http://creativecommons.org/ns#"
   xmlns:rdf="http://www.w3.org/1999/02/22-rdf-syntax-ns#"
   xmlns:svg="http://www.w3.org/2000/svg"
   xmlns="http://www.w3.org/2000/svg"
   viewBox="0 0 320 250.66665"
   height="250.66666"
   width="320"
   xml:space="preserve"
   id="svg2"
   version="1.1"><metadata
     id="metadata8"><rdf:RDF><cc:Work
         rdf:about=""><dc:format>image/svg+xml</dc:format><dc:type
           rdf:resource="http://purl.org/dc/dcmitype/StillImage" /></cc:Work></rdf:RDF></metadata><defs
     id="defs6"><clipPath
       id="clipPath18"
       clipPathUnits="userSpaceOnUse"><path
         id="path16"
         d="M 0,256 H 256 V 0 H 0 Z" /></clipPath></defs><g
     transform="matrix(1.3333333,0,0,-1.3333333,-10.666666,298.66666)"
     id="g10"><g
       id="g12"><g
         clip-path="url(#clipPath18)"
         id="g14"><g
           transform="translate(66,172)"
           id="g20"><path
             id="path22"
             style="fill:#ffffff;fill-opacity:1;fill-rule:nonzero;stroke:none"
             d="m 0,0 h -20 c -1.104,0 -2,-0.896 -2,-2 0,-1.104 0.896,-2 2,-2 H 0 c 1.104,0 2,0.896 2,2 0,1.104 -0.896,2 -2,2" /></g><g
           transform="translate(66,160)"
           id="g24"><path
             id="path26"
             style="fill:#ffffff;fill-opacity:1;fill-rule:nonzero;stroke:none"
             d="m 0,0 h -20 c -1.104,0 -2,-0.896 -2,-2 0,-1.104 0.896,-2 2,-2 H 0 c 1.104,0 2,0.896 2,2 0,1.104 -0.896,2 -2,2" /></g><g
           transform="translate(66,148)"
           id="g28"><path
             id="path30"
             style="fill:#ffffff;fill-opacity:1;fill-rule:nonzero;stroke:none"
             d="m 0,0 h -20 c -1.104,0 -2,-0.896 -2,-2 0,-1.104 0.896,-2 2,-2 H 0 c 1.104,0 2,0.896 2,2 0,1.104 -0.896,2 -2,2" /></g><g
           transform="translate(66,136)"
           id="g32"><path
             id="path34"
             style="fill:#ffffff;fill-opacity:1;fill-rule:nonzero;stroke:none"
             d="m 0,0 h -20 c -1.104,0 -2,-0.896 -2,-2 0,-1.104 0.896,-2 2,-2 H 0 c 1.104,0 2,0.896 2,2 0,1.104 -0.896,2 -2,2" /></g><g
           transform="translate(66,124)"
           id="g36"><path
             id="path38"
             style="fill:#ffffff;fill-opacity:1;fill-rule:nonzero;stroke:none"
             d="m 0,0 h -20 c -1.104,0 -2,-0.896 -2,-2 0,-1.104 0.896,-2 2,-2 H 0 c 1.104,0 2,0.896 2,2 0,1.104 -0.896,2 -2,2" /></g><g
           transform="translate(66,112)"
           id="g40"><path
             id="path42"
             style="fill:#ffffff;fill-opacity:1;fill-rule:nonzero;stroke:none"
             d="m 0,0 h -20 c -1.104,0 -2,-0.896 -2,-2 0,-1.104 0.896,-2 2,-2 H 0 c 1.104,0 2,0.896 2,2 0,1.104 -0.896,2 -2,2" /></g><g
           transform="translate(66,100)"
           id="g44"><path
             id="path46"
             style="fill:#ffffff;fill-opacity:1;fill-rule:nonzero;stroke:none"
             d="m 0,0 h -20 c -1.104,0 -2,-0.896 -2,-2 0,-1.104 0.896,-2 2,-2 H 0 c 1.104,0 2,0.896 2,2 0,1.104 -0.896,2 -2,2" /></g><g
           transform="translate(66,88)"
           id="g48"><path
             id="path50"
             style="fill:#ffffff;fill-opacity:1;fill-rule:nonzero;stroke:none"
             d="m 0,0 h -20 c -1.104,0 -2,-0.896 -2,-2 0,-1.104 0.896,-2 2,-2 H 0 c 1.104,0 2,0.896 2,2 0,1.104 -0.896,2 -2,2" /></g><g
           transform="translate(244,44)"
           id="g52"><path
             id="path54"
             style="fill:#ffffff;fill-opacity:1;fill-rule:nonzero;stroke:none"
             d="m 0,0 c 0,-2.209 -1.791,-4 -4,-4 h -94.343 l -2.829,2.828 -4,4 -1.171,1.172 h -1.657 -20 -1.657 l -1.172,-1.172 -4,-4 L -137.657,-4 H -228 c -2.209,0 -4,1.791 -4,4 v 152 c 0,2.209 1.791,4 4,4 h 16.35 c 0.826,-2.327 3.044,-4 5.65,-4 h 76 c 2.606,0 4.824,1.673 5.65,4 h 12.7 c 0.827,-2.327 3.044,-4 5.65,-4 h 76 c 2.606,0 4.823,1.673 5.65,4 H -4 c 2.209,0 4,-1.791 4,-4 z m -132,-4 4,4 h 20 l 4,-4 z m -80,164 h -16 v 4 h 16 z m 84,6 v -2 -4 -2 c 0,-1.104 -0.896,-2 -2,-2 h -76 c -1.104,0 -2,0.896 -2,2 v 2 4 2 c 0,1.104 0.896,2 2,2 h 76 c 1.104,0 2,-0.896 2,-2 m 16,-6 h -12 v 4 h 12 z m 84,6 v -2 -4 -2 c 0,-1.104 -0.896,-2 -2,-2 h -76 c -1.104,0 -2,0.896 -2,2 v 2 4 2 c 0,1.104 0.896,2 2,2 h 76 c 1.104,0 2,-0.896 2,-2 m 24,-6 h -20 v 4 h 20 z m -224,16 H -4 c 2.209,0 4,-1.791 4,-4 0,-2.209 -1.791,-4 -4,-4 h -20.35 c -0.827,2.327 -3.044,4 -5.65,4 h -76 c -2.606,0 -4.823,-1.673 -5.65,-4 h -12.7 c -0.826,2.327 -3.044,4 -5.65,4 h -76 c -2.606,0 -4.824,-1.673 -5.65,-4 H -228 c -2.209,0 -4,1.791 -4,4 0,2.209 1.791,4 4,4 M 0,158.917 v 1.083 4 1.083 c 2.387,1.385 4,3.964 4,6.917 0,4.411 -3.589,8 -8,8 h -224 c -4.411,0 -8,-3.589 -8,-8 0,-2.953 1.613,-5.532 4,-6.917 V 164 v -4 -1.083 c -2.387,-1.385 -4,-3.964 -4,-6.917 V 0 c 0,-4.411 3.589,-8 8,-8 h 86.343 9.657 28 9.657 H -4 c 4.411,0 8,3.589 8,8 v 152 c 0,2.953 -1.613,5.532 -4,6.917" /></g><g
           transform="translate(142,108)"
           id="g56"><path
             id="path58"
             style="fill:#ffffff;fill-opacity:1;fill-rule:nonzero;stroke:none"
             d="M 0,0 C 1.104,0 2,0.896 2,2 2,3.104 1.104,4 0,4 -1.104,4 -2,3.104 -2,2 -2,0.896 -1.104,0 0,0" /></g><g
           transform="translate(142,96)"
           id="g60"><path
             id="path62"
             style="fill:#ffffff;fill-opacity:1;fill-rule:nonzero;stroke:none"
             d="M 0,0 C 1.104,0 2,0.896 2,2 2,3.104 1.104,4 0,4 -1.104,4 -2,3.104 -2,2 -2,0.896 -1.104,0 0,0" /></g><g
           transform="translate(144,86)"
           id="g64"><path
             id="path66"
             style="fill:#ffffff;fill-opacity:1;fill-rule:nonzero;stroke:none"
             d="m 0,0 c 0,1.104 -0.896,2 -2,2 -1.104,0 -2,-0.896 -2,-2 0,-1.104 0.896,-2 2,-2 1.104,0 2,0.896 2,2" /></g><g
           transform="translate(224,56)"
           id="g68"><path
             id="path70"
             style="fill:#ffffff;fill-opacity:1;fill-rule:nonzero;stroke:none"
             d="m 0,0 c 0,-2.209 -1.791,-4 -4,-4 h -60 c -2.209,0 -4,1.791 -4,4 v 60 c 0,2.209 1.791,4 4,4 h 60 c 2.209,0 4,-1.791 4,-4 z m -88,54 c 0,3.313 2.687,6 6,6 3.313,0 6,-2.687 6,-6 V 22 c 0,3.309 -2.691,6 -6,6 -3.309,0 -6,-2.691 -6,-6 z m 2,-38 c 0,1.477 0.81,2.752 2,3.445 V 22 c 0,1.104 0.896,2 2,2 1.104,0 2,-0.896 2,-2 v -2.555 c 1.19,-0.693 2,-1.968 2,-3.445 0,-2.209 -1.791,-4 -4,-4 -2.209,0 -4,1.791 -4,4 m 82,52 h -60 c -4.411,0 -8,-3.589 -8,-8 v -6 c 0,5.514 -4.486,10 -10,10 -5.514,0 -10,-4.486 -10,-10 V 18 c 0,-5.514 4.486,-10 10,-10 5.514,0 10,4.486 10,10 V 0 c 0,-4.411 3.589,-8 8,-8 h 60 c 4.411,0 8,3.589 8,8 v 60 c 0,4.411 -3.589,8 -8,8" /></g><path
           id="path72"
           style="fill:#ffffff;fill-opacity:1;fill-rule:nonzero;stroke:none"
           d="m 204,108 h 8 v -8 h -8 z m 8,-20 h -8 v 8 h 8 z m 0,-12 h -8 v 8 h 8 z m 0,-12 h -8 v 8 h 8 z m -12,0 h -8 v 8 h 8 z m -12,0 h -8 v 8 h 8 z m -12,0 h -8 v 8 h 8 z m -8,20 h 8 v -8 h -8 z m 0,12 h 8 v -8 h -8 z m 0,12 h 8 v -8 h -8 z m 12,0 h 8 v -8 h -8 z m 0,-12 h 8 v -8 h -8 z m 0,-12 h 8 v -8 h -8 z m 20,-8 h -8 v 8 h 8 z m 0,12 h -8 v 8 h 8 z m -8,20 h 8 v -8 h -8 z m 12,4 h -4 -8 -4 -8 -4 -8 -4 v -4 -8 -4 -8 -4 -8 -4 -8 -4 h 4 8 4 8 4 8 4 8 4 v 4 8 4 8 4 8 4 8 4 h -4 z" /><path
           id="path74"
           style="fill:#ffffff;fill-opacity:1;fill-rule:nonzero;stroke:none"
           d="m 40,204 h 4 v 4 h -4 z" /><path
           id="path76"
           style="fill:#ffffff;fill-opacity:1;fill-rule:nonzero;stroke:none"
           d="m 48,204 h 4 v 4 h -4 z" /><path
           id="path78"
           style="fill:#ffffff;fill-opacity:1;fill-rule:nonzero;stroke:none"
           d="m 56,204 h 4 v 4 h -4 z" /><path
           id="path80"
           style="fill:#ffffff;fill-opacity:1;fill-rule:nonzero;stroke:none"
           d="m 64,204 h 4 v 4 h -4 z" /><path
           id="path82"
           style="fill:#ffffff;fill-opacity:1;fill-rule:nonzero;stroke:none"
           d="m 72,204 h 4 v 4 h -4 z" /><path
           id="path84"
           style="fill:#ffffff;fill-opacity:1;fill-rule:nonzero;stroke:none"
           d="m 80,204 h 4 v 4 h -4 z" /><path
           id="path86"
           style="fill:#ffffff;fill-opacity:1;fill-rule:nonzero;stroke:none"
           d="m 88,204 h 4 v 4 h -4 z" /><path
           id="path88"
           style="fill:#ffffff;fill-opacity:1;fill-rule:nonzero;stroke:none"
           d="m 96,204 h 4 v 4 h -4 z" /><path
           id="path90"
           style="fill:#ffffff;fill-opacity:1;fill-rule:nonzero;stroke:none"
           d="m 104,204 h 4 v 4 h -4 z" /><path
           id="path92"
           style="fill:#ffffff;fill-opacity:1;fill-rule:nonzero;stroke:none"
           d="m 144,204 h 4 v 4 h -4 z" /><path
           id="path94"
           style="fill:#ffffff;fill-opacity:1;fill-rule:nonzero;stroke:none"
           d="m 152,204 h 4 v 4 h -4 z" /><path
           id="path96"
           style="fill:#ffffff;fill-opacity:1;fill-rule:nonzero;stroke:none"
           d="m 160,204 h 4 v 4 h -4 z" /><path
           id="path98"
           style="fill:#ffffff;fill-opacity:1;fill-rule:nonzero;stroke:none"
           d="m 168,204 h 4 v 4 h -4 z" /><path
           id="path100"
           style="fill:#ffffff;fill-opacity:1;fill-rule:nonzero;stroke:none"
           d="m 176,204 h 4 v 4 h -4 z" /><path
           id="path102"
           style="fill:#ffffff;fill-opacity:1;fill-rule:nonzero;stroke:none"
           d="m 184,204 h 4 v 4 h -4 z" /><path
           id="path104"
           style="fill:#ffffff;fill-opacity:1;fill-rule:nonzero;stroke:none"
           d="m 192,204 h 4 v 4 h -4 z" /><path
           id="path106"
           style="fill:#ffffff;fill-opacity:1;fill-rule:nonzero;stroke:none"
           d="m 200,204 h 4 v 4 h -4 z" /><path
           id="path108"
           style="fill:#ffffff;fill-opacity:1;fill-rule:nonzero;stroke:none"
           d="m 208,204 h 4 v 4 h -4 z" /></g></g></g></svg>