<?xml version="1.0" encoding="UTF-8" standalone="no"?>
<svg
   xmlns:dc="http://purl.org/dc/elements/1.1/"
   xmlns:cc="http://creativecommons.org/ns#"
   xmlns:rdf="http://www.w3.org/1999/02/22-rdf-syntax-ns#"
   xmlns:svg="http://www.w3.org/2000/svg"
   xmlns="http://www.w3.org/2000/svg"
   viewBox="0 0 320 277.33331"
   height="277.33331"
   width="320"
   xml:space="preserve"
   id="svg2"
   version="1.1"><metadata
     id="metadata8"><rdf:RDF><cc:Work
         rdf:about=""><dc:format>image/svg+xml</dc:format><dc:type
           rdf:resource="http://purl.org/dc/dcmitype/StillImage" /></cc:Work></rdf:RDF></metadata><defs
     id="defs6"><clipPath
       id="clipPath18"
       clipPathUnits="userSpaceOnUse"><path
         id="path16"
         d="M 0,256 H 256 V 0 H 0 Z" /></clipPath></defs><g
     transform="matrix(1.3333333,0,0,-1.3333333,-10.6664,309.33333)"
     id="g10"><g
       id="g12"><g
         clip-path="url(#clipPath18)"
         id="g14"><g
           transform="translate(240.2578,200)"
           id="g20"><path
             id="path22"
             style="fill:#ffffff;fill-opacity:1;fill-rule:nonzero;stroke:none"
             d="m 0,0 h -0.258 v -124 h -224 V 0 h -0.258 c -3.742,0 -3.742,4 -3.742,8 0,4 0,12 3.742,20 H 0 C 3.742,20 3.742,12 3.742,8 3.742,4 3.742,0 0,0 m -2.807,-172 h -218.902 c -1.138,0 -2.107,0.598 -2.549,1.457 V -128 h 224 v -42.543 C -0.699,-171.402 -1.669,-172 -2.807,-172 M 3.623,29.695 2.545,32 H 0 h -224.516 -2.545 l -1.078,-2.305 c -4.119,-8.806 -4.119,-17.511 -4.119,-21.695 0,-2.266 0,-4.609 0.649,-6.691 0.624,-2 1.787,-3.496 3.351,-4.381 v -167.471 -0.968 l 0.443,-0.861 c 1.15,-2.237 3.489,-3.628 6.106,-3.628 H -2.807 c 2.617,0 4.956,1.391 6.107,3.628 l 0.442,0.861 v 0.968 167.471 c 1.565,0.885 2.727,2.381 3.351,4.381 0.649,2.082 0.649,4.425 0.649,6.691 0,4.184 0,12.889 -4.119,21.695" /></g><g
           transform="translate(143.6826,57.8018)"
           id="g24"><path
             id="path26"
             style="fill:#ffffff;fill-opacity:1;fill-rule:nonzero;stroke:none"
             d="m 0,0 -14.639,-17.319 c -0.271,-0.322 -0.657,-0.483 -1.044,-0.483 -0.386,0 -0.772,0.161 -1.044,0.483 L -31.365,0 c -0.738,0.873 -0.108,2.198 1.044,2.198 H -1.045 C 0.108,2.198 0.737,0.873 0,0 m -1.045,6.198 h -29.276 c -2.081,0 -3.991,-1.217 -4.864,-3.098 -0.883,-1.903 -0.589,-4.079 0.765,-5.682 l 14.638,-17.319 c 1.021,-1.208 2.515,-1.901 4.099,-1.901 1.585,0 3.079,0.693 4.1,1.901 L 3.055,-2.582 C 4.409,-0.979 4.702,1.197 3.82,3.1 2.946,4.981 1.037,6.198 -1.045,6.198" /></g><g
           transform="translate(220,91.667)"
           id="g28"><path
             id="path30"
             style="fill:#ffffff;fill-opacity:1;fill-rule:nonzero;stroke:none"
             d="m 0,0 c 0,-2.025 -1.716,-3.667 -3.833,-3.667 h -176.334 c -2.117,0 -3.833,1.642 -3.833,3.667 v 80.667 c 0,2.024 1.716,3.666 3.833,3.666 H -3.833 C -1.716,84.333 0,82.691 0,80.667 Z m -3.833,88.333 h -176.334 c -4.319,0 -7.833,-3.439 -7.833,-7.666 V 0 c 0,-4.228 3.514,-7.667 7.833,-7.667 H -3.833 C 0.486,-7.667 4,-4.228 4,0 v 80.667 c 0,4.227 -3.514,7.666 -7.833,7.666" /></g><path
           id="path32"
           style="fill:#ffffff;fill-opacity:1;fill-rule:nonzero;stroke:none"
           d="m 32,220 h 192 v 4 H 32 Z" /><path
           id="path34"
           style="fill:#ffffff;fill-opacity:1;fill-rule:nonzero;stroke:none"
           d="m 32,212 h 192 v 4 H 32 Z" /><path
           id="path36"
           style="fill:#ffffff;fill-opacity:1;fill-rule:nonzero;stroke:none"
           d="m 32,204 h 192 v 4 H 32 Z" /><path
           id="path38"
           style="fill:#ffffff;fill-opacity:1;fill-rule:nonzero;stroke:none"
           d="M 220,200 H 36 v -4 h 184 z" /><path
           id="path40"
           style="fill:#ffffff;fill-opacity:1;fill-rule:nonzero;stroke:none"
           d="m 36,188 h 184 v 4 H 36 Z" /><path
           id="path42"
           style="fill:#ffffff;fill-opacity:1;fill-rule:nonzero;stroke:none"
           d="m 228,36 h -72 v 24 h 72 z m -72,28 h -4 V 60 36 32 h 4 72 4 v 4 24 4 h -4 z" /><path
           id="path44"
           style="fill:#ffffff;fill-opacity:1;fill-rule:nonzero;stroke:none"
           d="M 100,36 H 28 v 24 h 72 z M 28,64 H 24 V 60 36 32 h 4 72 4 v 4 24 4 h -4 z" /></g></g></g></svg>