<?xml version="1.0" encoding="UTF-8" standalone="no"?>
<svg
   xmlns:dc="http://purl.org/dc/elements/1.1/"
   xmlns:cc="http://creativecommons.org/ns#"
   xmlns:rdf="http://www.w3.org/1999/02/22-rdf-syntax-ns#"
   xmlns:svg="http://www.w3.org/2000/svg"
   xmlns="http://www.w3.org/2000/svg"
   viewBox="0 0 320 256"
   height="256"
   width="320"
   xml:space="preserve"
   id="svg2"
   version="1.1"><metadata
     id="metadata8"><rdf:RDF><cc:Work
         rdf:about=""><dc:format>image/svg+xml</dc:format><dc:type
           rdf:resource="http://purl.org/dc/dcmitype/StillImage" /></cc:Work></rdf:RDF></metadata><defs
     id="defs6" /><g
     transform="matrix(1.3333333,0,0,-1.3333333,-10.666666,298.66666)"
     id="g10"><g
       transform="translate(244,36)"
       id="g12"><path
         id="path14"
         style="fill:#ffffff;fill-opacity:1;fill-rule:nonzero;stroke:none"
         d="m 0,0 h -24 v 16 4 16 4 100 4 40 H 0 Z m -68,16 h 40 V 0 H -68 Z M -204,0 v 24 4 h 124 4 4 V 24 20 16 0 Z m -28,0 V 184 H -72 V 144 140 40 36 32 h -4 -4 -128 V 28 0 Z m 164,164 h 40 v -20 h -40 z m 40,-28 h -40 v 4 h 40 z m -40,-4 h 40 v -4 h -40 z m 0,-8 h 40 v -4 h -40 z m 0,-8 h 40 v -4 h -40 z m 0,-8 h 40 v -4 h -40 z m 0,-8 h 40 v -4 h -40 z m 0,-8 h 40 v -4 h -40 z m 0,-8 h 40 v -4 h -40 z m 0,-8 h 40 v -4 h -40 z m 0,-8 h 40 v -4 h -40 z m 40,-20 h -40 v 4 h 40 z m -40,12 h 40 v -4 h -40 z m 0,-16 h 40 v -4 h -40 z m 40,-24 h -40 v 4 4 4 4 h 40 z m 0,148 h -40 v 16 h 40 z m 28,20 h -24 -4 -40 -4 -160 -4 V 184 0 -4 h 4 160 4 40 4 24 4 v 4 184 4 z" /></g></g></svg>