<?xml version="1.0" encoding="UTF-8" standalone="no"?>
<svg
   xmlns:dc="http://purl.org/dc/elements/1.1/"
   xmlns:cc="http://creativecommons.org/ns#"
   xmlns:rdf="http://www.w3.org/1999/02/22-rdf-syntax-ns#"
   xmlns:svg="http://www.w3.org/2000/svg"
   xmlns="http://www.w3.org/2000/svg"
   viewBox="0 0 138.66666 314.66665"
   height="314.66666"
   width="138.66666"
   xml:space="preserve"
   id="svg2"
   version="1.1"><metadata
     id="metadata8"><rdf:RDF><cc:Work
         rdf:about=""><dc:format>image/svg+xml</dc:format><dc:type
           rdf:resource="http://purl.org/dc/dcmitype/StillImage" /></cc:Work></rdf:RDF></metadata><defs
     id="defs6"><clipPath
       id="clipPath18"
       clipPathUnits="userSpaceOnUse"><path
         id="path16"
         d="M 0,256 H 256 V 0 H 0 Z" /></clipPath></defs><g
     transform="matrix(1.3333333,0,0,-1.3333333,-101.33333,325.33386)"
     id="g10"><g
       id="g12"><g
         clip-path="url(#clipPath18)"
         id="g14"><g
           transform="translate(140,30.7188)"
           id="g20"><path
             id="path22"
             style="fill:#ffffff;fill-opacity:1;fill-rule:nonzero;stroke:none"
             d="M 0,0 C 0,-1.495 -1.224,-2.719 -2.719,-2.719 H -21.281 C -22.777,-2.719 -24,-1.495 -24,0 v 46.563 c 0,1.495 1.223,2.718 2.719,2.718 H -2.719 C -1.224,49.281 0,48.058 0,46.563 Z M -2.719,53.281 H -21.281 C -24.986,53.281 -28,50.268 -28,46.563 V 0 c 0,-3.705 3.014,-6.719 6.719,-6.719 H -2.719 C 0.986,-6.719 4,-3.705 4,0 v 46.563 c 0,3.705 -3.014,6.718 -6.719,6.718" /></g><path
           id="path24"
           style="fill:#ffffff;fill-opacity:1;fill-rule:nonzero;stroke:none"
           d="m 122,68 h 4 v 4 h -4 z" /><path
           id="path26"
           style="fill:#ffffff;fill-opacity:1;fill-rule:nonzero;stroke:none"
           d="m 130,68 h 4 v 4 h -4 z" /><path
           id="path28"
           style="fill:#ffffff;fill-opacity:1;fill-rule:nonzero;stroke:none"
           d="m 122,60 h 4 v 4 h -4 z" /><path
           id="path30"
           style="fill:#ffffff;fill-opacity:1;fill-rule:nonzero;stroke:none"
           d="m 130,60 h 4 v 4 h -4 z" /><g
           transform="translate(116,122)"
           id="g32"><path
             id="path34"
             style="fill:#ffffff;fill-opacity:1;fill-rule:nonzero;stroke:none"
             d="m 0,0 c -1.104,0 -2,-0.447 -2,-1 0,-0.553 0.896,-1 2,-1 1.104,0 2,0.447 2,1 0,0.553 -0.896,1 -2,1" /></g><g
           transform="translate(122,122)"
           id="g36"><path
             id="path38"
             style="fill:#ffffff;fill-opacity:1;fill-rule:nonzero;stroke:none"
             d="m 0,0 c -1.104,0 -2,-0.447 -2,-1 0,-0.553 0.896,-1 2,-1 1.104,0 2,0.447 2,1 0,0.553 -0.896,1 -2,1" /></g><g
           transform="translate(106,126)"
           id="g40"><path
             id="path42"
             style="fill:#ffffff;fill-opacity:1;fill-rule:nonzero;stroke:none"
             d="m 0,0 c -1.104,0 -2,-0.447 -2,-1 0,-0.553 0.896,-1 2,-1 1.104,0 2,0.447 2,1 0,0.553 -0.896,1 -2,1" /></g><g
           transform="translate(110,122)"
           id="g44"><path
             id="path46"
             style="fill:#ffffff;fill-opacity:1;fill-rule:nonzero;stroke:none"
             d="m 0,0 c -1.104,0 -2,-0.447 -2,-1 0,-0.553 0.896,-1 2,-1 1.104,0 2,0.447 2,1 0,0.553 -0.896,1 -2,1" /></g><g
           transform="translate(116,118)"
           id="g48"><path
             id="path50"
             style="fill:#ffffff;fill-opacity:1;fill-rule:nonzero;stroke:none"
             d="m 0,0 c -1.104,0 -2,-0.447 -2,-1 0,-0.553 0.896,-1 2,-1 1.104,0 2,0.447 2,1 0,0.553 -0.896,1 -2,1" /></g><g
           transform="translate(122,118)"
           id="g52"><path
             id="path54"
             style="fill:#ffffff;fill-opacity:1;fill-rule:nonzero;stroke:none"
             d="m 0,0 c -1.104,0 -2,-0.447 -2,-1 0,-0.553 0.896,-1 2,-1 1.104,0 2,0.447 2,1 0,0.553 -0.896,1 -2,1" /></g><g
           transform="translate(110,118)"
           id="g56"><path
             id="path58"
             style="fill:#ffffff;fill-opacity:1;fill-rule:nonzero;stroke:none"
             d="m 0,0 c -1.104,0 -2,-0.447 -2,-1 0,-0.553 0.896,-1 2,-1 1.104,0 2,0.447 2,1 0,0.553 -0.896,1 -2,1" /></g><g
           transform="translate(94.5068,121.8633)"
           id="g60"><path
             id="path62"
             style="fill:#ffffff;fill-opacity:1;fill-rule:nonzero;stroke:none"
             d="m 0,0 -0.757,4.474 c 0,0.915 1.013,1.663 2.25,1.663 1.237,0 2.25,-0.748 2.25,-1.663 L 2.986,0 c 1.748,-0.309 3.007,-1.134 3.007,-2.113 0,-1.242 -2.014,-2.25 -4.5,-2.25 -2.485,0 -4.5,1.008 -4.5,2.25 0,0.979 1.259,1.804 3.007,2.113 M -4.757,4.474 V 4.138 l 0.056,-0.331 0.229,-1.355 c -1.604,-1.122 -2.535,-2.726 -2.535,-4.565 0,-3.621 3.575,-6.25 8.5,-6.25 4.925,0 8.5,2.629 8.5,6.25 0,1.839 -0.931,3.443 -2.535,4.565 l 0.229,1.355 0.056,0.331 v 0.336 c 0,3.175 -2.745,5.663 -6.25,5.663 -3.505,0 -6.25,-2.488 -6.25,-5.663" /></g><g
           transform="translate(160,122)"
           id="g64"><path
             id="path66"
             style="fill:#ffffff;fill-opacity:1;fill-rule:nonzero;stroke:none"
             d="m 0,0 c -1.104,0 -2,-0.447 -2,-1 0,-0.553 0.896,-1 2,-1 1.104,0 2,0.447 2,1 0,0.553 -0.896,1 -2,1" /></g><g
           transform="translate(166,122)"
           id="g68"><path
             id="path70"
             style="fill:#ffffff;fill-opacity:1;fill-rule:nonzero;stroke:none"
             d="m 0,0 c -1.104,0 -2,-0.447 -2,-1 0,-0.553 0.896,-1 2,-1 1.104,0 2,0.447 2,1 0,0.553 -0.896,1 -2,1" /></g><g
           transform="translate(150,126)"
           id="g72"><path
             id="path74"
             style="fill:#ffffff;fill-opacity:1;fill-rule:nonzero;stroke:none"
             d="m 0,0 c -1.104,0 -2,-0.447 -2,-1 0,-0.553 0.896,-1 2,-1 1.104,0 2,0.447 2,1 0,0.553 -0.896,1 -2,1" /></g><g
           transform="translate(154,122)"
           id="g76"><path
             id="path78"
             style="fill:#ffffff;fill-opacity:1;fill-rule:nonzero;stroke:none"
             d="m 0,0 c -1.104,0 -2,-0.447 -2,-1 0,-0.553 0.896,-1 2,-1 1.104,0 2,0.447 2,1 0,0.553 -0.896,1 -2,1" /></g><g
           transform="translate(160,118)"
           id="g80"><path
             id="path82"
             style="fill:#ffffff;fill-opacity:1;fill-rule:nonzero;stroke:none"
             d="m 0,0 c -1.104,0 -2,-0.447 -2,-1 0,-0.553 0.896,-1 2,-1 1.104,0 2,0.447 2,1 0,0.553 -0.896,1 -2,1" /></g><g
           transform="translate(166,118)"
           id="g84"><path
             id="path86"
             style="fill:#ffffff;fill-opacity:1;fill-rule:nonzero;stroke:none"
             d="m 0,0 c -1.104,0 -2,-0.447 -2,-1 0,-0.553 0.896,-1 2,-1 1.104,0 2,0.447 2,1 0,0.553 -0.896,1 -2,1" /></g><g
           transform="translate(154,118)"
           id="g88"><path
             id="path90"
             style="fill:#ffffff;fill-opacity:1;fill-rule:nonzero;stroke:none"
             d="m 0,0 c -1.104,0 -2,-0.447 -2,-1 0,-0.553 0.896,-1 2,-1 1.104,0 2,0.447 2,1 0,0.553 -0.896,1 -2,1" /></g><g
           transform="translate(138.5068,121.8633)"
           id="g92"><path
             id="path94"
             style="fill:#ffffff;fill-opacity:1;fill-rule:nonzero;stroke:none"
             d="m 0,0 -0.757,4.474 c 0,0.915 1.013,1.663 2.25,1.663 1.237,0 2.25,-0.748 2.25,-1.663 L 2.986,0 c 1.747,-0.309 3.007,-1.134 3.007,-2.113 0,-1.242 -2.014,-2.25 -4.5,-2.25 -2.485,0 -4.5,1.008 -4.5,2.25 0,0.979 1.26,1.804 3.007,2.113 M -4.757,4.474 V 4.138 l 0.056,-0.331 0.229,-1.355 c -1.604,-1.122 -2.535,-2.726 -2.535,-4.565 0,-3.621 3.575,-6.25 8.5,-6.25 4.925,0 8.5,2.629 8.5,6.25 0,1.839 -0.93,3.443 -2.535,4.565 l 0.229,1.355 0.056,0.331 v 0.336 c 0,3.175 -2.745,5.663 -6.25,5.663 -3.505,0 -6.25,-2.488 -6.25,-5.663" /></g><g
           transform="translate(176,101.4414)"
           id="g96"><path
             id="path98"
             style="fill:#ffffff;fill-opacity:1;fill-rule:nonzero;stroke:none"
             d="M 0,0 C 0,-0.86 -0.551,-1.625 -1.367,-1.897 L -12,-5.441 h -72 l -8,2.667 -2.632,0.877 C -95.449,-1.625 -96,-0.86 -96,0 v 18.559 l 3.544,10.632 c 0.272,0.817 1.037,1.368 1.897,1.368 H -80 -36 -5.441 c 0.86,0 1.625,-0.551 1.897,-1.368 L 0,18.559 Z m -8,-89.441 h -80 v 81.117 l 2.735,-0.912 0.616,-0.205 h 0.649 72 0.649 l 0.616,0.205 2.735,0.912 z m -76,172 h 3.396 l -2.745,-35.694 c -0.179,-2.323 1.658,-4.306 3.988,-4.306 h 63.042 c 2.33,0 4.167,1.983 3.988,4.306 l -2.746,35.694 H -12 l 3.692,-48 h -79.384 z m 0,24 h 24 v -20 H -76.592 -84 Z m 28,-24 h 16 4 16.911 l 2.77,-36 h -63.042 l 2.769,36 H -60 Z m 0,24 h 4 8 4 v -20 h -16 z m 12,4 h -8 v 8 h 8 z m -40,28 h 72 v -16 h -72 z m 48,-32 h 24 v -20 H -19.089 -36 Z M 3.795,19.823 0.251,30.456 c -0.818,2.454 -4.547,4.103 -4.547,4.103 L -8,82.712 v 23.847 4 h -4 -24 -4 v 8 h 28 4 v 4 16 4 h -4 -72 -4 v -4 -16 -4 h 4 28 v -8 h -4 -24 -4 v -4 -23.847 l -3.704,-48.153 c 0,0 -3.729,-1.649 -4.546,-4.103 L -99.795,19.823 -100,19.208 V 18.559 0 c 0,-2.587 1.649,-4.874 4.103,-5.692 L -92,-6.991 v -82.45 -4 h 4 80 4 v 4 82.45 l 3.897,1.299 C 2.352,-4.874 4,-2.587 4,0 v 18.559 0.649 z" /></g></g></g></g></svg>