<?xml version="1.0" encoding="UTF-8" standalone="no"?>
<svg
   xmlns:dc="http://purl.org/dc/elements/1.1/"
   xmlns:cc="http://creativecommons.org/ns#"
   xmlns:rdf="http://www.w3.org/1999/02/22-rdf-syntax-ns#"
   xmlns:svg="http://www.w3.org/2000/svg"
   xmlns="http://www.w3.org/2000/svg"
   viewBox="0 0 309.33331 309.33331"
   height="309.33331"
   width="309.33331"
   xml:space="preserve"
   id="svg2"
   version="1.1"><metadata
     id="metadata8"><rdf:RDF><cc:Work
         rdf:about=""><dc:format>image/svg+xml</dc:format><dc:type
           rdf:resource="http://purl.org/dc/dcmitype/StillImage" /></cc:Work></rdf:RDF></metadata><defs
     id="defs6"><clipPath
       id="clipPath22"
       clipPathUnits="userSpaceOnUse"><path
         id="path20"
         d="M 0,256 H 256 V 0 H 0 Z" /></clipPath></defs><g
     transform="matrix(1.3333333,0,0,-1.3333333,-15.999733,325.33333)"
     id="g10"><g
       transform="translate(240.1338,244)"
       id="g12"><path
         id="path14"
         style="fill:#ffffff;fill-opacity:1;fill-rule:nonzero;stroke:none"
         d="m 0,0 h -224.267 -3.867 V -3.867 -228.134 -232 h 3.867 H 0 3.866 v 3.866 V -3.867 0 Z M 0,-228.134 H -224.267 V -3.867 H 0 Z" /></g><g
       id="g16"><g
         clip-path="url(#clipPath22)"
         id="g18"><g
           transform="translate(147.3955,187.3921)"
           id="g24"><path
             id="path26"
             style="fill:#ffffff;fill-opacity:1;fill-rule:nonzero;stroke:none"
             d="m 0,0 c -0.55,0.224 -1.237,0.402 -1.833,0.402 -1.679,0 -3.232,-1.052 -3.982,-2.568 -0.874,-2.08 -0.071,-4.562 1.918,-5.645 0.022,-0.007 0.038,-0.023 0.061,-0.031 10.37,-5.429 16.572,-15.969 16.572,-28.196 0,-12.396 -6.936,-23.416 -17.709,-28.806 v 7.13 h 1.926 c 2.003,0 3.619,1.616 3.619,3.627 0,2.637 -1.926,5.467 -4.795,5.467 h -1.214 -27.917 -1.23 c -2.884,0 -4.825,-2.83 -4.825,-5.467 0,-2.003 1.616,-3.627 3.627,-3.627 h 1.802 v -7.053 c -10.688,5.429 -17.594,16.411 -17.594,28.722 0,12.226 6.202,22.767 16.573,28.195 0.015,0.016 0.046,0.016 0.069,0.039 1.972,1.083 2.807,3.473 1.949,5.553 -0.673,1.616 -2.235,2.653 -3.99,2.653 -0.65,0 -1.307,-0.155 -1.887,-0.434 -15.707,-7.354 -25.451,-22.89 -25.451,-40.553 0,-19.256 12.335,-36.394 30.346,-42.565 v -9.782 c 0,-0.201 0.015,-0.394 0.046,-0.58 l 3.558,-21.746 c 0.209,-2.204 2.072,-3.929 4.322,-3.929 2.267,0 4.122,1.733 4.324,3.944 l 2.25,14.021 2.289,-14.021 c 0.209,-2.204 2.072,-3.928 4.322,-3.928 2.267,0 4.123,1.732 4.332,3.943 l 3.487,21.754 c 0.031,0.193 0.047,0.387 0.047,0.572 v 9.699 c 18.073,6.147 30.469,23.276 30.469,42.602 C 25.496,-22.868 15.737,-7.308 0,0 m -19.411,-71.889 c 0.758,0 1.515,0.031 2.258,0.077 v 15.235 c 0,1.291 -1.036,2.327 -2.327,2.327 -1.292,0 -2.328,-1.036 -2.328,-2.327 v -15.227 c 0.804,-0.046 1.593,-0.085 2.397,-0.085 m 17.888,68.602 c 14.05,-6.542 23.392,-20.632 23.392,-37.321 0,-19.109 -12.922,-35.171 -30.469,-39.927 v -12.42 l -3.518,-21.916 c 0,-0.402 -0.318,-0.727 -0.728,-0.727 -0.371,0 -0.726,0.317 -0.726,0.727 l -3.588,21.916 v 11.036 c -0.751,-0.046 -1.508,-0.07 -2.259,-0.07 -0.804,0 -1.593,0.031 -2.397,0.077 v -11.05 l -3.526,-21.916 c 0,-0.403 -0.318,-0.728 -0.727,-0.728 -0.41,0 -0.727,0.317 -0.727,0.728 l -3.589,21.916 v 12.45 c -17.485,4.803 -30.345,20.834 -30.345,39.889 0,16.657 9.334,30.717 23.393,37.282 0.472,0.232 0.866,-0.077 0.967,-0.348 0.162,-0.371 0,-0.789 -0.333,-0.967 -11.406,-5.969 -18.513,-17.601 -18.513,-31.405 0,-15.954 10.44,-29.486 24.839,-34.127 v 13 c 0,1.693 -1.384,3.078 -3.078,3.078 h -2.335 c 0,0.789 0.533,1.84 1.199,1.84 h 1.229 27.918 1.214 c 0.633,0 1.167,-1.051 1.167,-1.84 h -2.474 c -1.694,0 -3.078,-1.385 -3.078,-3.078 v -13.046 c 14.476,4.594 24.963,18.15 24.963,34.173 0,13.835 -7.099,25.436 -18.514,31.405 -0.348,0.194 -0.494,0.596 -0.348,0.967 0.449,0.758 0.991,0.402 0.991,0.402" /></g></g></g></g></svg>