<?xml version="1.0" encoding="UTF-8" standalone="no"?>
<svg
   xmlns:dc="http://purl.org/dc/elements/1.1/"
   xmlns:cc="http://creativecommons.org/ns#"
   xmlns:rdf="http://www.w3.org/1999/02/22-rdf-syntax-ns#"
   xmlns:svg="http://www.w3.org/2000/svg"
   xmlns="http://www.w3.org/2000/svg"
   viewBox="0 0 202.66665 320"
   height="320"
   width="202.66666"
   xml:space="preserve"
   id="svg2"
   version="1.1"><metadata
     id="metadata8"><rdf:RDF><cc:Work
         rdf:about=""><dc:format>image/svg+xml</dc:format><dc:type
           rdf:resource="http://purl.org/dc/dcmitype/StillImage" /></cc:Work></rdf:RDF></metadata><defs
     id="defs6"><clipPath
       id="clipPath18"
       clipPathUnits="userSpaceOnUse"><path
         id="path16"
         d="M 0,256 H 256 V 0 H 0 Z" /></clipPath></defs><g
     transform="matrix(1.3333333,0,0,-1.3333333,-69.333332,330.66653)"
     id="g10"><g
       id="g12"><g
         clip-path="url(#clipPath18)"
         id="g14"><g
           transform="translate(200,202.8389)"
           id="g20"><path
             id="path22"
             style="fill:#ffffff;fill-opacity:1;fill-rule:nonzero;stroke:none"
             d="m 0,0 v -127.597 -22.081 c 0,-22.732 -18.663,-41.161 -41.685,-41.161 H -72 v 4 h 2 c 1.104,0 2,0.896 2,2 0,1.105 -0.896,2 -2,2 h -24 c -1.104,0 -2,-0.895 -2,-2 0,-1.104 0.896,-2 2,-2 h 10 v -4 h -18.316 -34.481 c -3.978,0 -7.203,3.185 -7.203,7.113 v 34.048 22.081 V -22.081 0 34.049 c 0,3.928 3.225,7.112 7.203,7.112 H -120 v -4 h -2 c -1.104,0 -2,-0.895 -2,-2 0,-1.104 0.896,-2 2,-2 h 24 c 1.104,0 2,0.896 2,2 0,1.105 -0.896,2 -2,2 h -10 v 4 h 5.684 60.631 34.482 C -3.225,41.161 0,37.977 0,34.049 Z M -79.203,-190.839 H -80 v 4 h 4 v -4 z m -32.797,228 h -4 v 4 h 4 z m 104.797,8 h -34.482 -60.631 -34.481 C -142.974,45.161 -148,40.176 -148,34.049 V 0 v -22.081 -105.516 -22.081 -34.048 c 0,-6.128 5.026,-11.113 11.203,-11.113 h 34.481 23.113 37.518 c 25.191,0 45.685,20.26 45.685,45.161 V -127.597 0 34.049 c 0,6.127 -5.025,11.112 -11.203,11.112" /></g><g
           transform="translate(72,224)"
           id="g24"><path
             id="path26"
             style="fill:#ffffff;fill-opacity:1;fill-rule:nonzero;stroke:none"
             d="M 0,0 H 112 V -65.92 C 112,-75.89 103.701,-84 93.5,-84 H 52.432 0 Z M -0.431,-88 H 52.432 93.5 c 12.427,0 22.5,9.886 22.5,22.08 V 0.32 C 116,2.353 114.321,4 112.25,4 H -0.25 C -2.321,4 -4,2.353 -4,0.32 V -84.498 C -4,-86.432 -2.402,-88 -0.431,-88" /></g><path
           id="path28"
           style="fill:#ffffff;fill-opacity:1;fill-rule:nonzero;stroke:none"
           d="M 160,152 H 96 v 60 h 64 z m 4,64 H 92 v -68 h 72 z" /><g
           transform="translate(116.0693,50.9365)"
           id="g30"><path
             id="path32"
             style="fill:#ffffff;fill-opacity:1;fill-rule:nonzero;stroke:none"
             d="m 0,0 -11.569,-6.517 c -0.491,-0.276 -1.036,-0.418 -1.589,-0.418 -0.243,0 -0.489,0.028 -0.732,0.083 -0.789,0.183 -1.437,0.642 -1.825,1.296 -0.758,1.285 -0.262,2.903 1.127,3.688 l 11.571,6.517 c 0.491,0.273 1.049,0.414 1.604,0.414 0.244,0 0.486,-0.027 0.722,-0.082 C 0.098,4.797 0.746,4.336 1.129,3.684 1.892,2.402 1.396,0.783 0,0 m 0.221,8.876 c -0.534,0.125 -1.083,0.187 -1.634,0.187 -1.241,0 -2.468,-0.317 -3.549,-0.918 L -16.551,1.617 c -1.651,-0.932 -2.819,-2.421 -3.295,-4.193 -0.457,-1.707 -0.214,-3.486 0.685,-5.011 0.957,-1.611 2.506,-2.729 4.369,-3.161 0.537,-0.124 1.085,-0.187 1.634,-0.187 1.24,0 2.468,0.323 3.551,0.932 l 11.57,6.519 c 1.65,0.924 2.825,2.416 3.301,4.195 0.458,1.711 0.21,3.493 -0.698,5.018 -0.933,1.586 -2.48,2.709 -4.345,3.147" /></g><g
           transform="translate(142.5186,50.9346)"
           id="g34"><path
             id="path36"
             style="fill:#ffffff;fill-opacity:1;fill-rule:nonzero;stroke:none"
             d="m 0,0 -11.571,-6.518 c -0.489,-0.275 -1.036,-0.417 -1.587,-0.417 -0.245,0 -0.491,0.028 -0.734,0.083 -0.781,0.183 -1.446,0.657 -1.825,1.3 -0.762,1.281 -0.267,2.901 1.129,3.684 l 11.569,6.517 c 0.484,0.275 1.041,0.416 1.598,0.416 0.244,0 0.487,-0.027 0.726,-0.082 C 0.096,4.799 0.743,4.34 1.127,3.686 1.885,2.402 1.39,0.785 0,0 M 5.258,0.711 C 5.715,2.417 5.472,4.196 4.571,5.72 3.635,7.315 2.086,8.441 0.214,8.879 c -0.539,0.124 -1.086,0.186 -1.635,0.186 -1.255,0 -2.49,-0.324 -3.571,-0.936 L -16.551,1.616 c -1.65,-0.925 -2.824,-2.416 -3.301,-4.195 -0.458,-1.711 -0.21,-3.493 0.698,-5.019 0.921,-1.564 2.51,-2.718 4.352,-3.148 0.545,-0.126 1.094,-0.189 1.644,-0.189 1.244,0 2.473,0.324 3.555,0.936 l 11.566,6.514 c 1.652,0.933 2.82,2.423 3.295,4.196" /></g><g
           transform="translate(147.417,36.7217)"
           id="g38"><path
             id="path40"
             style="fill:#ffffff;fill-opacity:1;fill-rule:nonzero;stroke:none"
             d="M 0,0 C -0.503,0.828 -1.604,1.117 -2.461,0.647 L -2.528,0.61 C -3.385,0.14 -3.672,-0.913 -3.17,-1.74 L 7.819,-19.85 c 0.503,-0.827 1.605,-1.117 2.461,-0.646 l 0.068,0.037 c 0.856,0.471 1.143,1.522 0.641,2.351 z" /></g><g
           transform="translate(154.748,40.3252)"
           id="g42"><path
             id="path44"
             style="fill:#ffffff;fill-opacity:1;fill-rule:nonzero;stroke:none"
             d="M 0,0 C -0.503,0.828 -1.605,1.118 -2.463,0.647 L -2.531,0.61 C -3.388,0.14 -3.676,-0.913 -3.172,-1.741 L 7.827,-19.854 c 0.503,-0.829 1.606,-1.119 2.463,-0.648 l 0.067,0.037 c 0.858,0.471 1.145,1.524 0.642,2.352 z" /></g><g
           transform="translate(162.083,43.9258)"
           id="g46"><path
             id="path48"
             style="fill:#ffffff;fill-opacity:1;fill-rule:nonzero;stroke:none"
             d="M 0,0 C -0.503,0.828 -1.605,1.118 -2.463,0.647 L -2.53,0.61 C -3.388,0.14 -3.675,-0.913 -3.172,-1.741 L 7.827,-19.854 c 0.503,-0.829 1.606,-1.119 2.463,-0.648 l 0.067,0.037 c 0.858,0.471 1.146,1.524 0.642,2.352 z" /></g><g
           transform="translate(169.418,47.5264)"
           id="g50"><path
             id="path52"
             style="fill:#ffffff;fill-opacity:1;fill-rule:nonzero;stroke:none"
             d="M 0,0 C -0.503,0.828 -1.605,1.118 -2.463,0.647 L -2.53,0.61 C -3.388,0.14 -3.676,-0.913 -3.172,-1.741 L 7.827,-19.854 c 0.503,-0.829 1.606,-1.119 2.463,-0.648 l 0.067,0.037 c 0.858,0.471 1.145,1.524 0.642,2.352 z" /></g><g
           transform="translate(176.7529,51.127)"
           id="g54"><path
             id="path56"
             style="fill:#ffffff;fill-opacity:1;fill-rule:nonzero;stroke:none"
             d="M 0,0 C -0.503,0.828 -1.605,1.118 -2.463,0.647 L -2.53,0.61 C -3.388,0.14 -3.675,-0.913 -3.172,-1.741 L 7.827,-19.854 c 0.503,-0.829 1.606,-1.119 2.463,-0.648 l 0.067,0.037 c 0.858,0.471 1.145,1.524 0.642,2.352 z" /></g><g
           transform="translate(78,191.9272)"
           id="g58"><path
             id="path60"
             style="fill:#ffffff;fill-opacity:1;fill-rule:nonzero;stroke:none"
             d="m 0,0 c -1.104,0 -2,-0.896 -2,-2 0,-1.105 0.896,-2 2,-2 1.104,0 2,0.895 2,2 0,1.104 -0.896,2 -2,2" /></g><g
           transform="translate(90.2354,79)"
           id="g62"><path
             id="path64"
             style="fill:#ffffff;fill-opacity:1;fill-rule:nonzero;stroke:none"
             d="M 0,0 C 1.102,1.371 1.765,3.108 1.765,5 1.765,6.892 1.102,8.629 0,10 h 7.765 c 1.1,0 2,-0.9 2,-2 V 2 c 0,-1.1 -0.9,-2 -2,-2 z m -4.235,-11 h -4 c -1.65,0 -3,1.35 -3,3 v 6.765 c 1.371,-1.102 3.108,-1.765 5,-1.765 1.891,0 3.629,0.663 5,1.765 V -8 c 0,-1.65 -1.35,-3 -3,-3 m -16,11 c -1.1,0 -2,0.9 -2,2 v 6 c 0,1.1 0.9,2 2,2 h 7.764 c -1.101,-1.371 -1.764,-3.108 -1.764,-5 0,-1.892 0.663,-3.629 1.764,-5 z m 18,5 c 0,-2.209 -1.791,-4 -4,-4 -2.209,0 -4,1.791 -4,4 0,2.209 1.791,4 4,4 2.209,0 4,-1.791 4,-4 m -6,16 h 4 c 1.65,0 3,-1.35 3,-3 v -6.765 c -1.371,1.102 -3.109,1.765 -5,1.765 -1.892,0 -3.629,-0.663 -5,-1.765 V 18 c 0,1.65 1.35,3 3,3 m 22,-19 v 6 c 0,3.309 -2.692,6 -6,6 h -5 v 4 c 0,3.859 -3.14,7 -7,7 h -4 c -3.86,0 -7,-3.141 -7,-7 v -4 h -5 c -3.309,0 -6,-2.691 -6,-6 V 2 c 0,-3.309 2.691,-6 6,-6 h 5 v -4 c 0,-3.859 3.14,-7 7,-7 h 4 c 3.86,0 7,3.141 7,7 v 4 h 5 c 3.308,0 6,2.691 6,6" /></g><g
           transform="translate(189.9043,96.6895)"
           id="g66"><path
             id="path68"
             style="fill:#ffffff;fill-opacity:1;fill-rule:nonzero;stroke:none"
             d="m 0,0 c -0.013,-0.09 -0.026,-0.179 -0.041,-0.268 -0.057,-0.36 -0.132,-0.712 -0.227,-1.058 -0.013,-0.055 -0.026,-0.111 -0.042,-0.164 -0.122,-0.42 -0.27,-0.829 -0.444,-1.225 -0.005,-0.01 -0.01,-0.017 -0.014,-0.027 -0.157,-0.356 -0.338,-0.697 -0.535,-1.029 -0.022,-0.038 -0.045,-0.074 -0.067,-0.111 -0.466,-0.764 -1.029,-1.462 -1.677,-2.073 -0.013,-0.012 -0.025,-0.023 -0.038,-0.034 -0.884,-0.825 -1.911,-1.495 -3.049,-1.959 -10e-4,0 -10e-4,-10e-4 -0.002,-10e-4 -0.58,-0.237 -1.185,-0.422 -1.814,-0.547 -0.053,-0.01 -0.107,-0.014 -0.159,-0.024 -0.264,-0.047 -0.529,-0.092 -0.798,-0.119 -0.328,-0.033 -0.66,-0.05 -0.997,-0.05 -5.523,0 -10,4.477 -10,10 0,0.418 0.034,0.829 0.084,1.234 0.014,0.116 0.034,0.229 0.052,0.345 0.049,0.306 0.112,0.608 0.188,0.905 0.025,0.101 0.048,0.201 0.077,0.301 0.227,0.782 0.547,1.523 0.947,2.214 0.038,0.065 0.078,0.129 0.118,0.194 0.187,0.307 0.388,0.601 0.606,0.885 0.027,0.035 0.052,0.071 0.079,0.105 0.516,0.654 1.112,1.239 1.774,1.747 0.026,0.02 0.053,0.039 0.08,0.06 0.33,0.248 0.673,0.477 1.033,0.684 h 10e-4 c 1.006,0.578 2.121,0.98 3.308,1.178 0.063,0.01 0.126,0.02 0.19,0.028 0.001,0 0.001,0 0.002,10e-4 0.185,0.027 0.369,0.056 0.557,0.073 0.298,0.027 0.599,0.046 0.904,0.046 5.522,0 10,-4.478 10,-10 C 0.096,0.865 0.057,0.43 0,0 m -26.808,-17.591 c 0.575,1.529 0.904,3.175 0.904,4.902 0,6.087 -3.912,11.265 -9.35,13.189 3.889,1.818 8.356,3.9 12.253,5.714 -0.574,-1.528 -0.903,-3.177 -0.903,-4.903 0,-6.09 3.915,-11.27 9.354,-13.192 -4.251,-1.984 -8.565,-3.995 -12.258,-5.71 m -3.179,3.674 c -0.014,-0.115 -0.034,-0.229 -0.052,-0.343 -0.049,-0.303 -0.109,-0.602 -0.185,-0.896 -0.025,-0.102 -0.048,-0.203 -0.078,-0.303 -0.224,-0.781 -0.542,-1.521 -0.94,-2.212 -0.032,-0.056 -0.067,-0.109 -0.1,-0.164 -0.187,-0.312 -0.391,-0.612 -0.611,-0.901 -0.025,-0.033 -0.048,-0.066 -0.072,-0.097 -0.516,-0.661 -1.113,-1.253 -1.776,-1.766 -0.006,-0.005 -0.012,-0.008 -0.018,-0.013 -0.335,-0.258 -0.687,-0.495 -1.055,-0.71 -0.773,-0.452 -1.612,-0.8 -2.501,-1.032 h -10e-4 c -0.055,-0.015 -0.109,-0.028 -0.164,-0.042 -0.759,-0.185 -1.548,-0.293 -2.364,-0.293 -5.523,0 -10,4.477 -10,10 0,0.472 0.044,0.933 0.107,1.388 0.005,0.028 0.009,0.055 0.013,0.082 v 10e-4 c 0.057,0.389 0.137,0.771 0.237,1.144 l 0.006,0.023 c 0.921,3.369 3.554,6.026 6.911,6.976 0.01,0.003 0.02,0.005 0.029,0.008 0.273,0.076 0.549,0.144 0.831,0.197 0.081,0.016 0.164,0.024 0.245,0.038 0.218,0.035 0.437,0.072 0.661,0.094 0.315,0.031 0.635,0.049 0.96,0.049 5.522,0 10,-4.478 10,-10 0,-0.416 -0.033,-0.825 -0.083,-1.228 m 21.512,29.155 c -0.47,0.048 -0.947,0.073 -1.429,0.073 -0.456,0 -0.911,-0.024 -1.367,-0.07 -1.966,-0.191 -3.812,-0.795 -5.457,-1.718 -5.99,-2.751 -22.783,-10.579 -28.331,-13.208 -1.163,-0.462 -2.246,-1.08 -3.232,-1.822 l -0.069,-0.045 c -0.021,-0.015 -0.038,-0.034 -0.058,-0.05 -1.673,-1.287 -3.043,-2.938 -3.996,-4.839 -0.012,-0.022 -0.022,-0.044 -0.032,-0.067 -0.214,-0.431 -0.406,-0.876 -0.575,-1.332 -0.023,-0.062 -0.045,-0.125 -0.068,-0.187 -0.147,-0.414 -0.274,-0.837 -0.382,-1.268 -0.023,-0.092 -0.049,-0.182 -0.07,-0.273 -0.094,-0.409 -0.166,-0.825 -0.223,-1.245 -0.014,-0.106 -0.036,-0.209 -0.048,-0.316 -0.057,-0.514 -0.092,-1.032 -0.092,-1.56 0,-0.483 0.024,-0.959 0.072,-1.43 0.671,-6.58 5.918,-11.827 12.498,-12.498 0.471,-0.048 0.947,-0.072 1.43,-0.072 0.437,0 0.873,0.025 1.307,0.066 0.192,0.018 0.379,0.049 0.57,0.074 0.173,0.024 0.346,0.038 0.519,0.069 l 0.102,0.027 c 1.572,0.284 3.052,0.829 4.396,1.594 5.934,2.709 20.626,9.571 28.486,13.248 0.174,0.073 0.341,0.16 0.513,0.24 0.157,0.073 0.318,0.148 0.467,0.219 l 0.063,0.037 c 0.956,0.496 1.847,1.097 2.659,1.792 0.107,0.092 0.207,0.188 0.311,0.283 0.275,0.25 0.541,0.509 0.795,0.779 0.132,0.14 0.261,0.281 0.387,0.425 0.22,0.254 0.427,0.518 0.629,0.787 0.112,0.151 0.229,0.295 0.335,0.449 0.279,0.406 0.541,0.825 0.777,1.26 0.067,0.125 0.121,0.257 0.186,0.385 0.169,0.336 0.329,0.676 0.471,1.026 0.072,0.178 0.133,0.36 0.198,0.54 0.114,0.319 0.217,0.641 0.308,0.969 0.052,0.185 0.101,0.37 0.145,0.558 0.082,0.352 0.146,0.711 0.201,1.073 0.024,0.165 0.057,0.327 0.075,0.493 0.061,0.528 0.1,1.063 0.1,1.607 0,0.482 -0.025,0.959 -0.073,1.429 -0.67,6.58 -5.918,11.827 -12.498,12.498" /></g></g></g></g></svg>