<?xml version="1.0" encoding="UTF-8" standalone="no"?>
<svg
   xmlns:dc="http://purl.org/dc/elements/1.1/"
   xmlns:cc="http://creativecommons.org/ns#"
   xmlns:rdf="http://www.w3.org/1999/02/22-rdf-syntax-ns#"
   xmlns:svg="http://www.w3.org/2000/svg"
   xmlns="http://www.w3.org/2000/svg"
   viewBox="0 0 128 309.33331"
   height="309.33331"
   width="128"
   xml:space="preserve"
   id="svg2"
   version="1.1"><metadata
     id="metadata8"><rdf:RDF><cc:Work
         rdf:about=""><dc:format>image/svg+xml</dc:format><dc:type
           rdf:resource="http://purl.org/dc/dcmitype/StillImage" /></cc:Work></rdf:RDF></metadata><defs
     id="defs6"><clipPath
       id="clipPath18"
       clipPathUnits="userSpaceOnUse"><path
         id="path16"
         d="M 0,256 H 256 V 0 H 0 Z" /></clipPath></defs><g
     transform="matrix(1.3333333,0,0,-1.3333333,-106.66666,325.33333)"
     id="g10"><g
       id="g12"><g
         clip-path="url(#clipPath18)"
         id="g14"><g
           transform="translate(128,24)"
           id="g20"><path
             id="path22"
             style="fill:#ffffff;fill-opacity:1;fill-rule:nonzero;stroke:none"
             d="m 0,0 c -4.411,0 -8,3.589 -8,8 0,4.411 3.589,8 8,8 C 4.411,16 8,12.411 8,8 8,3.589 4.411,0 0,0 M 0,20 C -6.627,20 -12,14.627 -12,8 -12,1.373 -6.627,-4 0,-4 6.627,-4 12,1.373 12,8 12,14.627 6.627,20 0,20" /></g><path
           id="path24"
           style="fill:#ffffff;fill-opacity:1;fill-rule:nonzero;stroke:none"
           d="m 108,176 h 40 v -48 h -40 z m -4,0.157 v -48.314 c 0,-2.122 1.721,-3.843 3.843,-3.843 h 40.314 c 2.122,0 3.843,1.721 3.843,3.843 v 48.314 c 0,2.122 -1.721,3.843 -3.843,3.843 H 107.843 C 105.721,180 104,178.279 104,176.157" /><g
           transform="translate(172,70)"
           id="g26"><path
             id="path28"
             style="fill:#ffffff;fill-opacity:1;fill-rule:nonzero;stroke:none"
             d="m 0,0 c 0,-1.104 -0.896,-2 -2,-2 h -2 v 12 h 2 c 1.104,0 2,-0.896 2,-2 z m -12,-14 v 124.136 c 0,3.036 -1.732,5.671 -4.259,6.981 2.601,2.413 4.259,6.009 4.259,10.026 v 13.714 c 0,3.553 -1.299,6.775 -3.397,9.143 H -8 V -14 Z m 4,-40 h -6.02 c 1.262,1.674 2.02,3.747 2.02,6 v 30 h 4 z m -58,0 c -3.313,0 -6,2.687 -6,6 v 30 h 56 v -30 c 0,-3.313 -2.687,-6 -6,-6 z m -14,36 h 4 v -30 c 0,-2.253 0.758,-4.326 2.019,-6 H -80 Z m 0,168 h 7.397 C -74.701,147.632 -76,144.41 -76,140.857 v -13.714 c 0,-4.017 1.658,-7.613 4.259,-10.026 -2.526,-1.31 -4.259,-3.945 -4.259,-6.981 V -14 h -4 z M -86,-2 c -1.104,0 -2,0.896 -2,2 v 8 c 0,1.104 0.896,2 2,2 h 2 V -2 Z m 18,-4 h 12 2 2 2 12 2 2 2 12 4 v -8 h -56 v 8 z m 12,40 h -12 v 8 h 12 z m 18,0 h -12 v 8 h 12 z m 18,0 h -12 v 8 h 12 z M -32,6 h 12 v -8 h -12 z m -18,0 h 12 v -8 h -12 z m 12,16 h -12 v 8 h 12 z m -12,-4 h 12 v -8 h -12 z m 30,-8 h -12 v 8 h 12 z m 0,12 h -12 v 8 h 12 z m -48,8 h 12 v -8 h -12 z m 0,-12 h 12 v -8 h -12 z m 0,-12 h 12 v -8 h -12 z m 48.136,108 c 2.134,0 3.864,-1.73 3.864,-3.864 L -16,46 h -4 -12 -2 -2 -2 -12 -2 -2 -2 -12 -4 v 64.136 c 0,2.134 1.73,3.864 3.864,3.864 H -64 -24 Z M -16,140.857 V 127.143 C -16,122.102 -19.589,118 -24,118 h -40 c -4.411,0 -8,4.102 -8,9.143 v 13.714 c 0,5.041 3.589,9.143 8,9.143 h 40 c 4.411,0 8,-4.102 8,-9.143 M -80,170 H -8 V 154 H -24 -64 -80 Z M -2,14 h -2 v 136 4 20 H -84 V 154 150 14 h -2 c -3.309,0 -6,-2.691 -6,-6 V 0 c 0,-3.309 2.691,-6 6,-6 h 2 v -8 -4 -38 c 0,-1.104 0.896,-2 2,-2 h 16 44 16 c 1.104,0 2,0.896 2,2 v 38 4 8 h 2 c 3.309,0 6,2.691 6,6 v 8 c 0,3.309 -2.691,6 -6,6" /></g></g></g></g></svg>