<?xml version="1.0" encoding="UTF-8" standalone="no"?>
<svg
   xmlns:dc="http://purl.org/dc/elements/1.1/"
   xmlns:cc="http://creativecommons.org/ns#"
   xmlns:rdf="http://www.w3.org/1999/02/22-rdf-syntax-ns#"
   xmlns:svg="http://www.w3.org/2000/svg"
   xmlns="http://www.w3.org/2000/svg"
   viewBox="0 0 320 234.66665"
   height="234.66666"
   width="320"
   xml:space="preserve"
   id="svg2"
   version="1.1"><metadata
     id="metadata8"><rdf:RDF><cc:Work
         rdf:about=""><dc:format>image/svg+xml</dc:format><dc:type
           rdf:resource="http://purl.org/dc/dcmitype/StillImage" /></cc:Work></rdf:RDF></metadata><defs
     id="defs6"><clipPath
       id="clipPath18"
       clipPathUnits="userSpaceOnUse"><path
         id="path16"
         d="M 0,256 H 256 V 0 H 0 Z" /></clipPath></defs><g
     transform="matrix(1.3333333,0,0,-1.3333333,-10.666666,287.99999)"
     id="g10"><g
       id="g12"><g
         clip-path="url(#clipPath18)"
         id="g14"><g
           transform="translate(244,48)"
           id="g20"><path
             id="path22"
             style="fill:#ffffff;fill-opacity:1;fill-rule:nonzero;stroke:none"
             d="m 0,0 c 0,-2.209 -1.791,-4 -4,-4 h -52 v 72 h 7 c 18.196,0 33,14.804 33,33 v 1 1 c 0,18.196 -14.804,33 -33,33 h -7 v 6.343 l 10.828,10.828 2.829,2.829 H 0 Z M -172,68 H -60 V -4 h -112 z m -20,-72 v 32.063 c 0.333,-0.024 0.662,-0.063 1,-0.063 6.573,0 12.162,4.596 15,11.493 V -4 Z m -28,0 v 38 l 13.533,6.767 c 1.987,-5.689 5.762,-10.018 10.467,-11.83 V -4 Z m -8,0 c -2.209,0 -4,1.791 -4,4 v 156 h 42.343 l 2.828,-2.829 L -176,142.343 V 136 h -7 c -18.196,0 -33,-14.804 -33,-33 v -1 -1 c 0,-13.411 8.045,-24.971 19.56,-30.127 C -203.223,67.997 -208,59.86 -208,50 c 0,-1.986 0.212,-3.893 0.577,-5.711 L -224,36 V 32 -4 Z m 168,148 h -112 l -12,12 h 12 l 8,-8 h 96 l 8,8 h 12 z m -112,-4 h 112 v -4 H -172 Z M -53,84 h 3 c 9.925,0 18,8.075 18,18 0,9.925 -8.075,18 -18,18 h -3 l -3,12 h 7 c 15.95,0 29,-13.05 29,-29 v -1 -1 C -20,85.05 -33.05,72 -49,72 h -7 z m -122,0 h 118 l -3,-12 h -112 z m 119,32 h 4 2 c 7.7,0 14,-6.3 14,-14 0,-7.7 -6.3,-14 -14,-14 h -2 -4 -120 -4 -2 c -7.7,0 -14,6.3 -14,14 0,7.7 6.3,14 14,14 h 2 4 z m -119,4 3,12 h 112 l 3,-12 z m -8,-48 c -15.95,0 -29,13.05 -29,29 v 1 1 c 0,15.95 13.05,29 29,29 h 7 l -3,-12 h -3 c -9.925,0 -18,-8.075 -18,-18 0,-9.925 8.075,-18 18,-18 h 3 l 3,-12 z m -9,-32 c 6.617,0 12,5.383 12,12 0,6.617 -5.383,12 -12,12 -5.009,0 -9.307,-3.088 -11.101,-7.458 1.892,6.702 6.59,11.458 12.101,11.458 7.18,0 13,-8.059 13,-18 0,-9.941 -5.82,-18 -13,-18 -0.337,0 -0.669,0.035 -1,0.07 z m -8,12 c 0,4.418 3.582,8 8,8 4.418,0 8,-3.582 8,-8 0,-4.418 -3.582,-8 -8,-8 -4.418,0 -8,3.582 -8,8 m -0.632,-8.315 c 1.279,-1.329 2.861,-2.356 4.632,-2.985 v -7.316 c -3.036,1.754 -5.48,5.06 -6.835,9.198 z M -204,50 c 0,0.393 0.024,0.776 0.042,1.163 0.113,-1.617 0.545,-3.144 1.237,-4.523 l -0.974,-0.488 C -203.891,47.394 -204,48.678 -204,50 m 28,10.507 c -1.235,3.001 -2.998,5.553 -5.128,7.493 H -176 Z M -228,164 H -4 c 2.209,0 4,-1.791 4,-4 H -38.343 -44 h -4 -12 -1.657 l -1.171,-1.171 -6.829,-6.829 h -92.686 l -6.828,6.829 -1.172,1.171 H -172 -184 -193.657 -232 c 0,2.209 1.791,4 4,4 m 224,4 h -224 c -4.411,0 -8,-3.589 -8,-8 V 0 c 0,-4.411 3.589,-8 8,-8 H -4 c 4.411,0 8,3.589 8,8 v 156 4 c 0,4.411 -3.589,8 -8,8" /></g><path
           id="path24"
           style="fill:#ffffff;fill-opacity:1;fill-rule:nonzero;stroke:none"
           d="M 80,152 H 64 v 4 h 16 z m 92,0 H 84 v 4 h 88 z m 20,0 h -16 v 4 h 16 z m 0,-8 h -16 v 4 h 16 z m -108,4 h 88 v -4 H 84 Z m -20,0 h 16 v -4 H 64 Z m -4,4 v -4 -8 h 20 4 88 4 20 v 8 4 8 H 176 172 84 80 60 Z" /><path
           id="path26"
           style="fill:#ffffff;fill-opacity:1;fill-rule:nonzero;stroke:none"
           d="m 148,208 h -36 v -4 h 36 z" /><path
           id="path28"
           style="fill:#ffffff;fill-opacity:1;fill-rule:nonzero;stroke:none"
           d="m 176,208 h -24 v -4 h 24 z" /><path
           id="path30"
           style="fill:#ffffff;fill-opacity:1;fill-rule:nonzero;stroke:none"
           d="M 108,208 H 84 v -4 h 24 z" /></g></g></g></svg>