<?xml version="1.0" encoding="UTF-8" standalone="no"?>
<svg
   xmlns:dc="http://purl.org/dc/elements/1.1/"
   xmlns:cc="http://creativecommons.org/ns#"
   xmlns:rdf="http://www.w3.org/1999/02/22-rdf-syntax-ns#"
   xmlns:svg="http://www.w3.org/2000/svg"
   xmlns="http://www.w3.org/2000/svg"
   viewBox="0 0 314.66665 224"
   height="224"
   width="314.66666"
   xml:space="preserve"
   id="svg2"
   version="1.1"><metadata
     id="metadata8"><rdf:RDF><cc:Work
         rdf:about=""><dc:format>image/svg+xml</dc:format><dc:type
           rdf:resource="http://purl.org/dc/dcmitype/StillImage" /></cc:Work></rdf:RDF></metadata><defs
     id="defs6"><clipPath
       id="clipPath18"
       clipPathUnits="userSpaceOnUse"><path
         id="path16"
         d="M 0,256 H 256 V 0 H 0 Z" /></clipPath></defs><g
     transform="matrix(1.3333333,0,0,-1.3333333,-10.666666,282.66666)"
     id="g10"><g
       id="g12"><g
         clip-path="url(#clipPath18)"
         id="g14"><g
           transform="translate(25,124)"
           id="g20"><path
             id="path22"
             style="fill:#ffffff;fill-opacity:1;fill-rule:nonzero;stroke:none"
             d="m 0,0 h 10 c 0.552,0 1,0.447 1,1 v 2 c 0,0.552 -0.448,1 -1,1 H 0 C -0.552,4 -1,3.552 -1,3 V 1 C -1,0.447 -0.552,0 0,0" /></g><g
           transform="translate(41,124)"
           id="g24"><path
             id="path26"
             style="fill:#ffffff;fill-opacity:1;fill-rule:nonzero;stroke:none"
             d="m 0,0 h 10 c 0.552,0 1,0.447 1,1 v 2 c 0,0.552 -0.448,1 -1,1 H 0 C -0.552,4 -1,3.552 -1,3 V 1 C -1,0.447 -0.552,0 0,0" /></g><g
           transform="translate(57,124)"
           id="g28"><path
             id="path30"
             style="fill:#ffffff;fill-opacity:1;fill-rule:nonzero;stroke:none"
             d="m 0,0 h 10 c 0.552,0 1,0.447 1,1 v 2 c 0,0.552 -0.448,1 -1,1 H 0 C -0.552,4 -1,3.552 -1,3 V 1 C -1,0.447 -0.552,0 0,0" /></g><g
           transform="translate(73,124)"
           id="g32"><path
             id="path34"
             style="fill:#ffffff;fill-opacity:1;fill-rule:nonzero;stroke:none"
             d="m 0,0 h 10 c 0.552,0 1,0.447 1,1 v 2 c 0,0.552 -0.448,1 -1,1 H 0 C -0.552,4 -1,3.552 -1,3 V 1 C -1,0.447 -0.552,0 0,0" /></g><g
           transform="translate(89,124)"
           id="g36"><path
             id="path38"
             style="fill:#ffffff;fill-opacity:1;fill-rule:nonzero;stroke:none"
             d="m 0,0 h 10 c 0.552,0 1,0.447 1,1 v 2 c 0,0.552 -0.448,1 -1,1 H 0 C -0.552,4 -1,3.552 -1,3 V 1 C -1,0.447 -0.552,0 0,0" /></g><g
           transform="translate(105,124)"
           id="g40"><path
             id="path42"
             style="fill:#ffffff;fill-opacity:1;fill-rule:nonzero;stroke:none"
             d="m 0,0 h 10 c 0.552,0 1,0.447 1,1 v 2 c 0,0.552 -0.448,1 -1,1 H 0 C -0.552,4 -1,3.552 -1,3 V 1 C -1,0.447 -0.552,0 0,0" /></g><g
           transform="translate(121,124)"
           id="g44"><path
             id="path46"
             style="fill:#ffffff;fill-opacity:1;fill-rule:nonzero;stroke:none"
             d="m 0,0 h 10 c 0.553,0 1,0.447 1,1 v 2 c 0,0.552 -0.447,1 -1,1 H 0 C -0.552,4 -1,3.552 -1,3 V 1 C -1,0.447 -0.552,0 0,0" /></g><g
           transform="translate(145,124)"
           id="g48"><path
             id="path50"
             style="fill:#ffffff;fill-opacity:1;fill-rule:nonzero;stroke:none"
             d="m 0,0 h 10 c 0.553,0 1,0.447 1,1 v 2 c 0,0.552 -0.447,1 -1,1 H 0 C -0.553,4 -1,3.552 -1,3 V 1 C -1,0.447 -0.553,0 0,0" /></g><g
           transform="translate(161,124)"
           id="g52"><path
             id="path54"
             style="fill:#ffffff;fill-opacity:1;fill-rule:nonzero;stroke:none"
             d="m 0,0 h 10 c 0.553,0 1,0.447 1,1 v 2 c 0,0.552 -0.447,1 -1,1 H 0 C -0.553,4 -1,3.552 -1,3 V 1 C -1,0.447 -0.553,0 0,0" /></g><g
           transform="translate(178,124)"
           id="g56"><path
             id="path58"
             style="fill:#ffffff;fill-opacity:1;fill-rule:nonzero;stroke:none"
             d="M 0,0 C 1.104,0 2,0.896 2,2 2,3.104 1.104,4 0,4 -1.104,4 -2,3.104 -2,2 -2,0.896 -1.104,0 0,0" /></g><path
           id="path60"
           style="fill:#ffffff;fill-opacity:1;fill-rule:nonzero;stroke:none"
           d="m 36,60 h -8 v 8 h 8 z M 24,80 h 16 4 4 v -8 h -8 -4 -8 -4 z m 0,12 h 12 4 V 84 H 24 Z m 0,12 h 8 4 V 96 H 24 Z m 0,12 h 8 v -8 h -8 z m 12,0 h 8 v -8 h -4 -4 z m 12,0 h 8 v -8 h -4 -4 z m 12,0 h 8 v -8 h -4 -4 z m 12,0 h 8 v -8 h -4 -4 z m 12,0 h 8 v -8 h -4 -4 z m 12,0 h 8 v -8 h -4 -4 z m 12,0 h 8 v -8 h -4 -4 z m 12,0 h 8 v -8 h -4 -4 z m 12,0 h 8 v -8 h -4 -4 z m 12,0 h 8 v -8 h -4 -4 z m 12,0 h 8 v -8 h -4 -4 z m 12,0 h 16 v -4 -4 h -12 -4 z m 20,8 h 8 v -8 h -8 v 4 z m 12,0 h 8 v -8 h -8 z m 12,0 h 8 v -8 h -8 z m 12,0 h 8 v -8 h -8 z m 8,-20 h -8 v 8 h 8 z m 0,-12 h -8 v 8 h 8 z m 0,-12 h -8 v 8 h 8 z m 0,-20 h -44 v 8 4 4 h 8 4 8 4 8 4 8 z m -60,12 v 8 h 4 8 v -4 -4 z m -4,0 h -4 -4 v 8 h 4 4 z m -8,-12 h -8 v 8 h 4 4 z M 52,80 h 4 4 v -8 h -8 z m -8,12 h 4 4 v -8 h -4 -4 z m 16,4 h -4 -4 v 8 h 4 4 z m 12,0 h -4 -4 v 8 h 4 4 z m 12,0 h -4 -4 v 8 h 4 4 z m 12,0 h -4 -4 v 8 h 4 4 z m 12,0 h -4 -4 v 8 h 4 4 z m 12,0 h -4 -4 v 8 h 4 4 z m 12,0 h -4 -4 v 8 h 4 4 z m 12,0 h -4 -4 v 8 h 4 4 z m 12,0 h -4 -4 v 8 h 4 4 z m 12,0 h -4 -4 v 8 h 4 4 z m 16,4 h -8 -4 v 4 h 12 z m 24,4 h -8 v 8 h 8 z m -8,-16 h 8 v -8 h -8 z m -12,-4 v 4 h 8 v -8 h -8 z m -12,8 h 8 v -4 -4 h -8 z m 32,0 h -8 v 8 h 8 z m -20,4 v 4 h 8 v -8 h -8 z m -24,-4 h 4 4 v -8 h -4 -4 z m -12,-8 v 8 h 4 4 v -8 h -4 z m -16,-4 h 4 4 v -8 h -8 z m -12,0 h 4 4 v -8 h -8 z m -12,0 h 4 4 v -8 h -8 z m -12,0 h 4 4 v -8 h -8 z m -12,0 h 4 4 v -8 h -8 z m -12,0 h 4 4 v -8 h -8 z m -12,0 h 4 4 v -8 h -8 z m 12,4 h -4 -4 v 8 h 4 4 z m 12,0 h -4 -4 v 8 h 4 4 z m 12,0 h -4 -4 v 8 h 4 4 z m 12,0 h -4 -4 v 8 h 4 4 z m 12,0 h -4 -4 v 8 h 4 4 z m 12,0 h -4 -4 v 8 h 4 4 z m 12,0 h -4 -4 v 8 h 4 4 z m -92,8 h 4 4 V 84 H 60 56 Z M 156,72 h -4 -4 v 8 h 4 4 z m 64,8 h -8 v 8 h 8 z m 0,12 h -8 v 8 h 8 z m 0,12 h -8 v 8 h 8 z m -32,4 v 4 h 8 v -8 h -8 z M 40,104 h 4 4 V 96 H 44 40 Z M 148,60 H 52 v 8 h 8 4 8 4 8 4 8 4 8 4 8 4 8 4 8 4 z M 48,60 h -8 v 8 h 8 z m -24,0 v -4 h 4 8 4 8 4 96 4 8 4 v 4 8 h 4 4 12 v -8 -4 h 4 44 4 v 4 16 4 8 4 8 4 8 4 8 4 h -4 -8 -4 -8 -4 -8 -4 -8 -4 v -4 -4 h -16 -4 -8 -4 -8 -4 -8 -4 -8 -4 -8 -4 -8 -4 -8 -4 -8 -4 -8 -4 -8 -4 -8 -4 -8 -4 v -4 -8 -4 -8 -4 -8 -4 -8 -4 h 4 z" /><path
           id="path62"
           style="fill:#ffffff;fill-opacity:1;fill-rule:nonzero;stroke:none"
           d="M 240,48 H 12 v 88 h 228 z m 0,96 h -8 v 8 h 8 z m -8,12 v 12 4 28 h 8 V 156 Z M 28,144 v 24 h 200 v -12 -4 -8 z m -16,64 h 8 v -8 h 4 v 8 h 4 v -8 h 4 v 8 h 4 v -8 h 4 v 8 h 4 v -8 h 4 v 8 h 4 v -8 h 4 v 8 h 4 v -8 h 4 v 8 h 4 v -8 h 4 v 8 h 4 v -8 h 4 v 8 h 4 v -8 h 4 v 8 h 4 v -8 h 4 v 8 h 4 v -8 h 4 v 8 h 4 v -8 h 4 v 8 h 4 v -8 h 4 v 8 h 4 v -8 h 4 v 8 h 4 v -8 h 4 v 8 h 4 v -8 h 4 v 8 h 4 v -8 h 4 v 8 h 4 v -8 h 4 v 8 h 4 v -8 h 4 v 8 h 72 v -4 h -8 -4 v -4 -28 H 28 24 v -4 -24 H 12 Z m 228,4 h -72 -4 -4 -4 -4 -4 -4 -4 -4 -4 -4 -4 -4 -4 -4 -4 -4 -4 -4 -4 -4 -4 -4 -4 -4 -4 -4 -4 -4 -4 -4 -4 -4 -4 -4 -4 -4 -4 -8 -4 v -4 -64 -4 -4 -88 -4 h 4 228 4 v 4 88 4 4 8 4 44 4 4 4 z" /><path
           id="path64"
           style="fill:#ffffff;fill-opacity:1;fill-rule:nonzero;stroke:none"
           d="M 136,152 H 72 v 8 h 64 z m -64,12 h -4 v -4 -8 -4 h 4 64 4 v 4 8 4 h -4 z" /><path
           id="path66"
           style="fill:#ffffff;fill-opacity:1;fill-rule:nonzero;stroke:none"
           d="m 24,196 h -4 v -8 h 4 z" /><path
           id="path68"
           style="fill:#ffffff;fill-opacity:1;fill-rule:nonzero;stroke:none"
           d="m 32,196 h -4 v -8 h 4 z" /><path
           id="path70"
           style="fill:#ffffff;fill-opacity:1;fill-rule:nonzero;stroke:none"
           d="m 40,196 h -4 v -8 h 4 z" /><path
           id="path72"
           style="fill:#ffffff;fill-opacity:1;fill-rule:nonzero;stroke:none"
           d="m 48,196 h -4 v -8 h 4 z" /><path
           id="path74"
           style="fill:#ffffff;fill-opacity:1;fill-rule:nonzero;stroke:none"
           d="m 56,196 h -4 v -8 h 4 z" /><path
           id="path76"
           style="fill:#ffffff;fill-opacity:1;fill-rule:nonzero;stroke:none"
           d="m 64,196 h -4 v -8 h 4 z" /><path
           id="path78"
           style="fill:#ffffff;fill-opacity:1;fill-rule:nonzero;stroke:none"
           d="m 72,196 h -4 v -8 h 4 z" /><path
           id="path80"
           style="fill:#ffffff;fill-opacity:1;fill-rule:nonzero;stroke:none"
           d="m 24,184 h -4 v -8 h 4 z" /><path
           id="path82"
           style="fill:#ffffff;fill-opacity:1;fill-rule:nonzero;stroke:none"
           d="m 32,184 h -4 v -8 h 4 z" /><path
           id="path84"
           style="fill:#ffffff;fill-opacity:1;fill-rule:nonzero;stroke:none"
           d="m 40,184 h -4 v -8 h 4 z" /><path
           id="path86"
           style="fill:#ffffff;fill-opacity:1;fill-rule:nonzero;stroke:none"
           d="m 48,184 h -4 v -8 h 4 z" /><path
           id="path88"
           style="fill:#ffffff;fill-opacity:1;fill-rule:nonzero;stroke:none"
           d="m 56,184 h -4 v -8 h 4 z" /><path
           id="path90"
           style="fill:#ffffff;fill-opacity:1;fill-rule:nonzero;stroke:none"
           d="m 64,184 h -4 v -8 h 4 z" /><path
           id="path92"
           style="fill:#ffffff;fill-opacity:1;fill-rule:nonzero;stroke:none"
           d="m 72,184 h -4 v -8 h 4 z" /></g></g></g></svg>