<?xml version="1.0" encoding="UTF-8" standalone="no"?>
<svg
   xmlns:dc="http://purl.org/dc/elements/1.1/"
   xmlns:cc="http://creativecommons.org/ns#"
   xmlns:rdf="http://www.w3.org/1999/02/22-rdf-syntax-ns#"
   xmlns:svg="http://www.w3.org/2000/svg"
   xmlns="http://www.w3.org/2000/svg"
   viewBox="0 0 309.33331 320"
   height="320"
   width="309.33331"
   xml:space="preserve"
   id="svg2"
   version="1.1"><metadata
     id="metadata8"><rdf:RDF><cc:Work
         rdf:about=""><dc:format>image/svg+xml</dc:format><dc:type
           rdf:resource="http://purl.org/dc/dcmitype/StillImage" /></cc:Work></rdf:RDF></metadata><defs
     id="defs6"><clipPath
       id="clipPath20"
       clipPathUnits="userSpaceOnUse"><path
         id="path18"
         d="M 0,256 H 256 V 0 H 0 Z" /></clipPath></defs><g
     transform="matrix(1.3333333,0,0,-1.3333333,-16,330.66666)"
     id="g10"><path
       id="path12"
       style="fill:#ffffff;fill-opacity:1;fill-rule:nonzero;stroke:none"
       d="m 228,126 h 4 v 4 h -4 z" /><g
       id="g14"><g
         clip-path="url(#clipPath20)"
         id="g16"><g
           transform="translate(45.0581,70.1162)"
           id="g22"><path
             id="path24"
             style="fill:#ffffff;fill-opacity:1;fill-rule:nonzero;stroke:none"
             d="m 0,0 c -10.461,0 -18.942,8.48 -18.942,18.941 0,10.462 8.481,18.943 18.942,18.943 10.461,0 18.942,-8.481 18.942,-18.943 C 18.942,8.48 10.461,0 0,0 m 3.343,-7.8 c 0.615,0 1.114,-0.499 1.114,-1.114 v -10.028 h 10.028 c 0.615,0 1.114,-0.499 1.114,-1.115 v -6.685 c 0,-0.615 -0.499,-1.114 -1.114,-1.114 H 4.457 v -10.029 c 0,-0.615 -0.499,-1.114 -1.114,-1.114 h -6.686 c -0.615,0 -1.114,0.499 -1.114,1.114 v 10.029 h -10.028 c -0.616,0 -1.115,0.499 -1.115,1.114 v 6.685 c 0,0.616 0.499,1.115 1.115,1.115 h 10.028 v 10.028 c 0,0.615 0.499,1.114 1.114,1.114 z M 22.942,18.941 C 22.942,31.592 12.65,41.884 0,41.884 c -12.65,0 -22.942,-10.292 -22.942,-22.943 0,-11.638 8.714,-21.273 19.959,-22.741 h -0.36 c -2.82,0 -5.114,-2.294 -5.114,-5.114 v -6.028 h -6.028 c -2.82,0 -5.115,-2.294 -5.115,-5.115 v -6.685 c 0,-2.82 2.295,-5.114 5.115,-5.114 h 6.028 v -6.029 c 0,-2.819 2.294,-5.114 5.114,-5.114 h 6.686 c 2.82,0 5.114,2.295 5.114,5.114 v 6.029 h 6.028 c 2.82,0 5.114,2.294 5.114,5.114 v 6.685 c 0,2.821 -2.294,5.115 -5.114,5.115 H 8.457 v 6.028 c 0,2.82 -2.294,5.114 -5.114,5.114 h -0.36 c 11.245,1.468 19.959,11.103 19.959,22.741" /></g><g
           transform="translate(45.0581,79.5869)"
           id="g26"><path
             id="path28"
             style="fill:#ffffff;fill-opacity:1;fill-rule:nonzero;stroke:none"
             d="m 0,0 c -5.231,0 -9.471,4.24 -9.471,9.471 0,5.231 4.24,9.471 9.471,9.471 5.23,0 9.471,-4.24 9.471,-9.471 C 9.471,4.24 5.23,0 0,0 m 0,22.942 c -7.428,0 -13.471,-6.043 -13.471,-13.471 C -13.471,2.043 -7.428,-4 0,-4 7.428,-4 13.471,2.043 13.471,9.471 13.471,16.899 7.428,22.942 0,22.942" /></g><g
           transform="translate(200,26)"
           id="g30"><path
             id="path32"
             style="fill:#ffffff;fill-opacity:1;fill-rule:nonzero;stroke:none"
             d="m 0,0 c 0,-1.104 -0.896,-2 -2,-2 h -4 c -1.104,0 -2,0.896 -2,2 v 4 c 0,1.104 0.896,2 2,2 h 4 C -0.896,6 0,5.104 0,4 Z m -2,10 h -4 c -3.309,0 -6,-2.691 -6,-6 V 0 c 0,-3.309 2.691,-6 6,-6 h 4 c 3.309,0 6,2.691 6,6 v 4 c 0,3.309 -2.691,6 -6,6" /></g><g
           transform="translate(224,80)"
           id="g34"><path
             id="path36"
             style="fill:#ffffff;fill-opacity:1;fill-rule:nonzero;stroke:none"
             d="m 0,0 c -3.313,0 -6,2.687 -6,6 0,3.313 2.687,6 6,6 C 3.313,12 6,9.313 6,6 6,2.687 3.313,0 0,0 m -12,-12 c -3.313,0 -6,2.687 -6,6 0,3.313 2.687,6 6,6 3.313,0 6,-2.687 6,-6 0,-3.313 -2.687,-6 -6,-6 M -24,0 c -3.313,0 -6,2.687 -6,6 0,3.313 2.687,6 6,6 3.313,0 6,-2.687 6,-6 0,-3.313 -2.687,-6 -6,-6 M -9.73,3.73 C -10.461,3.9 -11.219,4 -12,4 -12.781,4 -13.539,3.9 -14.27,3.73 -14.1,4.461 -14,5.219 -14,6 -14,6.781 -14.1,7.539 -14.27,8.27 -13.539,8.1 -12.781,8 -12,8 c 0.781,0 1.539,0.1 2.27,0.27 C -9.9,7.539 -10,6.781 -10,6 -10,5.219 -9.9,4.461 -9.73,3.73 M -12,24 c 3.313,0 6,-2.687 6,-6 0,-3.313 -2.687,-6 -6,-6 -3.313,0 -6,2.687 -6,6 0,3.313 2.687,6 6,6 M 0,16 C -0.781,16 -1.539,15.9 -2.27,15.73 -2.1,16.461 -2,17.219 -2,18 c 0,5.514 -4.486,10 -10,10 -5.514,0 -10,-4.486 -10,-10 0,-0.781 0.1,-1.539 0.27,-2.27 -0.731,0.17 -1.489,0.27 -2.27,0.27 -5.514,0 -10,-4.486 -10,-10 0,-5.514 4.486,-10 10,-10 0.781,0 1.539,0.1 2.27,0.27 C -21.9,-4.461 -22,-5.219 -22,-6 c 0,-5.514 4.486,-10 10,-10 5.514,0 10,4.486 10,10 0,0.781 -0.1,1.539 -0.27,2.27 C -1.539,-3.9 -0.781,-4 0,-4 5.514,-4 10,0.486 10,6 10,11.514 5.514,16 0,16" /></g><g
           transform="translate(240,176)"
           id="g38"><path
             id="path40"
             style="fill:#ffffff;fill-opacity:1;fill-rule:nonzero;stroke:none"
             d="m 0,0 h -4 v 56 c 0,4.411 -3.589,8 -8,8 h -200 c -4.411,0 -8,-3.589 -8,-8 V -38.343 L -221.657,-40 H -224 v 96 c 0,6.627 5.373,12 12,12 H -12 C -5.373,68 0,62.627 0,56 Z M 0,-40 H -2.343 L -4,-38.343 V -24 H 0 Z M -2.143,-53.071 -8,-56 h -8 -4 v 16 h 4 8 l 4,-4 2.865,-2.865 C -0.408,-47.592 0,-48.577 0,-49.605 c 0,-1.468 -0.829,-2.81 -2.143,-3.466 M -4,-155 c 0,-4.971 -4.029,-9 -9,-9 h -198 c -4.971,0 -9,4.029 -9,9 v 96.528 l 2.211,-1.106 0.845,-0.422 h 0.944 8 4 40 v -2 -80 -2 -4 -8 -4 h 4 24 4 v 4 8 h 4 v -8 -4 h 4 24 4 v 4 8 h 4 v -8 -4 h 4 24 4 v 4 8 4 2 80 2 h 40 4 8 0.944 l 0.845,0.422 2.211,1.106 z m -176,119 v 2 76 2 h 2.061 131.878 2.061 v -2 -76 -2 h -2.061 -131.878 z m 114.223,-20 h -92.445 -1.778 -4 -36 v 16 h 16 4 2.061 131.878 2.061 4 16 v -16 h -36 -4 z M -136,-148 v -8 h -24 v 8 h 1.778 z m 36,-8 h -24 v 8 h 24 z m 36,8 v -8 h -24 v 8 h 22.223 z m -1.777,4 H -88 h -4 -4 -4 -24 -4 -4 -4 -22.222 -1.778 v 2 80 2 h 1.778 92.445 1.777 v -2 -80 -2 z M -116,56 c 0,2.209 1.791,4 4,4 2.209,0 4,-1.791 4,-4 0,-2.209 -1.791,-4 -4,-4 -2.209,0 -4,1.791 -4,4 m 4,-8 c 4.411,0 8,3.589 8,8 0,1.458 -0.398,2.822 -1.082,4 H -12 c 2.206,0 4,-1.794 4,-4 v -92 h -8 -4 -20 v 2 76 2 4 h -4 -2.061 -65.939 -65.939 -2.061 -4 v -4 -2 -76 -2 h -20 -4 -8 v 92 c 0,2.206 1.794,4 4,4 h 93.083 c -0.685,-1.178 -1.083,-2.542 -1.083,-4 0,-4.411 3.589,-8 8,-8 M -221.858,-53.071 c -1.313,0.656 -2.142,1.998 -2.142,3.466 0,1.028 0.408,2.013 1.135,2.74 L -220,-44 l 4,4 h 8 4 v -16 h -4 -8 z M -12,72 h -200 c -8.822,0 -16,-7.178 -16,-16 v -96 -4 h 2.343 l -0.036,-0.037 c -1.488,-1.487 -2.307,-3.464 -2.307,-5.568 0,-2.864 1.529,-5.438 4,-6.835 V -155 c 0,-7.168 5.832,-13 13,-13 h 198 c 7.168,0 13,5.832 13,13 v 98.56 c 2.471,1.397 4,3.971 4,6.835 0,2.104 -0.819,4.081 -2.307,5.568 L 1.657,-44 H 4 v 4 96 c 0,8.822 -7.178,16 -16,16" /></g><g
           transform="translate(30,192)"
           id="g42"><path
             id="path44"
             style="fill:#ffffff;fill-opacity:1;fill-rule:nonzero;stroke:none"
             d="m 0,0 c -1.104,0 -2,-0.896 -2,-2 0,-1.104 0.896,-2 2,-2 1.104,0 2,0.896 2,2 0,1.104 -0.896,2 -2,2" /></g><g
           transform="translate(38,192)"
           id="g46"><path
             id="path48"
             style="fill:#ffffff;fill-opacity:1;fill-rule:nonzero;stroke:none"
             d="m 0,0 c -1.104,0 -2,-0.896 -2,-2 0,-1.104 0.896,-2 2,-2 1.104,0 2,0.896 2,2 0,1.104 -0.896,2 -2,2" /></g><g
           transform="translate(46,192)"
           id="g50"><path
             id="path52"
             style="fill:#ffffff;fill-opacity:1;fill-rule:nonzero;stroke:none"
             d="m 0,0 c -1.104,0 -2,-0.896 -2,-2 0,-1.104 0.896,-2 2,-2 1.104,0 2,0.896 2,2 0,1.104 -0.896,2 -2,2" /></g><g
           transform="translate(38,184)"
           id="g54"><path
             id="path56"
             style="fill:#ffffff;fill-opacity:1;fill-rule:nonzero;stroke:none"
             d="m 0,0 c -1.104,0 -2,-0.896 -2,-2 0,-1.104 0.896,-2 2,-2 1.104,0 2,0.896 2,2 0,1.104 -0.896,2 -2,2" /></g><g
           transform="translate(38,200)"
           id="g58"><path
             id="path60"
             style="fill:#ffffff;fill-opacity:1;fill-rule:nonzero;stroke:none"
             d="m 0,0 c -1.104,0 -2,-0.896 -2,-2 0,-1.104 0.896,-2 2,-2 1.104,0 2,0.896 2,2 0,1.104 -0.896,2 -2,2" /></g><g
           transform="translate(210,188)"
           id="g62"><path
             id="path64"
             style="fill:#ffffff;fill-opacity:1;fill-rule:nonzero;stroke:none"
             d="M 0,0 C 1.104,0 2,0.896 2,2 2,3.104 1.104,4 0,4 -1.104,4 -2,3.104 -2,2 -2,0.896 -1.104,0 0,0" /></g><g
           transform="translate(218,188)"
           id="g66"><path
             id="path68"
             style="fill:#ffffff;fill-opacity:1;fill-rule:nonzero;stroke:none"
             d="M 0,0 C 1.104,0 2,0.896 2,2 2,3.104 1.104,4 0,4 -1.104,4 -2,3.104 -2,2 -2,0.896 -1.104,0 0,0" /></g><g
           transform="translate(226,188)"
           id="g70"><path
             id="path72"
             style="fill:#ffffff;fill-opacity:1;fill-rule:nonzero;stroke:none"
             d="M 0,0 C 1.104,0 2,0.896 2,2 2,3.104 1.104,4 0,4 -1.104,4 -2,3.104 -2,2 -2,0.896 -1.104,0 0,0" /></g><g
           transform="translate(218,180)"
           id="g74"><path
             id="path76"
             style="fill:#ffffff;fill-opacity:1;fill-rule:nonzero;stroke:none"
             d="M 0,0 C 1.104,0 2,0.896 2,2 2,3.104 1.104,4 0,4 -1.104,4 -2,3.104 -2,2 -2,0.896 -1.104,0 0,0" /></g><g
           transform="translate(218,196)"
           id="g78"><path
             id="path80"
             style="fill:#ffffff;fill-opacity:1;fill-rule:nonzero;stroke:none"
             d="M 0,0 C 1.104,0 2,0.896 2,2 2,3.104 1.104,4 0,4 -1.104,4 -2,3.104 -2,2 -2,0.896 -1.104,0 0,0" /></g><path
           id="path82"
           style="fill:#ffffff;fill-opacity:1;fill-rule:nonzero;stroke:none"
           d="m 108,152 h -8 v 8 h 8 z m -8,20 h 8 v -8 h -8 z m 0,12 h 8 v -8 h -8 z m 0,12 h 8 v -8 h -8 z m 0,12 h 8 v -8 h -8 z m 12,0 h 8 v -8 h -8 z m 12,0 h 8 v -8 h -8 z m 12,0 h 8 v -8 h -8 z m 12,0 h 8 v -8 h -8 z m 8,-20 h -8 v 8 h 8 z m 0,-12 h -8 v 8 h 8 z m 0,-12 h -8 v 8 h 8 z m 0,-12 h -8 v 8 h 8 z m -12,0 h -8 v 8 h 8 z m -12,0 h -8 v 8 h 8 z m 0,36 h -8 v 8 h 8 z m -8,-4 h 8 v -8 h -8 z m 0,-12 h 8 v -8 h -8 z m 20,-8 h -8 v 8 h 8 z m 0,12 h -8 v 8 h 8 z m 0,12 h -8 v 8 h 8 z m -32,8 h 8 v -8 h -8 z m 0,-12 h 8 v -8 h -8 z m 0,-12 h 8 v -8 h -8 z m 8,-20 h -8 v 8 h 8 z m -12,-4 h 4 8 4 8 4 8 4 8 4 v 4 8 4 8 4 8 4 8 4 8 4 h -4 -8 -4 -8 -4 -8 -4 -8 -4 -8 -4 v -4 -8 -4 -8 -4 -8 -4 -8 -4 -8 -4 h 4 z" /></g></g></g></svg>