<?xml version="1.0" encoding="utf-8"?>
<!-- Generator: Adobe Illustrator 25.4.1, SVG Export Plug-In . SVG Version: 6.00 Build 0)  -->
<svg version="1.1" id="Layer_1" xmlns="http://www.w3.org/2000/svg" xmlns:xlink="http://www.w3.org/1999/xlink" x="0px" y="0px"
	 viewBox="0 0 3839 447.1" style="enable-background:new 0 0 3839 447.1;" xml:space="preserve">
<style type="text/css">
	.st0{fill:#232F95;}
	.st1{fill:#FFFFFF;}
	.st2{fill:url(#SVGID_1_);}
	.st3{fill:url(#SVGID_00000018223405003710039580000007901186672664056975_);}
	.st4{fill:url(#SVGID_00000034088787853814437960000000751393754667912078_);}
	.st5{fill:url(#SVGID_00000006681779304807057710000002756882025732292795_);}
	.st6{fill:url(#SVGID_00000100369222338581957280000011531197236093882546_);}
	.st7{fill:url(#SVGID_00000003079142288125343510000011759233582441967255_);}
	.st8{fill:url(#SVGID_00000017482159856592597020000017558515133818798767_);}
	.st9{fill:url(#SVGID_00000030454557326871095510000011778042273116212878_);}
	.st10{fill:url(#SVGID_00000170956893052340710560000017467390478560815543_);}
	.st11{fill:url(#SVGID_00000098903569882543809330000015290387442000034977_);}
	.st12{fill:url(#SVGID_00000039847321412813269220000002181424950748993471_);}
	.st13{fill:url(#SVGID_00000155866355901327255780000016377437202525333632_);}
	.st14{fill:url(#SVGID_00000079471734542508478950000014074692099656365999_);}
	.st15{fill:url(#SVGID_00000148645501016385165530000011544529799949299375_);}
	.st16{fill:url(#SVGID_00000079474646834908449430000007981386525833626811_);}
	.st17{fill:url(#SVGID_00000095330586080919703230000016427387658164824972_);}
	.st18{fill:url(#SVGID_00000085214806022721060500000013880554347673100183_);}
	.st19{fill:url(#SVGID_00000036226905291925723390000001502645267145560729_);}
	.st20{fill:url(#SVGID_00000026141825208875072250000011622344008981232257_);}
	.st21{fill:url(#SVGID_00000147898583708374199650000017968813637625528480_);}
	.st22{fill:url(#SVGID_00000158721580819675482350000009246343317494622870_);}
	.st23{fill:url(#SVGID_00000006669326426402366650000010318142743930609306_);}
	.st24{fill:url(#SVGID_00000103237930667708962400000013469159312122277544_);}
	.st25{fill:url(#SVGID_00000164488433223680868870000002800139950744305581_);}
	.st26{fill:url(#SVGID_00000094599015919088269710000008056633415293804463_);}
	.st27{fill:url(#SVGID_00000173853696138087322800000000371641005691228324_);}
	.st28{fill:url(#SVGID_00000098190426556648055420000006475229235782992800_);}
	.st29{fill:url(#SVGID_00000100345765128678610400000012458918895422379954_);}
	.st30{fill:url(#SVGID_00000073707279722895735830000008315849938078295187_);}
	.st31{fill:url(#SVGID_00000031924283872017847930000012109681639875468707_);}
	.st32{fill:url(#SVGID_00000004541944817647848780000003738650895587537552_);}
	.st33{fill:url(#SVGID_00000130636428793638749530000004045693354624450715_);}
	.st34{fill:url(#SVGID_00000088108401752223700450000003668109581575794848_);}
	.st35{fill:url(#SVGID_00000104685842577991761420000003086312079936160146_);}
	.st36{fill:url(#SVGID_00000119106877147873209800000002201891467650341764_);}
	.st37{fill:url(#SVGID_00000176756603647805929730000008524264421638361000_);}
	.st38{fill:url(#SVGID_00000176747309557984990280000010828020232026922676_);}
	.st39{fill:url(#SVGID_00000057834506167871698170000003187851357724766895_);}
	.st40{fill:url(#SVGID_00000070834907932389099540000005088126398496071604_);}
	.st41{fill:url(#SVGID_00000074425517003839986070000005221745437028553648_);}
	.st42{fill:url(#SVGID_00000078046616698501837520000013736069247146798768_);}
	.st43{fill:url(#SVGID_00000091714640758040972990000002741585154741072544_);}
	.st44{fill:url(#SVGID_00000012431048495371177180000004839094862714976418_);}
	.st45{fill:url(#SVGID_00000116193156995694613990000004203034282865687209_);}
	.st46{fill:url(#SVGID_00000089556700765148623390000001223553324505992624_);}
	.st47{fill:url(#SVGID_00000181080668953759246960000003225455132662603696_);}
	.st48{fill:url(#SVGID_00000036227279367289596700000009697385037593377425_);}
	.st49{fill:url(#SVGID_00000083073191786530673920000001552507592074974369_);}
	.st50{fill:url(#SVGID_00000164510302505177801920000011062678739370511255_);}
	.st51{fill:url(#SVGID_00000004525468217804726610000003289664107223984030_);}
	.st52{fill:url(#SVGID_00000011024766162664407220000007153903749032588456_);}
	.st53{fill:url(#SVGID_00000178204483162609344040000012187208852073589694_);}
	.st54{fill:url(#SVGID_00000109747405055930813640000006398659227939644055_);}
	.st55{fill:url(#SVGID_00000020387454142732872900000014369758158883636117_);}
	.st56{fill:url(#SVGID_00000090279426939830517020000016374098696999456676_);}
	.st57{fill:url(#SVGID_00000058566082826467476890000015678776185084149403_);}
	.st58{fill:url(#SVGID_00000119836539165295724280000007381254575580749700_);}
	.st59{fill:url(#SVGID_00000021807789603128413810000007329777594487433358_);}
	.st60{fill:url(#SVGID_00000059275319248709038030000014369882243106115976_);}
	.st61{fill:url(#SVGID_00000029766640010375955130000000850803846469545098_);}
	.st62{fill:url(#SVGID_00000183212696683586162360000008447700899359165097_);}
	.st63{fill:url(#SVGID_00000101781576950561920250000002818186726886868133_);}
	.st64{fill:url(#SVGID_00000177462400876335790250000000104679367584433319_);}
	.st65{fill:url(#SVGID_00000154404471307853952310000009690519390580831111_);}
	.st66{fill:url(#SVGID_00000144312405657450134640000011775512568903420046_);}
	.st67{fill:url(#SVGID_00000090292584861329551750000001581932956418252181_);}
	.st68{fill:url(#SVGID_00000044161955127411446480000012128461938825297306_);}
	.st69{fill:url(#SVGID_00000100376194075271250070000007127211236871806851_);}
	.st70{fill:url(#SVGID_00000163789393148872127210000016133033288316988817_);}
	.st71{fill:url(#SVGID_00000127036806184807306600000010086422224285279932_);}
	.st72{fill:url(#SVGID_00000055673705421328057440000008607463973465636273_);}
	.st73{fill:url(#SVGID_00000109743079213384390450000001164455784883647872_);}
	.st74{fill:url(#SVGID_00000031925609310920502650000014475030080742089352_);}
	.st75{fill:url(#SVGID_00000176742848510666187720000016726068971936698786_);}
	.st76{fill:url(#SVGID_00000067210894830954034040000001327344848702862977_);}
	.st77{fill:url(#SVGID_00000027576248326568184660000018158889982498106249_);}
	.st78{fill:url(#SVGID_00000050628256805776480810000009634542050810056609_);}
	.st79{fill:url(#SVGID_00000102511138536879404700000009634277089581508518_);}
	.st80{fill:url(#SVGID_00000131351047605007931290000006197418249362306176_);}
	.st81{fill:url(#SVGID_00000006684761969921189370000016960804716860314752_);}
	.st82{fill:url(#SVGID_00000031911113183097046430000008576441809559108259_);}
	.st83{fill:url(#SVGID_00000061429838104857151730000008013305736438990007_);}
	.st84{fill:url(#SVGID_00000116204367847190832940000007834597893788282269_);}
	.st85{fill:url(#SVGID_00000029733781941269425870000003360677968593002378_);}
	.st86{fill:url(#SVGID_00000116949881224183520630000002907490242240778930_);}
	.st87{fill:url(#SVGID_00000093153100763659997800000005224487664022612101_);}
	.st88{fill:url(#SVGID_00000170961745399447943990000000590778067469118360_);}
	.st89{fill:url(#SVGID_00000100384971170838575460000001876661026446110345_);}
	.st90{fill:url(#SVGID_00000125560442281344905210000003738807792306517393_);}
	.st91{fill:url(#SVGID_00000028292051809473359990000013532136669000873856_);}
	.st92{fill:url(#SVGID_00000168798874839964539830000006689034008386915504_);}
	.st93{fill:url(#SVGID_00000111896068603074237570000012075695074415393699_);}
	.st94{fill:url(#SVGID_00000063597443975080090680000013126355992732673414_);}
	.st95{fill:url(#SVGID_00000182524391450255047600000002595494794752065414_);}
	.st96{fill:url(#SVGID_00000113349072269094817570000013766283764723071387_);}
	.st97{fill:url(#SVGID_00000000918017212609714640000001760046995225715079_);}
	.st98{fill:url(#SVGID_00000092447842716768563810000018421420855610336907_);}
	.st99{fill:url(#SVGID_00000105426445516060013940000002978508254833793712_);}
	.st100{fill:url(#SVGID_00000124160467713140345720000001618755145553891244_);}
	.st101{fill:url(#SVGID_00000040547929818283272600000018180265665812596143_);}
	.st102{fill:#502F8E;}
	.st103{fill:url(#SVGID_00000027605144160004205570000015368646464436023954_);}
	.st104{fill:url(#SVGID_00000037662326309340276770000000668844645721449864_);}
	.st105{fill:url(#SVGID_00000087400102201131720710000016469429651592882314_);}
	.st106{fill:url(#SVGID_00000040551949439622573990000000066060423074675856_);}
	.st107{fill:url(#SVGID_00000033367419316543891390000000269924901508283564_);}
	.st108{fill:url(#SVGID_00000134250306203493985180000017258570570130192783_);}
	.st109{fill:url(#SVGID_00000135673114200526547860000002594777542840933027_);}
	.st110{fill:url(#SVGID_00000068672753733254489070000003765627401395569818_);}
	.st111{fill:url(#SVGID_00000109018538316714334590000017267931230336483767_);}
	.st112{fill:url(#SVGID_00000151504723194846560940000016698838220393052089_);}
	.st113{fill:url(#SVGID_00000053527015021393691340000014046580483520192396_);}
	.st114{fill:url(#SVGID_00000038415661265059855580000003373752719365280447_);}
	.st115{fill:url(#SVGID_00000140696099711043076830000006843730016498566577_);}
	.st116{fill:url(#SVGID_00000046336948794741467240000002820448637266920848_);}
	.st117{fill:url(#SVGID_00000147191065683587093500000016155231064590204045_);}
	.st118{fill:url(#SVGID_00000111907426692254070410000004333143466667957410_);}
	.st119{fill:url(#SVGID_00000067221387954476339460000013227268920656608650_);}
	.st120{fill:url(#SVGID_00000165216259376725769450000012813438237522122928_);}
	.st121{fill:url(#SVGID_00000065773133524076557310000012004297530855713426_);}
	.st122{fill:url(#SVGID_00000137102200453323463310000012455959864318515371_);}
	.st123{fill:url(#SVGID_00000115480795942701581430000016150139953826090664_);}
	.st124{fill:url(#SVGID_00000032645400627901435400000015853601889065760398_);}
	.st125{fill:url(#SVGID_00000183208847584226710170000007051202308226586504_);}
	.st126{fill:url(#SVGID_00000123436108340418855390000010903285962031673009_);}
	.st127{fill:url(#SVGID_00000011028506869849835410000013951730227827594397_);}
	.st128{fill:url(#SVGID_00000142861765925989517800000003360032369433814960_);}
	.st129{fill:url(#SVGID_00000140001441376433849740000000180768957248012206_);}
	.st130{fill:url(#SVGID_00000158008490876896809320000015453769223921329063_);}
	.st131{fill:url(#SVGID_00000124140753395495764620000009447777303407387536_);}
	.st132{fill:url(#SVGID_00000095303344105679514890000010704258956692825014_);}
	.st133{fill:url(#SVGID_00000062878407950307371030000000060090112466599592_);}
	.st134{fill:url(#SVGID_00000120527098773190234460000006250201130295479680_);}
	.st135{fill:url(#SVGID_00000168078996818334017820000006870463834026515854_);}
	.st136{fill:url(#SVGID_00000047765277312936419390000018418071511114916747_);}
	.st137{fill:url(#SVGID_00000026882067266629952910000011520878368546241965_);}
	.st138{fill:url(#SVGID_00000090264615399622026230000010492199571273940107_);}
	.st139{fill:url(#SVGID_00000134216728052300507990000018429906263098177186_);}
	.st140{fill:url(#SVGID_00000051370140285388495880000009975139456730070938_);}
	.st141{fill:url(#SVGID_00000091711270305514081080000012908320997462753724_);}
	.st142{fill:url(#SVGID_00000035501630594184099460000002499247327665067187_);}
	.st143{fill:url(#SVGID_00000145023976425844276800000014306120534893126791_);}
	.st144{fill:url(#SVGID_00000036963775212579295560000017883568809444397752_);}
	.st145{fill:url(#SVGID_00000183970175103980202670000010568767780918442378_);}
	.st146{fill:url(#SVGID_00000119800685062486779810000011707923156013215361_);}
	.st147{fill:url(#SVGID_00000024715445873214651300000011814890330197872562_);}
	.st148{fill:url(#SVGID_00000117645233297440630930000008042921826873153153_);}
	.st149{fill:url(#SVGID_00000121256232344919200700000008366931536596291989_);}
	.st150{fill:url(#SVGID_00000010282371435670371520000006376385088325697970_);}
	.st151{fill:url(#SVGID_00000142139577811719924330000018168612968774482863_);}
	.st152{fill:url(#SVGID_00000060735079944728225480000012712942626369940909_);}
	.st153{fill:url(#SVGID_00000167357425764594918840000004616752866857932426_);}
	.st154{fill:url(#SVGID_00000157293719104203882450000013184960097079855752_);}
	.st155{fill:url(#SVGID_00000042727038633743855740000016418644687357502352_);}
	.st156{fill:url(#SVGID_00000170253908009039719350000008430918287397155497_);}
	.st157{fill:url(#SVGID_00000128457892726309165180000011133265241500519824_);}
	.st158{fill:url(#SVGID_00000157282185247780338410000006676874726376460194_);}
	.st159{fill:url(#SVGID_00000045607642707353001720000018358920634918251935_);}
	.st160{fill:url(#SVGID_00000088854109493984442360000008420636439621674674_);}
	.st161{fill:url(#SVGID_00000046313783573384359070000006142623359981500060_);}
	.st162{fill:url(#SVGID_00000085231840879308125810000017015782796754611131_);}
	.st163{fill:url(#SVGID_00000101810551952164432200000006122300707962909624_);}
	.st164{fill:url(#SVGID_00000001644172264241350490000009817269750523676549_);}
	.st165{fill:url(#SVGID_00000081637229747157600290000009634103947376055984_);}
	.st166{fill:url(#SVGID_00000018927545559415558810000016562458427104824248_);}
	.st167{fill:url(#SVGID_00000038406109287857155350000002312517904900753819_);}
	.st168{fill:url(#SVGID_00000114056558290305757340000017382502316968755603_);}
	.st169{fill:url(#SVGID_00000171715712049652592620000014438299934460636581_);}
	.st170{fill:url(#SVGID_00000128485672840665642360000000468621533667268799_);}
</style>
<g>
	<g>
		<linearGradient id="SVGID_1_" gradientUnits="userSpaceOnUse" x1="-2.728484e-12" y1="223.55" x2="3839" y2="223.55">
			<stop  offset="0" style="stop-color:#502F8E"/>
			<stop  offset="1" style="stop-color:#513775"/>
		</linearGradient>
		<path class="st2" d="M3133.9,55.8l0,73.6l-93.8-73.6h-373.6l-46.7,88.1l-51.1-88.1h-564.7L2033.9,9h-448.8
			c-33,0.1-66.2,9.7-96.1,28.4c-12,7.5-23.1,16.3-33.5,26.1C1427.1,29.7,1397.2,9,1348.9,9H588.3l-24.5,75.3L551.3,9h-166l-6.1,13.8
			l-16-5.6C276.3-13,192-3.4,112.6,45.8C29.9,96.9-8.5,177,1.6,277.2c6,60.2,44.2,113.9,102.1,143.5c41.8,21.4,88.7,27.7,135.4,19.7
			h148.3l36.3-80.4l14.1,80.4h888.4c39,0,80-19.7,110.4-49.6c23.4,25.5,53.4,43.9,88,51.9c45.2,10.4,93.1,1.9,134.7-24.2
			c1.8-1.1,3.6-2.4,5.4-3.6l-4,25.5h180.9l7.1-46.8l516.5-0.2c84.9,0,136.7-25.5,165.6-58l35.9,58.1h527.1v-73.7l94.8,73.7H3839
			V55.8H3133.9z"/>
		<g>
			<path class="st1" d="M2769.3,112h-68.5l-1.9,3.4l-78.4,142.5l-83.2-142.6l-1.9-3.3h-73.6l6,9.9l14.1,23.3
				c-22.7-21.6-57.4-33.3-102.7-33.3h-148v185.2l-109.6-181.8l-1.9-3.2h-56.6l-1.9,3.2l-124.7,210.1l-5.9,9.9h49v0.1h109v-49.4
				h-64.1l64.2-115.7l90.6,161.7l1.9,3.3h73l-0.1-0.2h112.2c96.7,0,145.8-37.8,145.8-112.3c0-12.9-1.7-24.9-4.9-35.7l87.8,144.9
				l1.9,3.1h42.8l1.9-3.3l121.9-210.1L2769.3,112 M2355.5,283.1H2296V162.6h83.9c45.4,0,66.5,18.4,66.5,57.7
				C2446.4,267.3,2423.5,283.1,2355.5,283.1z"/>
			<polyline class="st1" points="3196.6,112 3190,112 3190,244.7 3022.2,113.4 3020.4,112 2976.4,112 2976.4,297.4 2866.6,115.3 
				2864.7,112.1 2808.1,112.1 2806.2,115.3 2681.5,325.4 2675.6,335.3 2742.1,335.3 2742.3,335.1 2833.8,335.1 2833.8,285.7 
				2769.6,285.7 2833.7,170.3 2924.3,331.9 2926.2,335.3 2999.3,335.3 2999.2,335.2 3036.1,335.2 3036.1,200.6 3203.3,333.8 
				3205.1,335.2 3249.1,335.2 3249.1,112 3196.6,112 			"/>
			<path class="st1" d="M3460.6,112h-130.9c-45.9,0-61.4,14.2-61.4,56.3v110.6c0,42,15.5,56.2,61.4,56.2h130.9
				c46,0,61.5-14.2,61.5-56.2v-31.3l-6.5,0l-51.5-0.1h-6.6v34.4h-124.7V164h124.7v31l6.6,0l51.5,0.2l6.6,0v-26.9
				C3522.1,125.7,3507.2,112,3460.6,112"/>
			<polyline class="st1" points="3777.6,283.1 3607.7,283.1 3607.7,244 3709.1,244 3709.1,194.8 3607.7,194.8 3607.7,162.5 
				3781.6,162.5 3781.6,112 3543.1,112 3543.1,335.2 3784.1,335.2 3784.1,283.1 3777.6,283.1 			"/>
		</g>
		<g>
			<path class="st1" d="M799.8,64.4l-74.2,174.5l-32-174.5h-64.7l-83.6,257.4L502.4,64.4h-80.7L299.5,341.7l18.2-116H196.3
				l-9.3,59.7h50.7l-5.8,32c-29.1,11.6-78.5,7.2-99.6-30.6c-13.3-23.9-25.7-77.4,30.5-126.5c45.8-40,125.1-47.2,170.9-26.2
				c0,0,5.8-33.5,10.2-64.7c-88-30.6-156.3-5.1-202.1,23.3c-62.4,38.6-92.4,97.4-84.4,177.4c9.2,92.8,129.4,151.3,231.2,92.4
				c0.9-0.5,1.6-1,2.3-1.4l-9.6,21.7h68.3l42.9-95.2h75.6l16.7,95.2h111.3l56.7-178.1l36.4,178.1h43.6l85.1-197l8.7,197h65.5
				L878.3,64.4H799.8 M418.8,225.8l27.6-61.8l12,61.8H418.8z"/>
			<polyline class="st1" points="897.2,382.9 1079.7,382.9 1090.7,314.5 976.4,314.5 985.5,257.8 1084.8,257.8 1095.7,189.5 
				995.4,189.5 1004.1,132.7 1118.3,132.7 1129.2,64.4 948.1,64.4 897.2,382.9 			"/>
			<polyline class="st1" points="1788.7,168.4 1748,64.4 1673,64.4 1750.1,232.3 1726.4,382.9 1791.8,382.9 1811.9,249.8 
				1929.7,64.4 1853.4,64.4 1788.7,168.4 			"/>
			<path class="st1" d="M1610.2,67.1c-72.5-16.7-147.8,41-168.1,129.1c-20.4,88,22,173,94.5,189.7s147.8-41,168.1-129.1
				C1725.1,168.9,1682.7,83.9,1610.2,67.1 M1635.8,254.3c-17.7,53-60,83.4-94.7,67.9c-34.6-15.5-48.4-71-30.7-124
				c17.6-53,60-83.4,94.6-67.9C1639.7,145.9,1653.5,201.4,1635.8,254.3z"/>
			<path class="st1" d="M1350.7,66.2c-35.4-0.6-122.7,0-122.7,0h0.7l-50.5,316c0,0,104.6,0,147.2,0c60.6,0,149.3-89.3,68.6-162.3
				C1477,134,1394.8,66.9,1350.7,66.2 M1312.5,320.9c-36.1,0-57.7,0-57.7,0l10.1-63.5c0,0,13.7,0,54.8,0
				C1371.6,257.4,1370.2,320.9,1312.5,320.9z M1320.4,192.5c-36.1,0-45.5,0-45.5,0l10.1-59.2c0,0,1.4,0,42.6,0
				C1373.8,133.3,1364.4,192.5,1320.4,192.5z"/>
		</g>
	</g>
	
		<linearGradient id="SVGID_00000134229972584825764360000002163584791742432156_" gradientUnits="userSpaceOnUse" x1="2183.947" y1="91.1637" x2="2183.947" y2="546.7573">
		<stop  offset="0" style="stop-color:#4B2C79"/>
		<stop  offset="1" style="stop-color:#2A1164"/>
	</linearGradient>
	<path style="fill:url(#SVGID_00000134229972584825764360000002163584791742432156_);" d="M2533.1,308.7l-14.4,16.1
		c-21.4,24-65.3,52.6-153.6,52.6l-530.4,0.2l13.9,16.1l516.5-0.2c84.9,0,136.7-25.5,165.6-58L2533.1,308.7z"/>
	
		<linearGradient id="SVGID_00000150792171927197284490000004810296348109747127_" gradientUnits="userSpaceOnUse" x1="-7.821654e-11" y1="418.2146" x2="3839" y2="418.2146">
		<stop  offset="0" style="stop-color:#8A7CC3"/>
		<stop  offset="1" style="stop-color:#A386D0"/>
	</linearGradient>
	<path style="fill:url(#SVGID_00000150792171927197284490000004810296348109747127_);" d="M1832,395.9l-4.3,28.4h-148.2l1.3-8.3
		c-2.6,1.8-5.1,3.6-7.5,5.6c-3.8,3-7.4,6.4-11.1,9.5l-1.5,9.4h180.9l4.8-31.6c-1.9-1.3-3.7-2.7-5.5-4.3
		C1837.8,401.8,1834.9,398.9,1832,395.9z"/>
	
		<linearGradient id="SVGID_00000116958481642465542110000004919156074053672348_" gradientUnits="userSpaceOnUse" x1="936.323" y1="336.4257" x2="936.323" y2="611.8974">
		<stop  offset="0" style="stop-color:#211158"/>
		<stop  offset="1" style="stop-color:#422270"/>
	</linearGradient>
	<path style="fill:url(#SVGID_00000116958481642465542110000004919156074053672348_);" d="M1437.1,367.7l-11.9,11.7
		c-28.5,28.2-65.6,45-99,45H451.3l-1.1-6.3c-4.7,3.4-9.7,6.4-14.7,9.3l2.3,13.2h888.4c39,0,80-19.7,110.4-49.6L1437.1,367.7z"/>
	
		<linearGradient id="SVGID_00000008851583056933949990000002791689840469365403_" gradientUnits="userSpaceOnUse" x1="194.008" y1="-1.818989e-12" x2="194.008" y2="443.787">
		<stop  offset="0" style="stop-color:#B28ED8"/>
		<stop  offset="1" style="stop-color:#2B0A67"/>
	</linearGradient>
	<path style="fill:url(#SVGID_00000008851583056933949990000002791689840469365403_);" d="M379.3,22.7l-16-5.6
		C276.3-13,192-3.4,112.6,45.8C29.9,96.9-8.5,177,1.6,277.2c6,60.2,44.2,113.9,102.1,143.5c41.8,21.4,88.7,27.7,135.4,19.7
		l-1.4-16.1l-1.3,0.2c-12,2-24.2,3.1-36.1,3.1c-31.8,0-61.8-7.2-89.4-21.3c-53-27.1-88-76-93.4-130.8c-4.7-46.9,1.8-89.2,19.2-125.6
		c17.4-36.3,45.7-66.8,84.2-90.6c46.5-28.8,95.1-43.4,144.5-43.4c30.2,0,61.3,5.5,92.4,16.3l30,10.5L379.3,22.7z"/>
	
		<linearGradient id="SVGID_00000087380078827827447940000011816045230264308126_" gradientUnits="userSpaceOnUse" x1="772.5724" y1="410.8781" x2="2988.8633" y2="410.8781">
		<stop  offset="0" style="stop-color:#8A7CC3"/>
		<stop  offset="1" style="stop-color:#A386D0"/>
	</linearGradient>
	<path style="fill:url(#SVGID_00000087380078827827447940000011816045230264308126_);" d="M1831.8,397.4c-1.4,9-2.7,18-4.1,27"/>
	
		<linearGradient id="SVGID_00000105428398189358923940000003645690235074198700_" gradientUnits="userSpaceOnUse" x1="1437.3505" y1="382.6501" x2="2268.9585" y2="382.6501">
		<stop  offset="0" style="stop-color:#8A7CC3"/>
		<stop  offset="1" style="stop-color:#A386D0"/>
	</linearGradient>
	<path style="fill:url(#SVGID_00000105428398189358923940000003645690235074198700_);" d="M1834.8,377.6c-0.5,3.4-1,6.8-1.5,10.1"/>
	
		<linearGradient id="SVGID_00000139254668239142484220000005346335847696063153_" gradientUnits="userSpaceOnUse" x1="1838.2041" y1="377.5801" x2="1838.2041" y2="440.4857">
		<stop  offset="0" style="stop-color:#4B2C79"/>
		<stop  offset="1" style="stop-color:#2A1164"/>
	</linearGradient>
	<polygon style="fill:url(#SVGID_00000139254668239142484220000005346335847696063153_);" points="1848.7,393.7 1834.8,377.6 
		1827.7,424.4 1841.6,440.5 	"/>
	
		<linearGradient id="SVGID_00000000942912668362298890000001244044369636373140_" gradientUnits="userSpaceOnUse" x1="1660.7089" y1="432.4378" x2="1841.5996" y2="432.4378">
		<stop  offset="0" style="stop-color:#4B2C79"/>
		<stop  offset="1" style="stop-color:#2A1164"/>
	</linearGradient>
	<polygon style="fill:url(#SVGID_00000000942912668362298890000001244044369636373140_);" points="1679.6,424.4 1660.7,440.5 
		1841.6,440.5 1827.7,424.4 	"/>
	
		<linearGradient id="SVGID_00000073706997825672543900000011035004747162481322_" gradientUnits="userSpaceOnUse" x1="1673.5377" y1="381.3315" x2="1673.5377" y2="440.4857">
		<stop  offset="0" style="stop-color:#592E91"/>
		<stop  offset="1" style="stop-color:#3F1D77"/>
	</linearGradient>
	<polygon style="fill:url(#SVGID_00000073706997825672543900000011035004747162481322_);" points="1686.4,381.3 1664.7,415 
		1660.7,440.5 1679.6,424.4 	"/>
	
		<linearGradient id="SVGID_00000152982200867636264000000016667816713684474529_" gradientUnits="userSpaceOnUse" x1="2530.741" y1="351.1879" x2="2575.6172" y2="351.1879">
		<stop  offset="0" style="stop-color:#4D288B"/>
		<stop  offset="1" style="stop-color:#56328B"/>
	</linearGradient>
	<polygon style="fill:url(#SVGID_00000152982200867636264000000016667816713684474529_);" points="2533.1,308.7 2530.7,335.5 
		2566.6,393.7 2575.6,377.6 	"/>
	
		<linearGradient id="SVGID_00000162320168323061858870000015224119309180418455_" gradientUnits="userSpaceOnUse" x1="2566.6399" y1="385.624" x2="3093.7012" y2="385.624">
		<stop  offset="0" style="stop-color:#4B2C79"/>
		<stop  offset="1" style="stop-color:#2A1164"/>
	</linearGradient>
	<polygon style="fill:url(#SVGID_00000162320168323061858870000015224119309180418455_);" points="3077.6,377.6 2575.6,377.6 
		2566.6,393.7 3093.7,393.7 	"/>
	
		<linearGradient id="SVGID_00000086670157500017940000000004848370407772717745_" gradientUnits="userSpaceOnUse" x1="3085.6536" y1="393.6718" x2="3085.6536" y2="287.0432">
		<stop  offset="0" style="stop-color:#4B2C79"/>
		<stop  offset="1" style="stop-color:#2A1164"/>
	</linearGradient>
	<polygon style="fill:url(#SVGID_00000086670157500017940000000004848370407772717745_);" points="3077.6,287 3077.6,377.6 
		3093.7,393.7 3093.7,319.9 	"/>
	
		<linearGradient id="SVGID_00000075156649000269235810000003739251446848546227_" gradientUnits="userSpaceOnUse" x1="3077.6057" y1="340.3575" x2="3194.0378" y2="340.3575">
		<stop  offset="0" style="stop-color:#4B2C79"/>
		<stop  offset="1" style="stop-color:#2A1164"/>
	</linearGradient>
	<polygon style="fill:url(#SVGID_00000075156649000269235810000003739251446848546227_);" points="3077.6,287 3093.7,319.9 
		3188.5,393.7 3194,377.6 	"/>
	
		<linearGradient id="SVGID_00000029766990282854388390000010318391926277707669_" gradientUnits="userSpaceOnUse" x1="3188.5173" y1="385.624" x2="3839" y2="385.624">
		<stop  offset="0" style="stop-color:#4B2C79"/>
		<stop  offset="1" style="stop-color:#2A1164"/>
	</linearGradient>
	<polygon style="fill:url(#SVGID_00000029766990282854388390000010318391926277707669_);" points="3822.9,377.6 3194,377.6 
		3188.5,393.7 3839,393.7 	"/>
	
		<linearGradient id="SVGID_00000168109330407594329790000009404171534744984510_" gradientUnits="userSpaceOnUse" x1="3822.9048" y1="224.7584" x2="3839" y2="224.7584">
		<stop  offset="0" style="stop-color:#2F176A"/>
		<stop  offset="1" style="stop-color:#512D99"/>
	</linearGradient>
	<polygon style="fill:url(#SVGID_00000168109330407594329790000009404171534744984510_);" points="3822.9,71.9 3822.9,377.6 
		3839,393.7 3839,55.8 	"/>
	
		<linearGradient id="SVGID_00000063620465192571183080000006912569783694206346_" gradientUnits="userSpaceOnUse" x1="3133.8804" y1="63.8928" x2="3839" y2="63.8928">
		<stop  offset="0" style="stop-color:#C8A2E5"/>
		<stop  offset="1" style="stop-color:#A887D8"/>
	</linearGradient>
	<polygon style="fill:url(#SVGID_00000063620465192571183080000006912569783694206346_);" points="3133.9,55.8 3150,71.9 
		3822.9,71.9 3839,55.8 	"/>
	
		<linearGradient id="SVGID_00000126313348678729732390000009578732336047435913_" gradientUnits="userSpaceOnUse" x1="3133.8804" y1="109.1732" x2="3149.9773" y2="109.1732">
		<stop  offset="0" style="stop-color:#C6A1DC"/>
		<stop  offset="1" style="stop-color:#8561BA"/>
	</linearGradient>
	<polygon style="fill:url(#SVGID_00000126313348678729732390000009578732336047435913_);" points="3133.9,55.8 3133.9,129.4 
		3150,162.5 3150,71.9 	"/>
	
		<linearGradient id="SVGID_00000089557420999606029760000004400109250115264404_" gradientUnits="userSpaceOnUse" x1="3034.5615" y1="109.1732" x2="3149.9773" y2="109.1732">
		<stop  offset="0" style="stop-color:#C6A1DC"/>
		<stop  offset="1" style="stop-color:#8561BA"/>
	</linearGradient>
	<polygon style="fill:url(#SVGID_00000089557420999606029760000004400109250115264404_);" points="3133.9,129.4 3040.1,55.8 
		3034.6,71.9 3150,162.5 	"/>
	
		<linearGradient id="SVGID_00000042014530700930165510000017104513122107025568_" gradientUnits="userSpaceOnUse" x1="2666.5247" y1="63.8928" x2="3040.1226" y2="63.8928">
		<stop  offset="7.458905e-08" style="stop-color:#C5A1E4"/>
		<stop  offset="1" style="stop-color:#A082D4"/>
	</linearGradient>
	<polygon style="fill:url(#SVGID_00000042014530700930165510000017104513122107025568_);" points="2666.5,55.8 2676.2,71.9 
		3034.6,71.9 3040.1,55.8 	"/>
	
		<linearGradient id="SVGID_00000178903971218396589580000009498165085590507196_" gradientUnits="userSpaceOnUse" x1="2619.8618" y1="116.5057" x2="2676.0933" y2="116.5057">
		<stop  offset="0" style="stop-color:#8D6DC3"/>
		<stop  offset="1" style="stop-color:#B291D4"/>
	</linearGradient>
	<polygon style="fill:url(#SVGID_00000178903971218396589580000009498165085590507196_);" points="2666.5,55.8 2619.9,144 
		2620.5,177.2 2676.2,71.9 	"/>
	
		<linearGradient id="SVGID_00000154397955901702085270000016235139882852272015_" gradientUnits="userSpaceOnUse" x1="2559.5151" y1="116.5057" x2="2620.3647" y2="116.5057">
		<stop  offset="0" style="stop-color:#886DC4"/>
		<stop  offset="1" style="stop-color:#6E40B1"/>
	</linearGradient>
	<polygon style="fill:url(#SVGID_00000154397955901702085270000016235139882852272015_);" points="2619.9,144 2568.8,55.8 
		2559.5,71.9 2620.5,177.2 	"/>
	
		<linearGradient id="SVGID_00000046326049369530940950000003708588895872175011_" gradientUnits="userSpaceOnUse" x1="1974.8103" y1="63.8928" x2="2567.512" y2="63.8928">
		<stop  offset="0" style="stop-color:#AD85CC"/>
		<stop  offset="1" style="stop-color:#A784D5"/>
	</linearGradient>
	<polygon style="fill:url(#SVGID_00000046326049369530940950000003708588895872175011_);" points="2004.1,55.8 1974.8,71.9 
		2559.5,71.9 2568.8,55.8 	"/>
	
		<linearGradient id="SVGID_00000108988298210220010780000007588819469038411688_" gradientUnits="userSpaceOnUse" x1="1974.8103" y1="40.4564" x2="2033.7881" y2="40.4564">
		<stop  offset="0" style="stop-color:#4B2C79"/>
		<stop  offset="1" style="stop-color:#2A1164"/>
	</linearGradient>
	<polygon style="fill:url(#SVGID_00000108988298210220010780000007588819469038411688_);" points="2004.6,25.1 1974.8,71.9 
		2004.1,55.8 2033.9,9 	"/>
	
		<linearGradient id="SVGID_00000026163531405750701280000006024426236439782539_" gradientUnits="userSpaceOnUse" x1="579.4175" y1="8.972" x2="579.4175" y2="151.5751">
		<stop  offset="0" style="stop-color:#AB98DB"/>
		<stop  offset="1" style="stop-color:#6D42B1"/>
	</linearGradient>
	<polygon style="fill:url(#SVGID_00000026163531405750701280000006024426236439782539_);" points="588.3,9 563.9,84.3 558.8,151.9 
		600,25.1 	"/>
	
		<linearGradient id="SVGID_00000124152390454744547360000008359125178991573688_" gradientUnits="userSpaceOnUse" x1="550.7762" y1="8.972" x2="550.7762" y2="151.5751">
		<stop  offset="1.491781e-07" style="stop-color:#7C53B3"/>
		<stop  offset="1" style="stop-color:#683EB7"/>
	</linearGradient>
	<polygon style="fill:url(#SVGID_00000124152390454744547360000008359125178991573688_);" points="551.3,9 537.7,25.1 558.8,151.9 
		563.9,84.3 	"/>
	
		<linearGradient id="SVGID_00000026880886238057660740000005230058880793453960_" gradientUnits="userSpaceOnUse" x1="385.3437" y1="17.02" x2="550.9681" y2="17.02">
		<stop  offset="0" style="stop-color:#B8A0E1"/>
		<stop  offset="1" style="stop-color:#A880CA"/>
	</linearGradient>
	<polygon style="fill:url(#SVGID_00000026880886238057660740000005230058880793453960_);" points="385.3,9 395.8,25.1 537.7,25.1 
		551.3,9 	"/>
	
		<linearGradient id="SVGID_00000095308138930433448190000000716840614070377127_" gradientUnits="userSpaceOnUse" x1="387.5605" y1="8.972" x2="387.5605" y2="42.7501">
		<stop  offset="7.458905e-08" style="stop-color:#7C51BC"/>
		<stop  offset="1" style="stop-color:#A896D0"/>
	</linearGradient>
	<polygon style="fill:url(#SVGID_00000095308138930433448190000000716840614070377127_);" points="385.3,9 379.3,22.7 388,42.8 
		395.8,25.1 	"/>
	
		<linearGradient id="SVGID_00000168088419678597090860000003431957527933845149_" gradientUnits="userSpaceOnUse" x1="237.7562" y1="432.4378" x2="387.1086" y2="432.4378">
		<stop  offset="0" style="stop-color:#211158"/>
		<stop  offset="1" style="stop-color:#422270"/>
	</linearGradient>
	<polygon style="fill:url(#SVGID_00000168088419678597090860000003431957527933845149_);" points="377,424.4 237.8,424.4 
		239.1,440.5 387.4,440.5 	"/>
	
		<linearGradient id="SVGID_00000173855072198354134760000001671672765980487568_" gradientUnits="userSpaceOnUse" x1="377.0345" y1="373.1514" x2="430.4178" y2="373.1514">
		<stop  offset="0" style="stop-color:#211158"/>
		<stop  offset="0.2236" style="stop-color:#372070"/>
		<stop  offset="0.4666" style="stop-color:#492C84"/>
		<stop  offset="0.6322" style="stop-color:#50308B"/>
		<stop  offset="0.6474" style="stop-color:#50308B"/>
		<stop  offset="1" style="stop-color:#50308B"/>
	</linearGradient>
	<polygon style="fill:url(#SVGID_00000173855072198354134760000001671672765980487568_);" points="423.7,360.1 430.5,305.8 
		377,424.4 387.4,440.5 	"/>
	
		<linearGradient id="SVGID_00000001621473047511358970000006192426345823434170_" gradientUnits="userSpaceOnUse" x1="437.5302" y1="440.4857" x2="437.5302" y2="306.1069">
		<stop  offset="0" style="stop-color:#211158"/>
		<stop  offset="0.1294" style="stop-color:#2D1965"/>
		<stop  offset="0.4404" style="stop-color:#472A81"/>
		<stop  offset="0.6223" style="stop-color:#50308B"/>
		<stop  offset="0.9674" style="stop-color:#50308B"/>
		<stop  offset="0.9841" style="stop-color:#51347F"/>
		<stop  offset="1" style="stop-color:#51357A"/>
	</linearGradient>
	<polyline style="fill:url(#SVGID_00000001621473047511358970000006192426345823434170_);" points="451.3,424.4 437.8,440.5 
		423.7,360.1 430.5,305.8 	"/>
	
		<linearGradient id="SVGID_00000064331409960164933220000014545642849693648052_" gradientUnits="userSpaceOnUse" x1="1561.4686" y1="-55.8269" x2="1561.4686" y2="1089.0822">
		<stop  offset="0" style="stop-color:#4B2C79"/>
		<stop  offset="1" style="stop-color:#2A1164"/>
	</linearGradient>
	<path style="fill:url(#SVGID_00000064331409960164933220000014545642849693648052_);" d="M1653.8,402.9c-1,0.7-2,1.4-2.8,1.9
		l-0.2,0.1c-27.3,17.1-57.8,26.1-88.2,26.1c-11.6,0-23.2-1.3-34.4-3.9c-30.2-7-57.8-23.3-79.8-47.2l-11.3-12.3l-0.6,23.2
		c23.4,25.5,53.4,43.9,88,51.9c45.2,10.4,93.1,1.9,134.7-24.2c1.8-1.1,3.6-2.4,5.4-3.6l21.6-33.6l-30.5,20.2
		C1655.2,402,1654.5,402.5,1653.8,402.9z"/>
	
		<linearGradient id="SVGID_00000079469327835538533000000017688060828916717961_" gradientUnits="userSpaceOnUse" x1="1021.9261" y1="8.972" x2="1021.9261" y2="86.8903">
		<stop  offset="0" style="stop-color:#AB98DB"/>
		<stop  offset="1" style="stop-color:#6D42B1"/>
	</linearGradient>
	<path style="fill:url(#SVGID_00000079469327835538533000000017688060828916717961_);" d="M1455.5,63.5
		C1427.1,29.7,1397.2,9,1348.9,9H588.3L600,25.1h748.9c44.3,0,69.7,19.5,94.3,48.7l11,13.1C1454.2,86.9,1455.5,63.5,1455.5,63.5z"/>
	
		<linearGradient id="SVGID_00000125592180418756602420000018139151449977943180_" gradientUnits="userSpaceOnUse" x1="1744.0486" y1="8.972" x2="1744.0486" y2="86.8903">
		<stop  offset="0" style="stop-color:#8A7CC3"/>
		<stop  offset="1" style="stop-color:#A386D0"/>
	</linearGradient>
	<path style="fill:url(#SVGID_00000125592180418756602420000018139151449977943180_);" d="M2033.9,9h-448.8
		c-33,0.1-66.2,9.7-96.1,28.4c-12,7.5-23.1,16.3-33.5,26.1c0,0-1.3,23.4-1.3,23.4l12.4-11.7c9.8-9.3,20.2-17.4,31-24.2
		c26.9-16.8,57.2-25.8,87.6-25.9h419.4L2033.9,9z"/>
</g>
</svg>
