<?xml version="1.0" encoding="utf-8"?>
<!-- Generator: Adobe Illustrator 25.1.0, SVG Export Plug-In . SVG Version: 6.00 Build 0)  -->
<svg version="1.1" id="Layer_1" xmlns="http://www.w3.org/2000/svg" xmlns:xlink="http://www.w3.org/1999/xlink" x="0px" y="0px"
	 viewBox="0 0 3840 741.1" style="enable-background:new 0 0 3840 741.1;" xml:space="preserve">
<style type="text/css">
	.st0{fill:#AD0E0E;}
	.st1{fill:#FFFFFF;}
	.st2{fill:url(#SVGID_1_);}
	.st3{fill:#606060;}
	.st4{fill:url(#SVGID_2_);}
	.st5{fill:url(#SVGID_3_);}
	.st6{fill:url(#SVGID_4_);}
</style>
<g>
	
		<linearGradient id="SVGID_1_" gradientUnits="userSpaceOnUse" x1="1.08" y1="-1551.0638" x2="3838.9202" y2="-1551.0638" gradientTransform="matrix(1 0 0 -1 0 -898.4639)">
		<stop  offset="0" style="stop-color:#F1784F"/>
		<stop  offset="0.2896" style="stop-color:#E0D647"/>
		<stop  offset="0.5478" style="stop-color:#73914F"/>
		<stop  offset="0.7713" style="stop-color:#4D7BBD"/>
		<stop  offset="1" style="stop-color:#444044"/>
	</linearGradient>
	<rect x="1.1" y="564.1" class="st2" width="3837.8" height="177"/>
	<g>
		<g>
			<g>
				<path id="path29_14_" class="st3" d="M3364.9,81.6C3326.6,28.2,3270.4,0,3202.3,0c-68.1,0-124.4,28.2-162.6,81.6
					c-32.2,44.9-49.9,105.2-49.9,169.8c0,125.1,65.7,251.4,212.6,251.4s212.6-126.3,212.6-251.4
					C3414.9,186.7,3397.2,126.4,3364.9,81.6L3364.9,81.6L3364.9,81.6z M3202.3,353.9c-51.2,0-56.8-69.5-56.8-103.1
					c0-33.2,5.6-101.9,56.8-101.9c51.2,0,56.8,68.7,56.8,101.9C3259.1,284.4,3253.4,353.9,3202.3,353.9L3202.3,353.9z"/>
				<path id="path29_13_" class="st3" d="M3790,81.6C3751.8,28.2,3695.5,0,3627.4,0c-68.1,0-124.4,28.2-162.6,81.6
					c-32.2,44.9-49.9,105.2-49.9,169.8c0,125.1,65.7,251.4,212.6,251.4S3840,376.5,3840,251.4C3840,186.7,3822.3,126.4,3790,81.6
					L3790,81.6z M3627.4,353.9c-51.2,0-56.8-69.5-56.8-103.1c0-33.2,5.6-101.9,56.8-101.9c51.2,0,56.8,68.7,56.8,101.9
					C3684.2,284.4,3678.6,353.9,3627.4,353.9L3627.4,353.9z"/>
				<polygon id="polygon33_7_" class="st3" points="2212.1,9.1 2212.1,163.5 2411,163.5 2251.8,492.4 2430.5,492.4 2640.8,9.1 				
					"/>
				<path class="st3" d="M2895.6,238.9c60.3-22.2,100.9-63.4,100.9-110.7c0-70.8-90.9-128.2-203.1-128.2
					c-112.2,0-203.2,57.4-203.2,128.2c0,47.3,40.6,88.4,100.9,110.7c-66.4,23.8-111.5,70.1-111.5,123.4
					c0,77.6,95.7,140.5,213.7,140.5s213.7-62.9,213.7-140.5C3007.1,309.1,2962,262.8,2895.6,238.9z M2793.4,103.8
					c22.9,0,41.5,18.6,41.5,41.5s-18.6,41.5-41.5,41.5s-41.5-18.6-41.5-41.5S2770.5,103.8,2793.4,103.8z M2793.4,388.3
					c-27.4,0-49.6-22.2-49.6-49.6c0-27.4,22.2-49.6,49.6-49.6c27.4,0,49.6,22.2,49.6,49.6C2843,366,2820.8,388.3,2793.4,388.3z"/>
			</g>
		</g>
		<g>
			<g>
				<g>
					<path class="st3" d="M215,9.1c12.2,0,24.4,0,36.6,0c0.1,28.7,0,57.4,0,86.1c0.1,24-0.6,47.9-1.5,71.9
						c-1.6,34.6-3.8,69.2-9.5,103.4c-3.9,23.6-12.1,46.3-22.2,67.9c-16.5,34.8-42.4,64.2-71.6,88.9c-26.1,22.9-57.2,39.6-89.9,50.9
						c-18.5,6.4-37.6,11.3-57,14c0-24.1,0-48.2,0-72.2c23.4-3.5,45.8-11.8,66.6-22.7c24.7-13.1,47-30.7,65.8-51.4
						c19.4-21.4,34.8-46.2,46.5-72.5c13.8-30.3,21.2-62.9,26.2-95.7c6.3-41.6,8.9-83.7,9.9-125.8C215.1,37.6,215,23.4,215,9.1z"/>
					<path class="st3" d="M266.4,9.2c22.5-0.1,45,0,67.4-0.1c0,161,0,322.1,0,483.1c-22.4,0-44.9-0.1-67.3,0.1
						c-0.3-51.4,0-102.7-0.1-154.1C266.4,228.6,266.5,118.9,266.4,9.2z"/>
					<path class="st3" d="M348.8,9.1c12.1,0,24.3,0,36.4,0c-0.4,49.1,1.3,98.3,7.1,147.1c4.8,37.9,11.5,76.1,26.6,111.4
						c14.3,34.1,34.9,65.9,61.8,91.5c25.7,24.5,56.8,43.3,90.5,54.1c9.4,3,19.1,5.4,28.9,6.8c0,24.1,0,48.1,0,72.2
						c-19.3-2.6-38.1-7.6-56.5-13.8c-21.9-7.6-43-17.5-62.5-30.1c-14.2-9.1-27.1-20-39.5-31.5c-20.4-18.8-38.7-40.3-52.5-64.5
						c-10.8-18.9-18.6-39.3-24.7-60.1c-5.6-20.9-8-42.5-10.2-64c-4.2-46.5-5.8-93.2-5.5-139.8C348.8,61.9,348.8,35.5,348.8,9.1z"/>
				</g>
				<path class="st3" d="M821.9,29.1c18.8-24,57.7-28.1,80.7-8C912,29,918.6,40,922,51.8c42.7,146.9,85.6,293.7,128.2,440.5
					c-25.2,0-50.4,0-75.6,0c-11.9-40.5-23.5-81.1-35.2-121.6c-48.7-0.1-97.4,0-146.1,0c-11.9,40.5-23.7,81.1-35.4,121.6
					c-25-0.1-50.1,0-75.2,0c40.5-140.1,81.2-280.2,121.9-420.3C809.5,57.4,811.3,41,821.9,29.1 M866.3,119.1
					c-17.9,60.8-35.4,121.8-53.1,182.7c35.4,0.2,70.8,0.1,106.2,0.1C901.7,240.9,884.1,180,866.3,119.1z"/>
				<path class="st3" d="M1352.5,32.2c13.1-19,38.5-28.3,60.8-22.4c20.5,4.7,36.1,22.3,41.5,42.2c42.7,146.8,85.4,293.5,128.1,440.2
					c-25.2,0.2-50.4,0-75.7,0.1c-11.7-40.5-23.3-81.1-35.2-121.6c-48.6,0-97.2-0.1-145.9,0c-11.6,40.6-23.6,81-35.2,121.6
					c-25,0-50,0-75.1,0c40.5-140.9,81.5-281.6,122.4-422.4C1342.6,57.2,1344.3,43.2,1352.5,32.2 M1346.4,301.8
					c35.3,0,70.5,0,105.8,0c-17.5-61.1-35.4-122-52.8-183.1C1381.7,179.8,1363.9,240.8,1346.4,301.8z"/>
				<path class="st3" d="M993.8,9.1c91.1,0,182.3,0,273.4,0c0,24.6,0,49.2,0,73.7c-33.6,0-67.1,0-100.6,0c0,136.5,0,273,0,409.5
					c-24,0-48.1,0-72.1,0c0-136.5,0-273,0-409.5c-33.6-0.1-67.1,0-100.7,0C993.8,58.2,993.8,33.7,993.8,9.1z"/>
				<path class="st3" d="M1663.1,12.1c6.9-2.4,14.3-3.2,21.6-3c28.7,0.1,57.5,0,86.2,0c48.4,0.9,94.6,30.9,115.5,74.5
					c14.5,28.3,16,61.2,12.3,92.2c-2.5,32.5-16.2,64.9-41.1,86.5c-13.2,11.7-29.6,18.9-43.7,29.3c-7.7,5.9-8.1,17.4-4.1,25.6
					c38.1,58.9,77.8,116.8,116.7,175.2c-28.5,0-56.9-0.1-85.4,0c-37.3-56-74.2-112.3-111.3-168.3c-10.9-16-13.9-37.1-7.3-55.3
					c5.1-14,17.3-24.2,30.9-29.5c25.9-9.9,51.6-25.5,65.9-50c10.9-18.4,10.4-41.1,5.4-61.3c-5.8-26.2-31.2-46.7-58.2-45.8
					c-18.6,0.1-37.2-0.1-55.8,0.1c-8.4-0.2-16.3,7.1-16.2,15.7c-0.1,131.5,0,262.9,0,394.4c-24.2,0-48.4,0-72.6,0
					c-0.1-141.5,0.1-283-0.1-424.6C1621.9,43,1639.5,19.6,1663.1,12.1z"/>
				<path class="st3" d="M1964.5,9.1c25.5,0,50.9,0,76.4,0c0,161.1,0.1,322.2-0.1,483.2c-25.4-0.1-50.9,0-76.4,0
					C1964.5,331.2,1964.5,170.2,1964.5,9.1z"/>
			</g>
		</g>
	</g>
</g>
</svg>
