<?xml version="1.0" encoding="UTF-8" standalone="no"?>
<svg
   xmlns:dc="http://purl.org/dc/elements/1.1/"
   xmlns:cc="http://creativecommons.org/ns#"
   xmlns:rdf="http://www.w3.org/1999/02/22-rdf-syntax-ns#"
   xmlns:svg="http://www.w3.org/2000/svg"
   xmlns="http://www.w3.org/2000/svg"
   viewBox="0 0 298.78589 286.324"
   height="286.32401"
   width="298.78589"
   xml:space="preserve"
   id="svg2"
   version="1.1"><metadata
     id="metadata8"><rdf:RDF><cc:Work
         rdf:about=""><dc:format>image/svg+xml</dc:format><dc:type
           rdf:resource="http://purl.org/dc/dcmitype/StillImage" /></cc:Work></rdf:RDF></metadata><defs
     id="defs6"><clipPath
       id="clipPath18"
       clipPathUnits="userSpaceOnUse"><path
         id="path16"
         d="M 0,256 H 256 V 0 H 0 Z" /></clipPath></defs><g
     transform="matrix(1.3333333,0,0,-1.3333333,-21.334522,314.66666)"
     id="g10"><g
       id="g12"><g
         clip-path="url(#clipPath18)"
         id="g14"><g
           transform="translate(194,212)"
           id="g20"><path
             id="path22"
             style="fill:#ffffff;fill-opacity:1;fill-rule:nonzero;stroke:none"
             d="m 0,0 c -1.104,0 -2,-0.896 -2,-2 0,-1.104 0.896,-2 2,-2 1.104,0 2,0.896 2,2 0,1.104 -0.896,2 -2,2" /></g><g
           transform="translate(186,212)"
           id="g24"><path
             id="path26"
             style="fill:#ffffff;fill-opacity:1;fill-rule:nonzero;stroke:none"
             d="m 0,0 c -1.104,0 -2,-0.896 -2,-2 0,-1.104 0.896,-2 2,-2 1.104,0 2,0.896 2,2 0,1.104 -0.896,2 -2,2" /></g><g
           transform="translate(178,212)"
           id="g28"><path
             id="path30"
             style="fill:#ffffff;fill-opacity:1;fill-rule:nonzero;stroke:none"
             d="m 0,0 c -1.104,0 -2,-0.896 -2,-2 0,-1.104 0.896,-2 2,-2 1.104,0 2,0.896 2,2 0,1.104 -0.896,2 -2,2" /></g><g
           transform="translate(170,212)"
           id="g32"><path
             id="path34"
             style="fill:#ffffff;fill-opacity:1;fill-rule:nonzero;stroke:none"
             d="m 0,0 c -1.104,0 -2,-0.896 -2,-2 0,-1.104 0.896,-2 2,-2 1.104,0 2,0.896 2,2 0,1.104 -0.896,2 -2,2" /></g><g
           transform="translate(234.0762,32.376)"
           id="g36"><path
             id="path38"
             style="fill:#ffffff;fill-opacity:1;fill-rule:nonzero;stroke:none"
             d="m 0,0 c -3.26,-4.657 -10.771,-7.119 -21.72,-7.119 -5.969,0 -13.009,0.735 -20.942,2.174 0.372,0.78 0.586,1.649 0.586,2.569 0,3.309 -2.692,6 -6,6 h -8 c -3.309,0 -6,-2.691 -6,-6 0,-0.702 0.127,-1.373 0.349,-2 h -36.413 -15.873 -51.589 -0.389 l -0.381,-0.075 c -9.024,-1.771 -16.969,-2.668 -23.617,-2.668 -10.994,0 -18.581,2.472 -21.942,7.148 -3.679,5.119 -1.499,11.787 -1.484,11.832 l 0.03,0.086 0.026,0.087 14.424,48.137 c 0.279,0.933 0.876,1.724 1.681,2.229 1.709,1.073 3.048,1.209 3.248,1.224 h 3.93 4 v 4 8 h 72.063 15.873 72.064 v -8 -4 h 3.992 0.008 3.93 c 0.2,-0.015 1.539,-0.151 3.248,-1.224 0.804,-0.505 1.402,-1.296 1.681,-2.229 L 1.207,12.034 1.24,11.923 1.28,11.813 C 1.304,11.748 3.572,5.103 0,0 m -56.076,-4.376 c -1.1,0 -2,0.9 -2,2 0,1.1 0.9,2 2,2 h 8 c 1.099,0 2,-0.9 2,-2 0,-1.1 -0.901,-2 -2,-2 z m -58,182 v -62 h -72 v 4 64 h 74.019 c -1.261,-1.674 -2.019,-3.748 -2.019,-6 m 1.079,-82 h -73.079 v 16 h 72 v -10 -2 c 0,-1.459 0.397,-2.822 1.079,-4 m 74.921,-8 h -56 v 4 h 56 z m -56,12 h 56 v -4 h -56 z m 56,4 h -56 -4 v -4 -4 h -4 -2 c -3.314,0 -6,2.687 -6,6 v 10 4 62 c 0,3.313 2.686,6 6,6 h 66 c 6.627,0 12,-5.373 12,-12 v -56 -4 -10 c 0,-3.313 -2.687,-6 -6,-6 h -2 v 4 4 z m -160,-20 v 92 4 c 0,9.973 13.923,14.972 27.884,17.479 4.333,-0.593 11.289,-2.309 13.287,-4.308 l 1.172,-1.171 h 1.657 36 8 8 8 36 1.657 l 1.171,1.171 c 1.999,1.999 8.953,3.714 13.288,4.308 13.961,-2.507 27.884,-7.507 27.884,-17.479 v -32 h -2 c -3.309,0 -6,-2.691 -6,-6 v 30 4 c 0,6.627 -5.373,12 -12,12 h -4 -66 -82 c -2.209,0 -4,-1.791 -4,-4 v -64 -4 -20 c 0,-2.209 1.791,-4 4,-4 h 80 2 2 4 v -4 -4 h 4 56 4 v 4 4 h 2 6 c 2.209,0 4,1.791 4,4 v 6 10 4 14 c 0,-3.309 2.691,-6 6,-6 h 2 v -40 -12 c 0,-2.209 -1.791,-4 -4,-4 h -4 v 12 h -76.064 -15.873 -76.063 v -12 h -4 c -2.209,0 -4,1.791 -4,4 z m 128,116 c 0,0 7.67,-0.001 17.331,-1.015 -2.142,-0.782 -4.11,-1.764 -5.331,-2.985 h -36 -8 -8 -8 -36 c -1.221,1.221 -3.19,2.203 -5.331,2.985 9.661,1.014 17.331,1.015 17.331,1.015 z m 60,-62 c 0,-1.104 -0.896,-2 -2,-2 h -1 c -0.553,0 -1,-0.448 -1,-1 v -2 c 0,-0.552 0.447,-1 1,-1 h 1 c 1.104,0 2,-0.895 2,-2 0,-1.104 -0.896,-2 -2,-2 h -2 -2 c -1.105,0 -2,0.896 -2,2 v 12 c 0,0.414 0.126,0.799 0.342,1.118 0.143,0.213 0.327,0.397 0.54,0.54 0.319,0.216 0.704,0.342 1.118,0.342 h 2 v -4 h 2 c 1.104,0 2,-0.895 2,-2 M 5.038,13.183 -9.386,61.319 c -0.543,1.814 -1.713,3.383 -3.301,4.41 1.6,1.463 2.611,3.561 2.611,5.895 v 12 40.35 c 2.326,0.826 4,3.044 4,5.65 0,1.535 -0.58,2.938 -1.531,4 0.951,1.063 1.531,2.465 1.531,4 0,2.607 -1.672,4.832 -4,5.657 v 0.343 4 32 c 0,10.517 -10.529,17.73 -31.297,21.438 -14.186,2.533 -28.117,2.562 -28.703,2.562 h -72 c -0.586,0 -14.517,-0.029 -28.703,-2.562 -20.767,-3.708 -31.297,-10.921 -31.297,-21.438 v -4 -92 -12 c 0,-2.334 1.011,-4.432 2.611,-5.895 -1.589,-1.027 -2.758,-2.596 -3.302,-4.41 L -217.19,13.183 c 0,0 -8.504,-24.302 27.201,-24.302 6.539,0 14.559,0.814 24.387,2.743 h 51.589 15.873 42.064 8 2 c 9.824,-1.928 17.838,-2.743 24.356,-2.743 35.61,0 26.758,24.302 26.758,24.302" /></g><g
           transform="translate(60.1089,54)"
           id="g40"><path
             id="path42"
             style="fill:#ffffff;fill-opacity:1;fill-rule:nonzero;stroke:none"
             d="m 0,0 c -0.631,-1.578 -3.829,-2.857 -7.143,-2.857 -3.314,0 -5.488,1.279 -4.857,2.857 0.631,1.578 3.829,2.857 7.143,2.857 C -1.543,2.857 0.631,1.578 0,0 m -15.428,1.429 c -2.21,0 -3.233,1.919 -2.286,4.285 0.946,2.367 3.505,4.286 5.714,4.286 2.209,0 3.232,-1.919 2.286,-4.286 -0.947,-2.366 -3.505,-4.285 -5.714,-4.285 m 1.142,-7.143 C -15.232,-8.081 -17.791,-10 -20,-10 c -2.209,0 -3.232,1.919 -2.286,4.286 0.947,2.366 3.506,4.285 5.715,4.285 2.209,0 3.232,-1.919 2.285,-4.285 m -12.857,2.857 c -3.314,0 -5.488,1.279 -4.857,2.857 0.631,1.578 3.829,2.857 7.143,2.857 3.314,0 5.488,-1.279 4.857,-2.857 -0.631,-1.578 -3.829,-2.857 -7.143,-2.857 M -24.109,20 c 0,3.313 5.373,6 12,6 6.628,0 12,-2.687 12,-6 0,-3.313 -5.372,-6 -12,-6 -6.627,0 -12,2.687 -12,6 M -4.857,6.857 c -0.174,0 -0.349,-0.003 -0.524,-0.007 0.098,1.357 -0.161,2.657 -0.769,3.79 6.059,1.384 10.041,4.902 10.041,9.36 0,5.794 -6.729,10 -16,10 -9.271,0 -16,-4.206 -16,-10 0,-4.233 3.591,-7.618 9.141,-9.135 C -20.02,9.82 -20.88,8.569 -21.428,7.2 -21.519,6.973 -21.6,6.745 -21.671,6.518 c -0.975,0.223 -2.044,0.339 -3.186,0.339 -4.334,0 -9.372,-1.661 -10.857,-5.372 -0.677,-1.691 -0.48,-3.524 0.539,-5.03 1.425,-2.104 4.353,-3.312 8.032,-3.312 0.174,0 0.349,0.003 0.524,0.007 -0.114,-1.586 0.259,-3.094 1.107,-4.347 1.206,-1.782 3.215,-2.803 5.512,-2.803 3.824,0 7.877,2.924 9.428,6.8 0.091,0.227 0.172,0.455 0.244,0.682 0.974,-0.223 2.043,-0.339 3.185,-0.339 4.335,0 9.373,1.661 10.857,5.372 0.677,1.691 0.48,3.524 -0.539,5.03 -1.425,2.104 -4.353,3.312 -8.032,3.312" /></g><g
           transform="translate(211.9922,92)"
           id="g44"><path
             id="path46"
             style="fill:#ffffff;fill-opacity:1;fill-rule:nonzero;stroke:none"
             d="m 0,0 c 1.741,0 3.353,-1.148 3.854,-2.9 l 2.197,-7.693 2.198,-7.691 v -0.001 l 7.692,-26.923 c 0.605,-2.115 -0.631,-4.34 -2.747,-4.944 -0.364,-0.105 -0.73,-0.154 -1.091,-0.154 -1.742,0 -3.354,1.149 -3.854,2.901 l -2.197,7.691 c -10e-4,0 -10e-4,0 -10e-4,10e-4 l -7.692,26.922 c 0,0.001 0,0.001 -10e-4,0.001 l -2.197,7.691 c -0.604,2.116 0.632,4.341 2.747,4.946 C -0.728,-0.05 -0.361,0 0,0 m -139.992,-44 8,48 h 120 l 8,-48 z M -7.184,-0.521 -8.047,4.657 -8.604,8 h -3.388 -120 -3.389 l -0.556,-3.343 -8,-48 -0.777,-4.657 h 4.722 136 4.721 l -0.776,4.657 -4.164,24.988 6.416,-22.458 2.198,-7.691 c 0.976,-3.416 4.142,-5.802 7.7,-5.802 0.739,0 1.476,0.103 2.19,0.307 4.241,1.212 6.706,5.648 5.494,9.891 l -7.692,26.921 -2.198,7.693 -2.198,7.692 C 6.724,1.614 3.558,4 0,4 -0.74,4 -1.477,3.896 -2.19,3.692 -4.468,3.042 -6.225,1.458 -7.184,-0.521" /></g></g></g></g></svg>