<?xml version="1.0" encoding="UTF-8" standalone="no"?>
<svg
   xmlns:dc="http://purl.org/dc/elements/1.1/"
   xmlns:cc="http://creativecommons.org/ns#"
   xmlns:rdf="http://www.w3.org/1999/02/22-rdf-syntax-ns#"
   xmlns:svg="http://www.w3.org/2000/svg"
   xmlns="http://www.w3.org/2000/svg"
   viewBox="0 0 320.00268 192"
   height="192"
   width="320.00269"
   xml:space="preserve"
   id="svg2"
   version="1.1"><metadata
     id="metadata8"><rdf:RDF><cc:Work
         rdf:about=""><dc:format>image/svg+xml</dc:format><dc:type
           rdf:resource="http://purl.org/dc/dcmitype/StillImage" /></cc:Work></rdf:RDF></metadata><defs
     id="defs6"><clipPath
       id="clipPath18"
       clipPathUnits="userSpaceOnUse"><path
         id="path16"
         d="M 0,256 H 256 V 0 H 0 Z" /></clipPath></defs><g
     transform="matrix(1.3333333,0,0,-1.3333333,-10.66436,266.66639)"
     id="g10"><g
       id="g12"><g
         clip-path="url(#clipPath18)"
         id="g14"><g
           transform="translate(217.7793,64.5078)"
           id="g20"><path
             id="path22"
             style="fill:#ffffff;fill-opacity:1;fill-rule:nonzero;stroke:none"
             d="m 0,0 c -17.693,-3.264 -31.794,-4.279 -44.04,-4.279 -20.181,0 -35.319,2.758 -53.182,2.758 -8.013,0 -16.578,-0.555 -26.388,-2.164 -3.746,-0.617 -7.075,-0.823 -11.238,-0.823 -8.324,0 -19.979,0.823 -44.949,0.823 -0.067,-10e-4 -0.132,-10e-4 -0.198,-10e-4 -8.096,0 -13.884,5.597 -18.531,14.74 -7.492,14.737 -11.631,93.741 0,106.851 11.237,12.667 24.415,8.676 37.458,11.054 7.493,1.843 14.279,2.533 20.66,2.533 19.137,0 34.592,-6.218 54.256,-6.218 19.807,0 31.001,5.968 53.101,5.967 7.155,0 15.457,-0.626 25.56,-2.282 21.998,-3.606 32.809,-2.945 33.664,-17.467 H -3.779 c -1.105,0 -2,-0.895 -2,-2 0,-1.104 0.895,-2 2,-2 h 30 v -4 h -26 c -1.105,0 -2,-0.895 -2,-2 0,-1.104 0.895,-2 2,-2 h 26 v -4 h -22 c -1.105,0 -2,-0.895 -2,-2 0,-1.104 0.895,-2 2,-2 h 22 V 18.423 C 25.649,10.306 20.197,3.725 0,0 M 30.219,110.647 C 30,118.53 27.271,123.64 21.63,126.728 c -4.818,2.636 -11.257,3.587 -20.17,4.904 -2.625,0.388 -5.34,0.788 -8.304,1.274 -9.583,1.572 -18.155,2.335 -26.207,2.335 -11.721,10e-4 -20.405,-1.613 -28.802,-3.173 -7.732,-1.437 -15.036,-2.794 -24.299,-2.794 -9.545,0 -18.318,1.565 -26.801,3.079 -8.651,1.543 -17.598,3.139 -27.455,3.139 -7.256,0 -14.287,-0.856 -21.493,-2.618 -3.296,-0.591 -6.618,-0.749 -10.132,-0.916 -9.481,-0.452 -20.227,-0.963 -29.485,-11.398 -7.992,-9.008 -8.554,-38.676 -8.178,-55.56 0.458,-20.551 3.032,-46.766 7.604,-55.759 5.79,-11.39 13.018,-16.927 22.097,-16.927 l 0.242,0.001 c 15.723,0 26.177,-0.33 33.81,-0.571 4.462,-0.14 7.985,-0.252 11.095,-0.252 4.667,0 8.111,0.254 11.888,0.876 8.662,1.42 17.082,2.111 25.738,2.111 8.497,0 16.328,-0.633 24.619,-1.303 8.851,-0.715 18.003,-1.455 28.563,-1.455 14.469,0 28.693,1.381 44.766,4.345 19.572,3.61 28.665,10.418 29.485,22.076 l 0.01,0.14 v 0.141 92.113 0.056 z" /></g><g
           transform="translate(138,72)"
           id="g24"><path
             id="path26"
             style="fill:#ffffff;fill-opacity:1;fill-rule:nonzero;stroke:none"
             d="M 0,0 C -3.313,0 -6,1.791 -6,4 -6,6.209 -3.313,8 0,8 3.313,8 6,6.209 6,4 6,1.791 3.313,0 0,0 m -92.692,45.811 c -1.148,0 -2.271,-0.072 -3.357,-0.214 -2.439,6.163 -2.582,12.555 -0.422,18.663 1.244,-0.19 2.509,-0.286 3.779,-0.286 13.507,0 24.497,10.923 24.497,24.349 0,0.65 -0.026,1.312 -0.077,1.967 16.345,7.485 37.903,11.53 62.466,11.708 L -4.712,102 C 17.251,102 41.249,99.234 66.621,93.78 74.645,87.171 78.93,71.772 77.823,53.396 76.871,37.593 72.11,23.187 66.733,19.627 44.466,14.455 25.537,11.236 10.45,10.055 7.621,12.16 5.232,13.177 0.54,13.227 H 0.501 0.462 c -4.525,-0.041 -6.977,-0.699 -9.971,-2.758 -23.395,0.281 -44.135,3.904 -58.7,10.242 0.009,0.209 0.014,0.42 0.014,0.635 0,13.49 -10.99,24.465 -24.497,24.465 m -11.729,30.047 c -0.306,0.681 -0.186,1.477 0.304,2.038 l 6.68,7.635 c 0.363,0.416 0.9,0.624 1.437,0.624 0.537,0 1.074,-0.208 1.437,-0.624 l 6.68,-7.635 c 0.585,-0.669 0.63,-1.657 0.108,-2.378 C -89.411,73.266 -92.353,72 -95.823,72 c -0.505,0 -1.021,0.026 -1.547,0.08 -2.717,0.283 -5.996,1.422 -7.051,3.778 m -5.72,5.722 c -2.356,1.055 -3.495,4.334 -3.778,7.051 -0.429,4.135 0.857,7.722 3.437,9.597 0.336,0.242 0.731,0.362 1.124,0.362 0.448,0 0.896,-0.157 1.254,-0.47 l 7.634,-6.682 c 0.416,-0.363 0.653,-0.887 0.653,-1.437 0,-0.549 -0.237,-1.073 -0.653,-1.437 l -7.634,-6.681 c -0.354,-0.309 -0.803,-0.471 -1.256,-0.471 -0.265,0 -0.529,0.054 -0.781,0.168 m 5.72,22.564 c 1.055,2.356 4.334,3.495 7.051,3.779 0.517,0.052 1.024,0.077 1.522,0.077 3.487,0 6.433,-1.258 8.073,-3.515 0.522,-0.721 0.477,-1.709 -0.108,-2.379 l -6.68,-7.634 c -0.363,-0.416 -0.887,-0.653 -1.437,-0.653 -0.55,0 -1.074,0.237 -1.437,0.653 l -6.68,7.634 c -0.49,0.562 -0.61,1.358 -0.304,2.038 m 22.562,-5.721 c 2.356,-1.055 3.495,-4.334 3.778,-7.051 0.429,-4.135 -0.857,-7.722 -3.437,-9.597 -0.336,-0.242 -0.729,-0.363 -1.122,-0.363 -0.449,0 -0.899,0.158 -1.256,0.471 l -7.635,6.681 c -0.415,0.364 -0.652,0.888 -0.652,1.437 0,0.55 0.237,1.074 0.652,1.437 l 7.635,6.682 c 0.353,0.31 0.8,0.474 1.254,0.474 0.265,0 0.532,-0.056 0.783,-0.171 M 9.936,6.004 c 15.497,1.148 35.026,4.447 58.05,9.808 0.189,0.046 0.371,0.12 0.538,0.217 7.88,4.746 12.415,22.57 13.292,37.126 1.219,20.255 -3.679,36.732 -13.106,44.076 -0.222,0.173 -0.477,0.293 -0.753,0.352 C 41.831,103.232 17.368,106 -4.712,106 c -0.372,0 -0.74,-0.001 -1.11,-0.002 -25.854,-0.187 -48.519,-4.594 -65.549,-12.742 -0.734,-0.351 -1.155,-1.139 -1.037,-1.946 0.14,-0.961 0.213,-1.986 0.213,-2.987 0,-11.221 -9.195,-20.349 -20.497,-20.349 -0.621,0 -1.238,0.035 -1.852,0.089 4.231,0.308 7.836,2.118 10.005,5.103 0.936,1.295 1.269,2.842 1.054,4.322 0.279,-0.04 0.56,-0.076 0.845,-0.076 1.251,0 2.449,0.387 3.464,1.121 3.758,2.732 5.651,7.683 5.073,13.251 -0.517,4.959 -2.805,8.805 -6.121,10.29 -0.747,0.341 -1.569,0.52 -2.418,0.52 -0.285,0 -0.564,-0.036 -0.842,-0.077 0.215,1.479 -0.117,3.023 -1.05,4.313 -2.389,3.288 -6.511,5.17 -11.314,5.17 -0.631,0 -1.277,-0.033 -1.921,-0.097 -4.972,-0.519 -8.817,-2.807 -10.302,-6.124 -0.468,-1.04 -0.61,-2.174 -0.452,-3.264 -0.276,0.04 -0.553,0.075 -0.835,0.075 -1.25,0 -2.447,-0.386 -3.462,-1.117 -3.762,-2.735 -5.655,-7.686 -5.077,-13.254 0.517,-4.959 2.805,-8.805 6.121,-10.29 0.755,-0.342 1.572,-0.517 2.416,-0.517 0.283,0 0.561,0.036 0.838,0.075 -0.159,-1.091 -0.016,-2.225 0.453,-3.267 1.376,-3.075 4.801,-5.247 9.247,-5.96 -0.307,-0.197 -0.559,-0.483 -0.711,-0.84 -3.447,-8.142 -3.28,-16.782 0.488,-24.988 0.308,-0.674 0.982,-1.082 1.705,-1.082 0.122,0 0.247,0.011 0.371,0.036 1.346,0.283 2.786,0.425 4.277,0.425 11.302,0 20.497,-9.183 20.497,-20.465 0,-0.564 -0.053,-1.153 -0.109,-1.822 -0.067,-0.78 0.364,-1.518 1.077,-1.845 C -56.104,10.736 -34.212,6.769 -9.526,6.474 -9.832,5.697 -10,4.867 -10,4 -10,-0.486 -5.607,-4 0,-4 5.607,-4 10,-0.486 10,4 10,4.701 9.881,5.375 9.679,6.02 9.719,6.018 9.756,6 9.797,6 9.844,6 9.888,6 9.936,6.004" /></g><g
           transform="translate(117.4287,76)"
           id="g28"><path
             id="path30"
             style="fill:#ffffff;fill-opacity:1;fill-rule:nonzero;stroke:none"
             d="m 0,0 h -6.857 c -1.42,0 -2.572,-0.896 -2.572,-2 0,-1.104 1.152,-2 2.572,-2 H 0 c 1.42,0 2.571,0.896 2.571,2 0,1.104 -1.151,2 -2.571,2" /></g><g
           transform="translate(97.4287,76)"
           id="g32"><path
             id="path34"
             style="fill:#ffffff;fill-opacity:1;fill-rule:nonzero;stroke:none"
             d="m 0,0 h -6.857 c -1.42,0 -2.572,-0.896 -2.572,-2 0,-1.104 1.152,-2 2.572,-2 H 0 c 1.42,0 2.571,0.896 2.571,2 0,1.104 -1.151,2 -2.571,2" /></g><g
           transform="translate(56.4824,81.7773)"
           id="g36"><path
             id="path38"
             style="fill:#ffffff;fill-opacity:1;fill-rule:nonzero;stroke:none"
             d="m 0,0 c -0.335,-0.246 -0.729,-0.365 -1.122,-0.365 -0.449,0 -0.899,0.16 -1.256,0.473 l -7.635,6.682 c -0.416,0.362 -0.652,0.884 -0.652,1.437 0,0.551 0.236,1.073 0.652,1.435 l 7.635,6.682 c 0.351,0.314 0.798,0.473 1.25,0.473 0.267,0 0.536,-0.055 0.787,-0.168 C 2.015,15.591 3.155,12.31 3.437,9.591 3.864,5.459 2.58,1.872 0,0 m -6.257,-6.261 c -1.637,-2.253 -4.578,-3.516 -8.047,-3.516 -0.505,0 -1.021,0.026 -1.545,0.078 -2.719,0.283 -6,1.425 -7.054,3.781 -0.306,0.679 -0.187,1.477 0.303,2.036 l 6.681,7.637 c 0.363,0.414 0.9,0.621 1.437,0.621 0.536,0 1.073,-0.207 1.437,-0.621 l 6.68,-7.637 c 0.585,-0.671 0.63,-1.655 0.108,-2.379 m -22.367,6.064 c -2.355,1.058 -3.496,4.34 -3.778,7.058 -0.427,4.132 0.858,7.719 3.437,9.591 0.335,0.245 0.728,0.366 1.12,0.366 0.45,0 0.899,-0.159 1.259,-0.474 l 7.634,-6.682 C -18.536,9.3 -18.3,8.778 -18.3,8.227 c 0,-0.553 -0.236,-1.075 -0.652,-1.437 l -7.634,-6.682 c -0.354,-0.313 -0.804,-0.473 -1.257,-0.473 -0.264,0 -0.531,0.055 -0.781,0.168 m 5.721,22.567 c 1.054,2.357 4.335,3.498 7.054,3.781 0.5,0.048 0.992,0.072 1.474,0.072 3.497,0 6.47,-1.245 8.118,-3.51 0.522,-0.724 0.477,-1.708 -0.108,-2.379 l -6.68,-7.637 c -0.364,-0.414 -0.888,-0.652 -1.437,-0.652 -0.55,0 -1.074,0.238 -1.437,0.652 l -6.681,7.637 c -0.49,0.56 -0.609,1.357 -0.303,2.036 M 1.299,20.298 c -0.776,0.347 -1.589,0.519 -2.427,0.519 -0.284,0 -0.563,-0.036 -0.841,-0.077 0.216,1.48 -0.114,3.024 -1.044,4.314 -2.394,3.29 -6.532,5.169 -11.362,5.169 -0.609,0 -1.233,-0.031 -1.855,-0.09 -4.992,-0.52 -8.839,-2.81 -10.324,-6.129 -0.468,-1.038 -0.611,-2.172 -0.453,-3.262 -0.277,0.04 -0.555,0.076 -0.838,0.076 -1.259,0 -2.463,-0.393 -3.48,-1.136 -3.737,-2.712 -5.631,-7.661 -5.055,-13.232 0.513,-4.956 2.799,-8.805 6.116,-10.296 0.771,-0.345 1.584,-0.519 2.421,-0.519 0.283,0 0.56,0.036 0.837,0.076 -0.159,-1.092 -0.015,-2.229 0.455,-3.272 1.482,-3.31 5.329,-5.6 10.288,-6.117 0.67,-0.066 1.324,-0.099 1.959,-0.099 4.785,0 8.898,1.882 11.283,5.165 0.935,1.296 1.267,2.843 1.052,4.323 0.28,-0.04 0.561,-0.076 0.847,-0.076 1.265,0 2.471,0.394 3.488,1.14 3.731,2.707 5.625,7.657 5.05,13.227 -0.514,4.956 -2.8,8.805 -6.117,10.296" /></g><g
           transform="translate(232.4824,85.7773)"
           id="g40"><path
             id="path42"
             style="fill:#ffffff;fill-opacity:1;fill-rule:nonzero;stroke:none"
             d="m 0,0 c -0.336,-0.246 -0.729,-0.365 -1.122,-0.365 -0.449,0 -0.899,0.16 -1.257,0.473 l -7.634,6.682 c -0.416,0.362 -0.652,0.884 -0.652,1.437 0,0.551 0.236,1.073 0.652,1.435 l 7.634,6.682 c 0.352,0.314 0.799,0.473 1.251,0.473 0.267,0 0.535,-0.055 0.787,-0.168 C 2.015,15.591 3.155,12.31 3.437,9.591 3.863,5.459 2.579,1.872 0,0 m -6.257,-6.261 c -1.637,-2.253 -4.578,-3.516 -8.047,-3.516 -0.505,0 -1.021,0.026 -1.545,0.078 -2.719,0.283 -6,1.425 -7.054,3.781 -0.306,0.679 -0.187,1.477 0.303,2.036 l 6.68,7.637 c 0.364,0.414 0.9,0.621 1.438,0.621 0.537,0 1.073,-0.207 1.437,-0.621 l 6.68,-7.637 c 0.585,-0.671 0.63,-1.655 0.108,-2.379 m 7.556,26.559 c -0.776,0.347 -1.589,0.519 -2.427,0.519 -1.449,0 -2.84,-0.529 -3.916,-1.491 l -7.603,-6.654 c -1.245,-1.083 -1.971,-2.649 -2.01,-4.305 -1.653,-0.048 -3.2,-0.757 -4.268,-1.972 l -6.685,-7.643 c -1.517,-1.731 -1.887,-4.21 -0.941,-6.313 1.483,-3.31 5.329,-5.6 10.287,-6.117 0.671,-0.066 1.325,-0.099 1.96,-0.099 4.785,0 8.898,1.882 11.283,5.165 0.935,1.296 1.267,2.843 1.051,4.323 0.281,-0.04 0.562,-0.076 0.848,-0.076 1.265,0 2.472,0.394 3.488,1.14 3.731,2.707 5.625,7.657 5.05,13.227 -0.514,4.956 -2.8,8.805 -6.117,10.296" /></g><path
           id="path44"
           style="fill:#ffffff;fill-opacity:1;fill-rule:nonzero;stroke:none"
           d="M 188,100 H 88 v 60 h 100 z m 4,64 H 84 V 96 h 108 z" /></g></g></g></svg>