<?xml version="1.0" encoding="utf-8"?>
<!-- Generator: Adobe Illustrator 26.0.1, SVG Export Plug-In . SVG Version: 6.00 Build 0)  -->
<svg version="1.1" id="Layer_1" xmlns="http://www.w3.org/2000/svg" xmlns:xlink="http://www.w3.org/1999/xlink" x="0px" y="0px"
	 viewBox="0 0 3839 964.3" style="enable-background:new 0 0 3839 964.3;" xml:space="preserve">
<style type="text/css">
	.st0{fill:#E00000;}
	.st1{fill:#FFFFFF;}
	.st2{fill:#002F82;}
</style>
<g>
	<g>
		<g>
			<path class="st0" d="M2190.1,959.4v-5c0-10.1-4.8-21.6-42.1-21.6H1135v-5c0-47.4,9.2-92,27.3-132.5c16.5-37,41.1-71.8,72.9-103.5
				c98.6-118.1,274.7-181.4,430.1-237.3c104.2-37.5,194.2-69.8,243.8-112.1c9.4-14,14-28.3,14-43.8c0-23.8-12-57.8-69.3-84.7
				c-40.4-19-95.2-29.9-150.2-29.9c-120.9,0-233.6,53.6-291.9,106.9c-8.6,11.8-13.1,22.3-13.1,30.6c0,8.3,4.4,14.2,11,20.6l4.3,4.2
				l-28.6,20.4l-8-7.4c1.9,3.3,4.7,6.3,7.9,9.5l4.3,4.2l-28.6,20.4l-193.1-178.8l31.2-18.9l2.8,3.1c0.7,0.8,2.2,2.1,5.3,3.1
				l-15-13.9l31.2-18.9l2.8,3.1c1.2,1.3,5,4.4,15.1,4.4c10.1,0,27.1-12.2,50.6-29.1C1361.3,97.6,1490.5,5,1737.4,5
				c49.5,0,101.9,5.6,151.6,16.1c52.9,11.2,100.9,27.5,142.6,48.2c45.5,22.7,81.4,49.8,106.6,80.6c28,34.3,42.2,72.5,42.2,113.6
				c0,64.8-23.5,118.7-71.8,165c-74.1,93.4-224.9,140.7-370.8,186.3c-121.5,38-236.5,74-308.5,134.1h743c6.8,0,12.7-0.4,17.8-1.2
				v-1.2l5-0.1h1.1c12.8-3.3,18.3-9.8,18.3-21.6v-5h32v184c1.7-0.4,3.4-0.8,5.1-1.3v-23l4.7-0.3c31.5-1.9,43.3-14.3,64.7-36.7
				c3.8-4,7.7-8.1,12.1-12.5l363.4-358.9L2330.4,96.8c-0.7-0.7-1.5-1.5-2.2-2.3c-9.1-9.5-22.8-24-57-24h-5V43.6h24.5V17h380.4v26.9
				h-5c-8.2,0-14.8,0.9-19.5,2.5v21.9c3.4,3.9,7.9,8.7,13.6,14.3l210.1,216.3l211.6-209.7c3.3-4.4,4-6.9,4-8.1
				c0-5.9-9.7-10.8-21.7-10.8h-5V43.4h24.4V17h358.5v26.8l-4.9,0.1c-7,0.2-13.5,0.7-19.6,1.6v24.7l-4.9,0.1
				c-49,1.1-68.2,19.7-97.2,47.9l-1.4,1.4L3001,430.2l391.1,400c3.5,3.6,6.6,6.9,9.7,10.2c24.7,26.1,35.9,38,71.7,39l4.8,0.1v26.8
				h-24.5v26.4h-377.4v-26.9h5c10,0,16-0.7,19.5-1.9v-18.7c-6.9-9.1-19.2-21.4-33.3-35.4c-5.3-5.3-10.7-10.7-16.3-16.4l-225.8-229.6
				L2563.8,863c-0.6,1.6-0.9,3.4-0.9,5.6c0,6.3,11.5,10.8,28,10.8h5v26.9h-24.5v26.5l-349.3,0v26.6H2190.1z"/>
			<path class="st1" d="M1737.4,10c194.6,0,438,85.8,438,253.6c0,67.8-26.8,119.9-70.5,161.6c-135.6,171.5-533,185.5-688.9,328.7
				h756.2c9.1,0,16.6-0.7,22.8-2c0-0.1,0-0.3,0-0.4h1.7c16.2-4,22.6-12.8,22.6-26.6h22v185c10.5-1.5,18.7-4.4,26.1-8.6h-11v-16.9
				c39.2-2.4,50.2-20.5,80.1-50.7l366.8-362.4L2334,93.3c-9.5-9.7-23.6-27.8-62.7-27.8V48.6h65.9c-9.5-5.4-22.6-9.7-41.4-9.7V22
				h370.4v16.9c-15.7,0-26.8,2.9-31.1,9.7h6.6v16.9c-1.3,0-2.5,0-3.7,0.1c3.9,5.2,10.1,12,18.7,20.6L2870.3,306l215.5-213.5
				c3.2-4.3,5.2-8.1,5.2-11.4c0-9.7-12.5-15.7-26.7-15.7V48.4h49.1c-4.1-5.9-13.9-9.5-24.7-9.5V22h348.5v16.9
				c-20,0.5-35.3,3.8-48.3,9.5h23.8v16.9c-51.8,1.2-72.2,21.8-102,50.7L2994,430.1l394.5,403.6c31.5,32.7,42.3,49.5,84.8,50.7v16.9
				h-64.5c10.4,5.8,22.5,9,40,9.5v16.9h-367.4v-16.9c18.9,0,26.7-2.3,29-9.5h-4.5v-16.9c0.2,0,0.4,0,0.6,0
				c-9-12.8-29.5-32-51.7-54.6l-229.3-233.2l-265.9,263.6c-1.1,2.3-1.7,5-1.7,8.4c0,9.7,12.5,15.7,33,15.7v16.9h-55.4
				c4.3,6,15.3,9.6,30.9,9.6v16.9l-325,0h-21.9c0-4.1-0.8-7.8-2.4-11.1v37.7h-22c0-16.9-12.6-26.6-47.1-26.6H1140
				c0-97.7,38.7-172.7,98.9-232.7c163.6-196.1,549.3-242.3,674-349.4c9.8-14.4,15.2-30,15.2-47.2c0-78.5-117.7-119.5-224.5-119.5
				c-125.9,0-238.8,56.4-295.6,108.5c-9.3,12.7-14.4,24.3-14.4,33.9c0,10.9,6.3,18.1,12.5,24.2l-20.4,14.5l-16.4-15.1
				c-0.1,1-0.2,2-0.2,3c0,10.9,6.3,18.1,12.6,24.2l-20.4,14.5l-185.3-171.5l22-13.3c3.2,3.6,9.5,6.1,18.8,6.1c1.2,0,2.5-0.1,3.9-0.4
				l-20.4-18.9l22-13.3c3.2,3.6,9.5,6.1,18.8,6.1C1285.3,181.4,1403,10,1737.4,10 M1737.4,0c-57.9,0-113.4,5.2-165,15.4
				c-44.2,8.7-86.7,21.4-126.4,37.7c-72.5,29.7-123.4,66.1-157,90.3c-21,15.1-39.2,28.1-47.7,28.1c-7.1,0-10.5-1.8-11.4-2.7
				l-5.5-6.2l-7.1,4.3l-22,13.3L1184,187l7.7,7.2l-20.7,12.6l-11.3,6.9l9.7,9l185.3,171.5l5.9,5.5l6.6-4.7l20.4-14.5l9.7-6.9
				l-5.5-5.3l20.1-14.3l9.7-6.9l-8.6-8.3c-5.9-5.7-9.5-10.5-9.5-17c0-7,4.2-16.7,11.9-27.2c30-27.3,71.9-52.6,118.2-71.2
				c55.1-22.2,113.8-34,170-34c54.3,0,108.3,10.7,148.1,29.4c30.3,14.2,66.5,39.7,66.5,80.2c0,14.3-4.2,27.5-12.8,40.5
				c-22.1,18.7-53.8,36.7-99.5,56.5c-42,18.2-90.7,35.7-142.3,54.3c-78.6,28.2-159.8,57.5-235.9,95.2
				c-87.5,43.3-151.7,90.2-196.2,143.4c-32.2,32.1-57.1,67.4-73.8,104.9c-18.4,41.2-27.7,86.4-27.7,134.5v10h10h1008
				c37.2,0,37.2,11.2,37.2,16.6v10h10h22h10v-10v-16.6h14.3l325,0h10v-10v-16.5h14.5h10v-10v-16.9v-10h-10c-17,0-23-4.6-23-5.8
				c0-1.3,0.1-2.2,0.3-2.9l257.2-255l222.3,226c5.6,5.7,11.1,11.2,16.4,16.4c13.3,13.3,25,25,31.9,33.6V900
				c-2.9,0.5-7.4,0.8-14.5,0.8h-10v10v16.9v10h10h367.4h10v-10v-16.4h14.5h10v-10v-16.9v-9.7l-9.7-0.3
				c-33.7-0.9-43.8-11.6-68.2-37.5c-3.1-3.2-6.2-6.6-9.7-10.2l0,0l0,0L3008,430.2l309.6-307.1l1.4-1.3c14-13.5,26-25.2,40.1-33.3
				c15.1-8.6,31.7-12.7,53.8-13.2l9.7-0.2v-9.7V49.9c4.7-0.5,9.6-0.9,14.8-1l9.7-0.2v-9.7V22v-10h-10h-348.5h-10v10v16.4h-14.4h-10
				v10v16.9v10h10c10.8,0,16.6,4.2,16.7,5.7c-0.1,0.3-0.5,1.7-2.8,4.9l-207.8,205.9L2663.9,79.2l-0.1-0.1l-0.1-0.1
				c-4.9-4.9-8.9-9.1-12.1-12.7v-0.9V50.2c3.3-0.7,8-1.3,14.5-1.3h10v-10V22v-10h-10h-370.4h-10v10v16.6h-14.5h-10v10v16.9v10h10
				c32,0,44.3,13,53.3,22.4c0.8,0.8,1.6,1.6,2.3,2.4l362.4,370.9l-359.8,355.4l0,0l0,0c-4.4,4.5-8.4,8.6-12.2,12.6
				c-21.2,22.2-31.8,33.4-61.4,35.2l-4.5,0.3V724.9v-10h-10h-22h-10v10c0,8.1-2.3,13.5-13.9,16.6h-0.4h-10v1.8
				c-3.8,0.4-8.1,0.6-12.8,0.6h-728.6c29.4-22.2,67.8-42.8,116.3-62.8c55-22.6,118.2-42.4,179.3-61.5
				c72.6-22.7,147.6-46.2,212.9-75.4c35.4-15.8,65-32,90.5-49.4c28.7-19.6,51.5-40.2,69.6-63c23.3-22.4,41.3-47.2,53.3-73.6
				c13.1-28.8,19.7-60.6,19.7-94.7c0-42.3-14.6-81.6-43.3-116.7c-25.6-31.4-62-58.9-108.2-81.9c-42.1-21-90.5-37.3-143.8-48.7
				C1840,5.6,1787.2,0,1737.4,0L1737.4,0z"/>
		</g>
		<g>
			<path class="st0" d="M624.6,944.8c-302.2,0-430.4-58.7-499.4-90.2C101,843.5,85,836.2,71.9,836.2c-10.7,0-19,3.9-28.8,10.1
				l-1.9,1.2l-33.6-9.6l131.3-217.2l6.5,3l17.9-29.7l30.5,14v3.2c0,2-0.3,4-0.7,6.2c-0.4,2.5-0.9,5.3-0.9,8.3
				c0,18.8,36.5,53.6,116.5,85.5c88.1,35.1,199.4,54.4,313.3,54.4l0.6,0c122.8,0,216.9-21.1,265.2-59.3c7.3-11.9,11-24.7,11-38.2
				c0-34.8-23.7-66.7-66.7-90c-53.2-28.7-135.3-43.9-237.6-43.9c-125.4,0-139.4,16-142.7,31.1l-0.9,3.9h-31V361.3h24.6l0-26.6h30.6
				l1.1,3.5c5.1,16.5,26,26.8,114.6,26.8c115.1,0,194.7-15.4,236.5-45.8c4.9-8.9,7.3-18.7,7.3-28.9c0-27.5-19.8-53-55.6-72
				c-42.3-22.3-104.4-34.1-179.5-34.1c-147.8,0-270,44.6-326.2,89.1c-1.6,3.2-2.4,6.1-2.4,8.5c0,7.3,2.8,13.7,5.7,19.6l2.1,4
				l-26,16.4l-5-5c1.1,4,2.8,7.7,4.6,11.2l2,4l-26,16.7l-174.5-176L84.7,159l2.2,1.2c3,1.7,6.4,3.5,10.1,4.7l-18.8-19l31-13.6
				l2.2,1.2c5.7,3.3,12.7,6.6,21.1,6.6c10.5,0,25.9-9.3,47.3-22.1c31.5-19,79.1-47.7,152-71.1C418.1,19.1,521.1,5,637.9,5
				c124.4,0,239.1,25.3,322.8,71.1c84.6,46.3,131.1,109.8,131.1,179c0,47.9-19.1,90.1-55.2,122.1c-16.9,23-40.1,41.9-68.9,56.3
				c56.8,19.7,101.4,45.7,132.7,77.3c37,37.4,55.8,83,55.8,135.5c0,27-5.8,53.2-17.3,77.7c-11.2,24-27.9,46.5-49.6,67
				c-37,46.9-98.1,85.7-176.6,112.2C831.2,930.9,734.2,944.8,624.6,944.8z"/>
			<path class="st1" d="M637.9,10c255.9,0,449,106.3,449,245.1c0,46.9-18.9,87.9-53.9,118.7c-18.3,25.1-44.8,45.7-78.6,60.5
				c117.6,37.9,196.9,105,196.9,212.1c0,53.2-23.1,101.2-65.6,141.4c-73,92.8-238.5,152.1-461.1,152.1
				c-409.8,0-499.3-108.7-552.7-108.7c-12.5,0-22,4.9-31.5,10.9l-25.2-7.2l125.6-207.8l6.5,3l17.9-29.7l23.6,10.9
				c0,3.6-1.6,8.5-1.6,14.5c0,47.1,174.2,144.9,434.9,144.9c0.2,0,0.4,0,0.6,0c130.5,0,222-23.2,268.9-60.9
				c8.1-12.8,12.2-26.8,12.2-41.6c0-66.4-81.7-138.8-309.3-138.8c-117.7,0-142.8,13.3-147.6,35h-22V366.2h0.1h22
				c0.6,2,1.4,3.9,2.4,5.7l0-32.3h21.9c6.3,20.5,31.5,30.3,119.3,30.3c130.6,0,203.4-20,240.3-47.4c5.9-10.5,8.5-21.5,8.5-32.3
				c0-55.6-75.4-111.1-240.1-111.1c-157.2,0-278.1,49.2-330.1,90.8c-2.3,4.2-3.5,8.2-3.5,11.7c0,8.5,3.2,15.7,6.3,21.8l-18.8,11.9
				L242,304c-0.3,1.5-0.5,2.9-0.5,4.3c0,8.5,3.2,15.7,6.3,21.8l-18.8,12.1l-166.5-168l22-9.7c6.3,3.6,14.1,7.3,23.6,7.3
				c0.9,0,1.7-0.1,2.7-0.2l-23.9-24.1l22-9.7c6.3,3.6,14.1,7.3,23.6,7.3C177.9,145.2,273.6,10,637.9,10 M637.9,0
				c-63.2,0-122.8,4.1-177.2,12.2c-46.5,7-90.4,17-130.6,30c-73.4,23.6-121.3,52.5-153,71.6c-19.9,12-35.6,21.4-44.7,21.4
				c-7.3,0-13.5-3-18.7-6l-4.4-2.5l-4.6,2l-22,9.7l-13.3,5.8l10.2,10.3l0.8,0.8l-0.1,0l-22,9.7l-13.3,5.8l10.2,10.3l166.5,168
				l5.7,5.7l6.8-4.3l18.8-12.1l7.6-4.9l-4.1-8c-0.1-0.1-0.1-0.3-0.2-0.4l2.2-1.4l18.8-11.9l7.7-4.8l-4.1-8.1
				c-2.7-5.3-5.2-11.1-5.2-17.3c0-1.4,0.5-3.3,1.4-5.3c27.7-21.7,71.5-42.7,120.6-58c61.9-19.2,131.6-29.4,201.6-29.4
				c74.4,0,135.6,11.6,177.2,33.5c34.2,18,53,42,53,67.6c0,9-2.1,17.6-6.2,25.6c-18.6,13.2-45.3,23.6-79.5,31
				c-40.7,8.8-92.2,13.2-153.2,13.2c-42.3,0-70.1-2.3-87.6-7.1c-16.6-4.6-20.6-10.7-22.2-16.1l-2.2-7h-7.4h-21.9h-9.9l0,9.9l0,16.6
				H425h-0.1h-10v10v198.1v10h10h22h8l1.7-7.8c1.4-6.3,5.3-12.8,24.4-18.1c21.7-6.1,58.8-9,113.5-9c53.6,0,101.5,4.1,142.4,12.2
				c36.8,7.3,68,17.7,92.8,31.1c41.3,22.3,64.1,52.7,64.1,85.6c0,12.3-3.3,24-9.8,34.9c-47.6,37.2-140.3,57.7-261.4,57.7h-0.5
				c-113.4,0-224-19.2-311.5-54.1c-35.4-14.1-65.1-30.1-86-46.2c-6.4-5-27.4-22.2-27.4-34.6c0-2.6,0.4-5.1,0.8-7.5
				c0.4-2.4,0.8-4.7,0.8-7v-6.4l-5.8-2.7l-23.6-10.9l-8.1-3.7l-4.6,7.6l-13.3,22.1l-6.5-3l-4.6,7.6L6.7,829.7L0,840.9l12.5,3.6
				l25.2,7.2l4.3,1.2l3.8-2.4c9.3-5.9,16.6-9.3,26.2-9.3c12,0,28.5,7.5,51.3,18c33.4,15.3,83.9,38.4,163.1,57.2
				c43.3,10.3,91.1,18.3,142.1,23.8c59.7,6.4,125.7,9.7,196.2,9.7c55.1,0,108-3.6,157.1-10.8c48-7,92.6-17.4,132.7-31
				c39.7-13.4,75-29.9,105.1-49c30-19.1,54.7-40.8,73.6-64.6c22-20.9,38.9-43.8,50.4-68.3c11.8-25.2,17.8-52.1,17.8-79.8
				c0-53.9-19.3-100.6-57.2-139c-29.9-30.2-71.5-55.3-124-74.7c24.7-13.9,44.9-31.4,60.3-52.1c36.9-32.9,56.5-76.3,56.5-125.4
				C1096.9,109.7,899.5,0,637.9,0L637.9,0z"/>
		</g>
	</g>
	<g>
		<g>
			<path d="M2232,927.8v-16.9c39.2-2.4,50.2-20.5,80.1-50.7l392.4-387.7L2334,93.3c-9.5-9.7-23.6-27.8-62.7-27.8V48.6h370.4v16.9
				c-20.4,0-33.1,4.9-33.1,16.9c0,4.9,7.9,14.5,23.6,30.3l213.6,219.7l223-221.1c12.6-13.3,22-23,22-30.3c0-9.7-12.6-15.7-26.7-15.7
				V48.4h348.4v16.9c-51.8,1.2-72.2,21.8-102,50.7l-342.2,339.4L3364,860.1c31.5,32.7,42.3,49.5,84.8,50.7v16.9h-367.4v-16.9
				c23.6,0,29.9-3.6,29.9-15.7c0-10.9-26.7-35-56.5-65.2l-229.3-233.2l-277.9,275.5c-7.9,8.5-14.1,12.1-14.1,23
				c0,9.7,12.5,15.7,33,15.7v16.9L2232,927.8L2232,927.8z"/>
		</g>
		<g>
			<g>
				<path d="M425,366.2h22c6.3,20.5,31.5,30.3,119.3,30.3c215.1,0,273.2-54.3,273.2-106.3c0-55.6-75.4-111.1-240.1-111.1
					c-212,0-358,89.4-358,129.2c0,8.5,3.2,15.7,6.3,21.8l-18.8,12.1l-166.5-168l22-9.7c6.3,3.6,14.1,7.3,23.6,7.3
					c45.5,0,141.3-135.3,505.5-135.3c255.9,0,449,106.3,449,245.1c0,82.2-58.1,146.1-158.6,169v2.4c131.9,36.2,223,105,223,219.8
					c0,155.9-197.8,266.9-502.3,266.9c-409.8,0-499.3-108.7-552.7-108.7c-12.5,0-22,4.9-31.5,10.9l-25.2-7.2l125.6-207.8l23.6,10.9
					c0,3.6-1.6,8.5-1.6,14.5c0,47.1,174.2,144.9,434.9,144.9c197.8,0,306.1-53.1,306.1-129.2c0-66.4-81.7-138.8-309.3-138.8
					c-117.7,0-142.8,13.3-147.6,35h-22L425,366.2L425,366.2z"/>
			</g>
		</g>
		<g>
			<g>
				<path d="M1176.1,215.2l22-13.3c3.2,3.6,9.5,6.1,18.8,6.1c43.9,0,161.8-171.4,496.1-171.4c194.6,0,438,85.8,438,253.6
					c0,321.2-599.7,287.5-759.9,490.3H2148c34.5,0,47.1-9.7,47.1-29h22v202.9h-22c0-16.9-12.6-26.6-47.1-26.6H1140
					c0-440.7,788.2-421.5,788.2-629.3c0-78.5-117.7-119.5-224.5-119.5c-180.5,0-334.4,115.9-334.4,169c0,10.9,6.3,18.1,12.5,24.2
					l-20.4,14.5L1176.1,215.2z"/>
			</g>
		</g>
		<g>
			<path class="st0" d="M2256.4,901.3v-16.9c39.2-2.4,50.2-20.5,80.1-50.7L2728.9,446L2358.5,66.7c-9.5-9.7-23.6-27.8-62.7-27.8V22
				h370.4v16.9c-20.4,0-33.1,4.9-33.1,16.9c0,4.9,7.9,14.5,23.6,30.3L2870.3,306l223-221c12.6-13.3,22-23,22-30.3
				c0-9.7-12.6-15.7-26.7-15.7V22h348.5v16.9c-51.8,1.2-72.2,21.8-102,50.7L2992.9,429l395.6,404.7c31.5,32.7,42.3,49.5,84.8,50.7
				v16.9h-367.4v-16.9c23.6,0,29.9-3.6,29.9-15.7c0-10.9-26.7-35-56.5-65.2L2850,570.2l-277.9,275.4c-7.9,8.5-14.1,12.1-14.1,23
				c0,9.7,12.6,15.7,33,15.7v16.9L2256.4,901.3L2256.4,901.3z"/>
		</g>
		<g>
			<path class="st0" d="M449.5,339.6h21.9c6.3,20.5,31.5,30.3,119.3,30.3c215.1,0,273.2-54.3,273.2-106.3
				c0-55.6-75.4-111.1-240.1-111.1c-212,0-358,89.4-358,129.2c0,8.5,3.2,15.7,6.3,21.8l-18.8,11.9L86.8,147.6l22-9.7
				c6.3,3.6,14.1,7.3,23.6,7.3C177.9,145.2,273.6,10,637.9,10c255.9,0,449,106.3,449,245.1c0,82.2-58.1,146.1-158.6,169v2.4
				c131.9,36.2,223,105,223,219.8c0,155.9-197.8,266.9-502.3,266.9c-409.8,0-499.3-108.7-552.7-108.7c-12.5,0-22,4.9-31.5,10.9
				l-25.2-7.3l125.6-207.8l23.6,10.9c0,3.6-1.6,8.5-1.6,14.5c0,47.1,174.2,144.9,434.9,144.9c197.7,0.1,306-53,306-129.1
				c0-66.4-81.7-138.8-309.3-138.8c-117.7,0-142.8,13.3-147.6,35h-22L449.5,339.6L449.5,339.6z"/>
		</g>
		<g>
			<path class="st0" d="M1200.4,188.6l22-13.3c3.2,3.6,9.5,6.1,18.8,6.1c44,0,161.8-171.4,496.1-171.4c194.6,0,438,85.8,438,253.6
				c0,321.2-599.7,287.5-759.9,490.3h756.8c34.5,0,47.1-9.7,47.1-29h22v202.9h-21.9c0-16.9-12.5-26.6-47.1-26.6h-1008
				c0-440.7,788.2-421.5,788.2-629.3c0-78.5-117.7-119.5-224.5-119.5c-180.5,0-334.4,115.9-334.4,169c0,10.9,6.3,18.1,12.5,24.2
				l-20.4,14.5L1200.4,188.6z"/>
		</g>
	</g>
	<g>
		<path class="st1" d="M3733,250.6v-54.2c-4.4,7.5-9.7,14.4-15.9,20.6c-18.7,18.5-43.5,28.7-69.8,28.7h-0.4
			c-26.5-0.1-51.3-10.6-70-29.3c-18.5-18.8-28.7-43.6-28.7-69.8V22.1l105.8,0.5v54.5c17.5-30.5,49.9-49.6,85.9-49.6
			c9.4,0,18.9,1.3,28.3,4c41.7,11.7,70.9,50.2,70.9,93.7v125.4H3733z"/>
		<path class="st1" d="M3740.6,182.8v60.4h90.8v-118c0-40.2-26.6-75.7-65.4-86.6c-49-13.7-94.6,12.6-111.3,53.7l0,0
			c-2,4.2-8.4,2.7-8.4-1.9l0,0V30l-90.7-0.4v116.9c0,24.3,9.5,47.2,26.5,64.5c17.2,17.3,40.1,27,64.7,27.1
			c24.5,0.1,47.6-9.4,64.9-26.5c9-8.9,15.8-19.2,20.4-30.5l0,0c0-0.1,0.1-0.2,0.1-0.3C3734.3,176.7,3740.6,178.1,3740.6,182.8z"/>
		<path class="st1" d="M3548.1,754.4h7.1l-7.1,7.1V639.8l249.3,86.7c24.7,8.6,40.7,31.1,40.7,57.3c0,26.3-16,48.7-40.7,57.3
			l-249.3,86.7V754.4z"/>
		<path class="st1" d="M3795,834.1c21.7-7.5,35.7-27.3,35.7-50.2c0-23-14-42.7-35.7-50.2l-239.4-83.3v46.8v2.6v46.8l43.8,15.3h-43.8
			v108.6v12.3v34.5L3795,834.1z"/>
		<path class="st1" d="M3548.2,664.2V556c0-54.7,44.4-99.1,99.1-99.1h92.5c54.7,0,99.1,44.4,99.1,99.1v108.3H3548.2z"/>
		<path class="st1" d="M3831.4,656.8V556c0-50.5-41.1-91.6-91.6-91.6h-92.5c-50.5,0-91.6,41.1-91.6,91.6v100.8H3831.4L3831.4,656.8z
			"/>
		<path class="st1" d="M3733,465v-31.4h-79.2V465h-105.8V340.9c0-54.7,44.4-99.1,99.1-99.1h92.5c54.7,0,99.1,44.4,99.1,99.1V465
			H3733z"/>
		<path class="st1" d="M3831.4,457.5V340.9c0-50.5-41.1-91.6-91.6-91.6h-92.5c-50.5,0-91.6,41.1-91.6,91.6v116.5h46.6h44.1v-31.4
			h94.1v31.4H3831.4z"/>
		<path class="st2" d="M3792.8,451.9v-111c0-29.2-23.7-53-53-53h-92.5c-29.2,0-53,23.7-53,53v111H3561v-111
			c0-47.5,38.6-86.2,86.2-86.2h92.5c47.5,0,86.2,38.6,86.2,86.2v111L3792.8,451.9L3792.8,451.9z"/>
		<path class="st2" d="M3562.4,450.7V340.9c0-46.8,38.1-84.9,84.9-84.9h92.5c46.8,0,84.9,38.1,84.9,84.9v109.8h-30.6V340.9
			c0-29.9-24.4-54.2-54.2-54.2h-92.5c-29.9,0-54.2,24.4-54.2,54.2v109.8H3562.4z"/>
		<path class="st2" d="M3607.7,452V340.8c0-10.6,4.2-20.4,11.7-27.9c7.4-7.4,17.3-11.5,28-11.5h39.4l-0.1,119h-33.1l0.1-86h-6.5
			c-1.8,0-3.3,0.6-4.6,1.9c-0.9,0.9-1.9,2.3-1.9,4.5V452L3607.7,452L3607.7,452z"/>
		<path class="st2" d="M3609,450.7V340.8c0-10.3,4.1-19.9,11.4-27c7.2-7.2,16.8-11.2,27.1-11.2h38.2l-0.1,116.5H3655l0.1-86h-7.7
			c-2.8,0-4.6,1.4-5.5,2.3c-0.9,0.9-2.3,2.6-2.3,5.4v109.9L3609,450.7L3609,450.7z"/>
		<path class="st2" d="M3746.2,452V340.8c0-2.3-1.3-3.8-1.9-4.4c-0.6-0.5-2.1-1.9-4.5-1.9h-6.5l0.1,86h-33.1l-0.2-119h39.5
			c10.5,0,20.4,4.1,27.9,11.5c7.6,7.6,11.7,17.4,11.7,27.9V452L3746.2,452L3746.2,452z"/>
		<path class="st2" d="M3701.4,302.7h38.3c10.2,0,19.7,3.9,27,11.2c7.2,7.2,11.4,16.7,11.4,27v110h-30.6v-110c0-2.6-1.5-4.5-2.3-5.3
			c-0.9-0.8-2.6-2.3-5.4-2.3h-7.7l0.1,86h-30.6L3701.4,302.7z"/>
		<rect x="3561.1" y="767.3" class="st2" width="33.1" height="109.9"/>
		<rect x="3562.4" y="768.6" class="st2" width="30.6" height="107.3"/>
		<path class="st2" d="M3561.1,651.3v-95.4c0-47.5,38.6-86.2,86.2-86.2h92.5c47.5,0,86.2,38.6,86.2,86.2v95.3h-33.1v-95.3
			c0-29.2-23.7-53-53-53h-92.5c-29.2,0-53,23.7-53,53v62.3h105.9l-0.1-55.2h33.1l0.1,88.3H3561.1z"/>
		<path class="st2" d="M3562.4,649.9v-94c0-46.8,38.1-84.9,84.9-84.9h92.5c46.8,0,84.9,38.1,84.9,84.9v94h-30.6v-94
			c0-29.9-24.4-54.2-54.2-54.2h-92.5c-29.9,0-54.2,24.4-54.2,54.2v63.4h108.4l-0.1-55.2h30.6l0.1,85.9L3562.4,649.9L3562.4,649.9z"
			/>
		<path class="st2" d="M3746.2,651.4V556c0-2-4.4-6.3-6.4-6.3h-92.5c-1.8,0-3.3,0.6-4.6,1.9c-0.9,0.9-1.9,2.3-1.9,4.5v15.5h12.8
			v-8.6l33.1,0.1l-0.1,41.5h-78.9v-48.8c0-10.6,4.2-20.4,11.7-27.9c7.4-7.4,17.3-11.5,28-11.5h92.3c10.5,0,20.4,4.1,27.9,11.5
			c7.6,7.6,11.7,17.4,11.7,27.9v95.5H3746.2z"/>
		<path class="st2" d="M3609,603.3v-47.5c0-10.3,4.1-19.9,11.4-27c7.2-7.2,16.8-11.2,27.1-11.2h92.3c10.2,0,19.7,3.9,27,11.2
			c7.2,7.2,11.4,16.7,11.4,27V650h-30.6v-94.1c0-2.6-4.9-7.5-7.6-7.5h-92.5c-2.8,0-4.6,1.4-5.5,2.3c-0.9,0.9-2.3,2.6-2.3,5.4v16.7
			h15.3v-8.6l30.6,0.1l-0.1,39L3609,603.3L3609,603.3z"/>
		<rect x="3607.7" y="767.3" class="st2" width="33.1" height="54.5"/>
		<rect x="3609" y="768.6" class="st2" width="30.6" height="52"/>
		<polygon class="st2" points="3607.7,808.9 3679.6,783.9 3561.1,742.6 3561.1,707.6 3780.5,783.9 3607.7,843.9 		"/>
		<polygon class="st2" points="3562.4,741.7 3683.4,783.9 3609,809.8 3609,842.1 3776.7,783.9 3562.4,709.4 		"/>
		<path class="st2" d="M3561.1,874.6l221.1-76.9c9.1-3.2,9.8-11.4,9.8-13.7c0-2.4-0.7-10.6-9.8-13.7l-221.1-76.9v-35.1l232,80.8
			c19.4,6.8,32.1,24.5,32.1,45c0,20.5-12.5,38.2-32.1,45l-232,80.6V874.6z"/>
		<path class="st2" d="M3562.4,692.4l220.3,76.6c9.9,3.4,10.7,12.3,10.7,14.9c0,2.6-0.8,11.5-10.7,14.9l-220.3,76.6V908l230.3-80
			c18.9-6.7,31.2-23.8,31.2-43.8c0-20.1-12.2-37.3-31.2-43.8l-230.3-80.2V692.4z"/>
		<path class="st2" d="M3792.7,237.6V126.5c0-29.2-23.8-53-53-53h-0.2c-29.2,0-53,23.7-53,53v20.3c-0.1,21.6-17.8,39.2-39.4,39.2
			h-0.2c-21.6-0.1-39.2-17.8-39.2-39.4l-0.1-111.2l33.1,0.1v111.1c0,3.5,2.9,6.4,6.4,6.4c3.6,0,6.5-2.9,6.5-6.4v-20.1
			c0-47.5,38.6-86.2,86.2-86.2s86.2,38.6,86.2,86.2v111L3792.7,237.6L3792.7,237.6z"/>
		<path class="st2" d="M3794,126.5v109.8h30.6V126.5c0-46.8-38.1-84.9-84.9-84.9c-46.8,0-84.9,38.1-84.9,84.9v20.1
			c0,4.2-3.5,7.6-7.7,7.6c-4.2,0-7.6-3.4-7.6-7.6V36.8l-30.6-0.1l0.1,109.8c0,0.1,0,0.1,0,0.2c0,20.9,17,38.1,38,38.2
			c21,0.1,38.3-16.9,38.4-38v-20.3l0,0c0-29.9,24.4-54.2,54.2-54.2C3769.7,72.2,3794,96.6,3794,126.5z"/>
		<path class="st2" d="M3746.2,237.6V126.5c0-3.4-2.9-6.2-6.5-6.2c-3.5,0-6.4,2.9-6.4,6.4v20.5c-0.1,22.9-9.2,44.5-25.5,60.8
			c-16.1,16-37.7,24.9-60.7,24.9h-0.4c-22.9-0.1-44.4-9.2-60.8-25.5c-16-16.2-24.9-37.8-24.9-60.7V35.3l33.1,0.1v111.3
			c0,14,5.5,27.3,15.3,37.3c10,10.1,23.2,15.6,37.5,15.7h0.4c13.9,0,27.2-5.5,37.2-15.3c10.1-10,15.6-23.2,15.7-37.5v-20.3
			c0-21.7,17.7-39.4,39.5-39.4c21.7,0,39.4,17.7,39.4,39.4v111L3746.2,237.6L3746.2,237.6z"/>
		<path class="st2" d="M3747.4,126.5v109.8h30.6V126.5c0-21-17.1-38.2-38.2-38.2c-21,0-38.3,17.1-38.3,38.2v20.4
			c-0.1,14.5-5.8,28.1-16,38.3c-10.4,10.3-24,15.8-38.4,15.7c-14.5-0.1-28.1-5.8-38.3-16c-10.2-10.3-15.7-23.8-15.7-38.1
			c0-0.1,0-0.2,0-0.3V36.7l-30.6-0.1v109.8c0,0.1,0,0.3,0,0.4c0,22.5,8.7,43.6,24.6,59.8c15.9,16,37.3,25,59.9,25.1
			c22.7,0.1,44-8.6,60.2-24.6c16-15.9,25-37.3,25.1-59.9v-20.5c0-4.2,3.4-7.6,7.6-7.6C3743.9,119.1,3747.4,122.3,3747.4,126.5z"/>
	</g>
</g>
</svg>
