<?xml version="1.0" encoding="UTF-8" standalone="no"?>
<svg
   xmlns:dc="http://purl.org/dc/elements/1.1/"
   xmlns:cc="http://creativecommons.org/ns#"
   xmlns:rdf="http://www.w3.org/1999/02/22-rdf-syntax-ns#"
   xmlns:svg="http://www.w3.org/2000/svg"
   xmlns="http://www.w3.org/2000/svg"
   viewBox="0 0 320 266.66665"
   height="266.66666"
   width="320"
   xml:space="preserve"
   id="svg2"
   version="1.1"><metadata
     id="metadata8"><rdf:RDF><cc:Work
         rdf:about=""><dc:format>image/svg+xml</dc:format><dc:type
           rdf:resource="http://purl.org/dc/dcmitype/StillImage" /></cc:Work></rdf:RDF></metadata><defs
     id="defs6"><clipPath
       id="clipPath18"
       clipPathUnits="userSpaceOnUse"><path
         id="path16"
         d="M 0,256 H 256 V 0 H 0 Z" /></clipPath></defs><g
     transform="matrix(1.3333333,0,0,-1.3333333,-10.666666,303.99999)"
     id="g10"><g
       id="g12"><g
         clip-path="url(#clipPath18)"
         id="g14"><g
           transform="translate(240,48)"
           id="g20"><path
             id="path22"
             style="fill:#ffffff;fill-opacity:1;fill-rule:nonzero;stroke:none"
             d="m 0,0 h -60 v -12 c 0,-2.209 -1.791,-4 -4,-4 h -96 c -2.209,0 -4,1.791 -4,4 V 0 h -60 c -2.209,0 -4,1.791 -4,4 v 96.35 c 0.626,-0.223 1.298,-0.35 2,-0.35 h 56 c 3.309,0 6,2.691 6,6 v 18 h 36 V 84 h 32 v 40 h 36 v -18 c 0,-3.309 2.691,-6 6,-6 H 2 c 0.702,0 1.373,0.127 2,0.35 V 4 C 4,1.791 2.209,0 0,0 m -170,132 c 1.104,0 2,-0.896 2,-2 v -2 -4 -18 c 0,-1.104 -0.896,-2 -2,-2 h -56 c -1.104,0 -2,0.896 -2,2 v 22.002 c 0.001,2.208 1.792,3.998 4,3.998 z m 54,-8 h 8 v -12 h -8 z m 8,-20 V 88 h -8 v 16 h -4 V 88 h -4 v 36 h 4 v -14 c 0,-1.104 0.896,-2 2,-2 h 12 c 1.104,0 2,0.896 2,2 v 14 h 4 V 88 h -4 v 16 z m -56,48 h 16 v 4 h -16 v 18 2 h 2 100 2 v -2 -42 h 0.35 c -0.223,-0.627 -0.35,-1.298 -0.35,-2 v -2 h -36 -8 -16 -8 -36 v 2 c 0,0.702 -0.127,1.373 -0.35,2 H -164 Z M 0,132 c 2.209,0 3.999,-1.79 4,-3.998 V 106 c 0,-1.104 -0.896,-2 -2,-2 h -56 c -1.104,0 -2,0.896 -2,2 v 18 4 2 c 0,1.104 0.896,2 2,2 z m 8,-3.997 V 130 c 0,3.309 -2.691,6 -6,6 h -2 -54 -2 v 38 2 4 h -4 -2 -100 -2 -4 v -4 -2 -38 h -2 -54 -2 c -3.309,0 -6,-2.691 -6,-6 V 128.003 128 4 c 0,-4.411 3.588,-8 8,-8 h 56 v -8 c 0,-4.411 3.589,-8 8,-8 h 96 c 4.411,0 8,3.589 8,8 v 8 H 0 c 4.411,0 8,3.589 8,8 v 124 z" /></g><path
           id="path24"
           style="fill:#ffffff;fill-opacity:1;fill-rule:nonzero;stroke:none"
           d="m 44,168 h 4 v -8 h -4 z m 12,-8 h -4 v 8 h 4 z m 0,-4 h 4 v 4 8 4 H 56 44 40 v -4 -8 -4 h 4 z" /><path
           id="path26"
           style="fill:#ffffff;fill-opacity:1;fill-rule:nonzero;stroke:none"
           d="m 80,44 h 4 v 124 h -4 z" /><path
           id="path28"
           style="fill:#ffffff;fill-opacity:1;fill-rule:nonzero;stroke:none"
           d="m 104,44 h 4 v 124 h -4 z" /><path
           id="path30"
           style="fill:#ffffff;fill-opacity:1;fill-rule:nonzero;stroke:none"
           d="m 116,124 h 24 V 48 h -24 z m -4,-80 h 32 v 84 h -32 z" /><path
           id="path32"
           style="fill:#ffffff;fill-opacity:1;fill-rule:nonzero;stroke:none"
           d="m 148,44 h 4 v 124 h -4 z" /><path
           id="path34"
           style="fill:#ffffff;fill-opacity:1;fill-rule:nonzero;stroke:none"
           d="m 172,44 h 4 v 124 h -4 z" /><path
           id="path36"
           style="fill:#ffffff;fill-opacity:1;fill-rule:nonzero;stroke:none"
           d="m 36,124 h 36 v -4 H 36 Z m -10,-8 c -3.309,0 -6,2.691 -6,6 0,3.309 2.691,6 6,6 3.309,0 6,-2.691 6,-6 0,-3.309 -2.691,-6 -6,-6 m 0,16 c -5.523,0 -10,-4.477 -10,-10 0,-5.522 4.477,-10 10,-10 3.269,0 6.162,1.575 7.986,4 H 76 v 12 H 33.986 c -1.824,2.425 -4.717,4 -7.986,4" /><path
           id="path38"
           style="fill:#ffffff;fill-opacity:1;fill-rule:nonzero;stroke:none"
           d="M 36,96 H 72 V 92 H 36 Z M 26,88 c -3.309,0 -6,2.691 -6,6 0,3.309 2.691,6 6,6 3.309,0 6,-2.691 6,-6 0,-3.309 -2.691,-6 -6,-6 m 0,16 c -5.523,0 -10,-4.478 -10,-10 0,-5.522 4.477,-10 10,-10 3.269,0 6.162,1.575 7.986,4 H 76 v 12 H 33.986 c -1.824,2.425 -4.717,4 -7.986,4" /><path
           id="path40"
           style="fill:#ffffff;fill-opacity:1;fill-rule:nonzero;stroke:none"
           d="M 36,68 H 72 V 64 H 36 Z M 26,60 c -3.309,0 -6,2.691 -6,6 0,3.309 2.691,6 6,6 3.309,0 6,-2.691 6,-6 0,-3.309 -2.691,-6 -6,-6 m 0,16 c -5.523,0 -10,-4.478 -10,-10 0,-5.522 4.477,-10 10,-10 3.269,0 6.162,1.575 7.986,4 H 76 V 72 H 33.986 C 32.162,74.425 29.269,76 26,76" /><g
           transform="translate(230,116)"
           id="g42"><path
             id="path44"
             style="fill:#ffffff;fill-opacity:1;fill-rule:nonzero;stroke:none"
             d="m 0,0 c -3.309,0 -6,2.691 -6,6 0,3.309 2.691,6 6,6 C 3.309,12 6,9.309 6,6 6,2.691 3.309,0 0,0 m -10,4 h -36 v 4 h 36 z M 0,16 c -3.269,0 -6.162,-1.575 -7.986,-4 H -50 V 0 H -7.986 C -6.162,-2.425 -3.269,-4 0,-4 5.522,-4 10,0.478 10,6 10,11.523 5.522,16 0,16" /></g><g
           transform="translate(230,88)"
           id="g46"><path
             id="path48"
             style="fill:#ffffff;fill-opacity:1;fill-rule:nonzero;stroke:none"
             d="m 0,0 c -3.309,0 -6,2.691 -6,6 0,3.309 2.691,6 6,6 C 3.309,12 6,9.309 6,6 6,2.691 3.309,0 0,0 m -10,4 h -36 v 4 h 36 z M 0,16 c -3.269,0 -6.162,-1.575 -7.986,-4 H -50 V 0 H -7.986 C -6.162,-2.425 -3.269,-4 0,-4 5.522,-4 10,0.478 10,6 10,11.522 5.522,16 0,16" /></g><g
           transform="translate(230,60)"
           id="g50"><path
             id="path52"
             style="fill:#ffffff;fill-opacity:1;fill-rule:nonzero;stroke:none"
             d="m 0,0 c -3.309,0 -6,2.691 -6,6 0,3.309 2.691,6 6,6 C 3.309,12 6,9.309 6,6 6,2.691 3.309,0 0,0 m -10,4 h -36 v 4 h 36 z M 0,16 c -3.269,0 -6.162,-1.575 -7.986,-4 H -50 V 0 H -7.986 C -6.162,-2.425 -3.269,-4 0,-4 5.522,-4 10,0.478 10,6 10,11.522 5.522,16 0,16" /></g><path
           id="path54"
           style="fill:#ffffff;fill-opacity:1;fill-rule:nonzero;stroke:none"
           d="M 72,144 H 44 v -4 h 28 z" /><path
           id="path56"
           style="fill:#ffffff;fill-opacity:1;fill-rule:nonzero;stroke:none"
           d="m 212,144 h -28 v -4 h 28 z" /><path
           id="path58"
           style="fill:#ffffff;fill-opacity:1;fill-rule:nonzero;stroke:none"
           d="M 72,136 H 44 v -4 h 28 z" /><path
           id="path60"
           style="fill:#ffffff;fill-opacity:1;fill-rule:nonzero;stroke:none"
           d="m 212,136 h -28 v -4 h 28 z" /><g
           transform="translate(162,56)"
           id="g62"><path
             id="path64"
             style="fill:#ffffff;fill-opacity:1;fill-rule:nonzero;stroke:none"
             d="M 0,0 C -2.206,0 -4,1.794 -4,4 -4,6.206 -2.206,8 0,8 2.206,8 4,6.206 4,4 4,1.794 2.206,0 0,0 m 0,92 c 2.206,0 4,-1.794 4,-4 0,-2.206 -1.794,-4 -4,-4 -2.206,0 -4,1.794 -4,4 0,2.206 1.794,4 4,4 M 0,12 c -0.692,0 -1.359,-0.097 -2,-0.262 V 80.262 C -1.359,80.097 -0.692,80 0,80 c 0.692,0 1.359,0.097 2,0.262 V 11.738 C 1.359,11.903 0.692,12 0,12 m 8,76 c 0,4.418 -3.582,8 -8,8 -4.418,0 -8,-3.582 -8,-8 0,-2.025 0.759,-3.87 2,-5.279 V 9.279 C -7.241,7.87 -8,6.025 -8,4 -8,-0.418 -4.418,-4 0,-4 4.418,-4 8,-0.418 8,4 8,6.025 7.241,7.87 6,9.279 V 82.721 C 7.241,84.13 8,85.975 8,88" /></g><g
           transform="translate(94,56)"
           id="g66"><path
             id="path68"
             style="fill:#ffffff;fill-opacity:1;fill-rule:nonzero;stroke:none"
             d="M 0,0 C -2.206,0 -4,1.794 -4,4 -4,6.206 -2.206,8 0,8 2.206,8 4,6.206 4,4 4,1.794 2.206,0 0,0 m 0,92 c 2.206,0 4,-1.794 4,-4 0,-2.206 -1.794,-4 -4,-4 -2.206,0 -4,1.794 -4,4 0,2.206 1.794,4 4,4 M 0,12 c -0.692,0 -1.36,-0.097 -2,-0.262 V 80.262 C -1.36,80.097 -0.692,80 0,80 c 0.692,0 1.36,0.097 2,0.262 V 11.738 C 1.36,11.903 0.692,12 0,12 m 8,76 c 0,4.418 -3.582,8 -8,8 -4.418,0 -8,-3.582 -8,-8 0,-2.025 0.759,-3.87 2,-5.279 V 9.279 C -7.241,7.87 -8,6.025 -8,4 -8,-0.418 -4.418,-4 0,-4 4.418,-4 8,-0.418 8,4 8,6.025 7.241,7.87 6,9.279 V 82.721 C 7.241,84.13 8,85.975 8,88" /></g></g></g></g></svg>