<?xml version="1.0" encoding="utf-8"?>
<!-- Generator: Adobe Illustrator 25.2.1, SVG Export Plug-In . SVG Version: 6.00 Build 0)  -->
<svg version="1.1" id="Layer_1" xmlns="http://www.w3.org/2000/svg" xmlns:xlink="http://www.w3.org/1999/xlink" x="0px" y="0px"
	 viewBox="0 0 3839 1619.5" style="enable-background:new 0 0 3839 1619.5;" xml:space="preserve">
<style type="text/css">
	.st0{clip-path:url(#SVGID_2_);}
	.st1{fill:url(#SVGID_3_);}
	.st2{fill:#FE0000;}
	.st3{fill:#F36600;}
	.st4{fill:url(#SVGID_4_);}
	.st5{clip-path:url(#SVGID_6_);}
	.st6{fill:url(#SVGID_7_);}
	.st7{fill:url(#SVGID_8_);}
	.st8{fill:url(#SVGID_9_);}
	.st9{fill:url(#SVGID_10_);}
	.st10{clip-path:url(#SVGID_12_);}
	.st11{fill:url(#SVGID_13_);}
	.st12{fill:#E4E4E4;}
	.st13{clip-path:url(#SVGID_15_);}
	.st14{fill:url(#SVGID_16_);}
	.st15{clip-path:url(#SVGID_18_);}
	.st16{fill:url(#SVGID_19_);}
	.st17{fill:url(#SVGID_20_);}
	.st18{fill:#FE0000;stroke:url(#SVGID_21_);stroke-width:3.6108;stroke-miterlimit:10;}
	.st19{fill:#FE0000;stroke:url(#SVGID_22_);stroke-width:3.6108;stroke-miterlimit:10;}
	.st20{fill:#FE0000;stroke:url(#SVGID_23_);stroke-width:3.6108;stroke-miterlimit:10;}
	.st21{fill:url(#SVGID_24_);}
	.st22{fill:url(#SVGID_25_);}
	.st23{fill:#FE0000;stroke:url(#SVGID_26_);stroke-width:3.6108;stroke-miterlimit:10;}
	.st24{fill:#FE0000;stroke:url(#SVGID_27_);stroke-width:3.6108;stroke-miterlimit:10;}
	.st25{fill:#E5E5E5;}
	.st26{fill:#FE0000;stroke:url(#SVGID_28_);stroke-width:3.6108;stroke-miterlimit:10;}
	.st27{fill:url(#SVGID_29_);}
	.st28{fill:url(#SVGID_30_);}
	.st29{fill:#FE0000;stroke:url(#SVGID_31_);stroke-width:3.6108;stroke-miterlimit:10;}
	.st30{fill:#FFE600;}
	.st31{clip-path:url(#SVGID_33_);}
	.st32{fill:url(#SVGID_34_);}
	.st33{fill:url(#SVGID_35_);}
	.st34{clip-path:url(#SVGID_37_);}
	.st35{fill:url(#SVGID_38_);}
	.st36{fill:url(#SVGID_39_);}
	.st37{fill:url(#SVGID_40_);}
	.st38{fill:url(#SVGID_41_);}
	.st39{clip-path:url(#SVGID_43_);}
	.st40{fill:url(#SVGID_44_);}
	.st41{clip-path:url(#SVGID_46_);}
	.st42{fill:url(#SVGID_47_);}
	.st43{fill:url(#SVGID_48_);}
	.st44{fill:#FE0000;stroke:url(#SVGID_49_);stroke-width:3.6108;stroke-miterlimit:10;}
	.st45{fill:#FE0000;stroke:url(#SVGID_50_);stroke-width:3.6108;stroke-miterlimit:10;}
	.st46{fill:#FE0000;stroke:url(#SVGID_51_);stroke-width:3.6108;stroke-miterlimit:10;}
	.st47{fill:url(#SVGID_52_);}
	.st48{fill:#FFF200;}
	.st49{fill:url(#SVGID_53_);}
	.st50{fill:#FE0000;stroke:url(#SVGID_54_);stroke-width:3.6108;stroke-miterlimit:10;}
	.st51{fill:#FE0000;stroke:url(#SVGID_55_);stroke-width:3.6108;stroke-miterlimit:10;}
	.st52{fill:#FE0000;stroke:url(#SVGID_56_);stroke-width:3.6108;stroke-miterlimit:10;}
	.st53{fill:url(#SVGID_57_);}
	.st54{fill:#FEEE00;}
	.st55{fill:url(#SVGID_58_);}
	.st56{fill:#FE0000;stroke:url(#SVGID_59_);stroke-width:3.6108;stroke-miterlimit:10;}
	.st57{clip-path:url(#SVGID_61_);}
	.st58{fill:url(#SVGID_62_);}
	.st59{fill:url(#SVGID_63_);}
	.st60{clip-path:url(#SVGID_65_);}
	.st61{fill:url(#SVGID_66_);}
	.st62{fill:url(#SVGID_67_);}
	.st63{fill:url(#SVGID_68_);}
	.st64{fill:url(#SVGID_69_);}
	.st65{clip-path:url(#SVGID_71_);}
	.st66{fill:url(#SVGID_72_);}
	.st67{fill:url(#SVGID_73_);}
	.st68{fill:url(#SVGID_74_);}
	.st69{fill:url(#SVGID_75_);}
	.st70{fill:#FE0000;stroke:url(#SVGID_76_);stroke-width:3.6108;stroke-miterlimit:10;}
	.st71{fill:#FE0000;stroke:url(#SVGID_77_);stroke-width:3.6108;stroke-miterlimit:10;}
	.st72{fill:#FE0000;stroke:url(#SVGID_78_);stroke-width:3.6108;stroke-miterlimit:10;}
	.st73{fill:url(#SVGID_79_);}
	.st74{fill:url(#SVGID_80_);}
	.st75{fill:#FE0000;stroke:url(#SVGID_81_);stroke-width:3.6108;stroke-miterlimit:10;}
	.st76{fill:#FE0000;stroke:url(#SVGID_82_);stroke-width:3.6108;stroke-miterlimit:10;}
	.st77{fill:#FE0000;stroke:url(#SVGID_83_);stroke-width:3.6108;stroke-miterlimit:10;}
	.st78{fill:url(#SVGID_84_);}
	.st79{fill:url(#SVGID_85_);}
	.st80{fill:#FE0000;stroke:url(#SVGID_86_);stroke-width:3.6108;stroke-miterlimit:10;}
</style>
<g>
	<g>
		<g>
			<g>
				<linearGradient id="SVGID_2_" gradientUnits="userSpaceOnUse" x1="1775.0033" y1="1665.1807" x2="1775.0033" y2="203.6545">
					<stop  offset="0" style="stop-color:#FEEE00"/>
					<stop  offset="0.677" style="stop-color:#F36600"/>
					<stop  offset="0.75" style="stop-color:#F36600"/>
				</linearGradient>
				<path style="fill:url(#SVGID_2_);" d="M360,203.7H29.7c-26,0-39.3,31-21.5,49.9l1289.6,1365.9h149.8L463.8,256.8
					C439.8,223.4,401.1,203.7,360,203.7z M525,611.4c-18.9,0-36.9-8.3-49.2-22.6l-149.3-174c-16.6-19.4-2.9-49.4,22.7-49.4H360
					c19.7,0,38.4,9,50.7,24.4l137.7,173C564,582.5,550.1,611.4,525,611.4z M841.7,203.7H485.4l111.8,161.8h229.5
					c10.8,0,20.8,5.9,26.1,15.3l104.1,186.2c11.1,19.9-3.3,44.5-26.1,44.5h-26.6L786.9,418.9H634.1l829.3,1200.6h128.7L935.3,262.3
					C917.9,226.5,881.5,203.7,841.7,203.7z M1841.4,418.9h-154.9c-15.1,0-27.9-11.3-29.7-26.4l-3.2-27.1H1922l4.6-161.8l-364.4,0
					c-55.1,0-96.2,50.7-84.9,104.6l41.3,196.1c6.6,31.3,34.2,53.7,66.1,53.7h191.7l1.2,21.8c1,17.2-12.7,31.6-29.8,31.6h-206.7
					l212.3,1008.1h133.1L1918.3,498C1919.5,454.7,1884.7,418.9,1841.4,418.9z M2306.5,418.9h-124.6c-18.4,0-32.4-16.4-29.5-34.6
					l3-18.8h233l47-161.8h-357.6c-45.7,0-83.6,35.4-86.6,81l-14.3,212.7c-2.2,32.8,23.8,60.6,56.7,60.6h133l-5.4,29
					c-2.6,14.2-15,24.5-29.4,24.5H1969l-67.9,1008.1h123.1l330.1-1136.9C2363.6,450.7,2339.7,418.9,2306.5,418.9z M2613.4,611.4
					c-21.8,0-36.2-22.5-27.2-42.3l5.1-11.1h187.9l80.2-139.1h-158.1c-21.8,0-36.2-22.5-27.2-42.3l5.1-11.1h214.2l90.2-161.8
					l-484.6,0L2041,1619.5h126l581.3-1008.1H2613.4z M3346.1,203.7l-165.9,214.8c-5.7,7.3-14.4,11.6-23.7,11.6
					c-24.5,0-38.6-27.8-24.1-47.6l130.9-178.9H3040l-184.4,302.3c-16.9,27.7,3,63.3,35.5,63.3h49.4l-726,1050.3h60.4l868.5-1050.3
					h65.7c11.9,0,23.3-5.1,31.2-14.1L3550,203.7H3346.1z M1389.1,558h40.2c11.2,0,21.4-3.9,29.3-10.4c0.7-0.5,1.3-1.1,1.9-1.7
					c2.5-2.3,4.8-4.8,6.7-7.6c2.4-3.5,4.4-7.3,5.9-11.3c0.6-1.6,1.1-3.3,1.5-4.9c1.6-6.7,1.7-14-0.1-21.2l-70.2-297.1l-119,0h-59.5
					l41,125.9l16.3,50.2c1,3,1.5,6.1,1.5,9c0.1,9.2-4.2,17.8-11.1,23.4c-0.4,0.3-0.8,0.6-1.2,0.9c-0.5,0.4-1.1,0.8-1.7,1.2
					c-0.5,0.3-0.9,0.6-1.4,0.8c-4.3,2.4-9.2,3.8-14.6,3.8h-4.7c-7.4,0-14.3-2.7-19.7-7.4c-3.7-3.2-6.6-7.3-8.4-12.1l-72.4-195.7
					l-94.3,0l-94.3,0l24.9,54.3l113.2,246.7c7.3,15.8,18.7,28.9,32.7,38.1c0.7,0.5,1.4,0.9,2.1,1.4c1.1,0.7,2.3,1.4,3.5,2.1
					c1.3,0.7,2.6,1.4,3.9,2.1c2.9,1.4,5.8,2.7,8.9,3.9c1,0.4,2,0.7,3.1,1.1c9.2,3.1,19,4.7,29.1,4.7h17.7h17.7l32.8,83l386.9,978.5
					h63.6L1406.2,616.2L1389.1,558z"/>
			</g>
		</g>
		<path class="st3" d="M3769.5,109.8h-105.5l-46,52.2h151.6l0,0c23.1,0,23.1,34.6,0,34.6l0,0h-136.2l-46,52.2l-39.1,44.3l0,0
			l-54.9,62.2h219.2l54.9-62.2h-148.2l39.1-44.3h111.2C3862.2,248.9,3862.2,109.8,3769.5,109.8z"/>
		<g>
			<path class="st3" d="M1287.2,734.4L1217.5,558l-35.3,0c-35.7,0-68.2-20.8-83.1-53.3L961,203.7l188.6,0l72.4,195.7
				c4.3,11.7,15.5,19.5,28,19.5l4.7,0c20.3,0,34.7-19.8,28.4-39.2l-57.3-176.1l178.5,0l70.2,297.1c6.9,29.2-15.2,57.2-45.2,57.2
				h-40.2l51.8,176.4"/>
		</g>
		<path class="st3" d="M3180.2,418.5c-5.7,7.3-14.4,11.6-23.7,11.6c-24.5,0-38.6-27.8-24.1-47.6l130.9-178.9H3040l-184.4,302.3
			c-16.9,27.7,3,63.3,35.5,63.3h49.4l-114.2,165.2h180.5l136.6-165.2h65.7c11.9,0,23.3-5.1,31.2-14.1L3550,203.7h-203.9
			L3180.2,418.5z"/>
		<path class="st3" d="M2327.2,734.4h350.1l70.9-123h-134.9c-21.8,0-36.2-22.5-27.2-42.3l5.1-11.1h187.9l80.2-139.1h-158.1
			c-21.8,0-36.2-22.5-27.2-42.3l5.1-11.1h214.2l90.2-161.8l-484.6,0L2327.2,734.4z"/>
		<path class="st3" d="M1991,284.7l-14.3,212.7c-2.2,32.8,23.8,60.6,56.7,60.6h133l-5.4,29c-2.6,14.2-15,24.5-29.4,24.5H1969
			l-8.3,123H2250c18.5,0,34.8-12.2,39.9-30l64.4-221.8c9.3-31.9-14.7-63.7-47.8-63.7h-124.6c-18.4,0-32.4-16.4-29.5-34.6l3-18.8h233
			l47-161.8h-357.6C2032,203.7,1994.1,239.1,1991,284.7z"/>
		<path class="st3" d="M1477.4,308.2l41.3,196.1c6.6,31.3,34.2,53.7,66.1,53.7h191.7l1.2,21.8c1,17.2-12.7,31.6-29.8,31.6h-206.7
			l25.9,123h304.1c22.5,0,40.9-17.9,41.6-40.4l5.5-196c1.2-43.3-33.6-79.1-76.9-79.1h-154.9c-15.2,0-27.9-11.3-29.7-26.4l-3.2-27.1
			H1922l4.6-161.8l-364.4,0C1507.2,203.7,1466,254.3,1477.4,308.2z"/>
		<path class="st3" d="M935.3,262.3c-17.4-35.9-53.7-58.7-93.6-58.7H485.4l111.8,161.8h229.5c10.8,0,20.8,5.9,26.1,15.3l104.1,186.2
			c11.1,19.9-3.3,44.5-26.1,44.5h-26.6L786.9,418.9H634.1L852,734.4h245.4c30.7,0,50.8-32.1,37.4-59.7L935.3,262.3z"/>
		<path class="st3" d="M463.8,256.8c-24.1-33.3-62.7-53.1-103.8-53.1H29.6c-26,0-39.3,31-21.5,49.9l423.2,448.3
			c19.6,20.8,46.9,32.5,75.4,32.5h98.9c84.6,0,133.7-95.9,84.1-164.5L463.8,256.8z M525,611.4c-18.9,0-36.9-8.3-49.2-22.6
			l-149.3-174c-16.6-19.4-2.9-49.4,22.7-49.4H360c19.7,0,38.4,9,50.7,24.4l137.7,173C564,582.5,550.1,611.4,525,611.4z"/>
	</g>
	<g>
		<polygon points="1472.2,109.3 1429.6,3.2 1429.4,2.6 1397.4,2.6 1397.4,144 1419.9,144 1419.3,30.1 1464.1,144 1479.8,144 
			1524.6,30.1 1524,143.2 1524,144 1546.3,144 1546.3,2.6 1514.5,2.6 		"/>
		<path d="M1736.3,91.8h60c-2.2,9-7.8,17.3-15.9,23.3c-8.6,6.7-19.6,10.2-31.7,10.2c-32.7,0-50.3-27-50.3-52.3
			c0-33.5,25.9-51.6,50.3-51.6c10.7,0,20.4,3.1,28.9,9.3c4.8,3.5,9,7.8,12.6,13l0.3,0.4h26.9l-0.5-1.2
			C1806.4,17.6,1778.6,0,1749.1,0c-41.8,0-74.5,32-74.5,73c0,41.3,32.6,73.7,74.3,73.7c30,0,57.1-16.6,68.9-42.2
			c5.7-12.5,6.3-26.3,6.3-31.7v-0.9h-87.8V91.8z"/>
		<polygon points="1926,106.9 1855.1,3 1854.9,2.6 1832.6,2.6 1832.6,144 1855.8,144 1855.5,39.6 1926.9,143.7 1927.2,144 
			1948.9,144 1948.9,2.6 1925.6,2.6 		"/>
		<polygon points="2165.9,2.6 2126,113.4 2086.4,3.2 2086.2,2.6 2061.3,2.6 2114.2,144 2137.5,144 2190.8,2.6 		"/>
		<path d="M2253.7,0c-42.1,0-73.9,31.9-73.9,74.1v0.2c0,40.6,32.4,72.4,73.7,72.4c41.7,0,74.3-32.2,74.3-73.3S2295.3,0,2253.7,0z
			 M2303.8,73.5c0,32.4-25.3,51.8-49.7,51.8c-28.8,0-50.5-22.3-50.5-52v-0.2c0-29,22.1-51.8,50.3-51.8
			C2285.1,21.4,2303.8,47.9,2303.8,73.5z"/>
		<polygon points="2392.9,70.7 2437.4,2.6 2410.3,2.6 2378.8,52.3 2347.2,2.6 2319.8,2.6 2365,70.3 2316.1,144 2342.9,144 
			2378.1,88 2414.2,144 2441.6,144 		"/>
		<path d="M1629.3,2.6h-21.4L1549.8,144h26.1l12.8-33l3.7-10.9h51l3.7,10.9l13.2,33h26L1629.3,2.6z M1617.7,31.8l18.5,48.6h-36.8
			L1617.7,31.8z"/>
		<path d="M2031.8,2.6h-21.4L1952.4,144h26.1l12.8-33l3.7-10.9h51l3.7,10.9l13.2,33h26L2031.8,2.6z M2020.3,31.8l18.5,48.6H2002
			L2020.3,31.8z"/>
	</g>
</g>
</svg>
