<?xml version="1.0" encoding="UTF-8" standalone="no"?>
<svg
   xmlns:dc="http://purl.org/dc/elements/1.1/"
   xmlns:cc="http://creativecommons.org/ns#"
   xmlns:rdf="http://www.w3.org/1999/02/22-rdf-syntax-ns#"
   xmlns:svg="http://www.w3.org/2000/svg"
   xmlns="http://www.w3.org/2000/svg"
   viewBox="0 0 309.33331 309.33331"
   height="309.33331"
   width="309.33331"
   xml:space="preserve"
   id="svg2"
   version="1.1"><metadata
     id="metadata8"><rdf:RDF><cc:Work
         rdf:about=""><dc:format>image/svg+xml</dc:format><dc:type
           rdf:resource="http://purl.org/dc/dcmitype/StillImage" /></cc:Work></rdf:RDF></metadata><defs
     id="defs6"><clipPath
       id="clipPath22"
       clipPathUnits="userSpaceOnUse"><path
         id="path20"
         d="M 0,256 H 256 V 0 H 0 Z" /></clipPath></defs><g
     transform="matrix(1.3333333,0,0,-1.3333333,-15.999733,325.33333)"
     id="g10"><g
       transform="translate(240.1338,244)"
       id="g12"><path
         id="path14"
         style="fill:#ffffff;fill-opacity:1;fill-rule:nonzero;stroke:none"
         d="m 0,0 h -224.267 -3.867 V -3.867 -228.134 -232 h 3.867 H 0 3.866 v 3.866 V -3.867 0 Z M 0,-228.134 H -224.267 V -3.867 H 0 Z" /></g><g
       id="g16"><g
         clip-path="url(#clipPath22)"
         id="g18"><g
           transform="translate(141.6104,185.2148)"
           id="g24"><path
             id="path26"
             style="fill:#ffffff;fill-opacity:1;fill-rule:nonzero;stroke:none"
             d="m 0,0 c -0.858,-2.08 -0.022,-4.625 1.957,-5.691 10.37,-5.429 16.572,-15.97 16.572,-28.196 0,-14.895 -10.153,-27.67 -24.228,-31.227 v 9.55 h 1.833 c 2.003,0 3.627,1.617 3.627,3.62 0,1.059 -0.31,2.149 -0.866,3.077 -0.913,1.524 -2.351,2.398 -3.96,2.398 h -17.137 c -2.877,0 -4.81,-2.831 -4.81,-5.468 0,-2.003 1.624,-3.627 3.627,-3.627 h 1.886 v -9.566 c -14.089,3.542 -24.282,16.317 -24.282,31.243 0,12.211 6.195,22.751 16.557,28.188 1.037,0.526 1.809,1.415 2.173,2.513 0.364,1.09 0.279,2.274 -0.247,3.318 -0.758,1.492 -2.243,2.428 -3.883,2.428 -0.641,0 -1.291,-0.155 -1.886,-0.433 -15.707,-7.355 -25.451,-22.891 -25.451,-40.562 0,-11.213 4.145,-21.955 11.654,-30.245 6.72,-7.424 15.637,-12.327 25.373,-14.066 0,0 0.024,-8.438 0.047,-8.615 l 3.557,-21.746 c 0.209,-2.205 2.073,-3.929 4.331,-3.929 2.258,0 4.121,1.732 4.33,3.944 l 3.503,21.754 c 0.032,0.193 0.039,8.63 0.039,8.63 9.729,1.74 18.63,6.666 25.342,14.075 7.51,8.282 11.639,19.016 11.639,30.23 0,17.732 -9.767,33.292 -25.489,40.607 C 5.274,2.429 4.562,2.606 3.976,2.606 2.297,2.552 0.75,1.516 0,0 m 3.968,-1.075 c 0.1,0 0.201,-0.023 0.302,-0.054 14.05,-6.542 23.392,-20.632 23.392,-37.321 0,-21.398 -16.201,-38.991 -36.973,-41.156 v -11.199 l -3.534,-21.916 c 0,-0.402 -0.348,-0.727 -0.727,-0.727 -0.386,0 -0.727,0.317 -0.727,0.727 l -3.588,21.916 v 11.191 c -20.802,2.127 -37.035,19.727 -37.035,41.156 0,16.666 9.334,30.717 23.394,37.283 0.471,0.247 0.842,-0.077 0.974,-0.348 0.193,-0.372 0.031,-0.789 -0.348,-0.967 -11.407,-5.978 -18.506,-17.601 -18.506,-31.413 0,-18.335 13.758,-33.477 31.529,-35.58 v 14.453 c 0,1.694 -1.384,3.078 -3.078,3.078 h -2.436 c 0,0.788 0.534,1.84 1.191,1.84 h 17.144 c 0.673,0 1.2,-1.052 1.2,-1.84 h -2.406 c -1.655,0 -3.047,-1.377 -3.047,-3.078 v -14.446 c 17.749,2.126 31.475,17.238 31.475,35.573 0,13.835 -7.107,25.435 -18.514,31.405 -0.347,0.194 -0.495,0.596 -0.347,0.967 0.131,0.302 0.386,0.456 0.665,0.456" /></g></g></g></g></svg>