<?xml version="1.0" encoding="UTF-8" standalone="no"?>
<svg
   xmlns:dc="http://purl.org/dc/elements/1.1/"
   xmlns:cc="http://creativecommons.org/ns#"
   xmlns:rdf="http://www.w3.org/1999/02/22-rdf-syntax-ns#"
   xmlns:svg="http://www.w3.org/2000/svg"
   xmlns="http://www.w3.org/2000/svg"
   viewBox="0 0 298.66665 320"
   height="320"
   width="298.66666"
   xml:space="preserve"
   id="svg2"
   version="1.1"><metadata
     id="metadata8"><rdf:RDF><cc:Work
         rdf:about=""><dc:format>image/svg+xml</dc:format><dc:type
           rdf:resource="http://purl.org/dc/dcmitype/StillImage" /></cc:Work></rdf:RDF></metadata><defs
     id="defs6"><clipPath
       id="clipPath18"
       clipPathUnits="userSpaceOnUse"><path
         id="path16"
         d="M 0,256 H 256 V 0 H 0 Z" /></clipPath></defs><g
     transform="matrix(1.3333333,0,0,-1.3333333,-21.333333,330.66666)"
     id="g10"><g
       id="g12"><g
         clip-path="url(#clipPath18)"
         id="g14"><g
           transform="translate(211.5,12)"
           id="g20"><path
             id="path22"
             style="fill:#ffffff;fill-opacity:1;fill-rule:nonzero;stroke:none"
             d="m 0,0 v 8 4 h -4 -15 -4 V 8 0 h -120.5 v 8 4 h -4 -16 -4 V 8 0 h -24 v 32.838 c 1.159,-0.539 2.482,-0.838 3.865,-0.838 4.442,0 7.897,2.906 7.897,6.615 V 74 h 4.181 0.057 4 v 4 42 4 h -4 -0.057 -3.856 c 4.437,0 7.913,2.981 7.913,6.787 V 188 h 25.523 c 3.571,0 6.477,2.906 6.477,6.477 0,-3.571 2.906,-6.477 6.477,-6.477 h 19.046 c 3.571,0 6.477,2.906 6.477,6.477 0,-3.571 2.906,-6.477 6.477,-6.477 h 35.046 c 3.572,0 6.477,2.906 6.477,6.477 0,-3.571 2.905,-6.477 6.477,-6.477 h 19.046 c 3.572,0 6.477,2.906 6.477,6.477 0,-3.571 2.905,-6.477 6.477,-6.477 H 4.5 V 130.787 C 4.5,126.981 7.976,124 12.413,124 H 8.558 8.5 4.5 v -4 -42 -4 h 4 0.058 4.18 V 38.615 c 0,-3.709 3.455,-6.615 7.866,-6.615 1.402,0 2.733,0.299 3.896,0.839 V 0 Z M -19,8 H -4 V 0 h -15 z m -144.5,0 h 16 V 0 h -16 z m 20,189.523 v -3.046 c 0,-1.368 -1.109,-2.477 -2.477,-2.477 h -25.523 -4 v 5.523 c 0,1.368 1.109,2.477 2.477,2.477 h 27.046 c 1.368,0 2.477,-1.109 2.477,-2.477 M -183.325,128 h -4.262 c -2.161,0 -3.913,1.248 -3.913,2.787 v 3.031 c 0,1.539 1.752,2.786 3.913,2.786 h 4.262 V 188 h 3.825 4 v -57.213 c 0,-1.539 -1.752,-2.787 -3.913,-2.787 z m -7.72,-43.897 c 0.014,1.437 1.741,2.597 3.865,2.597 h 3.892 v 24.6 h -3.865 c -2.135,0 -3.866,1.171 -3.866,2.615 v 3.47 c 0,1.444 1.731,2.615 3.866,2.615 h 3.865 7.731 0.057 V 78 h -0.057 -7.731 -0.45 V 38.615 c 0,-1.444 -1.731,-2.615 -3.866,-2.615 h -0.031 c -2.145,0 -3.88,1.182 -3.865,2.633 z m -0.455,24.274 c 1.204,-0.661 2.644,-1.055 4.212,-1.076 V 90.699 c -1.565,-0.016 -3.005,-0.407 -4.212,-1.066 z m 0,16.488 c 1.148,-0.55 2.479,-0.865 3.913,-0.865 h 0.434 c -1.62,0 -3.109,-0.395 -4.347,-1.074 z m 80,72.658 v -3.046 c 0,-1.368 -1.109,-2.477 -2.477,-2.477 h -19.046 c -1.368,0 -2.477,1.109 -2.477,2.477 v 3.046 c 0,1.368 1.109,2.477 2.477,2.477 h 19.046 c 1.368,0 2.477,-1.109 2.477,-2.477 m 48,0 v -3.046 c 0,-1.368 -1.109,-2.477 -2.477,-2.477 h -35.046 c -1.368,0 -2.477,1.109 -2.477,2.477 v 3.046 c 0,1.368 1.109,2.477 2.477,2.477 h 35.046 c 1.368,0 2.477,-1.109 2.477,-2.477 m 32,0 v -3.046 c 0,-1.368 -1.109,-2.477 -2.477,-2.477 h -19.046 c -1.368,0 -2.477,1.109 -2.477,2.477 v 3.046 c 0,1.368 1.109,2.477 2.477,2.477 h 19.046 c 1.368,0 2.477,-1.109 2.477,-2.477 M 8.5,192 h -4 -25.523 c -1.368,0 -2.477,1.109 -2.477,2.477 v 3.046 c 0,1.368 1.109,2.477 2.477,2.477 H 6.023 c 1.368,0 2.477,-1.109 2.477,-2.477 z m 16,-61.213 C 24.5,129.248 22.748,128 20.587,128 H 16.325 12.413 C 10.252,128 8.5,129.248 8.5,130.787 V 188 h 4 3.825 v -51.396 h 4.262 c 2.161,0 3.913,-1.247 3.913,-2.786 z m 0,-7.861 C 23.262,123.605 21.773,124 20.153,124 h 0.434 c 1.434,0 2.765,0.315 3.913,0.865 z M 20.288,90.699 v 16.602 c 1.568,0.021 3.008,0.415 4.212,1.076 V 89.633 c -1.207,0.659 -2.647,1.05 -4.212,1.066 M 16.288,78 H 8.558 8.5 v 42 h 0.058 7.73 3.865 c 2.135,0 3.866,-1.171 3.866,-2.615 v -3.47 c 0,-1.444 -1.731,-2.615 -3.866,-2.615 H 16.288 V 86.7 h 3.892 c 2.125,0 3.85,-1.16 3.865,-2.597 L 24.5,38.633 C 24.515,37.182 22.779,36 20.635,36 h -0.031 c -2.135,0 -3.866,1.171 -3.866,2.615 V 78 Z M -191.5,204 v 1.78 L -175.56,232 H 8.664 L 24.5,205.78 V 204 197.653 139.74 c -1.148,0.55 -2.479,0.864 -3.913,0.864 H 20.325 V 188 v 4 h -4 -3.825 v 5.523 C 12.5,201.094 9.595,204 6.023,204 h -27.046 c -3.572,0 -6.477,-2.906 -6.477,-6.477 0,3.571 -2.905,6.477 -6.477,6.477 h -19.046 c -3.572,0 -6.477,-2.906 -6.477,-6.477 0,3.571 -2.905,6.477 -6.477,6.477 h -35.046 c -3.571,0 -6.477,-2.906 -6.477,-6.477 0,3.571 -2.906,6.477 -6.477,6.477 h -19.046 c -3.571,0 -6.477,-2.906 -6.477,-6.477 0,3.571 -2.906,6.477 -6.477,6.477 h -27.046 c -3.571,0 -6.477,-2.906 -6.477,-6.477 V 192 h -3.825 -4 v -4 -47.396 h -0.262 c -1.434,0 -2.765,-0.314 -3.913,-0.864 v 57.913 z m 219.424,3.848 -15.836,26.22 -1.167,1.932 h -2.257 -184.224 -2.249 l -1.169,-1.922 -15.94,-26.22 -0.582,-0.958 V 205.78 204 197.653 133.818 130.787 0 -4 h 4 24 4 16 4 120.5 4 15 4 24.5 4 v 4 130.787 3.031 63.835 6.347 1.78 1.114 z" /></g><g
           transform="translate(208,63.6797)"
           id="g24"><path
             id="path26"
             style="fill:#ffffff;fill-opacity:1;fill-rule:nonzero;stroke:none"
             d="M 0,0 H -160.192 L -160,128.32 H 0 Z m -160,132.32 h -3.994 L -164,128.326 -164.192,0.006 -164.198,-4 h 4.006 H 0 4 v 4 128.32 4 H 0 Z" /></g><g
           transform="translate(140,44)"
           id="g28"><path
             id="path30"
             style="fill:#ffffff;fill-opacity:1;fill-rule:nonzero;stroke:none"
             d="m 0,0 v -8 -6 c 0,-1.104 -0.896,-2 -2,-2 h -4 -12 -4 c -1.104,0 -2,0.896 -2,2 v 6 8 6 c 0,1.104 0.896,2 2,2 h 4 12 4 C -0.896,8 0,7.104 0,6 Z m -2,12 h -4 -12 -4 c -3.309,0 -6,-2.691 -6,-6 v -6 -8 -6 c 0,-3.309 2.691,-6 6,-6 h 4 12 4 c 3.309,0 6,2.691 6,6 v 6 8 6 c 0,3.309 -2.691,6 -6,6" /></g><g
           transform="translate(100,38)"
           id="g32"><path
             id="path34"
             style="fill:#ffffff;fill-opacity:1;fill-rule:nonzero;stroke:none"
             d="m 0,0 c 0,-1.104 -0.896,-2 -2,-2 h -2 -2 c -1.104,0 -2,0.896 -2,2 v 6 h -2 c -1.104,0 -2,0.896 -2,2 v 6 h 4 4 4 z m -4,18 h -4 -4 -4 V 14 8 c 0,-2.607 1.672,-4.832 4,-5.657 V 0 c 0,-3.309 2.691,-6 6,-6 h 2 2 c 3.309,0 6,2.691 6,6 v 14 4 H 0 Z" /></g><g
           transform="translate(72,38)"
           id="g36"><path
             id="path38"
             style="fill:#ffffff;fill-opacity:1;fill-rule:nonzero;stroke:none"
             d="m 0,0 c 0,-1.104 -0.896,-2 -2,-2 h -2 -2 c -1.104,0 -2,0.896 -2,2 v 6 h -2 c -1.104,0 -2,0.896 -2,2 v 6 h 4 4 4 z m -4,18 h -4 -4 -4 V 14 8 c 0,-2.607 1.672,-4.832 4,-5.657 V 0 c 0,-3.309 2.691,-6 6,-6 h 2 2 c 3.309,0 6,2.691 6,6 v 14 4 H 0 Z" /></g><g
           transform="translate(168,46)"
           id="g40"><path
             id="path42"
             style="fill:#ffffff;fill-opacity:1;fill-rule:nonzero;stroke:none"
             d="m 0,0 c 0,-1.104 -0.896,-2 -2,-2 h -2 v -6 c 0,-1.104 -0.896,-2 -2,-2 h -2 -2 c -1.104,0 -2,0.896 -2,2 V 6 h 4 4 4 z m -4,10 h -4 -4 -4 V 6 -8 c 0,-3.309 2.691,-6 6,-6 h 2 2 c 3.309,0 6,2.691 6,6 v 2.343 C 2.328,-4.832 4,-2.607 4,0 v 6 4 H 0 Z" /></g><g
           transform="translate(196,46)"
           id="g44"><path
             id="path46"
             style="fill:#ffffff;fill-opacity:1;fill-rule:nonzero;stroke:none"
             d="m 0,0 c 0,-1.104 -0.896,-2 -2,-2 h -2 v -6 c 0,-1.104 -0.896,-2 -2,-2 h -2 -2 c -1.104,0 -2,0.896 -2,2 V 6 h 4 4 4 z m -4,10 h -4 -4 -4 V 6 -8 c 0,-3.309 2.691,-6 6,-6 h 2 2 c 3.309,0 6,2.691 6,6 v 2.343 C 2.328,-4.832 4,-2.607 4,0 v 6 4 H 0 Z" /></g><g
           transform="translate(76.3628,140.0234)"
           id="g48"><path
             id="path50"
             style="fill:#ffffff;fill-opacity:1;fill-rule:nonzero;stroke:none"
             d="M 0,0 C 1.876,1.519 3.481,2.847 3.568,2.952 3.692,3.104 3.719,6.231 3.693,17.978 L 3.662,32.811 0.056,32.843 -3.55,32.875 V 15.057 c 0,-9.801 0.031,-17.819 0.07,-17.819 0.038,0 1.604,1.243 3.48,2.762" /></g><g
           transform="translate(72.8472,184)"
           id="g52"><path
             id="path54"
             style="fill:#ffffff;fill-opacity:1;fill-rule:nonzero;stroke:none"
             d="m 0,0 h 12.848 l 2.557,-1.739 2.557,-1.739 0.063,-23.625 0.063,-23.624 0.915,-0.774 0.915,-0.774 -0.351,-0.272 c -1.944,-1.504 -31.287,-23.932 -31.543,-24.108 -0.092,-0.064 -0.157,-0.107 -0.191,-0.107 -0.086,0 0.04,0.285 0.473,1.232 l 0.624,1.361 v 36.147 36.146 L -11.958,-0.938 -12.847,0 Z m 22.662,-1.856 2.254,1.49 h 10.956 10.956 l 1.837,-1.556 1.836,-1.556 v -23.003 -23.003 l -7.355,-5.857 c -4.046,-3.222 -7.39,-5.87 -7.429,-5.884 h -10e-4 c -0.057,0 -1.302,0.929 -2.782,2.076 h -10e-4 c -1.492,1.154 -4.919,3.801 -7.618,5.882 l -4.906,3.783 v 23.069 l -10e-4,23.068 z m 30.408,-2.277 0.09,0.932 1.804,1.539 1.805,1.54 h 10.926 10.926 l 2.309,-1.531 2.31,-1.531 v -11.984 c 0,-6.591 -0.038,-16.975 -0.084,-23.074 l -0.083,-11.09 -2.143,-1.657 c -6.021,-4.657 -13.008,-10.028 -13.045,-10.028 -0.023,0 -1.051,0.805 -2.283,1.788 -1.231,0.982 -4.51,3.593 -7.285,5.803 -2.775,2.209 -5.071,4.059 -5.105,4.111 -0.1,0.157 -0.239,44.183 -0.142,45.182 m 38.446,4.011 v 0 c 4.139,0 7.526,-0.021 7.526,-0.046 0,-0.026 0.539,-1.962 1.198,-4.302 0.659,-2.341 1.517,-5.394 1.908,-6.787 0.39,-1.392 0.739,-2.532 0.776,-2.532 0.037,10e-4 0.386,1.059 0.775,2.35 0.389,1.292 1.316,4.366 2.06,6.833 l 1.354,4.484 h 8.019 8.021 l -1.584,-1.232 -1.584,-1.231 v -35.853 c 0,-32.01 0.021,-35.96 0.196,-36.859 0.239,-1.224 0.832,-2.979 1.332,-3.945 0.203,-0.393 0.35,-0.733 0.325,-0.757 C 121.837,-80 121.836,-80 121.834,-80 c -0.052,0 -0.507,0.317 -1.039,0.725 -1.133,0.871 -7.047,5.406 -10.75,8.244 l -2.478,1.9 0.754,0.713 0.754,0.714 v 16.544 c 0,9.075 -0.033,16.473 -0.073,16.474 v -10e-4 c -0.039,-0.038 -0.201,-0.61 -0.359,-1.271 -0.158,-0.66 -0.798,-3.26 -1.422,-5.777 -0.625,-2.517 -1.628,-6.58 -2.23,-9.03 -0.602,-2.45 -1.443,-5.855 -1.869,-7.566 l -0.775,-3.112 -0.28,1.16 c -0.154,0.637 -1.521,6.595 -3.036,13.24 -3.738,16.388 -3.639,15.962 -3.732,16.169 0,10e-4 -0.001,10e-4 -0.001,10e-4 -0.045,0 -0.096,-6.46 -0.114,-14.441 l -0.031,-14.624 -0.47,0.365 c -1.1,0.85 -10.632,8.717 -10.663,8.799 -0.019,0.049 0.361,0.432 0.847,0.852 l 0.881,0.762 v 23.25 23.251 l -0.878,1.212 c -0.483,0.666 -0.878,1.238 -0.878,1.269 0,0.031 3.385,0.056 7.524,0.056 M -15.07,-3.469 v -34.553 -35.274 l -0.261,-0.568 c -0.675,-1.477 -1.441,-3.15 -0.222,-5.049 l 1.18,-1.839 2.206,-0.01 c 1.288,0 2.146,0.595 2.47,0.82 0.504,0.349 30.388,23.216 31.671,24.2 l 0.899,-0.693 c 2.696,-2.079 6.121,-4.723 7.611,-5.878 3.334,-2.581 3.762,-2.912 5.232,-2.912 h 0.704 l 0.664,0.242 c 0.672,0.237 0.672,0.237 8.553,6.512 l 6.304,5.02 c 0.84,-0.68 2.065,-1.655 3.885,-3.105 2.773,-2.209 6.05,-4.819 7.283,-5.801 3.019,-2.408 3.335,-2.66 4.776,-2.66 1.388,0 1.388,0 6.716,4.097 2.283,1.755 5.187,3.993 7.964,6.139 0.855,-0.726 2.075,-1.733 3.84,-3.19 2.286,-1.886 5.184,-4.266 5.829,-4.765 l 0.469,-0.364 6.432,-4.984 0.006,2.88 3.149,-13.026 1.694,6.805 1.149,-0.881 2.479,-1.899 c 3.701,-2.838 9.614,-7.372 10.748,-8.242 1.085,-0.833 2.021,-1.553 3.474,-1.553 h 1.621 l 1.167,1.128 c 1.448,1.407 1.595,3.247 0.443,5.471 -0.288,0.555 -0.755,1.881 -0.944,2.803 -0.125,1.243 -0.136,9.989 -0.136,36.16 v 33.896 l 0.04,0.031 1.583,1.232 9.204,7.157 h -11.654 -0.005 -8.021 -8.019 -2.972 l -0.857,-2.844 -0.224,-0.74 c -0.076,0.276 -0.122,0.445 -0.137,0.502 l -0.009,-0.003 c -0.294,1.186 -1.259,3.01 -4.408,3.056 -0.39,0.006 -0.954,0.011 -1.65,0.015 -1.37,0.009 -3.261,0.014 -5.34,0.014 -2.081,0 -3.973,-0.006 -5.344,-0.016 C 85.473,3.856 84.907,3.85 84.514,3.843 83.043,3.817 82.05,3.403 81.38,2.849 L 80.832,3.212 79.827,3.878 H 78.621 67.695 56.769 55.295 L 54.173,2.921 52.368,1.381 51.664,0.78 51.25,1.13 49.414,2.686 48.295,3.634 H 46.828 35.872 24.916 23.713 L 22.709,2.971 20.456,1.48 19.102,0.585 17.654,1.569 15.096,3.308 14.079,4 H 12.848 0 -12.847 -22.146 l 6.395,-6.751 z" /></g><g
           transform="translate(112.1616,137.0239)"
           id="g56"><path
             id="path58"
             style="fill:#ffffff;fill-opacity:1;fill-rule:nonzero;stroke:none"
             d="m 0,0 c 0.017,0 0.031,8.013 0.031,17.811 v 17.816 h -3.685 -3.685 v 0 L -7.415,35.353 C -7.457,35.202 -7.491,28.505 -7.492,20.471 L -7.494,5.865 -6.898,5.373 C -6.252,4.84 -0.052,0.01 0,0" /></g><g
           transform="translate(137.3018,137.3457)"
           id="g60"><path
             id="path62"
             style="fill:#ffffff;fill-opacity:1;fill-rule:nonzero;stroke:none"
             d="M 0,0 C 0.002,0 0.003,0 0.005,0.002 0.091,0.065 1.784,1.373 3.768,2.906 L 7.374,5.695 7.342,20.592 7.31,35.489 3.579,35.521 -0.152,35.553 V 17.72 C -0.152,3.651 -0.121,0 0,0" /></g></g></g></g></svg>