<?xml version="1.0" encoding="UTF-8" standalone="no"?>
<svg
   xmlns:dc="http://purl.org/dc/elements/1.1/"
   xmlns:cc="http://creativecommons.org/ns#"
   xmlns:rdf="http://www.w3.org/1999/02/22-rdf-syntax-ns#"
   xmlns:svg="http://www.w3.org/2000/svg"
   xmlns="http://www.w3.org/2000/svg"
   viewBox="0 0 138.66666 309.33331"
   height="309.33331"
   width="138.66666"
   xml:space="preserve"
   id="svg2"
   version="1.1"><metadata
     id="metadata8"><rdf:RDF><cc:Work
         rdf:about=""><dc:format>image/svg+xml</dc:format><dc:type
           rdf:resource="http://purl.org/dc/dcmitype/StillImage" /></cc:Work></rdf:RDF></metadata><defs
     id="defs6"><clipPath
       id="clipPath18"
       clipPathUnits="userSpaceOnUse"><path
         id="path16"
         d="M 0,256 H 256 V 0 H 0 Z" /></clipPath></defs><g
     transform="matrix(1.3333333,0,0,-1.3333333,-101.33333,325.33333)"
     id="g10"><g
       id="g12"><g
         clip-path="url(#clipPath18)"
         id="g14"><g
           transform="translate(176,204)"
           id="g20"><path
             id="path22"
             style="fill:#ffffff;fill-opacity:1;fill-rule:nonzero;stroke:none"
             d="m 0,0 -4,-12 v -60 l 4,-16 h -10 -6 -6 -32 -6 -6 -30 l 4,16 v 60 L -96,0 V 36 H 0 Z M 0,-104.43 C 0,-106.401 -1.686,-108 -3.765,-108 H -4 -8 -88 -92.235 c -2.079,0 -3.765,1.599 -3.765,3.57 V -92 H 0 Z M -8,-188 h -80 v 76 H -8 Z M 0,40 h -96 -4 V 36 0 -0.649 L -99.795,-1.265 -96,-12.649 V -71.507 L -99.88,-87.03 -100,-87.508 V -88 -104.43 c 0,-4.174 3.483,-7.57 7.765,-7.57 H -92 v -76 -4 h 4 80 4 v 4 76 h 0.235 c 4.282,0 7.765,3.396 7.765,7.57 L 4,-88 v 0.492 L 3.881,-87.03 0,-71.507 v 58.858 L 3.795,-1.265 4,-0.649 V 0 36 40 Z" /></g><path
           id="path24"
           style="fill:#ffffff;fill-opacity:1;fill-rule:nonzero;stroke:none"
           d="M 168,212 H 88 v 20 h 80 z m 4,24 H 84 v -28 h 88 z" /><g
           transform="translate(116,81.2813)"
           id="g26"><path
             id="path28"
             style="fill:#ffffff;fill-opacity:1;fill-rule:nonzero;stroke:none"
             d="M 0,0 C 0,1.495 1.224,2.719 2.719,2.719 H 21.281 C 22.776,2.719 24,1.495 24,0 v -26.562 c 0,-1.496 -1.224,-2.719 -2.719,-2.719 H 2.719 C 1.224,-29.281 0,-28.058 0,-26.562 Z m 2.719,-33.281 h 18.562 c 3.705,0 6.719,3.013 6.719,6.719 L 28,0 c 0,3.705 -3.014,6.719 -6.719,6.719 H 2.719 C -0.986,6.719 -4,3.705 -4,0 v -26.562 c 0,-3.706 3.014,-6.719 6.719,-6.719" /></g><path
           id="path30"
           style="fill:#ffffff;fill-opacity:1;fill-rule:nonzero;stroke:none"
           d="m 126,76 h -4 v -4 h 4 z" /><path
           id="path32"
           style="fill:#ffffff;fill-opacity:1;fill-rule:nonzero;stroke:none"
           d="m 134,76 h -4 v -4 h 4 z" /><path
           id="path34"
           style="fill:#ffffff;fill-opacity:1;fill-rule:nonzero;stroke:none"
           d="m 126,68 h -4 v -4 h 4 z" /><path
           id="path36"
           style="fill:#ffffff;fill-opacity:1;fill-rule:nonzero;stroke:none"
           d="m 134,68 h -4 v -4 h 4 z" /><g
           transform="translate(166,124)"
           id="g38"><path
             id="path40"
             style="fill:#ffffff;fill-opacity:1;fill-rule:nonzero;stroke:none"
             d="M 0,0 C -1.104,0 -2,0.447 -2,1 -2,1.553 -1.104,2 0,2 1.104,2 2,1.553 2,1 2,0.447 1.104,0 0,0 m 0,-4 c -1.104,0 -2,0.447 -2,1 0,0.553 0.896,1 2,1 1.104,0 2,-0.447 2,-1 0,-0.553 -0.896,-1 -2,-1 m -6,4 c -1.104,0 -2,0.447 -2,1 0,0.553 0.896,1 2,1 1.104,0 2,-0.447 2,-1 0,-0.553 -0.896,-1 -2,-1 m 0,-4 c -1.104,0 -2,0.447 -2,1 0,0.553 0.896,1 2,1 1.104,0 2,-0.447 2,-1 0,-0.553 -0.896,-1 -2,-1 m -6,4 c -1.104,0 -2,0.447 -2,1 0,0.553 0.896,1 2,1 1.104,0 2,-0.447 2,-1 0,-0.553 -0.896,-1 -2,-1 m 0,-4 c -1.104,0 -2,0.447 -2,1 0,0.553 0.896,1 2,1 1.104,0 2,-0.447 2,-1 0,-0.553 -0.896,-1 -2,-1 m -10,1.5 c -2.485,0 -4.5,1.008 -4.5,2.25 0,0.979 1.26,1.805 3.007,2.113 l -0.757,4.474 c 0,0.915 1.013,1.663 2.25,1.663 1.237,0 2.25,-0.748 2.25,-1.663 L -20.507,1.863 C -18.76,1.555 -17.5,0.729 -17.5,-0.25 -17.5,-1.492 -19.515,-2.5 -22,-2.5 M -32,4 c -1.104,0 -2,0.448 -2,1 0,0.552 0.896,1 2,1 1.104,0 2,-0.448 2,-1 0,-0.552 -0.896,-1 -2,-1 m -42,34 c 0,21.616 6.113,26 36,26 29.887,0 36,-4.374 36,-26 0,-21.624 -6.015,-26 -36,-26 -29.981,0 -36,4.384 -36,26 m 8,-40.5 c -2.485,0 -4.5,1.008 -4.5,2.25 0,0.979 1.259,1.805 3.007,2.113 l -0.757,4.474 c 0,0.915 1.013,1.663 2.25,1.663 1.237,0 2.25,-0.748 2.25,-1.663 l -0.757,-4.474 c 1.748,-0.308 3.007,-1.134 3.007,-2.113 0,-1.242 -2.015,-2.25 -4.5,-2.25 m 10,0.5 c 1.104,0 2,-0.447 2,-1 0,-0.553 -0.896,-1 -2,-1 -1.104,0 -2,0.447 -2,1 0,0.553 0.896,1 2,1 m 0,4 c 1.104,0 2,-0.447 2,-1 0,-0.553 -0.896,-1 -2,-1 -1.104,0 -2,0.447 -2,1 0,0.553 0.896,1 2,1 m 6,-4 c 1.104,0 2,-0.447 2,-1 0,-0.553 -0.896,-1 -2,-1 -1.104,0 -2,0.447 -2,1 0,0.553 0.896,1 2,1 m 0,4 c 1.104,0 2,-0.447 2,-1 0,-0.553 -0.896,-1 -2,-1 -1.104,0 -2,0.447 -2,1 0,0.553 0.896,1 2,1 m 6,-4 c 1.104,0 2,-0.447 2,-1 0,-0.553 -0.896,-1 -2,-1 -1.104,0 -2,0.447 -2,1 0,0.553 0.896,1 2,1 m 0,4 c 1.104,0 2,-0.447 2,-1 0,-0.553 -0.896,-1 -2,-1 -1.104,0 -2,0.447 -2,1 0,0.553 0.896,1 2,1 m -32,2 c -1.104,0 -2,0.448 -2,1 0,0.552 0.896,1 2,1 1.104,0 2,-0.448 2,-1 0,-0.552 -0.896,-1 -2,-1 M 6,-3 C 6,-2.281 5.836,-1.606 5.535,-1 5.836,-0.394 6,0.281 6,1 6,3.851 3.421,6 0,6 -1.108,6 -2.128,5.774 -3,5.373 -3.872,5.774 -4.892,6 -6,6 -7.108,6 -8.128,5.774 -9,5.373 -9.872,5.774 -10.892,6 -12,6 -13.539,6 -14.908,5.564 -15.949,4.826 l 0.143,0.844 0.056,0.331 v 0.336 c 0,1.178 -0.379,2.26 -1.033,3.156 4.169,0.858 7.622,2.169 10.371,4.156 C 0.569,18.697 2,27.034 2,38 2,48.959 0.562,57.294 -6.452,62.354 -12.971,67.056 -23.356,68 -38,68 -52.642,68 -63.026,67.055 -69.548,62.35 -76.563,57.289 -78,48.955 -78,38 c 0,-10.962 1.431,-19.298 8.413,-24.347 0.878,-0.635 1.834,-1.196 2.854,-1.701 -2.284,-0.233 -4.162,-1.529 -5.017,-3.356 C -72.82,9.474 -74.307,10 -76,10 c -3.42,0 -6,-2.149 -6,-5 0,-2.851 2.58,-5 6,-5 0.527,0 1.034,0.051 1.515,0.147 -0.01,-0.13 -0.015,-0.263 -0.015,-0.397 0,-3.621 3.575,-6.25 8.5,-6.25 1.807,0 3.432,0.354 4.766,0.98 1.01,-1.505 2.931,-2.48 5.234,-2.48 1.108,0 2.127,0.226 3,0.627 0.873,-0.401 1.892,-0.627 3,-0.627 1.108,0 2.127,0.226 3,0.627 0.873,-0.401 1.892,-0.627 3,-0.627 3.42,0 6,2.149 6,5 0,0.719 -0.164,1.394 -0.464,2 0.3,0.606 0.464,1.281 0.464,2 0,2.851 -2.58,5 -6,5 -1.108,0 -2.127,-0.226 -3,-0.627 C -47.873,5.774 -48.892,6 -50,6 -51.108,6 -52.127,5.774 -53,5.373 -53.873,5.774 -54.892,6 -56,6 -57.54,6 -58.909,5.564 -59.949,4.826 l 0.143,0.844 0.056,0.331 v 0.336 c 0,1.381 -0.52,2.631 -1.395,3.603 C -55.134,8.4 -47.459,8 -38,8 c 0.39,0 0.764,0.003 1.147,0.005 C -37.576,7.179 -38,6.148 -38,5 c 0,-2.851 2.579,-5 6,-5 0.527,0 1.034,0.051 1.515,0.147 -0.01,-0.13 -0.015,-0.263 -0.015,-0.397 0,-3.621 3.575,-6.25 8.5,-6.25 1.807,0 3.432,0.354 4.766,0.98 1.009,-1.505 2.931,-2.48 5.234,-2.48 1.108,0 2.128,0.226 3,0.627 C -8.128,-7.774 -7.108,-8 -6,-8 c 1.108,0 2.128,0.226 3,0.627 C -2.128,-7.774 -1.108,-8 0,-8 c 3.421,0 6,2.149 6,5" /></g></g></g></g></svg>