<?xml version="1.0" encoding="UTF-8" standalone="no"?>
<svg
   xmlns:dc="http://purl.org/dc/elements/1.1/"
   xmlns:cc="http://creativecommons.org/ns#"
   xmlns:rdf="http://www.w3.org/1999/02/22-rdf-syntax-ns#"
   xmlns:svg="http://www.w3.org/2000/svg"
   xmlns="http://www.w3.org/2000/svg"
   viewBox="0 0 298.66665 320"
   height="320"
   width="298.66666"
   xml:space="preserve"
   id="svg2"
   version="1.1"><metadata
     id="metadata8"><rdf:RDF><cc:Work
         rdf:about=""><dc:format>image/svg+xml</dc:format><dc:type
           rdf:resource="http://purl.org/dc/dcmitype/StillImage" /></cc:Work></rdf:RDF></metadata><defs
     id="defs6" /><g
     transform="matrix(1.3333333,0,0,-1.3333333,-21.333866,330.66666)"
     id="g10"><g
       transform="translate(234.4004,24)"
       id="g12"><path
         id="path14"
         style="fill:#ffffff;fill-opacity:1;fill-rule:nonzero;stroke:none"
         d="m 0,0 h -126.4 v 8 h 128 z m -126.4,-12 v 8 H -0.801 l 0.401,2 -2,-10 z m -84,0 -2,10 0.4,-2 h 81.6 v -8 z m -4,20 h 84 V 0 h -82.4 z m 0,212 h 84 V 12 h -84 z m 88,0 H 1.6 V 12 h -128 z M 5.6,7.604 V 12 v 208 4 h -4 -128 -4 -84 -4 v -4 -208 -4.396 0 l 0.077,-0.388 4,-20 0.643,-3.216 h 3.28 80 4 124 3.279 l 0.642,3.216 4,20 0.041,0.202 z" /></g></g></svg>