<?xml version="1.0" encoding="UTF-8" standalone="no"?>
<svg
   xmlns:dc="http://purl.org/dc/elements/1.1/"
   xmlns:cc="http://creativecommons.org/ns#"
   xmlns:rdf="http://www.w3.org/1999/02/22-rdf-syntax-ns#"
   xmlns:svg="http://www.w3.org/2000/svg"
   xmlns="http://www.w3.org/2000/svg"
   viewBox="0 0 320.00262 181.33333"
   height="181.33333"
   width="320.00262"
   xml:space="preserve"
   id="svg2"
   version="1.1"><metadata
     id="metadata8"><rdf:RDF><cc:Work
         rdf:about=""><dc:format>image/svg+xml</dc:format><dc:type
           rdf:resource="http://purl.org/dc/dcmitype/StillImage" /></cc:Work></rdf:RDF></metadata><defs
     id="defs6"><clipPath
       id="clipPath18"
       clipPathUnits="userSpaceOnUse"><path
         id="path16"
         d="M 0,256 H 256 V 0 H 0 Z" /></clipPath></defs><g
     transform="matrix(1.3333333,0,0,-1.3333333,-10.664447,261.33306)"
     id="g10"><g
       id="g12"><g
         clip-path="url(#clipPath18)"
         id="g14"><g
           transform="translate(217.7793,68.0068)"
           id="g20"><path
             id="path22"
             style="fill:#ffffff;fill-opacity:1;fill-rule:nonzero;stroke:none"
             d="m 0,0 c -10.375,-1.84 -19.437,-2.892 -27.687,-3.481 -9.898,-0.5 -38.769,-0.526 -44.417,-0.526 h -0.824 c -28.592,0.353 -45.464,1.228 -54.2,1.847 -6.454,0.458 -12.907,0.672 -19.379,0.672 h -32.772 c -7.262,0 -14.122,3.514 -17.745,9.466 -0.515,0.844 -1.015,1.728 -1.502,2.65 -7.492,14.171 -11.631,90.132 0,102.737 5.758,6.241 12.027,8.277 18.525,9.085 9.824,1.223 19.752,1.543 29.661,1.543 h 128.628 c 9.682,0 19.359,-0.654 28.909,-2.164 11.868,-1.876 18.012,-4.117 18.912,-13.836 H -3.779 c -1.105,0 -2,-0.895 -2,-2 0,-1.104 0.895,-2 2,-2 h 30 v -4 h -26 c -1.105,0 -2,-0.895 -2,-2 0,-1.104 0.895,-2 2,-2 h 26 v -4 h -22 c -1.105,0 -2,-0.895 -2,-2 0,-1.104 0.895,-2 2,-2 h 22 V 17.714 C 25.649,9.909 20.197,3.582 0,0 m 30.219,106.396 c -0.426,14.718 -10.396,17.486 -22.398,19.384 -9.287,1.469 -19.223,2.213 -29.533,2.213 H -150.34 c -12.111,0 -21.411,-0.485 -30.155,-1.574 -6.011,-0.748 -13.827,-2.599 -20.971,-10.341 -8.039,-8.713 -8.607,-37.314 -8.23,-53.587 0.459,-19.792 3.043,-45.049 7.634,-53.732 0.528,-0.999 1.073,-1.962 1.621,-2.862 4.276,-7.023 12.385,-11.385 21.162,-11.385 h 32.772 c 6.48,0 12.904,-0.223 19.096,-0.661 9.235,-0.656 26.175,-1.509 54.434,-1.857 l 0.024,-10e-4 h 0.055 0.794 c 5.698,0 34.627,0.026 44.62,0.53 l 0.041,0.002 0.042,0.003 c 9.215,0.66 18.407,1.815 28.099,3.534 19.583,3.472 28.686,10.06 29.512,21.36 l 0.011,0.145 v 0.147 88.566 0.058 z" /></g><g
           transform="translate(197.624,86.3057)"
           id="g24"><path
             id="path26"
             style="fill:#ffffff;fill-opacity:1;fill-rule:nonzero;stroke:none"
             d="M 0,0 C -0.594,-1.163 -1.902,-1.968 -3.415,-2.099 -17.47,-3.319 -56.36,-5.411 -69.246,-6.091 l -0.001,3.716 c 0,3.346 -2.722,6.067 -6.067,6.067 h -37.114 c -3.346,0 -6.068,-2.722 -6.068,-6.068 v -3.563 c -1.023,0.419 -1.828,1.171 -2.165,2.104 -16.344,45.214 -3.951,83.828 0.237,94.585 0.444,1.141 1.403,2.321 2.377,2.37 7.545,0.381 15.744,0.574 24.369,0.574 38.783,0 76.841,-3.788 89.404,-6.523 1.502,-0.326 2.722,-1.346 3.108,-2.597 C 13.904,35.704 4.67,9.148 0,0 m 2.656,85.753 c -0.82,2.66 -3.172,4.694 -6.081,5.327 -13.539,2.947 -52.388,6.614 -90.253,6.614 -8.333,0 -16.613,-0.177 -24.571,-0.579 -2.808,-0.142 -4.946,-2.456 -5.903,-4.913 -4.764,-12.239 -16.94,-51.286 -0.27,-97.397 1.112,-3.079 4.3,-5.111 7.808,-5.111 h 2.118 v 7.93 c 0,1.143 0.926,2.068 2.068,2.068 h 37.114 c 1.142,0 2.067,-0.925 2.067,-2.068 l 0.001,-7.93 c 0,0 53.044,2.734 70.178,4.222 2.875,0.25 5.397,1.849 6.631,4.266 4.852,9.506 14.619,37.223 -0.907,87.571" /></g><g
           transform="translate(117.4287,80)"
           id="g28"><path
             id="path30"
             style="fill:#ffffff;fill-opacity:1;fill-rule:nonzero;stroke:none"
             d="m 0,0 h -6.857 c -1.42,0 -2.572,-0.896 -2.572,-2 0,-1.104 1.152,-2 2.572,-2 H 0 c 1.42,0 2.571,0.896 2.571,2 0,1.104 -1.151,2 -2.571,2" /></g><g
           transform="translate(97.4287,80)"
           id="g32"><path
             id="path34"
             style="fill:#ffffff;fill-opacity:1;fill-rule:nonzero;stroke:none"
             d="m 0,0 h -6.857 c -1.42,0 -2.572,-0.896 -2.572,-2 0,-1.104 1.152,-2 2.572,-2 H 0 c 1.42,0 2.571,0.896 2.571,2 0,1.104 -1.151,2 -2.571,2" /></g><g
           transform="translate(27.5181,170.2275)"
           id="g36"><path
             id="path38"
             style="fill:#ffffff;fill-opacity:1;fill-rule:nonzero;stroke:none"
             d="m 0,0 c 0.336,0.242 0.73,0.363 1.124,0.363 0.448,0 0.896,-0.157 1.254,-0.471 l 7.634,-6.681 c 0.416,-0.363 0.653,-0.887 0.653,-1.437 0,-0.55 -0.237,-1.074 -0.653,-1.437 l -7.634,-6.681 c -0.354,-0.31 -0.803,-0.472 -1.256,-0.472 -0.265,0 -0.529,0.054 -0.781,0.168 -2.356,1.055 -3.494,4.334 -3.778,7.052 C -3.866,-5.462 -2.58,-1.875 0,0 m 6.061,5.917 c 1.055,2.356 4.334,3.495 7.051,3.778 0.517,0.052 1.025,0.077 1.522,0.077 3.487,0 6.433,-1.258 8.073,-3.514 0.522,-0.722 0.477,-1.71 -0.108,-2.379 l -6.68,-7.635 c -0.363,-0.416 -0.887,-0.653 -1.437,-0.653 -0.55,0 -1.074,0.237 -1.437,0.653 L 6.365,3.879 C 5.875,4.44 5.755,5.236 6.061,5.917 M 28.623,0.196 c 2.356,-1.055 3.494,-4.334 3.778,-7.052 0.429,-4.135 -0.858,-7.721 -3.437,-9.596 -0.336,-0.243 -0.729,-0.364 -1.122,-0.364 -0.449,0 -0.899,0.159 -1.257,0.472 l -7.634,6.681 c -0.415,0.363 -0.652,0.887 -0.652,1.437 0,0.55 0.237,1.074 0.652,1.437 l 7.634,6.681 c 0.353,0.311 0.801,0.474 1.255,0.474 0.264,0 0.532,-0.055 0.783,-0.17 M 22.707,-22.71 c -1.637,-2.252 -4.578,-3.518 -8.048,-3.518 -0.505,0 -1.021,0.026 -1.547,0.081 -2.717,0.283 -5.996,1.422 -7.051,3.778 -0.306,0.681 -0.186,1.476 0.304,2.037 l 6.68,7.636 c 0.363,0.416 0.9,0.623 1.437,0.623 0.537,0 1.074,-0.207 1.437,-0.623 l 6.68,-7.636 c 0.585,-0.668 0.63,-1.657 0.108,-2.378 m -24.001,2.411 c 0.755,-0.341 1.572,-0.517 2.416,-0.517 0.283,0 0.561,0.036 0.837,0.076 -0.158,-1.092 -0.015,-2.226 0.454,-3.268 1.483,-3.312 5.328,-5.601 10.284,-6.118 0.658,-0.067 1.316,-0.102 1.962,-0.102 4.785,0 8.898,1.883 11.284,5.166 0.936,1.295 1.269,2.843 1.054,4.323 0.279,-0.041 0.56,-0.077 0.845,-0.077 1.251,0 2.449,0.388 3.464,1.121 3.758,2.732 5.651,7.683 5.073,13.252 -0.517,4.959 -2.805,8.804 -6.121,10.29 -0.748,0.34 -1.57,0.519 -2.418,0.519 -0.285,0 -0.564,-0.036 -0.842,-0.076 0.215,1.478 -0.117,3.022 -1.05,4.312 -2.389,3.289 -6.511,5.17 -11.314,5.17 -0.631,0 -1.277,-0.032 -1.921,-0.097 C 7.741,13.157 3.896,10.868 2.411,7.551 1.943,6.511 1.801,5.378 1.959,4.288 1.683,4.327 1.406,4.363 1.124,4.363 -0.126,4.363 -1.323,3.977 -2.338,3.246 -6.1,0.511 -7.993,-4.44 -7.416,-10.009 c 0.518,-4.959 2.806,-8.804 6.122,-10.29" /></g><g
           transform="translate(56.4824,89.7773)"
           id="g40"><path
             id="path42"
             style="fill:#ffffff;fill-opacity:1;fill-rule:nonzero;stroke:none"
             d="m 0,0 c -0.335,-0.246 -0.729,-0.365 -1.122,-0.365 -0.449,0 -0.899,0.16 -1.256,0.473 l -7.635,6.683 c -0.416,0.361 -0.652,0.883 -0.652,1.436 0,0.551 0.236,1.073 0.652,1.435 l 7.635,6.682 c 0.351,0.314 0.798,0.473 1.25,0.473 0.267,0 0.536,-0.055 0.787,-0.168 C 2.015,15.591 3.155,12.31 3.437,9.591 3.864,5.459 2.58,1.872 0,0 m -6.257,-6.261 c -1.637,-2.253 -4.578,-3.516 -8.047,-3.516 -0.505,0 -1.021,0.026 -1.545,0.078 -2.719,0.283 -6,1.425 -7.054,3.781 -0.306,0.679 -0.187,1.477 0.303,2.036 l 6.681,7.637 c 0.363,0.414 0.9,0.621 1.437,0.621 0.536,0 1.073,-0.207 1.437,-0.621 l 6.68,-7.637 c 0.585,-0.671 0.63,-1.655 0.108,-2.379 m -22.367,6.064 c -2.355,1.058 -3.496,4.34 -3.778,7.058 -0.427,4.132 0.858,7.719 3.437,9.591 0.335,0.245 0.728,0.366 1.12,0.366 0.45,0 0.899,-0.159 1.259,-0.474 l 7.634,-6.682 C -18.536,9.3 -18.3,8.778 -18.3,8.227 c 0,-0.553 -0.236,-1.075 -0.652,-1.436 l -7.634,-6.683 c -0.354,-0.313 -0.804,-0.473 -1.257,-0.473 -0.264,0 -0.531,0.055 -0.781,0.168 m 5.721,22.567 c 1.054,2.357 4.335,3.498 7.054,3.781 0.5,0.048 0.992,0.072 1.474,0.072 3.497,0 6.47,-1.245 8.118,-3.51 0.522,-0.724 0.477,-1.708 -0.108,-2.379 l -6.68,-7.637 c -0.364,-0.414 -0.888,-0.652 -1.437,-0.652 -0.55,0 -1.074,0.238 -1.437,0.652 l -6.681,7.637 c -0.49,0.56 -0.609,1.357 -0.303,2.036 M 1.299,20.298 c -0.776,0.347 -1.589,0.519 -2.427,0.519 -0.284,0 -0.563,-0.036 -0.841,-0.077 0.217,1.48 -0.114,3.024 -1.044,4.313 -2.394,3.291 -6.532,5.17 -11.362,5.17 -0.609,0 -1.233,-0.031 -1.855,-0.09 -4.992,-0.52 -8.839,-2.81 -10.324,-6.129 -0.468,-1.038 -0.611,-2.172 -0.453,-3.262 -0.277,0.04 -0.555,0.076 -0.838,0.076 -1.259,0 -2.463,-0.393 -3.48,-1.136 -3.737,-2.712 -5.631,-7.661 -5.056,-13.232 0.514,-4.956 2.8,-8.804 6.117,-10.296 0.771,-0.345 1.584,-0.519 2.421,-0.519 0.283,0 0.56,0.036 0.837,0.076 -0.159,-1.092 -0.015,-2.229 0.456,-3.272 1.481,-3.31 5.328,-5.6 10.287,-6.117 0.671,-0.066 1.324,-0.099 1.959,-0.099 4.785,0 8.898,1.882 11.283,5.165 0.935,1.296 1.267,2.843 1.051,4.323 0.281,-0.04 0.562,-0.076 0.848,-0.076 1.265,0 2.471,0.394 3.488,1.139 3.731,2.708 5.625,7.658 5.05,13.228 -0.514,4.956 -2.8,8.805 -6.117,10.296" /></g><g
           transform="translate(232.4824,93.7773)"
           id="g44"><path
             id="path46"
             style="fill:#ffffff;fill-opacity:1;fill-rule:nonzero;stroke:none"
             d="m 0,0 c -0.336,-0.246 -0.729,-0.365 -1.122,-0.365 -0.449,0 -0.899,0.16 -1.257,0.473 l -7.634,6.683 c -0.416,0.361 -0.652,0.883 -0.652,1.436 0,0.551 0.236,1.073 0.652,1.435 l 7.634,6.682 c 0.352,0.314 0.799,0.473 1.251,0.473 0.267,0 0.535,-0.055 0.787,-0.168 C 2.015,15.591 3.155,12.31 3.437,9.591 3.863,5.459 2.579,1.872 0,0 m -6.257,-6.261 c -1.637,-2.253 -4.578,-3.516 -8.047,-3.516 -0.505,0 -1.021,0.026 -1.545,0.078 -2.719,0.283 -6,1.425 -7.054,3.781 -0.306,0.679 -0.187,1.477 0.303,2.036 l 6.68,7.637 c 0.364,0.414 0.9,0.621 1.438,0.621 0.537,0 1.073,-0.207 1.437,-0.621 l 6.68,-7.637 c 0.585,-0.671 0.63,-1.655 0.108,-2.379 m 7.556,26.559 c -0.776,0.347 -1.589,0.519 -2.427,0.519 -1.449,0 -2.84,-0.529 -3.916,-1.491 l -7.603,-6.654 c -1.245,-1.083 -1.971,-2.649 -2.011,-4.305 -1.652,-0.048 -3.199,-0.757 -4.267,-1.972 l -6.685,-7.643 c -1.518,-1.731 -1.887,-4.21 -0.941,-6.313 1.483,-3.31 5.329,-5.6 10.288,-6.117 0.67,-0.066 1.324,-0.099 1.959,-0.099 4.785,0 8.898,1.882 11.283,5.165 0.935,1.296 1.267,2.843 1.051,4.323 0.281,-0.04 0.562,-0.076 0.848,-0.076 1.265,0 2.471,0.394 3.488,1.139 3.731,2.708 5.625,7.658 5.05,13.228 -0.514,4.956 -2.8,8.805 -6.117,10.296" /></g><path
           id="path48"
           style="fill:#ffffff;fill-opacity:1;fill-rule:nonzero;stroke:none"
           d="M 84,160 H 184 V 100 H 84 Z M 80,96 h 108 v 68 H 80 Z" /></g></g></g></svg>