<?xml version="1.0" encoding="utf-8"?>
<!-- Generator: Adobe Illustrator 26.0.2, SVG Export Plug-In . SVG Version: 6.00 Build 0)  -->
<svg version="1.1" xmlns="http://www.w3.org/2000/svg" xmlns:xlink="http://www.w3.org/1999/xlink" x="0px" y="0px"
	 viewBox="0 0 3845.3 142" style="enable-background:new 0 0 3845.3 142;" xml:space="preserve">
<style type="text/css">
	.st0{display:none;}
	.st1{display:inline;}
	.st2{fill:#2511ED;}
	.st3{fill:url(#SVGID_1_);}
	.st4{fill:url(#SVGID_00000080885287458124944710000010044244791200570786_);}
	.st5{fill:url(#SVGID_00000105401246319288243730000013147154332602881958_);}
	.st6{fill:url(#SVGID_00000105409830120910647470000013944284855987768464_);}
	.st7{fill:url(#SVGID_00000043442384473007676440000009798741001328694448_);}
	.st8{fill:url(#SVGID_00000174584151939158102070000010830988803826467766_);}
	.st9{fill:url(#SVGID_00000138547602151066634820000015157605758343994507_);}
	.st10{fill:url(#SVGID_00000137121742645357507780000012430531063964747140_);}
	.st11{fill:url(#SVGID_00000153704266270542205860000011063428531638156672_);}
	.st12{fill:url(#SVGID_00000013910789001013841350000012315153409377368749_);}
	.st13{fill:url(#SVGID_00000080892340303738329660000015695578540790486717_);}
	.st14{fill:url(#SVGID_00000057850150351496580680000008117910213780814213_);}
	.st15{fill:url(#SVGID_00000017481812758132561820000003545618257795808174_);}
	.st16{fill:url(#SVGID_00000003795964901078979150000010956714180104395942_);}
	.st17{fill:url(#SVGID_00000031892473562267764160000009853380584035875007_);}
	.st18{fill:url(#SVGID_00000155856135656589198160000014606777290919711629_);}
	.st19{fill:url(#SVGID_00000010280152617940989980000017287614171528089735_);}
	.st20{fill:url(#SVGID_00000003063009856329180390000000382142825582453159_);}
	.st21{fill:url(#SVGID_00000057142850517417965440000012090763182116976811_);}
	.st22{fill:url(#SVGID_00000016791769787634443170000002142610239967907504_);}
	.st23{fill:url(#SVGID_00000039842730883233548350000010248164871347722676_);}
	.st24{fill:url(#SVGID_00000005258183109965624560000007248646583069798840_);}
	.st25{fill:url(#SVGID_00000103987352014895942520000005068523878634469534_);}
	.st26{fill:url(#SVGID_00000080889725846413099390000015728880396860854718_);}
	.st27{fill:url(#SVGID_00000067238143614630018870000002588004766504191130_);}
	.st28{fill:url(#SVGID_00000105396897056013101350000000139060549504787646_);}
	.st29{fill:url(#SVGID_00000003805483354692606230000017382748150169772980_);}
	.st30{fill:url(#SVGID_00000089565487962318313160000010364950475110793893_);}
	.st31{fill:url(#SVGID_00000116237014309344124290000013394811600539099303_);}
	.st32{fill:url(#SVGID_00000171686490297478989190000008694614687581555617_);}
	.st33{fill:url(#SVGID_00000039817720224834157830000004830757540876814209_);}
	.st34{fill:url(#SVGID_00000057834941929535143540000006230285349708416405_);}
	.st35{fill:url(#SVGID_00000031898804530472321110000010301495154279093932_);}
	.st36{fill:url(#SVGID_00000157989759072305601300000005984497284279656876_);}
	.st37{fill:url(#SVGID_00000176728509789816947120000010938838446260521356_);}
	.st38{fill:url(#SVGID_00000039093281412940882370000013664892129983699329_);}
	.st39{fill:url(#SVGID_00000106830738839185699130000016016065894299027348_);}
	.st40{fill:url(#SVGID_00000138558572958724028920000017748695664257292715_);}
	.st41{fill:url(#SVGID_00000106149766716645887110000006645872217378437566_);}
	.st42{fill:url(#SVGID_00000135682265075526419540000008560347799131850131_);}
	.st43{fill:url(#SVGID_00000091711076446105778880000015493528088531126157_);}
	.st44{fill:url(#SVGID_00000075162950168066652240000015014138530986864256_);}
	.st45{fill:url(#SVGID_00000142877247254112005050000009179203588549819815_);}
	.st46{fill:url(#SVGID_00000168082363810995327730000004990420412500424362_);}
	.st47{fill:url(#SVGID_00000145018654083335568930000009789149992010870459_);}
	.st48{fill:url(#SVGID_00000113326665328949212700000011651386300590710938_);}
	.st49{fill:url(#SVGID_00000071522980527054286530000003240019213952767399_);}
	.st50{fill:url(#SVGID_00000032648910647551514410000008238181990175082925_);}
	.st51{fill:url(#SVGID_00000128476890128826872580000016195719376783352989_);}
	.st52{fill:url(#SVGID_00000146495925567165677670000008504400495335467169_);}
	.st53{fill:url(#SVGID_00000028318003335115688410000010933468688625769863_);}
	.st54{fill:url(#SVGID_00000059299988903464289600000009961281303288549032_);}
	.st55{fill:url(#SVGID_00000178189234269827971860000015476062973099422124_);}
	.st56{fill:url(#SVGID_00000115487774208473510290000010276955011820437652_);}
	.st57{fill:url(#SVGID_00000049937164956621944740000015907276297075992458_);}
	.st58{fill:url(#SVGID_00000113337424059807300380000009049317378511562424_);}
	.st59{fill:url(#SVGID_00000152964998177756540100000012700369667081005187_);}
	.st60{fill:url(#SVGID_00000137102171109556113470000016350318632730796452_);}
	.st61{fill:url(#SVGID_00000041270006207516751160000004115346653080312479_);}
	.st62{fill:url(#SVGID_00000145752353919178719520000016251517591682062774_);}
	.st63{fill:url(#SVGID_00000166655746678649824220000000096909797775966903_);}
	.st64{fill:url(#SVGID_00000158728250905359632120000007960138866634904194_);}
	.st65{fill:url(#SVGID_00000087413888578053252290000018227215247085237183_);}
	.st66{fill:url(#SVGID_00000036945096824084333210000004731443797967148713_);}
	.st67{fill:url(#SVGID_00000092437995907234021760000015565588621510091452_);}
	.st68{fill:url(#SVGID_00000087381134709770391110000015429575898956767630_);}
	.st69{fill:url(#SVGID_00000022558309467846403630000005514886161257829822_);}
	.st70{fill:url(#SVGID_00000176028979722606553650000017561324692471111579_);}
	.st71{fill:url(#SVGID_00000174591959141389999090000011137762829324407951_);}
	.st72{fill:url(#SVGID_00000084494575130908408750000016714514831386007455_);}
	.st73{fill:url(#SVGID_00000042714164902033925230000000773146307108687266_);}
	.st74{fill:url(#SVGID_00000070080070394280986880000001494307426991411874_);}
	.st75{fill:#FFFFFF;}
	.st76{fill:url(#SVGID_00000083086124685988916980000011942172725417926545_);}
	.st77{fill:url(#SVGID_00000023966316989361550600000001359389972124044946_);}
	.st78{fill:url(#SVGID_00000029026663882589225000000018017808013502270903_);}
	.st79{fill:url(#SVGID_00000080183043814860311140000015699700449226963086_);}
	.st80{fill:url(#SVGID_00000168075139833794880550000005430608096426926212_);}
	.st81{fill:url(#SVGID_00000007391098189853465410000015326305939515700394_);}
	.st82{fill:url(#SVGID_00000118368556300580306750000003570937548949171101_);}
	.st83{fill:url(#SVGID_00000107557096763808113830000010739376582307369611_);}
	.st84{fill:url(#SVGID_00000021798834745910229780000015228119518885854342_);}
	.st85{fill:url(#SVGID_00000002345987760340726530000002821708580137113495_);}
	.st86{fill:url(#SVGID_00000018237488975644317160000017562074219167073691_);}
	.st87{fill:url(#SVGID_00000011733229060816441070000016439241896290259356_);}
	.st88{fill:url(#SVGID_00000036212560710740771830000000727859424136483213_);}
	.st89{fill:url(#SVGID_00000158746658723178736520000005354928076404940965_);}
	.st90{fill:url(#SVGID_00000167390701137308739690000000628364858532012468_);}
	.st91{fill:url(#SVGID_00000140006126851587250740000000206194636581515177_);}
	.st92{fill:url(#SVGID_00000017481429752941524560000010698766361650847405_);}
	.st93{fill:url(#SVGID_00000000185193063144243320000017495789758482158465_);}
	.st94{fill:url(#SVGID_00000034804161487381520230000005936646862055203499_);}
	.st95{fill:url(#SVGID_00000083791784073163878010000014801533570510825612_);}
	.st96{fill:url(#SVGID_00000054957245643087726600000014624084493738173589_);}
	.st97{fill:url(#SVGID_00000137834686996017304240000006381679459028144558_);}
	.st98{fill:url(#SVGID_00000136371524497513329410000017129279789673730729_);}
	.st99{fill:url(#SVGID_00000037692794462032079400000000699911182896917376_);}
	.st100{fill-rule:evenodd;clip-rule:evenodd;}
	.st101{fill-rule:evenodd;clip-rule:evenodd;fill:#FFFFFF;}
	.st102{fill:url(#SVGID_00000172417866302436142600000004556977746428550031_);}
	.st103{fill:url(#SVGID_00000120551331125117134900000010100536533932182684_);}
	.st104{fill:url(#SVGID_00000121275307917217080470000005352712644267548852_);}
	.st105{fill:url(#SVGID_00000085234655700925741810000010376974914408182424_);}
	.st106{fill:url(#SVGID_00000162311724677522932190000009427014021672467586_);}
	.st107{fill:url(#SVGID_00000013882056249194993270000014893960265916156086_);}
	.st108{fill:url(#SVGID_00000093883882742306122390000016333917808797139097_);}
	.st109{fill:url(#SVGID_00000042704228455449281670000009721016168137131930_);}
	.st110{fill:url(#SVGID_00000042008287007428350230000017701333885640673449_);}
	.st111{fill:url(#SVGID_00000018935300156063019780000005565748751216188058_);}
	.st112{fill:url(#SVGID_00000164471563610356703520000014490587915005343156_);}
	.st113{fill:url(#SVGID_00000142889495315936596340000004646896225281538482_);}
	.st114{fill:url(#SVGID_00000041287116954192353170000004061307392369715092_);}
	.st115{fill:url(#SVGID_00000111891661472371047460000018412471444486798233_);}
	.st116{fill:url(#SVGID_00000093885066791423833200000006991203649009039756_);}
	.st117{fill:url(#SVGID_00000055699490117846759420000001542654971181545402_);}
	.st118{fill:url(#SVGID_00000010999198030286872750000005262750454169972641_);}
	.st119{fill:url(#SVGID_00000085956958200563384080000011281529143156869004_);}
	.st120{fill:url(#SVGID_00000057867654631952707980000003059628256054528171_);}
	.st121{fill:url(#SVGID_00000050659504819125291030000011376957933370065826_);}
	.st122{fill:url(#SVGID_00000059992861858467886090000012669953990887121822_);}
	.st123{fill:url(#SVGID_00000078747567991650370920000010507874683542288785_);}
	.st124{fill:url(#SVGID_00000120551089877147883790000002262117155212471740_);}
	.st125{fill:url(#SVGID_00000168114104981140885400000007516612898603270551_);}
	.st126{fill:url(#SVGID_00000095320210813479073790000004803605198819561654_);}
	.st127{fill:url(#SVGID_00000034792422807884446310000006659491909748644521_);}
	.st128{fill:url(#SVGID_00000111177544305393893880000004098665492472117905_);}
	.st129{fill:url(#SVGID_00000008111848023027929600000012469905461396741026_);}
	.st130{fill:url(#SVGID_00000163759035579444545560000009585870469164732319_);}
	.st131{fill:url(#SVGID_00000176035797759688679350000015181079557744851378_);}
	.st132{fill:url(#SVGID_00000098912766654322662170000008717929838555480224_);}
	.st133{fill:url(#SVGID_00000140698962696617937030000018201997239174572172_);}
	.st134{fill:url(#SVGID_00000073699409148544758000000014807250773336991122_);}
	.st135{fill:url(#SVGID_00000114770651428490820370000006024678746238114179_);}
	.st136{fill:url(#SVGID_00000028326483184247487220000011667494859011177621_);}
	.st137{fill:url(#SVGID_00000151536673004208023840000009074035462250502531_);}
	.st138{fill:url(#SVGID_00000080177399665929332620000005515290937461214393_);}
	.st139{fill:url(#SVGID_00000153665837009503041400000004029213637151569075_);}
	.st140{fill:url(#SVGID_00000130628636945940880450000000484479051107092112_);}
	.st141{fill:url(#SVGID_00000023238782892408567020000014075049077289146508_);}
	.st142{fill:url(#SVGID_00000057113168654997332730000009216484649759787448_);}
	.st143{fill:url(#SVGID_00000120522575063751366150000004837063482471030168_);}
	.st144{fill:url(#SVGID_00000147206589878908423780000015345967789296981418_);}
	.st145{fill:url(#SVGID_00000094617799422417714190000004023455543806728335_);}
	.st146{fill:url(#SVGID_00000096741753621103389580000002464241857798950579_);}
	.st147{fill:url(#SVGID_00000143592946380798962330000009815090546848347315_);}
	.st148{fill:url(#SVGID_00000066507997385035594880000000426699602098388381_);}
	.st149{fill:url(#SVGID_00000170238777081772570850000018301512281043732613_);}
	.st150{fill:url(#SVGID_00000139294026194373156010000017738288380818558650_);}
	.st151{fill:url(#SVGID_00000145776197462147187620000002054377228954179213_);}
	.st152{fill:url(#SVGID_00000116923766655268754300000003506970687537436577_);}
	.st153{fill:url(#SVGID_00000150061749689229705320000014127509287338411684_);}
	.st154{fill:url(#SVGID_00000129191372696572339370000010285136474771173505_);}
	.st155{fill:url(#SVGID_00000073687375590540344090000001735354696636494511_);}
	.st156{fill:url(#SVGID_00000130614857354568060370000013906564422588569504_);}
	.st157{fill:url(#SVGID_00000110434294780341914880000009203527430836322463_);}
	.st158{fill:url(#SVGID_00000010290834215552824200000013975290897106510747_);}
	.st159{fill:url(#SVGID_00000155841934883383887950000003362883945887358857_);}
	.st160{fill:url(#SVGID_00000046307985128724595190000018292717654335355557_);}
	.st161{fill:url(#SVGID_00000091696121172336924180000008601345426079473284_);}
	.st162{fill:url(#SVGID_00000163792596056495935880000013393872672948739465_);}
	.st163{fill:url(#SVGID_00000052067830841379893990000016852723194486653847_);}
	.st164{fill:url(#SVGID_00000097460420211692776340000000184883396305775543_);}
	.st165{fill:url(#SVGID_00000022548817405934904200000008370175438358678437_);}
	.st166{fill:url(#SVGID_00000140697036425058351330000017606664978481927854_);}
	.st167{fill:url(#SVGID_00000066486459134118477600000001438740176199624348_);}
	.st168{fill:url(#SVGID_00000050646793459683997890000010575113418184394419_);}
	.st169{fill:url(#SVGID_00000046297637970596400910000004572373790221334409_);}
	.st170{fill:url(#SVGID_00000097489348975112252650000015543120078465305236_);}
	.st171{fill:url(#SVGID_00000052098576967658802920000017612096757366087056_);}
	.st172{fill:url(#SVGID_00000035505742895589511400000007007208844432482990_);}
	.st173{fill:url(#SVGID_00000093857048125008579240000005694704946718565545_);}
	.st174{fill:url(#SVGID_00000037687628959571716060000011368657328997535917_);}
	.st175{fill:url(#SVGID_00000165236318065609028540000008157286094181257142_);}
	.st176{fill:url(#SVGID_00000002382976702574505220000007181532778463078574_);}
	.st177{fill:url(#SVGID_00000146483881309305289750000001767440245643712131_);}
	.st178{fill:url(#SVGID_00000120543157631063890730000017939445514306619276_);}
	.st179{fill:url(#SVGID_00000001645106653501857220000012476271252827573689_);}
	.st180{fill:url(#SVGID_00000181061452551532986910000005011724304155328408_);}
	.st181{fill:url(#SVGID_00000165217719317899407360000010259944650601890226_);}
	.st182{fill:url(#SVGID_00000129886023641936607450000018381418380937028264_);}
	.st183{fill:url(#SVGID_00000091704530541643990140000003504883223948443273_);}
	.st184{fill:url(#SVGID_00000050640933362815939290000007133587444683921340_);}
	.st185{fill:url(#SVGID_00000170991546053221544100000015219886157019422082_);}
	.st186{fill:url(#SVGID_00000125584493813411699660000014265237630248052628_);}
	.st187{fill:url(#SVGID_00000093170400432642962430000006144621249519725716_);}
	.st188{fill:url(#SVGID_00000058575121435141485300000000988908141507527070_);}
	.st189{fill:url(#SVGID_00000032614966219721280100000014663582241858793908_);}
	.st190{fill:url(#SVGID_00000152245860641623698010000004138890353425852580_);}
	.st191{fill:url(#SVGID_00000044153014124193694810000014708539620941578907_);}
	.st192{fill:url(#SVGID_00000138536386716850020870000017575471027386184598_);}
	.st193{fill:url(#SVGID_00000065064727842961061140000016237603752382543540_);}
	.st194{fill:url(#SVGID_00000120559270699387539370000010005003801333637551_);}
	.st195{fill:url(#SVGID_00000025418858833219580780000015803469426973929604_);}
	.st196{fill:url(#SVGID_00000097483941960886081750000010059828745591174532_);}
	.st197{fill:url(#SVGID_00000056418307804630131720000002307314896298953614_);}
</style>
<g id="Not_Conjoined" class="st0">
	<g class="st1">
		<g>
			<g>
				<linearGradient id="SVGID_1_" gradientUnits="userSpaceOnUse" x1="140.5768" y1="140.9324" x2="140.5768" y2="10.2">
					<stop  offset="0" style="stop-color:#D6D5D5"/>
					<stop  offset="1" style="stop-color:#696666"/>
				</linearGradient>
				<path class="st3" d="M28.9,15.4c-2.4,8.4-4.8,16.8-7.2,25.2c5.6-0.4,11.1-0.8,16.7-1.2l-37,101.5h48.2l20-55.1
					c60.3,2.8,122.1,1.8,185.1-2.9l1.4-3.9h0l7-19.1l0.8-2.3l0,0L274.7,28l0,0l5-13.8C198.4,8.5,114.6,8.9,28.9,15.4z M78.8,60.6
					l8.7-23.8c45.9-1.8,91.2-1.8,135.8,0.1l-8.6,23.7C168.7,62.7,123.3,62.7,78.8,60.6z"/>
				
					<radialGradient id="SVGID_00000087380865613395827500000000873767941139279768_" cx="140.5253" cy="75.5662" r="112.3239" gradientUnits="userSpaceOnUse">
					<stop  offset="0" style="stop-color:#D6D5D5"/>
					<stop  offset="1" style="stop-color:#696666"/>
				</radialGradient>
				<path style="fill:url(#SVGID_00000087380865613395827500000000873767941139279768_);" d="M164.3,10.2c39,0,77.5,1.3,115.5,4
					l-5,13.8l-10.8,29.6l-0.8,2.3l-7,19.1h0l-1.4,3.9c-39.7,3-78.9,4.5-117.5,4.5c-22.7,0-45.2-0.5-67.5-1.5l-20,55.1H1.4l37-101.5
					c-5.5,0.4-11.1,0.8-16.7,1.2c2.4-8.4,4.8-16.8,7.2-25.2C74.6,11.9,119.7,10.2,164.3,10.2 M146.2,62.2c22.6,0,45.5-0.5,68.5-1.6
					l8.6-23.7c-22.6-0.9-45.3-1.4-68.2-1.4c-22.4,0-44.9,0.4-67.6,1.3l-8.7,23.8C101.1,61.6,123.5,62.2,146.2,62.2 M164.3,7.2
					c-44.5,0-90.1,1.8-135.6,5.2l-2.1,0.2l-0.6,2c-1.2,4.3-2.4,8.5-3.7,12.8c-1.2,4.1-2.4,8.2-3.5,12.4l-1.2,4.1l4.3-0.3
					c3.9-0.3,7.9-0.6,12-0.9l-35.4,97.2l-1.5,4h4.3h48.2h2.1l0.7-2l19.3-53c21.6,1,43.6,1.4,65.5,1.4c38.6,0,78.2-1.5,117.8-4.5
					l1.9-0.1l0.7-1.8L259,80l7-19.1l0.8-2.3L277.5,29l5-13.8l1.4-3.7l-4-0.3C242,8.5,203.1,7.2,164.3,7.2L164.3,7.2z M89.6,39.7
					c21.9-0.8,43.9-1.3,65.5-1.3c21.4,0,42.9,0.4,64,1.2l-6.6,18c-22.2,1-44.5,1.5-66.4,1.5c-21.1,0-42.3-0.5-63.1-1.4L89.6,39.7
					L89.6,39.7z"/>
			</g>
			<g>
				
					<linearGradient id="SVGID_00000173160788080356290920000000357645172502078342_" gradientUnits="userSpaceOnUse" x1="798.0177" y1="140.9324" x2="798.0177" y2="10.2422">
					<stop  offset="0" style="stop-color:#D6D5D5"/>
					<stop  offset="1" style="stop-color:#696666"/>
				</linearGradient>
				<path style="fill:url(#SVGID_00000173160788080356290920000000357645172502078342_);" d="M709,14.6l-2.3,6.4l0,0l-15,41.2l0,0
					l-8.2,22.5L663,140.9h48.2l19.5-53.5h127.8l-19.5,53.5h48.2L930.7,21h0l2.3-6.4C860.6,8.8,785.7,8.8,709,14.6z M739.8,62.2
					l9.2-25.3c43.3-1.9,85.9-1.9,127.8,0l-9.2,25.3H739.8z"/>
				
					<radialGradient id="SVGID_00000054252997538762238670000012488092636480022705_" cx="797.9589" cy="75.5873" r="109.6929" gradientUnits="userSpaceOnUse">
					<stop  offset="0" style="stop-color:#D6D5D5"/>
					<stop  offset="1" style="stop-color:#696666"/>
				</radialGradient>
				<path style="fill:url(#SVGID_00000054252997538762238670000012488092636480022705_);" d="M822.6,10.2c37.4,0,74.2,1.4,110.5,4.3
					l-2.3,6.4h0l-43.6,119.9h-48.2l19.5-53.5H730.6l-19.5,53.5H663l20.5-56.2l8.2-22.5l15-41.2l2.3-6.4
					C747.3,11.7,785.2,10.2,822.6,10.2 M739.8,62.2h127.8l9.2-25.3c-20.9-1-42.1-1.4-63.4-1.4c-21.3,0-42.8,0.5-64.4,1.4L739.8,62.2
					 M822.6,7.2c-37.3,0-75.6,1.5-113.8,4.3l-1.9,0.1l-0.7,1.8l-2.3,6.4l-15,41.2l-8.2,22.5l-20.5,56.2l-1.5,4h4.3h48.2h2.1l0.7-2
					l18.8-51.5h121.4l-18,49.5l-1.5,4h4.3h48.2h2.1l0.7-2L933.5,22l2.3-6.4l1.3-3.7l-3.9-0.3C897.1,8.7,859.9,7.2,822.6,7.2
					L822.6,7.2z M751.1,39.8c20.8-0.9,41.8-1.3,62.3-1.3c19.8,0,39.7,0.4,59.1,1.2l-7.1,19.4H744.1L751.1,39.8L751.1,39.8z"/>
			</g>
			<g>
				
					<linearGradient id="SVGID_00000057124444262430003070000016148476188291552189_" gradientUnits="userSpaceOnUse" x1="2119.512" y1="140.9324" x2="2119.512" y2="10.2422">
					<stop  offset="0" style="stop-color:#D6D5D5"/>
					<stop  offset="1" style="stop-color:#696666"/>
				</linearGradient>
				<path style="fill:url(#SVGID_00000057124444262430003070000016148476188291552189_);" d="M2030.5,14.6l-2.3,6.4l0,0l-15,41.2
					l0,0l-8.2,22.5l-20.5,56.2h48.2l19.5-53.5h127.8l-19.5,53.5h48.2L2252.2,21h0l2.3-6.4C2182.1,8.8,2107.2,8.8,2030.5,14.6z
					 M2061.3,62.2l9.2-25.3c43.3-1.9,85.9-1.9,127.8,0l-9.2,25.3H2061.3z"/>
				
					<radialGradient id="SVGID_00000045578594325026234000000009263004266874195887_" cx="2119.4534" cy="75.5873" r="109.6929" gradientUnits="userSpaceOnUse">
					<stop  offset="0" style="stop-color:#D6D5D5"/>
					<stop  offset="1" style="stop-color:#696666"/>
				</radialGradient>
				<path style="fill:url(#SVGID_00000045578594325026234000000009263004266874195887_);" d="M2144.1,10.2
					c37.4,0,74.2,1.4,110.5,4.3l-2.3,6.4h0l-43.7,119.9h-48.2l19.5-53.5h-127.8l-19.5,53.5h-48.2l20.5-56.2l8.2-22.5l15-41.2
					l2.3-6.4C2068.8,11.7,2106.7,10.2,2144.1,10.2 M2061.3,62.2h127.8l9.2-25.3c-20.9-1-42.1-1.4-63.4-1.4
					c-21.3,0-42.8,0.5-64.4,1.4L2061.3,62.2 M2144.1,7.2c-37.3,0-75.6,1.5-113.8,4.3l-1.9,0.1l-0.7,1.8l-2.3,6.4l-15,41.2l-8.2,22.5
					l-20.5,56.2l-1.5,4h4.3h48.2h2.1l0.7-2l18.8-51.5h121.4l-18,49.5l-1.5,4h4.3h48.2h2.1l0.7-2L2255,22l2.3-6.4l1.3-3.7l-3.9-0.3
					C2218.6,8.7,2181.4,7.2,2144.1,7.2L2144.1,7.2z M2072.6,39.8c20.8-0.9,41.8-1.3,62.3-1.3c19.8,0,39.7,0.4,59.1,1.2l-7.1,19.4
					h-121.4L2072.6,39.8L2072.6,39.8z"/>
			</g>
			<g>
				
					<linearGradient id="SVGID_00000080174583639238983030000016001838136073935492_" gradientUnits="userSpaceOnUse" x1="2670.1726" y1="140.9324" x2="2670.1726" y2="10.2241">
					<stop  offset="0" style="stop-color:#D6D5D5"/>
					<stop  offset="1" style="stop-color:#696666"/>
				</linearGradient>
				<polygon style="fill:url(#SVGID_00000080174583639238983030000016001838136073935492_);" points="2622.3,140.9 2670.5,140.9 
					2718,10.2 2670.2,10.2 				"/>
				
					<radialGradient id="SVGID_00000109727651742098763080000000128415543091918523_" cx="2670.168" cy="75.5782" r="60.7965" gradientUnits="userSpaceOnUse">
					<stop  offset="0" style="stop-color:#D6D5D5"/>
					<stop  offset="1" style="stop-color:#696666"/>
				</radialGradient>
				<path style="fill:url(#SVGID_00000109727651742098763080000000128415543091918523_);" d="M2718,10.2l-47.6,130.7h-48.2
					l47.9-130.7H2718 M2722.3,7.2h-4.3h-47.9h-2.1l-0.7,2l-47.9,130.7l-1.5,4h4.3h48.2h2.1l0.7-2l47.6-130.7L2722.3,7.2L2722.3,7.2z
					"/>
			</g>
			<g>
				
					<linearGradient id="SVGID_00000127761561739374935460000013599149469413935783_" gradientUnits="userSpaceOnUse" x1="2457.8665" y1="140.9324" x2="2457.8665" y2="10.2045">
					<stop  offset="0" style="stop-color:#D6D5D5"/>
					<stop  offset="1" style="stop-color:#696666"/>
				</linearGradient>
				<path style="fill:url(#SVGID_00000127761561739374935460000013599149469413935783_);" d="M2345.3,14.7l-9.2,25.3
					c31.9-2.4,63.5-3.9,94.7-4.4l-38.3,105.3h48.2l38.3-105.3c30.9,0.5,61.4,2,91.5,4.4l9.2-25.3C2503.8,8.7,2425.5,8.7,2345.3,14.7
					z"/>
				
					<radialGradient id="SVGID_00000116224342611104953220000011628085703400095399_" cx="2457.7449" cy="75.5684" r="101.4129" gradientUnits="userSpaceOnUse">
					<stop  offset="0" style="stop-color:#D6D5D5"/>
					<stop  offset="1" style="stop-color:#696666"/>
				</radialGradient>
				<path style="fill:url(#SVGID_00000116224342611104953220000011628085703400095399_);" d="M2464.1,10.2
					c39.1,0,77.6,1.5,115.5,4.5l-9.2,25.3c-30.1-2.4-60.6-3.9-91.5-4.4l-38.3,105.3h-48.2l38.3-105.3c-31.2,0.5-62.8,2-94.7,4.4
					l9.2-25.3C2385.4,11.7,2425,10.2,2464.1,10.2 M2464.1,7.2c-39,0-79.1,1.5-119.1,4.5l-1.9,0.1l-0.7,1.8l-9.2,25.3l-1.6,4.4
					l4.6-0.4c30-2.3,60.3-3.7,90.2-4.3l-36.8,101.2l-1.5,4h4.3h48.2h2.1l0.7-2L2481,38.7c30.1,0.5,60.1,2,89.2,4.3l2.3,0.2l0.8-2.1
					l9.2-25.3l1.3-3.7l-3.9-0.3C2542.1,8.7,2503.1,7.2,2464.1,7.2L2464.1,7.2z"/>
			</g>
			<g>
				
					<linearGradient id="SVGID_00000126305367208837364120000004203441569000618652_" gradientUnits="userSpaceOnUse" x1="1820.1683" y1="140.9324" x2="1820.1683" y2="10.2045">
					<stop  offset="0" style="stop-color:#D6D5D5"/>
					<stop  offset="1" style="stop-color:#696666"/>
				</linearGradient>
				<path style="fill:url(#SVGID_00000126305367208837364120000004203441569000618652_);" d="M1707.6,14.7l-9.2,25.3
					c31.9-2.4,63.5-3.9,94.7-4.4l-38.3,105.3h48.2l38.3-105.3c30.9,0.5,61.4,2,91.5,4.4l9.2-25.3C1866.1,8.7,1787.8,8.7,1707.6,14.7
					z"/>
				
					<radialGradient id="SVGID_00000006697203278137232120000015036662138258643118_" cx="1820.0468" cy="75.5684" r="101.4129" gradientUnits="userSpaceOnUse">
					<stop  offset="0" style="stop-color:#D6D5D5"/>
					<stop  offset="1" style="stop-color:#696666"/>
				</radialGradient>
				<path style="fill:url(#SVGID_00000006697203278137232120000015036662138258643118_);" d="M1826.4,10.2
					c39.1,0,77.6,1.5,115.5,4.5l-9.2,25.3c-30.1-2.4-60.6-3.9-91.5-4.4l-38.3,105.3h-48.2l38.3-105.3c-31.2,0.5-62.8,2-94.7,4.4
					l9.2-25.3C1747.7,11.7,1787.3,10.2,1826.4,10.2 M1826.4,7.2c-39,0-79.1,1.5-119.1,4.5l-1.9,0.1l-0.7,1.8l-9.2,25.3l-1.6,4.4
					l4.6-0.4c30-2.3,60.3-3.7,90.2-4.3l-36.8,101.2l-1.5,4h4.3h48.2h2.1l0.7-2l37.6-103.3c30.1,0.5,60.1,2,89.2,4.3l2.3,0.2l0.8-2.1
					l9.2-25.3l1.3-3.7l-3.9-0.3C1904.4,8.7,1865.4,7.2,1826.4,7.2L1826.4,7.2z"/>
			</g>
			<g>
				
					<linearGradient id="SVGID_00000173128434749203402930000005827043659532361124_" gradientUnits="userSpaceOnUse" x1="3701.0981" y1="140.9323" x2="3701.0981" y2="10.2045">
					<stop  offset="0" style="stop-color:#D6D5D5"/>
					<stop  offset="1" style="stop-color:#696666"/>
				</linearGradient>
				<path style="fill:url(#SVGID_00000173128434749203402930000005827043659532361124_);" d="M3831.2,40l9.2-25.3
					c-75.8-6-154.2-6-234.4,0l-9.2,25.3c63.7-4.9,126.3-5.9,187.3-3l-9.1,25.1h-138.3l-9.2,25.2h138.3l-9.7,26.7
					c-63.1,2.9-124.9,1.9-185.1-3l-9.2,25.3c75.8,6,154.2,6,234.4,0l9.2-25.3c0,0,0,0,0,0L3831.2,40C3831.2,40,3831.2,40,3831.2,40z
					"/>
				
					<radialGradient id="SVGID_00000157300626507222545570000001123827412802089384_" cx="3701.0981" cy="75.5684" r="112.3924" gradientUnits="userSpaceOnUse">
					<stop  offset="0" style="stop-color:#D6D5D5"/>
					<stop  offset="1" style="stop-color:#696666"/>
				</radialGradient>
				<path style="fill:url(#SVGID_00000157300626507222545570000001123827412802089384_);" d="M3724.9,10.2
					c39.1,0,77.6,1.5,115.5,4.5l-9.2,25.3c0,0,0,0,0,0l-25.9,71.1c0,0,0,0,0,0l-9.2,25.3c-40.1,3-79.7,4.5-118.8,4.5
					s-77.6-1.5-115.5-4.5l9.2-25.3c37.8,3.1,76.3,4.6,115.3,4.6c23.1,0,46.3-0.5,69.8-1.6l9.7-26.7h-138.3l9.2-25.2H3775l9.1-25.1
					c-22.7-1.1-45.5-1.6-68.6-1.6c-39,0-78.6,1.5-118.7,4.6l9.2-25.3C3646.2,11.7,3685.8,10.2,3724.9,10.2 M3724.9,7.2
					c-39,0-79.1,1.5-119.1,4.5l-1.9,0.1l-0.7,1.8L3594,39l-1.6,4.4l4.6-0.4c39.8-3,79.6-4.6,118.5-4.6c21.5,0,43.2,0.5,64.4,1.4
					l-7,19.3h-136.2h-2.1l-0.7,2l-9.2,25.2l-1.5,4h4.3h134l-7.6,20.8c-22.6,1-45.4,1.5-67.6,1.5c-38.8,0-77.6-1.5-115.1-4.6
					l-2.3-0.2l-0.8,2.1l-9.2,25.3l-1.3,3.7l3.9,0.3c37.8,3,76.8,4.5,115.8,4.5c39,0,79.1-1.5,119.1-4.5l1.9-0.1l0.7-1.8l9.2-25.3
					l25.9-71.1l9.2-25.3l1.3-3.7l-3.9-0.3C3802.9,8.7,3763.9,7.2,3724.9,7.2L3724.9,7.2z"/>
			</g>
			<g>
				
					<linearGradient id="SVGID_00000005237332747978554690000000490374585213263011_" gradientUnits="userSpaceOnUse" x1="462.0758" y1="140.9323" x2="462.0758" y2="10.2001">
					<stop  offset="0" style="stop-color:#D6D5D5"/>
					<stop  offset="1" style="stop-color:#696666"/>
				</linearGradient>
				<path style="fill:url(#SVGID_00000005237332747978554690000000490374585213263011_);" d="M396.6,114.1l37.8-103.9h-48.2
					l-42.7,117.3l0,0l-3.2,8.9c75.8,6,154.2,6,234.4,0l9.2-25.3C520.1,116,457.6,117,396.6,114.1z"/>
				
					<radialGradient id="SVGID_00000094582627983849407600000018035119256322437308_" cx="462.1976" cy="75.5662" r="101.4136" gradientUnits="userSpaceOnUse">
					<stop  offset="0" style="stop-color:#D6D5D5"/>
					<stop  offset="1" style="stop-color:#696666"/>
				</radialGradient>
				<path style="fill:url(#SVGID_00000094582627983849407600000018035119256322437308_);" d="M434.4,10.2l-37.8,103.9
					c22.7,1.1,45.5,1.6,68.6,1.6c39,0,78.6-1.5,118.7-4.6l-9.2,25.3c-40.1,3-79.7,4.5-118.8,4.5c-39.1,0-77.6-1.5-115.5-4.5l3.2-8.9
					l42.7-117.3H434.4 M438.7,7.2h-4.3h-48.2h-2.1l-0.7,2l-42.7,117.3l-3.2,8.9l-1.3,3.7l3.9,0.3c37.8,3,76.8,4.5,115.8,4.5
					c39,0,79.1-1.5,119.1-4.5l1.9-0.1l0.7-1.8l9.2-25.3l1.6-4.4l-4.6,0.4c-39.8,3-79.6,4.6-118.5,4.6c-21.5,0-43.2-0.5-64.4-1.4
					l36.4-100.1L438.7,7.2L438.7,7.2z"/>
			</g>
			<g>
				
					<linearGradient id="SVGID_00000165931807649395905410000006153149948329331866_" gradientUnits="userSpaceOnUse" x1="1474.1515" y1="140.9323" x2="1474.1515" y2="10.2045">
					<stop  offset="0" style="stop-color:#D6D5D5"/>
					<stop  offset="1" style="stop-color:#696666"/>
				</linearGradient>
				<path style="fill:url(#SVGID_00000165931807649395905410000006153149948329331866_);" d="M1379.1,14.7l-2.3,6.3l0,0l-24.2,66.4
					h18.8h29.3h138.1l-9.7,26.7c-63.1,2.9-124.9,1.9-185.1-3l-9.2,25.3c75.8,6,154.2,6,234.4,0l9.2-25.3h0l17.8-48.9h-12.4h-35.8
					H1410l9.1-25.1c63.1-2.9,124.9-1.9,185.1,3l9.2-25.3C1537.7,8.7,1459.3,8.7,1379.1,14.7z"/>
				
					<radialGradient id="SVGID_00000118375288970478090180000014195488277151522949_" cx="1474.1516" cy="75.5684" r="112.3924" gradientUnits="userSpaceOnUse">
					<stop  offset="0" style="stop-color:#D6D5D5"/>
					<stop  offset="1" style="stop-color:#696666"/>
				</radialGradient>
				<path style="fill:url(#SVGID_00000118375288970478090180000014195488277151522949_);" d="M1497.9,10.2
					c39.1,0,77.6,1.5,115.5,4.5l-9.2,25.3c-37.8-3.1-76.3-4.6-115.3-4.6c-23.1,0-46.3,0.5-69.8,1.6l-9.1,25.1h138.1h35.8h12.4
					l-17.8,48.9h0l-9.2,25.3c-40.1,3-79.7,4.5-118.8,4.5c-39.1,0-77.6-1.5-115.5-4.5l9.2-25.3c37.8,3.1,76.3,4.6,115.3,4.6
					c23.1,0,46.3-0.5,69.8-1.6l9.7-26.7h-138.1h-29.3h-18.8l24.2-66.4l2.3-6.3C1419.2,11.7,1458.9,10.2,1497.9,10.2 M1497.9,7.2
					c-39,0-79.1,1.5-119.1,4.5l-1.9,0.1l-0.7,1.8L1374,20l-24.2,66.4l-1.5,4h4.3h18.8h29.3h133.8l-7.6,20.8
					c-22.6,1-45.4,1.5-67.6,1.5c-38.8,0-77.6-1.5-115.1-4.6l-2.3-0.2l-0.8,2.1l-9.2,25.3l-1.3,3.7l3.9,0.3
					c37.8,3,76.8,4.5,115.8,4.5c39,0,79.1-1.5,119.1-4.5l1.9-0.1l0.7-1.8l9.2-25.3l17.8-48.9l1.5-4h-4.3h-12.4h-35.8h-133.8l7-19.2
					c22.6-1,45.4-1.5,67.6-1.5c38.8,0,77.6,1.5,115.1,4.6l2.3,0.2l0.8-2.1l9.2-25.3l1.3-3.7l-3.9-0.3
					C1575.9,8.7,1537,7.2,1497.9,7.2L1497.9,7.2z"/>
			</g>
			<g>
				
					<linearGradient id="SVGID_00000065046396711233752790000002160820019396051082_" gradientUnits="userSpaceOnUse" x1="1146.5341" y1="140.9324" x2="1146.5341" y2="10.2241">
					<stop  offset="0" style="stop-color:#D6D5D5"/>
					<stop  offset="1" style="stop-color:#696666"/>
				</linearGradient>
				<path style="fill:url(#SVGID_00000065046396711233752790000002160820019396051082_);" d="M1210.5,60.6
					c-15.2,0.7-30.4,1.2-45.5,1.4l5.6-15.3h-48.2l-5.6,15.3c-14.9-0.2-29.7-0.7-44.4-1.4l18.3-50.4h-48.2l-18.3,50.4l-8.1,22.3
					c30.1,2.4,60.7,3.8,91.5,4.3l-19.6,53.7h48.2l19.6-53.7c31.2-0.5,62.8-1.9,94.7-4.3l2.5-6.7h0l24-65.9h-48.2L1210.5,60.6z"/>
				
					<radialGradient id="SVGID_00000020388695734889239090000014029488318319720578_" cx="1146.5927" cy="75.5782" r="106.7666" gradientUnits="userSpaceOnUse">
					<stop  offset="0" style="stop-color:#D6D5D5"/>
					<stop  offset="1" style="stop-color:#696666"/>
				</radialGradient>
				<path style="fill:url(#SVGID_00000020388695734889239090000014029488318319720578_);" d="M1276.9,10.2l-24,65.9h0l-2.5,6.7
					c-31.9,2.4-63.4,3.8-94.7,4.3l-19.6,53.7h-48.2l19.6-53.7c-30.9-0.5-61.4-1.9-91.5-4.3l8.1-22.3l18.3-50.4h48.2l-18.3,50.4
					c14.7,0.7,29.5,1.2,44.4,1.4l5.6-15.3h48.2L1165,62c15.1-0.2,30.2-0.7,45.5-1.4l18.3-50.4H1276.9 M1281.2,7.2h-4.3h-48.2h-2.1
					l-0.7,2l-17.6,48.5c-13,0.6-26.1,1-39,1.2l4.1-11.2l1.5-4h-4.3h-48.2h-2.1l-0.7,2l-4.9,13.3c-12.8-0.2-25.6-0.6-38.1-1.2
					l16.9-46.5l1.5-4h-4.3h-48.2h-2.1l-0.7,2l-18.3,50.4l-8.1,22.3l-1.3,3.7l3.9,0.3c28.5,2.3,57.9,3.7,87.5,4.3l-18.1,49.8l-1.5,4
					h4.3h48.2h2.1l0.7-2l18.9-51.8c30.7-0.5,61.9-2,92.8-4.3l1.9-0.1l0.7-1.8l1.7-4.8l0.7-2l24-65.9L1281.2,7.2L1281.2,7.2z"/>
			</g>
			<g>
				
					<linearGradient id="SVGID_00000115490309177109274460000006380202336503558578_" gradientUnits="userSpaceOnUse" x1="2922.4211" y1="140.9323" x2="2922.4211" y2="10.2045">
					<stop  offset="0" style="stop-color:#D6D5D5"/>
					<stop  offset="1" style="stop-color:#696666"/>
				</linearGradient>
				<path style="fill:url(#SVGID_00000115490309177109274460000006380202336503558578_);" d="M2827.4,14.7l-2.3,6.3l0,0l-40,109.8h0
					l-2,5.6c75.8,6,154.2,6,234.4,0l9.2-25.3c0,0,0,0,0,0l25.9-71.1c0,0,0,0,0,0l9.2-25.3C2985.9,8.7,2907.6,8.7,2827.4,14.7z
					 M2977.4,114.1c-46.8,2.1-92.8,2.1-138.1,0l28-77.1c46.8-2.1,92.8-2.1,138.1,0L2977.4,114.1z"/>
				
					<radialGradient id="SVGID_00000039816789410477731030000010892179538959246758_" cx="2922.4211" cy="75.5684" r="112.3925" gradientUnits="userSpaceOnUse">
					<stop  offset="0" style="stop-color:#D6D5D5"/>
					<stop  offset="1" style="stop-color:#696666"/>
				</radialGradient>
				<path style="fill:url(#SVGID_00000039816789410477731030000010892179538959246758_);" d="M2946.2,10.2
					c39.1,0,77.6,1.5,115.5,4.5l-9.2,25.3c0,0,0,0,0,0l-25.9,71.1c0,0,0,0,0,0l-9.2,25.3c-40.1,3-79.7,4.5-118.8,4.5
					s-77.6-1.5-115.5-4.5l2-5.6h0l40-109.8l2.3-6.3C2867.5,11.7,2907.1,10.2,2946.2,10.2 M2907.8,115.7c23,0,46.2-0.5,69.6-1.6
					l28-77.1c-22.6-1.1-45.4-1.6-68.4-1.6c-23,0-46.2,0.5-69.6,1.6l-28,77.1C2862,115.2,2884.8,115.7,2907.8,115.7 M2946.2,7.2
					c-39,0-79.1,1.5-119.1,4.5l-1.9,0.1l-0.7,1.8l-2.3,6.3l-40,109.8l-2,5.6l-1.3,3.7l3.9,0.3c37.8,3,76.8,4.5,115.8,4.5
					c39,0,79.1-1.5,119.1-4.5l1.9-0.1l0.7-1.8l9.2-25.3l25.9-71.1l9.2-25.3l1.3-3.7l-3.9-0.3C3024.2,8.7,2985.2,7.2,2946.2,7.2
					L2946.2,7.2z M2869.6,39.9c22.6-1,45.3-1.5,67.5-1.5c21.5,0,43.1,0.5,64.2,1.4l-26,71.3c-22.6,1-45.3,1.5-67.5,1.5
					c-21.5,0-43.1-0.5-64.2-1.4L2869.6,39.9L2869.6,39.9z"/>
			</g>
			<g>
				
					<linearGradient id="SVGID_00000057845715441443356900000002199426254476010646_" gradientUnits="userSpaceOnUse" x1="3266.4653" y1="140.9324" x2="3266.4653" y2="4.9739">
					<stop  offset="0" style="stop-color:#D6D5D5"/>
					<stop  offset="1" style="stop-color:#696666"/>
				</linearGradient>
				<path style="fill:url(#SVGID_00000057845715441443356900000002199426254476010646_);" d="M3397.4,40l9.2-25.3
					c-60.2-4.8-122.1-5.8-185.1-2.9L3224,5h-48.2l-49.5,136h48.2L3212.3,37c46.8-2.1,92.8-2.1,138.1,0l-37.8,103.9h48.2L3397.4,40
					C3397.4,40,3397.4,40,3397.4,40z"/>
				
					<radialGradient id="SVGID_00000047779914657659466750000012486768649062721972_" cx="3266.4065" cy="72.9531" r="113.7607" gradientUnits="userSpaceOnUse">
					<stop  offset="0" style="stop-color:#D6D5D5"/>
					<stop  offset="1" style="stop-color:#696666"/>
				</radialGradient>
				<path style="fill:url(#SVGID_00000047779914657659466750000012486768649062721972_);" d="M3224,5l-2.5,6.8
					c23.4-1,46.7-1.6,69.8-1.6c39,0,77.5,1.5,115.4,4.5l-9.2,25.3c0,0,0,0,0,0l-36.7,100.9h-48.2L3350.3,37
					c-22.6-1.1-45.4-1.6-68.4-1.6c-23,0-46.2,0.5-69.6,1.6l-37.8,103.9h-48.2l49.5-136H3224 M3228.2,2h-4.3h-48.2h-2.1l-0.7,2
					l-49.5,136l-1.5,4h4.3h48.2h2.1l0.7-2l37.1-102c22.6-1,45.3-1.5,67.5-1.5c21.5,0,43.1,0.5,64.2,1.4l-36.4,100.1l-1.5,4h4.3h48.2
					h2.1l0.7-2l36-98.9h0l0.7-2l9.2-25.3l1.3-3.7l-3.9-0.3c-37.7-3-76.6-4.5-115.6-4.5c-21.5,0-43.5,0.5-65.4,1.4l0.9-2.6L3228.2,2
					L3228.2,2z"/>
			</g>
			<path d="M3424.8,128.9c-0.1-0.4-0.1-1-0.1-1.7l-0.1-2.9c-0.1-1.4-0.3-2.5-0.9-3.1c-0.3-0.5-0.8-0.9-1.2-1.2
				c0.6-0.6,1.2-1.1,1.7-1.8c0.6-0.9,0.9-2.1,0.9-3.4c0-2.7-1.2-4.6-3.4-5.7c-1.2-0.5-2.6-0.8-4.3-0.8h-10.7v23h4.1V122h6.2
				c1.1,0,2,0.2,2.5,0.3c0.8,0.5,1.2,1.2,1.3,2.5l0.2,3.6c0.1,0.9,0.1,1.5,0.2,1.8l0.3,0.8l0.1,0.3h4.5V130l-0.3-0.1
				C3425.2,129.8,3425,129.5,3424.8,128.9z M3420,117.6c-0.7,0.5-1.7,0.7-3,0.7h-6.3V112h6.7c1,0,1.7,0.1,2.2,0.4
				c0.9,0.4,1.4,1.3,1.4,2.7C3421,116.3,3420.7,117.2,3420,117.6z"/>
			<path d="M3415.4,99.7c-11.4,0-20.6,9.2-20.6,20.7c0,5.5,2.1,10.7,6,14.6c3.9,3.8,9.2,6,14.7,6c5.5,0,10.7-2.2,14.6-6
				c3.8-3.9,6-9.1,6-14.6c0-5.6-2.2-10.8-6-14.6C3426.1,101.8,3420.9,99.7,3415.4,99.7z M3415.4,137.4c-4.5,0-8.9-1.7-12.2-5
				c-3.2-3.2-5-7.5-5-12.1c0-4.7,1.8-9,5-12.2c3.3-3.2,7.7-5,12.2-5c4.6,0,8.9,1.8,12.1,5c3.3,3.2,5,7.5,5,12.2
				C3432.5,129.8,3424.8,137.4,3415.4,137.4z"/>
		</g>
	</g>
</g>
<g id="Conjoined">
	<g>
		<g>
			
				<linearGradient id="SVGID_00000013163692295045233400000016283351372793564335_" gradientUnits="userSpaceOnUse" x1="140.5768" y1="140.9324" x2="140.5768" y2="10.2">
				<stop  offset="0" style="stop-color:#D6D5D5"/>
				<stop  offset="1" style="stop-color:#696666"/>
			</linearGradient>
			<path style="fill:url(#SVGID_00000013163692295045233400000016283351372793564335_);" d="M28.9,15.4c-2.4,8.4-4.8,16.8-7.2,25.2
				c5.6-0.4,11.1-0.8,16.7-1.2l-37,101.5h48.2l20-55.1c60.3,2.8,122.1,1.8,185.1-2.9l1.4-3.9h0l7-19.1l0.8-2.3l0,0L274.7,28l0,0
				l5-13.8C198.4,8.5,114.6,8.9,28.9,15.4z M78.8,60.6l8.7-23.8c45.9-1.8,91.2-1.8,135.8,0.1l-8.6,23.7
				C168.7,62.7,123.3,62.7,78.8,60.6z"/>
			
				<radialGradient id="SVGID_00000047043308611704478000000012091346520229575822_" cx="140.5253" cy="75.5662" r="112.3239" gradientUnits="userSpaceOnUse">
				<stop  offset="0" style="stop-color:#D6D5D5"/>
				<stop  offset="1" style="stop-color:#696666"/>
			</radialGradient>
			<path style="fill:url(#SVGID_00000047043308611704478000000012091346520229575822_);" d="M164.3,10.2c39,0,77.5,1.3,115.5,4
				l-5,13.8l-10.8,29.6l-0.8,2.3l-7,19.1h0l-1.4,3.9c-39.7,3-78.9,4.5-117.5,4.5c-22.7,0-45.2-0.5-67.5-1.5l-20,55.1H1.4l37-101.5
				c-5.5,0.4-11.1,0.8-16.7,1.2c2.4-8.4,4.8-16.8,7.2-25.2C74.6,11.9,119.7,10.2,164.3,10.2 M146.2,62.2c22.6,0,45.5-0.5,68.5-1.6
				l8.6-23.7c-22.6-0.9-45.3-1.4-68.2-1.4c-22.4,0-44.9,0.4-67.6,1.3l-8.7,23.8C101.1,61.6,123.5,62.2,146.2,62.2 M164.3,7.2
				c-44.5,0-90.1,1.8-135.6,5.2l-2.1,0.2l-0.6,2c-1.2,4.3-2.4,8.5-3.7,12.8c-1.2,4.1-2.4,8.2-3.5,12.4l-1.2,4.1l4.3-0.3
				c3.9-0.3,7.9-0.6,12-0.9l-35.4,97.2l-1.5,4h4.3h48.2h2.1l0.7-2l19.3-53c21.6,1,43.6,1.4,65.5,1.4c38.6,0,78.2-1.5,117.8-4.5
				l1.9-0.1l0.7-1.8L259,80l7-19.1l0.8-2.3L277.5,29l5-13.8l1.4-3.7l-4-0.3C242,8.5,203.1,7.2,164.3,7.2L164.3,7.2z M89.6,39.7
				c21.9-0.8,43.9-1.3,65.5-1.3c21.4,0,42.9,0.4,64,1.2l-6.6,18c-22.2,1-44.5,1.5-66.4,1.5c-21.1,0-42.3-0.5-63.1-1.4L89.6,39.7
				L89.6,39.7z"/>
		</g>
		<g>
			
				<linearGradient id="SVGID_00000170270905151673948030000017950322511850667710_" gradientUnits="userSpaceOnUse" x1="798.0177" y1="140.9324" x2="798.0177" y2="10.2422">
				<stop  offset="0" style="stop-color:#D6D5D5"/>
				<stop  offset="1" style="stop-color:#696666"/>
			</linearGradient>
			<path style="fill:url(#SVGID_00000170270905151673948030000017950322511850667710_);" d="M709,14.6l-2.3,6.4l0,0l-15,41.2l0,0
				l-8.2,22.5L663,140.9h48.2l19.5-53.5h127.8l-19.5,53.5h48.2L930.7,21h0l2.3-6.4C860.6,8.8,785.7,8.8,709,14.6z M739.8,62.2
				l9.2-25.3c43.3-1.9,85.9-1.9,127.8,0l-9.2,25.3H739.8z"/>
			
				<radialGradient id="SVGID_00000011745078685023014020000007570562411344056962_" cx="797.9589" cy="75.5873" r="109.6929" gradientUnits="userSpaceOnUse">
				<stop  offset="0" style="stop-color:#D6D5D5"/>
				<stop  offset="1" style="stop-color:#696666"/>
			</radialGradient>
			<path style="fill:url(#SVGID_00000011745078685023014020000007570562411344056962_);" d="M822.6,10.2c37.4,0,74.2,1.4,110.5,4.3
				l-2.3,6.4h0l-43.6,119.9h-48.2l19.5-53.5H730.6l-19.5,53.5H663l20.5-56.2l8.2-22.5l15-41.2l2.3-6.4
				C747.3,11.7,785.2,10.2,822.6,10.2 M739.8,62.2h127.8l9.2-25.3c-20.9-1-42.1-1.4-63.4-1.4c-21.3,0-42.8,0.5-64.4,1.4L739.8,62.2
				 M822.6,7.2c-37.3,0-75.6,1.5-113.8,4.3l-1.9,0.1l-0.7,1.8l-2.3,6.4l-15,41.2l-8.2,22.5l-20.5,56.2l-1.5,4h4.3h48.2h2.1l0.7-2
				l18.8-51.5h121.4l-18,49.5l-1.5,4h4.3h48.2h2.1l0.7-2L933.5,22l2.3-6.4l1.3-3.7l-3.9-0.3C897.1,8.7,859.9,7.2,822.6,7.2
				L822.6,7.2z M751.1,39.8c20.8-0.9,41.8-1.3,62.3-1.3c19.8,0,39.7,0.4,59.1,1.2l-7.1,19.4H744.1L751.1,39.8L751.1,39.8z"/>
		</g>
		<g>
			
				<linearGradient id="SVGID_00000170244384973945824660000001648851804849099693_" gradientUnits="userSpaceOnUse" x1="2119.512" y1="140.9324" x2="2119.512" y2="10.2422">
				<stop  offset="0" style="stop-color:#D6D5D5"/>
				<stop  offset="1" style="stop-color:#696666"/>
			</linearGradient>
			<path style="fill:url(#SVGID_00000170244384973945824660000001648851804849099693_);" d="M2030.5,14.6l-2.3,6.4l0,0l-15,41.2l0,0
				l-8.2,22.5l-20.5,56.2h48.2l19.5-53.5h127.8l-19.5,53.5h48.2L2252.2,21h0l2.3-6.4C2182.1,8.8,2107.2,8.8,2030.5,14.6z
				 M2061.3,62.2l9.2-25.3c43.3-1.9,85.9-1.9,127.8,0l-9.2,25.3H2061.3z"/>
			
				<radialGradient id="SVGID_00000122687000028751068480000012298693619816528802_" cx="2119.4534" cy="75.5873" r="109.6929" gradientUnits="userSpaceOnUse">
				<stop  offset="0" style="stop-color:#D6D5D5"/>
				<stop  offset="1" style="stop-color:#696666"/>
			</radialGradient>
			<path style="fill:url(#SVGID_00000122687000028751068480000012298693619816528802_);" d="M2144.1,10.2c37.4,0,74.2,1.4,110.5,4.3
				l-2.3,6.4h0l-43.7,119.9h-48.2l19.5-53.5h-127.8l-19.5,53.5h-48.2l20.5-56.2l8.2-22.5l15-41.2l2.3-6.4
				C2068.8,11.7,2106.7,10.2,2144.1,10.2 M2061.3,62.2h127.8l9.2-25.3c-20.9-1-42.1-1.4-63.4-1.4c-21.3,0-42.8,0.5-64.4,1.4
				L2061.3,62.2 M2144.1,7.2c-37.3,0-75.6,1.5-113.8,4.3l-1.9,0.1l-0.7,1.8l-2.3,6.4l-15,41.2l-8.2,22.5l-20.5,56.2l-1.5,4h4.3h48.2
				h2.1l0.7-2l18.8-51.5h121.4l-18,49.5l-1.5,4h4.3h48.2h2.1l0.7-2L2255,22l2.3-6.4l1.3-3.7l-3.9-0.3
				C2218.6,8.7,2181.4,7.2,2144.1,7.2L2144.1,7.2z M2072.6,39.8c20.8-0.9,41.8-1.3,62.3-1.3c19.8,0,39.7,0.4,59.1,1.2l-7.1,19.4
				h-121.4L2072.6,39.8L2072.6,39.8z"/>
		</g>
		<g>
			
				<linearGradient id="SVGID_00000132054315892575530230000000475622220947973774_" gradientUnits="userSpaceOnUse" x1="2670.1726" y1="140.9324" x2="2670.1726" y2="10.2241">
				<stop  offset="0" style="stop-color:#D6D5D5"/>
				<stop  offset="1" style="stop-color:#696666"/>
			</linearGradient>
			<polygon style="fill:url(#SVGID_00000132054315892575530230000000475622220947973774_);" points="2622.3,140.9 2670.5,140.9 
				2718,10.2 2670.2,10.2 			"/>
			
				<radialGradient id="SVGID_00000044867207810984614150000009357080993098890167_" cx="2670.168" cy="75.5782" r="60.7965" gradientUnits="userSpaceOnUse">
				<stop  offset="0" style="stop-color:#D6D5D5"/>
				<stop  offset="1" style="stop-color:#696666"/>
			</radialGradient>
			<path style="fill:url(#SVGID_00000044867207810984614150000009357080993098890167_);" d="M2718,10.2l-47.6,130.7h-48.2
				l47.9-130.7H2718 M2722.3,7.2h-4.3h-47.9h-2.1l-0.7,2l-47.9,130.7l-1.5,4h4.3h48.2h2.1l0.7-2l47.6-130.7L2722.3,7.2L2722.3,7.2z"
				/>
		</g>
		<g>
			
				<linearGradient id="SVGID_00000078742786693670549500000001196011586866218651_" gradientUnits="userSpaceOnUse" x1="2457.8665" y1="140.9324" x2="2457.8665" y2="10.2045">
				<stop  offset="0" style="stop-color:#D6D5D5"/>
				<stop  offset="1" style="stop-color:#696666"/>
			</linearGradient>
			<path style="fill:url(#SVGID_00000078742786693670549500000001196011586866218651_);" d="M2345.3,14.7l-9.2,25.3
				c31.9-2.4,63.5-3.9,94.7-4.4l-38.3,105.3h48.2l38.3-105.3c30.9,0.5,61.4,2,91.5,4.4l9.2-25.3C2503.8,8.7,2425.5,8.7,2345.3,14.7z
				"/>
			
				<radialGradient id="SVGID_00000028303761646249400560000005551035913035147951_" cx="2457.7449" cy="75.5684" r="101.4129" gradientUnits="userSpaceOnUse">
				<stop  offset="0" style="stop-color:#D6D5D5"/>
				<stop  offset="1" style="stop-color:#696666"/>
			</radialGradient>
			<path style="fill:url(#SVGID_00000028303761646249400560000005551035913035147951_);" d="M2464.1,10.2c39.1,0,77.6,1.5,115.5,4.5
				l-9.2,25.3c-30.1-2.4-60.6-3.9-91.5-4.4l-38.3,105.3h-48.2l38.3-105.3c-31.2,0.5-62.8,2-94.7,4.4l9.2-25.3
				C2385.4,11.7,2425,10.2,2464.1,10.2 M2464.1,7.2c-39,0-79.1,1.5-119.1,4.5l-1.9,0.1l-0.7,1.8l-9.2,25.3l-1.6,4.4l4.6-0.4
				c30-2.3,60.3-3.7,90.2-4.3l-36.8,101.2l-1.5,4h4.3h48.2h2.1l0.7-2L2481,38.7c30.1,0.5,60.1,2,89.2,4.3l2.3,0.2l0.8-2.1l9.2-25.3
				l1.3-3.7l-3.9-0.3C2542.1,8.7,2503.1,7.2,2464.1,7.2L2464.1,7.2z"/>
		</g>
		<g>
			
				<linearGradient id="SVGID_00000005243717825752565070000014480469964891713189_" gradientUnits="userSpaceOnUse" x1="1820.1683" y1="140.9324" x2="1820.1683" y2="10.2045">
				<stop  offset="0" style="stop-color:#D6D5D5"/>
				<stop  offset="1" style="stop-color:#696666"/>
			</linearGradient>
			<path style="fill:url(#SVGID_00000005243717825752565070000014480469964891713189_);" d="M1707.6,14.7l-9.2,25.3
				c31.9-2.4,63.5-3.9,94.7-4.4l-38.3,105.3h48.2l38.3-105.3c30.9,0.5,61.4,2,91.5,4.4l9.2-25.3C1866.1,8.7,1787.8,8.7,1707.6,14.7z
				"/>
			
				<radialGradient id="SVGID_00000029043626824244756120000011132204925736161972_" cx="1820.0468" cy="75.5684" r="101.4129" gradientUnits="userSpaceOnUse">
				<stop  offset="0" style="stop-color:#D6D5D5"/>
				<stop  offset="1" style="stop-color:#696666"/>
			</radialGradient>
			<path style="fill:url(#SVGID_00000029043626824244756120000011132204925736161972_);" d="M1826.4,10.2c39.1,0,77.6,1.5,115.5,4.5
				l-9.2,25.3c-30.1-2.4-60.6-3.9-91.5-4.4l-38.3,105.3h-48.2l38.3-105.3c-31.2,0.5-62.8,2-94.7,4.4l9.2-25.3
				C1747.7,11.7,1787.3,10.2,1826.4,10.2 M1826.4,7.2c-39,0-79.1,1.5-119.1,4.5l-1.9,0.1l-0.7,1.8l-9.2,25.3l-1.6,4.4l4.6-0.4
				c30-2.3,60.3-3.7,90.2-4.3l-36.8,101.2l-1.5,4h4.3h48.2h2.1l0.7-2l37.6-103.3c30.1,0.5,60.1,2,89.2,4.3l2.3,0.2l0.8-2.1l9.2-25.3
				l1.3-3.7l-3.9-0.3C1904.4,8.7,1865.4,7.2,1826.4,7.2L1826.4,7.2z"/>
		</g>
		<g>
			
				<linearGradient id="SVGID_00000081629664887189119900000014198803657591210939_" gradientUnits="userSpaceOnUse" x1="3701.0981" y1="140.9323" x2="3701.0981" y2="10.2045">
				<stop  offset="0" style="stop-color:#D6D5D5"/>
				<stop  offset="1" style="stop-color:#696666"/>
			</linearGradient>
			<path style="fill:url(#SVGID_00000081629664887189119900000014198803657591210939_);" d="M3831.2,40l9.2-25.3
				c-75.8-6-154.2-6-234.4,0l-9.2,25.3c63.7-4.9,126.3-5.9,187.3-3l-9.1,25.1h-138.3l-9.2,25.2h138.3l-9.7,26.7
				c-63.1,2.9-124.9,1.9-185.1-3l-9.2,25.3c75.8,6,154.2,6,234.4,0l9.2-25.3c0,0,0,0,0,0L3831.2,40C3831.2,40,3831.2,40,3831.2,40z"
				/>
			
				<radialGradient id="SVGID_00000007417878668995949430000001188960415180676766_" cx="3701.0981" cy="75.5684" r="112.3924" gradientUnits="userSpaceOnUse">
				<stop  offset="0" style="stop-color:#D6D5D5"/>
				<stop  offset="1" style="stop-color:#696666"/>
			</radialGradient>
			<path style="fill:url(#SVGID_00000007417878668995949430000001188960415180676766_);" d="M3724.9,10.2c39.1,0,77.6,1.5,115.5,4.5
				l-9.2,25.3c0,0,0,0,0,0l-25.9,71.1c0,0,0,0,0,0l-9.2,25.3c-40.1,3-79.7,4.5-118.8,4.5s-77.6-1.5-115.5-4.5l9.2-25.3
				c37.8,3.1,76.3,4.6,115.3,4.6c23.1,0,46.3-0.5,69.8-1.6l9.7-26.7h-138.3l9.2-25.2H3775l9.1-25.1c-22.7-1.1-45.5-1.6-68.6-1.6
				c-39,0-78.6,1.5-118.7,4.6l9.2-25.3C3646.2,11.7,3685.8,10.2,3724.9,10.2 M3724.9,7.2c-39,0-79.1,1.5-119.1,4.5l-1.9,0.1
				l-0.7,1.8L3594,39l-1.6,4.4l4.6-0.4c39.8-3,79.6-4.6,118.5-4.6c21.5,0,43.2,0.5,64.4,1.4l-7,19.3h-136.2h-2.1l-0.7,2l-9.2,25.2
				l-1.5,4h4.3h134l-7.6,20.8c-22.6,1-45.4,1.5-67.6,1.5c-38.8,0-77.6-1.5-115.1-4.6l-2.3-0.2l-0.8,2.1l-9.2,25.3l-1.3,3.7l3.9,0.3
				c37.8,3,76.8,4.5,115.8,4.5c39,0,79.1-1.5,119.1-4.5l1.9-0.1l0.7-1.8l9.2-25.3l25.9-71.1l9.2-25.3l1.3-3.7l-3.9-0.3
				C3802.9,8.7,3763.9,7.2,3724.9,7.2L3724.9,7.2z"/>
		</g>
		<g>
			
				<linearGradient id="SVGID_00000009573398832837188230000001050833250842675101_" gradientUnits="userSpaceOnUse" x1="462.0758" y1="140.9323" x2="462.0758" y2="10.2001">
				<stop  offset="0" style="stop-color:#D6D5D5"/>
				<stop  offset="1" style="stop-color:#696666"/>
			</linearGradient>
			<path style="fill:url(#SVGID_00000009573398832837188230000001050833250842675101_);" d="M396.6,114.1l37.8-103.9h-48.2
				l-42.7,117.3l0,0l-3.2,8.9c75.8,6,154.2,6,234.4,0l9.2-25.3C520.1,116,457.6,117,396.6,114.1z"/>
			
				<radialGradient id="SVGID_00000057109798444613850640000001411288253764632192_" cx="462.1976" cy="75.5662" r="101.4136" gradientUnits="userSpaceOnUse">
				<stop  offset="0" style="stop-color:#D6D5D5"/>
				<stop  offset="1" style="stop-color:#696666"/>
			</radialGradient>
			<path style="fill:url(#SVGID_00000057109798444613850640000001411288253764632192_);" d="M434.4,10.2l-37.8,103.9
				c22.7,1.1,45.5,1.6,68.6,1.6c39,0,78.6-1.5,118.7-4.6l-9.2,25.3c-40.1,3-79.7,4.5-118.8,4.5c-39.1,0-77.6-1.5-115.5-4.5l3.2-8.9
				l42.7-117.3H434.4 M438.7,7.2h-4.3h-48.2h-2.1l-0.7,2l-42.7,117.3l-3.2,8.9l-1.3,3.7l3.9,0.3c37.8,3,76.8,4.5,115.8,4.5
				c39,0,79.1-1.5,119.1-4.5l1.9-0.1l0.7-1.8l9.2-25.3l1.6-4.4l-4.6,0.4c-39.8,3-79.6,4.6-118.5,4.6c-21.5,0-43.2-0.5-64.4-1.4
				l36.4-100.1L438.7,7.2L438.7,7.2z"/>
		</g>
		<g>
			
				<linearGradient id="SVGID_00000064346569361858481560000012250417497940383920_" gradientUnits="userSpaceOnUse" x1="1474.1515" y1="140.9323" x2="1474.1515" y2="10.2045">
				<stop  offset="0" style="stop-color:#D6D5D5"/>
				<stop  offset="1" style="stop-color:#696666"/>
			</linearGradient>
			<path style="fill:url(#SVGID_00000064346569361858481560000012250417497940383920_);" d="M1379.1,14.7l-2.3,6.3l0,0l-24.2,66.4
				h18.8h29.3h138.1l-9.7,26.7c-63.1,2.9-124.9,1.9-185.1-3l-9.2,25.3c75.8,6,154.2,6,234.4,0l9.2-25.3h0l17.8-48.9h-12.4h-35.8
				H1410l9.1-25.1c63.1-2.9,124.9-1.9,185.1,3l9.2-25.3C1537.7,8.7,1459.3,8.7,1379.1,14.7z"/>
			
				<radialGradient id="SVGID_00000118383177212828327710000009378861774526016444_" cx="1474.1516" cy="75.5684" r="112.3924" gradientUnits="userSpaceOnUse">
				<stop  offset="0" style="stop-color:#D6D5D5"/>
				<stop  offset="1" style="stop-color:#696666"/>
			</radialGradient>
			<path style="fill:url(#SVGID_00000118383177212828327710000009378861774526016444_);" d="M1497.9,10.2c39.1,0,77.6,1.5,115.5,4.5
				l-9.2,25.3c-37.8-3.1-76.3-4.6-115.3-4.6c-23.1,0-46.3,0.5-69.8,1.6l-9.1,25.1h138.1h35.8h12.4l-17.8,48.9h0l-9.2,25.3
				c-40.1,3-79.7,4.5-118.8,4.5c-39.1,0-77.6-1.5-115.5-4.5l9.2-25.3c37.8,3.1,76.3,4.6,115.3,4.6c23.1,0,46.3-0.5,69.8-1.6
				l9.7-26.7h-138.1h-29.3h-18.8l24.2-66.4l2.3-6.3C1419.2,11.7,1458.9,10.2,1497.9,10.2 M1497.9,7.2c-39,0-79.1,1.5-119.1,4.5
				l-1.9,0.1l-0.7,1.8L1374,20l-24.2,66.4l-1.5,4h4.3h18.8h29.3h133.8l-7.6,20.8c-22.6,1-45.4,1.5-67.6,1.5
				c-38.8,0-77.6-1.5-115.1-4.6l-2.3-0.2l-0.8,2.1l-9.2,25.3l-1.3,3.7l3.9,0.3c37.8,3,76.8,4.5,115.8,4.5c39,0,79.1-1.5,119.1-4.5
				l1.9-0.1l0.7-1.8l9.2-25.3l17.8-48.9l1.5-4h-4.3h-12.4h-35.8h-133.8l7-19.2c22.6-1,45.4-1.5,67.6-1.5c38.8,0,77.6,1.5,115.1,4.6
				l2.3,0.2l0.8-2.1l9.2-25.3l1.3-3.7l-3.9-0.3C1575.9,8.7,1537,7.2,1497.9,7.2L1497.9,7.2z"/>
		</g>
		<g>
			
				<linearGradient id="SVGID_00000093885090056587471390000018336699736575296418_" gradientUnits="userSpaceOnUse" x1="1146.5341" y1="140.9324" x2="1146.5341" y2="10.2241">
				<stop  offset="0" style="stop-color:#D6D5D5"/>
				<stop  offset="1" style="stop-color:#696666"/>
			</linearGradient>
			<path style="fill:url(#SVGID_00000093885090056587471390000018336699736575296418_);" d="M1210.5,60.6
				c-15.2,0.7-30.4,1.2-45.5,1.4l5.6-15.3h-48.2l-5.6,15.3c-14.9-0.2-29.7-0.7-44.4-1.4l18.3-50.4h-48.2l-18.3,50.4l-8.1,22.3
				c30.1,2.4,60.7,3.8,91.5,4.3l-19.6,53.7h48.2l19.6-53.7c31.2-0.5,62.8-1.9,94.7-4.3l2.5-6.7h0l24-65.9h-48.2L1210.5,60.6z"/>
			
				<radialGradient id="SVGID_00000159438476070675605680000016013258433173516980_" cx="1146.5927" cy="75.5782" r="106.7666" gradientUnits="userSpaceOnUse">
				<stop  offset="0" style="stop-color:#D6D5D5"/>
				<stop  offset="1" style="stop-color:#696666"/>
			</radialGradient>
			<path style="fill:url(#SVGID_00000159438476070675605680000016013258433173516980_);" d="M1276.9,10.2l-24,65.9h0l-2.5,6.7
				c-31.9,2.4-63.4,3.8-94.7,4.3l-19.6,53.7h-48.2l19.6-53.7c-30.9-0.5-61.4-1.9-91.5-4.3l8.1-22.3l18.3-50.4h48.2l-18.3,50.4
				c14.7,0.7,29.5,1.2,44.4,1.4l5.6-15.3h48.2L1165,62c15.1-0.2,30.2-0.7,45.5-1.4l18.3-50.4H1276.9 M1281.2,7.2h-4.3h-48.2h-2.1
				l-0.7,2l-17.6,48.5c-13,0.6-26.1,1-39,1.2l4.1-11.2l1.5-4h-4.3h-48.2h-2.1l-0.7,2l-4.9,13.3c-12.8-0.2-25.6-0.6-38.1-1.2
				l16.9-46.5l1.5-4h-4.3h-48.2h-2.1l-0.7,2l-18.3,50.4l-8.1,22.3l-1.3,3.7l3.9,0.3c28.5,2.3,57.9,3.7,87.5,4.3l-18.1,49.8l-1.5,4
				h4.3h48.2h2.1l0.7-2l18.9-51.8c30.7-0.5,61.9-2,92.8-4.3l1.9-0.1l0.7-1.8l1.7-4.8l0.7-2l24-65.9L1281.2,7.2L1281.2,7.2z"/>
		</g>
		<g>
			
				<linearGradient id="SVGID_00000111913268014629747650000013763336861769247627_" gradientUnits="userSpaceOnUse" x1="2922.4211" y1="140.9323" x2="2922.4211" y2="10.2045">
				<stop  offset="0" style="stop-color:#D6D5D5"/>
				<stop  offset="1" style="stop-color:#696666"/>
			</linearGradient>
			<path style="fill:url(#SVGID_00000111913268014629747650000013763336861769247627_);" d="M2827.4,14.7l-2.3,6.3l0,0l-40,109.8h0
				l-2,5.6c75.8,6,154.2,6,234.4,0l9.2-25.3c0,0,0,0,0,0l25.9-71.1c0,0,0,0,0,0l9.2-25.3C2985.9,8.7,2907.6,8.7,2827.4,14.7z
				 M2977.4,114.1c-46.8,2.1-92.8,2.1-138.1,0l28-77.1c46.8-2.1,92.8-2.1,138.1,0L2977.4,114.1z"/>
			
				<radialGradient id="SVGID_00000103256934567147660110000014649621066296038035_" cx="2922.4211" cy="75.5684" r="112.3925" gradientUnits="userSpaceOnUse">
				<stop  offset="0" style="stop-color:#D6D5D5"/>
				<stop  offset="1" style="stop-color:#696666"/>
			</radialGradient>
			<path style="fill:url(#SVGID_00000103256934567147660110000014649621066296038035_);" d="M2946.2,10.2c39.1,0,77.6,1.5,115.5,4.5
				l-9.2,25.3c0,0,0,0,0,0l-25.9,71.1c0,0,0,0,0,0l-9.2,25.3c-40.1,3-79.7,4.5-118.8,4.5s-77.6-1.5-115.5-4.5l2-5.6h0l40-109.8
				l2.3-6.3C2867.5,11.7,2907.1,10.2,2946.2,10.2 M2907.8,115.7c23,0,46.2-0.5,69.6-1.6l28-77.1c-22.6-1.1-45.4-1.6-68.4-1.6
				c-23,0-46.2,0.5-69.6,1.6l-28,77.1C2862,115.2,2884.8,115.7,2907.8,115.7 M2946.2,7.2c-39,0-79.1,1.5-119.1,4.5l-1.9,0.1
				l-0.7,1.8l-2.3,6.3l-40,109.8l-2,5.6l-1.3,3.7l3.9,0.3c37.8,3,76.8,4.5,115.8,4.5c39,0,79.1-1.5,119.1-4.5l1.9-0.1l0.7-1.8
				l9.2-25.3l25.9-71.1l9.2-25.3l1.3-3.7l-3.9-0.3C3024.2,8.7,2985.2,7.2,2946.2,7.2L2946.2,7.2z M2869.6,39.9
				c22.6-1,45.3-1.5,67.5-1.5c21.5,0,43.1,0.5,64.2,1.4l-26,71.3c-22.6,1-45.3,1.5-67.5,1.5c-21.5,0-43.1-0.5-64.2-1.4L2869.6,39.9
				L2869.6,39.9z"/>
		</g>
		<g>
			
				<linearGradient id="SVGID_00000005964093912504403530000009998971466825130156_" gradientUnits="userSpaceOnUse" x1="3266.4653" y1="140.9324" x2="3266.4653" y2="4.9739">
				<stop  offset="0" style="stop-color:#D6D5D5"/>
				<stop  offset="1" style="stop-color:#696666"/>
			</linearGradient>
			<path style="fill:url(#SVGID_00000005964093912504403530000009998971466825130156_);" d="M3397.4,40l9.2-25.3
				c-60.2-4.8-122.1-5.8-185.1-2.9L3224,5h-48.2l-49.5,136h48.2L3212.3,37c46.8-2.1,92.8-2.1,138.1,0l-37.8,103.9h48.2L3397.4,40
				C3397.4,40,3397.4,40,3397.4,40z"/>
			
				<radialGradient id="SVGID_00000168809923734040690050000005428992822898160258_" cx="3266.4065" cy="72.9531" r="113.7607" gradientUnits="userSpaceOnUse">
				<stop  offset="0" style="stop-color:#D6D5D5"/>
				<stop  offset="1" style="stop-color:#696666"/>
			</radialGradient>
			<path style="fill:url(#SVGID_00000168809923734040690050000005428992822898160258_);" d="M3224,5l-2.5,6.8
				c23.4-1,46.7-1.6,69.8-1.6c39,0,77.5,1.5,115.4,4.5l-9.2,25.3c0,0,0,0,0,0l-36.7,100.9h-48.2L3350.3,37
				c-22.6-1.1-45.4-1.6-68.4-1.6c-23,0-46.2,0.5-69.6,1.6l-37.8,103.9h-48.2l49.5-136H3224 M3228.2,2h-4.3h-48.2h-2.1l-0.7,2
				l-49.5,136l-1.5,4h4.3h48.2h2.1l0.7-2l37.1-102c22.6-1,45.3-1.5,67.5-1.5c21.5,0,43.1,0.5,64.2,1.4l-36.4,100.1l-1.5,4h4.3h48.2
				h2.1l0.7-2l36-98.9h0l0.7-2l9.2-25.3l1.3-3.7l-3.9-0.3c-37.7-3-76.6-4.5-115.6-4.5c-21.5,0-43.5,0.5-65.4,1.4l0.9-2.6L3228.2,2
				L3228.2,2z"/>
		</g>
		<path d="M3424.8,128.9c-0.1-0.4-0.1-1-0.1-1.7l-0.1-2.9c-0.1-1.4-0.3-2.5-0.9-3.1c-0.3-0.5-0.8-0.9-1.2-1.2
			c0.6-0.6,1.2-1.1,1.7-1.8c0.6-0.9,0.9-2.1,0.9-3.4c0-2.7-1.2-4.6-3.4-5.7c-1.2-0.5-2.6-0.8-4.3-0.8h-10.7v23h4.1V122h6.2
			c1.1,0,2,0.2,2.5,0.3c0.8,0.5,1.2,1.2,1.3,2.5l0.2,3.6c0.1,0.9,0.1,1.5,0.2,1.8l0.3,0.8l0.1,0.3h4.5V130l-0.3-0.1
			C3425.2,129.8,3425,129.5,3424.8,128.9z M3420,117.6c-0.7,0.5-1.7,0.7-3,0.7h-6.3V112h6.7c1,0,1.7,0.1,2.2,0.4
			c0.9,0.4,1.4,1.3,1.4,2.7C3421,116.3,3420.7,117.2,3420,117.6z"/>
		<path d="M3415.4,99.7c-11.4,0-20.6,9.2-20.6,20.7c0,5.5,2.1,10.7,6,14.6c3.9,3.8,9.2,6,14.7,6c5.5,0,10.7-2.2,14.6-6
			c3.8-3.9,6-9.1,6-14.6c0-5.6-2.2-10.8-6-14.6C3426.1,101.8,3420.9,99.7,3415.4,99.7z M3415.4,137.4c-4.5,0-8.9-1.7-12.2-5
			c-3.2-3.2-5-7.5-5-12.1c0-4.7,1.8-9,5-12.2c3.3-3.2,7.7-5,12.2-5c4.6,0,8.9,1.8,12.1,5c3.3,3.2,5,7.5,5,12.2
			C3432.5,129.8,3424.8,137.4,3415.4,137.4z"/>
	</g>
</g>
</svg>
