<?xml version="1.0" encoding="UTF-8" standalone="no"?>
<svg
   xmlns:dc="http://purl.org/dc/elements/1.1/"
   xmlns:cc="http://creativecommons.org/ns#"
   xmlns:rdf="http://www.w3.org/1999/02/22-rdf-syntax-ns#"
   xmlns:svg="http://www.w3.org/2000/svg"
   xmlns="http://www.w3.org/2000/svg"
   viewBox="0 0 320 181.33333"
   height="181.33333"
   width="320"
   xml:space="preserve"
   id="svg2"
   version="1.1"><metadata
     id="metadata8"><rdf:RDF><cc:Work
         rdf:about=""><dc:format>image/svg+xml</dc:format><dc:type
           rdf:resource="http://purl.org/dc/dcmitype/StillImage" /></cc:Work></rdf:RDF></metadata><defs
     id="defs6" /><g
     transform="matrix(1.3333333,0,0,-1.3333333,-10.666666,261.33333)"
     id="g10"><g
       transform="translate(160,168.7617)"
       id="g12"><path
         id="path14"
         style="fill:#ffffff;fill-opacity:1;fill-rule:nonzero;stroke:none"
         d="M 0,0 V 6.477 7.238 H 1.182 62.818 64 V 6.477 0 -0.762 H 62.818 1.182 0 Z M 0,-4.762 H 1.182 62.818 64 68 v 4 0.762 6.477 0.761 4 H 64 62.818 1.182 0 -4 v -4 V 6.477 0 v -0.762 -4 z" /></g><path
       id="path16"
       style="fill:#ffffff;fill-opacity:1;fill-rule:nonzero;stroke:none"
       d="M 48,144 H 36 v -4 h 12 z" /><path
       id="path18"
       style="fill:#ffffff;fill-opacity:1;fill-rule:nonzero;stroke:none"
       d="M 64,144 H 52 v -4 h 12 z" /><path
       id="path20"
       style="fill:#ffffff;fill-opacity:1;fill-rule:nonzero;stroke:none"
       d="M 80,144 H 68 v -4 h 12 z" /><path
       id="path22"
       style="fill:#ffffff;fill-opacity:1;fill-rule:nonzero;stroke:none"
       d="M 96,144 H 84 v -4 h 12 z" /><path
       id="path24"
       style="fill:#ffffff;fill-opacity:1;fill-rule:nonzero;stroke:none"
       d="m 112,144 h -12 v -4 h 12 z" /><path
       id="path26"
       style="fill:#ffffff;fill-opacity:1;fill-rule:nonzero;stroke:none"
       d="m 168,144 h -12 v -4 h 12 z" /><path
       id="path28"
       style="fill:#ffffff;fill-opacity:1;fill-rule:nonzero;stroke:none"
       d="m 184,144 h -12 v -4 h 12 z" /><path
       id="path30"
       style="fill:#ffffff;fill-opacity:1;fill-rule:nonzero;stroke:none"
       d="m 232,144 h -12 v -4 h 12 z" /><path
       id="path32"
       style="fill:#ffffff;fill-opacity:1;fill-rule:nonzero;stroke:none"
       d="m 216,144 h -12 v -4 h 12 z" /><path
       id="path34"
       style="fill:#ffffff;fill-opacity:1;fill-rule:nonzero;stroke:none"
       d="m 200,144 h -12 v -4 h 12 z" /><g
       transform="translate(120,132)"
       id="g36"><path
         id="path38"
         style="fill:#ffffff;fill-opacity:1;fill-rule:nonzero;stroke:none"
         d="M 0,0 H 8 V -8 H 4 0 Z m 12,0 h 8 v -8 h -4 -4 z m 12,0 h 8 v -8 h -4 -4 z m 12,0 h 8 V -8 H 40 36 Z M 48,0 H 64 V -8 H 52 48 Z m 16,-16 h -8 -4 v 4 h 12 z m 0,-16 h -8 v 8 h 8 z m 0,-12 H 52 v 8 h 4 8 z m -16,0 h -4 -4 v 8 h 4 4 z m -8,-12 h -8 v 8 h 4 4 z m -12,0 h -96 v 8 h 8 4 8 4 8 4 8 4 8 4 8 4 8 4 8 4 z m -100,0 h -8 v 8 h 8 z m -12,0 h -8 v 8 h 8 z m -12,20 h 16 4 4 v -8 h -8 -4 -8 -4 z m 0,12 h 12 4 v -8 h -16 z m 0,12 h 8 4 v -8 h -12 z m 0,12 h 8 v -8 h -8 z m 12,0 h 8 v -8 h -4 -4 z m 12,0 h 8 v -8 h -4 -4 z m 12,0 h 8 v -8 h -4 -4 z m 12,0 h 8 v -8 h -4 -4 z m 12,0 h 8 v -8 h -4 -4 z m 12,0 h 8 v -8 h -4 -4 z M 0,-20 h -4 -4 v 8 h 4 4 z m 12,0 H 8 4 v 8 h 4 4 z m 12,0 h -4 -4 v 8 h 4 4 z m 12,0 h -4 -4 v 8 h 4 4 z m 12,0 h -4 -4 v 8 h 4 4 z M 32,-32 v 8 h 4 4 v -8 h -4 z m -16,-4 h 4 4 v -8 h -8 z m -12,0 h 4 4 v -8 H 4 Z m -12,0 h 4 4 v -8 h -8 z m -12,0 h 4 4 v -8 h -8 z m -12,0 h 4 4 v -8 h -8 z m -12,0 h 4 4 v -8 h -8 z m -12,0 h 4 4 v -8 h -8 z m -12,0 h 4 4 v -8 h -8 z m -8,12 h 4 4 v -8 h -4 -4 z m 16,4 h -4 -4 v 8 h 4 4 z m 12,0 h -4 -4 v 8 h 4 4 z m 12,0 h -4 -4 v 8 h 4 4 z m 12,0 h -4 -4 v 8 h 4 4 z m 12,0 h -4 -4 v 8 h 4 4 z m -16,-4 h 4 4 v -8 h -4 -4 z m -12,0 h 4 4 v -8 h -4 -4 z m -12,0 h 4 4 v -8 h -4 -4 z m -12,0 h 4 4 v -8 h -4 -4 z m 56,-8 h -4 -4 v 8 h 4 4 z m 12,0 H 0 -4 v 8 h 4 4 z m 12,0 H 12 8 v 8 h 4 4 z m 12,0 h -4 -4 v 8 h 4 4 z m -108,20 h 4 4 v -8 h -4 -4 z M 36,-44 h -4 -4 v 8 h 4 4 z m 16,12 h -4 -4 v 8 h 4 4 z M -12,0 h 8 v -8 h -4 -4 z m 0,4 h -4 -8 -4 -8 -4 -8 -4 -8 -4 -8 -4 -8 -4 -8 -4 v -4 -8 -4 -8 -4 -8 -4 -8 -4 h 4 v -8 -4 h 4 8 4 8 4 96 4 8 4 v 4 8 h 4 4 12 4 v 4 8 4 8 4 4 4 4 8 4 H 64 48 44 36 32 24 20 12 8 0 -4 Z" /></g><g
       transform="translate(244,152)"
       id="g40"><path
         id="path42"
         style="fill:#ffffff;fill-opacity:1;fill-rule:nonzero;stroke:none"
         d="M 0,0 H -4 -128 V 36 H 0 Z m -4,-88 h -224 v 84 h 4 4 88 4 124 z M -232,36 h 8 V 0 h -4 -4 z m 12,-24 h 88 V 0 h -88 z m 0,8 h 88 v -4 h -88 z m 0,8 h 88 v -4 h -88 z m 0,12 h 88 v -4 -4 h -88 z M 0,40 h -128 v 4 h -4 -88 -4 v -4 h -8 -4 V 36 0 -4 h 4 v -84 -4 h 4 224 4 v 4 84 h 4 v 4 36 4 z" /></g><g
       transform="translate(214.8291,112)"
       id="g44"><path
         id="path46"
         style="fill:#ffffff;fill-opacity:1;fill-rule:nonzero;stroke:none"
         d="M 0,0 12.585,12.586 13.171,12 v -24 l -0.586,-0.586 z m 9.171,-16 h -24 l -0.586,0.586 12.586,12.585 12.586,-12.585 z m -28,4 v 24 l 0.586,0.586 L -5.658,0 -18.243,-12.586 Z m 4,28 h 24 L 9.757,15.415 -2.829,2.829 -15.415,15.415 Z m 30.243,-0.586 -10e-4,10e-4 -2.828,2.828 -0.586,0.586 L 10.828,20 h -1.657 -24 -1.657 l -1.171,-1.171 -0.586,-0.586 -2.828,-2.828 -10e-4,-10e-4 -0.585,-0.586 -1.172,-1.171 V 12 -12 -13.657 l 1.172,-1.171 0.585,-0.586 h 10e-4 l 2.828,-2.828 v -10e-4 l 0.586,-0.585 1.171,-1.172 h 1.657 24 1.657 l 1.171,1.172 0.586,0.585 v 10e-4 l 2.828,2.828 h 10e-4 l 0.585,0.586 1.172,1.171 V -12 12 13.657 l -1.172,1.171 z" /></g></g></svg>