<?xml version="1.0" encoding="utf-8"?>
<!-- Generator: Adobe Illustrator 26.0.3, SVG Export Plug-In . SVG Version: 6.00 Build 0)  -->
<svg version="1.1" id="Layer_1" xmlns="http://www.w3.org/2000/svg" xmlns:xlink="http://www.w3.org/1999/xlink" x="0px" y="0px"
	 viewBox="0 0 3839 1300" style="enable-background:new 0 0 3839 1300;" xml:space="preserve">
<style type="text/css">
	.st0{fill:#FFFFFF;}
	.st1{fill:#FFFFFA;}
	.st2{fill:#FF0000;}
</style>
<g>
	<rect width="3203.9" height="1299.9"/>
	<g>
		<polygon class="st0" points="2271.8,428.4 2033.2,428.4 2033.2,193.4 2302.3,193.4 		"/>
		<rect x="1318" y="871.5" class="st0" width="476" height="234.9"/>
		<rect x="1587.7" y="532.5" class="st0" width="206.2" height="234.9"/>
		<path class="st0" d="M1587.7,767.4c-382.6,0-382.6-574,0-574c0,78.3,0,156.7,0,234.9c-69.4,0-69.4,104.1,0,104.1
			C1587.7,610.7,1587.7,689.1,1587.7,767.4z"/>
		<path class="st0" d="M1793.9,532.5c382.6,0,382.6,574,0,574c0-78.3,0-156.7,0-234.9c69.4,0,69.4-104.1,0-104.1
			C1793.9,689.1,1793.9,610.7,1793.9,532.5z"/>
		<polygon class="st0" points="2950.7,1106.4 2302.3,193.4 2097.8,311.2 2662.6,1106.4 		"/>
		<polygon class="st0" points="1994.1,1106.4 2642.6,193.4 2930.7,193.4 2282.3,1106.4 		"/>
		<rect x="1587.7" y="193.4" class="st0" width="486.9" height="234.9"/>
		<polygon class="st0" points="496.6,1106.4 608.7,695.2 720.9,1106.4 932.9,1106.4 1044.9,695.2 1157.1,1106.4 1400.6,1106.4 
			1151.6,193.4 938.4,193.4 826.9,602.1 715.4,193.4 502.1,193.4 253,1106.4 		"/>
	</g>
	<path d="M3281,732.2c1.2-88.6,12.1-160.2,53.4-211c41.3-51,111.6-80.1,228-80.1c225.6,0,276.5,105.6,276.5,234.1
		c0,116.5-42.5,190.5-106.8,254.7l-133.4,129.8c-19.4,19.4-47.3,44.9-55.8,70.4H3839V1300h-565.3c0-118.9,30.3-228,128.6-328.7
		l150.5-152.9c43.7-43.7,60.7-76.4,60.7-140.7c0-72.8-23.1-95.9-58.2-95.9c-31.5,0-63.1,17-63.1,114.1v36.4H3281V732.2z"/>
</g>
</svg>
