<?xml version="1.0" encoding="utf-8"?>
<!-- Generator: Adobe Illustrator 26.0.1, SVG Export Plug-In . SVG Version: 6.00 Build 0)  -->
<svg version="1.1" id="Layer_1" xmlns="http://www.w3.org/2000/svg" xmlns:xlink="http://www.w3.org/1999/xlink" x="0px" y="0px"
	 viewBox="0 0 3387.3 2159" style="enable-background:new 0 0 3387.3 2159;" xml:space="preserve">
<style type="text/css">
	.st0{fill:#FF0000;}
	.st1{fill:#B5B5B5;}
	.st2{fill:#02A5F4;}
	.st3{fill:#F65BA6;}
	.st4{fill:#6784E7;}
	.st5{fill:#FFD52F;}
	.st6{fill:#FFFFFF;}
</style>
<g>
	<g>
		<g>
			<path class="st0" d="M2755.3,833.9C2252.9-120.8,1282.8-150.3,947.8,220.9c-81.6,90.5-360.3,609.4,413,1096.4
				c-402.4,118.8-728.6-343.7-728.6-343.7c502.2,954.7,1472.5,984.2,1807.5,613.2c81.6-90.5,360.3-609.4-413-1096.4
				C2429,371.5,2755.3,833.9,2755.3,833.9z M2144.2,1310.4C1992,1479,1666.8,1433.6,1418,1209s-327.1-543.4-174.9-712.1
				s477.4-123.2,726.2,101.4S2296.5,1141.8,2144.2,1310.4z"/>
			
				<ellipse transform="matrix(0.6701 -0.7423 0.7423 0.6701 -180.5844 1765.3228)" class="st0" cx="1895.6" cy="1085.8" rx="227.1" ry="335.1"/>
			<path d="M723.8,1981.7H700h-36.1H561.3h-7.7h-8.8l-82.4,57.7l-20,93.5c-2.9,13.4,7.4,26,21.1,26h25.2h35h102.5h10.7h5.9
				l82.4-57.7l19.9-93.5C747.7,1994.4,737.5,1981.7,723.8,1981.7z M655.4,2021.1l-16.5,77.5l-48.6,34h-47.8c-6.9,0-12-6.4-10.7-13.1
				l16.5-77.6l48.5-33.9h47.8C651.7,2008,656.8,2014.4,655.4,2021.1z"/>
			<path d="M1000,1981.7h-13.1h-8.3H840.7l0,0h-51.2l-37.8,177.1h45.4l48.5-33.9l24.9-116.9h78.4c12.4,0,21.5,11.4,19,23.4
				l-27.2,127.4h86.8l27.2-127.3C1060.1,2005.9,1034.3,1981.7,1000,1981.7z"/>
			<polygon points="404.4,1883.5 356,1917.4 317.3,2098.6 268.7,2132.6 244.5,2132.6 290.3,1917.4 297.6,1883.5 252.2,1883.5 
				203.8,1917.4 203.8,1917.4 165.1,2098.6 116.5,2132.6 92.2,2132.6 138.1,1917.4 138.1,1917.4 145.4,1883.5 100,1883.5 
				51.5,1917.4 0,2158.8 65.7,2158.8 86.7,2158.8 152.2,2158.8 238.9,2158.8 304.5,2158.8 321,2158.8 322.5,2157.8 403.4,2101.2 
				449.8,1883.5 			"/>
			<path d="M1369.8,1984.7c6.7-4.5,13-9.4,18.7-15c23.3-23.4,40.7-54.5,40.7-54.5H1337c0,0-17.4,30.9-40.7,54.5
				c-4.5,4.5-9.3,8.5-14.5,12.2h-91h-8.4h-8.1l-82.4,57.7l-19.9,93.4c-2.9,13.4,7.4,26,21.1,26h20.9h39.1h102.5h27.4h59.3
				l33.8-158.3C1377.4,1994.1,1374.7,1988.1,1369.8,1984.7z M1285,2021.1l-23.8,111.5h-89.1c-6.9,0-12-6.4-10.7-13.1l16.5-77.6
				l48.5-33.9h47.8C1281.3,2008,1286.4,2014.3,1285,2021.1z"/>
			<path d="M1665.3,1981.7h-15.8h-22.6h-121.2h-7.9h-8.6l-82.4,57.7l-19.9,93.4c-2.9,13.4,7.4,26,21.1,26h30.7h29.3h116.9l36.5-26.2
				H1487c-6.9,0-12-6.4-10.7-13.1l6.1-28.4H1609l84.2-58.9l2.7-12.6C1700.2,2000.1,1685.2,1981.7,1665.3,1981.7z M1618.5,2021.1
				l-3.4,16.2l-36.9,26h-89.9l4.6-21.4l48.5-33.9h66.5C1614.8,2008,1619.9,2014.3,1618.5,2021.1z"/>
			<path d="M1941.7,1981.7h-129.1l0,0h-8.6l-82.4,57.7l-25.5,119.5h86.7l24.9-116.9l48.5-33.9h34.7c18.1,0,31,17.7,25.3,35
				c-1.2,3.4-2.7,6.6-4.6,9.6l-6.8,10.8h58.7l40.1-28C2003.7,2013.3,1992,1981.7,1941.7,1981.7z"/>
			<path d="M3332,1981.7h-13.1h-8.3h-137.9l0,0h-51.2l-37.8,177.1h45.4l48.5-33.9l24.9-116.9h78.4c12.4,0,21.5,11.4,19,23.4
				l-27.2,127.4h86.7l27.2-127.3C3392.1,2005.9,3366.4,1981.7,3332,1981.7z"/>
			<polygon points="2675.5,2008 2656.1,2098.6 2607.5,2132.6 2590.1,2132.6 2622.3,1981.7 2567.6,1981.7 2530.1,2008 2510.7,2098.6 
				2462.1,2132.6 2444.6,2132.6 2476.8,1981.7 2422.1,1981.7 2384.6,2008 2352.4,2158.8 2659.9,2158.8 2742.3,2101.2 2767.7,1981.7 
				2713.1,1981.7 			"/>
			<path d="M2295.6,1994.7h-18.4h-16h-79.6c-11-0.6-18.3-8-16.5-22.3c4.2-32.8,32.3-50.1,46.3-50.1h126.2l55.6-38.9H2184l0,0
				c-66.4,0-103,49.1-110.7,113c-5.6,26.3,14.5,51.2,41.4,51.2h18.4h16h79.6c11,0.6,18.3,8,16.5,22.3c-4.1,31.7-30.4,48.9-44.9,50
				h-258.2l-55.6,38.9h130.7l-0.1,0.1h209.1l0,0c66.4,0,103-49.1,110.7-113C2342.6,2019.5,2322.4,1994.7,2295.6,1994.7z"/>
			<path d="M2995.9,1981.7h-102.5c-50.5,0-94.4,35.3-104.8,84.8c-10.7,50.8-4.4,95.7,66.9,92.3h50.7l37.4-26.2h-41.1
				c-21.3,0-37.2-19.6-32.7-40.5l6-28c7-32.7,35.9-56.2,69.4-56.2h45.1l-32.2,150.8h86.7l37.8-177.1h-73.4L2995.9,1981.7
				L2995.9,1981.7z"/>
		</g>
	</g>
</g>
</svg>
