<?xml version="1.0" encoding="utf-8"?>
<!-- Generator: Adobe Illustrator 26.0.3, SVG Export Plug-In . SVG Version: 6.00 Build 0)  -->
<svg version="1.1" id="Layer_1" xmlns="http://www.w3.org/2000/svg" xmlns:xlink="http://www.w3.org/1999/xlink" x="0px" y="0px"
	 viewBox="0 0 3839 1000" style="enable-background:new 0 0 3839 1000;" xml:space="preserve">
<style type="text/css">
	.st0{fill:#FFFFFF;}
	.st1{fill:#FFFFFA;}
	.st2{fill:#FF0000;}
</style>
<g>
	<polygon points="3095.2,257.3 2833.9,257.3 2833.9,0 3128.6,0 	"/>
	<rect x="2050.4" y="742.7" width="521.4" height="257.3"/>
	<rect x="2345.8" y="371.3" width="225.9" height="257.3"/>
	<path d="M2345.8,628.7c-419.1,0-419.1-628.7,0-628.7c0,85.8,0,171.6,0,257.3c-76,0-76,114,0,114
		C2345.8,457.2,2345.8,543,2345.8,628.7z"/>
	<path d="M2571.7,371.3c419.1,0,419.1,628.7,0,628.7c0-85.8,0-171.6,0-257.3c76,0,76-114,0-114
		C2571.7,543,2571.7,457.2,2571.7,371.3z"/>
	<polygon points="3839,1000 3128.6,0 2904.5,129 3523.3,1000 	"/>
	<polygon points="2791.1,1000 3501.4,0 3817.1,0 3106.7,1000 	"/>
	<rect x="2345.8" y="0" width="533.4" height="257.3"/>
	<polygon points="1150.5,1000 1273.4,549.7 1396.2,1000 1628.4,1000 1751.2,549.7 1874.1,1000 2140.8,1000 1868.1,0 1634.5,0 
		1512.3,447.7 1390.2,0 1156.6,0 883.8,1000 	"/>
	<g>
		<g>
			<polygon class="st2" points="898.2,0 631.4,0 859,834.3 992.3,345.3 			"/>
		</g>
		<polyline class="st2" points="315.7,0 588.5,1000 855.3,1000 582.4,0 		"/>
		<polyline class="st2" points="0,0 272.8,1000 539.6,1000 266.7,0 		"/>
	</g>
</g>
</svg>
