<?xml version="1.0" encoding="utf-8"?>
<!-- Generator: Adobe Illustrator 26.0.1, SVG Export Plug-In . SVG Version: 6.00 Build 0)  -->
<svg version="1.1" id="Layer_1" xmlns="http://www.w3.org/2000/svg" xmlns:xlink="http://www.w3.org/1999/xlink" x="0px" y="0px"
	 viewBox="0 0 3839 589.5" style="enable-background:new 0 0 3839 589.5;" xml:space="preserve">
<style type="text/css">
	.st0{fill:#0035A0;}
	.st1{fill:#F30100;}
	.st2{fill:#FFFFFF;}
</style>
<g>
	<g>
		<g>
			<rect y="51.1" class="st1" width="144.4" height="528.8"/>
			<path class="st1" d="M467.9,150V359L331.7,171.2c-43.2-59.6-137.5-29-137.5,44.6v364h71.7V326.5l172.3,237.7
				c31.8,44,101.2,21.4,101.2-32.8V150H467.9z"/>
			<path class="st1" d="M3767.4,150V359l-136.2-187.8c-43.2-59.6-137.5-29-137.5,44.6v364h71.7V326.5l172.3,237.7
				c31.8,44,101.2,21.4,101.2-32.8V150H3767.4z"/>
			<path class="st1" d="M2333.9,23.2h-74L2144,474.5L2053.9,150h-149.8l110.1,367.9c29.2,97.5,168.3,94.8,193.6-3.8L2333.9,23.2z"/>
			<path class="st1" d="M792.6,508c-11.1,0-20-9-20-20V241.8c0-11.1,9-20.1,20.1-20.1h82.2V150H772.5V51.1L516.2,221.7h91.9
				c11.1,0,20.1,9,20.1,20.1v245.9c0,50.9,41.3,92.1,92.1,92.1h52.2h102.2v-71.7L792.6,508L792.6,508z"/>
			<g>
				<path class="st1" d="M1361.3,488V150h-144.3v337.6c0,50.9,41.3,92.1,92.1,92.1h52.2h102.2V508h-82.2
					C1370.2,508,1361.3,499,1361.3,488z"/>
				<path class="st1" d="M1632.7,508c-11.1,0-20-9-20-20V150h-144.3v337.6c0,50.9,41.3,92.1,92.1,92.1h52.2h102.2V508H1632.7z"/>
			</g>
			<path class="st1" d="M1195,221.7V150h-158.5h-52.2c-50.9,0-92.2,41.3-92.2,92.2v245.5c0,50.9,41.3,92.2,92.2,92.2h52.2H1195
				v-71.7h-138.4c-11.1,0-20.1-9-20.1-20.1v-87.3H1168v-71.7h-131.5v-87.2c0-11.1,9-20.1,20.1-20.1L1195,221.7L1195,221.7z"/>
			<g>
				<rect x="1728.1" y="257.8" class="st1" width="144.4" height="321.9"/>
				<rect x="1728.1" y="150" class="st1" width="144.4" height="71.7"/>
			</g>
			<g>
				<rect x="2850.1" y="257.8" class="st1" width="144.4" height="321.9"/>
				<rect x="2850.1" y="150" class="st1" width="144.4" height="71.7"/>
			</g>
			<g>
				<rect x="2319.6" y="257.8" class="st1" width="144.4" height="321.9"/>
				<rect x="2319.6" y="150" class="st1" width="144.4" height="71.7"/>
			</g>
			<path class="st1" d="M3244.4,151.6c-80,0-223.8,18.1-223.8,218.6s143.8,218.6,223.8,218.6c80,0,223.8-18.1,223.8-218.6
				S3324.4,151.6,3244.4,151.6z M3309.8,448.7c0,33.7-26.9,81.1-65.4,81.1c-38.5,0-65.4-47.3-65.4-81.1v-157
				c0-33.7,26.9-81.1,65.4-81.1c38.5,0,65.4,47.3,65.4,81.1V448.7z"/>
			<path class="st1" d="M2822.5,396.3c-0.4-2.6-1-5-1.5-7.5c-14.3-66.3-66.3-79.1-147.3-100.6c0,0-0.4-0.1-0.9-0.3l-18.6-5
				c-35.1-9.4-28.3-61.3,8.1-61.3h15.9h15.9h85.2l-0.5-71.7h-138c-83.6,0-148.4,58.1-148.4,143.1c0,87.6,96.6,115.4,147.7,120.9
				c32.1,3.4,63.1,16.8,63.1,48.3c0,25.3-21.8,45.9-45.5,45.9h-165.3v70.9c0,0,186.3,0.9,188.9,0.8c80-3.9,143.6-69.2,143.6-148.4
				C2824.9,418.2,2824.2,406.7,2822.5,396.3z"/>
		</g>
	</g>
	<g>
		<g>
			<g>
				<g>
					<path class="st1" d="M2820.8,7.2L2820.8,7.2c0-3.9-3.1-7-7-7h-45.4c-3.9,0-7,3.1-7,7v33.4c0,3.9-3.1,7-7,7h-9.9
						c-3.9,0-7,3.1-7,7v42.9c0,3.9,3.1,7,7,7h69.2c3.9,0,7-3.1,7-7l0,0c0-3.9-3.1-7-7-7h-55.2c-3.9,0-7-3.1-7-7V68.5
						c0-3.9,3.1-7,7-7h55.2c3.9,0,7-3.1,7-7l0,0c0-3.9-3.1-7-7-7h-13.9c-3.9,0-7-3.1-7-7V21c0-3.9,3.1-7,7-7h14
						C2817.7,14.2,2820.8,11,2820.8,7.2z"/>
				</g>
			</g>
			<g>
				<g>
					<path class="st1" d="M3023.7,7.2L3023.7,7.2c0-3.9-3.1-7-7-7h-45.4c-3.9,0-7,3.1-7,7v33.4c0,3.9-3.1,7-7,7h-9.9
						c-3.9,0-7,3.1-7,7v42.9c0,3.9,3.1,7,7,7h69.2c3.9,0,7-3.1,7-7l0,0c0-3.9-3.1-7-7-7h-55.2c-3.9,0-7-3.1-7-7V68.5
						c0-3.9,3.1-7,7-7h55.2c3.9,0,7-3.1,7-7l0,0c0-3.9-3.1-7-7-7h-13.9c-3.9,0-7-3.1-7-7V21c0-3.9,3.1-7,7-7h14
						C3020.6,14.2,3023.7,11,3023.7,7.2z"/>
				</g>
			</g>
			<g>
				<g>
					<path class="st1" d="M3189.6,7.2L3189.6,7.2c0-3.9-3.1-7-7-7h-45.4c-3.9,0-7,3.1-7,7v33.4c0,3.9-3.1,7-7,7h-9.9
						c-3.9,0-7,3.1-7,7v42.9c0,3.9,3.1,7,7,7h69.2c3.9,0,7-3.1,7-7l0,0c0-3.9-3.1-7-7-7h-55.1c-3.9,0-7-3.1-7-7V68.5
						c0-3.9,3.1-7,7-7h55.2c3.9,0,7-3.1,7-7l0,0c0-3.9-3.1-7-7-7h-14c-3.9,0-7-3.1-7-7V21c0-3.9,3.1-7,7-7h14
						C3186.5,14.2,3189.6,11,3189.6,7.2z"/>
				</g>
			</g>
			<g>
				<g>
					<path class="st1" d="M2889.2,73h-31.6c-3.9,0-7-3.1-7-7V7.2c0-3.9-3.1-7-7-7l0,0c-3.9,0-7,3.1-7,7v90.2c0,3.9,3.1,7,7,7h45.6
						c3.9,0,7-3.1,7-7V80C2896.2,76.1,2893,73,2889.2,73z"/>
				</g>
			</g>
			<g>
				<g>
					<path class="st1" d="M3089.1,73.1h-31.6c-3.9,0-7-3.1-7-7V7.2c0-3.9-3.1-7-7-7l0,0c-3.9,0-7,3.1-7,7v90.2c0,3.9,3.1,7,7,7h45.6
						c3.9,0,7-3.1,7-7V80C3096.1,76.1,3093,73.1,3089.1,73.1z"/>
				</g>
			</g>
			<g>
				<g>
					<path class="st1" d="M3424.9,40.6V7.1c0-3.9-3.1-7-7-7h-55.2c-3.9,0-7,3.1-7,7v90.2c0,3.9,3.1,7,7,7h17.4c3.9,0,7-3.1,7-7V68.5
						c0-3.9,3.1-7,7-7h23.8c3.9,0,7,3.1,7,7v28.8c0,3.9,3.1,7,7,7l0,0c3.9,0,7-3.1,7-7V54.4c0-3.9-3.1-7-7-7l0,0
						C3428.1,47.6,3424.9,44.4,3424.9,40.6z M3376.8,14.2h27.2c3.9,0,7,3.1,7,7v19.4c0,3.9-3.1,7-7,7h-27.2c-3.9,0-7-3.1-7-7V21.3
						C3369.8,17.3,3372.9,14.2,3376.8,14.2z"/>
				</g>
			</g>
			<g>
				<g>
					<path class="st1" d="M3269.6,24.6V7.2c0-3.9-3.1-7-7-7H3211c-3.9,0-7,3.1-7,7v90.2c0,3.9,3.1,7,7,7h51.6c3.9,0,7-3.1,7-7l0,0
						c0-3.9-3.1-7-7-7h-37.7c-3.9,0-7-3.1-7-7V38.4c0-3.9,3.1-7,7-7h37.7C3266.4,31.6,3269.6,28.4,3269.6,24.6z"/>
				</g>
			</g>
			<g>
				<g>
					<path class="st1" d="M3746.4,24.6V7.2c0-3.9-3.1-7-7-7h-51.6c-3.9,0-7,3.1-7,7v90.2c0,3.9,3.1,7,7,7h51.6c3.9,0,7-3.1,7-7l0,0
						c0-3.9-3.1-7-7-7h-37.7c-3.9,0-7-3.1-7-7V38.4c0-3.9,3.1-7,7-7h37.7C3743.3,31.6,3746.4,28.4,3746.4,24.6z"/>
				</g>
			</g>
			<g>
				<g>
					<path class="st1" d="M2545.8,4.5l-29.7,69.3c-1.6,4-7.7,2.8-7.7-1.6V7.3c0-3.9-3.1-7-7-7h-15.1c-2.8,0-5.3,1.6-6.5,4.3
						l-20.5,48.1c-1.6,3.7-7,3.1-7.7-0.9l-7.7-45.6c-0.6-3.4-3.5-5.9-6.9-5.9h-32.4c-3.9,0-7,3.1-7,7v24.4v65.6c0,3.9,3,7.2,6.8,7.3
						c4,0.1,7.2-3,7.2-7V38.7c0-3.9,3.1-7,7-7h9.5c3.4,0,6.4,2.6,6.9,5.9l5.4,32.3c0.6,3.4,3.5,5.9,6.9,5.9h12.5
						c2.8,0,5.3-1.6,6.5-4.3l20.2-47.1c1.6-4,7.7-2.8,7.7,1.6v71.6c0,3.9,3.1,7,7,7h12.1c2.8,0,5.3-1.6,6.5-4.3l13.5-31.6
						c1.1-2.6,3.6-4.3,6.5-4.3h23.1c3.9,0,7,3.1,7,7v26.1c0,3.9,3.1,7,7,7h17.4c3.9,0,7-3.1,7-7V14.4V7.4c0-3.9-3.1-7-7-7h-42.3
						C2549.4,0.3,2546.9,1.9,2545.8,4.5z M2561.4,14.2h19c3.9,0,7,3.1,7,7v22.2c0,3.9-3.1,7-7,7H2552c-5,0-8.3-5.1-6.5-9.8l9.5-22.2
						C2556.1,15.9,2558.6,14.2,2561.4,14.2z"/>
				</g>
			</g>
			<g>
				<g>
					<path class="st1" d="M3345.7,7.2c0-3.9-3.1-7-7-7h-18.8l0,0h-14l0,0H3287c-3.9,0-7,3.1-7,7v17.4c0,3.9,3.1,7,7,7h11.9
						c3.9,0,7,3.1,7,7v58.8c0,3.9,3.1,7,7,7l0,0c3.9,0,7-3.1,7-7V38.6c0-3.9,3.1-7,7-7h11.9c3.9,0,7-3.1,7-7V7.2H3345.7z"/>
				</g>
			</g>
			<g>
				<g>
					<path class="st1" d="M3660,67.4V5.8c0-3.1-2.6-5.6-5.6-5.6h-2.6c-3.1,0-5.6,2.6-5.6,5.6v61.4c0,3.1-2.6,5.6-5.6,5.6h-7.9
						c-3.1,0-5.6,2.6-5.6,5.6v20c0,3.1,2.6,5.6,5.6,5.6h33.3c3.1,0,5.6-2.6,5.6-5.6v-20c0-3.1-2.6-5.6-5.6-5.6l0,0
						C3662.6,73.1,3660,70.4,3660,67.4z"/>
				</g>
			</g>
			<g>
				<g>
					<path class="st1" d="M3599.8,0.2h-46.3h-7c-3.9,0-7,3.1-7,7v90.2c0,3.9,3.1,7,7,7l0,0c3.9,0,7-3.1,7-7V38.6c0-3.9,3.1-7,7-7
						h32.3c3.9,0,7,3.1,7,7v58.8c0,3.9,3.1,7,7,7l0,0c3.9,0,7-3.1,7-7V7.2c0-3.9-3.1-7-7-7L3599.8,0.2L3599.8,0.2z"/>
				</g>
			</g>
			<g>
				<g>
					<path class="st1" d="M3458.7,0.2h-1.1c-3.9,0-7,3.2-7,7v90.2c0,3.9,3.1,7,7,7h60.4c3.9,0,7-3.1,7-7V7.2c0-3.9-3.1-7-7-7
						L3458.7,0.2L3458.7,0.2z M3464.6,66.1V21.2c0-3.9,3.1-7,7-7h32.3c3.9,0,7,3.1,7,7v44.9c0,3.9-3.1,7-7,7h-32.3
						C3467.7,73.1,3464.6,69.8,3464.6,66.1z"/>
				</g>
			</g>
			<g>
				<g>
					<path class="st1" d="M3778.5,40.6V21.2c0-3.9,3.1-7,7-7h37.2c3.9,0,7-3.1,7-7l0,0c0-3.9-3.1-7-7-7h-51c-3.9,0-7,3.1-7,7v47.5
						c0,3.9,3.1,7,7,7h29c3.9,0,7,3.1,7,7v14.9c0,3.9-3.1,7-7,7h-37.8c-3.9,0-7,3.1-7,7l0,0c0,3.9,3.1,7,7,7h69.2c3.9,0,7-3.1,7-7
						V54.7c0-3.9-3.1-7-7-7h-46.5C3781.6,47.6,3778.5,44.4,3778.5,40.6z"/>
				</g>
			</g>
			<path class="st1" d="M2714,0.2h-14h-46.1h-14h-18.6c-3.9,0-7,3.1-7,7v17.3c0,3.9,3.1,7,7,7h11.7c3.9,0,7,3.1,7,7v58.5
				c0,3.9,3,7.2,6.8,7.3c4,0.1,7.2-3,7.2-7V38.5c0-3.9,3.1-7,7-7h32.1c3.9,0,7,3.1,7,7V97c0,3.9,3,7.2,6.8,7.3c4,0.1,7.2-3,7.2-7
				V38.5c0-3.9,3.1-7,7-7h11.7c3.9,0,7-3.1,7-7V7c0-3.9-3.1-7-7-7L2714,0.2L2714,0.2z"/>
		</g>
	</g>
</g>
</svg>
