<?xml version="1.0" encoding="UTF-8" standalone="no"?>
<svg
   xmlns:dc="http://purl.org/dc/elements/1.1/"
   xmlns:cc="http://creativecommons.org/ns#"
   xmlns:rdf="http://www.w3.org/1999/02/22-rdf-syntax-ns#"
   xmlns:svg="http://www.w3.org/2000/svg"
   xmlns="http://www.w3.org/2000/svg"
   viewBox="0 0 266.66665 320"
   height="320"
   width="266.66666"
   xml:space="preserve"
   id="svg2"
   version="1.1"><metadata
     id="metadata8"><rdf:RDF><cc:Work
         rdf:about=""><dc:format>image/svg+xml</dc:format><dc:type
           rdf:resource="http://purl.org/dc/dcmitype/StillImage" /></cc:Work></rdf:RDF></metadata><defs
     id="defs6"><clipPath
       id="clipPath18"
       clipPathUnits="userSpaceOnUse"><path
         id="path16"
         d="M 0,256 H 256 V 0 H 0 Z" /></clipPath></defs><g
     transform="matrix(1.3333333,0,0,-1.3333333,-37.333332,330.66666)"
     id="g10"><g
       id="g12"><g
         clip-path="url(#clipPath18)"
         id="g14"><g
           transform="translate(186.333,160)"
           id="g20"><path
             id="path22"
             style="fill:#ffffff;fill-opacity:1;fill-rule:nonzero;stroke:none"
             d="m 0,0 h -116.667 c -6.433,0 -11.666,-5.383 -11.666,-12 v -4 c 0,-6.617 5.233,-12 11.666,-12 l 45.791,-3.623 c 3.162,-0.25 6.374,-0.377 9.544,-0.377 h 12.909 c 3.746,0 7.537,0.177 11.268,0.526 L 0,-28 c 6.434,0 11.667,5.383 11.667,12 v 4 C 11.667,-5.383 6.434,0 0,0 m 0,-4 c 4.228,0 7.667,-3.589 7.667,-8 v -4 c 0,-4.411 -3.439,-8 -7.667,-8 h -0.187 l -0.185,-0.018 -37.156,-3.474 C -41.135,-27.829 -44.801,-28 -48.423,-28 h -12.909 c -3.066,0 -6.171,0.123 -9.229,0.365 l -45.79,3.622 -0.157,0.013 h -0.159 c -4.227,0 -7.666,3.589 -7.666,8 v 4 c 0,4.411 3.439,8 7.666,8 H 0" /></g><g
           transform="translate(224,24)"
           id="g24"><path
             id="path26"
             style="fill:#ffffff;fill-opacity:1;fill-rule:nonzero;stroke:none"
             d="m 0,0 c 0,-6.627 -5.373,-12 -12,-12 h -168 c -6.627,0 -12,5.373 -12,12 v 208 c 0,6.627 5.373,12 12,12 h 14 v -4 h -10 c -6.627,0 -12,-5.373 -12,-12 V 4 c 0,-6.627 5.373,-12 12,-12 h 10 4 132 4 10 c 6.627,0 12,5.373 12,12 v 200 c 0,6.627 -5.373,12 -12,12 h -10 v 4 h 14 c 6.627,0 12,-5.373 12,-12 z m -168,28 h 2 V -4 h -10 c -4.411,0 -8,3.589 -8,8 v 200 c 0,4.411 3.589,8 8,8 h 10 v -16 h -2 c -6.627,0 -12,-5.373 -12,-12 V 40 c 0,-6.627 5.373,-12 12,-12 M -30,-4 h -132 v 32 h 132 z m 6,196 c 4.411,0 8,-3.589 8,-8 V 40 c 0,-4.411 -3.589,-8 -8,-8 h -144 c -4.411,0 -8,3.589 -8,8 v 144 c 0,4.411 3.589,8 8,8 z m -138,20 h 132 v -16 h -132 z m 0,8 h 4 v -4 h -4 z m 8,0 h 4 v -4 h -4 z m 8,0 h 4 v -4 h -4 z m 8,0 h 4 v -4 h -4 z m 8,0 h 4 v -4 h -4 z m 8,0 h 4 v -4 h -4 z m 8,0 h 4 v -4 h -4 z m 8,0 h 4 v -4 h -4 z m 8,0 h 4 v -4 h -4 z m 8,0 h 4 v -4 h -4 z m 8,0 h 4 v -4 h -4 z m 8,0 h 4 v -4 h -4 z m 8,0 h 4 v -4 h -4 z m 8,0 h 4 v -4 h -4 z m 8,0 h 4 v -4 h -4 z m 8,0 h 4 v -4 h -4 z m 8,0 h 4 v -4 h -4 z m 8,-8 h 10 c 4.411,0 8,-3.589 8,-8 V 4 c 0,-4.411 -3.589,-8 -8,-8 h -10 v 32 h 2 c 6.627,0 12,5.373 12,12 v 144 c 0,6.627 -5.373,12 -12,12 h -2 z m 14,12 h -14 -4 -4 -4 -4 -4 -4 -4 -4 -4 -4 -4 -4 -4 -4 -4 -4 -4 -4 -4 -4 -4 -4 -4 -4 -4 -4 -4 -4 -4 -4 -4 -4 -4 -4 -4 -14 c -8.822,0 -16,-7.178 -16,-16 V 0 c 0,-8.822 7.178,-16 16,-16 h 168 c 8.822,0 16,7.178 16,16 v 208 c 0,8.822 -7.178,16 -16,16" /></g><g
           transform="translate(84,72)"
           id="g28"><path
             id="path30"
             style="fill:#ffffff;fill-opacity:1;fill-rule:nonzero;stroke:none"
             d="m 0,0 c 0,-2.2 -1.8,-4 -4,-4 h -12 c -2.2,0 -4,1.8 -4,4 V 8 H 0 Z m -20,16 c 0,2.2 1.8,4 4,4 h 12 c 2.2,0 4,-1.8 4,-4 v -4 h -20 z m 16,8 h -12 c -4.411,0 -8,-3.589 -8,-8 V 0 c 0,-4.411 3.589,-8 8,-8 h 12 c 4.411,0 8,3.589 8,8 v 16 c 0,4.411 -3.589,8 -8,8" /></g><g
           transform="translate(192,72)"
           id="g32"><path
             id="path34"
             style="fill:#ffffff;fill-opacity:1;fill-rule:nonzero;stroke:none"
             d="m 0,0 c 0,-2.2 -1.8,-4 -4,-4 h -12 c -2.2,0 -4,1.8 -4,4 v 16 c 0,2.2 1.8,4 4,4 h 12 c 2.2,0 4,-1.8 4,-4 z m -4,24 h -12 c -4.411,0 -8,-3.589 -8,-8 V 0 c 0,-4.411 3.589,-8 8,-8 h 12 c 4.411,0 8,3.589 8,8 v 16 c 0,4.411 -3.589,8 -8,8" /></g><g
           transform="translate(156,72)"
           id="g36"><path
             id="path38"
             style="fill:#ffffff;fill-opacity:1;fill-rule:nonzero;stroke:none"
             d="m 0,0 c 0,-2.2 -1.8,-4 -4,-4 h -48 c -2.2,0 -4,1.8 -4,4 v 16 c 0,2.2 1.8,4 4,4 h 48 c 2.2,0 4,-1.8 4,-4 z m -4,24 h -48 c -4.411,0 -8,-3.589 -8,-8 V 0 c 0,-4.411 3.589,-8 8,-8 h 48 c 4.411,0 8,3.589 8,8 v 16 c 0,4.411 -3.589,8 -8,8" /></g><g
           transform="translate(192,208)"
           id="g40"><path
             id="path42"
             style="fill:#ffffff;fill-opacity:1;fill-rule:nonzero;stroke:none"
             d="m 0,0 c 4.411,0 8,-3.589 8,-8 0,-4.411 -3.589,-8 -8,-8 -4.411,0 -8,3.589 -8,8 0,4.411 3.589,8 8,8 m 0,-20 c 6.627,0 12,5.373 12,12 0,6.627 -5.373,12 -12,12 -6.627,0 -12,-5.373 -12,-12 0,-6.627 5.373,-12 12,-12" /></g><g
           transform="translate(178,24)"
           id="g44"><path
             id="path46"
             style="fill:#ffffff;fill-opacity:1;fill-rule:nonzero;stroke:none"
             d="m 0,0 h 8 c 1.1,0 2,0.9 2,2 0,1.1 -0.9,2 -2,2 H 0 C -1.1,4 -2,3.1 -2,2 -2,0.9 -1.1,0 0,0" /></g><path
           id="path48"
           style="fill:#ffffff;fill-opacity:1;fill-rule:nonzero;stroke:none"
           d="m 80,140 h -4 v 12 h 4 z" /><path
           id="path50"
           style="fill:#ffffff;fill-opacity:1;fill-rule:nonzero;stroke:none"
           d="m 184,140 h -4 v 12 h 4 z" /><g
           transform="translate(120,144)"
           id="g52"><path
             id="path54"
             style="fill:#ffffff;fill-opacity:1;fill-rule:nonzero;stroke:none"
             d="M 0,0 H 16 L 8,-4 Z" /></g></g></g></g></svg>