<?xml version="1.0" encoding="UTF-8" standalone="no"?>
<svg
   xmlns:dc="http://purl.org/dc/elements/1.1/"
   xmlns:cc="http://creativecommons.org/ns#"
   xmlns:rdf="http://www.w3.org/1999/02/22-rdf-syntax-ns#"
   xmlns:svg="http://www.w3.org/2000/svg"
   xmlns="http://www.w3.org/2000/svg"
   viewBox="0 0 138.66666 309.33331"
   height="309.33331"
   width="138.66666"
   xml:space="preserve"
   id="svg2"
   version="1.1"><metadata
     id="metadata8"><rdf:RDF><cc:Work
         rdf:about=""><dc:format>image/svg+xml</dc:format><dc:type
           rdf:resource="http://purl.org/dc/dcmitype/StillImage" /></cc:Work></rdf:RDF></metadata><defs
     id="defs6"><clipPath
       id="clipPath26"
       clipPathUnits="userSpaceOnUse"><path
         id="path24"
         d="M 0,256 H 256 V 0 H 0 Z" /></clipPath></defs><g
     transform="matrix(1.3333333,0,0,-1.3333333,-101.33333,325.33333)"
     id="g10"><g
       transform="translate(92,168)"
       id="g12"><path
         id="path14"
         style="fill:#ffffff;fill-opacity:1;fill-rule:nonzero;stroke:none"
         d="M 0,0 H 8 V -4 H 0 v -4 -8 h 4 8 v 4 H 4 v 4 h 4 4 V 0 4 H 0 Z" /></g><path
       id="path16"
       style="fill:#ffffff;fill-opacity:1;fill-rule:nonzero;stroke:none"
       d="m 116,156 h -4 v 12 h 4 z m -4,16 h -4 v -20 h 4 4 4 v 20 h -4 z" /><path
       id="path18"
       style="fill:#ffffff;fill-opacity:1;fill-rule:nonzero;stroke:none"
       d="m 132,156 h -4 v 12 h 4 z m -4,16 h -4 v -20 h 4 4 4 v 20 h -4 z" /><g
       id="g20"><g
         clip-path="url(#clipPath26)"
         id="g22"><g
           transform="translate(176,204)"
           id="g28"><path
             id="path30"
             style="fill:#ffffff;fill-opacity:1;fill-rule:nonzero;stroke:none"
             d="m 0,0 -4,-12 v -60 l 4,-16 h -10 -6 -6 -32 -6 -6 -30 l 4,16 v 60 L -96,0 V 36 H 0 Z M 0,-104.43 C 0,-106.401 -1.686,-108 -3.765,-108 H -4 -8 -88 -92.235 c -2.079,0 -3.765,1.599 -3.765,3.57 V -92 H 0 Z M -8,-188 h -80 v 76 H -8 Z M 0,40 h -96 -4 V 36 0 -0.649 L -99.795,-1.265 -96,-12.649 V -71.507 L -99.88,-87.03 -100,-87.508 V -88 -104.43 c 0,-4.174 3.483,-7.57 7.765,-7.57 H -92 v -76 -4 h 4 80 4 v 4 76 h 0.235 c 4.282,0 7.765,3.396 7.765,7.57 L 4,-88 v 0.492 L 3.881,-87.03 0,-71.507 v 58.858 L 3.795,-1.265 4,-0.649 V 0 36 40 Z" /></g><path
           id="path32"
           style="fill:#ffffff;fill-opacity:1;fill-rule:nonzero;stroke:none"
           d="M 168,212 H 88 v 20 h 80 z m 4,24 H 84 v -28 h 88 z" /><g
           transform="translate(116,81.2813)"
           id="g34"><path
             id="path36"
             style="fill:#ffffff;fill-opacity:1;fill-rule:nonzero;stroke:none"
             d="M 0,0 C 0,1.495 1.224,2.719 2.719,2.719 H 21.281 C 22.776,2.719 24,1.495 24,0 v -26.562 c 0,-1.496 -1.224,-2.719 -2.719,-2.719 H 2.719 C 1.224,-29.281 0,-28.058 0,-26.562 Z m 2.719,-33.281 h 18.562 c 3.705,0 6.719,3.013 6.719,6.719 L 28,0 c 0,3.705 -3.014,6.719 -6.719,6.719 H 2.719 C -0.986,6.719 -4,3.705 -4,0 v -26.562 c 0,-3.706 3.014,-6.719 6.719,-6.719" /></g><path
           id="path38"
           style="fill:#ffffff;fill-opacity:1;fill-rule:nonzero;stroke:none"
           d="m 126,76 h -4 v -4 h 4 z" /><path
           id="path40"
           style="fill:#ffffff;fill-opacity:1;fill-rule:nonzero;stroke:none"
           d="m 134,76 h -4 v -4 h 4 z" /><path
           id="path42"
           style="fill:#ffffff;fill-opacity:1;fill-rule:nonzero;stroke:none"
           d="m 126,68 h -4 v -4 h 4 z" /><path
           id="path44"
           style="fill:#ffffff;fill-opacity:1;fill-rule:nonzero;stroke:none"
           d="m 134,68 h -4 v -4 h 4 z" /><g
           transform="translate(110,122)"
           id="g46"><path
             id="path48"
             style="fill:#ffffff;fill-opacity:1;fill-rule:nonzero;stroke:none"
             d="m 0,0 c -1.104,0 -2,-0.447 -2,-1 0,-0.553 0.896,-1 2,-1 1.104,0 2,0.447 2,1 0,0.553 -0.896,1 -2,1 M 6,0 C 4.896,0 4,-0.447 4,-1 c 0,-0.553 0.896,-1 2,-1 1.104,0 2,0.447 2,1 0,0.553 -0.896,1 -2,1 m 6,0 c -1.104,0 -2,-0.447 -2,-1 0,-0.553 0.896,-1 2,-1 1.104,0 2,0.447 2,1 0,0.553 -0.896,1 -2,1 m 32,0 c -1.104,0 -2,-0.447 -2,-1 0,-0.553 0.896,-1 2,-1 1.104,0 2,0.447 2,1 0,0.553 -0.896,1 -2,1 m 6,0 c -1.104,0 -2,-0.447 -2,-1 0,-0.553 0.896,-1 2,-1 1.104,0 2,0.447 2,1 0,0.553 -0.896,1 -2,1 m 6,0 c -1.104,0 -2,-0.447 -2,-1 0,-0.553 0.896,-1 2,-1 1.104,0 2,0.447 2,1 0,0.553 -0.896,1 -2,1 M 0,4 C -1.104,4 -2,3.553 -2,3 -2,2.447 -1.104,2 0,2 1.104,2 2,2.447 2,3 2,3.553 1.104,4 0,4 M 6,4 C 4.896,4 4,3.553 4,3 4,2.447 4.896,2 6,2 7.104,2 8,2.447 8,3 8,3.553 7.104,4 6,4 m 6,0 c -1.104,0 -2,-0.447 -2,-1 0,-0.553 0.896,-1 2,-1 1.104,0 2,0.447 2,1 0,0.553 -0.896,1 -2,1 m 32,0 c -1.104,0 -2,-0.447 -2,-1 0,-0.553 0.896,-1 2,-1 1.104,0 2,0.447 2,1 0,0.553 -0.896,1 -2,1 m 6,0 c -1.104,0 -2,-0.447 -2,-1 0,-0.553 0.896,-1 2,-1 1.104,0 2,0.447 2,1 0,0.553 -0.896,1 -2,1 m 6,0 c -1.104,0 -2,-0.447 -2,-1 0,-0.553 0.896,-1 2,-1 1.104,0 2,0.447 2,1 0,0.553 -0.896,1 -2,1 m -76,4 c -1.104,0 -2,-0.448 -2,-1 0,-0.552 0.896,-1 2,-1 1.104,0 2,0.448 2,1 0,0.552 -0.896,1 -2,1 m 44,0 c -1.104,0 -2,-0.448 -2,-1 0,-0.552 0.896,-1 2,-1 1.104,0 2,0.448 2,1 0,0.552 -0.896,1 -2,1" /></g><path
           id="path50"
           style="fill:#ffffff;fill-opacity:1;fill-rule:nonzero;stroke:none"
           d="M 176,188 H 80 v 4 h 96 z" /><path
           id="path52"
           style="fill:#ffffff;fill-opacity:1;fill-rule:nonzero;stroke:none"
           d="M 176,200 H 80 v 4 h 96 z" /><path
           id="path54"
           style="fill:#ffffff;fill-opacity:1;fill-rule:nonzero;stroke:none"
           d="M 176,136 H 80 v 4 h 96 z" /><g
           transform="translate(98,120)"
           id="g56"><path
             id="path58"
             style="fill:#ffffff;fill-opacity:1;fill-rule:nonzero;stroke:none"
             d="m 0,0 v 0 c -1.104,0 -2,0.896 -2,2 v 8 c 0,1.104 0.896,2 2,2 1.104,0 2,-0.896 2,-2 V 2 C 2,0.896 1.104,0 0,0" /></g><g
           transform="translate(104,122)"
           id="g60"><path
             id="path62"
             style="fill:#ffffff;fill-opacity:1;fill-rule:nonzero;stroke:none"
             d="m 0,0 c 0,-1.104 -2.687,-2 -6,-2 -3.313,0 -6,0.896 -6,2 0,1.104 2.687,2 6,2 3.313,0 6,-0.896 6,-2" /></g><g
           transform="translate(142,120)"
           id="g64"><path
             id="path66"
             style="fill:#ffffff;fill-opacity:1;fill-rule:nonzero;stroke:none"
             d="m 0,0 v 0 c -1.104,0 -2,0.896 -2,2 v 8 c 0,1.104 0.896,2 2,2 1.104,0 2,-0.896 2,-2 V 2 C 2,0.896 1.104,0 0,0" /></g><g
           transform="translate(148,122)"
           id="g68"><path
             id="path70"
             style="fill:#ffffff;fill-opacity:1;fill-rule:nonzero;stroke:none"
             d="m 0,0 c 0,-1.104 -2.687,-2 -6,-2 -3.313,0 -6,0.896 -6,2 0,1.104 2.687,2 6,2 3.313,0 6,-0.896 6,-2" /></g><g
           transform="translate(148,172)"
           id="g72"><path
             id="path74"
             style="fill:#ffffff;fill-opacity:1;fill-rule:nonzero;stroke:none"
             d="m 0,0 h -8 v -4 h 8 v -4 h -8 v -4 h 8 v -4 h -8 v -4 h 8 4 v 4 4 4 4 4 z" /></g><g
           transform="translate(168,164)"
           id="g76"><path
             id="path78"
             style="fill:#ffffff;fill-opacity:1;fill-rule:nonzero;stroke:none"
             d="M 0,0 H -4 V 4 H -8 V 0 h -4 v -4 h 4 v -4 h 4 v 4 h 4 z" /></g></g></g></g></svg>