<?xml version="1.0" encoding="iso-8859-1"?>
<!-- Generator: Adobe Illustrator 28.1.0, SVG Export Plug-In . SVG Version: 6.00 Build 0)  -->
<svg version="1.1" id="Layer_1" xmlns="http://www.w3.org/2000/svg" xmlns:xlink="http://www.w3.org/1999/xlink" x="0px" y="0px"
	 viewBox="0 0 256 256" style="enable-background:new 0 0 256 256;" xml:space="preserve">
<g>
	<path style="fill:#FFFFFF;" d="M238.412,11.253c-1.61-0.281-3.859-0.541-6.877-0.796c-5.705-0.482-13.846-0.913-24.196-1.283
		C186.139,8.417,157.962,8,128,8S69.861,8.417,48.661,9.174c-10.35,0.37-18.491,0.801-24.196,1.283
		c-3.018,0.255-5.268,0.515-6.877,0.796C16.06,11.52,12,12.229,12,16v12v4v152v4v16v4h4h12v4v4h4h37.258
		c2.634,8.261,9.343,15.473,19.302,20.453C98.294,241.32,110.88,244,124,244s25.706-2.68,35.44-7.547
		c9.959-4.98,16.668-12.192,19.302-20.453H224h4v-4v-4h12h4v-4v-16v-4V32v-4V16C244,12.229,239.94,11.52,238.412,11.253z
		 M157.651,232.875C148.462,237.47,136.511,240,124,240s-24.462-2.53-33.651-7.125C81.906,228.654,76.088,222.732,73.51,216h8.857
		c2.292,3.716,6.201,7.041,11.559,9.72c8.1,4.05,18.78,6.28,30.073,6.28s21.974-2.23,30.073-6.28
		c5.358-2.679,9.267-6.003,11.559-9.72h8.857C171.912,222.732,166.094,228.654,157.651,232.875z M87.338,216h73.324
		c-6.173,7.062-20.261,12-36.662,12S93.511,223.062,87.338,216z M224,212H32v-4v-4v-4h192v4v4V212z M240,204h-12v-4v-4h-4H32h-4v4v4
		H16v-16h224V204z M240,184H16V32h224V184z M16,28V16c0-2.209,50.144-4,112-4s112,1.791,112,4v12H16z"/>
	<path style="fill:#FFFFFF;" d="M33.172,174.828c1.231,1.231,2.393,2.393,29.575,3.752C81.047,179.496,103.51,180,126,180
		c22.49,0,44.953-0.504,63.254-1.419c27.182-1.359,28.344-2.522,29.575-3.752c1.055-1.055,2.369-2.369,3.747-21.877
		C223.494,139.957,224,123.993,224,108c0-15.993-0.506-31.957-1.424-44.951c-1.379-19.509-2.692-20.822-3.747-21.877
		c-1.231-1.231-2.393-2.393-29.575-3.752C170.954,36.504,148.49,36,126,36s-44.954,0.504-63.254,1.419
		c-27.182,1.359-28.344,2.522-29.575,3.752c-1.055,1.055-2.369,2.369-3.747,21.877C28.506,76.043,28,92.007,28,108
		c0,15.993,0.506,31.957,1.424,44.951C30.803,172.46,32.116,173.773,33.172,174.828z M36,44c1.562-1.562,40.294-4,90-4
		s88.438,2.438,90,4s4,28.654,4,64c0,35.346-2.438,62.438-4,64c-1.562,1.562-40.294,4-90,4c-3.373,0-6.691-0.012-9.955-0.034
		l6.355-4.766l32-24l1.6-1.2v-2v-42l14.4-10.8l4.267-3.2H192h13.211l-10.992-7.328l-3.584-2.389l14.022-2.337L204,68h-44h-4v-4
		v-5.55l-5.265,1.755l-12,4L136,65.117v-3.46l2.828-2.828l3.924-3.924l-4.964-2.482l-16-8L116,41.528V48v17.117l-2.735-0.912l-12-4
		L96,58.45V64v4h-4H48l-0.658,7.946l14.023,2.337l-3.584,2.389L46.789,88H60h17.333l4.267,3.2L96,102v66v7.065l6.058-3.635
		L116,163.065V168v7.966c-44.809-0.295-78.544-2.51-80-3.966c-1.562-1.562-4-28.654-4-64C32,72.654,34.438,45.562,36,44z M100,168
		v-68L84,88h28v60l8-8V88h12v60l8-8V88h28l-16,12v44l-32,24v-12L100,168z M100,76V64l12,4v16H84H72H60l12-8l-24-4h44l-8,4H100z
		 M168,76l-8-4h44l-24,4l12,8h-12h-12h-28V68l12-4v12H168z M132,60v24h-12V48l16,8L132,60z"/>
</g>
</svg>
