<?xml version="1.0" encoding="UTF-8" standalone="no"?>
<svg
   xmlns:dc="http://purl.org/dc/elements/1.1/"
   xmlns:cc="http://creativecommons.org/ns#"
   xmlns:rdf="http://www.w3.org/1999/02/22-rdf-syntax-ns#"
   xmlns:svg="http://www.w3.org/2000/svg"
   xmlns="http://www.w3.org/2000/svg"
   viewBox="0 0 320 288"
   height="288"
   width="320"
   xml:space="preserve"
   id="svg2"
   version="1.1"><metadata
     id="metadata8"><rdf:RDF><cc:Work
         rdf:about=""><dc:format>image/svg+xml</dc:format><dc:type
           rdf:resource="http://purl.org/dc/dcmitype/StillImage" /></cc:Work></rdf:RDF></metadata><defs
     id="defs6"><clipPath
       id="clipPath18"
       clipPathUnits="userSpaceOnUse"><path
         id="path16"
         d="M 0,256 H 256 V 0 H 0 Z" /></clipPath></defs><g
     transform="matrix(1.3333333,0,0,-1.3333333,-10.666666,314.66666)"
     id="g10"><g
       id="g12"><g
         clip-path="url(#clipPath18)"
         id="g14"><g
           transform="translate(244,188)"
           id="g20"><path
             id="path22"
             style="fill:#ffffff;fill-opacity:1;fill-rule:nonzero;stroke:none"
             d="M 0,0 H -16.994 -20 -21.002 L -25,-64 c 0,-23.805 -10.422,-46.808 -28.608,-63.184 -0.842,0.123 -1.629,0.184 -2.392,0.184 -7.992,0 -14.894,-5.582 -16.595,-13.342 -6.764,-3.523 -13.985,-6.205 -21.453,-7.998 -0.395,3.487 -3.36,6.207 -6.95,6.207 -0.29,0 -0.583,-0.017 -0.871,-0.054 l -11.402,-1.425 c -0.902,-0.113 -1.82,-0.17 -2.729,-0.17 -0.909,0 -1.827,0.057 -2.729,0.17 l -11.403,1.425 c -0.287,0.037 -0.58,0.054 -0.87,0.054 -0.372,0 -0.747,-0.029 -1.117,-0.089 -3.121,-0.499 -5.525,-3.159 -5.842,-6.332 -7.448,1.718 -14.642,4.32 -21.363,7.767 -1.529,8.019 -8.462,13.787 -16.676,13.787 -0.951,0 -1.909,-0.081 -2.854,-0.242 -18.154,16.548 -28.146,38.988 -28.148,63.304 L -210.998,0 H -212 -215.006 -232 v 36 c 0,4.4 3.6,8 8,8 h 36.891 l 10.284,-37.711 c 1.302,-4.773 5.663,-8.106 10.606,-8.106 0.66,0 1.325,0.06 1.974,0.178 l 31.103,5.655 C -129.55,4.669 -125.879,5 -122.229,5 h 12.458 c 3.65,0 7.321,-0.331 10.913,-0.984 l 31.102,-5.655 c 0.65,-0.118 1.314,-0.178 1.975,-0.178 4.943,0 9.304,3.333 10.606,8.106 L -44.89,44 H -8 c 4.4,0 8,-3.6 8,-8 z m -45,-148 c 0,-4.418 -3.582,-8 -8,-8 -4.418,0 -8,3.582 -8,8 0,4.418 3.582,8 8,8 4.418,0 8,-3.582 8,-8 m 45,32 h -26.16 l -0.576,-1.008 c -4.571,-7.996 -11.539,-18.283 -16.875,-23.54 -2.201,2.766 -5.588,4.548 -9.389,4.548 -6.617,0 -12,-5.383 -12,-12 0,-6.617 5.383,-12 12,-12 6.617,0 12,5.383 12,12 0,1.36 -0.238,2.664 -0.657,3.884 7.071,6.368 14.741,18.857 17.81,24.116 L 0,-120 v -32 c 0,-4.4 -3.6,-8 -8,-8 l -55.747,-3.717 c -2.835,-0.188 -5.675,-0.283 -8.515,-0.283 h -30.763 c 1.055,0.537 2.011,1.06 2.804,1.513 0.419,0.24 0.901,0.48 1.514,0.758 2.859,1.289 4.707,4.151 4.707,7.291 v 2.008 c 8.261,1.905 16.244,4.841 23.689,8.769 l 1.279,0.676 0.269,1.419 c 1.16,6.123 6.528,10.566 12.763,10.566 0.678,0 1.397,-0.066 2.199,-0.202 l 1.423,-0.243 1.077,0.959 c 9.457,8.424 16.904,18.387 22.132,29.613 5.412,11.617 8.16,24.001 8.167,36.747 L -17.244,-4 H 0 Z m -107.438,-45.673 c -0.927,-0.41 -1.902,-0.806 -2.883,-1.15 -0.656,-0.23 -1.314,-0.437 -1.964,-0.612 -1.301,-0.348 -2.569,-0.565 -3.715,-0.565 -2.004,0 -4.388,0.664 -6.656,1.537 -0.649,0.25 -1.287,0.517 -1.906,0.79 -0.926,0.41 -1.807,0.835 -2.601,1.238 -1.06,0.539 -1.966,1.04 -2.629,1.419 -0.602,0.344 -1.226,0.648 -1.857,0.933 -0.53,0.238 -0.993,0.587 -1.365,1.013 -0.496,0.567 -0.829,1.273 -0.943,2.043 -0.028,0.193 -0.043,0.389 -0.043,0.589 v 0.988 4.072 0.11 c 0,1.497 1.036,2.861 2.513,3.096 0.15,0.025 0.302,0.035 0.456,0.037 0.01,0 0.019,0.002 0.029,0.002 0.124,0 0.248,-0.008 0.374,-0.023 l 11.403,-1.425 c 1.066,-0.134 2.151,-0.201 3.225,-0.201 1.074,0 2.159,0.067 3.225,0.201 l 11.403,1.425 c 0.126,0.015 0.251,0.023 0.374,0.023 1.653,0 2.998,-1.346 2.998,-3 v -0.06 -4.078 -1.167 c 0,-0.2 -0.015,-0.396 -0.043,-0.589 -0.113,-0.77 -0.447,-1.476 -0.943,-2.043 -0.372,-0.426 -0.835,-0.775 -1.365,-1.013 -0.631,-0.285 -1.255,-0.589 -1.857,-0.933 -0.497,-0.284 -1.131,-0.637 -1.864,-1.023 -0.978,-0.515 -2.13,-1.087 -3.366,-1.634 M -187,-148 c 0,4.418 3.582,8 8,8 4.418,0 8,-3.582 8,-8 0,-4.418 -3.582,-8 -8,-8 -4.418,0 -8,3.582 -8,8 m 27.262,-16 c -2.841,0 -5.68,0.095 -8.514,0.283 L -224,-160 c -4.4,0 -8,3.6 -8,8 v 32 h 23.847 c 3.069,-5.259 10.739,-17.748 17.811,-24.116 -0.42,-1.22 -0.658,-2.524 -0.658,-3.884 0,-6.617 5.383,-12 12,-12 6.617,0 12,5.383 12,12 0,6.617 -5.383,12 -12,12 -3.801,0 -7.188,-1.782 -9.389,-4.548 -5.336,5.257 -12.304,15.544 -16.875,23.54 L -205.84,-116 H -232 V -4 h 17.244 L -211,-64.063 c 0.009,-12.838 2.705,-25.232 8.013,-36.838 5.146,-11.254 12.487,-21.228 21.819,-29.642 l 1.12,-1.01 1.479,0.296 c 0.849,0.171 1.713,0.257 2.569,0.257 6.409,0 11.798,-4.595 12.815,-10.925 l 0.24,-1.489 1.339,-0.696 c 7.402,-3.85 15.361,-6.709 23.606,-8.533 v -1.795 c 0,-3.14 1.848,-6.002 4.707,-7.291 0.613,-0.278 1.095,-0.518 1.514,-0.758 0.793,-0.453 1.748,-0.976 2.804,-1.513 z M -49.036,44 -59.034,7.342 c -0.829,-3.038 -3.604,-5.159 -6.747,-5.159 -0.421,0 -0.844,0.038 -1.259,0.113 L -98.144,7.952 C -101.971,8.647 -105.883,9 -109.771,9 h -12.458 c -3.888,0 -7.8,-0.353 -11.627,-1.048 L -164.96,2.296 c -0.415,-0.075 -0.838,-0.113 -1.259,-0.113 -3.144,0 -5.918,2.121 -6.747,5.159 L -182.964,44 Z M -8,48 h -216 c -6.617,0 -12,-5.383 -12,-12 v -188 c 0,-6.568 5.304,-11.92 11.854,-11.999 l 55.627,-3.709 c 2.911,-0.193 5.865,-0.292 8.781,-0.292 h 87.476 c 2.916,0 5.87,0.099 8.781,0.292 l 55.627,3.709 C -1.304,-163.92 4,-158.568 4,-152 V 36 c 0,6.617 -5.383,12 -12,12" /></g><g
           transform="translate(98,212)"
           id="g24"><path
             id="path26"
             style="fill:#ffffff;fill-opacity:1;fill-rule:nonzero;stroke:none"
             d="m 0,0 h 60 c 1.104,0 2,0.896 2,2 0,1.104 -0.896,2 -2,2 H 0 C -1.104,4 -2,3.104 -2,2 -2,0.896 -1.104,0 0,0" /></g><g
           transform="translate(193,138.6484)"
           id="g28"><path
             id="path30"
             style="fill:#ffffff;fill-opacity:1;fill-rule:nonzero;stroke:none"
             d="m 0,0 c 0,-6.984 -0.294,-14.054 -0.873,-21.011 l -2.887,-34.637 -0.368,-2.583 c -0.831,-5.916 -8.808,-12.292 -21.883,-17.493 -12.29,-4.888 -27.229,-7.924 -38.989,-7.924 -11.759,0 -26.699,3.036 -38.988,7.924 -13.076,5.201 -21.052,11.577 -21.884,17.493 l -0.242,1.721 -0.091,0.445 -2.921,35.054 C -129.706,-14.05 -130,-6.98 -130,0 v 25.352 c 0,3.774 2.382,7.175 5.928,8.462 1.605,0.583 33.405,8.538 59.072,8.538 25.306,0 57.067,-7.839 58.961,-8.498 C -2.427,32.596 0,29.18 0,25.352 Z m -4.724,37.631 c -2.028,0.707 -33.973,8.721 -60.276,8.721 -25.115,0 -57.52,-7.719 -60.438,-8.778 C -130.559,35.714 -134,30.802 -134,25.352 V 0 c 0,-7.094 0.299,-14.275 0.888,-21.343 l 3.192,-38.305 h 0.242 c 3.508,-16.037 41.19,-28 64.678,-28 23.488,0 61.17,11.963 64.679,28 h 0.241 l 3.191,38.305 C 3.701,-14.277 4,-7.096 4,0 V 25.352 C 4,30.88 0.494,35.815 -4.724,37.631" /></g><g
           transform="translate(76,220)"
           id="g32"><path
             id="path34"
             style="fill:#ffffff;fill-opacity:1;fill-rule:nonzero;stroke:none"
             d="M 0,0 H 12 V 4 H 92 V 0 h 12 v -12 c 0,-2.209 -1.791,-4 -4,-4 H 92 12 4 c -2.209,0 -4,1.791 -4,4 z m 4,-20 h 8 80 8 c 4.411,0 8,3.589 8,8 V 0 4 h -4 -8 V 8 H 92 12 8 V 4 H 0 -4 V 0 -12 c 0,-4.411 3.589,-8 8,-8" /></g><g
           transform="translate(128,112)"
           id="g36"><path
             id="path38"
             style="fill:#ffffff;fill-opacity:1;fill-rule:nonzero;stroke:none"
             d="m 0,0 c -1.344,0 -2.673,0.008 -3.995,0.02 h -0.004 c 0.022,7.209 11.964,13.298 28.365,15.291 0.002,-10e-4 0.003,-10e-4 0.005,-10e-4 1.954,-0.116 3.853,-0.246 5.691,-0.388 0.017,-0.001 0.036,-0.002 0.054,-0.004 2.417,-0.188 4.726,-0.397 6.913,-0.626 l 0.202,-0.021 c 2.117,-0.223 4.115,-0.465 5.985,-0.724 0.14,-0.02 0.281,-0.039 0.42,-0.06 0.402,-0.056 0.801,-0.113 1.19,-0.172 0.095,-0.014 0.187,-0.029 0.281,-0.043 0.715,-0.108 1.407,-0.22 2.077,-0.334 0.167,-0.028 0.335,-0.055 0.499,-0.084 0.305,-0.053 0.604,-0.108 0.9,-0.162 0.202,-0.037 0.4,-0.074 0.598,-0.112 0.275,-0.053 0.551,-0.104 0.817,-0.158 0.251,-0.051 0.492,-0.102 0.734,-0.152 0.366,-0.078 0.722,-0.156 1.069,-0.235 0.224,-0.051 0.45,-0.102 0.667,-0.154 0.201,-0.049 0.396,-0.097 0.591,-0.146 0.223,-0.056 0.441,-0.113 0.656,-0.171 0.164,-0.043 0.331,-0.086 0.488,-0.131 0.342,-0.096 0.67,-0.192 0.983,-0.289 0.124,-0.04 0.237,-0.079 0.356,-0.117 0.215,-0.07 0.424,-0.14 0.624,-0.211 0.119,-0.043 0.236,-0.085 0.35,-0.128 0.209,-0.077 0.407,-0.156 0.597,-0.235 0.078,-0.032 0.161,-0.063 0.236,-0.096 0.249,-0.108 0.481,-0.216 0.696,-0.327 0.067,-0.034 0.127,-0.069 0.191,-0.103 0.155,-0.083 0.299,-0.166 0.434,-0.251 0.06,-0.037 0.121,-0.075 0.178,-0.113 0.148,-0.1 0.283,-0.201 0.403,-0.301 0.02,-0.018 0.047,-0.035 0.066,-0.053 C 59.451,9.092 59.562,8.973 59.656,8.854 59.684,8.819 59.704,8.785 59.729,8.751 59.792,8.66 59.844,8.568 59.885,8.477 59.9,8.441 59.918,8.405 59.93,8.369 59.972,8.247 60,8.124 60,8 60,3.582 33.137,0 0,0 m -60,8 c 0,4.418 26.863,8 60,8 2.939,0 5.827,-0.029 8.654,-0.084 C 6.287,15.101 4.104,14.183 2.167,13.155 -6.184,8.726 -7.973,3.604 -7.997,0.073 -37.351,0.595 -60,3.943 -60,8 m 117.161,6.712 c -0.115,0.04 -0.228,0.08 -0.346,0.119 -2.939,0.973 -6.883,1.79 -11.994,2.527 -0.431,0.063 -0.868,0.125 -1.313,0.185 -0.189,0.026 -0.362,0.053 -0.553,0.079 -0.136,0.018 -0.279,0.035 -0.416,0.053 -0.17,0.022 -0.345,0.043 -0.517,0.065 -0.803,0.103 -1.624,0.202 -2.46,0.299 -0.133,0.015 -0.263,0.03 -0.396,0.045 -0.505,0.057 -1.016,0.113 -1.532,0.167 -0.04,0.005 -0.081,0.009 -0.121,0.013 C 26.835,19.388 13.763,20 0,20 -16.198,20 -31.453,19.155 -42.955,17.622 -58.296,15.576 -64,12.969 -64,8 c 0,-4.969 5.704,-7.576 21.045,-9.622 9.583,-1.277 21.776,-2.075 34.944,-2.306 v -0.017 l 3.923,-0.034 C -2.732,-3.992 -1.371,-4 0,-4 c 16.197,0 31.453,0.845 42.955,2.378 0.959,0.128 1.88,0.258 2.765,0.391 6.191,0.928 10.585,1.987 13.51,3.324 C 62.574,3.622 64,5.516 64,8 c 0,2.941 -2.023,5.052 -6.839,6.712" /></g><g
           transform="translate(130.209,68)"
           id="g40"><path
             id="path42"
             style="fill:#ffffff;fill-opacity:1;fill-rule:nonzero;stroke:none"
             d="M 0,0 C -0.678,0 -1.403,-0.383 -1.873,-0.989 L -5.304,-5.411 C -6.227,-6.601 -5.748,-8 -4.418,-8 c 0.678,0 1.403,0.383 1.873,0.989 l 3.431,4.422 C 1.809,-1.399 1.33,0 0,0" /></g><g
           transform="translate(138.209,68)"
           id="g44"><path
             id="path46"
             style="fill:#ffffff;fill-opacity:1;fill-rule:nonzero;stroke:none"
             d="M 0,0 C -0.678,0 -1.402,-0.383 -1.873,-0.989 L -5.304,-5.411 C -6.227,-6.601 -5.748,-8 -4.418,-8 c 0.678,0 1.402,0.383 1.873,0.989 l 3.431,4.422 C 1.809,-1.399 1.33,0 0,0" /></g><g
           transform="translate(122.209,68)"
           id="g48"><path
             id="path50"
             style="fill:#ffffff;fill-opacity:1;fill-rule:nonzero;stroke:none"
             d="M 0,0 C -0.678,0 -1.403,-0.383 -1.873,-0.989 L -5.304,-5.411 C -6.227,-6.601 -5.748,-8 -4.418,-8 c 0.678,0 1.403,0.383 1.873,0.989 l 3.431,4.422 C 1.809,-1.399 1.33,0 0,0" /></g><g
           transform="translate(140,35.123)"
           id="g52"><path
             id="path54"
             style="fill:#ffffff;fill-opacity:1;fill-rule:nonzero;stroke:none"
             d="m 0,0 -6.179,-1.545 c -1.902,-0.476 -3.86,-0.717 -5.821,-0.717 -1.96,0 -3.919,0.241 -5.821,0.717 L -24,0 v 0.346 l 8.031,-1.004 c 1.312,-0.164 2.647,-0.247 3.969,-0.247 1.322,0 2.657,0.083 3.969,0.247 L 0,0.346 Z m 4,-1.562 v 5.306 c 0,0.559 -0.455,1 -0.998,1 C 2.96,4.744 2.918,4.742 2.876,4.736 L -8.527,3.312 C -9.68,3.167 -10.84,3.095 -12,3.095 c -1.16,0 -2.32,0.072 -3.473,0.217 l -11.403,1.424 c -0.042,0.006 -0.084,0.008 -0.126,0.008 -0.543,0 -0.998,-0.441 -0.998,-1 v -5.306 c 0,-0.917 0.625,-1.717 1.515,-1.94 l 7.694,-1.924 c 2.229,-0.556 4.51,-0.836 6.791,-0.836 2.281,0 4.562,0.28 6.791,0.836 l 7.694,1.924 C 3.375,-3.279 4,-2.479 4,-1.562" /></g></g></g></g></svg>