<?xml version="1.0" encoding="utf-8"?>
<!-- Generator: Adobe Illustrator 25.4.1, SVG Export Plug-In . SVG Version: 6.00 Build 0)  -->
<svg version="1.1" id="Layer_1" xmlns="http://www.w3.org/2000/svg" xmlns:xlink="http://www.w3.org/1999/xlink" x="0px" y="0px"
	 viewBox="0 0 3839 1244.5" style="enable-background:new 0 0 3839 1244.5;" xml:space="preserve">
<style type="text/css">
	.st0{fill:#FFFFFF;}
	.st1{fill:#034693;}
	.st2{fill:#FFFFFF;stroke:#3852A1;stroke-width:6.1873;stroke-linecap:round;stroke-linejoin:round;stroke-miterlimit:10;}
	.st3{fill:#008ED6;}
	.st4{fill:#FF0000;}
	.st5{fill:url(#SVGID_1_);}
	.st6{fill:url(#SVGID_00000038375502639046975470000011946664076586512553_);}
	.st7{fill:#F4F8F4;}
	.st8{fill:url(#SVGID_00000057863959037486312420000005612224112647386808_);}
	.st9{fill:url(#SVGID_00000076584826144552788450000010073017459355895961_);}
	.st10{fill:url(#SVGID_00000160155965630034289550000001088488338352722084_);}
	.st11{fill:url(#SVGID_00000119097379222819688840000010625820752908732606_);}
	.st12{fill:url(#SVGID_00000083798478105381105470000015253933307214031290_);}
	.st13{fill:url(#SVGID_00000078752351276976186110000002999478874774509211_);}
	.st14{fill:url(#SVGID_00000090983999125285355250000001504481657831892395_);}
	.st15{fill:url(#SVGID_00000056416309915711946480000010725892943388285594_);}
	.st16{fill:url(#SVGID_00000091702807018795094980000005669306539419296172_);}
	.st17{fill:url(#SVGID_00000112607631453806024110000006172491168001895317_);}
	.st18{fill:url(#SVGID_00000153694655701437809200000001072048618847937709_);}
	.st19{fill:url(#SVGID_00000058571836658924523090000008709954687644543156_);}
	.st20{fill:url(#SVGID_00000167389743812867972090000014320572476826187398_);}
	.st21{fill:url(#SVGID_00000058577857785881137210000004462297575263056036_);}
	.st22{fill:url(#SVGID_00000176734659556381567510000008376808504779961997_);}
	.st23{fill:url(#SVGID_00000022521639675429181590000008996326376297402291_);}
	.st24{fill:url(#SVGID_00000045591127422840261010000002743162674966279576_);}
	.st25{fill:url(#SVGID_00000069395294672853031040000007793207780669324982_);}
	.st26{fill:url(#SVGID_00000163757814019546427200000013733131470799810212_);}
	.st27{fill:url(#SVGID_00000066480256013283022830000005991076132118082450_);}
	.st28{fill:url(#SVGID_00000024681360115564784800000012864932829505569153_);}
	.st29{fill:url(#SVGID_00000024680479066875979740000018384175727897438105_);}
	.st30{fill:#DBDCD9;}
	.st31{fill:url(#SVGID_00000046297124850089660590000008569779295529729973_);}
	.st32{fill:url(#SVGID_00000070088202082421871550000007915658073787334028_);}
	.st33{fill:url(#SVGID_00000072997440341898448140000002192177194379865278_);}
	.st34{fill:url(#SVGID_00000141449214540687224250000016265722204112915354_);}
	.st35{fill:url(#SVGID_00000147928712079499348090000003084537328443573906_);}
	.st36{fill:url(#SVGID_00000015355493740943947940000010165277841215002509_);}
	.st37{fill:url(#SVGID_00000050632973840644376550000010369025212473682357_);}
	.st38{fill:url(#SVGID_00000000191143482361698640000015812691925801770428_);}
	.st39{fill:url(#SVGID_00000073711524240717406040000014328205304958463166_);}
	.st40{fill:url(#SVGID_00000098904492486770940130000013689897489515591079_);}
	.st41{fill:url(#SVGID_00000098213958585557523780000000907106694150677171_);}
	.st42{fill:url(#SVGID_00000096755867932718009170000006614531128676784776_);}
	.st43{fill:url(#SVGID_00000034084591206028554210000009393944091142706847_);}
	.st44{fill:url(#SVGID_00000139275535937877416370000008513829903773137338_);}
	.st45{fill:url(#SVGID_00000048467134880796384500000006202360758576115605_);}
	.st46{fill:url(#SVGID_00000029011236254294679900000005069079754929268108_);}
	.st47{fill:url(#SVGID_00000088845287664715730800000002253911311545523341_);}
	.st48{fill:url(#SVGID_00000046326427158563109630000007941366798943390392_);}
	.st49{fill:url(#SVGID_00000009571635972114208010000010720274724797421972_);}
	.st50{fill:url(#SVGID_00000091737152368461057800000010367649336286697098_);}
	.st51{fill:url(#SVGID_00000153664707105167547630000018061650008706140074_);}
	.st52{fill:url(#SVGID_00000044171726069841664440000005299399165106968999_);}
	.st53{fill:url(#SVGID_00000039829273902464114390000000650274118490665407_);}
	.st54{fill:url(#SVGID_00000083084933049106308510000015029328569035704231_);}
	.st55{fill:url(#SVGID_00000083078909412124400890000017605547430077722768_);}
	.st56{fill:url(#SVGID_00000113315601281608079050000000027122482593707194_);}
	.st57{fill:url(#SVGID_00000126321418763046463440000004766266236035548577_);}
	.st58{fill:url(#SVGID_00000088823725801033665310000009233764772435167669_);}
	.st59{fill:url(#SVGID_00000157272680599889763910000005366883415658260358_);}
	.st60{fill:url(#SVGID_00000154406934578708200050000010183245483311855035_);}
	.st61{fill:url(#SVGID_00000169534615097209851880000007843335309747673520_);}
	.st62{fill:url(#SVGID_00000094620018201482993500000010805648092965617827_);}
	.st63{fill:url(#SVGID_00000068645540999860762850000008871633453270396288_);}
	.st64{fill:url(#SVGID_00000072975360453858840310000000825354320780776091_);}
	.st65{fill:url(#SVGID_00000121265427915131612710000013112153269206435263_);}
	.st66{fill:url(#SVGID_00000040577140711477445300000011567769040462982551_);}
	.st67{fill:url(#SVGID_00000125593440175346526830000005176165675176982713_);}
	.st68{fill:url(#SVGID_00000139972073314086944630000004557984405245179324_);}
	.st69{fill:url(#SVGID_00000167396999607443693800000003083491666611417258_);}
	.st70{fill:url(#SVGID_00000139255782940152329460000012398089048889010865_);}
	.st71{fill:url(#SVGID_00000155845740443754490580000017845637880551931544_);}
	.st72{fill:url(#SVGID_00000088104422309523406400000005305811956566494337_);}
	.st73{fill:url(#SVGID_00000042707608820037421780000014695729999627462816_);}
	.st74{fill:url(#SVGID_00000067949918721207511920000002772400195193578910_);}
	.st75{fill:url(#SVGID_00000097479929206717556090000007520122113533659315_);}
	.st76{fill:url(#SVGID_00000181796695508577459970000013976140264340059559_);}
	.st77{fill:url(#SVGID_00000156569305455327611570000012088825794623615888_);}
	.st78{fill:url(#SVGID_00000030473282269587055710000005008692572241727889_);}
	.st79{fill:url(#SVGID_00000023257319926339125600000001023886409098007693_);}
	.st80{fill:url(#SVGID_00000124152407747201167140000013383972416506663813_);}
	.st81{fill:url(#SVGID_00000139274309585327169800000015577182309194416521_);}
	.st82{fill:url(#SVGID_00000141417186344235493240000006485454728353692589_);}
	.st83{fill:url(#SVGID_00000003812291135696617940000015750908483449121173_);}
	.st84{fill:url(#SVGID_00000024690717898536397510000010654010574639354763_);}
	.st85{fill:url(#SVGID_00000178924658120276529810000013960167273239269514_);}
	.st86{fill:url(#SVGID_00000018923106480100525730000017924918405749334443_);}
	.st87{fill:url(#SVGID_00000150816486410603145450000010985236279322227612_);}
	.st88{fill:url(#SVGID_00000023258897663668973370000000644622862673213604_);}
	.st89{fill:url(#SVGID_00000020374375240826771620000000167792637688985255_);}
	.st90{fill:url(#SVGID_00000138573682753793992840000003798441087215019447_);}
	.st91{fill:url(#SVGID_00000151545650591998043610000009292149181108981169_);}
	.st92{fill:url(#SVGID_00000060031190649996438190000016518685714462089870_);}
	.st93{fill:url(#SVGID_00000008115101411731101250000007782875689885185409_);}
	.st94{fill:url(#SVGID_00000064336159891711529980000007336230840213531830_);}
	.st95{fill:url(#SVGID_00000072994387626541394020000015514860905518464688_);}
	.st96{fill:url(#SVGID_00000183964232746511655310000005971882492589832327_);}
	.st97{fill:url(#SVGID_00000164514260646203810420000014364646395326167972_);}
	.st98{fill:url(#SVGID_00000090976626698861145030000011012518975349767327_);}
	.st99{fill:url(#SVGID_00000100361585673362779250000016115276377760493954_);}
	.st100{fill:url(#SVGID_00000137116943302021908170000011953702340014180262_);}
	.st101{fill:url(#SVGID_00000002369070325643510940000001482948979517036676_);}
	.st102{fill:url(#SVGID_00000048473331232801259920000004278555185149797037_);}
	.st103{fill:url(#SVGID_00000120539915165266300100000004054466808846512035_);}
	.st104{fill:url(#SVGID_00000058564642203881547460000016794388611857201799_);}
	.st105{fill:url(#SVGID_00000103982164293878546940000001285792300625189271_);}
	.st106{fill:url(#SVGID_00000067229653788633733510000003616508178980244358_);}
	.st107{fill:url(#SVGID_00000075148153002239392600000015844491146113772433_);}
	.st108{fill:url(#SVGID_00000134952856361302216130000007264878791072046484_);}
	.st109{fill:url(#SVGID_00000042701091853109087440000004416966849947464093_);}
	.st110{fill:url(#SVGID_00000041259783462802467180000011088850779965289392_);}
	.st111{fill:url(#SVGID_00000119796209484166702850000010674316458561489812_);}
	.st112{fill:url(#SVGID_00000100373567842046250010000005021368713508120480_);}
	.st113{fill:url(#SVGID_00000068660340099567042180000004713585361718884507_);}
	.st114{fill:url(#SVGID_00000083776603473022494500000015489739037996636294_);}
	.st115{fill:url(#SVGID_00000031913270444795121700000002619815581384148096_);}
	.st116{fill:url(#SVGID_00000054963632650378472550000002561524986894024621_);}
	.st117{fill:url(#SVGID_00000114759776420886649910000003560635246270916540_);}
	.st118{fill:url(#SVGID_00000129925258335938373480000008765710026474643901_);}
	.st119{fill:url(#SVGID_00000160166129978554710340000006621749295390536332_);}
	.st120{fill:url(#SVGID_00000152227922623361429570000018148981167119082131_);}
	.st121{fill:url(#SVGID_00000174576272716935736910000006268290524247286710_);}
	.st122{fill:url(#SVGID_00000055679343169903875870000000613550456840640442_);}
	.st123{fill:url(#SVGID_00000008859253903273422380000010834811106466975633_);}
	.st124{fill:url(#SVGID_00000144313667098303668600000007296590896650452656_);}
	.st125{fill:url(#SVGID_00000105406764985945074170000012752717513289071024_);}
	.st126{fill:url(#SVGID_00000154405864796494825640000002910254933643134640_);}
	.st127{fill:url(#SVGID_00000014631593994484659090000008087077672433710216_);}
	.st128{fill:url(#SVGID_00000077301312731644229060000000251114916961006980_);}
	.st129{fill:url(#SVGID_00000042715385739313180840000014841058046990420105_);}
	.st130{fill:url(#SVGID_00000018232627293835153830000008475286657028321928_);}
	.st131{fill:url(#SVGID_00000111185385189176206660000001372584486469693367_);}
	.st132{fill:url(#SVGID_00000124136597747190302690000013464944065054516625_);}
	.st133{fill:url(#SVGID_00000060020734085731210540000000543132153345913502_);}
	.st134{fill:url(#SVGID_00000105407268812924528840000001580201504206175162_);}
	.st135{fill:url(#SVGID_00000167366984836866274250000012167911995032853182_);}
	.st136{fill:url(#SVGID_00000013166695259396071960000008791487673238902204_);}
	.st137{fill:url(#SVGID_00000039130944267659820990000014633640661258340261_);}
	.st138{fill:url(#SVGID_00000080207861149966662920000003236945529673789348_);}
	.st139{fill:url(#SVGID_00000035515841734132187350000015211543183314694847_);}
	.st140{fill:url(#SVGID_00000033360986142113427820000007314967495112341410_);}
	.st141{fill:url(#SVGID_00000014627803593590059900000011116004374272356999_);}
	.st142{fill:url(#SVGID_00000115503658377676334980000000550832373308867463_);}
	.st143{fill:url(#SVGID_00000171700514305152806040000004769830903359442828_);}
	.st144{fill:url(#SVGID_00000054949235021994498350000017803093224129133707_);}
	.st145{fill:url(#SVGID_00000087405263384818158080000008442396233854632851_);}
	.st146{fill:url(#SVGID_00000026868507070735812150000001804912628219591097_);}
	.st147{fill:url(#SVGID_00000182517376891442665000000005622413854385377709_);}
	.st148{fill:url(#SVGID_00000039827796154609218960000004003044455164770463_);}
	.st149{fill:url(#SVGID_00000049938862551266021440000004937589395988659852_);}
	.st150{fill:url(#SVGID_00000013878870486840060720000014694608928270069395_);}
	.st151{fill:url(#SVGID_00000102502925752441029920000012696916538188125375_);}
	.st152{fill:url(#SVGID_00000161602569955747800730000010050032348829262238_);}
	.st153{fill:url(#SVGID_00000020366961287805168720000016008685849092188345_);}
	.st154{fill:url(#SVGID_00000133501665545357095350000003280816490053262209_);}
	.st155{fill:url(#SVGID_00000132791265105741154800000009972892633278611622_);}
	.st156{fill:url(#SVGID_00000080920290124220051750000017982538393441243032_);}
	.st157{fill:url(#SVGID_00000095328951730769643680000003826567143485928594_);}
	.st158{fill:url(#SVGID_00000111164794785809344100000017924084923171723137_);}
	.st159{fill:url(#SVGID_00000120560471655352577600000014983469258268284312_);}
	.st160{fill:url(#SVGID_00000182518982221185111160000016545556564280462505_);}
	.st161{fill:url(#SVGID_00000103981325297402923340000001523684314134335134_);}
	.st162{fill:url(#SVGID_00000145017037201612323260000016110835087461064330_);}
	.st163{fill:url(#SVGID_00000095335694344935855220000005832265616166598035_);}
	.st164{fill:url(#SVGID_00000065076819581604541380000012337235873636236204_);}
	.st165{fill:url(#SVGID_00000015356272675418139830000010461221461831367067_);}
	.st166{fill:url(#SVGID_00000081618345061494022220000000063188052979812276_);}
	.st167{fill:url(#SVGID_00000166661491349139157970000001357417109307044483_);}
	.st168{fill:url(#SVGID_00000026871522740966808070000017863066526029416590_);}
	.st169{fill:url(#SVGID_00000083080289897158191820000003588058136088614815_);}
	.st170{fill:url(#SVGID_00000059277650361747903100000011278109472555586442_);}
	.st171{fill:url(#SVGID_00000088838973976289567040000012889411797301802120_);}
	.st172{fill:url(#SVGID_00000100368602747704099910000006798356951583991171_);}
	.st173{fill:url(#SVGID_00000047767047937519182700000016415355718255613356_);}
	.st174{fill:url(#SVGID_00000021818079326429480530000013767642823227396540_);}
	.st175{fill:url(#SVGID_00000037694841437470921110000005557615337560539018_);}
	.st176{fill:url(#SVGID_00000155139158043332082730000017949929740251051700_);}
	.st177{fill:url(#SVGID_00000037685119436664931330000003392427871682865331_);}
	.st178{fill:url(#SVGID_00000136371692047806311610000007080693731363314104_);}
	.st179{fill:url(#SVGID_00000178163762949826308910000017689693848161922732_);}
	.st180{fill:url(#SVGID_00000011738494578230606570000004883048736400510855_);}
	.st181{fill:url(#SVGID_00000154410801253003427700000002322714877324780722_);}
	.st182{fill:url(#SVGID_00000036231301578907568990000011209840648813240498_);}
	.st183{fill:url(#SVGID_00000098905856248514952880000007294303368995413680_);}
	.st184{fill:url(#SVGID_00000047027723218587415490000009954561123066600636_);}
	.st185{fill:url(#SVGID_00000074408537913539569110000006083567812336719294_);}
	.st186{fill:url(#SVGID_00000094613761979205347480000011727738344202152374_);}
	.st187{fill:url(#SVGID_00000121243665299266875230000011766511666046942354_);}
	.st188{fill:url(#SVGID_00000021081519253869988530000010999603174614761605_);}
	.st189{fill:url(#SVGID_00000096060476093323989900000011714435374782831751_);}
	.st190{fill:url(#SVGID_00000035494978120761421950000011856720840843161989_);}
	.st191{fill:url(#SVGID_00000134932573593528719940000014475562091090785425_);}
	.st192{fill:url(#SVGID_00000010302744112694958240000007794841206725814145_);}
	.st193{fill:url(#SVGID_00000016796338202156025050000009263439340433540237_);}
	.st194{fill:url(#SVGID_00000043420670843239720220000013865276593003545268_);}
	.st195{fill:#F6F7F7;}
	.st196{fill:url(#SVGID_00000045613065543376094630000005950917774426305681_);}
	.st197{fill:url(#SVGID_00000011005765469787700150000009785572611603372688_);}
	.st198{fill:url(#SVGID_00000044896438420487830930000003474736883879337405_);}
	.st199{fill:url(#SVGID_00000109010894933814073920000013744578049226903972_);}
	.st200{fill:url(#SVGID_00000168084733689845436020000011026608939940846520_);}
	.st201{fill:url(#SVGID_00000005985064093996539970000008634377454790732710_);}
	.st202{fill:url(#SVGID_00000101064892781729020440000016150784354598417288_);}
	.st203{fill:url(#SVGID_00000145748341295612133490000006345200489464888233_);}
	.st204{fill:url(#SVGID_00000111882017308758401120000009123328041063296445_);}
	.st205{fill:url(#SVGID_00000183234077700307099680000009855067606621278636_);}
	.st206{fill:url(#SVGID_00000028319270230774047170000016856110655024168865_);}
	.st207{fill:url(#SVGID_00000183941333847257039580000004632005975163602095_);}
	.st208{fill:url(#SVGID_00000102524520088515702100000013631546914764161681_);}
	.st209{fill:url(#SVGID_00000071524813234290762180000006315367311680883081_);}
	.st210{fill:#A8988B;}
	.st211{fill:#0C0002;}
</style>
<g>
	<g>
		<g>
			<g>
				<rect y="1144.2" class="st3" width="3839" height="25.2"/>
				<g>
					<path d="M525.5,684.4c-3-1.1-12.5-0.3-28.4,2.5c-15.9,2.8-26.9,6.8-32.9,12.1c-3.8,3-6.2,5.7-7.3,8.1c-1.1,2.4-1.7,5.3-1.7,8.7
						v339.1c0,5.2,2.4,9.5,7.3,12.9c3.4,2.2,8.9,4.6,16.6,7c7.7,2.4,19.6,4.4,35.7,5.9c2.2,0,5.2,0.4,9,1.1v16.9H310.6v-16.3
						c12.7-1.5,22.5-2.6,29.2-3.4c20.2-3,32.1-6,35.4-9c6-5.2,9-13.5,9-24.7V717.6l-141.1,398.5L101.5,727.7v270.5
						c0,13.1,2.1,25.3,6.2,36.5c4.1,11.2,9.7,20,16.9,26.4c9,7.9,20.2,13.7,33.7,17.4c4.5,1.1,10.7,2.2,18.6,3.4v16.9H0.3v-16.9
						c5.6,0,13.7-1.5,24.2-4.5c14.6-4.1,25.4-10.4,32.3-18.8s12.5-18,16.6-28.6c4.1-10.7,6.2-22.2,6.2-34.5V714.7
						c-3.8-7.9-6.2-12.4-7.4-13.5c-3-4.1-8.4-7.4-16.1-9.8c-7.7-2.4-22-4.4-42.8-5.9c-3,0-7.4-0.4-13-1.1v-16.8h154.3L268.3,986
						l110.4-318.4h146.7L525.5,684.4L525.5,684.4z"/>
					<path d="M814.9,1027.9c0,22.9-4.5,40.5-13.6,52.9c-11.3,15.4-29.2,23.1-53.7,23.1c-25.2,0-42.4-11-51.4-32.9
						c-3-7.2-5.1-18.1-6.2-32.9c-9,18-23,33.5-42.1,46.4c-19.1,12.9-40.9,19.4-65.6,19.4c-22.1,0-40.9-6.4-56.6-19.1
						c-17.2-13.9-25.8-32.6-25.8-56.1c0-24,9.2-44.2,27.6-60.6c22.2-19.4,61.3-35,117.3-46.6l45.1-9v-66.2c0-15-5.3-26.7-15.8-35.4
						c-10.5-8.6-25.4-12.9-44.6-12.9c-16.2,0-31,2.9-44.3,8.7c-13.4,5.8-20.1,12.4-20.1,19.9c0,2.6,4,7.5,12.1,14.8
						c8.1,7.3,12.1,15,12.1,23.2c0,9.3-3.4,17.2-10.1,23.5c-6.7,6.3-15.2,9.5-25.3,9.5c-10.9,0-20.2-3.8-27.8-11.5
						c-7.7-7.6-11.5-16.1-11.5-25.5c0-26.5,12.7-47,38.2-61.6c22.1-12.7,48.2-19,78.2-19c48,0,81.5,10.7,100.7,32.1
						c16.1,18,24.2,46.7,24.2,86v168.1c0,7.9,4.5,11.8,13.5,11.8c9.4-1.1,16.5-6.7,21.4-16.9c4.9-10.1,7.3-21.6,7.3-34.3v-19.7H815
						v20.8H814.9z M690.1,966.2v-36.1l-30.4,6.2c-28.9,6-50.1,14.7-63.5,26c-16.5,13.9-24.7,34.1-24.7,60.4
						c0,16.2,2.1,28.6,6.2,37.3c5.6,12,15.2,18.1,28.7,18.1c23.6,0,43.5-11.6,59.6-34.7C682,1020.1,690.1,994.4,690.1,966.2z"/>
					<path d="M1068.1,997.5c0,30.4-12.9,55.7-38.8,75.9c-24.4,19.1-53.2,28.7-86.6,28.7c-18,0-36.2-3.9-54.5-11.8
						c-15-8.6-30-17.4-45-26.4c-3.4,0.4-7.7,6.2-12.9,17.4c-1.5,3.8-3.9,9.6-7.3,17.4h-13.5V957.1h12.9l7.9,20.2
						c12,32.6,25.9,57.4,41.6,74.2c19.9,21.4,44.1,32.1,72.5,32.1c20.2,0,36.4-5.1,48.4-15.2c12-10.1,18-24.6,18-43.3
						c0-17.2-7.7-30.5-23.1-39.9c-6.7-4.1-23.3-10.5-49.5-19.1l-45.5-15.2c-22.1-7.1-39.4-16.7-51.7-28.7
						c-14.6-13.9-21.9-30.9-21.9-51.2c0-28.1,11.4-50.7,34.3-67.8s49.7-25.6,80.4-25.6c15.4,0,30.6,2.8,45.6,8.4
						c12,6,24.2,12,36.6,18c4.5-1.1,8.4-5.7,11.8-13.8c1.1-2.7,2.4-6.9,3.9-12.6h11.8v121.5H1030l-1.7-7.9
						c-6-28.1-16.5-50.4-31.5-66.9c-17.2-19.1-39-28.7-65.2-28.7c-18,0-32.8,3.9-44.4,11.8c-11.6,7.9-17.4,18.6-17.4,32.1
						c0,13.1,6.7,24,20.2,32.6c7.9,5.3,21.7,10.9,41.6,16.9l42.7,13.5c39,12,64.9,25.9,77.6,41.6
						C1062.7,957.7,1068.1,975.4,1068.1,997.5z"/>
					<path d="M1288.8,993.6c0,31.1-7.1,56.4-21.4,75.9c-16.5,22.5-40.7,33.7-72.5,33.7c-27,0-47.8-9-62.4-27
						c-13.1-16.1-19.7-36.9-19.7-62.4V801.9h-55.1v-18h17.4c15,0,28.4-3.6,40.2-10.7c11.8-7.1,21.2-17.2,28.1-30.4
						c6.9-13.1,12-24.9,15.2-35.4s4.8-23.1,4.8-37.7V654h15.7v129.9h95.6v18h-95.6V1038c0,12,3.1,21.7,9.2,29
						c6.2,7.3,15.9,11,29.3,11c17.5,0,31.3-9,41.4-27c8.6-15.4,12.9-33.9,12.9-55.7v-26.4h16.9V993.6z"/>
					<path d="M1552.9,991.9c0,30.4-9.9,56.2-29.8,77.6c-22.1,23.6-53.8,35.4-95,35.4c-42.4,0-79.9-15.5-112.5-46.6
						c-32.6-31.1-48.9-68.1-48.9-111.2c0-44.5,15.3-83.6,45.9-117.1s68.5-50.2,113.5-50.2c36.4,0,67,13.6,91.8,40.9
						c23.3,25.8,34.9,54.9,34.9,87.4v26.3h-213.6v23.1c0,43.9,5.4,75.2,16.3,93.9c13.1,22.9,37.1,34.3,72,34.3
						c32.2,0,57.7-8.8,76.5-26.4c21-19.5,31.5-41.6,31.5-66.4v-6.2l17.4-0.6L1552.9,991.9L1552.9,991.9z M1484.3,880.7
						c0-3,0-5.2,0-6.7c0-25.5-5.4-44.7-16.1-57.6c-10.7-12.9-26.3-19.4-46.6-19.4c-30.9,0-52.7,11.1-65.5,33.2
						c-10.2,17.6-15.2,43.9-15.2,78.7v5.1h124.8c8.2,0,13.7-3.6,16.3-10.7C1483.6,899,1484.3,891.5,1484.3,880.7z"/>
					<path d="M1817.7,834.5c0,11.2-3.8,20.8-11.2,28.7c-7.5,7.9-16.7,11.8-27.6,11.8c-10.1,0-19-3.6-26.7-10.9
						c-7.7-7.3-11.5-15.9-11.5-26c0-13.8,6.4-24.4,19.1-31.8c-2.3-1.6-4.3-3.4-6.2-5.5c-1.5-0.8-4.7-1.2-9.6-1.2
						c-28.7,0-49.4,16.7-62.2,50c-9.8,25.5-14.7,58.3-14.7,98.4v104.6c0,6.4,2.2,11.2,6.5,14.6c4.3,3.4,11,6.2,20,8.4l36,6.8v16.3
						h-190.6v-16.3c7.5-0.4,13.3-0.7,17.4-1.1c12.4-1.5,22.3-3.9,29.8-7.3c10.1-5.6,15.2-13.3,15.2-23V831.7c0-3.4-1.1-6.4-3.4-9.3
						c-2.2-2.8-4.5-5-6.7-6.5c-4.1-2.6-12-4.5-23.6-5.6c-11.6-1.1-19.7-1.7-24.2-1.7c-1.9,0-3.8,0-5.6,0c-0.4,0-1.1,0-2.3,0v-16.8
						c8.6,0,20.2-0.9,34.9-2.8c14.6-1.9,26.6-2.8,36-2.8l57.9-5.6v70.9c7.1-16.1,13.9-28.1,20.2-36c19.9-24.4,44.8-36.6,74.8-36.6
						c19.5,0,34.5,6.2,45,18.6C1813.2,807.9,1817.7,820.3,1817.7,834.5z"/>
					<path d="M2259.3,973.7c0,39.8-15.7,73.1-47,100c-31.3,26.8-68,40.3-109.9,40.3c-32.2,0-63.7-8.6-94.5-25.9
						c-13.1-8.6-26.1-17.2-38.8-25.9c-4.1,0-9.9,7.2-17.4,21.7c-7.5,14.4-11.2,23-11.2,25.6h-13.5V902.6h14.6l8.4,29.8
						c14.2,49.5,31.1,87,50.6,112.5c25.9,33.7,58.5,50.6,97.9,50.6c28.9,0,54.2-8.8,75.9-26.5c21.7-17.6,32.6-39.6,32.6-65.9
						c0-20.3-5.8-36.6-17.4-49c-12.8-13.9-39-26.1-78.7-36.6l-41.6-11.3c-54.7-15-92.2-33-112.5-54.1
						c-16.9-17.6-25.3-39.4-25.3-65.3c0-36,14.1-65.6,42.2-88.7s61.3-34.6,99.5-34.6c22.5,0,44.2,4.7,65.2,14.1
						c17.2,9.8,34.5,19.5,51.7,29.2c6-1.5,11.6-8.4,16.9-20.8c1.5-4.1,3.4-10.3,5.6-18.6h16.9v173.8h-14.1l-2.8-11.9
						c-9.4-43.3-24.2-77.5-44.4-102.7c-24-30.1-54.6-45.2-91.7-45.2c-25.9,0-48,7-66.4,20.8c-18.4,13.9-27.6,32.1-27.6,54.6
						c0,21.8,12.2,39.6,36.6,53.5c15.7,9,41.2,18,76.5,27l35.4,9.6c40.1,10.5,69.9,23.6,89.4,39.4
						C2246.3,907.6,2259.3,936.7,2259.3,973.7z"/>
					<path d="M2605,780l-0.6,17c-14.3,1.9-24.1,3.7-29.5,5.4c-5.4,1.7-12,6.3-19.7,13.9c-7.7,7.5-15.2,17.9-22.5,31.1
						c-7.3,13.2-14.3,28.1-21.1,44.6l-111.4,274.9c-9.8,24.4-21.2,42.7-34.3,55.1c-15.7,15-35.1,22.5-57.9,22.5
						c-18,0-33.9-5.6-47.8-16.9c-13.9-11.2-20.8-25.1-20.8-41.6c0-12,3.9-22.3,11.8-30.9c7.9-8.6,17.6-12.9,29.2-12.9
						c10.9,0,19.9,3.6,27,10.7s10.7,15.9,10.7,26.4c0,17.6-7.9,29.6-23.6,36c1.9,0.7,3.2,1.3,3.9,1.7c4.5,2.2,8.8,3.4,12.9,3.4
						c18.4,0,34.3-8,47.8-24c9-10.7,19.1-28.7,30.4-54.2l13.5-31.5l-110.7-270c-3-7.2-5.1-12.1-6.2-14.8c-2.6-5.3-5.7-9.7-9.3-13.3
						s-9.3-6.9-17.2-9.9c-11.6-4.5-19.9-6.4-24.7-5.7v-17h176.6l-0.6,17c-10.9,0.8-18.9,1.3-24.2,1.7c-16.5,1.9-25.6,4.7-27.3,8.5
						c-1.7,3.8-2.5,6.8-2.5,9.1c0,3,0.9,6.5,2.6,10.5c1.7,4,3,7.1,3.8,9.4l74.4,184.2l67.5-165.1c2.8-6.8,4.1-14.5,4.1-23.2
						c0-4.2-0.2-7.5-0.6-10.2c-0.4-2.6-1.1-6.2-2.2-10.8c-1.1-4.5-7.9-8.2-20.2-11c-12.4-2.8-19.7-3.9-21.9-3.1v-17H2605z"/>
					<path d="M2815.3,997.5c0,30.4-12.9,55.7-38.8,75.9c-24.4,19.1-53.2,28.7-86.6,28.7c-18,0-36.2-3.9-54.5-11.8
						c-15-8.6-30-17.4-45-26.4c-3.4,0.4-7.7,6.2-12.9,17.4c-1.5,3.8-3.9,9.6-7.3,17.4h-13.5V957.1h12.9l7.9,20.2
						c12,32.6,25.9,57.4,41.6,74.2c19.9,21.4,44,32.1,72.5,32.1c20.2,0,36.4-5.1,48.4-15.2c12-10.1,18-24.6,18-43.3
						c0-17.2-7.7-30.5-23.1-39.9c-6.7-4.1-23.2-10.5-49.5-19.1l-45.6-15.2c-22.1-7.1-39.4-16.7-51.7-28.7
						c-14.6-13.9-21.9-30.9-21.9-51.2c0-28.1,11.4-50.7,34.3-67.8s49.7-25.6,80.4-25.6c15.4,0,30.6,2.8,45.6,8.4
						c12,6,24.2,12,36.6,18c4.5-1.1,8.4-5.7,11.8-13.8c1.1-2.7,2.4-6.9,3.9-12.6h11.8v121.5h-13.5l-1.7-7.9
						c-6-28.1-16.5-50.4-31.5-66.9c-17.2-19.1-39-28.7-65.2-28.7c-18,0-32.8,3.9-44.4,11.8c-11.6,7.9-17.4,18.6-17.4,32.1
						c0,13.1,6.7,24,20.2,32.6c7.9,5.3,21.7,10.9,41.6,16.9l42.7,13.5c39,12,64.9,25.9,77.6,41.6
						C2809.8,957.7,2815.3,975.4,2815.3,997.5z"/>
					<path d="M3012.8,993.6c0,31.1-7.1,56.4-21.4,75.9c-16.5,22.5-40.7,33.7-72.5,33.7c-27,0-47.8-9-62.4-27
						c-13.1-16.1-19.7-36.9-19.7-62.4V801.9h-55.1v-18h17.4c15,0,28.4-3.6,40.2-10.7c11.8-7.1,21.2-17.2,28.1-30.4
						c6.9-13.1,12-24.9,15.2-35.4c3.2-10.5,4.8-23.1,4.8-37.7V654h15.7v129.9h95.6v18h-95.5V1038c0,12,3.1,21.7,9.2,29
						c6.2,7.3,15.9,11,29.3,11c17.5,0,31.3-9,41.4-27c8.6-15.4,12.9-33.9,12.9-55.7v-26.4h16.9L3012.8,993.6L3012.8,993.6z"/>
					<path d="M3254.1,991.9c0,30.4-9.9,56.2-29.8,77.6c-22.1,23.6-53.8,35.4-95,35.4c-42.4,0-79.9-15.5-112.5-46.6
						c-32.6-31.1-48.9-68.1-48.9-111.2c0-44.5,15.3-83.6,45.9-117.1c30.6-33.5,68.5-50.2,113.5-50.2c36.4,0,67,13.6,91.8,40.9
						c23.3,25.8,34.9,54.9,34.9,87.4v26.3h-213.6v23.1c0,43.9,5.4,75.2,16.3,93.9c13.1,22.9,37.1,34.3,72,34.3
						c32.2,0,57.7-8.8,76.5-26.4c21-19.5,31.5-41.6,31.5-66.4v-6.2l17.4-0.6v5.8H3254.1z M3185.4,880.7c0-3,0-5.2,0-6.7
						c0-25.5-5.4-44.7-16.1-57.6c-10.7-12.9-26.3-19.4-46.6-19.4c-30.9,0-52.7,11.1-65.5,33.2c-10.2,17.6-15.2,43.9-15.2,78.7v5.1
						h124.8c8.2,0,13.7-3.6,16.3-10.7C3184.7,899,3185.4,891.5,3185.4,880.7z"/>
					<path d="M3839,1098.8h-190.1v-15.2c10.1-0.4,17.8-0.7,23.1-1.1c16.1-1.9,26.6-5.4,31.5-10.7c4.9-5.3,7.3-12.8,7.3-22.6V849.3
						c0-12-3-21.6-9-28.8c-7.1-8.3-17.6-12.4-31.5-12.4c-30.4,0-55.5,15.7-75.4,47.2c-16.5,25.9-24.7,51.7-24.7,77.6v117
						c0,6.4,0.8,11.8,2.5,16.3s5.3,7.9,11,10.1c5.6,2.2,13.4,4,23.3,5.3s17.5,1.6,22.8,0.8v16.3h-191.8v-16.4
						c10.1-0.4,18-0.7,23.6-1.1c16.9-1.9,27.7-5.4,32.6-10.4c4.9-5.1,7.3-12.3,7.3-21.7V849.3c0-12-3.8-21.8-11.2-29.4
						c-7.5-7.5-18.2-11.3-32.1-11.3c-31.1,0-56.1,16-74.8,48c-16.9,28.6-25.3,61.9-25.3,99.9v98.2c0,6.4,2.1,11.5,6.2,15.2
						c4.1,3.8,10.5,6.6,19.1,8.5c3.7,0.8,10.9,1.7,21.4,2.8c3,0,7.1,0.4,12.4,1.1v16.4h-189v-16.3c7.5,0,15.3-0.2,23.3-0.6
						c8.1-0.4,15.4-2.1,21.9-5.1c6.6-3,11.3-6.4,14.3-10.1s4.5-8.2,4.5-13.5V833.4c0-3-0.9-6-2.8-9c-1.9-3-3.8-5.2-5.6-6.7
						c-4.9-3.4-14.8-5.9-29.8-7.6c-15-1.7-23.1-2.2-24.2-1.4v-16.9c8.2,0,14.2,0,17.9,0c2.6,0,4.7,0,6.2,0c14.2,0,27-0.6,38.3-1.7
						c11.4-1.1,22.4-2.3,33-3.7c10.6-1.3,21.4-2.9,32.2-4.8l0.6,88.9c9-19.9,17.7-34.7,25.9-44.4c25.2-30.7,55.8-46.1,91.9-46.1
						c23.7,0,44,8.2,60.9,24.5c15.8,15.2,26.3,35.3,31.6,60.4c2.2-17.2,17.2-36.9,45-59c21.7-17.2,45.7-25.9,72-25.9
						c24,0,45.6,8.3,65,24.8c19.3,16.6,29,36.9,29,60.9V1053c0,6,0.8,11,2.5,15c1.7,4,5,6.7,9.8,8.2c9.4,3,19.1,5.2,29.2,6.5
						c10.1,1.3,16.1,1.6,18,0.8v15.3L3839,1098.8L3839,1098.8z"/>
				</g>
			</g>
			<g>
				<g>
					<g>
						<path class="st1" d="M1257.2,393.9h-247.4v77.2h247.4c47.5,0,87.1-39.6,87.1-87.1s-39.6-87.1-87.1-87.1h-63.4
							c-57.4,0-104.9-47.5-104.9-104.9s47.5-104.9,104.9-104.9h245.4V9.9h-247.4c-101,0-182.1,81.2-182.1,182.1
							S1090.9,374,1191.8,374h63.4c5.9,0,9.9,4,9.9,9.9C1265.1,389.9,1261.1,393.9,1257.2,393.9z"/>
						<path class="st1" d="M1191.9,184.1h247.4v-79.2h-247.4c-47.5,0-87.1,39.6-87.1,87.1s39.6,87.1,87.1,87.1h63.4
							c57.4,0,104.9,47.5,104.9,104.9s-47.6,105-105,105h-245.4v77.2h247.4c101,0,182.1-81.2,182.1-182.1s-81.2-182.1-182.1-182.1
							h-63.4c-5.9,0-9.9-4-9.9-9.9C1183.9,188.1,1187.9,184.1,1191.9,184.1z"/>
					</g>
					<g>
						<path class="st1" d="M2080.6,104.9c-33.7,0-59.4,25.7-59.4,59.4v247.4c0,33.7,25.7,59.4,59.4,59.4h160.4V296.9h-122.7v77.2
							h45.5v17.8h-45.5c-9.9,0-17.8-7.9-17.8-17.8V199.9c0-9.9,7.9-17.8,17.8-17.8H2338V105L2080.6,104.9L2080.6,104.9z"/>
						<path class="st1" d="M2567.4,471.1h180.2l-122.7-364.2c-4-9.9-11.9-17.8-23.8-17.8c-9.9,0-19.8,7.9-23.8,15.8L2419,566.1h91.1
							l55.4-164.3v69.3H2567.4z M2599.1,304.8l25.7,79.2h-53.5L2599.1,304.8z"/>
						<path class="st1" d="M2880.1,566.1l-160.4-475C2704,39.6,2656.5,0,2599.1,0s-105,37.6-118.8,89.1l-144.5,423.6V201.8h-217.7
							V279h142.5v209.8h-178.2c-43.6,0-77.2-35.6-77.2-77.2V164.3c0-43.6,35.6-77.2,77.2-77.2h255.3V9.9h-257.3
							c-85.1,0-154.4,69.3-154.4,154.4v247.4c0,85.1,69.3,154.4,154.4,154.4h318.6L2559.5,101c5.9-17.8,21.8-29.7,41.6-29.7
							s35.6,11.9,41.6,29.7l130.6,387.9h-205.8v77.2"/>
					</g>
					<g>
						<path class="st1" d="M1631.3,488.9c-43.6,0-77.2-35.6-77.2-77.2V164.3c0-43.6,35.6-77.2,77.2-77.2h265.2V9.9h-265.2
							c-85.1,0-154.4,69.3-154.4,154.4v247.4c0,85.1,69.3,154.4,154.4,154.4h265.2v-77.2H1631.3z"/>
						<path class="st1" d="M1649.1,376.1H1841v-77.2h-269.1v114.8c0,33.7,25.7,59.4,59.4,59.4h265.2v-77.2h-229.6
							C1657,393.9,1649.1,386,1649.1,376.1z"/>
						<path class="st1" d="M1841,201.8h-191.9c0-9.9,7.9-17.8,17.8-17.8h227.6v-79.2h-263.2c-33.7,0-59.4,25.7-59.4,59.4V279H1841
							C1841,279,1841,201.8,1841,201.8z"/>
					</g>
				</g>
			</g>
		</g>
	</g>
</g>
</svg>
