<?xml version="1.0" encoding="UTF-8" standalone="no"?>
<svg
   xmlns:dc="http://purl.org/dc/elements/1.1/"
   xmlns:cc="http://creativecommons.org/ns#"
   xmlns:rdf="http://www.w3.org/1999/02/22-rdf-syntax-ns#"
   xmlns:svg="http://www.w3.org/2000/svg"
   xmlns="http://www.w3.org/2000/svg"
   viewBox="0 0 320 320"
   height="320"
   width="320"
   xml:space="preserve"
   id="svg2"
   version="1.1"><metadata
     id="metadata8"><rdf:RDF><cc:Work
         rdf:about=""><dc:format>image/svg+xml</dc:format><dc:type
           rdf:resource="http://purl.org/dc/dcmitype/StillImage" /></cc:Work></rdf:RDF></metadata><defs
     id="defs6" /><g
     transform="matrix(1.3333333,0,0,-1.3333333,-10.666666,330.66666)"
     id="g10"><g
       transform="translate(212,120.0752)"
       id="g12"><path
         id="path14"
         style="fill:#ffffff;fill-opacity:1;fill-rule:nonzero;stroke:none"
         d="m 0,0 v -0.075 h -23.429 l 3.429,-16 h -28 l 20,-24 h -16 l -19,24 h -42 l -19,-24 h -16 l 20,24 h -28 l 3.429,16 H -164 h -4 -8 l 12.168,40.233 11.832,-0.233 -7.2,-24 h 18.057 l 5.143,24 h 28.667 l -12.667,16 h 12 l 13.333,-16 h 21.334 l 13.333,16 h 12 l -12.667,-16 H -32 l 5.143,-24 H -8.671 L -16,40.158 h 12 l 12,-40 z m 11.831,1.308 -12,39.999 -0.854,2.851 H -4 -16 -21.389 L -19.829,39 -14.06,19.925 h -9.563 l -4.466,20.838 -0.678,3.162 H -32 -52.398 l 7.534,9.517 5.133,6.483 H -48 -60 -61.873 l -1.2,-1.44 -12.134,-14.56 h -17.586 l -12.134,14.56 -1.199,1.44 h -1.874 -12 -8.269 l 5.133,-6.483 7.534,-9.517 H -136 h -3.233 l -0.678,-3.162 -4.465,-20.838 h -9.448 l 5.655,18.85 1.514,5.045 -5.266,0.104 -11.832,0.233 -3.03,0.06 -0.878,-2.901 -12.168,-40.233 -1.56,-5.158 h 5.389 8 4 14.48 l -2.391,-11.162 -1.037,-4.838 h 4.948 19.46 l -14.533,-17.44 -5.467,-6.56 h 8.54 16 1.935 l 1.201,1.517 17.799,22.483 h 38.129 l 17.8,-22.483 1.2,-1.517 h 1.936 16 8.54 l -5.467,6.56 -14.533,17.44 h 19.46 4.948 l -1.037,4.838 -2.391,11.162 H 0 4 v 0.153 l 4.079,0.08 5.266,0.105 z" /></g><path
       id="path16"
       style="fill:#ffffff;fill-opacity:1;fill-rule:nonzero;stroke:none"
       d="m 168,148 h -16 v -16 h 16 z m -4,-12 h -8 v 8 h 8 z" /><path
       id="path18"
       style="fill:#ffffff;fill-opacity:1;fill-rule:nonzero;stroke:none"
       d="M 104,148 H 88 v -16 h 16 z m -4,-12 h -8 v 8 h 8 z" /><path
       id="path20"
       style="fill:#ffffff;fill-opacity:1;fill-rule:nonzero;stroke:none"
       d="M 244,12 H 12 v 232 h 232 z m 0,236 H 12 8 V 244 12 8 h 4 232 4 v 4 232 4 z" /></g></svg>