<svg height="320" viewBox="0 0 267.10132 320" width="267.10132" xmlns="http://www.w3.org/2000/svg" xmlns:xlink="http://www.w3.org/1999/xlink"><clipPath id="a"><path d="m0 256h256v-256h-256z"/></clipPath><g clip-path="url(#a)" fill="#fff" transform="matrix(1.3333333 0 0 -1.3333333 -37.115999 330.66693)"><path d="m212 152h-40v80h40zm2 84h-44c-1.105 0-2-.895-2-2v-84c0-1.105.895-2 2-2h44c1.105 0 2 .895 2 2v84c0 1.105-.895 2-2 2"/><path d="m84 152h-40v80h40zm2 84h-44c-1.105 0-2-.895-2-2v-84c0-1.105.895-2 2-2h44c1.105 0 2 .895 2 2v84c0 1.105-.895 2-2 2"/><path d="m0 0c-.041-1.074-.924-1.923-1.999-1.923h-2.075-140v8 4h-4-12-4v-4-8h-16-2.075c-1.075 0-1.958.849-1.999 1.923l-3.926 98.077h192zm-148.074-1.923h-12v8h12zm141.106-9.789c-.678-1.355-2.063-2.211-3.578-2.211h-163.056c-1.515 0-2.9.856-3.578 2.211l-2.894 5.789h16 4 12 4 140zm-181.106 117.789h192v-4h-192zm3.929 110.074c.039 1.075.923 1.926 1.998 1.926h54.073v-4-28-4-16-4h4 64 4v4 16 4 28 4h54.073c1.076 0 1.959-.851 1.998-1.926l3.929-106.074h-192zm60.071-34.074h64v-16h-64zm64 4h-64v28h64zm68-84v4h.151l-.154 4.148-3.928 106.074c-.12 3.24-2.754 5.778-5.996 5.778h-56.073c-2.607 0-4.832-1.672-5.657-4h-56.686c-.825 2.328-3.049 4-5.657 4h-56.073c-3.242 0-5.876-2.538-5.996-5.778l-3.928-106.074-.154-4.148h.151v-4h-.163l.166-4.16 3.926-98.077c.087-2.251 1.394-4.161 3.274-5.113l1.219-2.439 2.895-5.789c1.364-2.728 4.105-4.422 7.155-4.422h163.056c3.05 0 5.791 1.694 7.155 4.422l2.895 5.789 1.219 2.439c1.88.953 3.187 2.864 3.274 5.119l3.926 98.071.166 4.16z" transform="translate(220.074 25.9232)"/><path d="m0 0 .033-.362 3.688-40.571c.361-3.974 3.514-7.028 7.498-7.262l60.547-3.797.125-.008h.125 4 4 .126l.125.008 60.563 3.798c3.967.233 7.121 3.287 7.482 7.261l3.688 40.571.033.362h3.983l-3.734-52.285c-.15-2.093-1.891-3.715-3.99-3.715h-144.551c-2.099 0-3.84 1.622-3.99 3.715l-3.735 52.285zm148.016 0-3.688-40.571c-.179-1.971-1.773-3.515-3.748-3.631l-60.564-3.798h-4-4l-60.563 3.798c-1.975.116-3.569 1.66-3.748 3.631l-3.689 40.571zm-152.255-52.57c.298-4.166 3.803-7.43 7.98-7.43h144.551c4.177 0 7.682 3.264 7.98 7.43l3.734 52.285.306 4.285h-4.296-3.619-4.381-144-4.38-3.62-4.295l.306-4.285z" transform="translate(51.9835 112)"/><path d="m0 0v-4h-28-48v4h48v4h28zm-28 8h-4v-4h-44-4v-4-4-4h4 48 28 4v4 4 4 4h-4z" transform="translate(204 40)"/></g></svg>