<?xml version="1.0" encoding="UTF-8" standalone="no"?>
<svg
   xmlns:dc="http://purl.org/dc/elements/1.1/"
   xmlns:cc="http://creativecommons.org/ns#"
   xmlns:rdf="http://www.w3.org/1999/02/22-rdf-syntax-ns#"
   xmlns:svg="http://www.w3.org/2000/svg"
   xmlns="http://www.w3.org/2000/svg"
   viewBox="0 0 309.33331 309.33331"
   height="309.33331"
   width="309.33331"
   xml:space="preserve"
   id="svg2"
   version="1.1"><metadata
     id="metadata8"><rdf:RDF><cc:Work
         rdf:about=""><dc:format>image/svg+xml</dc:format><dc:type
           rdf:resource="http://purl.org/dc/dcmitype/StillImage" /></cc:Work></rdf:RDF></metadata><defs
     id="defs6"><clipPath
       id="clipPath22"
       clipPathUnits="userSpaceOnUse"><path
         id="path20"
         d="M 0,256 H 256 V 0 H 0 Z" /></clipPath></defs><g
     transform="matrix(1.3333333,0,0,-1.3333333,-15.999733,325.33333)"
     id="g10"><g
       transform="translate(240.1338,244)"
       id="g12"><path
         id="path14"
         style="fill:#ffffff;fill-opacity:1;fill-rule:nonzero;stroke:none"
         d="m 0,0 h -224.267 -3.867 V -3.867 -228.134 -232 h 3.867 H 0 3.866 v 3.866 V -3.867 0 Z M 0,-228.134 H -224.267 V -3.867 H 0 Z" /></g><g
       id="g16"><g
         clip-path="url(#clipPath22)"
         id="g18"><g
           transform="translate(63.0479,134.5732)"
           id="g24"><path
             id="path26"
             style="fill:#ffffff;fill-opacity:1;fill-rule:nonzero;stroke:none"
             d="m 0,0 c 5.761,-6.503 24.414,-13.557 38.086,-14.632 l 4.207,-43.847 c 0.117,-2.421 2.05,-4.277 4.509,-4.277 2.428,0 4.416,1.934 4.509,4.354 l 2.892,47.142 v 9.443 C 54.203,0.89 52.161,3 49.57,3 36.076,3.078 24.638,4.308 16.518,6.581 12.443,7.718 10.03,8.87 8.677,9.69 c 1.531,0.843 4.647,2.173 10.873,3.882 2.165,0.325 3.843,2.197 3.843,4.454 0,2.483 -2.366,4.509 -4.864,4.509 C 18.335,22.497 13.378,21.53 8.7,19.991 3.325,18.228 -2.854,15.567 -2.854,10.579 -2.846,9.914 -2.645,3.805 0,0 m 129.912,0.039 c 2.637,3.836 2.838,9.929 2.838,10.602 0,4.996 -6.171,7.656 -11.554,9.412 -4.685,1.531 -9.635,2.497 -9.836,2.536 -2.529,0 -4.864,-1.972 -4.864,-4.508 0,-2.266 1.67,-4.13 3.843,-4.462 6.241,-1.717 9.357,-3.047 10.889,-3.883 -3.496,-2.126 -14.029,-6.589 -40.925,-6.681 -2.907,0 -4.648,-2.451 -4.648,-4.826 v -9.442 l 2.892,-47.127 c 0.078,-2.452 2.026,-4.354 4.509,-4.354 2.405,0 4.384,1.887 4.508,4.269 l 4.207,43.84 c 13.696,1.021 32.373,8.089 38.141,14.624 m -64.96,56.074 c -2.428,0 -4.4,-1.918 -4.508,-4.323 L 55.896,-9.813 60.444,-64.96 c 0.108,-2.428 2.041,-4.308 4.508,-4.308 2.413,0 4.393,1.911 4.509,4.292 l 4.547,55.147 -4.547,61.604 c -0.108,2.42 -2.08,4.338 -4.509,4.338 M 18.885,18.908 c 0.494,0 0.881,-0.371 0.881,-0.882 0,-0.494 -0.371,-0.881 -0.881,-0.881 C 2.567,12.714 3.89,9.945 3.975,9.188 4.168,7.641 13.34,-0.441 49.563,-0.619 c 1.005,0 1.005,-1.198 1.005,-1.198 v -9.334 l -2.892,-47.104 c 0,-0.472 -0.371,-0.882 -0.882,-0.882 -0.502,0 -0.881,0.371 -0.881,0.882 l -4.532,47.104 C 28.551,-11.082 8.274,-3.882 2.846,2.25 c -2.08,2.985 -2.08,8.329 -2.08,8.329 0.015,4.811 18.119,8.329 18.119,8.329 m 92.135,0.07 c 0,0 18.111,-3.519 18.111,-8.329 0,0 0,-5.344 -2.072,-8.36 -5.437,-6.164 -25.713,-13.363 -38.575,-13.363 L 83.953,-58.17 c 0,-0.472 -0.371,-0.882 -0.882,-0.882 -0.51,0 -0.882,0.371 -0.882,0.882 l -2.891,47.096 v 9.342 c 0,0 0,1.198 1.036,1.198 36.223,0.124 45.371,8.237 45.588,9.775 0.124,0.789 1.407,3.558 -14.91,7.989 -0.495,0 -0.874,0.371 -0.874,0.881 0.008,0.48 0.379,0.867 0.882,0.867 M 64.952,52.494 c 0.472,0 0.882,-0.371 0.882,-0.882 L 70.365,-9.79 65.834,-64.743 c 0,-0.472 -0.372,-0.882 -0.882,-0.882 -0.495,0 -0.882,0.371 -0.882,0.882 l -4.531,54.945 4.531,61.402 c 0,0.48 0.387,0.89 0.882,0.89" /></g></g></g></g></svg>