<?xml version="1.0" encoding="UTF-8" standalone="no"?>
<svg
   xmlns:dc="http://purl.org/dc/elements/1.1/"
   xmlns:cc="http://creativecommons.org/ns#"
   xmlns:rdf="http://www.w3.org/1999/02/22-rdf-syntax-ns#"
   xmlns:svg="http://www.w3.org/2000/svg"
   xmlns="http://www.w3.org/2000/svg"
   viewBox="0 0 320 208"
   height="208"
   width="320"
   xml:space="preserve"
   id="svg2"
   version="1.1"><metadata
     id="metadata8"><rdf:RDF><cc:Work
         rdf:about=""><dc:format>image/svg+xml</dc:format><dc:type
           rdf:resource="http://purl.org/dc/dcmitype/StillImage" /></cc:Work></rdf:RDF></metadata><defs
     id="defs6"><clipPath
       id="clipPath18"
       clipPathUnits="userSpaceOnUse"><path
         id="path16"
         d="M 0,256 H 256 V 0 H 0 Z" /></clipPath></defs><g
     transform="matrix(1.3333333,0,0,-1.3333333,-10.666666,272.00039)"
     id="g10"><g
       id="g12"><g
         clip-path="url(#clipPath18)"
         id="g14"><g
           transform="translate(244,59.7393)"
           id="g20"><path
             id="path22"
             style="fill:#ffffff;fill-opacity:1;fill-rule:nonzero;stroke:none"
             d="M 0,0 C 0,-2.107 -1.629,-3.854 -3.732,-3.991 -17.136,-4.869 -64.568,-7.739 -112,-7.739 c -47.942,0 -101.748,2.931 -116.239,3.775 -2.115,0.123 -3.761,1.874 -3.761,3.993 v 128.232 c 0,2.209 1.791,4 4,4 h 12 v -100 c 0,0 6.373,-0.335 16,-0.811 V -5.295 c 1.322,-0.028 2.656,-0.057 4,-0.085 v 36.634 c 12.384,-0.605 28.776,-1.371 44,-1.977 V -7.09 c 1.338,-0.019 2.671,-0.04 4,-0.059 v 36.27 c 5.66,-0.218 11.084,-0.407 16,-0.553 v -0.307 h 4 24 4 v 0.307 c 31.494,0.933 84,3.693 84,3.693 v 100 h 12 c 2.209,0 4,-1.791 4,-4 z m -212,134.387 c 0,1.054 0.812,1.927 1.864,1.995 8.799,0.567 47.043,2.953 78.136,3.672 v -3.98 c -25.079,-0.503 -58.804,-1.912 -80,-2.87 z m 108,5.751 v -3.991 c -4.36,0.073 -8.409,0.114 -12,0.114 -3.592,0 -7.64,-0.041 -12,-0.114 v 3.991 c 4.198,0.078 8.231,0.123 12,0.123 3.769,0 7.802,-0.045 12,-0.123 m 84,-5.751 v -1.183 c -21.195,0.958 -54.921,2.367 -80,2.87 v 3.98 c 31.093,-0.719 69.338,-3.105 78.136,-3.672 1.052,-0.068 1.864,-0.941 1.864,-1.995 m -80,-6.313 v 4 c 25.09,-0.505 58.856,-1.918 80,-2.874 v -3.996 c -21.195,0.958 -54.921,2.367 -80,2.87 m 0,-8 v 4 c 25.09,-0.505 58.856,-1.918 80,-2.874 v -3.996 c -21.195,0.958 -54.921,2.367 -80,2.87 m 0,-83.242 v 3.018 76.224 c 25.09,-0.505 58.856,-1.918 80,-2.874 V 37.236 c 0,-1.069 -0.84,-1.95 -1.908,-1.998 C -43.134,34.285 -75.65,32.94 -100,32.451 Z m -32,91.242 c -25.079,-0.503 -58.804,-1.912 -80,-2.87 v 3.996 c 21.145,0.956 54.911,2.37 80,2.874 z m 16,0.187 c -3.592,0 -7.64,-0.041 -12,-0.114 v 4 c 4.361,0.072 8.41,0.114 12,0.114 3.59,0 7.639,-0.042 12,-0.115 v -3.999 c -4.36,0.073 -8.409,0.114 -12,0.114 m -16,-8.187 c -25.079,-0.503 -58.804,-1.912 -80,-2.87 v 3.996 c 21.145,0.956 54.911,2.37 80,2.874 z m 16,0.187 c -3.592,0 -7.64,-0.041 -12,-0.114 v 4 c 4.361,0.072 8.41,0.114 12,0.114 3.59,0 7.639,-0.042 12,-0.115 v -3.999 c -4.36,0.073 -8.409,0.114 -12,0.114 m 12,-79.303 c -3.895,1.028 -7.923,1.572 -12,1.572 -4.077,0 -8.105,-0.544 -12,-1.572 v 75.189 c 4.361,0.072 8.41,0.114 12,0.114 3.59,0 7.639,-0.042 12,-0.115 z m -24,-8.58 v 4.454 l 0.194,0.056 c 3.832,1.094 7.819,1.642 11.806,1.642 3.987,0 7.975,-0.548 11.806,-1.642 L -104,36.832 v -4.455 c -4.362,-0.072 -8.409,-0.113 -12,-0.113 -3.591,0 -7.638,0.041 -12,0.114 m -82.112,2.861 c -0.997,0.045 -1.786,0.818 -1.888,1.789 V 113.2 c 21.145,0.956 54.911,2.37 80,2.874 V 39.85 36.832 32.451 c -24.357,0.489 -56.887,1.835 -78.112,2.788 M -4,136.261 h -12.301 c -0.747,2.265 -2.812,3.952 -5.305,4.113 -10.077,0.649 -61.982,3.887 -94.394,3.887 -32.412,0 -84.317,-3.238 -94.393,-3.887 -2.494,-0.161 -4.559,-1.848 -5.307,-4.113 H -228 c -4.411,0 -8,-3.589 -8,-8 V 0.029 c 0,-4.232 3.307,-7.74 7.528,-7.986 15.241,-0.888 68.68,-3.782 116.472,-3.782 47.501,0 95.079,2.875 108.529,3.756 C 0.719,-7.709 4,-4.202 4,0 v 128.261 c 0,4.411 -3.589,8 -8,8" /></g><g
           transform="translate(210,64)"
           id="g24"><path
             id="path26"
             style="fill:#ffffff;fill-opacity:1;fill-rule:nonzero;stroke:none"
             d="m 0,0 c -5.522,0 -10,4.478 -10,10 0,0.345 0.018,0.687 0.052,1.022 0.068,0.673 0.203,1.326 0.397,1.952 0.196,0.626 0.45,1.226 0.758,1.793 0.615,1.133 1.444,2.134 2.432,2.95 0.247,0.203 0.504,0.395 0.77,0.575 0.532,0.359 1.101,0.669 1.698,0.922 C -2.696,19.721 -1.381,20 0,20 1.381,20 2.696,19.721 3.893,19.214 4.49,18.961 5.059,18.651 5.591,18.292 5.857,18.112 6.114,17.92 6.361,17.717 7.349,16.901 8.178,15.9 8.793,14.767 9.101,14.2 9.355,13.6 9.551,12.974 9.745,12.348 9.88,11.695 9.948,11.022 9.982,10.687 10,10.345 10,10 10,4.478 5.522,0 0,0 m 13.37,14.161 c -0.27,0.868 -0.627,1.714 -1.062,2.515 -0.862,1.587 -2.006,2.974 -3.401,4.126 C 8.563,21.086 8.2,21.357 7.83,21.606 7.082,22.112 6.281,22.547 5.45,22.898 3.723,23.629 1.889,24 0,24 c -1.889,0 -3.723,-0.371 -5.451,-1.102 -0.83,-0.351 -1.631,-0.786 -2.379,-1.292 -0.37,-0.249 -0.733,-0.52 -1.077,-0.804 -1.395,-1.152 -2.539,-2.539 -3.401,-4.126 -0.435,-0.801 -0.792,-1.647 -1.062,-2.515 -0.276,-0.888 -0.464,-1.807 -0.558,-2.734 C -13.976,10.955 -14,10.476 -14,10 -14,2.28 -7.72,-4 0,-4 c 7.72,0 14,6.28 14,14 0,0.476 -0.024,0.955 -0.072,1.427 -0.094,0.927 -0.282,1.846 -0.558,2.734" /></g></g></g></g></svg>