<?xml version="1.0" encoding="UTF-8" standalone="no"?>
<svg
   xmlns:dc="http://purl.org/dc/elements/1.1/"
   xmlns:cc="http://creativecommons.org/ns#"
   xmlns:rdf="http://www.w3.org/1999/02/22-rdf-syntax-ns#"
   xmlns:svg="http://www.w3.org/2000/svg"
   xmlns="http://www.w3.org/2000/svg"
   viewBox="0 0 234.66665 309.33331"
   height="309.33331"
   width="234.66666"
   xml:space="preserve"
   id="svg2"
   version="1.1"><metadata
     id="metadata8"><rdf:RDF><cc:Work
         rdf:about=""><dc:format>image/svg+xml</dc:format><dc:type
           rdf:resource="http://purl.org/dc/dcmitype/StillImage" /></cc:Work></rdf:RDF></metadata><defs
     id="defs6"><clipPath
       id="clipPath18"
       clipPathUnits="userSpaceOnUse"><path
         id="path16"
         d="M 0,256 H 256 V 0 H 0 Z" /></clipPath></defs><g
     transform="matrix(1.3333333,0,0,-1.3333333,-53.333332,330.66666)"
     id="g10"><g
       id="g12"><g
         clip-path="url(#clipPath18)"
         id="g14"><g
           transform="translate(200,80)"
           id="g20"><path
             id="path22"
             style="fill:#ffffff;fill-opacity:1;fill-rule:nonzero;stroke:none"
             d="m 0,0 c 0,-4.411 -3.589,-8 -8,-8 h -128 c -4.411,0 -8,3.589 -8,8 v 132 c 0,4.411 3.589,8 8,8 H -8 c 4.411,0 8,-3.589 8,-8 z m -8,144 h -128 c -6.6,0 -12,-5.4 -12,-12 V 0 c 0,-6.6 5.4,-12 12,-12 H -8 c 6.6,0 12,5.4 12,12 v 132 c 0,6.6 -5.4,12 -12,12" /></g><g
           transform="translate(180,88)"
           id="g24"><path
             id="path26"
             style="fill:#ffffff;fill-opacity:1;fill-rule:nonzero;stroke:none"
             d="m 0,0 c 0,-4.411 -3.589,-8 -8,-8 h -88 c -4.411,0 -8,3.589 -8,8 v 112 c 0,4.411 3.589,8 8,8 h 88 c 4.411,0 8,-3.589 8,-8 z m -8,124 h -88 c -6.6,0 -12,-5.4 -12,-12 V 0 c 0,-6.6 5.4,-12 12,-12 h 88 c 6.6,0 12,5.4 12,12 v 112 c 0,6.6 -5.4,12 -12,12" /></g><path
           id="path28"
           style="fill:#ffffff;fill-opacity:1;fill-rule:nonzero;stroke:none"
           d="M 208,232 H 48 v -4 h 160 z" /><path
           id="path30"
           style="fill:#ffffff;fill-opacity:1;fill-rule:nonzero;stroke:none"
           d="M 208,240 H 48 v -4 h 160 z" /><path
           id="path32"
           style="fill:#ffffff;fill-opacity:1;fill-rule:nonzero;stroke:none"
           d="m 64,44 h 4 v 16 h -4 z" /><path
           id="path34"
           style="fill:#ffffff;fill-opacity:1;fill-rule:nonzero;stroke:none"
           d="m 72,44 h 4 v 16 h -4 z" /><path
           id="path36"
           style="fill:#ffffff;fill-opacity:1;fill-rule:nonzero;stroke:none"
           d="m 80,44 h 4 v 16 h -4 z" /><path
           id="path38"
           style="fill:#ffffff;fill-opacity:1;fill-rule:nonzero;stroke:none"
           d="m 88,44 h 4 v 16 h -4 z" /><path
           id="path40"
           style="fill:#ffffff;fill-opacity:1;fill-rule:nonzero;stroke:none"
           d="m 96,44 h 4 v 16 h -4 z" /><path
           id="path42"
           style="fill:#ffffff;fill-opacity:1;fill-rule:nonzero;stroke:none"
           d="m 104,44 h 4 v 8 h -4 z" /><path
           id="path44"
           style="fill:#ffffff;fill-opacity:1;fill-rule:nonzero;stroke:none"
           d="m 112,44 h 4 v 8 h -4 z" /><path
           id="path46"
           style="fill:#ffffff;fill-opacity:1;fill-rule:nonzero;stroke:none"
           d="m 64,28 h 4 v 12 h -4 z" /><path
           id="path48"
           style="fill:#ffffff;fill-opacity:1;fill-rule:nonzero;stroke:none"
           d="m 72,24 h 4 v 16 h -4 z" /><path
           id="path50"
           style="fill:#ffffff;fill-opacity:1;fill-rule:nonzero;stroke:none"
           d="m 80,24 h 4 v 16 h -4 z" /><path
           id="path52"
           style="fill:#ffffff;fill-opacity:1;fill-rule:nonzero;stroke:none"
           d="m 88,24 h 4 v 16 h -4 z" /><path
           id="path54"
           style="fill:#ffffff;fill-opacity:1;fill-rule:nonzero;stroke:none"
           d="m 96,24 h 4 v 16 h -4 z" /><path
           id="path56"
           style="fill:#ffffff;fill-opacity:1;fill-rule:nonzero;stroke:none"
           d="m 104,24 h 4 v 16 h -4 z" /><path
           id="path58"
           style="fill:#ffffff;fill-opacity:1;fill-rule:nonzero;stroke:none"
           d="m 112,24 h 4 v 16 h -4 z" /><g
           transform="translate(148,24)"
           id="g60"><path
             id="path62"
             style="fill:#ffffff;fill-opacity:1;fill-rule:nonzero;stroke:none"
             d="m 0,0 c -4.418,0 -8,3.582 -8,8 0,4.418 3.582,8 8,8 C 4.418,16 8,12.418 8,8 8,3.582 4.418,0 0,0 m -4,20 -4,8 v 8 H 8 V 28 L 4,20 Z M 12,8 c 0,3.895 -1.873,7.351 -4.756,9.544 l 0.334,0.667 4,8 L 12,27.056 V 28 36 40 H 8 -8 -12 v -4 -8 -0.944 l 0.422,-0.845 4,-8 0.334,-0.667 C -10.127,15.351 -12,11.895 -12,8 -12,1.383 -6.617,-4 0,-4 6.617,-4 12,1.383 12,8" /></g><g
           transform="translate(176,24)"
           id="g64"><path
             id="path66"
             style="fill:#ffffff;fill-opacity:1;fill-rule:nonzero;stroke:none"
             d="m 0,0 c -4.418,0 -8,3.582 -8,8 0,4.418 3.582,8 8,8 C 4.418,16 8,12.418 8,8 8,3.582 4.418,0 0,0 m -4,20 -4,8 v 8 H 8 V 28 L 4,20 Z M 12,8 c 0,3.895 -1.873,7.351 -4.756,9.544 l 0.334,0.667 4,8 L 12,27.056 V 28 36 40 H 8 -8 -12 v -4 -8 -0.944 l 0.422,-0.845 4,-8 0.334,-0.667 C -10.127,15.351 -12,11.895 -12,8 -12,1.383 -6.617,-4 0,-4 6.617,-4 12,1.383 12,8" /></g><g
           transform="translate(212,64)"
           id="g68"><path
             id="path70"
             style="fill:#ffffff;fill-opacity:1;fill-rule:nonzero;stroke:none"
             d="m 0,0 h -8 -4 v -44 h -24 -28 -92 V 0 h -4 -8 V 180 H 0 Z m 0,184 h -168 -4 V 180 0 -4 h 4 8 V -48 H -8 v 44 h 8 4 v 4 180 4 z" /></g></g></g></g></svg>