<?xml version="1.0" encoding="UTF-8" standalone="no"?>
<svg
   xmlns:dc="http://purl.org/dc/elements/1.1/"
   xmlns:cc="http://creativecommons.org/ns#"
   xmlns:rdf="http://www.w3.org/1999/02/22-rdf-syntax-ns#"
   xmlns:svg="http://www.w3.org/2000/svg"
   xmlns="http://www.w3.org/2000/svg"
   viewBox="0 0 229.33333 320"
   height="320"
   width="229.33333"
   xml:space="preserve"
   id="svg2"
   version="1.1"><metadata
     id="metadata8"><rdf:RDF><cc:Work
         rdf:about=""><dc:format>image/svg+xml</dc:format><dc:type
           rdf:resource="http://purl.org/dc/dcmitype/StillImage" /></cc:Work></rdf:RDF></metadata><defs
     id="defs6"><clipPath
       id="clipPath18"
       clipPathUnits="userSpaceOnUse"><path
         id="path16"
         d="M 0,256 H 256 V 0 H 0 Z" /></clipPath></defs><g
     transform="matrix(1.3333333,0,0,-1.3333333,-55.999999,330.66706)"
     id="g10"><g
       id="g12"><g
         clip-path="url(#clipPath18)"
         id="g14"><g
           transform="translate(210,48.0283)"
           id="g20"><path
             id="path22"
             style="fill:#ffffff;fill-opacity:1;fill-rule:nonzero;stroke:none"
             d="M 0,0 H -0.064 C -0.37,-2.663 -1.981,-5.021 -4.413,-6.239 -18.931,-13.512 -65.23,-36.028 -82,-36.028 c -16.77,0 -63.069,22.516 -77.587,29.789 -2.432,1.218 -4.043,3.576 -4.349,6.239 H -164 v 0.917 20.146 l 1.472,-0.047 c 1.439,-0.043 2.859,-0.31 4.22,-0.791 l 6.267,-2.212 c -1.808,-0.195 -3.483,-0.99 -4.788,-2.293 l -2.828,-2.829 C -161.168,11.38 -162,9.371 -162,7.234 V 5.133 c 0,-2.681 1.332,-5.169 3.563,-6.656 l 11.109,-7.407 c 0.989,-0.659 2.14,-1.008 3.328,-1.008 1.244,0 2.439,0.379 3.457,1.096 2.01,1.417 2.96,3.973 2.364,6.36 l -3.621,14.485 c -0.268,1.072 -0.747,2.044 -1.381,2.883 l 30.719,-10.841 c -1.291,-0.085 -3.454,-0.483 -5.121,-1.046 -3.112,-1.051 -4.796,-4.449 -3.753,-7.577 l 3.391,-10.174 c 0.399,-2.925 2.913,-5.185 5.945,-5.185 1.621,0 3.091,0.648 4.171,1.696 1.084,-7.777 7.759,-13.787 15.829,-13.787 h 20 c 8.07,0 14.745,6.01 15.828,13.787 1.081,-1.048 2.551,-1.696 4.172,-1.696 3.032,0 5.547,2.26 5.945,5.185 l 3.391,10.174 c 1.043,3.128 -0.642,6.526 -3.754,7.577 -1.653,0.559 -3.797,0.955 -5.092,1.044 l 30.701,10.836 c -0.63,-0.838 -1.108,-1.808 -1.375,-2.876 l -3.621,-14.485 c -0.597,-2.387 0.354,-4.943 2.365,-6.36 1.016,-0.717 2.211,-1.096 3.456,-1.096 1.188,0 2.339,0.349 3.328,1.008 l 11.109,7.407 c 2.231,1.487 3.563,3.975 3.563,6.656 v 2.101 c 0,2.137 -0.832,4.146 -2.343,5.657 l -2.829,2.829 c -1.301,1.301 -2.973,2.095 -4.777,2.292 l 6.031,2.128 c 1.501,0.53 3.068,0.798 4.658,0.798 H 0 V 0.917 Z m -142.093,-4.481 c -0.123,-0.431 -0.373,-0.822 -0.755,-1.091 -0.345,-0.243 -0.748,-0.365 -1.152,-0.365 -0.24,0 -0.476,0.058 -0.704,0.145 0.983,0.217 1.873,0.676 2.611,1.311 M -152,0.062 c 0,-0.391 0.041,-0.774 0.113,-1.145 l -2.114,1.409 c 0.641,-0.166 1.309,-0.264 2.001,-0.264 m -4,8.001 c 0,2.208 1.791,4 4,4 2.209,0 4,-1.792 4,-4 0,-2.209 -1.791,-4.001 -4,-4.001 -2.209,0 -4,1.792 -4,4.001 m 10,-10 c -1.104,0 -2,0.895 -2,1.999 0,1.105 0.896,2.001 2,2.001 1.104,0 2,-0.896 2,-2.001 0,-1.104 -0.896,-1.999 -2,-1.999 m 36,0 v -12.001 c 0,-1.099 -0.9,-2 -2,-2 -1.1,0 -2,0.901 -2,2 l -3.542,10.625 c -0.346,1.039 0.202,2.172 1.239,2.522 1.526,0.516 3.629,0.853 4.303,0.853 1.1,0 2,-0.899 2,-1.999 m 50,-14.091 c 0,-6.6 -5.4,-12 -12,-12 h -20 c -6.6,0 -12,5.4 -12,12 0,4.4 3.6,8 8,8 h 28 c 4.4,0 8,-3.6 8,-8 m 2,14.091 v -7.472 c -2.151,3.239 -5.828,5.381 -10,5.381 h -28 c -4.171,0 -7.849,-2.142 -10,-5.381 v 7.472 c 0,1.725 -0.736,3.278 -1.906,4.374 l 10.734,-3.789 c 3.216,-1.134 6.575,-1.71 9.984,-1.71 h 10.408 c 3.408,0 6.767,0.576 9.984,1.71 l 10.682,3.77 C -57.272,1.324 -58,-0.222 -58,-1.937 m 6,1.999 c 0.675,0 2.776,-0.337 4.303,-0.853 1.037,-0.35 1.585,-1.483 1.238,-2.522 L -50,-13.938 c 0,-1.099 -0.9,-2 -2,-2 -1.1,0 -2,0.901 -2,2 v 12.001 c 0,1.1 0.9,1.999 2,1.999 m 32.368,5.656 c 1.005,-3.271 4.052,-5.656 7.648,-5.656 0.692,0 1.36,0.098 2.001,0.264 l -8.892,-5.928 c -0.336,-0.223 -0.723,-0.335 -1.109,-0.335 -0.404,0 -0.807,0.122 -1.153,0.365 -0.675,0.475 -0.988,1.318 -0.788,2.12 z m 7.648,6.345 c 2.209,0 4,-1.792 4,-4 0,-2.209 -1.791,-4.001 -4,-4.001 -2.209,0 -4,1.792 -4,4.001 0,2.208 1.791,4 4,4 M 0,143.972 V 24.938 h -1.244 c -2.045,0 -4.06,-0.344 -5.99,-1.025 L -68.128,2.421 C -70.913,1.437 -73.824,0.938 -76.78,0.938 h -10.408 c -2.957,0 -5.868,0.499 -8.653,1.484 l -61.135,21.576 c -1.753,0.617 -3.579,0.959 -5.428,1.016 l -1.596,0.05 v 118.908 z m -164,43.993 c 0,4.404 3.6,8.007 8,8.007 H -8 c 4.4,0 8,-3.603 8,-8.007 v -39.993 h -164 z m 156,12.007 h -148 c -6.617,0 -12,-5.386 -12,-12.007 V 0.917 0 -4 h 1.057 c 1.112,-2.493 3.055,-4.559 5.565,-5.815 18.133,-9.084 62.167,-30.213 79.378,-30.213 17.212,0 61.245,21.129 79.378,30.213 2.511,1.256 4.453,3.322 5.565,5.815 L 4,-4 v 4 0.917 187.048 c 0,6.621 -5.383,12.007 -12,12.007" /></g><g
           transform="translate(189.1748,210.3652)"
           id="g24"><path
             id="path26"
             style="fill:#ffffff;fill-opacity:1;fill-rule:nonzero;stroke:none"
             d="m 0,0 c -1.889,-1.503 -4.504,-2.365 -7.175,-2.365 h -2 v 4 H 1.553 C 1.07,0.957 0.518,0.412 0,0 m -109.175,1.635 h 96 v -4 h -96 z m -6,-4 c -2.671,0 -5.285,0.862 -7.174,2.365 -0.518,0.412 -1.071,0.957 -1.553,1.635 h 10.727 v -4 z m -6,12 h 8 v -4 h -8 z m 108,-4 h -96 v 4 h 96 z m 12,0 h -8 v 4 h 8 z m 4,8 h -12 -4 -96 -4 -12 v -4 h -4 v -4 c 0,-7.373 6.893,-12 14,-12 h 2 4 96 4 2 c 7.108,0 14,4.627 14,12 v 4 h -4 z" /></g><g
           transform="translate(128,184)"
           id="g28"><path
             id="path30"
             style="fill:#ffffff;fill-opacity:1;fill-rule:nonzero;stroke:none"
             d="m 0,0 c 35.29,0 64,-28.71 64,-64 0,-35.29 -28.71,-64 -64,-64 -35.29,0 -64,28.71 -64,64 0,35.29 28.71,64 64,64 m 0,-132 c 37.495,0 68,30.505 68,68 0,37.495 -30.505,68 -68,68 -37.495,0 -68,-30.505 -68,-68 0,-37.495 30.505,-68 68,-68" /></g><g
           transform="translate(128,172)"
           id="g32"><path
             id="path34"
             style="fill:#ffffff;fill-opacity:1;fill-rule:nonzero;stroke:none"
             d="m 0,0 c 28.673,0 52,-23.327 52,-52 0,-28.673 -23.327,-52 -52,-52 -28.673,0 -52,23.327 -52,52 0,28.673 23.327,52 52,52 m 0,-108 c 30.928,0 56,25.072 56,56 0,30.928 -25.072,56 -56,56 -30.928,0 -56,-25.072 -56,-56 0,-30.928 25.072,-56 56,-56" /></g><g
           transform="translate(94.1089,92.001)"
           id="g36"><path
             id="path38"
             style="fill:#ffffff;fill-opacity:1;fill-rule:nonzero;stroke:none"
             d="m 0,0 c 0,0 0.001,0 0.001,-0.001 h 22.946 c -0.667,-1.179 -1.056,-2.542 -1.056,-4 v -6 c 0,-0.702 0.126,-1.373 0.344,-2 h -5.739 c -0.611,0 -1.247,0.153 -1.839,0.442 C 9.063,-8.826 3.999,-4.837 -0.003,-0.003 -0.002,-0.001 -0.001,0 0,0 m 62.006,-0.001 c 1.827,0 2.602,-2.447 1.141,-3.6 l -7.604,-6 c -1.974,-1.558 -4.375,-2.4 -6.842,-2.4 H 27.792 c -1.05,0 -1.901,0.896 -1.901,2 v 6 c 0,2.209 1.702,4 3.802,4 z m 5.781,-0.002 c -0.054,-0.065 -0.113,-0.126 -0.166,-0.191 -0.021,0.064 -0.029,0.13 -0.051,0.193 h 0.211 l -0.007,0.016 c 0.004,-0.004 0.009,-0.011 0.013,-0.018 m -54.886,-15.15 c 1.121,-0.547 2.348,-0.848 3.595,-0.848 h 11.296 20.909 2.585 c 1.248,0 2.474,0.301 3.595,0.848 6.2,3.029 11.653,7.354 16.006,12.622 2.147,2.597 0.265,6.53 -3.106,6.53 H 62.006 29.693 0.001 c -3.371,0 -5.252,-3.933 -3.105,-6.53 4.353,-5.268 9.805,-9.593 16.005,-12.622" /></g><g
           transform="translate(84,38.0908)"
           id="g40"><path
             id="path42"
             style="fill:#ffffff;fill-opacity:1;fill-rule:nonzero;stroke:none"
             d="m 0,0 c 0,-1.1 -0.9,-2 -2,-2 -1.1,0 -2,0.9 -2,2 l -3.542,10.624 c -0.346,1.039 0.202,2.173 1.239,2.522 C -4.777,13.662 -2.674,14 -2,14 c 1.1,0 2,-0.899 2,-2 z m -2,18 c -1.174,0 -3.698,-0.427 -5.583,-1.063 -3.112,-1.051 -4.796,-4.45 -3.753,-7.578 L -7.945,-0.814 C -7.546,-3.739 -5.032,-6 -2,-6 c 3.309,0 6,2.691 6,6 v 12 c 0,3.309 -2.691,6 -6,6" /></g><g
           transform="translate(179.541,48.7148)"
           id="g44"><path
             id="path46"
             style="fill:#ffffff;fill-opacity:1;fill-rule:nonzero;stroke:none"
             d="m 0,0 -3.541,-10.624 c 0,-1.1 -0.9,-2 -2,-2 -1.1,0 -2,0.9 -2,2 v 12 c 0,1.101 0.9,2 2,2 0.675,0 2.776,-0.338 4.303,-0.854 C -0.201,2.173 0.347,1.039 0,0 m 0.041,6.312 c -1.885,0.637 -4.407,1.064 -5.582,1.064 -3.309,0 -6,-2.691 -6,-6 v -12 c 0,-3.309 2.691,-6 6,-6 3.032,0 5.547,2.261 5.945,5.186 L 3.795,-1.265 C 4.838,1.863 3.153,5.262 0.041,6.312" /></g><path
           id="path48"
           style="fill:#ffffff;fill-opacity:1;fill-rule:nonzero;stroke:none"
           d="m 116,32.091 h 24 v -4 h -24 z m -4,-8 h 32 v 12 h -32 z" /></g></g></g></svg>