<?xml version="1.0" encoding="UTF-8" standalone="no"?>
<svg
   xmlns:dc="http://purl.org/dc/elements/1.1/"
   xmlns:cc="http://creativecommons.org/ns#"
   xmlns:rdf="http://www.w3.org/1999/02/22-rdf-syntax-ns#"
   xmlns:svg="http://www.w3.org/2000/svg"
   xmlns="http://www.w3.org/2000/svg"
   viewBox="0 0 320 277.33331"
   height="277.33331"
   width="320"
   xml:space="preserve"
   id="svg2"
   version="1.1"><metadata
     id="metadata8"><rdf:RDF><cc:Work
         rdf:about=""><dc:format>image/svg+xml</dc:format><dc:type
           rdf:resource="http://purl.org/dc/dcmitype/StillImage" /></cc:Work></rdf:RDF></metadata><defs
     id="defs6"><clipPath
       id="clipPath78"
       clipPathUnits="userSpaceOnUse"><path
         id="path76"
         d="M 0,256 H 256 V 0 H 0 Z" /></clipPath></defs><g
     transform="matrix(1.3333333,0,0,-1.3333333,-10.666666,309.33333)"
     id="g10"><path
       id="path12"
       style="fill:#ffffff;fill-opacity:1;fill-rule:nonzero;stroke:none"
       d="M 244,160 H 12 v 68 h 232 z m 0,-28 h -4 v 24 h 4 z m 0,-44 H 12 v 40 h 232 z m 0,-60 H 12 V 84 H 244 Z M 24,132 h -4 v 24 h 4 z m 8,0 h -4 v 24 h 4 z m 8,0 h -4 v 24 h 4 z m 8,0 h -4 v 24 h 4 z m 8,0 h -4 v 24 h 4 z m 8,0 h -4 v 24 h 4 z m 8,0 h -4 v 24 h 4 z m 8,0 h -4 v 24 h 4 z m 8,0 h -4 v 24 h 4 z m 76,0 H 92 v 24 h 72 z m 8,0 h -4 v 24 h 4 z m 8,0 h -4 v 24 h 4 z m 8,0 h -4 v 24 h 4 z m 8,0 h -4 v 24 h 4 z m 8,0 h -4 v 24 h 4 z m 8,0 h -4 v 24 h 4 z m 8,0 h -4 v 24 h 4 z m 8,0 h -4 v 24 h 4 z m 8,0 h -4 v 24 h 4 z M 12,156 h 4 v -24 h -4 z m 232,76 H 12 8 V 228 28 24 h 4 232 4 v 4 200 4 z" /><path
       id="path14"
       style="fill:#ffffff;fill-opacity:1;fill-rule:nonzero;stroke:none"
       d="m 84,56 h -4 v -8 h 4 z" /><path
       id="path16"
       style="fill:#ffffff;fill-opacity:1;fill-rule:nonzero;stroke:none"
       d="m 92,56 h -4 v -8 h 4 z" /><path
       id="path18"
       style="fill:#ffffff;fill-opacity:1;fill-rule:nonzero;stroke:none"
       d="m 68,56 h -4 v -8 h 4 z" /><path
       id="path20"
       style="fill:#ffffff;fill-opacity:1;fill-rule:nonzero;stroke:none"
       d="m 76,56 h -4 v -8 h 4 z" /><path
       id="path22"
       style="fill:#ffffff;fill-opacity:1;fill-rule:nonzero;stroke:none"
       d="m 100,56 h -4 v -8 h 4 z" /><path
       id="path24"
       style="fill:#ffffff;fill-opacity:1;fill-rule:nonzero;stroke:none"
       d="m 124,56 h -4 v -8 h 4 z" /><path
       id="path26"
       style="fill:#ffffff;fill-opacity:1;fill-rule:nonzero;stroke:none"
       d="m 108,56 h -4 v -8 h 4 z" /><path
       id="path28"
       style="fill:#ffffff;fill-opacity:1;fill-rule:nonzero;stroke:none"
       d="m 116,56 h -4 v -8 h 4 z" /><path
       id="path30"
       style="fill:#ffffff;fill-opacity:1;fill-rule:nonzero;stroke:none"
       d="m 28,56 h -4 v -8 h 4 z" /><path
       id="path32"
       style="fill:#ffffff;fill-opacity:1;fill-rule:nonzero;stroke:none"
       d="m 36,56 h -4 v -8 h 4 z" /><path
       id="path34"
       style="fill:#ffffff;fill-opacity:1;fill-rule:nonzero;stroke:none"
       d="m 20,56 h -4 v -8 h 4 z" /><path
       id="path36"
       style="fill:#ffffff;fill-opacity:1;fill-rule:nonzero;stroke:none"
       d="m 52,56 h -4 v -8 h 4 z" /><path
       id="path38"
       style="fill:#ffffff;fill-opacity:1;fill-rule:nonzero;stroke:none"
       d="m 232,48 h 4 v 8 h -4 z" /><path
       id="path40"
       style="fill:#ffffff;fill-opacity:1;fill-rule:nonzero;stroke:none"
       d="m 44,56 h -4 v -8 h 4 z" /><path
       id="path42"
       style="fill:#ffffff;fill-opacity:1;fill-rule:nonzero;stroke:none"
       d="m 60,56 h -4 v -8 h 4 z" /><path
       id="path44"
       style="fill:#ffffff;fill-opacity:1;fill-rule:nonzero;stroke:none"
       d="m 204,56 h -4 v -8 h 4 z" /><path
       id="path46"
       style="fill:#ffffff;fill-opacity:1;fill-rule:nonzero;stroke:none"
       d="m 196,56 h -4 v -8 h 4 z" /><path
       id="path48"
       style="fill:#ffffff;fill-opacity:1;fill-rule:nonzero;stroke:none"
       d="m 212,56 h -4 v -8 h 4 z" /><path
       id="path50"
       style="fill:#ffffff;fill-opacity:1;fill-rule:nonzero;stroke:none"
       d="m 224,48 h 4 v 8 h -4 z" /><path
       id="path52"
       style="fill:#ffffff;fill-opacity:1;fill-rule:nonzero;stroke:none"
       d="m 188,56 h -4 v -8 h 4 z" /><path
       id="path54"
       style="fill:#ffffff;fill-opacity:1;fill-rule:nonzero;stroke:none"
       d="m 216,48 h 4 v 8 h -4 z" /><path
       id="path56"
       style="fill:#ffffff;fill-opacity:1;fill-rule:nonzero;stroke:none"
       d="m 156,56 h -4 v -8 h 4 z" /><path
       id="path58"
       style="fill:#ffffff;fill-opacity:1;fill-rule:nonzero;stroke:none"
       d="m 148,56 h -4 v -8 h 4 z" /><path
       id="path60"
       style="fill:#ffffff;fill-opacity:1;fill-rule:nonzero;stroke:none"
       d="m 180,56 h -4 v -8 h 4 z" /><path
       id="path62"
       style="fill:#ffffff;fill-opacity:1;fill-rule:nonzero;stroke:none"
       d="m 140,56 h -4 v -8 h 4 z" /><path
       id="path64"
       style="fill:#ffffff;fill-opacity:1;fill-rule:nonzero;stroke:none"
       d="m 132,56 h -4 v -8 h 4 z" /><path
       id="path66"
       style="fill:#ffffff;fill-opacity:1;fill-rule:nonzero;stroke:none"
       d="m 172,56 h -4 v -8 h 4 z" /><path
       id="path68"
       style="fill:#ffffff;fill-opacity:1;fill-rule:nonzero;stroke:none"
       d="m 164,56 h -4 v -8 h 4 z" /><path
       id="path70"
       style="fill:#ffffff;fill-opacity:1;fill-rule:nonzero;stroke:none"
       d="m 216,76 h 20 V 64 h -20 z m 20,-16 h 4 v 4 12 4 h -4 -20 -4 V 76 64 60 h 4 z" /><g
       id="g72"><g
         clip-path="url(#clipPath78)"
         id="g74"><g
           transform="translate(100,147)"
           id="g80"><path
             id="path82"
             style="fill:#ffffff;fill-opacity:1;fill-rule:nonzero;stroke:none"
             d="m 0,0 c 0,0.552 0.448,1 1,1 h 54 c 0.553,0 1,-0.448 1,-1 v -6 c 0,-0.552 -0.447,-1 -1,-1 H 1 c -0.552,0 -1,0.448 -1,1 z m 1,-11 h 54 c 2.757,0 5,2.243 5,5 v 6 c 0,2.757 -2.243,5 -5,5 H 1 C -1.757,5 -4,2.757 -4,0 v -6 c 0,-2.757 2.243,-5 5,-5" /></g></g></g></g></svg>