<?xml version="1.0" encoding="UTF-8" standalone="no"?>
<svg
   xmlns:dc="http://purl.org/dc/elements/1.1/"
   xmlns:cc="http://creativecommons.org/ns#"
   xmlns:rdf="http://www.w3.org/1999/02/22-rdf-syntax-ns#"
   xmlns:svg="http://www.w3.org/2000/svg"
   xmlns="http://www.w3.org/2000/svg"
   viewBox="0 0 309.33331 309.33331"
   height="309.33331"
   width="309.33331"
   xml:space="preserve"
   id="svg2"
   version="1.1"><metadata
     id="metadata8"><rdf:RDF><cc:Work
         rdf:about=""><dc:format>image/svg+xml</dc:format><dc:type
           rdf:resource="http://purl.org/dc/dcmitype/StillImage" /></cc:Work></rdf:RDF></metadata><defs
     id="defs6" /><g
     transform="matrix(1.3333333,0,0,-1.3333333,-16,325.33333)"
     id="g10"><g
       transform="translate(240,128)"
       id="g12"><path
         id="path14"
         style="fill:#ffffff;fill-opacity:1;fill-rule:nonzero;stroke:none"
         d="M 0,0 H -16 V -16 H -32 V -80 H -44 V 96 h 12 V 0 h 16 V 48 H 0 Z m -48,-96 h -12 -4 -48 -48 -48 -4 -12 v 12 h 176 z m -16,-16 h -48 v 12 h 48 z m -96,0 h -48 v 12 h 48 z m -64,36 V 96 h 12 4 160 V -80 h -176 z m 16,188 H -48 V 100 H -208 Z M 0,52 h -16 -4 V 48 4 h -8 v 92 4 h -4 -12 v 12 4 h -4 -160 -4 v -4 -12 h -12 -4 v -4 -172 -4 -16 -4 h 4 12 v -12 -4 h 4 48 4 v 4 12 h 40 v -12 -4 h 4 48 4 v 4 12 h 12 4 v 4 12 h 12 4 v 4 60 h 12 4 v 4 12 H 0 4 v 4 48 4 z" /></g><path
       id="path16"
       style="fill:#ffffff;fill-opacity:1;fill-rule:nonzero;stroke:none"
       d="M 176,188 H 32 v 20 h 144 z m 0,-76 H 32 v 72 H 176 Z M 32,212 h -4 v -4 -20 -4 -72 -4 h 4 144 4 v 4 72 4 20 4 h -4 z" /><path
       id="path18"
       style="fill:#ffffff;fill-opacity:1;fill-rule:nonzero;stroke:none"
       d="m 128,176 h 16 v -48 h -16 z m 16,-52 h 4 v 4 48 4 h -4 -16 -4 v -4 -48 -4 h 4 z" /><path
       id="path20"
       style="fill:#ffffff;fill-opacity:1;fill-rule:nonzero;stroke:none"
       d="M 64,176 H 80 V 128 H 64 Z m 16,-52 h 4 v 4 48 4 H 80 64 60 v -4 -48 -4 h 4 z" /><g
       transform="translate(144,80)"
       id="g22"><path
         id="path24"
         style="fill:#ffffff;fill-opacity:1;fill-rule:nonzero;stroke:none"
         d="M 0,0 H -16 V -16 H -64 V 0 h -16 v 16 h 16 V 0 h 48 V 16 H 0 Z m -16,20 h -4 V 16 4 h -40 v 12 4 h -4 -16 -4 V 16 0 -4 h 4 12 v -12 -4 h 4 48 4 v 4 12 H 0 4 v 4 16 4 H 0 Z" /></g></g></svg>