<?xml version="1.0" encoding="UTF-8"?>
<svg xmlns="http://www.w3.org/2000/svg" xmlns:xlink="http://www.w3.org/1999/xlink" width="30px" height="29px" viewBox="0 0 29 29" version="1.1">
<g id="surface1">
<path style=" stroke:none;fill-rule:nonzero;fill:rgb(8.627451%,8.627451%,7.843137%);fill-opacity:1;" d="M 14.445312 0 C 6.46875 0 0 6.648438 0 14.847656 C 0 21.40625 4.136719 26.972656 9.878906 28.9375 C 10.597656 29.074219 10.863281 28.613281 10.863281 28.222656 C 10.863281 27.867188 10.851562 26.699219 10.84375 25.457031 C 6.828125 26.355469 5.980469 23.707031 5.980469 23.707031 C 5.320312 21.988281 4.375 21.535156 4.375 21.535156 C 3.066406 20.613281 4.472656 20.632812 4.472656 20.632812 C 5.925781 20.734375 6.6875 22.160156 6.6875 22.160156 C 7.976562 24.429688 10.066406 23.773438 10.890625 23.394531 C 11.019531 22.4375 11.394531 21.78125 11.808594 21.410156 C 8.601562 21.035156 5.226562 19.761719 5.226562 14.074219 C 5.226562 12.453125 5.792969 11.125 6.714844 10.085938 C 6.566406 9.714844 6.070312 8.203125 6.855469 6.15625 C 6.855469 6.15625 8.070312 5.757812 10.828125 7.679688 C 11.980469 7.351562 13.214844 7.1875 14.445312 7.179688 C 15.671875 7.1875 16.90625 7.351562 18.0625 7.679688 C 20.820312 5.757812 22.03125 6.15625 22.03125 6.15625 C 22.816406 8.203125 22.320312 9.714844 22.171875 10.085938 C 23.097656 11.125 23.660156 12.453125 23.660156 14.074219 C 23.660156 19.773438 20.28125 21.03125 17.0625 21.398438 C 17.582031 21.859375 18.042969 22.761719 18.042969 24.148438 C 18.042969 26.132812 18.027344 27.734375 18.027344 28.222656 C 18.027344 28.617188 18.285156 29.082031 19.019531 28.933594 C 24.753906 26.96875 28.886719 21.40625 28.886719 14.847656 C 28.886719 6.648438 22.421875 0 14.445312 0 "/>
<path style=" stroke:none;fill-rule:nonzero;fill:rgb(8.627451%,8.627451%,7.843137%);fill-opacity:1;" d="M 5.410156 21.152344 C 5.378906 21.226562 5.265625 21.246094 5.164062 21.195312 C 5.058594 21.148438 5 21.046875 5.03125 20.972656 C 5.0625 20.898438 5.175781 20.875 5.28125 20.925781 C 5.386719 20.976562 5.445312 21.078125 5.410156 21.152344 M 6.121094 21.800781 C 6.050781 21.867188 5.917969 21.835938 5.824219 21.734375 C 5.730469 21.628906 5.714844 21.492188 5.78125 21.425781 C 5.855469 21.359375 5.984375 21.390625 6.078125 21.496094 C 6.171875 21.597656 6.191406 21.738281 6.121094 21.804688 M 6.609375 22.636719 C 6.519531 22.699219 6.375 22.640625 6.285156 22.507812 C 6.195312 22.375 6.195312 22.21875 6.285156 22.15625 C 6.375 22.089844 6.519531 22.148438 6.609375 22.277344 C 6.699219 22.414062 6.699219 22.570312 6.609375 22.636719 M 7.433594 23.601562 C 7.351562 23.691406 7.183594 23.667969 7.0625 23.546875 C 6.933594 23.425781 6.898438 23.253906 6.980469 23.164062 C 7.058594 23.074219 7.226562 23.101562 7.351562 23.222656 C 7.476562 23.34375 7.515625 23.511719 7.433594 23.601562 M 8.496094 23.929688 C 8.460938 24.042969 8.300781 24.097656 8.136719 24.046875 C 7.972656 23.996094 7.867188 23.859375 7.898438 23.742188 C 7.933594 23.625 8.097656 23.570312 8.261719 23.625 C 8.425781 23.675781 8.53125 23.808594 8.496094 23.929688 M 9.710938 24.066406 C 9.714844 24.1875 9.574219 24.289062 9.402344 24.292969 C 9.230469 24.296875 9.089844 24.199219 9.089844 24.078125 C 9.089844 23.953125 9.226562 23.851562 9.398438 23.851562 C 9.570312 23.847656 9.710938 23.945312 9.710938 24.066406 M 10.902344 24.019531 C 10.921875 24.140625 10.800781 24.261719 10.632812 24.292969 C 10.464844 24.324219 10.308594 24.253906 10.289062 24.132812 C 10.265625 24.011719 10.386719 23.886719 10.554688 23.855469 C 10.726562 23.828125 10.878906 23.898438 10.902344 24.019531 "/>
</g>
</svg>
