<?xml version="1.0" encoding="UTF-8"?>
<svg xmlns="http://www.w3.org/2000/svg" xmlns:xlink="http://www.w3.org/1999/xlink" width="30px" height="30px" viewBox="0 0 30 29" version="1.1">
<g id="surface1">
<path style=" stroke:none;fill-rule:nonzero;fill:rgb(100%,34.901961%,0%);fill-opacity:1;" d="M 0 14.101562 C 0 7.347656 5.675781 1.015625 13.160156 0.109375 C 18.523438 -0.492188 22.578125 1.496094 25.382812 4.089844 C 28 6.503906 29.5625 9.578125 29.933594 13.195312 C 30.246094 16.816406 29.4375 19.953125 27.253906 22.90625 C 25.070312 25.800781 20.769531 29 15.40625 29 L 8.109375 29 L 8.109375 15.066406 C 8.171875 11.992188 9.230469 9.335938 13.097656 8.070312 C 16.464844 7.105469 20.394531 8.914062 21.578125 12.351562 C 22.824219 16.03125 21.015625 18.503906 18.898438 20.011719 C 16.777344 21.519531 13.472656 21.519531 11.289062 20.074219 L 11.289062 24.835938 C 12.722656 25.5 14.53125 25.683594 15.839844 25.621094 C 20.582031 24.957031 24.261719 22.363281 25.820312 18.445312 C 27.441406 14.28125 26.320312 9.457031 22.953125 6.441406 C 18.898438 3.246094 14.46875 2.460938 9.730469 4.695312 C 6.425781 6.324219 4.117188 9.640625 3.554688 13.257812 L 3.554688 29 L 0.0625 29 Z M 0 14.101562 "/>
</g>
</svg>
