<?xml version="1.0" encoding="utf-8"?>
<!-- Generator: Adobe Illustrator 25.1.0, SVG Export Plug-In . SVG Version: 6.00 Build 0)  -->
<svg version="1.1" id="Layer_1" xmlns="http://www.w3.org/2000/svg" xmlns:xlink="http://www.w3.org/1999/xlink" x="0px" y="0px"
	 viewBox="0 0 3840 727.3" style="enable-background:new 0 0 3840 727.3;" xml:space="preserve">
<style type="text/css">
	.st0{fill-rule:evenodd;clip-rule:evenodd;fill:url(#SVGID_1_);}
	.st1{fill:#57585C;}
	.st2{fill-rule:evenodd;clip-rule:evenodd;fill:url(#SVGID_2_);}
	.st3{fill-rule:evenodd;clip-rule:evenodd;fill:url(#SVGID_3_);}
	.st4{fill:#FFFFFF;}
</style>
<g>
	<g>
		<g>
			
				<linearGradient id="SVGID_1_" gradientUnits="userSpaceOnUse" x1="1029.6899" y1="-2508.1919" x2="3827.4199" y2="-2508.1919" gradientTransform="matrix(1 0 0 -1 0 -1860.8687)">
				<stop  offset="7.458905e-08" style="stop-color:#F29524"/>
				<stop  offset="0.333" style="stop-color:#D21A2A"/>
				<stop  offset="0.666" style="stop-color:#3E35AB"/>
				<stop  offset="1" style="stop-color:#BDDD1E"/>
			</linearGradient>
			<rect x="1029.7" y="579.9" class="st0" width="2797.7" height="134.8"/>
			<path d="M3814.8,592.5v109.7H1042.3V592.5H3814.8 M3840,567.3H1017.1v160H3840V567.3L3840,567.3z"/>
		</g>
		<g>
			<g>
				<path d="M1134,28.1c15.8-20.2,48.4-23.6,67.8-6.7c7.9,6.7,13.5,15.9,16.3,25.8c35.8,123.4,71.9,246.7,107.7,370.1
					c-21.2,0-42.3,0-63.5,0c-10-34-19.7-68.1-29.6-102.1c-40.9-0.1-81.8,0-122.7,0c-10,34-19.9,68.1-29.7,102.2
					c-21-0.1-42.1,0-63.1,0c34.1-117.7,68.2-235.4,102.4-353C1123.6,51.9,1125.1,38.2,1134,28.1 M1171.3,103.7
					c-15,51.1-29.7,102.3-44.6,153.4c29.7,0.1,59.5,0,89.2,0C1201,206.1,1186.2,154.9,1171.3,103.7z"/>
				<path d="M1579.7,30.8c11-16,32.3-23.8,51.1-18.8c17.2,4,30.3,18.8,34.9,35.4c35.8,123.3,71.8,246.5,107.6,369.8
					c-21.2,0.2-42.4,0-63.6,0.1c-9.8-34-19.6-68.1-29.5-102.2c-40.8,0-81.7-0.1-122.5,0c-9.8,34.1-19.8,68.1-29.6,102.1
					c-21,0-42,0-63.1,0c34-118.3,68.5-236.6,102.8-354.8C1571.4,51.8,1572.8,40,1579.7,30.8 M1574.6,257.2c29.6,0,59.2,0,88.8,0
					c-14.7-51.3-29.7-102.5-44.4-153.8C1604.2,154.7,1589.3,205.9,1574.6,257.2z"/>
				<path d="M1278.4,11.3c76.6,0,153.1,0,229.6,0c0,20.7,0,41.3,0,61.9c-28.2,0-56.4,0-84.5,0c0,114.7,0,229.3,0,344
					c-20.2,0-40.4,0-60.6,0c0-114.7,0-229.3,0-344c-28.2-0.1-56.4,0-84.5,0C1278.4,52.6,1278.4,32,1278.4,11.3z"/>
				<path d="M1840.6,13.9c5.8-2,12-2.7,18.2-2.6c24.1,0.1,48.3,0,72.4,0c40.7,0.8,79.4,26,97,62.6c12.2,23.8,13.4,51.4,10.4,77.4
					c-2.1,27.3-13.6,54.6-34.5,72.7c-11.1,9.9-24.9,15.9-36.7,24.6c-6.5,4.9-6.8,14.6-3.5,21.5c32,49.5,65.3,98.1,98,147.2
					c-23.9,0-47.8-0.1-71.8,0c-31.3-47-62.3-94.3-93.5-141.4c-9.2-13.4-11.7-31.2-6.2-46.5c4.3-11.7,14.5-20.3,26-24.8
					c21.8-8.3,43.3-21.4,55.4-42c9.2-15.5,8.7-34.5,4.6-51.5c-4.8-22-26.2-39.2-48.9-38.5c-15.7,0.1-31.3-0.1-46.9,0.1
					c-7.1-0.2-13.7,6-13.6,13.2c-0.1,110.4,0,220.9,0,331.3c-20.3,0-40.7,0-61,0c0-118.9,0.1-237.8,0-356.6
					C1806,39.8,1820.8,20.2,1840.6,13.9z"/>
				<path d="M2093.8,11.3c21.4,0,42.8,0,64.2,0c0,135.3,0.1,270.6,0,405.9c-21.4-0.1-42.8,0-64.1,0
					C2093.8,281.9,2093.8,146.6,2093.8,11.3z"/>
			</g>
		</g>
		<g>
			<g>
				<g>
					<path d="M2413.4,289.8l0.8,10.5c0.6,8.4,2.8,16.4,6.3,23.6c3.5,7.3,8.4,13.7,14.4,19.1c6,5.4,13.3,9.7,21.6,12.7
						c8.4,3,17.9,4.5,28.4,4.5c9.6,0,18.9-1.7,27.6-5c8.6-3.3,15.9-8.1,22.3-14.6c6.4-6.6,11.6-15,15.4-25
						c3.9-10.2,5.9-22.5,5.9-36.4c0-11.4-1.9-21.9-5.6-31.4c-3.6-9.4-8.8-17.5-15.4-24.2c-6.6-6.8-14.7-12.1-24-15.9
						c-9.4-3.9-20.1-5.8-31.8-5.8c-13.2,0-24.7,2.9-35.2,8.7c-10.8,6.1-20.5,14.2-28.8,24.1l-3.6,4.4l-58.6-3.2l40.2-224.4h206.3
						v63.9h-152.3l-14.2,76.2c4.4-2.3,9.1-4.4,14.1-6.1c14.6-5,29.2-7.5,43.6-7.5c18.4,0,36.2,3,52.8,8.9
						c16.9,6,31.8,15.4,44.3,27.6c12.4,12.3,22.4,27.6,29.6,45.7c7.1,18,10.7,39.1,10.7,62.8c0,17.8-3.1,35.3-9.2,52
						c-6.2,17-15.6,32.2-28,45.4c-12.4,13.2-28,23.9-46.4,31.8c-18.3,7.9-39.9,11.9-64.2,11.9c-18.1,0-35.3-2.7-51.2-8
						c-16.1-5.4-30.6-13.5-43.1-24.2c-12.5-10.7-22.6-23.8-29.8-38.9c-7.3-15.1-11.2-32.5-11.6-51.7l-0.2-11.6L2413.4,289.8
						L2413.4,289.8z"/>
				</g>
				<path d="M2755.6,355.3L2893.2,226c8.8-8.2,17-17.2,23.2-27.6c14.7-24.6,21.6-54.3,17.2-85.9c-8-58.2-55.9-104.9-114.3-111.7
					c-79.4-9.1-146.7,52.7-146.7,130.3h70.2c0-38.4,35.6-68.6,75.6-59.3c22.3,5.2,40.2,23.5,45,45.9c3.3,15.5,0.7,30.2-5.9,42.4l0,0
					c-8,11-17,21.2-26.8,30.7l-158.7,153.5v72.8h271.7v-61.9L2755.6,355.3L2755.6,355.3z"/>
				<path d="M3182.9,1c-116.8,0-211.5,94.7-211.5,211.5s94.7,211.5,211.5,211.5s211.5-94.7,211.5-211.5
					C3394.4,95.7,3299.7,1,3182.9,1z M3182.9,353.4c-77.8,0-140.9-63.1-140.9-140.9s63.1-140.9,140.9-140.9s140.9,63.1,140.9,140.9
					S3260.7,353.4,3182.9,353.4z"/>
				<path d="M3626.1,1c-116.8,0-211.5,94.7-211.5,211.5s94.7,211.5,211.5,211.5s211.5-94.7,211.5-211.5
					C3837.6,95.7,3742.9,1,3626.1,1z M3626.1,353.4c-77.8,0-140.9-63.1-140.9-140.9s63.1-140.9,140.9-140.9S3767,134.7,3767,212.5
					S3703.9,353.4,3626.1,353.4z"/>
			</g>
		</g>
	</g>
	<g>
		<g>
			<g>
				<g>
					<path d="M318.6,11.4c18.1-0.1,36.2,0,54.3-0.1c0.1,42.5,0,85.1,0,127.6c0.2,35.5-0.8,71-2.3,106.5
						c-2.4,51.2-5.6,102.6-14.1,153.2c-5.8,34.9-17.9,68.6-32.9,100.5c-24.4,51.5-62.8,95.1-106,131.8
						c-38.6,34-84.7,58.7-133.2,75.5C57,715.8,28.7,723.1,0,727.2c0-35.7,0-71.4,0-107c34.6-5.2,67.8-17.5,98.7-33.7
						c36.7-19.4,69.7-45.5,97.4-76.2c28.7-31.7,51.5-68.5,68.9-107.4c20.4-44.8,31.4-93.3,38.8-141.8c9.3-61.6,13.2-124,14.6-186.3
						C318.7,53.6,318.5,32.5,318.6,11.4z"/>
					<path d="M394.7,11.5c33.3-0.2,66.6,0,99.9-0.1c0,238.6,0,477.2,0,715.8c-33.2,0.1-66.5-0.2-99.7,0.1
						c-0.4-76.1-0.1-152.2-0.2-228.2C394.7,336.5,394.8,174,394.7,11.5z"/>
					<path d="M516.8,11.4c18,0,36-0.1,54,0c-0.6,72.8,1.9,145.6,10.6,217.9c7.1,56.1,17.1,112.7,39.5,165
						c21.2,50.6,51.8,97.6,91.6,135.6c38,36.3,84.1,64.1,134.2,80.2c14,4.5,28.3,8,42.8,10.1c0,35.7,0,71.3,0,107
						c-28.5-3.9-56.5-11.2-83.7-20.5c-32.4-11.3-63.8-25.9-92.6-44.6c-21-13.5-40.2-29.7-58.5-46.6c-30.3-27.9-57.4-59.7-77.7-95.6
						c-15.9-28-27.5-58.2-36.6-89.1c-8.3-31-11.9-63-15.1-94.9c-6.3-68.9-8.6-138.1-8.2-207.2C516.8,89.6,516.8,50.5,516.8,11.4z"/>
				</g>
			</g>
		</g>
	</g>
</g>
</svg>
