<?xml version="1.0" encoding="UTF-8"?>
<svg xmlns="http://www.w3.org/2000/svg" xmlns:xlink="http://www.w3.org/1999/xlink" width="25px" height="24px" viewBox="0 0 24 24" version="1.1">
<g id="surface1">
<path style=" stroke:none;fill-rule:nonzero;fill:rgb(8.627451%,8.627451%,7.843137%);fill-opacity:1;" d="M 11.957031 0 C 5.574219 0 0.398438 5.503906 0.398438 12.289062 C 0.398438 17.714844 3.710938 22.320312 8.304688 23.949219 C 8.878906 24.0625 9.089844 23.679688 9.089844 23.355469 C 9.089844 23.0625 9.082031 22.097656 9.074219 21.066406 C 5.863281 21.8125 5.183594 19.621094 5.183594 19.621094 C 4.65625 18.195312 3.898438 17.820312 3.898438 17.820312 C 2.851562 17.058594 3.976562 17.074219 3.976562 17.074219 C 5.140625 17.160156 5.75 18.339844 5.75 18.339844 C 6.78125 20.21875 8.453125 19.675781 9.113281 19.359375 C 9.214844 18.570312 9.515625 18.027344 9.847656 17.71875 C 7.28125 17.410156 4.582031 16.355469 4.582031 11.648438 C 4.582031 10.304688 5.035156 9.207031 5.773438 8.347656 C 5.652344 8.039062 5.257812 6.789062 5.882812 5.09375 C 5.882812 5.09375 6.855469 4.765625 9.0625 6.355469 C 9.984375 6.085938 10.972656 5.949219 11.957031 5.941406 C 12.9375 5.949219 13.925781 6.085938 14.851562 6.355469 C 17.054688 4.765625 18.023438 5.09375 18.023438 5.09375 C 18.652344 6.789062 18.257812 8.039062 18.136719 8.347656 C 18.878906 9.207031 19.328125 10.304688 19.328125 11.648438 C 19.328125 16.363281 16.625 17.40625 14.050781 17.710938 C 14.464844 18.089844 14.835938 18.835938 14.835938 19.984375 C 14.835938 21.628906 14.820312 22.953125 14.820312 23.355469 C 14.820312 23.683594 15.027344 24.066406 15.617188 23.945312 C 20.203125 22.320312 23.507812 17.714844 23.507812 12.289062 C 23.507812 5.503906 18.335938 0 11.957031 0 "/>
<path style=" stroke:none;fill-rule:nonzero;fill:rgb(8.627451%,8.627451%,7.843137%);fill-opacity:1;" d="M 4.726562 17.503906 C 4.703125 17.566406 4.613281 17.582031 4.53125 17.539062 C 4.445312 17.503906 4.398438 17.417969 4.425781 17.355469 C 4.449219 17.296875 4.539062 17.277344 4.625 17.316406 C 4.710938 17.359375 4.757812 17.445312 4.726562 17.503906 M 5.296875 18.042969 C 5.242188 18.097656 5.132812 18.070312 5.058594 17.988281 C 4.984375 17.898438 4.972656 17.785156 5.023438 17.730469 C 5.085938 17.675781 5.1875 17.703125 5.261719 17.789062 C 5.335938 17.875 5.351562 17.992188 5.296875 18.046875 M 5.6875 18.734375 C 5.617188 18.785156 5.5 18.738281 5.429688 18.628906 C 5.355469 18.515625 5.355469 18.386719 5.429688 18.335938 C 5.5 18.28125 5.617188 18.328125 5.6875 18.4375 C 5.757812 18.550781 5.757812 18.679688 5.6875 18.734375 M 6.347656 19.53125 C 6.28125 19.605469 6.148438 19.585938 6.050781 19.488281 C 5.945312 19.386719 5.917969 19.246094 5.984375 19.171875 C 6.046875 19.097656 6.179688 19.117188 6.28125 19.21875 C 6.382812 19.320312 6.414062 19.457031 6.347656 19.53125 M 7.195312 19.804688 C 7.167969 19.898438 7.039062 19.941406 6.910156 19.902344 C 6.777344 19.859375 6.695312 19.746094 6.71875 19.648438 C 6.746094 19.550781 6.878906 19.507812 7.007812 19.550781 C 7.140625 19.59375 7.226562 19.703125 7.195312 19.804688 M 8.167969 19.917969 C 8.171875 20.015625 8.058594 20.101562 7.921875 20.105469 C 7.785156 20.109375 7.671875 20.027344 7.671875 19.925781 C 7.671875 19.824219 7.78125 19.738281 7.917969 19.738281 C 8.054688 19.734375 8.167969 19.816406 8.167969 19.917969 M 9.121094 19.878906 C 9.136719 19.976562 9.039062 20.078125 8.90625 20.105469 C 8.773438 20.128906 8.648438 20.070312 8.632812 19.972656 C 8.613281 19.871094 8.710938 19.769531 8.84375 19.742188 C 8.980469 19.71875 9.101562 19.777344 9.121094 19.878906 "/>
</g>
</svg>
