<?xml version="1.0" encoding="UTF-8" standalone="no"?>
<svg
   xmlns:dc="http://purl.org/dc/elements/1.1/"
   xmlns:cc="http://creativecommons.org/ns#"
   xmlns:rdf="http://www.w3.org/1999/02/22-rdf-syntax-ns#"
   xmlns:svg="http://www.w3.org/2000/svg"
   xmlns="http://www.w3.org/2000/svg"
   viewBox="0 0 320 170.66665"
   height="170.66666"
   width="320"
   xml:space="preserve"
   id="svg2"
   version="1.1"><metadata
     id="metadata8"><rdf:RDF><cc:Work
         rdf:about=""><dc:format>image/svg+xml</dc:format><dc:type
           rdf:resource="http://purl.org/dc/dcmitype/StillImage" /></cc:Work></rdf:RDF></metadata><defs
     id="defs6"><clipPath
       id="clipPath18"
       clipPathUnits="userSpaceOnUse"><path
         id="path16"
         d="M 0,256 H 256 V 0 H 0 Z" /></clipPath></defs><g
     transform="matrix(1.3333333,0,0,-1.3333333,-10.666666,256.00026)"
     id="g10"><g
       id="g12"><g
         clip-path="url(#clipPath18)"
         id="g14"><g
           transform="translate(38,136.0322)"
           id="g20"><path
             id="path22"
             style="fill:#ffffff;fill-opacity:1;fill-rule:nonzero;stroke:none"
             d="M 0,0 3.453,3.968 H 8.045 C 9.125,3.968 10,2.962 10,1.721 V -1.785 C 10,-3.026 9.125,-4.032 8.045,-4.032 H 3.508 Z M -6,-5.485 -2.031,-2.032 2,-5.539 v -4.538 c 0,-1.08 -1.006,-1.955 -2.247,-1.955 h -3.506 c -1.241,0 -2.247,0.875 -2.247,1.955 z M -6,5.44 v 4.562 c 0,1.086 1.006,1.966 2.247,1.966 h 3.506 C 0.994,11.968 2,11.088 2,10.002 V 5.495 L -2.031,1.968 Z M -4,0 -7.527,-4.032 h -4.507 c -1.086,0 -1.966,1.006 -1.966,2.247 v 3.506 c 0,1.241 0.88,2.247 1.966,2.247 h 4.562 z M 204.276,-46.645 C 202.544,-60.92 151.868,-68.032 90,-68.032 c -61.868,0 -112.548,7.112 -114.276,21.387 -1.72,14.265 -1.724,26.073 -1.724,38.613 0,11.6 2.116,36.832 3.908,45 1.792,8.172 4.116,7.508 11.74,8.756 0.761,0.126 5.563,0.584 11.279,1.102 L 16.848,3.835 C 15.43,3.463 14.349,2.332 14,0.924 V 1.721 C 14,5.166 11.329,7.968 8.045,7.968 H 6 v 2.034 c 0,3.29 -2.802,5.966 -6.247,5.966 H -3.753 C -7.198,15.968 -10,13.292 -10,10.002 V 7.968 h -2.034 C -15.324,7.968 -18,5.166 -18,1.721 v -3.506 c 0,-3.445 2.676,-6.247 5.966,-6.247 H -10 v -2.045 c 0,-3.284 2.802,-5.955 6.247,-5.955 h 3.506 c 3.445,0 6.247,2.671 6.247,5.955 v 2.045 h 2.045 c 2.481,0 4.611,1.601 5.505,3.87 -0.917,-5.868 -4.404,-16.914 -17.506,-24.379 l -0.005,-0.003 c -0.034,-0.019 -0.067,-0.039 -0.093,-0.055 -1.881,-1.125 -2.506,-3.554 -1.401,-5.448 0.743,-1.272 2.082,-1.984 3.458,-1.984 0.549,0 1.103,0.112 1.628,0.347 0.164,0.044 0.448,0.113 0.686,0.169 2.591,0.619 8.659,2.066 13.692,7.321 4.374,4.568 6.955,10.88 7.732,18.815 l 5.948,-16.063 C 27.88,-26.12 32.658,-42.03 59.432,-42.03 l 58.681,-10e-4 0.323,-10e-4 c 4.159,0 25.216,0.79 31.297,16.389 1.861,4.771 4.966,13.448 8.386,23.206 C 158.049,-2.96 158,-3.49 158,-4.032 c 0,-2.435 0.733,-4.699 1.984,-6.593 C 154.848,-15.923 150,-22.06 150,-26.362 c 0,-1.739 0.691,-3.273 1.947,-4.32 1.076,-0.896 2.441,-1.35 4.056,-1.35 6.809,0 20.119,9.078 29.448,16.851 4.242,3.536 16.929,14.578 19.911,22.459 0.393,-5.872 0.638,-11.376 0.638,-15.31 0,-12.54 -0.004,-24.348 -1.724,-38.613 M 17.866,-0.032 C 19.815,-30.425 -0.12,-31.01 -1.976,-32.017 18.707,-20.233 17.866,-0.032 17.866,-0.032 m 3.55,48.604 -0.096,1.436 19.768,1.268 0.088,-1.396 c 17.088,1.024 35.176,2.088 48.824,2.088 15.761,0 56.302,-2.79 80.769,-4.647 l -0.011,-0.032 c -0.045,-0.132 -21.991,-63.257 -25.145,-71.346 -5.425,-13.92 -27.284,-13.588 -27.439,-13.589 l -58.742,0.007 c -23.26,0 -27.358,12.934 -27.543,13.55 L 5.247,47.212 c 6.598,0.585 13.384,1.161 16.169,1.36 M 170.344,32.99 c 2.121,-0.826 3.656,-3.058 3.656,-5.723 0,-3.366 -2.427,-6.095 -5.421,-6.095 -0.753,0 -1.457,0.194 -2.105,0.512 1.386,4.037 2.701,7.878 3.87,11.306 m -7.616,-46.545 c 2.02,-1.547 4.537,-2.477 7.272,-2.477 6.617,0 12,5.383 12,12 0,0.24 -0.022,0.476 -0.036,0.713 1.264,-0.453 2.618,-0.713 4.036,-0.713 6.617,0 12,5.383 12,12 0,1.231 -0.188,2.419 -0.533,3.538 0.988,0.302 1.841,0.462 2.53,0.462 0.647,0 1.151,-0.138 1.494,-0.424 2.701,-2.251 -5.627,-12.839 -18.601,-23.651 -11.325,-9.437 -22.446,-15.925 -26.887,-15.925 -0.647,0 -1.151,0.137 -1.494,0.424 -1.877,1.563 1.585,7.159 8.219,14.053 M 178,-4.032 c 0,-4.419 -3.582,-8 -8,-8 -4.418,0 -8,3.581 -8,8 0,4.418 3.582,8 8,8 4.418,0 8,-3.582 8,-8 m 16,12 c 0,-4.419 -3.582,-8 -8,-8 -4.418,0 -8,3.581 -8,8 0,4.418 3.582,8 8,8 4.418,0 8,-3.582 8,-8 m 8.088,28.992 c 0.962,-4.39 2.02,-13.719 2.794,-23.209 -0.24,0.315 -0.518,0.606 -0.829,0.866 -1.076,0.896 -2.441,1.351 -4.056,1.351 -1.254,0 -2.735,-0.321 -4.366,-0.873 -2.188,2.949 -5.685,4.873 -9.631,4.873 -6.617,0 -12,-5.384 -12,-12 0,-0.241 0.022,-0.476 0.036,-0.714 -1.264,0.454 -2.618,0.714 -4.036,0.714 -4.375,0 -8.199,-2.361 -10.296,-5.868 1.818,5.219 3.683,10.61 5.465,15.788 1.097,-0.465 2.254,-0.716 3.41,-0.716 5.194,0 9.421,4.529 9.421,10.095 0,4.335 -2.579,8.142 -6.358,9.529 1.451,4.26 2.585,7.601 3.214,9.458 l 0.25,0.734 c 8.75,-0.677 14.648,-1.176 15.222,-1.272 7.64,-1.248 9.96,-0.584 11.76,-8.756 m 3.907,0.856 c -2.09,9.49 -5.989,10.509 -12.7,11.493 -0.713,0.105 -1.484,0.217 -2.322,0.355 -2.213,0.37 -78.006,6.304 -100.973,6.304 -12.968,0 -29.725,-0.942 -45.083,-1.857 L 44.828,55.524 40.832,55.268 21.064,54 17.062,53.743 17.161,52.249 C 8.267,51.518 -9.307,49.951 -11.005,49.67 -11.835,49.534 -12.606,49.421 -13.318,49.316 -20.023,48.331 -23.919,47.312 -25.999,37.824 -27.931,29.02 -30,3.377 -30,-8.032 c 0,-12.628 0,-24.555 1.753,-39.091 1.094,-9.036 13.129,-15.234 37.875,-19.511 20.443,-3.531 48.235,-5.398 80.372,-5.398 32.136,0 59.928,1.867 80.37,5.398 24.745,4.277 36.781,10.475 37.877,19.508 C 210,-32.587 210,-20.66 210,-8.032 c 0,11.389 -2.071,37.024 -4.005,45.848" /></g><g
           transform="translate(60.3037,170.2334)"
           id="g24"><path
             id="path26"
             style="fill:#ffffff;fill-opacity:1;fill-rule:nonzero;stroke:none"
             d="m 0,0 c 0.1,0.518 2.288,2.782 11.159,4.404 6.052,1.106 12.066,1.341 12.682,1.363 h 87.712 C 112.17,5.745 118.109,5.516 124.156,4.418 133.09,2.795 135.292,0.52 135.393,0 c 1.248,-6.45 -1.804,-11.41 -1.819,-11.433 l -0.254,-0.392 -0.157,-0.439 -14.35,-40.052 -0.06,-0.117 -0.05,-0.241 c -0.23,-0.739 -3.206,-9.141 -19.318,-9.449 -4.017,-0.076 -18.81,-0.11 -31.689,-0.11 -12.878,0 -27.671,0.034 -31.688,0.11 -16.075,0.307 -19.074,8.671 -19.317,9.444 l -0.019,0.102 -0.093,0.261 -14.349,40.052 -0.141,0.413 -0.254,0.392 C 1.804,-11.41 -1.248,-6.45 0,0 m -1.536,-13.613 14.349,-40.052 c 0,0 2.99,-12.073 23.119,-12.457 3.901,-0.074 17.833,-0.111 31.764,-0.111 13.932,0 27.864,0.037 31.765,0.111 20.129,0.384 23.118,12.457 23.118,12.457 l 14.35,40.052 c 0,0 3.985,6.133 2.39,14.373 C 137.726,9 111.618,9.767 111.618,9.767 H 23.774 c 0,0 -26.107,-0.767 -27.701,-9.007 -1.594,-8.24 2.391,-14.373 2.391,-14.373" /></g><path
           id="path28"
           style="fill:#ffffff;fill-opacity:1;fill-rule:nonzero;stroke:none"
           d="M 160,124 H 96 v 44 h 64 z m 4,48 H 92 v -52 h 72 z" /><g
           transform="translate(74,148)"
           id="g30"><path
             id="path32"
             style="fill:#ffffff;fill-opacity:1;fill-rule:nonzero;stroke:none"
             d="M 0,0 C 1.104,0 2,0.896 2,2 2,3.104 1.104,4 0,4 -1.104,4 -2,3.104 -2,2 -2,0.896 -1.104,0 0,0" /></g><g
           transform="translate(36,156)"
           id="g34"><path
             id="path36"
             style="fill:#ffffff;fill-opacity:1;fill-rule:nonzero;stroke:none"
             d="m 0,0 c -11.028,0 -20,-8.972 -20,-20 0,-11.028 8.972,-20 20,-20 11.028,0 20,8.972 20,20 C 20,-8.972 11.028,0 0,0 m 0,-4 c 8.836,0 16,-7.164 16,-16 0,-8.836 -7.164,-16 -16,-16 -8.836,0 -16,7.164 -16,16 0,8.836 7.164,16 16,16" /></g></g></g></g></svg>