<?xml version="1.0" encoding="UTF-8" standalone="no"?>
<svg
   xmlns:dc="http://purl.org/dc/elements/1.1/"
   xmlns:cc="http://creativecommons.org/ns#"
   xmlns:rdf="http://www.w3.org/1999/02/22-rdf-syntax-ns#"
   xmlns:svg="http://www.w3.org/2000/svg"
   xmlns="http://www.w3.org/2000/svg"
   viewBox="0 0 224 320"
   height="320"
   width="224"
   xml:space="preserve"
   id="svg2"
   version="1.1"><metadata
     id="metadata8"><rdf:RDF><cc:Work
         rdf:about=""><dc:format>image/svg+xml</dc:format><dc:type
           rdf:resource="http://purl.org/dc/dcmitype/StillImage" /></cc:Work></rdf:RDF></metadata><defs
     id="defs6"><clipPath
       id="clipPath20"
       clipPathUnits="userSpaceOnUse"><path
         id="path18"
         d="M 0,256 H 256 V 0 H 0 Z" /></clipPath></defs><g
     transform="matrix(1.3333333,0,0,-1.3333333,-58.666665,330.66666)"
     id="g10"><path
       id="path12"
       style="fill:#ffffff;fill-opacity:1;fill-rule:nonzero;stroke:none"
       d="m 126,64 h 4 v 4 h -4 z" /><g
       id="g14"><g
         clip-path="url(#clipPath20)"
         id="g16"><g
           transform="translate(128,36)"
           id="g22"><path
             id="path24"
             style="fill:#ffffff;fill-opacity:1;fill-rule:nonzero;stroke:none"
             d="M 0,0 C 1.104,0 2,0.896 2,2 2,3.104 1.104,4 0,4 -1.104,4 -2,3.104 -2,2 -2,0.896 -1.104,0 0,0" /></g><path
           id="path26"
           style="fill:#ffffff;fill-opacity:1;fill-rule:nonzero;stroke:none"
           d="m 164,68 h -4 v -4 h 4 z" /><path
           id="path28"
           style="fill:#ffffff;fill-opacity:1;fill-rule:nonzero;stroke:none"
           d="m 92,64 h 4 v 4 h -4 z" /><path
           id="path30"
           style="fill:#ffffff;fill-opacity:1;fill-rule:nonzero;stroke:none"
           d="m 56,88 h 144 v 4 H 56 Z" /><g
           transform="translate(78.2861,136)"
           id="g32"><path
             id="path34"
             style="fill:#ffffff;fill-opacity:1;fill-rule:nonzero;stroke:none"
             d="M 0,0 7,56 H 95.536 L 100.195,0 Z M 99.522,56.332 C 99.35,58.405 97.617,60 95.536,60 H 7 C 4.982,60 3.281,58.498 3.031,56.496 l -7,-56 C -4.268,-1.891 -2.406,-4 0,-4 h 100.195 c 2.34,0 4.181,2 3.987,4.332 z" /></g><g
           transform="translate(166.5,109.5)"
           id="g36"><path
             id="path38"
             style="fill:#ffffff;fill-opacity:1;fill-rule:nonzero;stroke:none"
             d="M 0,0 C -1.657,0 -3,0.447 -3,1 -3,1.553 -1.657,2 0,2 1.657,2 3,1.553 3,1 3,0.447 1.657,0 0,0 m 7,-3 c 0,-0.553 -1.343,-1 -3,-1 -1.657,0 -3,0.447 -3,1 0,0.553 1.343,1 3,1 1.657,0 3,-0.447 3,-1 M 8,0 C 6.343,0 5,0.447 5,1 5,1.553 6.343,2 8,2 9.657,2 11,1.553 11,1 11,0.447 9.657,0 8,0 m 5,1 c 0,0.553 1.343,1 3,1 1.657,0 3,-0.447 3,-1 0,-0.553 -1.343,-1 -3,-1 -1.657,0 -3,0.447 -3,1 m 2,-4 c 0,-0.553 -1.343,-1 -3,-1 -1.657,0 -3,0.447 -3,1 0,0.553 1.343,1 3,1 1.657,0 3,-0.447 3,-1 m -19,1 c 1.657,0 3,-0.447 3,-1 0,-0.553 -1.343,-1 -3,-1 -1.465,0 -2.681,0.351 -2.943,0.813 0.082,0.193 0.148,0.392 0.208,0.594 C -6.268,-2.244 -5.222,-2 -4,-2 m -70,2 c -1.657,0 -3,0.447 -3,1 0,0.553 1.343,1 3,1 1.657,0 3,-0.447 3,-1 0,-0.553 -1.343,-1 -3,-1 m 7,-3 c 0,-0.553 -1.343,-1 -3,-1 -1.657,0 -3,0.447 -3,1 0,0.553 1.343,1 3,1 1.657,0 3,-0.447 3,-1 m 1,3 c -1.657,0 -3,0.447 -3,1 0,0.553 1.343,1 3,1 1.657,0 3,-0.447 3,-1 0,-0.553 -1.343,-1 -3,-1 m 5,1 c 0,0.553 1.343,1 3,1 1.657,0 3,-0.447 3,-1 0,-0.553 -1.343,-1 -3,-1 -1.657,0 -3,0.447 -3,1 m 2,-4 c 0,-0.553 -1.343,-1 -3,-1 -1.657,0 -3,0.447 -3,1 0,0.553 1.343,1 3,1 1.657,0 3,-0.447 3,-1 m -19,1 c 1.657,0 3,-0.447 3,-1 0,-0.553 -1.343,-1 -3,-1 -1.465,0 -2.68,0.351 -2.943,0.813 0.082,0.193 0.148,0.392 0.208,0.594 C -80.268,-2.244 -79.221,-2 -78,-2 M 41.5,-21.5 c 0,-2.209 -1.791,-4 -4,-4 h -16 -4 -112 -4 -16 c -2.209,0 -4,1.791 -4,4 v 16 l 7.296,13.863 c 0.692,1.314 2.055,2.137 3.54,2.137 h 10.555 C -97.986,9.217 -98.5,7.668 -98.5,6 c 0,-0.805 0.124,-1.594 0.357,-2.345 C -99.644,2.434 -100.5,0.817 -100.5,-1 c 0,-4.056 4.206,-7 10,-7 3.922,0 7.11,1.352 8.765,3.48 0.759,-0.623 2.049,-0.98 3.735,-0.98 1.911,0 3.305,0.462 4,1.248 0.695,-0.786 2.089,-1.248 4,-1.248 1.911,0 3.305,0.462 4,1.248 0.695,-0.786 2.089,-1.248 4,-1.248 2.776,0 4.5,0.958 4.5,2.5 0,0.602 -0.269,1.109 -0.753,1.512 0.086,-0.002 0.164,-0.012 0.253,-0.012 2.776,0 4.5,0.958 4.5,2.5 0,1.542 -1.724,2.5 -4.5,2.5 -1.911,0 -3.305,-0.462 -4,-1.248 -0.695,0.786 -2.089,1.248 -4,1.248 -1.911,0 -3.305,-0.462 -4,-1.248 -0.695,0.786 -2.089,1.248 -4,1.248 -2.776,0 -4.5,-0.958 -4.5,-2.5 0,-0.602 0.269,-1.109 0.753,-1.512 -0.086,0.002 -0.164,0.012 -0.253,0.012 -0.98,0 -1.821,-0.125 -2.509,-0.348 -0.047,1.754 -0.89,3.317 -2.348,4.503 0.233,0.751 0.357,1.54 0.357,2.345 0,1.668 -0.514,3.217 -1.391,4.5 h 60.782 C -23.985,9.217 -24.5,7.668 -24.5,6 c 0,-0.805 0.124,-1.594 0.357,-2.345 C -25.644,2.434 -26.5,0.817 -26.5,-1 c 0,-4.056 4.206,-7 10,-7 3.922,0 7.11,1.352 8.765,3.48 0.759,-0.623 2.049,-0.98 3.735,-0.98 1.91,0 3.305,0.462 4,1.248 0.695,-0.786 2.09,-1.248 4,-1.248 1.91,0 3.305,0.462 4,1.248 0.695,-0.786 2.09,-1.248 4,-1.248 2.775,0 4.5,0.958 4.5,2.5 0,0.602 -0.27,1.109 -0.753,1.512 C 15.833,-1.49 15.911,-1.5 16,-1.5 c 2.775,0 4.5,0.958 4.5,2.5 0,1.542 -1.725,2.5 -4.5,2.5 C 14.09,3.5 12.695,3.038 12,2.252 11.305,3.038 9.91,3.5 8,3.5 6.09,3.5 4.695,3.038 4,2.252 3.305,3.038 1.91,3.5 0,3.5 -2.775,3.5 -4.5,2.542 -4.5,1 -4.5,0.398 -4.23,-0.109 -3.747,-0.512 -3.833,-0.51 -3.911,-0.5 -4,-0.5 -4.98,-0.5 -5.82,-0.625 -6.509,-0.848 -6.556,0.906 -7.398,2.469 -8.857,3.655 -8.624,4.406 -8.5,5.195 -8.5,6 c 0,1.668 -0.515,3.217 -1.391,4.5 h 40.555 c 1.485,0 2.848,-0.823 3.54,-2.137 L 41.5,-5.5 Z m -48,-64 h -64 v 20 h 64 z m -68,24 v -24 h -20 v 56 h 112 v -56 h -20 v 24 z m 100,-36 h -4 -120 -4 l 4,4 4,4 h 112 l 4,-4 z M -94.5,6 c 0,2.209 1.791,4 4,4 2.209,0 4,-1.791 4,-4 0,-1.477 -0.81,-2.752 -2,-3.445 v -0.73 c 2.329,-0.412 4,-1.519 4,-2.825 0,-1.657 -2.687,-3 -6,-3 -3.313,0 -6,1.343 -6,3 0,1.306 1.671,2.413 4,2.825 v 0.73 c -1.19,0.693 -2,1.968 -2,3.445 m 74,0 c 0,2.209 1.791,4 4,4 2.209,0 4,-1.791 4,-4 0,-1.477 -0.81,-2.752 -2,-3.445 v -0.73 c 2.329,-0.412 4,-1.519 4,-2.825 0,-1.657 -2.687,-3 -6,-3 -3.313,0 -6,1.343 -6,3 0,1.306 1.671,2.413 4,2.825 v 0.73 c -1.19,0.693 -2,1.968 -2,3.445 m -68.963,96.5 h 2.963 32 4 28 4 32 2.37 l 13.037,-88 h -134.666 z m 2.963,16 v 8 c 0,4.418 3.582,8 8,8 h 24 v -28 h -32 z m 36,16 h 28 v -28 h -28 z m 32,0 h 24 c 4.418,0 8,-3.582 8,-8 v -8 -12 h -32 z M 45.04,-3.637 37.743,10.226 C 36.355,12.862 32.951,14.5 32.951,14.5 L 17.5,118.795 v 7.705 8 c 0,2.209 -1.791,4 -4,4 h -8 -24 -4 -28 -4 -24 -8 c -2.209,0 -4,-1.791 -4,-4 v -8 -7.633 L -109.827,14.5 c 0,0 -3.529,-1.638 -4.916,-4.274 l -7.297,-13.863 -0.46,-0.875 v -0.988 -16 c 0,-4.418 3.582,-8 8,-8 h 16 v -58.343 l -6.829,-6.829 -6.828,-6.828 h 9.657 128 9.657 l -6.829,6.828 -6.828,6.829 V -29.5 h 16 c 4.418,0 8,3.582 8,8 v 16 0.988 z" /></g></g></g></g></svg>