<?xml version="1.0" encoding="UTF-8" standalone="no"?>
<svg
   xmlns:dc="http://purl.org/dc/elements/1.1/"
   xmlns:cc="http://creativecommons.org/ns#"
   xmlns:rdf="http://www.w3.org/1999/02/22-rdf-syntax-ns#"
   xmlns:svg="http://www.w3.org/2000/svg"
   xmlns="http://www.w3.org/2000/svg"
   viewBox="0 0 320 192"
   height="192"
   width="320"
   xml:space="preserve"
   id="svg2"
   version="1.1"><metadata
     id="metadata8"><rdf:RDF><cc:Work
         rdf:about=""><dc:format>image/svg+xml</dc:format><dc:type
           rdf:resource="http://purl.org/dc/dcmitype/StillImage" /></cc:Work></rdf:RDF></metadata><defs
     id="defs6"><clipPath
       id="clipPath18"
       clipPathUnits="userSpaceOnUse"><path
         id="path16"
         d="M 0,256 H 256 V 0 H 0 Z" /></clipPath></defs><g
     transform="matrix(1.3333333,0,0,-1.3333333,-10.666666,266.66666)"
     id="g10"><g
       id="g12"><g
         clip-path="url(#clipPath18)"
         id="g14"><g
           transform="translate(224,130)"
           id="g20"><path
             id="path22"
             style="fill:#ffffff;fill-opacity:1;fill-rule:nonzero;stroke:none"
             d="M 0,0 C 0,-27.024 -1.381,-44.394 -2.534,-50 H -104 V 2 h 32 v -4 -4 h 4 32 4 v 4 4 H -0.003 C -0.002,1.338 0,0.674 0,0 m -189.466,-50 c -1.154,5.606 -2.534,22.976 -2.534,50 0,27.025 1.38,44.394 2.534,50 H -108 V 6 2 -50 Z M -36,2 v -4 h -32 v 4 4 4 h 32 V 6 Z M -2.534,50 C -1.469,44.821 -0.21,29.596 -0.024,6 H -32 v 4 4 h -4 -32 -4 V 10 6 h -32 V 50 Z M 0,54 h -104 -4 -84 c -2.209,0 -4,-24.177 -4,-54 0,-29.823 1.791,-54 4,-54 h 84 4 H 0 C 2.209,-54 4,-29.823 4,0 4,0.671 3.998,1.335 3.996,2 H 4 V 6 H 3.975 C 3.754,32.998 2.059,54 0,54" /></g><path
           id="path24"
           style="fill:#ffffff;fill-opacity:1;fill-rule:nonzero;stroke:none"
           d="m 84,168 h 28 v 4 H 84 Z" /><path
           id="path26"
           style="fill:#ffffff;fill-opacity:1;fill-rule:nonzero;stroke:none"
           d="m 84,160 h 28 v 4 H 84 Z" /><path
           id="path28"
           style="fill:#ffffff;fill-opacity:1;fill-rule:nonzero;stroke:none"
           d="m 84,152 h 28 v 4 H 84 Z" /><path
           id="path30"
           style="fill:#ffffff;fill-opacity:1;fill-rule:nonzero;stroke:none"
           d="m 84,144 h 28 v 4 H 84 Z" /><path
           id="path32"
           style="fill:#ffffff;fill-opacity:1;fill-rule:nonzero;stroke:none"
           d="m 84,136 h 28 v 4 H 84 Z" /><path
           id="path34"
           style="fill:#ffffff;fill-opacity:1;fill-rule:nonzero;stroke:none"
           d="m 84,128 h 28 v 4 H 84 Z" /><path
           id="path36"
           style="fill:#ffffff;fill-opacity:1;fill-rule:nonzero;stroke:none"
           d="m 84,120 h 28 v 4 H 84 Z" /><path
           id="path38"
           style="fill:#ffffff;fill-opacity:1;fill-rule:nonzero;stroke:none"
           d="m 84,112 h 28 v 4 H 84 Z" /><path
           id="path40"
           style="fill:#ffffff;fill-opacity:1;fill-rule:nonzero;stroke:none"
           d="m 84,104 h 28 v 4 H 84 Z" /><path
           id="path42"
           style="fill:#ffffff;fill-opacity:1;fill-rule:nonzero;stroke:none"
           d="m 84,96 h 28 v 4 H 84 Z" /><path
           id="path44"
           style="fill:#ffffff;fill-opacity:1;fill-rule:nonzero;stroke:none"
           d="m 84,88 h 28 v 4 H 84 Z" /><g
           transform="translate(244,180)"
           id="g46"><path
             id="path48"
             style="fill:#ffffff;fill-opacity:1;fill-rule:nonzero;stroke:none"
             d="m 0,0 h -4 v 12 h -12 v 4 H 0 Z m 0,-104 v -16 h -16 v 4 h 12 v 12 z M -224,8 H -8 v -120 h -216 z m 8,-128 h -16 v 16 h 4 v -12 h 12 z M -232,0 v 16 h 16 v -4 h -12 V 0 Z M 0,20 h -16 -4 v -4 -4 h -192 v 4 4 h -4 -16 -4 V 16 0 -4 h 4 4 v -96 h -4 -4 v -4 -16 -4 h 4 16 4 v 4 4 h 192 v -4 -4 h 4 16 4 v 4 16 4 H 0 -4 v 96 h 4 4 v 4 16 4 z" /></g></g></g></g></svg>