<?xml version="1.0" encoding="utf-8"?>
<!-- Generator: Adobe Illustrator 25.2.1, SVG Export Plug-In . SVG Version: 6.00 Build 0)  -->
<svg version="1.1" id="Layer_1" xmlns="http://www.w3.org/2000/svg" xmlns:xlink="http://www.w3.org/1999/xlink" x="0px" y="0px"
	 viewBox="0 0 3839 808.1" style="enable-background:new 0 0 3839 808.1;" xml:space="preserve">
<style type="text/css">
	.st0{fill:#00A336;}
	.st1{fill:#FF0000;}
	.st2{fill:#FFFFFF;}
	.st3{fill:#00FFFE;}
</style>
<g>
	<g>
		<path d="M225.9,425.5c-16.4-23.9-37.5-39-66.1-39c-27.5,0-53.8,22.7-53.8,53.5c0,79.9,175,46.6,175,205.8
			c0,95-55,162.4-145.1,162.4c-60.9,0-105.3-37.8-135.8-92.5l55.6-58.5c11.7,36.5,42.7,69.2,79.6,69.2c35.1,0,56.8-32.1,56.8-68.6
			c0-49.1-42.1-62.9-76.7-77.4C58.5,555.1,17,524.3,17,450.7c0-78.7,54.4-142.2,128.7-142.2c39.2,0,93.6,20.8,120.6,52.9
			L225.9,425.5z"/>
		<path d="M341.2,321h86v265.6c0,58.5,4.7,141,77.8,141c73.2,0,77.8-82.4,77.8-141V321h86v283.8c0,115.8-45.6,203.3-163.9,203.3
			c-118.2,0-163.9-87.5-163.9-203.3V321z"/>
		<path d="M833.4,795.5h-86V321h117c92.5,0,152.7,39.6,152.7,147.3c0,100.7-50.9,149.8-141,149.8h-42.7V795.5z M833.4,541.3H851
			c50.9,0,78.4-12,78.4-73.6c0-61-32.8-69.9-80.8-69.9h-15.2V541.3z"/>
		<path d="M1160,401.6V506H1297v80.5H1160V715h142.2v80.5H1074V321h228.2v80.5H1160z"/>
		<path d="M1675.6,795.5h-104.2l-107.1-191.3h-1.2v191.3h-86V321h116.5c87.2,0,147.5,41.5,147.5,142.9c0,60.4-31,120.8-90.1,131.5
			L1675.6,795.5z M1463.2,539.4h11.1c47.4,0,80.8-15.1,80.8-73c0-58.5-34.5-69.9-80.2-69.9h-11.7V539.4z"/>
		<path d="M1879.9,640.7h1.2l98.3-319.7h92.5l-171.5,487.1h-50.3L1681.5,321h92.5L1879.9,640.7z"/>
		<path d="M2198.9,795.5h-86V321h86V795.5z"/>
		<path d="M2486.8,425.5c-16.4-23.9-37.5-39-66.1-39c-27.5,0-53.8,22.7-53.8,53.5c0,79.9,175,46.6,175,205.8
			c0,95-55,162.4-145.1,162.4c-60.9,0-105.3-37.8-135.8-92.5l55.6-58.5c11.7,36.5,42.7,69.2,79.6,69.2c35.1,0,56.8-32.1,56.8-68.6
			c0-49.1-42.1-62.9-76.7-77.4c-56.8-25.2-98.3-56-98.3-129.6c0-78.7,54.4-142.2,128.7-142.2c39.2,0,93.6,20.8,120.6,52.9
			L2486.8,425.5z"/>
		<path d="M2690.5,795.5h-86V321h86V795.5z"/>
		<path d="M3246,308.4h62l232.3,331.6h1.2V321h86v483.9h-62l-232.3-331.6h-1.2v322.2h-86V308.4z"/>
		<path d="M2842.9,598.4c-2.9-15-4.3-30.1-4.3-44.5c0-76.8,48-154.2,129.3-154.2c81.3,0,129.3,77.4,129.3,154.2
			c0,14.5-1.4,29.6-4.3,44.5l57.2,104c23.3-40.7,36.1-90.5,36.1-144.7c0-141-86.6-249.2-218.3-249.2
			c-131.7,0-218.3,108.2-218.3,249.2c0,54.2,12.8,104,36.1,144.7L2842.9,598.4z"/>
		<polygon class="st1" points="2967.9,465.7 2786.6,795.5 3149.2,795.5 		"/>
	</g>
	<g>
		<path d="M3704.3,314.4h54.5v10.9h-21.4v61.4h-11.8v-61.4h-21.3V314.4z"/>
		<path d="M3769.2,314.4h16.6l18.6,56.6h0.2l18.1-56.6h16.4v72.3h-11.2V331h-0.2l-18.7,55.8h-9.7l-18.7-55.8h-0.2v55.8h-11.2V314.4z
			"/>
	</g>
	<g>
		<g>
			<polygon points="1623.9,0 1545.5,0 1579.8,104.7 			"/>
		</g>
		<polyline points="1529.5,182.7 1600.1,14.9 1610.8,31.2 1605.1,44.6 1540.1,199.2 		"/>
		<polyline points="1389.6,230.2 1480.1,14.9 1490.8,31.2 1407.1,230.2 		"/>
		<g>
			<polygon points="1303.2,0 1378.6,230.2 1389.6,230.2 1437.1,117.2 1398.7,0 			"/>
		</g>
		<polygon points="1527,230.2 1565.4,139 1519.9,0 1424.3,0 1499.8,230.2 		"/>
		<polygon points="2268.7,25.5 1656.5,25.5 1667.2,0 2268.7,0 		"/>
		<polygon points="2268.7,230.2 1570.4,230.2 1581.1,204.7 2268.7,204.7 		"/>
		<g>
			<path d="M1652.5,51h-6.8c0,0-4.2,10-4.2,10l-49.1,118.3h47v-6.8l-11.1-6.2c-2.9-1.6-4.6-4.6-4.6-7.9l0-3.2l27.2,0l12.6,24.1h59.2
				L1652.5,51z M1626.4,139l7.3-17.2l9,17.2H1626.4z"/>
		</g>
		<g>
			<path d="M1882,51h-6.8c0,0-4.2,10-4.2,10L1822,179.2h47v-6.8l-11.1-6.2c-2.9-1.6-4.6-4.6-4.6-7.9l0-3.2l27.2,0l12.6,24.1h59.2
				L1882,51z M1855.9,139l7.3-17.2l9,17.2H1855.9z"/>
		</g>
		<g>
			<path d="M2171.2,51h-6.8c0,0-4.2,10-4.2,10l-49.1,118.3h47v-6.8l-11.1-6.2c-2.9-1.6-4.6-4.6-4.6-7.9l0-3.2l27.2,0l12.6,24.1h59.2
				L2171.2,51z M2145,139l7.3-17.2l9,17.2H2145z"/>
		</g>
		<path d="M1720.8,51h-16.1v16.1v28h16.1c0-12.1,7.2-20,12.6-24.2c3.1-2.5,7-3.8,11-3.8h0v112.1h52.6V67.1l0,0c4,0,7.9,1.3,11,3.8
			c5.4,4.2,12.6,12.1,12.6,24.2h16.1v-28V51.3V51H1720.8z"/>
		<path d="M2065.3,104.7h-3c14.8,0,26.9-4.5,26.9-26.9v0c0-22.4-12-26.9-26.9-26.9h-25.7v0h-68.7v15.5v0.6v112.1h52.6v-66.4h16.1
			v66.4h59.1v-34.9C2095.6,127.5,2082.1,104.7,2065.3,104.7z M2020.4,67.1h16.1v29.6h-16.1V67.1z"/>
		<g>
			<path d="M2256,54h21.6c4.6,0,8.4,1.3,11.3,3.8c3.5,2.9,5.3,6.9,5.5,12.2c-0.1,7.8-3.7,13-10.7,15.8l12.8,25.4h-10l-11.5-24.4
				h-10.7v24.4h-8.4V54z M2264.4,79h12.7c3.1-0.1,5.5-1,7.1-2.8c1.5-1.7,2.3-3.8,2.3-6.3c-0.1-3-1-5.2-2.8-6.5
				c-1.4-1.2-3.5-1.8-6.2-1.8h-13.2V79z"/>
		</g>
		<path d="M2273.3,42.7c22.3,0,40.5,18.2,40.5,40.5s-18.2,40.5-40.5,40.5c-22.3,0-40.5-18.2-40.5-40.5S2251,42.7,2273.3,42.7
			 M2273.3,32.1c-28.2,0-51.1,22.9-51.1,51.1s22.9,51.1,51.1,51.1c28.2,0,51.1-22.9,51.1-51.1S2301.5,32.1,2273.3,32.1L2273.3,32.1z
			"/>
	</g>
</g>
</svg>
