<?xml version="1.0" encoding="utf-8"?>
<!-- Generator: Adobe Illustrator 26.0.1, SVG Export Plug-In . SVG Version: 6.00 Build 0)  -->
<svg version="1.1" id="Layer_1" xmlns="http://www.w3.org/2000/svg" xmlns:xlink="http://www.w3.org/1999/xlink" x="0px" y="0px"
	 viewBox="0 0 3839 1000.4" style="enable-background:new 0 0 3839 1000.4;" xml:space="preserve">
<style type="text/css">
	.st0{fill:#333333;}
	.st1{fill:#111111;}
	.st2{fill:#FFFFFF;}
	.st3{fill:#CCCCCC;}
</style>
<g>
	<path class="st0" d="M2638,471.5l-148,169.1c-8.2,9.4-22.4,10.3-31.8,2.1c-9.4-8.2-10.3-22.4-2.1-31.8l122.1-139.5h-8.8h-111.1
		h-68.4v514.4h179.5V651h110.7l158.4-179.5H2638z"/>
	<path class="st0" d="M3270,722.1c0-55.3-16.8-106.8-45.5-149.5L3062,758.1l-9.5,10.9h-0.1c-12.6,13.6-30.6,22.1-50.5,22.1
		c-8.7,0-16.9-1.6-24.6-4.5l85.2-97.3l0,0l133.3-152.2c-48.8-51.1-117.6-83-193.9-83c-148.1,0-268.1,120-268.1,268.1
		s120,268.1,268.1,268.1C3150,990.1,3270,870.1,3270,722.1z M2933,722.1c0-38.1,30.9-69,69-69c9.7,0,19,2,27.4,5.7l-86.5,98.8
		C2936.6,747.2,2933,735.1,2933,722.1z"/>
	<path class="st0" d="M1311.4,758.1l-9.5,10.9h-0.1c-12.6,13.6-30.6,22.1-50.5,22.1c-8.7,0-16.9-1.6-24.6-4.5l85.2-97.3l0,0
		l133.3-152.2c-48.8-51.1-117.6-83-193.9-83c-148.1,0-268.1,120-268.1,268.1s120,268.1,268.1,268.1s268.1-120,268.1-268.1
		c0-55.3-16.8-106.8-45.5-149.5L1311.4,758.1z M1182.3,722.1c0-38.1,30.9-69,69-69c9.7,0,19,2,27.4,5.7l-86.5,98.8
		C1185.9,747.2,1182.3,735.1,1182.3,722.1z"/>
	<path class="st0" d="M2291.2,292V0l-406.1,465c-24.1-7.1-49.7-11-76.2-11c-148.1,0-268.1,120-268.1,268.1s120,268.1,268.1,268.1
		s268.1-120,268.1-268.1c0-55.3-16.8-106.8-45.5-149.5L1869,758.1l-9.5,10.9h-0.1c-12.6,13.6-30.6,22.1-50.5,22.1
		c-38.1,0-69-30.9-69-69s30.9-69,69-69c26.2,0,49,14.6,60.6,36.1L2002.8,537c-27.3-28.6-60.8-51.1-98.4-65.5h155.7l110.3-126
		c8.2-9.4,22.4-10.3,31.8-2.1l0,0c9.4,8.2,10.3,22.4,2.1,31.8l-84.3,96.3l0,0l-9.1,10.4v503.9h179.5V471.5h99.5L2548.3,292H2291.2z"
		/>
	<path class="st0" d="M3839,471.5h-209.8l-148.1,169.1c-8.2,9.4-22.4,10.3-31.8,2.1c-9.4-8.2-10.3-22.4-2.1-31.8l122.1-139.5h-392.8
		L3402.9,730L3179,985.8h209.8l145.6-166.3c8.2-9.4,22.4-10.3,31.8-2.1c9.4,8.2,10.3,22.4,2.1,31.8l-119.7,136.7h388l-224-255.9
		L3839,471.5z"/>
	<path class="st1" d="M942.6,292l-347,396.3c-11.9,13.6-32.5,14.9-46.1,3.1c-13.6-11.9-14.9-32.5-3.1-46.1L855.8,292H0l620.1,708.4
		L1240.3,292H942.6z"/>
</g>
</svg>
