<?xml version="1.0" encoding="utf-8"?>
<!-- Generator: Adobe Illustrator 25.0.0, SVG Export Plug-In . SVG Version: 6.00 Build 0)  -->
<svg version="1.1" id="Layer_1" xmlns="http://www.w3.org/2000/svg" xmlns:xlink="http://www.w3.org/1999/xlink" x="0px" y="0px"
	 viewBox="0 0 3840 1034.5" style="enable-background:new 0 0 3840 1034.5;" xml:space="preserve">
<style type="text/css">
	.st0{fill:#FFFFFF;}
	.st1{fill:#D70101;}
	.st2{fill:#F48400;}
	.st3{fill:#F1D801;}
	.st4{fill:#4ABB1F;}
	.st5{fill:#246CD7;}
</style>
<g>
	<path d="M3322.8,0H1806h-159.8h-1129C231.6,0,0,231.6,0,517.2v0c0,285.7,231.6,517.2,517.2,517.2h1129H1806h1516.8
		c285.7,0,517.2-231.6,517.2-517.2v0C3840,231.6,3608.4,0,3322.8,0z"/>
	<path class="st1" d="M3473,213.2h-518.2V103.7H3473c30.2,0,54.7,24.5,54.7,54.7v0C3527.8,188.7,3503.3,213.2,3473,213.2z"/>
	<path class="st2" d="M3641,392.3h-686.2V282.8H3641c30.2,0,54.7,24.5,54.7,54.7v0C3695.7,367.8,3671.2,392.3,3641,392.3z"/>
	<path class="st3" d="M3681.7,461.9H3217l-62.9,109.5h527.6c30.2,0,54.7-24.5,54.7-54.7C3736.4,486.4,3711.9,461.9,3681.7,461.9z"/>
	<path class="st4" d="M3641,641h-526.8l-62.9,109.5H3641c30.2,0,54.7-24.5,54.7-54.7l0,0C3695.7,665.5,3671.2,641,3641,641z"/>
	<path class="st5" d="M3473,820.1h-519.4v109.5H3473c30.2,0,54.7-24.5,54.7-54.7C3527.8,844.6,3503.3,820.1,3473,820.1z"/>
	<path class="st0" d="M3074.2,572.2h-189.5V103.7h-176.1l-449.5,468.4v0l0,0v176.1h449.5v181.3h176.1V748.3h88.4L3074.2,572.2z
		 M2503.1,572.2l205.4-214.1v214.1H2503.1z"/>
	<path class="st0" d="M1975.4,419.7h-240.9c-37.7,0-74.5,12-104.9,34.2V328c0-26.6,21.6-48.2,48.2-48.2h306.9
		c26.6,0,48.2,21.6,48.2,48.2v9.3h176.1c0-129-104.6-233.5-233.5-233.5H1687c-129,0-233.5,104.6-233.5,233.5v353.6
		c0,129,104.6,233.5,233.5,233.5h288.4c129,0,233.5-104.6,233.5-233.5v-37.6C2208.9,524.3,2104.4,419.7,1975.4,419.7z M2032.8,700.1
		c0,26.6-21.6,48.2-48.2,48.2h-306.9c-26.6,0-48.2-21.6-48.2-48.2V644c0-26.6,21.6-48.2,48.2-48.2h306.9c26.6,0,48.2,21.6,48.2,48.2
		V700.1z"/>
	<path class="st5" d="M767.4,846.4c-7.5-8.5-14.6-17.3-21.5-26.2H367c-30.2,0-54.7,24.5-54.7,54.7c0,30.2,24.5,54.7,54.7,54.7h500.1
		C830.2,907.1,796.8,879.4,767.4,846.4z"/>
	<path class="st4" d="M661.5,641H199c-30.2,0-54.7,24.5-54.7,54.7l0,0c0,30.2,24.5,54.7,54.7,54.7h503
		C684.4,716.2,670.8,679.4,661.5,641z"/>
	<path class="st3" d="M646.8,516.7c0-18.5,1-36.7,2.9-54.8H158.3c-30.2,0-54.7,24.5-54.7,54.7c0,30.2,24.5,54.7,54.7,54.7h491.3
		C647.8,553.4,646.8,535.1,646.8,516.7z"/>
	<path class="st2" d="M702,282.8H199c-30.2,0-54.7,24.5-54.7,54.7l0,0c0,30.2,24.5,54.7,54.7,54.7h462.5
		C670.8,353.9,684.4,317.2,702,282.8z"/>
	<path class="st1" d="M767.4,187c29.4-33,62.8-60.8,99.7-83.3H367c-30.2,0-54.7,24.5-54.7,54.7c0,30.2,24.5,54.7,54.7,54.7h379
		C752.8,204.2,759.9,195.4,767.4,187z"/>
	<path class="st0" d="M1128.6,753.5L1128.6,753.5c-315.8,0-315.8-473.6,0-473.6v0h223.7l101.1-176.1h-324.8
		c-550.6,0-550.6,825.9,0,825.9h324.8l-101.1-176.1H1128.6z"/>
</g>
</svg>
