<?xml version="1.0" encoding="utf-8"?>
<!-- Generator: Adobe Illustrator 25.0.0, SVG Export Plug-In . SVG Version: 6.00 Build 0)  -->
<svg version="1.1" id="Layer_1" xmlns="http://www.w3.org/2000/svg" xmlns:xlink="http://www.w3.org/1999/xlink" x="0px" y="0px"
	 viewBox="0 0 3840 472.3" style="enable-background:new 0 0 3840 472.3;" xml:space="preserve">
<style type="text/css">
	.st0{fill:#FFE900;}
	.st1{fill:#FFFFFF;}
</style>
<g>
	<g>
		<path class="st0" d="M3063.1,171.5h-229.7h-33.7h-117.3c-25.7,0-46.5,20.8-46.5,46.5v28v18.5v156.9c0,25.7,20.8,46.5,46.5,46.5
			c25.7,0,46.5-20.8,46.5-46.5V264.5h70.8h26.5v156.9c0,25.7,20.8,46.5,46.5,46.5c25.7,0,46.5-20.8,46.5-46.5V264.5h97.3v156.9
			c0,25.7,20.8,46.5,46.5,46.5c25.7,0,46.5-20.8,46.5-46.5V264.5V250v-32C3109.7,192.3,3088.8,171.5,3063.1,171.5z"/>
		<path class="st0" d="M3613.9,171.5h-190.3c-25.7,0-46.5,20.8-46.5,46.5v28v18.5v156.9c0,25.7,20.8,46.5,46.5,46.5
			c25.7,0,46.5-20.8,46.5-46.5V264.5h97.3v156.9c0,25.7,20.8,46.5,46.5,46.5c25.7,0,46.5-20.8,46.5-46.5V264.5V250v-32
			C3660.4,192.3,3639.5,171.5,3613.9,171.5z"/>
		<path class="st0" d="M3243.3,174.1c-25.7,0-46.5,20.8-46.5,46.5c0,25.7,20.8,46.5,46.5,46.5c25.7,0,46.5-20.8,46.5-46.5
			C3289.8,194.9,3269,174.1,3243.3,174.1z"/>
		<path class="st0" d="M3793.5,267.1c25.7,0,46.5-20.8,46.5-46.5c0-25.7-20.8-46.5-46.5-46.5c-25.7,0-46.5,20.8-46.5,46.5
			C3747,246.3,3767.8,267.1,3793.5,267.1z"/>
		<path class="st0" d="M3243.3,297.9c-25.7,0-46.5,20.8-46.5,46.5v77c0,25.7,20.8,46.5,46.5,46.5c25.7,0,46.5-20.8,46.5-46.5v-77
			C3289.8,318.7,3269,297.9,3243.3,297.9z"/>
		<path class="st0" d="M3793.5,297.9c-25.7,0-46.5,20.8-46.5,46.5v77c0,25.7,20.8,46.5,46.5,46.5c25.7,0,46.5-20.8,46.5-46.5v-77
			C3840,318.7,3819.2,297.9,3793.5,297.9z"/>
	</g>
	<g>
		<path d="M0,73.4h124.7c119.7,0,175.8,40.4,175.8,128.6c0,79.2-57.9,126.4-155.6,126.4h-40.4v137.1H0V73.4z M104.5,254.3h27
			c36,0,64.6-12.9,64.6-53.9c0-39.9-28.6-52.8-64.6-52.8h-27V254.3z"/>
		<path d="M333.6,319.5c0-97.2,66.2-153.4,153.1-153.4c86.9,0,153.2,56.2,153.2,153.4c0,96.6-66.2,152.8-153.2,152.8
			C399.8,472.3,333.6,416.1,333.6,319.5z M545.8,319.5c0-43.8-17.2-82.6-59.1-82.6s-59.1,38.8-59.1,82.6c0,43.3,17.2,82,59.1,82
			S545.8,362.7,545.8,319.5z"/>
		<path d="M689,44.2h91v251.7h1l75.8-123h99.6l-91.5,134.3l99.1,158.4H853.8L781,320.6h-1v144.9h-91V44.2z"/>
		<path d="M1316.8,172.9h82.9v53.9h1c18.2-42.1,54.6-60.7,96-60.7c37.4,0,68.2,18,82.4,56.2c21.2-39.3,56.1-56.2,93.5-56.2
			c75.8,0,93,47.7,93,127v172.5h-91V308.3c0-33.1-10.6-57.9-36.4-57.9c-32.3,0-51.6,28.6-51.6,91.6v123.6h-91V308.3
			c0-33.1-10.6-57.9-36.4-57.9c-32.3,0-51.6,28.6-51.6,91.6v123.6h-91V172.9z"/>
		<path d="M1814.8,319.5c0-97.2,66.2-153.4,153.1-153.4c86.9,0,153.2,56.2,153.2,153.4c0,96.6-66.2,152.8-153.2,152.8
			C1881,472.3,1814.8,416.1,1814.8,319.5z M2027.1,319.5c0-43.8-17.2-82.6-59.1-82.6s-59.1,38.8-59.1,82.6c0,43.3,17.2,82,59.1,82
			S2027.1,362.7,2027.1,319.5z"/>
		<path d="M2170.2,172.9h82.9v53.9h1c18.2-42.1,54.6-60.7,96-60.7c71.8,0,100.6,56.2,100.6,116.8v182.6h-91V324
			c0-55-17.2-73.6-42-73.6c-37.4,0-56.6,28.6-56.6,91.6v123.6h-91V172.9z"/>
		<path d="M1082.3,348.7c5.1,40.4,32.9,56.2,77.3,56.2c24.8,0,53.1-6.2,80.4-22.5v71.3c-29.3,12.9-62.7,18.5-96.6,18.5
			c-86.9,0-153.1-56.7-153.1-153.4s59.1-152.8,141-152.8c97.5,0,132.9,77,132.9,164v18.5H1082.3z M1182.3,291.4
			c0-33.7-14.2-61.2-50.6-61.2c-32.8,0-48.5,27.5-50.5,61.2H1182.3z"/>
		<path d="M1026.6,84.5l22.3,57.6c4.6-1.1,163.2-70.2,163.2-70.2L1180.7,0L1026.6,84.5z"/>
	</g>
</g>
</svg>
