<?xml version="1.0" encoding="UTF-8"?>
<svg xmlns="http://www.w3.org/2000/svg" xmlns:xlink="http://www.w3.org/1999/xlink" width="26px" height="30px" viewBox="0 0 26 29" version="1.1">
<g id="surface1">
<path style=" stroke:none;fill-rule:nonzero;fill:rgb(44.705882%,53.72549%,85.490196%);fill-opacity:1;" d="M 22.953125 0.0234375 L 3.046875 0.0234375 C 1.367188 0.0234375 0 1.355469 0 3.003906 L 0 22.578125 C 0 24.226562 1.367188 25.558594 3.046875 25.558594 L 19.894531 25.558594 L 19.105469 22.882812 L 21.007812 24.605469 L 22.804688 26.226562 L 26 28.976562 L 26 3.003906 C 26 1.355469 24.632812 0.0234375 22.953125 0.0234375 Z M 17.21875 18.929688 C 17.21875 18.929688 16.683594 18.308594 16.238281 17.757812 C 18.183594 17.222656 18.929688 16.035156 18.929688 16.035156 C 18.320312 16.425781 17.738281 16.699219 17.21875 16.886719 C 16.476562 17.191406 15.761719 17.394531 15.066406 17.511719 C 13.640625 17.773438 12.332031 17.699219 11.21875 17.496094 C 10.371094 17.335938 9.640625 17.105469 9.03125 16.875 C 8.691406 16.742188 8.320312 16.585938 7.949219 16.382812 C 7.902344 16.351562 7.859375 16.339844 7.816406 16.308594 C 7.792969 16.296875 7.773438 16.285156 7.753906 16.265625 C 7.488281 16.121094 7.339844 16.019531 7.339844 16.019531 C 7.339844 16.019531 8.050781 17.179688 9.9375 17.726562 C 9.492188 18.277344 8.945312 18.929688 8.945312 18.929688 C 5.660156 18.828125 4.414062 16.730469 4.414062 16.730469 C 4.414062 12.066406 6.550781 8.289062 6.550781 8.289062 C 8.691406 6.726562 10.726562 6.769531 10.726562 6.769531 L 10.875 6.941406 C 8.203125 7.695312 6.96875 8.839844 6.96875 8.839844 C 6.96875 8.839844 7.292969 8.664062 7.84375 8.417969 C 9.433594 7.738281 10.695312 7.550781 11.21875 7.507812 C 11.304688 7.492188 11.378906 7.480469 11.46875 7.480469 C 12.464844 7.351562 13.472656 7.34375 14.472656 7.449219 C 15.882812 7.609375 17.398438 8.015625 18.941406 8.839844 C 18.941406 8.839844 17.769531 7.753906 15.242188 7 L 15.453125 6.769531 C 15.453125 6.769531 17.488281 6.726562 19.625 8.289062 C 19.625 8.289062 21.765625 12.066406 21.765625 16.730469 C 21.765625 16.730469 20.503906 18.828125 17.21875 18.929688 Z M 10.3125 12.167969 C 9.464844 12.167969 8.796875 12.894531 8.796875 13.777344 C 8.796875 14.660156 9.480469 15.382812 10.3125 15.382812 C 11.15625 15.382812 11.828125 14.660156 11.828125 13.777344 C 11.839844 12.894531 11.15625 12.167969 10.3125 12.167969 M 15.734375 12.167969 C 14.886719 12.167969 14.21875 12.894531 14.21875 13.777344 C 14.21875 14.660156 14.902344 15.382812 15.734375 15.382812 C 16.582031 15.382812 17.25 14.660156 17.25 13.777344 C 17.25 12.894531 16.582031 12.167969 15.734375 12.167969 "/>
</g>
</svg>
