<?xml version="1.0" encoding="UTF-8"?>
<svg xmlns="http://www.w3.org/2000/svg" xmlns:xlink="http://www.w3.org/1999/xlink" width="25px" height="28px" viewBox="0 0 25 28" version="1.1">
<g id="surface1">
<path style=" stroke:none;fill-rule:nonzero;fill:rgb(44.705882%,53.72549%,85.490196%);fill-opacity:1;" d="M 22.070312 0.488281 L 2.929688 0.488281 C 1.3125 0.488281 0 1.734375 0 3.269531 L 0 21.539062 C 0 23.078125 1.3125 24.320312 2.929688 24.320312 L 19.128906 24.320312 L 18.371094 21.824219 L 20.203125 23.433594 L 21.929688 24.945312 L 25 27.511719 L 25 3.269531 C 25 1.734375 23.6875 0.488281 22.070312 0.488281 Z M 16.558594 18.132812 C 16.558594 18.132812 16.042969 17.558594 15.613281 17.039062 C 17.484375 16.542969 18.199219 15.429688 18.199219 15.429688 C 17.613281 15.796875 17.054688 16.050781 16.558594 16.226562 C 15.84375 16.511719 15.15625 16.699219 14.488281 16.8125 C 13.117188 17.054688 11.855469 16.988281 10.785156 16.796875 C 9.972656 16.648438 9.269531 16.433594 8.683594 16.21875 C 8.359375 16.089844 8 15.945312 7.644531 15.757812 C 7.597656 15.726562 7.554688 15.71875 7.515625 15.6875 C 7.492188 15.675781 7.476562 15.667969 7.457031 15.648438 C 7.199219 15.515625 7.058594 15.417969 7.058594 15.417969 C 7.058594 15.417969 7.742188 16.503906 9.558594 17.011719 C 9.125 17.527344 8.601562 18.132812 8.601562 18.132812 C 5.441406 18.039062 4.242188 16.082031 4.242188 16.082031 C 4.242188 11.730469 6.300781 8.203125 6.300781 8.203125 C 8.359375 6.746094 10.316406 6.785156 10.316406 6.785156 L 10.457031 6.941406 C 7.886719 7.648438 6.703125 8.71875 6.703125 8.71875 C 6.703125 8.71875 7.011719 8.554688 7.542969 8.324219 C 9.070312 7.6875 10.285156 7.511719 10.785156 7.472656 C 10.871094 7.460938 10.941406 7.449219 11.027344 7.449219 C 11.984375 7.328125 12.953125 7.320312 13.917969 7.421875 C 15.269531 7.570312 16.730469 7.949219 18.214844 8.71875 C 18.214844 8.71875 17.085938 7.703125 14.65625 7 L 14.855469 6.785156 C 14.855469 6.785156 16.816406 6.746094 18.871094 8.203125 C 18.871094 8.203125 20.929688 11.730469 20.929688 16.082031 C 20.929688 16.082031 19.714844 18.039062 16.558594 18.132812 Z M 9.917969 11.824219 C 9.101562 11.824219 8.460938 12.5 8.460938 13.328125 C 8.460938 14.148438 9.117188 14.824219 9.917969 14.824219 C 10.730469 14.824219 11.371094 14.148438 11.371094 13.328125 C 11.386719 12.5 10.730469 11.824219 9.917969 11.824219 M 15.128906 11.824219 C 14.316406 11.824219 13.671875 12.5 13.671875 13.328125 C 13.671875 14.148438 14.328125 14.824219 15.128906 14.824219 C 15.945312 14.824219 16.589844 14.148438 16.589844 13.328125 C 16.589844 12.5 15.945312 11.824219 15.128906 11.824219 "/>
</g>
</svg>
