<?xml version="1.0" encoding="UTF-8" standalone="no"?>
<svg
   xmlns:dc="http://purl.org/dc/elements/1.1/"
   xmlns:cc="http://creativecommons.org/ns#"
   xmlns:rdf="http://www.w3.org/1999/02/22-rdf-syntax-ns#"
   xmlns:svg="http://www.w3.org/2000/svg"
   xmlns="http://www.w3.org/2000/svg"
   viewBox="0 0 320 202.66665"
   height="202.66666"
   width="320"
   xml:space="preserve"
   id="svg2"
   version="1.1"><metadata
     id="metadata8"><rdf:RDF><cc:Work
         rdf:about=""><dc:format>image/svg+xml</dc:format><dc:type
           rdf:resource="http://purl.org/dc/dcmitype/StillImage" /></cc:Work></rdf:RDF></metadata><defs
     id="defs6"><clipPath
       id="clipPath18"
       clipPathUnits="userSpaceOnUse"><path
         id="path16"
         d="M 0,256 H 256 V 0 H 0 Z" /></clipPath></defs><g
     transform="matrix(1.3333333,0,0,-1.3333333,-10.666666,271.99999)"
     id="g10"><g
       id="g12"><g
         clip-path="url(#clipPath18)"
         id="g14"><g
           transform="translate(244,72)"
           id="g20"><path
             id="path22"
             style="fill:#ffffff;fill-opacity:1;fill-rule:nonzero;stroke:none"
             d="m 0,0 h -232 v 123.669 l 0.055,-0.327 L -228,99.669 V 72 68 h 4 216 4 v 4 27.669 L -0.055,123.342 0,123.669 Z M 0,-16 H -232 V -4 H 0 Z m -84,94 v 12 c 0,3.309 -2.691,6 -6,6 h 18 20 20 24 V 72 h -24 -20 -20 -18 c 3.309,0 6,2.691 6,6 m -64,0 v 12 c 0,1.104 0.896,2 2,2 h 56 c 1.104,0 2,-0.896 2,-2 V 78 c 0,-1.104 -0.896,-2 -2,-2 h -56 c -1.104,0 -2,0.896 -2,2 m 2,-6 h -18 -20 -20 -20 v 24 h 20 20 20 18 c -3.309,0 -6,-2.691 -6,-6 V 78 c 0,-3.309 2.691,-6 6,-6 m -78,28 -4,24 H -4 l -4,-24 m 8,32 h -232 -4 V 128 0 -4 -16 -20 h 4 232 4 v 4 12 4 128 4 z" /></g><path
           id="path24"
           style="fill:#ffffff;fill-opacity:1;fill-rule:nonzero;stroke:none"
           d="m 20,124 h 216 v 4 H 20 Z" /><path
           id="path26"
           style="fill:#ffffff;fill-opacity:1;fill-rule:nonzero;stroke:none"
           d="m 20,132 h 216 v 4 H 20 Z" /><path
           id="path28"
           style="fill:#ffffff;fill-opacity:1;fill-rule:nonzero;stroke:none"
           d="m 20,116 h 216 v 4 H 20 Z" /><path
           id="path30"
           style="fill:#ffffff;fill-opacity:1;fill-rule:nonzero;stroke:none"
           d="m 20,108 h 216 v 4 H 20 Z" /><path
           id="path32"
           style="fill:#ffffff;fill-opacity:1;fill-rule:nonzero;stroke:none"
           d="m 20,100 h 216 v 4 H 20 Z" /><path
           id="path34"
           style="fill:#ffffff;fill-opacity:1;fill-rule:nonzero;stroke:none"
           d="m 20,92 h 216 v 4 H 20 Z" /><path
           id="path36"
           style="fill:#ffffff;fill-opacity:1;fill-rule:nonzero;stroke:none"
           d="m 20,84 h 216 v 4 H 20 Z" /><path
           id="path38"
           style="fill:#ffffff;fill-opacity:1;fill-rule:nonzero;stroke:none"
           d="m 20,76 h 216 v 4 H 20 Z" /><g
           transform="translate(36,160)"
           id="g40"><path
             id="path42"
             style="fill:#ffffff;fill-opacity:1;fill-rule:nonzero;stroke:none"
             d="M 0,0 C 0,2.2 1.8,4 4,4 6.2,4 8,2.2 8,0 v -8 c 0,-2.2 -1.8,-4 -4,-4 -2.2,0 -4,1.8 -4,4 z m -4,0 v -8 c 0,-4.411 3.589,-8 8,-8 4.411,0 8,3.589 8,8 V 0 C 12,4.411 8.411,8 4,8 -0.411,8 -4,4.411 -4,0" /></g><g
           transform="translate(40,158)"
           id="g44"><path
             id="path46"
             style="fill:#ffffff;fill-opacity:1;fill-rule:nonzero;stroke:none"
             d="M 0,0 C 1.104,0 2,0.896 2,2 2,3.104 1.104,4 0,4 -1.104,4 -2,3.104 -2,2 -2,0.896 -1.104,0 0,0" /></g><g
           transform="translate(56,160)"
           id="g48"><path
             id="path50"
             style="fill:#ffffff;fill-opacity:1;fill-rule:nonzero;stroke:none"
             d="M 0,0 C 0,2.2 1.8,4 4,4 6.2,4 8,2.2 8,0 v -8 c 0,-2.2 -1.8,-4 -4,-4 -2.2,0 -4,1.8 -4,4 z m -4,0 v -8 c 0,-4.411 3.589,-8 8,-8 4.411,0 8,3.589 8,8 V 0 C 12,4.411 8.411,8 4,8 -0.411,8 -4,4.411 -4,0" /></g><g
           transform="translate(60,158)"
           id="g52"><path
             id="path54"
             style="fill:#ffffff;fill-opacity:1;fill-rule:nonzero;stroke:none"
             d="M 0,0 C 1.104,0 2,0.896 2,2 2,3.104 1.104,4 0,4 -1.104,4 -2,3.104 -2,2 -2,0.896 -1.104,0 0,0" /></g><g
           transform="translate(76,160)"
           id="g56"><path
             id="path58"
             style="fill:#ffffff;fill-opacity:1;fill-rule:nonzero;stroke:none"
             d="M 0,0 C 0,2.2 1.8,4 4,4 6.2,4 8,2.2 8,0 v -8 c 0,-2.2 -1.8,-4 -4,-4 -2.2,0 -4,1.8 -4,4 z m -4,0 v -8 c 0,-4.411 3.589,-8 8,-8 4.411,0 8,3.589 8,8 V 0 C 12,4.411 8.411,8 4,8 -0.411,8 -4,4.411 -4,0" /></g><g
           transform="translate(80,150)"
           id="g60"><path
             id="path62"
             style="fill:#ffffff;fill-opacity:1;fill-rule:nonzero;stroke:none"
             d="M 0,0 C 1.104,0 2,0.896 2,2 2,3.104 1.104,4 0,4 -1.104,4 -2,3.104 -2,2 -2,0.896 -1.104,0 0,0" /></g><g
           transform="translate(168,160)"
           id="g64"><path
             id="path66"
             style="fill:#ffffff;fill-opacity:1;fill-rule:nonzero;stroke:none"
             d="M 0,0 C 0,2.2 1.8,4 4,4 6.2,4 8,2.2 8,0 v -8 c 0,-2.2 -1.8,-4 -4,-4 -2.2,0 -4,1.8 -4,4 z m -4,0 v -8 c 0,-4.411 3.589,-8 8,-8 4.411,0 8,3.589 8,8 V 0 C 12,4.411 8.411,8 4,8 -0.411,8 -4,4.411 -4,0" /></g><g
           transform="translate(172,150)"
           id="g68"><path
             id="path70"
             style="fill:#ffffff;fill-opacity:1;fill-rule:nonzero;stroke:none"
             d="M 0,0 C 1.104,0 2,0.896 2,2 2,3.104 1.104,4 0,4 -1.104,4 -2,3.104 -2,2 -2,0.896 -1.104,0 0,0" /></g><g
           transform="translate(188,160)"
           id="g72"><path
             id="path74"
             style="fill:#ffffff;fill-opacity:1;fill-rule:nonzero;stroke:none"
             d="M 0,0 C 0,2.2 1.8,4 4,4 6.2,4 8,2.2 8,0 v -8 c 0,-2.2 -1.8,-4 -4,-4 -2.2,0 -4,1.8 -4,4 z m -4,0 v -8 c 0,-4.411 3.589,-8 8,-8 4.411,0 8,3.589 8,8 V 0 C 12,4.411 8.411,8 4,8 -0.411,8 -4,4.411 -4,0" /></g><g
           transform="translate(192,158)"
           id="g76"><path
             id="path78"
             style="fill:#ffffff;fill-opacity:1;fill-rule:nonzero;stroke:none"
             d="M 0,0 C 1.104,0 2,0.896 2,2 2,3.104 1.104,4 0,4 -1.104,4 -2,3.104 -2,2 -2,0.896 -1.104,0 0,0" /></g><g
           transform="translate(208,160)"
           id="g80"><path
             id="path82"
             style="fill:#ffffff;fill-opacity:1;fill-rule:nonzero;stroke:none"
             d="M 0,0 C 0,2.2 1.8,4 4,4 6.2,4 8,2.2 8,0 v -8 c 0,-2.2 -1.8,-4 -4,-4 -2.2,0 -4,1.8 -4,4 z m -4,0 v -8 c 0,-4.411 3.589,-8 8,-8 4.411,0 8,3.589 8,8 V 0 C 12,4.411 8.411,8 4,8 -0.411,8 -4,4.411 -4,0" /></g><g
           transform="translate(212,158)"
           id="g84"><path
             id="path86"
             style="fill:#ffffff;fill-opacity:1;fill-rule:nonzero;stroke:none"
             d="M 0,0 C 1.104,0 2,0.896 2,2 2,3.104 1.104,4 0,4 -1.104,4 -2,3.104 -2,2 -2,0.896 -1.104,0 0,0" /></g></g></g></g></svg>