<?xml version="1.0" encoding="UTF-8" standalone="no"?>
<svg
   xmlns:dc="http://purl.org/dc/elements/1.1/"
   xmlns:cc="http://creativecommons.org/ns#"
   xmlns:rdf="http://www.w3.org/1999/02/22-rdf-syntax-ns#"
   xmlns:svg="http://www.w3.org/2000/svg"
   xmlns="http://www.w3.org/2000/svg"
   viewBox="0 0 319.93899 149.33333"
   height="149.33333"
   width="319.939"
   xml:space="preserve"
   id="svg2"
   version="1.1"><metadata
     id="metadata8"><rdf:RDF><cc:Work
         rdf:about=""><dc:format>image/svg+xml</dc:format><dc:type
           rdf:resource="http://purl.org/dc/dcmitype/StillImage" /></cc:Work></rdf:RDF></metadata><defs
     id="defs6"><clipPath
       id="clipPath18"
       clipPathUnits="userSpaceOnUse"><path
         id="path16"
         d="M 0,256 H 256 V 0 H 0 Z" /></clipPath></defs><g
     transform="matrix(1.3333333,0,0,-1.3333333,-10.697133,245.33333)"
     id="g10"><g
       id="g12"><g
         clip-path="url(#clipPath18)"
         id="g14"><g
           transform="translate(232.3086,184)"
           id="g20"><path
             id="path22"
             style="fill:#ffffff;fill-opacity:1;fill-rule:nonzero;stroke:none"
             d="m 0,0 h -2.455 -37.724 -0.639 l -0.608,-0.199 -10.709,-3.515 h -104.347 l -10.709,3.515 -0.608,0.199 h -0.639 -37.724 -2.455 l -1.112,-2.189 c -19.409,-38.221 -19.409,-69.401 0,-107.623 l 1.112,-2.188 h 2.455 37.724 0.639 l 0.608,0.199 10.709,3.515 h 104.347 l 10.709,-3.515 0.608,-0.199 H -40.179 -2.455 0 l 1.111,2.188 c 19.41,38.222 19.41,69.402 0,107.623 z m -2.455,-4 c 18.862,-37.143 18.862,-66.857 0,-104 h -37.724 l -11.316,3.714 H -157.122 L -168.438,-108 h -37.724 c -18.862,37.143 -18.862,66.857 0,104 h 37.724 l 11.316,-3.714 H -51.495 L -40.179,-4 h 37.724" /></g><g
           transform="translate(183.2842,180)"
           id="g24"><path
             id="path26"
             style="fill:#ffffff;fill-opacity:1;fill-rule:nonzero;stroke:none"
             d="m 0,0 h -2.578 -105.414 -2.579 l -1.065,-2.35 c -15.557,-34.344 -15.557,-64.969 10e-4,-99.301 l 1.064,-2.349 h 2.579 H -2.578 0 l 1.064,2.349 c 15.562,34.338 15.562,64.964 0,99.302 z m -2.578,-4 c 15.058,-33.231 15.058,-62.77 0,-96 h -105.414 c -15.059,33.23 -15.053,62.769 0,96 H -2.578" /></g><g
           transform="translate(169,162)"
           id="g28"><path
             id="path30"
             style="fill:#ffffff;fill-opacity:1;fill-rule:nonzero;stroke:none"
             d="m 0,0 h -82 c -2.757,0 -5,-2.243 -5,-5 v -58 c 0,-2.757 2.243,-5 5,-5 H 0 c 2.757,0 5,2.243 5,5 V -5 C 5,-2.243 2.757,0 0,0 m 0,-4 c 0.553,0 1,-0.448 1,-1 v -58 c 0,-0.553 -0.447,-1 -1,-1 h -82 c -0.552,0 -1,0.447 -1,1 v 58 c 0,0.552 0.448,1 1,1 H 0" /></g><g
           transform="translate(166,154)"
           id="g32"><path
             id="path34"
             style="fill:#ffffff;fill-opacity:1;fill-rule:nonzero;stroke:none"
             d="m 0,0 h -4 -68 -4 v -4 -44 -4 h 4 68 4 v 4 44 z m -4,-48 h -68 v 44 h 68 z" /></g><g
           transform="translate(41.5,146)"
           id="g36"><path
             id="path38"
             style="fill:#ffffff;fill-opacity:1;fill-rule:nonzero;stroke:none"
             d="m 0,0 h -7 c -3.17,0 -5.75,-2.58 -5.75,-5.75 v -3 h -3 c -3.17,0 -5.75,-2.58 -5.75,-5.75 v -7 c 0,-3.171 2.58,-5.75 5.75,-5.75 h 3 v -3 c 0,-3.171 2.58,-5.75 5.75,-5.75 h 7 c 3.17,0 5.75,2.579 5.75,5.75 v 3 h 3 c 3.17,0 5.75,2.579 5.75,5.75 v 7 c 0,3.17 -2.58,5.75 -5.75,5.75 h -3 v 3 C 5.75,-2.58 3.17,0 0,0 m 0,-4 c 0.966,0 1.75,-0.784 1.75,-1.75 v -7 h 7 c 0.966,0 1.75,-0.784 1.75,-1.75 v -7 c 0,-0.967 -0.784,-1.75 -1.75,-1.75 h -7 v -7 C 1.75,-31.217 0.966,-32 0,-32 h -7 c -0.966,0 -1.75,0.783 -1.75,1.75 v 7 h -7 c -0.966,0 -1.75,0.783 -1.75,1.75 v 7 c 0,0.966 0.784,1.75 1.75,1.75 h 7 v 7 c 0,0.966 0.784,1.75 1.75,1.75 h 7" /></g><g
           transform="translate(72,122.9375)"
           id="g40"><path
             id="path42"
             style="fill:#ffffff;fill-opacity:1;fill-rule:nonzero;stroke:none"
             d="m 0,0 v 10.396 c 0,0.445 0.338,0.807 0.773,0.807 H 3.227 C 3.654,11.203 4,10.841 4,10.396 V 0 C 4,-0.439 3.654,-0.797 3.227,-0.797 H 0.773 C 0.338,-0.797 0,-0.439 0,0" /></g><g
           transform="translate(184,122.9375)"
           id="g44"><path
             id="path46"
             style="fill:#ffffff;fill-opacity:1;fill-rule:nonzero;stroke:none"
             d="M 0,0 C 0,-0.439 -0.342,-0.797 -0.776,-0.797 H -3.228 C -3.654,-0.797 -4,-0.439 -4,0 v 10.396 c 0,0.445 0.346,0.807 0.772,0.807 h 2.452 C -0.342,11.203 0,10.841 0,10.396 Z" /></g><g
           transform="translate(180,136.7979)"
           id="g48"><path
             id="path50"
             style="fill:#ffffff;fill-opacity:1;fill-rule:nonzero;stroke:none"
             d="M 0,0 C 0,-0.44 -0.342,-0.798 -0.776,-0.798 H -3.228 C -3.654,-0.798 -4,-0.44 -4,0 v 10.396 c 0,0.444 0.346,0.806 0.772,0.806 h 2.452 C -0.342,11.202 0,10.84 0,10.396 Z" /></g><g
           transform="translate(180,108.7979)"
           id="g52"><path
             id="path54"
             style="fill:#ffffff;fill-opacity:1;fill-rule:nonzero;stroke:none"
             d="M 0,0 C 0,-0.44 -0.342,-0.798 -0.776,-0.798 H -3.228 C -3.654,-0.798 -4,-0.44 -4,0 v 10.396 c 0,0.445 0.346,0.806 0.772,0.806 h 2.452 C -0.342,11.202 0,10.841 0,10.396 Z" /></g><g
           transform="translate(80,136.7979)"
           id="g56"><path
             id="path58"
             style="fill:#ffffff;fill-opacity:1;fill-rule:nonzero;stroke:none"
             d="M 0,0 C 0,-0.44 -0.342,-0.798 -0.776,-0.798 H -3.228 C -3.654,-0.798 -4,-0.44 -4,0 v 10.396 c 0,0.444 0.346,0.806 0.772,0.806 h 2.452 C -0.342,11.202 0,10.84 0,10.396 Z" /></g><g
           transform="translate(80,108.7979)"
           id="g60"><path
             id="path62"
             style="fill:#ffffff;fill-opacity:1;fill-rule:nonzero;stroke:none"
             d="M 0,0 C 0,-0.44 -0.342,-0.798 -0.776,-0.798 H -3.228 C -3.654,-0.798 -4,-0.44 -4,0 v 10.396 c 0,0.445 0.346,0.806 0.772,0.806 h 2.452 C -0.342,11.202 0,10.841 0,10.396 Z" /></g><g
           transform="translate(197.1035,172.6162)"
           id="g64"><path
             id="path66"
             style="fill:#ffffff;fill-opacity:1;fill-rule:nonzero;stroke:none"
             d="m 0,0 c -5.514,0 -10,-4.486 -10,-10 0,-5.514 4.486,-10 10,-10 5.514,0 10,4.486 10,10 C 10,-4.486 5.514,0 0,0 m 0,-4 c 3.312,0 6,-2.688 6,-6 0,-3.312 -2.688,-6 -6,-6 -3.313,0 -6,2.688 -6,6 0,3.312 2.687,6 6,6" /></g><g
           transform="translate(197.1035,103.3838)"
           id="g68"><path
             id="path70"
             style="fill:#ffffff;fill-opacity:1;fill-rule:nonzero;stroke:none"
             d="m 0,0 c -5.514,0 -10,-4.486 -10,-10 0,-5.515 4.486,-10 10,-10 5.514,0 10,4.485 10,10 C 10,-4.486 5.514,0 0,0 m 0,-4 c 3.312,0 6,-2.688 6,-6 0,-3.313 -2.688,-6 -6,-6 -3.313,0 -6,2.687 -6,6 0,3.312 2.687,6 6,6" /></g><g
           transform="translate(218.9668,97.5254)"
           id="g72"><path
             id="path74"
             style="fill:#ffffff;fill-opacity:1;fill-rule:nonzero;stroke:none"
             d="m 0,0 c -5.515,0 -10,-4.486 -10,-10 0,-5.514 4.485,-10 10,-10 5.514,0 10,4.486 10,10 C 10,-4.486 5.514,0 0,0 m 0,-4 c 3.312,0 6,-2.688 6,-6 0,-3.313 -2.688,-6 -6,-6 -3.313,0 -6,2.687 -6,6 0,3.312 2.687,6 6,6" /></g><g
           transform="translate(218.9668,178.4746)"
           id="g76"><path
             id="path78"
             style="fill:#ffffff;fill-opacity:1;fill-rule:nonzero;stroke:none"
             d="m 0,0 c -5.515,0 -10,-4.486 -10,-10 0,-5.514 4.485,-10 10,-10 5.514,0 10,4.486 10,10 C 10,-4.486 5.514,0 0,0 m 0,-4 c 3.312,0 6,-2.688 6,-6 0,-3.312 -2.688,-6 -6,-6 -3.313,0 -6,2.688 -6,6 0,3.312 2.687,6 6,6" /></g><g
           transform="translate(215.0293,98.8828)"
           id="g80"><path
             id="path82"
             style="fill:#ffffff;fill-opacity:1;fill-rule:nonzero;stroke:none"
             d="M 0,0 3.758,-0.836 C 9.759,19.442 9.762,38.792 3.76,59.07 L 0.001,58.235 C 5.678,38.539 5.675,19.696 0,0" /></g><g
           transform="translate(207.4844,100.5586)"
           id="g84"><path
             id="path86"
             style="fill:#ffffff;fill-opacity:1;fill-rule:nonzero;stroke:none"
             d="M 0,0 3.784,-0.841 C 9.141,18.275 9.139,36.607 3.779,55.722 L 0.014,54.885 C 5.063,36.353 5.047,18.533 0,0" /></g><g
           transform="translate(199.9287,102.2383)"
           id="g88"><path
             id="path90"
             style="fill:#ffffff;fill-opacity:1;fill-rule:nonzero;stroke:none"
             d="M 0,0 3.777,-0.84 C 8.526,17.113 8.552,34.416 3.802,52.369 L 0.013,51.526 C 4.471,34.154 4.454,17.373 0,0" /></g></g></g></g></svg>