<?xml version="1.0" encoding="UTF-8" standalone="no"?>
<svg
   xmlns:dc="http://purl.org/dc/elements/1.1/"
   xmlns:cc="http://creativecommons.org/ns#"
   xmlns:rdf="http://www.w3.org/1999/02/22-rdf-syntax-ns#"
   xmlns:svg="http://www.w3.org/2000/svg"
   xmlns="http://www.w3.org/2000/svg"
   viewBox="0 0 320 192"
   height="192"
   width="320"
   xml:space="preserve"
   id="svg2"
   version="1.1"><metadata
     id="metadata8"><rdf:RDF><cc:Work
         rdf:about=""><dc:format>image/svg+xml</dc:format><dc:type
           rdf:resource="http://purl.org/dc/dcmitype/StillImage" /></cc:Work></rdf:RDF></metadata><defs
     id="defs6"><clipPath
       id="clipPath18"
       clipPathUnits="userSpaceOnUse"><path
         id="path16"
         d="M 0,256 H 256 V 0 H 0 Z" /></clipPath></defs><g
     transform="matrix(1.3333333,0,0,-1.3333333,-10.666666,266.66666)"
     id="g10"><g
       id="g12"><g
         clip-path="url(#clipPath18)"
         id="g14"><g
           transform="translate(244,180)"
           id="g20"><path
             id="path22"
             style="fill:#ffffff;fill-opacity:1;fill-rule:nonzero;stroke:none"
             d="m 0,0 h -4 v -20 h 4 v -28 h -4 v 8 4 h -4 -40 -4 v -4 -8 h -176 -4 v 28 h 216 v 4 h -216 v 4 h 216 v 4 h -216 v 4 h 216 v 4 h -208 -8 v 4 h 8 v 12 h 2 2 V 4 h 4 v 12 h 2 2 V 4 h 4 v 12 h 2 2 V 4 h 4 v 12 h 2 2 V 4 h 4 v 12 h 2 2 V 4 h 4 v 12 h 2 2 V 4 h 4 v 12 h 2 2 V 4 h 4 v 12 h 2 2 V 4 h 4 v 12 h 2 2 V 4 h 4 v 12 h 2 2 V 4 h 4 v 12 h 2 2 V 4 h 4 v 12 h 2 2 V 4 h 4 v 12 h 2 2 V 4 h 4 v 12 h 2 2 V 4 h 4 v 12 h 2 2 V 4 h 4 v 12 h 2 2 V 4 h 4 v 12 h 2 2 V 4 h 4 v 12 h 2 2 V 4 h 4 v 12 h 2 2 V 4 h 4 v 12 h 2 2 V 4 h 4 v 12 h 2 2 V 4 h 4 v 12 h 2 2 V 4 h 4 v 12 h 2 2 V 4 h 4 v 12 h 2 2 V 4 h 4 v 12 h 2 2 V 4 h 4 v 12 h 2 2 V 4 h 4 v 12 h 2 2 2 2 V 8 h 8 z m -8,-48 h -40 v 8 h 40 z m 8,-68 c 0,-2.209 -1.791,-4 -4,-4 v 0.075 20 4 8 4 8 4 h -4 -8 -4 -8 -4 -8 -4 -8 -4 -12 -4 -4 -12 -4 v 7.925 4 h -4 -8 -4 -8 -4 -8 -4 -8 -4 -8 -4 -8 -4 -8 -4 -8 -4 -8 -4 -8 -4 -8 -4 V -64 -71.925 -72 -75.925 -76 v -7.925 -4 -7.926 -0.074 -3.926 -0.074 -8 -4 h 4 V -120 h -4 c -2.209,0 -4,1.791 -4,4 v 64 h 4 176 4 40 4 4 z m -64,-4 v 8 h 8 v -7.925 -0.075 z m -12,8 h 8 v -8 h -8 z m -12,0 h 8 v -8 h -8 z m -16,-8 v 8.075 h 4 4 V -120 Z m -16,0 v 8.075 h 8 4 V -120 Z m -84,0 v 8.075 h 8 4 8 4 8 4 8 4 8 4 8 4 8 V -120 Z m -12,48.075 h -8 V -64 h 8 z m 12,0 h -8 V -64 h 8 z m 12,0 h -8 V -64 h 8 z m 12,0 h -8 V -64 h 8 z m 12,0 h -8 V -64 h 8 z m 12,0 h -8 V -64 h 8 z m 12,0 h -8 V -64 h 8 z m 12,0 h -8 V -64 h 8 z m 12,0 h -8 V -64 h 8 z m 12,0 h -8 V -64 h 8 z m 12,0 h -8 V -64 h 8 z m -4,-12 h -4 V -76 h 8 4 v -7.925 z m 24,0 h -12 v 8 h 12 z m -20,-16 v 3.925 0.075 h -4 v 8 h 8 v -20 h -4 z m -12,0 h 4 V -100 h 4 v -7.925 h -4 -4 z m -12,0 h 4 4 v -8 h -8 z m -12,0 h 4 4 v -8 h -8 z m -12,0 h 4 4 v -8 h -8 z m -12,0 h 4 4 v -8 h -8 z m -12,0 h 4 4 v -8 h -8 z m -12,0 h 4 4 v -8 h -8 z m -12,0 h 4 4 v -8 h -8 z m -12,0 h 4 4 v -8 h -8 z m -4,12 h 4 4 v -8 h -4 v 0.074 h -4 z M -192,-76 v -7.925 h -4 -4 V -76 Z m 12,0 v -7.925 h -4 -4 V -76 Z m 12,0 v -7.925 h -4 -4 V -76 Z m 12,0 v -7.925 h -4 -4 V -76 Z m 12,0 v -7.925 h -4 -4 V -76 Z m 12,0 v -7.925 h -4 -4 V -76 Z m 12,0 v -7.925 h -4 -4 V -76 Z m -4,-11.925 h 4 4 v -8 h -4 -4 z m -12,0 h 4 4 v -8 h -4 -4 z m -12,0 h 4 4 v -8 h -4 -4 z m -12,0 h 4 4 v -8 h -4 -4 z m -12,0 h 4 4 v -8 h -4 -4 z m -12,0 h 4 4 v -8 h -4 -4 z m -12,0 h 4 4 v -8 h -4 -4 z m 92,-8 h -4 -4 v 8 h 4 4 z M -108,-76 v -7.925 h -4 -4 V -76 Z m -104,0 h 8 v -7.925 h -4 -4 z m 144,-32 h -8 v 8 h 8 z m 12,24.075 h -12 v 8 h 12 z m 12,0 h -8 v 8 h 8 z m 12,0 h -8 v 8 h 8 z m 12,0 h -8 v 8 h 8 z m 12,-36 h -8 v 8 4 8 h 8 z m -36,8 v -8 h -8 v 7.925 0.075 z m 12,16 h -8 v 8 h 8 z m 4,-16 h 8 v -8 h -8 z m -12,12 h 8 v -8 h -8 z m 0,-12 h 8 v -8 h -8 z m 20,4 h -8 v 8 h 8 z m 0,12 h -8 v 8 h 8 z m -32,8 h 8 v -8 h -8 z m 0,-12 h 8 v -8 h -8 z m 44,4 h -8 v 8 h 8 z m 0,12 h -8 v 8 h 8 z m -60,-4 h 12 v -8 -4 -8 -0.075 h -8 v 8 4 h -4 -8 -4 v -4 -8 h -8 v 0.075 20 h 12 4 z M -224,-76 h 8 v -7.925 h -8 z m 0,-11.925 h 8 4 v -7.926 h -12 z m 0,-12 h 12 4 v -8 h -12 -4 z m 4,-12 h 12 V -120 h -12 z M 0,12 h -6 v 4 4 h -4 -4 -4 -4 -4 -4 -4 -4 -4 -4 -4 -4 -4 -4 -4 -4 -4 -4 -4 -4 -4 -4 -4 -4 -4 -4 -4 -4 -4 -4 -4 -4 -4 -4 -4 -4 -4 -4 -4 -4 -4 -4 -4 -4 -4 -4 -4 -4 -4 -4 -4 -4 -4 -4 -2 -4 V 16 8 h -4 -4 v -4 -4 -4 -4 -4 -4 -4 -28 -4 -64 c 0,-4.411 3.589,-8 8,-8 h 4 4 12 4 80 4 12 4 8 4 4 8 4 8 4 8 4 48 c 4.411,0 8,3.589 8,8 v 64 4 28 4 H 0 v 12 h 4 v 4 8 4 z" /></g><path
           id="path24"
           style="fill:#ffffff;fill-opacity:1;fill-rule:nonzero;stroke:none"
           d="m 224,120 h 12 v 4 h -12 z" /><path
           id="path26"
           style="fill:#ffffff;fill-opacity:1;fill-rule:nonzero;stroke:none"
           d="m 224,112 h 12 v 4 h -12 z" /></g></g></g></svg>