<?xml version="1.0" encoding="UTF-8" standalone="no"?>
<svg
   xmlns:dc="http://purl.org/dc/elements/1.1/"
   xmlns:cc="http://creativecommons.org/ns#"
   xmlns:rdf="http://www.w3.org/1999/02/22-rdf-syntax-ns#"
   xmlns:svg="http://www.w3.org/2000/svg"
   xmlns="http://www.w3.org/2000/svg"
   viewBox="0 0 320 192"
   height="192"
   width="320"
   xml:space="preserve"
   id="svg2"
   version="1.1"><metadata
     id="metadata8"><rdf:RDF><cc:Work
         rdf:about=""><dc:format>image/svg+xml</dc:format><dc:type
           rdf:resource="http://purl.org/dc/dcmitype/StillImage" /></cc:Work></rdf:RDF></metadata><defs
     id="defs6"><clipPath
       id="clipPath18"
       clipPathUnits="userSpaceOnUse"><path
         id="path16"
         d="M 0,256 H 256 V 0 H 0 Z" /></clipPath></defs><g
     transform="matrix(1.3333333,0,0,-1.3333333,-10.666666,266.66666)"
     id="g10"><g
       id="g12"><g
         clip-path="url(#clipPath18)"
         id="g14"><g
           transform="translate(244,128)"
           id="g20"><path
             id="path22"
             style="fill:#ffffff;fill-opacity:1;fill-rule:nonzero;stroke:none"
             d="m 0,0 v -64 c 0,0 -28,-4 -116,-4 -88,0 -116,4 -116,4 V 0 64 c 0,0 28,4 116,4 C -28,68 0,64 0,64 Z M 0.565,67.96 C -0.589,68.125 -28.719,72 -116,72 -203.281,72 -231.411,68.125 -232.565,67.96 L -236,67.469 V 64 -64 -67.469 l 3.435,-0.491 c 1.154,-0.165 29.284,-4.04 116.565,-4.04 87.281,0 115.411,3.875 116.565,4.04 L 4,-67.469 V -64 64 67.469 Z" /></g><g
           transform="translate(176,88)"
           id="g24"><path
             id="path26"
             style="fill:#ffffff;fill-opacity:1;fill-rule:nonzero;stroke:none"
             d="m 0,0 v -4 c 0,-4.411 3.589,-8 8,-8 h -156 c -2.2,0 -4,1.8 -4,4 V 4 c 0,2.2 1.8,4 4,4 H 8 C 3.589,8 0,4.411 0,0 m 8,-8 c -2.209,0 -4,1.791 -4,4 v 4 c 0,2.209 1.791,4 4,4 h 12 c 2.209,0 4,-1.791 4,-4 v -4 c 0,-2.209 -1.791,-4 -4,-4 z M 40,8 C 35.589,8 32,4.411 32,0 v -4 c 0,-4.411 3.589,-8 8,-8 H 20 c 4.411,0 8,3.589 8,8 v 4 c 0,4.411 -3.589,8 -8,8 z m 4,-16 h -4 c -2.209,0 -4,1.791 -4,4 v 4 c 0,2.209 1.791,4 4,4 h 4 z m 12,8 v -4 c 0,-2.209 -1.791,-4 -4,-4 H 48 V 4 h 4 c 2.209,0 4,-1.791 4,-4 M -156,4 V -8 c 0,-4.411 3.589,-8 8,-8 H 52 c 4.411,0 8,3.589 8,8 v 4 4 4 c 0,4.411 -3.589,8 -8,8 h -200 c -4.411,0 -8,-3.589 -8,-8" /></g><g
           transform="translate(108,132)"
           id="g28"><path
             id="path30"
             style="fill:#ffffff;fill-opacity:1;fill-rule:nonzero;stroke:none"
             d="m 0,0 c 1.1,0 2,0.9 2,2 v 12 c 0,1.1 -0.9,2 -2,2 -1.1,0 -2,-0.9 -2,-2 V 2 C -2,0.9 -1.1,0 0,0" /></g><g
           transform="translate(116,132)"
           id="g32"><path
             id="path34"
             style="fill:#ffffff;fill-opacity:1;fill-rule:nonzero;stroke:none"
             d="m 0,0 c 1.1,0 2,0.9 2,2 v 12 c 0,1.1 -0.9,2 -2,2 -1.1,0 -2,-0.9 -2,-2 V 2 C -2,0.9 -1.1,0 0,0" /></g><g
           transform="translate(124,132)"
           id="g36"><path
             id="path38"
             style="fill:#ffffff;fill-opacity:1;fill-rule:nonzero;stroke:none"
             d="m 0,0 c 1.1,0 2,0.9 2,2 v 12 c 0,1.1 -0.9,2 -2,2 -1.1,0 -2,-0.9 -2,-2 V 2 C -2,0.9 -1.1,0 0,0" /></g><g
           transform="translate(132,132)"
           id="g40"><path
             id="path42"
             style="fill:#ffffff;fill-opacity:1;fill-rule:nonzero;stroke:none"
             d="m 0,0 c 1.1,0 2,0.9 2,2 v 12 c 0,1.1 -0.9,2 -2,2 -1.1,0 -2,-0.9 -2,-2 V 2 C -2,0.9 -1.1,0 0,0" /></g><g
           transform="translate(140,132)"
           id="g44"><path
             id="path46"
             style="fill:#ffffff;fill-opacity:1;fill-rule:nonzero;stroke:none"
             d="m 0,0 c 1.1,0 2,0.9 2,2 v 12 c 0,1.1 -0.9,2 -2,2 -1.1,0 -2,-0.9 -2,-2 V 2 C -2,0.9 -1.1,0 0,0" /></g><g
           transform="translate(148,132)"
           id="g48"><path
             id="path50"
             style="fill:#ffffff;fill-opacity:1;fill-rule:nonzero;stroke:none"
             d="m 0,0 c 1.1,0 2,0.9 2,2 v 12 c 0,1.1 -0.9,2 -2,2 -1.1,0 -2,-0.9 -2,-2 V 2 C -2,0.9 -1.1,0 0,0" /></g><g
           transform="translate(106,110)"
           id="g52"><path
             id="path54"
             style="fill:#ffffff;fill-opacity:1;fill-rule:nonzero;stroke:none"
             d="m 0,0 c 0,-1.1 0.9,-2 2,-2 1.1,0 2,0.9 2,2 V 12 C 4,13.1 3.1,14 2,14 0.9,14 0,13.1 0,12 Z" /></g><g
           transform="translate(114,110)"
           id="g56"><path
             id="path58"
             style="fill:#ffffff;fill-opacity:1;fill-rule:nonzero;stroke:none"
             d="m 0,0 c 0,-1.1 0.9,-2 2,-2 1.1,0 2,0.9 2,2 V 12 C 4,13.1 3.1,14 2,14 0.9,14 0,13.1 0,12 Z" /></g><g
           transform="translate(122,110)"
           id="g60"><path
             id="path62"
             style="fill:#ffffff;fill-opacity:1;fill-rule:nonzero;stroke:none"
             d="m 0,0 c 0,-1.1 0.9,-2 2,-2 1.1,0 2,0.9 2,2 V 12 C 4,13.1 3.1,14 2,14 0.9,14 0,13.1 0,12 Z" /></g><g
           transform="translate(130,110)"
           id="g64"><path
             id="path66"
             style="fill:#ffffff;fill-opacity:1;fill-rule:nonzero;stroke:none"
             d="m 0,0 c 0,-1.1 0.9,-2 2,-2 1.1,0 2,0.9 2,2 V 12 C 4,13.1 3.1,14 2,14 0.9,14 0,13.1 0,12 Z" /></g><g
           transform="translate(138,110)"
           id="g68"><path
             id="path70"
             style="fill:#ffffff;fill-opacity:1;fill-rule:nonzero;stroke:none"
             d="m 0,0 c 0,-1.1 0.9,-2 2,-2 1.1,0 2,0.9 2,2 V 12 C 4,13.1 3.1,14 2,14 0.9,14 0,13.1 0,12 Z" /></g><g
           transform="translate(146,110)"
           id="g72"><path
             id="path74"
             style="fill:#ffffff;fill-opacity:1;fill-rule:nonzero;stroke:none"
             d="m 0,0 c 0,-1.1 0.9,-2 2,-2 1.1,0 2,0.9 2,2 V 12 C 4,13.1 3.1,14 2,14 0.9,14 0,13.1 0,12 Z" /></g><g
           transform="translate(28,140)"
           id="g76"><path
             id="path78"
             style="fill:#ffffff;fill-opacity:1;fill-rule:nonzero;stroke:none"
             d="m 0,0 c 6.627,0 12,-5.373 12,-12 0,-6.627 -5.373,-12 -12,-12 -6.627,0 -12,5.373 -12,12 0,6.627 5.373,12 12,12 m 0,-28 c 8.822,0 16,7.178 16,16 0,8.822 -7.178,16 -16,16 -8.822,0 -16,-7.178 -16,-16 0,-8.822 7.178,-16 16,-16" /></g><g
           transform="translate(228,116)"
           id="g80"><path
             id="path82"
             style="fill:#ffffff;fill-opacity:1;fill-rule:nonzero;stroke:none"
             d="m 0,0 c -6.627,0 -12,5.373 -12,12 0,6.627 5.373,12 12,12 C 6.627,24 12,18.627 12,12 12,5.373 6.627,0 0,0 M 0,28 C -8.822,28 -16,20.822 -16,12 -16,3.178 -8.822,-4 0,-4 8.822,-4 16,3.178 16,12 16,20.822 8.822,28 0,28" /></g><g
           transform="translate(48,142)"
           id="g84"><path
             id="path86"
             style="fill:#ffffff;fill-opacity:1;fill-rule:nonzero;stroke:none"
             d="M 0,0 C 0,1.104 0.896,2 2,2 H 6 C 7.104,2 8,1.104 8,0 V -4 C 8,-5.104 7.104,-6 6,-6 H 2 c -1.104,0 -2,0.896 -2,2 z m 14,2 h 4 c 1.104,0 2,-0.896 2,-2 v -4 c 0,-1.104 -0.896,-2 -2,-2 h -4 c -1.104,0 -2,0.896 -2,2 v 4 c 0,1.104 0.896,2 2,2 m 12,0 h 4 c 1.104,0 2,-0.896 2,-2 v -4 c 0,-1.104 -0.896,-2 -2,-2 h -4 c -1.104,0 -2,0.896 -2,2 v 4 c 0,1.104 0.896,2 2,2 m 12,0 h 4 c 1.104,0 2,-0.896 2,-2 v -4 c 0,-1.104 -0.896,-2 -2,-2 h -4 c -1.104,0 -2,0.896 -2,2 v 4 c 0,1.104 0.896,2 2,2 m 6,-30 c 0,-1.104 -0.896,-2 -2,-2 h -4 c -1.104,0 -2,0.896 -2,2 v 4 c 0,1.104 0.896,2 2,2 h 4 c 1.104,0 2,-0.896 2,-2 z m -14,-2 h -4 c -1.104,0 -2,0.896 -2,2 v 4 c 0,1.104 0.896,2 2,2 h 4 c 1.104,0 2,-0.896 2,-2 v -4 c 0,-1.104 -0.896,-2 -2,-2 m -12,0 h -4 c -1.104,0 -2,0.896 -2,2 v 4 c 0,1.104 0.896,2 2,2 h 4 c 1.104,0 2,-0.896 2,-2 v -4 c 0,-1.104 -0.896,-2 -2,-2 M 6,-30 H 2 c -1.104,0 -2,0.896 -2,2 v 4 c 0,1.104 0.896,2 2,2 h 4 c 1.104,0 2,-0.896 2,-2 v -4 c 0,-1.104 -0.896,-2 -2,-2 m 14,18 v -4 c 0,-1.104 -0.896,-2 -2,-2 h -4 c -1.104,0 -2,0.896 -2,2 v 4 c 0,1.104 0.896,2 2,2 h 4 c 1.104,0 2,-0.896 2,-2 m 12,0 v -4 c 0,-1.104 -0.896,-2 -2,-2 h -4 c -1.104,0 -2,0.896 -2,2 v 4 c 0,1.104 0.896,2 2,2 h 4 c 1.104,0 2,-0.896 2,-2 m 12,0 v -4 c 0,-1.104 -0.896,-2 -2,-2 h -4 c -1.104,0 -2,0.896 -2,2 v 4 c 0,1.104 0.896,2 2,2 h 4 c 1.104,0 2,-0.896 2,-2 M 0,-16 v 4 c 0,1.104 0.896,2 2,2 h 4 c 1.104,0 2,-0.896 2,-2 v -4 c 0,-1.104 -0.896,-2 -2,-2 H 2 c -1.104,0 -2,0.896 -2,2 m -2.459,-4 C -3.414,-21.062 -4,-22.463 -4,-24 v -4 c 0,-3.309 2.691,-6 6,-6 h 4 c 1.538,0 2.937,0.586 4,1.541 1.063,-0.955 2.462,-1.541 4,-1.541 h 4 c 1.538,0 2.937,0.586 4,1.541 1.063,-0.955 2.462,-1.541 4,-1.541 h 4 c 1.538,0 2.937,0.586 4,1.541 1.063,-0.955 2.462,-1.541 4,-1.541 h 4 c 3.309,0 6,2.691 6,6 v 4 c 0,1.537 -0.586,2.938 -1.541,4 0.955,1.063 1.541,2.463 1.541,4 v 4 c 0,1.538 -0.586,2.937 -1.541,4 0.955,1.063 1.541,2.462 1.541,4 v 4 c 0,3.309 -2.691,6 -6,6 H 38 C 36.462,6 35.063,5.414 34,4.459 32.937,5.414 31.538,6 30,6 H 26 C 24.462,6 23.063,5.414 22,4.459 20.937,5.414 19.538,6 18,6 H 14 C 12.462,6 11.063,5.414 10,4.459 8.937,5.414 7.538,6 6,6 H 2 C -1.309,6 -4,3.309 -4,0 v -4 c 0,-1.538 0.586,-2.937 1.541,-4 C -3.414,-9.063 -4,-10.462 -4,-12 v -2 -2 c 0,-1.537 0.586,-2.937 1.541,-4" /></g><g
           transform="translate(208,114)"
           id="g88"><path
             id="path90"
             style="fill:#ffffff;fill-opacity:1;fill-rule:nonzero;stroke:none"
             d="m 0,0 c 0,-1.104 -0.896,-2 -2,-2 h -4 c -1.104,0 -2,0.896 -2,2 v 4 c 0,1.104 0.896,2 2,2 h 4 C -0.896,6 0,5.104 0,4 Z m -14,-2 h -4 c -1.104,0 -2,0.896 -2,2 v 4 c 0,1.104 0.896,2 2,2 h 4 c 1.104,0 2,-0.896 2,-2 V 0 c 0,-1.104 -0.896,-2 -2,-2 m -12,0 h -4 c -1.104,0 -2,0.896 -2,2 v 4 c 0,1.104 0.896,2 2,2 h 4 c 1.104,0 2,-0.896 2,-2 V 0 c 0,-1.104 -0.896,-2 -2,-2 m -12,0 h -4 c -1.104,0 -2,0.896 -2,2 v 4 c 0,1.104 0.896,2 2,2 h 4 c 1.104,0 2,-0.896 2,-2 V 0 c 0,-1.104 -0.896,-2 -2,-2 m -6,30 c 0,1.104 0.896,2 2,2 h 4 c 1.104,0 2,-0.896 2,-2 v -4 c 0,-1.104 -0.896,-2 -2,-2 h -4 c -1.104,0 -2,0.896 -2,2 z m 14,2 h 4 c 1.104,0 2,-0.896 2,-2 v -4 c 0,-1.104 -0.896,-2 -2,-2 h -4 c -1.104,0 -2,0.896 -2,2 v 4 c 0,1.104 0.896,2 2,2 m 12,0 h 4 c 1.104,0 2,-0.896 2,-2 v -4 c 0,-1.104 -0.896,-2 -2,-2 h -4 c -1.104,0 -2,0.896 -2,2 v 4 c 0,1.104 0.896,2 2,2 m 12,0 h 4 c 1.104,0 2,-0.896 2,-2 v -4 c 0,-1.104 -0.896,-2 -2,-2 h -4 c -1.104,0 -2,0.896 -2,2 v 4 c 0,1.104 0.896,2 2,2 M -20,12 v 4 c 0,1.104 0.896,2 2,2 h 4 c 1.104,0 2,-0.896 2,-2 v -4 c 0,-1.104 -0.896,-2 -2,-2 h -4 c -1.104,0 -2,0.896 -2,2 m -12,0 v 4 c 0,1.104 0.896,2 2,2 h 4 c 1.104,0 2,-0.896 2,-2 v -4 c 0,-1.104 -0.896,-2 -2,-2 h -4 c -1.104,0 -2,0.896 -2,2 m -12,0 v 4 c 0,1.104 0.896,2 2,2 h 4 c 1.104,0 2,-0.896 2,-2 v -4 c 0,-1.104 -0.896,-2 -2,-2 h -4 c -1.104,0 -2,0.896 -2,2 m 44,4 v -4 c 0,-1.104 -0.896,-2 -2,-2 h -4 c -1.104,0 -2,0.896 -2,2 v 4 c 0,1.104 0.896,2 2,2 h 4 c 1.104,0 2,-0.896 2,-2 m 2.459,4 C 3.414,21.063 4,22.462 4,24 v 4 c 0,3.309 -2.691,6 -6,6 h -4 c -1.537,0 -2.938,-0.586 -4,-1.541 -1.063,0.955 -2.463,1.541 -4,1.541 h -4 c -1.537,0 -2.937,-0.586 -4,-1.541 -1.062,0.955 -2.463,1.541 -4,1.541 h -4 c -1.537,0 -2.938,-0.586 -4,-1.541 -1.063,0.955 -2.463,1.541 -4,1.541 h -4 c -3.309,0 -6,-2.691 -6,-6 v -4 c 0,-1.538 0.586,-2.937 1.541,-4 C -47.414,18.937 -48,17.538 -48,16 v -4 c 0,-1.537 0.586,-2.937 1.541,-4 C -47.414,6.937 -48,5.537 -48,4 V 0 c 0,-3.309 2.691,-6 6,-6 h 4 c 1.537,0 2.937,0.586 4,1.541 1.062,-0.955 2.463,-1.541 4,-1.541 h 4 c 1.537,0 2.938,0.586 4,1.541 1.063,-0.955 2.463,-1.541 4,-1.541 h 4 c 1.537,0 2.937,0.586 4,1.541 C -8.938,-5.414 -7.537,-6 -6,-6 h 4 c 3.309,0 6,2.691 6,6 V 4 C 4,5.537 3.414,6.937 2.459,8 3.414,9.063 4,10.463 4,12 v 2 2 c 0,1.538 -0.586,2.937 -1.541,4" /></g><g
           transform="translate(232,176)"
           id="g92"><path
             id="path94"
             style="fill:#ffffff;fill-opacity:1;fill-rule:nonzero;stroke:none"
             d="m 0,0 v -12 c 0,-2.2 -1.8,-4 -4,-4 h -200 c -2.2,0 -4,1.8 -4,4 V 0 c 0,2.2 1.8,4 4,4 H -4 C -1.8,4 0,2.2 0,0 m -212,0 v -12 c 0,-4.411 3.589,-8 8,-8 H -4 c 4.411,0 8,3.589 8,8 V 0 C 4,4.411 0.411,8 -4,8 h -200 c -4.411,0 -8,-3.589 -8,-8" /></g></g></g></g></svg>