<?xml version="1.0" encoding="utf-8"?>
<!-- Generator: Adobe Illustrator 25.0.0, SVG Export Plug-In . SVG Version: 6.00 Build 0)  -->
<svg version="1.1" id="Layer_1" xmlns="http://www.w3.org/2000/svg" xmlns:xlink="http://www.w3.org/1999/xlink" x="0px" y="0px"
	 viewBox="0 0 3840 1434.8" style="enable-background:new 0 0 3840 1434.8;" xml:space="preserve">
<style type="text/css">
	.st0{fill:#11A73B;}
	.st1{fill:#00A0E9;}
	.st2{fill:#E60019;}
	.st3{fill:#FFFFFF;}
</style>
<g>
	<g>
		<polygon points="484.6,1059.6 342.8,1059.6 342.8,949.9 475.3,949.9 475.3,949.6 475.3,913.8 475.3,913.8 342.8,913.8 342.8,813 
			484.6,813 484.6,776.9 484.6,776.9 342.8,776.9 306.6,776.9 306.6,813 306.6,913.8 306.6,949.9 306.6,1059.6 306.6,1095.8 
			307.3,1095.8 342.8,1095.8 484.6,1095.8 		"/>
		<polygon points="1421,1059.6 1279.1,1059.6 1279.1,949.9 1411.7,949.9 1411.7,949.6 1411.7,913.8 1411.7,913.8 1279.1,913.8 
			1279.1,813 1421,813 1421,776.9 1421,776.9 1279.1,776.9 1243,776.9 1243,813 1243,913.8 1243,949.9 1243,1059.6 1243,1095.8 
			1243.7,1095.8 1279.1,1095.8 1421,1095.8 		"/>
		<polygon points="3528.7,1059.6 3386.8,1059.6 3386.8,949.9 3519.4,949.9 3519.4,949.6 3519.4,913.8 3519.4,913.8 3386.8,913.8 
			3386.8,813 3528.7,813 3528.7,776.9 3528.7,776.9 3386.8,776.9 3350.7,776.9 3350.7,813 3350.7,913.8 3350.7,949.9 3350.7,1059.6 
			3350.7,1095.8 3351.4,1095.8 3386.8,1095.8 3528.7,1095.8 		"/>
		<polyline points="42.4,776.9 0,776.9 0,1095.8 36.1,1095.8 36.1,831.2 220.2,1095.8 255.4,1095.8 255.4,776.9 219.3,776.9 
			219.3,1031.2 42.4,776.9 		"/>
		<polygon points="3840,776.9 3728,776.9 3691.8,776.9 3579.8,776.9 3579.8,813 3691.8,813 3691.8,1095.8 3728,1095.8 3728,813 
			3840,813 		"/>
		<polygon points="3268.4,1095.8 3319.5,1095.8 3160.1,936.3 3319.5,776.9 3268.4,776.9 3091.7,953.6 3091.7,776.9 3055.6,776.9 
			3055.6,1095.8 3091.7,1095.8 3091.7,1004.7 3134.5,961.9 		"/>
		<path d="M675.2,767.8c-93.1,0-168.5,75.5-168.5,168.5s75.5,168.5,168.5,168.5s168.5-75.5,168.5-168.5S768.2,767.8,675.2,767.8z
			 M675.2,1069.3c-73.5,0-133-59.6-133-133s59.6-133,133-133c73.5,0,133,59.6,133,133S748.6,1069.3,675.2,1069.3z"/>
		<path d="M1620.7,767.8c-93.1,0-168.5,75.5-168.5,168.5s75.5,168.5,168.5,168.5c93.1,0,168.5-75.5,168.5-168.5
			S1713.8,767.8,1620.7,767.8z M1620.7,1069.3c-73.5,0-133-59.6-133-133s59.6-133,133-133c73.5,0,133,59.6,133,133
			S1694.2,1069.3,1620.7,1069.3z"/>
		<path d="M2504.6,767.8c-93.1,0-168.5,75.5-168.5,168.5s75.5,168.5,168.5,168.5c93.1,0,168.5-75.5,168.5-168.5
			S2597.6,767.8,2504.6,767.8z M2504.6,1069.3c-73.5,0-133-59.6-133-133s59.6-133,133-133c73.5,0,133,59.6,133,133
			S2578,1069.3,2504.6,1069.3z"/>
		<path d="M1176.1,942.2H991.4v36.1h178.2c-17.6,52.8-67.4,91-126.1,91c-73.5,0-133-59.6-133-133s59.6-133,133-133
			c45.7,0,86,23.1,110,58.2h41c-27.6-55.5-84.8-93.7-151-93.7c-93.1,0-168.5,75.5-168.5,168.5s75.5,168.5,168.5,168.5
			c91.1,0,165.2-72.3,168.4-162.6H1176.1z"/>
		<path d="M2983.5,1010.1c-23.9,35.7-64.5,59.2-110.7,59.2c-73.5,0-133-59.6-133-133s59.6-133,133-133c46.2,0,86.8,23.5,110.7,59.2
			h40.9c-27.4-56.1-84.9-94.7-151.5-94.7c-93.1,0-168.5,75.5-168.5,168.5s75.5,168.5,168.5,168.5c66.6,0,124.2-38.6,151.5-94.7
			H2983.5z"/>
		<g>
			<polygon class="st0" points="2344.9,317.9 2289.5,283.3 2401.6,66.2 2491,122.1 			"/>
			<polygon class="st1" points="2431.2,415.5 2391.9,363.4 2574.1,200.6 2637.6,284.7 			"/>
			<polygon class="st2" points="2224,256.1 2160.3,242.1 2193,0 2295.9,22.6 			"/>
			<path class="st2" d="M1989.7,384.9l-188.5,94.3l-71.6,35.9l-14.2,7.1l344.7,688.8l85.8-43l-301.8-603l188.5-94.3
				c80.8-40.4,179.3-7.5,219.7,73.4c40.4,80.8,7.7,179.1-73.1,219.6c0,0-13.4,6.2-20.2,8.5l-110.7-95.5l21.4-67.7l120-1.3l-1-96
				l-189.5,2.1l-61.5,194.4l4.3,3.7l208.2,179.9c19.8-9.9,81.3-46.6,81.3-46.6c121.7-66.9,169.7-218.7,107-344
				C2274.2,372.7,2118.1,320.7,1989.7,384.9z"/>
		</g>
	</g>
	<g>
		<path id="path29_3_" d="M1525.8,1372.8c-10.7,36.3-44.8,62.1-85.8,62.1c-53.6,0-91.9-42.4-91.9-91.2c0-46.7,36.3-90.8,91.7-90.8
			c50.5,0.3,79.1,37.4,86,63h-37.2c-5.4-12.1-21.1-31.7-49-32c-34.1,0-56.2,28.7-56.2,59.7c0,32,23,60.2,56.4,60.2
			c31.3,0,45.5-24.7,48.8-31.1L1525.8,1372.8L1525.8,1372.8z"/>
		<path id="path31_4_" d="M1620.3,1345.3c0-56.2,43.1-92.4,91.9-92.4c53.1,0,92.2,41.2,92.2,91c0,49.8-38.9,91-92.4,91
			c-53.8,0-91.7-42.4-91.7-89.3V1345.3L1620.3,1345.3z M1655.6,1343.9c0,32,23,59.9,57.1,59.9c35.6,0,56.4-30.8,56.4-59.7
			c0-29.4-20.8-60.2-56.6-60.2c-35.1,0-56.9,28.9-56.9,59.7V1343.9z"/>
		<path id="path33_3_" d="M1908.7,1256.2h35.3v144.3h57.6v31h-92.9V1256.2z"/>
		<path id="path35_4_" d="M2088.4,1345.3c0-56.2,43.1-92.4,91.9-92.4c53.1,0,92.2,41.2,92.2,91c0,49.8-38.9,91-92.4,91
			c-53.8,0-91.7-42.4-91.7-89.3V1345.3z M2123.7,1343.9c0,32,23,59.9,57.1,59.9c35.6,0,56.4-30.8,56.4-59.7
			c0-29.4-20.9-60.2-56.6-60.2c-35.1,0-56.9,28.9-56.9,59.7V1343.9L2123.7,1343.9z"/>
		<path id="path39_3_" d="M2416.6,1256.2c19.7,0.5,37.1,1.5,52.8,14.7c4,3.3,7.8,7.6,10.6,11.9c8.1,12.4,8.8,26.3,8.8,31.1
			c0,4.3-0.5,16.2-7.1,27.1c-1.8,2.8-4,6.6-9.4,11.4c-5.8,5.1-11.9,7.8-14.2,8.8c-4.3,1.8-8.6,3-17.9,5.1l51.6,68.5h-39.7
			l-49.6-67.5v67.5h-35.6v-178.5L2416.6,1256.2L2416.6,1256.2z M2402.7,1340.9h17.7c2,0,3.8,0,5.8-0.3c3.8,0,16.4-0.5,24.8-10.6
			c2-2.5,5.6-7.8,5.6-16.4c0-2.8-0.2-9.6-4.8-15.9c-7.8-10.6-20-11.6-32.1-11.9h-16.9L2402.7,1340.9L2402.7,1340.9z"/>
	</g>
</g>
</svg>
