<?xml version="1.0" encoding="UTF-8" standalone="no"?>
<svg
   xmlns:dc="http://purl.org/dc/elements/1.1/"
   xmlns:cc="http://creativecommons.org/ns#"
   xmlns:rdf="http://www.w3.org/1999/02/22-rdf-syntax-ns#"
   xmlns:svg="http://www.w3.org/2000/svg"
   xmlns="http://www.w3.org/2000/svg"
   viewBox="0 0 309.32754 314.66665"
   height="314.66666"
   width="309.32755"
   xml:space="preserve"
   id="svg2"
   version="1.1"><metadata
     id="metadata8"><rdf:RDF><cc:Work
         rdf:about=""><dc:format>image/svg+xml</dc:format><dc:type
           rdf:resource="http://purl.org/dc/dcmitype/StillImage" /></cc:Work></rdf:RDF></metadata><defs
     id="defs6"><clipPath
       id="clipPath18"
       clipPathUnits="userSpaceOnUse"><path
         id="path16"
         d="M 0,256 H 256 V 0 H 0 Z" /></clipPath></defs><g
     transform="matrix(1.3333333,0,0,-1.3333333,-16.00236,325.33319)"
     id="g10"><g
       id="g12"><g
         clip-path="url(#clipPath18)"
         id="g14"><g
           transform="translate(239.8896,36.8809)"
           id="g20"><path
             id="path22"
             style="fill:#ffffff;fill-opacity:1;fill-rule:nonzero;stroke:none"
             d="m 0,0 c -1.048,-10.909 -9.861,-19.723 -20.77,-20.771 -0.772,-0.074 -1.536,-0.11 -2.292,-0.11 -4.748,0 -9.155,1.436 -12.828,3.886 v 0.114 h -0.17 c -1.878,1.277 -3.563,2.817 -4.992,4.575 -1.51,1.86 -4.442,3.425 -6.838,3.425 h -128 c -2.395,0 -5.327,-1.565 -6.838,-3.425 -1.428,-1.758 -3.113,-3.298 -4.991,-4.575 h -0.171 v -0.114 c -3.672,-2.45 -8.08,-3.886 -12.827,-3.886 -0.756,0 -1.521,0.036 -2.292,0.11 -10.908,1.048 -19.722,9.862 -20.77,20.771 -0.786,8.182 2.689,15.592 8.465,20.281 1.859,1.51 3.424,4.443 3.424,6.838 v 128 c 0,2.396 -1.565,5.328 -3.424,6.838 -5.776,4.69 -9.251,12.1 -8.465,20.282 1.048,10.908 9.862,19.721 20.77,20.77 0.771,0.074 1.535,0.11 2.292,0.11 7.263,0 13.742,-3.345 17.989,-8.575 1.511,-1.859 4.443,-3.425 6.838,-3.425 h 128 c 2.396,0 5.328,1.566 6.838,3.425 4.248,5.231 10.726,8.575 17.99,8.575 0.755,0 1.521,-0.036 2.292,-0.11 10.909,-1.049 19.722,-9.862 20.77,-20.77 0.786,-8.182 -2.689,-15.592 -8.465,-20.282 -1.859,-1.51 -3.425,-4.442 -3.425,-6.838 v -128 c 0,-2.395 1.566,-5.328 3.425,-6.838 C -2.689,15.592 0.786,8.182 0,0 m -23.062,-24.881 h 0.001 z m -177.657,0 h 0.001 z M -5.943,23.386 c -1,0.812 -1.947,2.627 -1.947,3.733 v 128 c 0,1.107 0.947,2.921 1.947,3.733 7.091,5.758 10.801,14.644 9.924,23.769 -1.237,12.883 -11.486,23.131 -24.369,24.369 -0.888,0.086 -1.788,0.129 -2.674,0.129 -8.218,0 -15.907,-3.664 -21.095,-10.054 -0.812,-1 -2.626,-1.946 -3.733,-1.946 h -128 c -1.106,0 -2.92,0.946 -3.733,1.946 -5.188,6.39 -12.877,10.054 -21.094,10.054 -0.886,0 -1.786,-0.043 -2.675,-0.129 -12.882,-1.238 -23.131,-11.486 -24.369,-24.368 -0.877,-9.126 2.833,-18.012 9.925,-23.77 1.001,-0.812 1.946,-2.626 1.946,-3.733 v -128 c 0,-1.106 -0.945,-2.921 -1.946,-3.733 -7.092,-5.758 -10.802,-14.644 -9.925,-23.769 0.621,-6.467 3.515,-12.267 7.871,-16.6 v -1.265 c 0,-1.833 0.809,-3.533 2.219,-4.664 4.139,-3.32 9.076,-5.34 14.279,-5.84 0.889,-0.086 1.788,-0.129 2.674,-0.129 4.887,0 9.681,1.315 13.863,3.803 1.829,1.088 2.965,3.071 2.965,5.178 v 0.858 c 1.555,1.23 2.988,2.639 4.267,4.215 0.813,1 2.627,1.946 3.733,1.946 h 128 c 1.107,0 2.921,-0.946 3.734,-1.946 1.279,-1.576 2.712,-2.985 4.266,-4.215 V -19.9 c 0,-2.107 1.137,-4.09 2.966,-5.178 4.182,-2.488 8.976,-3.803 13.862,-3.803 0.886,0 1.786,0.043 2.674,0.129 5.203,0.5 10.141,2.52 14.28,5.84 1.41,1.131 2.218,2.831 2.218,4.664 v 1.265 c 4.356,4.332 7.25,10.133 7.871,16.6 0.877,9.125 -2.833,18.011 -9.924,23.769" /></g><g
           transform="translate(220,44)"
           id="g24"><path
             id="path26"
             style="fill:#ffffff;fill-opacity:1;fill-rule:nonzero;stroke:none"
             d="m 0,0 c 0,-4.411 -3.589,-8 -8,-8 h -168 c -4.411,0 -8,3.589 -8,8 v 168 c 0,4.411 3.589,8 8,8 H -8 c 4.411,0 8,-3.589 8,-8 z m -8,180 h -168 c -6.6,0 -12,-5.4 -12,-12 V 0 c 0,-6.6 5.4,-12 12,-12 H -8 c 6.6,0 12,5.4 12,12 v 168 c 0,6.6 -5.4,12 -12,12" /></g></g></g></g></svg>