<?xml version="1.0" encoding="utf-8"?>
<!-- Generator: Adobe Illustrator 26.0.2, SVG Export Plug-In . SVG Version: 6.00 Build 0)  -->
<svg version="1.1" id="Layer_1" xmlns="http://www.w3.org/2000/svg" xmlns:xlink="http://www.w3.org/1999/xlink" x="0px" y="0px"
	 viewBox="0 0 3839 693.3" style="enable-background:new 0 0 3839 693.3;" xml:space="preserve">
<style type="text/css">
	.st0{display:none;}
	.st1{display:inline;}
	.st2{fill:#FF6427;}
	.st3{fill:#EAD900;}
	.st4{fill:#FFFFFF;}
</style>
<g>
	<g>
		<g>
			<path class="st3" d="M2115.7,99.4h-128.3v35.1v21.8v198.5v56.9v270h56.9v-270h24.1l47.3,270h56.9l-47.4-270.8
				c26.9-4.5,47.4-27.9,47.4-56.1V156.3C2172.6,124.9,2147.1,99.4,2115.7,99.4z M2115.7,354.8h-71.4V156.3h71.4V354.8z"/>
			<path class="st3" d="M2444.1,99.4H2373c-31.4,0-56.9,25.5-56.9,56.9v198.5v56.9v270h56.9v-270h71.1v270h56.9v-270v-56.9V156.3
				C2501,124.9,2475.5,99.4,2444.1,99.4z M2444.1,354.8H2373V156.3h71.1V354.8z"/>
			<path class="st3" d="M1763.4,0h-71.1c-31.4,0-56.9,25.5-56.9,56.9v567.9c0,31.4,25.5,56.9,56.9,56.9h71.1h56.9v-56.9v0V345.3
				v-56.9h-92.4v56.9h35.5v279.5h-71.1V56.9h71.1v77.6h56.9V56.9C1820.3,25.5,1794.8,0,1763.4,0z"/>
			<path class="st3" d="M2713.3,99.4c-31.4,0-56.9,25.5-56.9,56.9v198.5v56.9v270h56.9v-270h85.2v-56.9h-85.2V156.3h85.2V99.4h-14.2
				H2713.3z"/>
			<path class="st3" d="M3053.9,390.5c29.5-47,57.1-94.5,57.1-107.9V99.4h-56.9v183.2c0,0-15.4,22.5-35.5,53.1
				c-20.1-30.6-35.5-53.1-35.5-53.1V99.4h-56.9v183.2c0,13.3,27.6,60.8,57.1,107.9c-29.6,47.1-57.1,94.6-57.1,107.9v183.2h56.9
				V498.5c0,0,15.4-22.5,35.5-53.1c20.1,30.6,35.5,53.1,35.5,53.1h0v183.2h56.9V498.5h0C3111.1,485.1,3083.5,437.6,3053.9,390.5z"/>
		</g>
		<g>
			<polygon class="st2" points="0,56.9 64,56.9 64,681.7 120.9,681.7 120.9,56.9 184.9,56.9 184.9,0 0,0 			"/>
			<path class="st2" d="M416.8,624.8h-70.4V99.4h-56.9v525.4v0c0,31.4,25.5,56.9,56.9,56.9h70.4c31.4,0,56.9-25.5,56.9-56.9v0V99.4
				h-56.9V624.8z"/>
			<path class="st2" d="M758.9,99.4H630.6v35.1v21.8v198.5v56.9v270h56.9v-270h24.1l47.3,270h56.9l-47.4-270.8
				c26.9-4.5,47.4-27.9,47.4-56.1V156.3C815.8,124.9,790.3,99.4,758.9,99.4z M758.9,354.8h-71.4V156.3h71.4V354.8z"/>
			<path class="st2" d="M1423.8,99.4h-71.1c-31.4,0-56.9,25.5-56.9,56.9v468.5v0c0,31.4,25.5,56.9,56.9,56.9h71.1
				c31.4,0,56.9-25.5,56.9-56.9v0V156.3C1480.8,124.9,1455.3,99.4,1423.8,99.4z M1423.8,624.8h-71.1V156.3h71.1V624.8z"/>
		</g>
		<g>
			<circle class="st2" cx="3536.3" cy="390.6" r="302.7"/>
			<g>
				<polygon class="st4" points="3407,290.3 3407,255.7 3370.3,255.7 3338,255.7 3338,290.3 3370.3,290.3 3370.3,490.8 3338,490.8 
					3338,525.4 3439.4,525.4 3439.4,490.8 3407,490.8 				"/>
				<path class="st4" d="M3734.6,322.7v-41.1l-25.9-25.9h-210.8l-25.9,25.9v91.7h0v34.6h0v91.7l25.9,25.9v0h210.8l0,0l25.9-25.9
					V399.1l-25.9-25.9l0,0h-202.1v-82.9H3700v32.4H3734.6z M3700,407.9v82.9h-193.4v-82.9H3700z"/>
			</g>
		</g>
	</g>
	<path class="st2" d="M1151.9,326.3v-170h0c0-31.4-25.5-56.9-56.9-56.9H967v45.7v11.2v198.5v56.9v213.1v56.9h56.9h71.1
		c31.4,0,56.9-25.5,56.9-56.9v0l0,0V440.1c0-31.4-3.1-56.9-34.5-56.9C1148.8,383.2,1151.9,357.7,1151.9,326.3z M1023.9,156.3h71
		v198.5h-71V156.3z M1023.9,624.8V411.7h71v213.1L1023.9,624.8z"/>
</g>
</svg>
