<?xml version="1.0" encoding="UTF-8" standalone="no"?>
<svg
   xmlns:dc="http://purl.org/dc/elements/1.1/"
   xmlns:cc="http://creativecommons.org/ns#"
   xmlns:rdf="http://www.w3.org/1999/02/22-rdf-syntax-ns#"
   xmlns:svg="http://www.w3.org/2000/svg"
   xmlns="http://www.w3.org/2000/svg"
   viewBox="0 0 320 234.66665"
   height="234.66666"
   width="320"
   xml:space="preserve"
   id="svg2"
   version="1.1"><metadata
     id="metadata8"><rdf:RDF><cc:Work
         rdf:about=""><dc:format>image/svg+xml</dc:format><dc:type
           rdf:resource="http://purl.org/dc/dcmitype/StillImage" /></cc:Work></rdf:RDF></metadata><defs
     id="defs6"><clipPath
       id="clipPath18"
       clipPathUnits="userSpaceOnUse"><path
         id="path16"
         d="M 0,256 H 256 V 0 H 0 Z" /></clipPath></defs><g
     transform="matrix(1.3333333,0,0,-1.3333333,-10.666133,287.99999)"
     id="g10"><g
       id="g12"><g
         clip-path="url(#clipPath18)"
         id="g14"><g
           transform="translate(163.6426,144)"
           id="g20"><path
             id="path22"
             style="fill:#ffffff;fill-opacity:1;fill-rule:nonzero;stroke:none"
             d="m 0,0 c 0.228,0.627 0.357,1.298 0.357,2 v 12 c 0,3.309 -2.751,6 -6.132,6 h -59.734 c -3.382,0 -6.134,-2.691 -6.134,-6 V 2 c 0,-0.702 0.131,-1.373 0.358,-2 h -80.358 v 56 4 4 c 0,2.209 1.791,4 4,4 h 20 v -8 h 4 v 8 h 4 v -8 h 4 v 8 h 4 v -8 h 4 v 8 h 4 v -8 h 4 v 8 h 4 v -8 h 4 v 8 h 4 v -8 h 4 v 8 h 4 v -8 h 4 v 8 h 4 v -8 h 4 v 8 h 4 v -8 h 4 v 8 h 4 v -8 h 4 v 8 h 4 v -8 h 4 v 8 h 4 v -8 h 4 v 8 h 4 v -8 h 4 v 8 h 4 v -8 h 4 v 8 h 4 v -8 h 4 v 8 h 4 v -8 h 4 v 8 h 4 v -8 h 4 v 8 h 4 v -8 h 4 v 8 h 4 v -8 h 4 v 8 h 4 v -8 h 4 v 8 h 4 v -8 h 4 v 8 h 4 v -8 h 4 v 8 h 4 v -8 h 4 v 8 h 24 c 2.209,0 4,-1.791 4,-4 V 60 56 0 Z m 80.357,-76 h -232 v 32 h 232 z m 0,-20 c 0,-2.209 -1.791,-4 -4,-4 h -224 c -2.209,0 -4,1.791 -4,4 v 4 h 232 z m -224,8 h -8 v 8 h 8 z m 16,0 h -12 v 8 h 12 z m 12,0 h -8 v 8 h 8 z m 16,0 h -12 v 8 h 12 z m 124,0 h -120 v 8 h 120 z m 16,0 h -12 v 8 h 12 z m 12,0 h -8 v 8 h 8 z m 16,0 h -12 v 8 h 12 z m 4,8 h 8 v -8 h -8 z M -65.509,-4 h 59.734 86.132 v -36 h -232 v 36 z m -2.134,6 v 12 c 0,1.104 0.955,2 2.134,2 h 59.734 c 1.177,0 2.132,-0.896 2.132,-2 V 2 c 0,-1.104 -0.955,-2 -2.132,-2 h -59.734 c -1.179,0 -2.134,0.896 -2.134,2 m 144,70 h -224 c -4.411,0 -8,-3.589 -8,-8 v -4 -4 -56 -4 -36 -4 -32 -4 -8 -4 -4 c 0,-4.411 3.589,-8 8,-8 h 224 c 4.412,0 8,3.589 8,8 v 4 4 8 4 32 4 36 4 56 4 4 c 0,4.411 -3.588,8 -8,8" /></g></g></g></g></svg>