<?xml version="1.0" encoding="UTF-8"?>
<svg xmlns="http://www.w3.org/2000/svg" xmlns:xlink="http://www.w3.org/1999/xlink" width="30px" height="30px" viewBox="0 0 30 24" version="1.1">
<g id="surface1">
<path style="fill-rule:nonzero;fill:rgb(36.470588%,65.882353%,86.27451%);fill-opacity:1;stroke-width:0.5;stroke-linecap:butt;stroke-linejoin:miter;stroke:rgb(36.470588%,65.882353%,86.27451%);stroke-opacity:1;stroke-miterlimit:4;" d="M 741.035218 0.190186 L 741.035218 0.043457 L 793.051235 0.043457 L 811.979286 3.858398 C 824.694312 6.206055 836.108938 9.434082 846.512142 13.54248 C 856.770856 17.50415 866.885082 22.199463 876.565841 27.481689 C 886.102111 32.763916 894.915936 38.3396 902.862827 43.768555 C 910.66523 49.19751 917.600699 55.06665 923.813723 61.229248 C 929.882259 67.391846 939.563017 69.005859 952.567022 66.071289 C 965.571026 62.98999 979.441964 58.881592 994.468813 53.452637 C 1009.495663 48.17041 1024.378023 42.154541 1038.971406 35.551758 C 1053.709278 28.802246 1062.667592 24.547119 1065.846348 22.786377 C 1068.880616 20.878906 1070.614483 19.998535 1070.758972 19.851807 L 1071.04795 19.55835 L 1072.059373 18.971436 L 1073.070795 18.53125 L 1073.937729 17.944336 L 1074.949151 17.50415 L 1075.238129 17.210693 L 1075.527107 17.063965 L 1075.816085 16.770508 L 1075.960574 16.477051 L 1076.971997 16.183594 L 1077.983419 16.036865 L 1077.83893 17.50415 L 1077.549952 18.971436 L 1076.971997 20.438721 L 1076.53853 22.052734 L 1075.960574 22.933105 L 1075.527107 23.960205 L 1074.949151 25.42749 C 1074.660174 26.45459 1074.371196 27.775146 1073.937729 29.535889 C 1073.648751 31.149902 1070.469994 37.899414 1064.545948 49.490967 C 1058.477413 61.229248 1050.963988 72.967529 1042.005674 84.999268 C 1033.04736 97.031006 1024.955979 106.128174 1017.731532 112.144043 C 1010.651574 118.453369 1005.88344 122.708496 1003.571617 125.202881 C 1001.115305 127.697266 998.370015 130.044922 995.046769 132.24585 L 989.989656 135.473877 L 988.978234 136.060791 L 987.966811 136.500977 L 987.822322 136.794434 L 987.533344 136.941162 L 986.955389 137.528076 L 985.943966 137.968262 L 984.932544 138.555176 L 984.788055 138.848633 L 984.210099 139.14209 L 984.06561 139.435547 L 983.487654 140.022461 L 983.198676 140.169189 L 983.054187 140.462646 L 987.966811 140.462646 L 1015.997665 134.446777 C 1034.636738 130.485107 1052.553366 125.643066 1069.458572 120.067383 L 1096.478003 110.970215 L 1099.512271 109.943115 L 1100.95716 109.50293 L 1101.968583 109.062744 L 1102.980005 108.47583 L 1103.991428 108.035645 L 1105.00285 107.44873 L 1107.025695 107.155273 L 1109.048541 107.008545 L 1109.048541 109.062744 L 1108.470585 109.209473 L 1108.037118 109.50293 L 1107.74814 109.796387 L 1107.459162 109.943115 L 1107.170184 110.236572 L 1107.025695 110.530029 L 1106.736718 110.823486 L 1106.44774 110.970215 L 1106.158762 111.263672 L 1105.869784 111.850586 L 1105.436317 111.997314 L 1104.569384 114.051514 L 1104.135917 114.198242 C 1104.135917 114.344971 1099.801249 120.067383 1091.565379 131.21875 C 1083.185021 142.370117 1078.705864 148.092529 1077.983419 148.239258 C 1077.405463 148.385986 1076.394041 149.413086 1075.238129 151.173828 C 1074.082218 153.081299 1067.00226 160.564453 1053.998256 173.476562 C 1040.994251 186.5354 1028.279225 198.126953 1015.853176 208.251221 C 1003.282639 218.375488 996.925125 230.994141 996.780636 245.813721 C 996.636148 260.633301 995.769214 277.360352 994.468813 295.994873 C 993.168413 314.629395 990.712101 334.87793 986.955389 356.447021 C 983.343165 378.162842 977.708097 402.666504 970.050183 429.958008 C 962.392269 457.39624 953.000489 483.954102 942.019329 510.071777 C 931.03817 536.042725 919.479055 559.372559 907.486473 580.061279 C 895.493892 600.603271 884.512732 618.210693 874.542996 632.443359 C 864.42877 646.822754 854.314544 660.321777 844.05583 672.94043 C 833.652626 685.705811 820.648622 699.938477 804.754839 715.785156 C 789.005545 731.631836 780.336209 740.288818 778.74683 741.756104 C 777.301941 743.223389 770.799939 748.799072 759.240824 758.189697 C 747.681709 767.727051 735.400149 777.264404 722.251656 786.801758 C 709.103163 796.339111 696.966092 804.115723 685.984933 810.571777 C 675.003774 816.881104 661.710791 824.070801 646.250475 832.140869 C 630.790159 840.357666 614.029442 847.987549 595.968325 855.030518 C 578.051697 861.926758 558.979157 868.529541 539.039684 874.54541 C 518.955721 880.561279 499.738693 885.109863 480.955131 888.484619 C 462.316058 891.859375 441.220673 894.647217 417.524488 896.994873 L 381.980209 900.516357 L 381.980209 900.956543 L 316.960187 900.956543 L 316.960187 900.516357 L 308.43534 899.929443 C 302.800272 899.635986 298.176626 899.342529 294.564402 899.049072 C 290.80769 898.608887 276.936752 896.848145 252.951588 893.473389 C 228.966425 890.098633 210.182863 886.870605 196.456414 883.49585 C 182.874454 880.121094 162.501514 873.811768 135.482082 864.567871 C 108.462651 855.177246 85.344421 845.786621 66.271882 836.249268 C 47.054853 826.711914 35.062271 820.696045 30.149647 818.20166 C 25.381512 815.707275 20.035422 812.625977 13.966886 808.957764 L 5.008572 803.528809 L 4.864083 803.235352 L 4.430616 802.941895 L 4.141639 802.795166 L 3.99715 802.501709 L 2.985727 802.061523 L 1.974305 801.474609 L 1.829816 801.181152 L 1.540838 801.034424 L 0.962882 800.44751 L 0.818393 800.154053 L 0.529415 800.007324 L -0.0485406 800.007324 L -0.0485406 797.953125 L 1.974305 798.540039 L 6.453462 798.980225 C 9.487729 799.273682 17.723599 799.860596 31.016581 800.44751 C 44.309563 801.181152 58.469479 801.181152 73.496328 800.44751 C 88.523178 799.860596 103.839005 798.393311 119.44381 796.045654 C 135.193105 793.697998 153.687688 789.736328 175.072051 784.013916 C 196.311925 778.291504 215.96242 771.541992 233.73456 763.765381 C 251.651188 755.98877 264.221725 750.119629 271.73515 746.157959 C 279.248575 742.343018 290.663201 735.300049 305.979028 725.029053 L 328.952769 709.47583 L 329.241747 709.182373 L 329.530725 709.035645 L 329.819703 708.742187 L 329.964192 708.44873 L 330.25317 708.155273 L 330.831125 707.861816 L 330.975614 707.568359 L 331.987037 707.128174 L 332.998459 706.981445 L 333.142948 705.954346 L 333.431926 704.927246 L 333.865393 704.780518 L 334.009882 704.487061 L 326.06299 704.046875 C 320.7169 703.606689 315.515298 703.313232 310.458185 703.019775 C 305.545561 702.726318 297.59867 701.112305 287.050977 698.471191 C 276.358796 695.830078 264.799681 691.868408 252.518121 686.439453 C 240.236562 681.157227 228.099491 674.8479 216.540376 667.511475 C 204.836772 660.175049 196.456414 654.012451 191.254812 649.17041 C 186.05321 644.328369 179.406719 637.578857 171.17085 628.775146 C 163.079469 619.971436 155.999511 610.874268 149.930976 601.483643 C 144.00693 592.239746 138.227372 581.381836 132.736793 569.203369 L 124.500923 551.009033 L 124.067456 549.541748 L 123.489501 547.927734 L 123.200523 547.047363 L 123.056034 546.020264 L 124.500923 546.166992 L 125.945813 546.460449 L 137.071461 547.927734 C 144.295908 548.954834 155.855023 549.39502 171.459828 548.954834 C 187.209122 548.661377 198.045792 547.927734 203.969839 547.047363 C 210.038374 546.020264 213.650597 545.286621 214.950998 544.993164 L 216.973843 544.552979 L 219.430155 543.966064 L 222.030956 543.525879 L 222.175445 543.232422 L 222.464423 542.938965 L 222.7534 542.792236 L 223.042378 542.498779 L 221.019533 542.058594 L 218.996688 541.47168 L 216.973843 541.031494 L 214.950998 540.44458 L 212.928153 540.004395 C 211.627752 539.710937 209.315929 538.977295 205.992684 537.950195 C 202.669438 537.069824 193.711124 533.401611 178.973252 526.945557 C 164.37987 520.63623 152.676266 514.473633 144.00693 508.457764 C 135.337593 502.441895 126.957235 495.839111 119.154833 488.796143 C 111.35243 481.606445 102.827583 472.362549 93.435802 461.064453 C 84.18851 449.619629 75.808151 436.560791 68.439216 421.447754 C 61.214769 406.481445 55.724189 392.102051 51.967477 378.456299 C 48.355253 364.957275 45.898941 351.018066 44.74303 336.932129 L 43.009163 315.949951 L 45.032008 316.536865 L 46.04343 316.977051 L 47.054853 317.563965 L 48.066275 318.00415 L 48.933209 318.444336 L 64.538014 325.487305 C 74.796729 330.182617 87.656244 334.144287 102.972072 337.519043 C 118.287899 340.893799 127.535191 342.654541 130.569459 342.947998 L 135.048616 343.534912 L 144.00693 343.534912 L 143.862441 343.241455 L 143.428974 342.947998 L 143.139996 342.80127 L 142.851018 342.214355 L 142.56204 342.067627 L 142.128574 341.77417 L 141.984085 341.480713 L 140.972662 341.040527 L 139.961239 340.453613 L 139.816751 340.160156 L 139.238795 339.866699 L 138.949817 339.573242 L 137.938394 338.986328 L 137.071461 338.546143 L 136.782483 338.252686 C 136.637994 338.105957 133.748215 335.905029 128.257636 331.796631 C 122.767056 327.541504 116.987498 322.112549 111.063452 315.509766 C 104.994917 308.760254 99.07087 301.864014 93.002335 294.527588 C 86.9338 287.191162 81.587709 279.267822 76.964063 271.051025 C 72.340417 262.6875 67.427793 252.123047 62.226191 239.210937 C 57.02459 226.445557 53.123388 213.533447 50.522587 200.474609 C 47.777298 187.5625 46.332408 174.650391 46.04343 162.031738 C 45.609964 149.266357 46.04343 138.555176 47.054853 129.458008 C 48.066275 120.507568 49.944632 110.383301 52.978899 98.938477 C 56.013167 87.640381 60.347835 75.608643 65.982904 62.98999 L 74.507751 44.062012 L 74.941218 42.447998 L 75.519174 40.980713 L 75.808151 40.833984 L 75.95264 40.540527 L 76.530596 39.953613 L 76.819574 40.24707 L 76.964063 40.540527 L 77.253041 40.833984 L 77.830997 41.127441 L 77.975485 41.567627 L 78.264463 41.861084 L 78.553441 42.007812 L 78.986908 43.034912 L 79.564864 44.062012 L 79.853842 44.20874 L 79.998331 44.502197 L 93.435802 59.468506 C 102.538605 69.446045 113.230786 80.597412 125.512346 93.069336 C 137.793905 105.394531 144.729374 111.703857 146.029775 112.144043 C 147.330175 112.730957 149.064042 114.198242 150.942399 116.839355 C 152.965244 119.33374 159.611735 125.202881 171.026361 134.446777 C 182.296498 143.837402 197.178859 154.695312 215.528954 167.020508 C 233.879049 179.345703 254.1075 191.52417 276.503285 203.555908 C 298.89907 215.440918 322.884234 226.298828 348.458776 235.98291 C 374.177806 245.666992 392.238924 251.976318 402.497638 255.057617 C 412.900842 257.992187 430.528492 261.807129 455.525078 266.502441 C 480.521664 271.197754 499.305226 274.132324 512.020252 275.452881 C 524.735279 276.773437 533.404615 277.653809 538.028261 277.800537 L 544.96373 277.947266 L 544.819241 276.47998 L 544.530263 275.012695 L 542.507418 262.540771 C 541.207018 254.177246 540.484573 242.438965 540.484573 227.472656 C 540.484573 212.506348 541.640485 198.713867 543.952308 185.948486 C 546.264131 173.329834 549.876354 160.564453 554.5 147.505615 C 559.123646 134.446777 563.747292 124.029053 568.226449 116.252441 C 572.705606 108.329102 578.629652 99.525391 585.998588 89.547852 C 593.367524 79.570312 602.903794 69.152588 614.462909 58.441406 C 626.166513 47.876953 639.459495 38.3396 654.486344 29.976074 C 669.513194 21.612549 683.384132 15.303223 695.954669 11.048096 C 708.669696 6.64624 719.361877 3.858398 728.031213 2.537842 C 736.70055 1.217285 741.035218 0.336914 741.035218 0.190186 Z M 741.035218 0.190186 " transform="matrix(0.0270349,0,0,0.0266223,0.00912479,0.00665557)"/>
<path style="fill-rule:nonzero;fill:rgb(100%,100%,100%);fill-opacity:1;stroke-width:0.5;stroke-linecap:butt;stroke-linejoin:miter;stroke:rgb(100%,100%,100%);stroke-opacity:1;stroke-miterlimit:4;" d="M -0.0485406 398.998291 L -0.0485406 0.043457 L 741.035218 0.043457 L 741.035218 0.190186 C 741.035218 0.336914 736.70055 1.217285 728.031213 2.537842 C 719.361877 3.858398 708.669696 6.64624 695.954669 11.048096 C 683.384132 15.303223 669.513194 21.612549 654.486344 29.976074 C 639.459495 38.3396 626.166513 47.876953 614.462909 58.441406 C 602.903794 69.152588 593.367524 79.570312 585.998588 89.547852 C 578.629652 99.525391 572.705606 108.329102 568.226449 116.252441 C 563.747292 124.029053 559.123646 134.446777 554.5 147.505615 C 549.876354 160.564453 546.264131 173.329834 543.952308 185.948486 C 541.640485 198.713867 540.484573 212.506348 540.484573 227.472656 C 540.484573 242.438965 541.207018 254.177246 542.507418 262.540771 L 544.530263 275.012695 L 544.819241 276.47998 L 544.96373 277.947266 L 538.028261 277.800537 C 533.404615 277.653809 524.735279 276.773437 512.020252 275.452881 C 499.305226 274.132324 480.521664 271.197754 455.525078 266.502441 C 430.528492 261.807129 412.900842 257.992187 402.497638 255.057617 C 392.238924 251.976318 374.177806 245.666992 348.458776 235.98291 C 322.884234 226.298828 298.89907 215.440918 276.503285 203.555908 C 254.1075 191.52417 233.879049 179.345703 215.528954 167.020508 C 197.178859 154.695312 182.296498 143.837402 171.026361 134.446777 C 159.611735 125.202881 152.965244 119.33374 150.942399 116.839355 C 149.064042 114.198242 147.330175 112.730957 146.029775 112.144043 C 144.729374 111.703857 137.793905 105.394531 125.512346 93.069336 C 113.230786 80.597412 102.538605 69.446045 93.435802 59.468506 L 79.998331 44.502197 L 79.853842 44.20874 L 79.564864 44.062012 L 78.986908 43.034912 L 78.553441 42.007812 L 78.264463 41.861084 L 77.975485 41.567627 L 77.830997 41.127441 L 77.253041 40.833984 L 76.964063 40.540527 L 76.819574 40.24707 L 76.530596 39.953613 L 75.95264 40.540527 L 75.808151 40.833984 L 75.519174 40.980713 L 74.941218 42.447998 L 74.507751 44.062012 L 65.982904 62.98999 C 60.347835 75.608643 56.013167 87.640381 52.978899 98.938477 C 49.944632 110.383301 48.066275 120.507568 47.054853 129.458008 C 46.04343 138.555176 45.609964 149.266357 46.04343 162.031738 C 46.332408 174.650391 47.777298 187.5625 50.522587 200.474609 C 53.123388 213.533447 57.02459 226.445557 62.226191 239.210937 C 67.427793 252.123047 72.340417 262.6875 76.964063 271.051025 C 81.732198 279.267822 86.9338 287.191162 93.002335 294.527588 C 99.07087 301.864014 104.994917 308.760254 111.063452 315.509766 C 116.987498 322.112549 122.767056 327.541504 128.257636 331.796631 C 133.748215 335.905029 136.637994 338.105957 136.782483 338.252686 L 137.071461 338.546143 L 137.938394 338.986328 L 138.949817 339.573242 L 139.238795 339.866699 L 139.816751 340.160156 L 139.961239 340.453613 L 140.972662 341.040527 L 141.984085 341.480713 L 142.128574 341.77417 L 142.56204 342.067627 L 142.851018 342.214355 L 143.139996 342.80127 L 143.428974 342.947998 L 143.862441 343.241455 L 144.00693 343.534912 L 135.048616 343.534912 L 130.569459 342.947998 C 127.535191 342.654541 118.287899 340.893799 102.972072 337.519043 C 87.656244 334.144287 74.796729 330.182617 64.538014 325.487305 L 48.933209 318.444336 L 48.066275 318.00415 L 47.054853 317.563965 L 46.04343 316.977051 L 45.032008 316.536865 L 43.009163 315.949951 L 44.74303 336.932129 C 45.898941 351.018066 48.355253 364.810547 51.967477 378.456299 C 55.724189 392.102051 61.214769 406.481445 68.439216 421.447754 C 75.808151 436.560791 84.18851 449.619629 93.435802 461.064453 C 102.827583 472.362549 111.35243 481.606445 119.154833 488.796143 C 126.957235 495.839111 135.337593 502.441895 144.00693 508.457764 C 152.676266 514.473633 164.37987 520.63623 178.973252 526.945557 C 193.711124 533.401611 202.669438 537.069824 205.992684 537.950195 C 209.315929 538.977295 211.627752 539.710937 212.928153 540.004395 L 214.950998 540.44458 L 216.973843 541.031494 L 218.996688 541.47168 L 221.019533 542.058594 L 223.042378 542.498779 L 222.7534 542.792236 L 222.464423 542.938965 L 222.175445 543.232422 L 222.030956 543.525879 L 219.430155 543.966064 L 216.973843 544.552979 L 214.950998 544.993164 C 213.650597 545.286621 210.038374 546.020264 203.969839 547.047363 C 198.045792 547.927734 187.209122 548.661377 171.459828 548.954834 C 155.855023 549.39502 144.295908 548.954834 137.071461 547.927734 L 125.945813 546.460449 L 124.500923 546.166992 L 123.056034 546.020264 L 123.200523 547.047363 L 123.489501 547.927734 L 124.067456 549.541748 L 124.500923 551.009033 L 132.736793 569.203369 C 138.227372 581.381836 144.00693 592.239746 149.930976 601.483643 C 155.999511 610.874268 163.079469 619.971436 171.17085 628.775146 C 179.406719 637.578857 186.05321 644.328369 191.254812 649.17041 C 196.456414 654.012451 204.836772 660.175049 216.540376 667.511475 C 228.099491 674.8479 240.236562 681.157227 252.518121 686.439453 C 264.799681 691.868408 276.358796 695.830078 287.050977 698.471191 C 297.59867 701.112305 305.545561 702.726318 310.458185 703.019775 C 315.515298 703.313232 320.7169 703.606689 326.06299 704.046875 L 334.009882 704.487061 L 333.865393 704.780518 L 333.431926 704.927246 L 333.142948 705.954346 L 332.998459 706.981445 L 331.987037 707.128174 L 330.975614 707.568359 L 330.831125 707.861816 L 330.25317 708.155273 L 329.964192 708.44873 L 329.819703 708.742187 L 329.530725 709.035645 L 329.241747 709.182373 L 328.952769 709.47583 L 305.979028 725.029053 C 290.663201 735.300049 279.248575 742.343018 271.73515 746.157959 C 264.221725 750.119629 251.651188 755.98877 233.73456 763.765381 C 215.96242 771.541992 196.311925 778.291504 175.072051 784.013916 C 153.687688 789.736328 135.193105 793.697998 119.44381 796.045654 C 103.839005 798.393311 88.523178 799.860596 73.496328 800.44751 C 58.469479 801.181152 44.309563 801.181152 31.016581 800.44751 C 17.723599 799.860596 9.487729 799.273682 6.453462 798.980225 L 1.974305 798.540039 L -0.0485406 797.953125 Z M 1107.74814 109.796387 L 1108.037118 109.50293 L 1108.470585 109.209473 L 1109.048541 109.062744 L 1109.048541 900.956543 L 381.980209 900.956543 L 381.980209 900.516357 L 417.524488 896.994873 C 441.220673 894.647217 462.316058 891.859375 480.955131 888.484619 C 499.738693 885.109863 518.955721 880.561279 539.039684 874.54541 C 558.979157 868.529541 578.051697 861.926758 595.968325 855.030518 C 614.029442 847.987549 630.790159 840.357666 646.250475 832.140869 C 661.710791 824.070801 675.003774 816.881104 685.984933 810.571777 C 696.966092 804.115723 709.103163 796.339111 722.251656 786.801758 C 735.400149 777.264404 747.681709 767.727051 759.240824 758.189697 C 770.799939 748.799072 777.301941 743.223389 778.74683 741.756104 C 780.336209 740.288818 789.005545 731.631836 804.754839 715.785156 C 820.648622 699.938477 833.652626 685.705811 844.05583 672.94043 C 854.314544 660.321777 864.42877 646.822754 874.542996 632.443359 C 884.512732 618.210693 895.493892 600.603271 907.486473 580.061279 C 919.479055 559.372559 931.03817 536.042725 942.019329 510.071777 C 953.000489 483.954102 962.392269 457.39624 970.050183 429.958008 C 977.708097 402.666504 983.343165 378.162842 986.955389 356.447021 C 990.712101 334.87793 993.168413 314.629395 994.468813 295.994873 C 995.769214 277.360352 996.636148 260.633301 996.780636 245.813721 C 996.925125 230.994141 1003.282639 218.375488 1015.853176 208.251221 C 1028.279225 198.126953 1040.994251 186.5354 1053.998256 173.476562 C 1067.00226 160.564453 1074.082218 153.081299 1075.238129 151.173828 C 1076.394041 149.413086 1077.405463 148.385986 1077.983419 148.239258 C 1078.705864 148.092529 1083.185021 142.370117 1091.565379 131.21875 C 1099.801249 120.067383 1104.135917 114.344971 1104.135917 114.198242 L 1104.569384 114.051514 L 1105.436317 111.997314 L 1105.869784 111.850586 L 1106.158762 111.263672 L 1106.44774 110.970215 L 1106.736718 110.823486 L 1107.025695 110.530029 L 1107.170184 110.236572 L 1107.459162 109.943115 Z M 811.979286 3.858398 L 793.051235 0.043457 L 1109.048541 0.043457 L 1109.048541 107.008545 L 1107.025695 107.155273 L 1105.00285 107.44873 L 1103.991428 108.035645 L 1102.980005 108.47583 L 1101.968583 109.062744 L 1100.95716 109.50293 L 1099.512271 109.943115 L 1096.478003 110.970215 L 1069.458572 120.067383 C 1052.553366 125.643066 1034.636738 130.485107 1015.997665 134.446777 L 987.966811 140.462646 L 983.054187 140.462646 L 983.198676 140.169189 L 983.487654 140.022461 L 984.06561 139.435547 L 984.210099 139.14209 L 984.788055 138.848633 L 984.932544 138.555176 L 985.943966 137.968262 L 986.955389 137.528076 L 987.533344 136.941162 L 987.822322 136.794434 L 987.966811 136.500977 L 988.978234 136.060791 L 989.989656 135.473877 L 995.046769 132.24585 C 998.370015 130.044922 1001.115305 127.697266 1003.571617 125.202881 C 1005.88344 122.708496 1010.651574 118.453369 1017.731532 112.144043 C 1024.955979 106.128174 1033.04736 97.031006 1042.005674 84.999268 C 1050.963988 72.967529 1058.477413 61.229248 1064.545948 49.490967 C 1070.469994 37.899414 1073.648751 31.149902 1073.937729 29.535889 C 1074.371196 27.775146 1074.660174 26.45459 1074.949151 25.42749 L 1075.527107 23.960205 L 1075.960574 22.933105 L 1076.53853 22.052734 L 1076.971997 20.438721 L 1077.549952 18.971436 L 1077.83893 17.50415 L 1077.983419 16.036865 L 1076.971997 16.183594 L 1075.960574 16.477051 L 1075.816085 16.770508 L 1075.527107 17.063965 L 1075.238129 17.210693 L 1074.949151 17.50415 L 1073.937729 17.944336 L 1073.070795 18.53125 L 1072.059373 18.971436 L 1071.04795 19.55835 L 1070.758972 19.851807 C 1070.614483 19.998535 1068.880616 20.878906 1065.846348 22.786377 C 1062.667592 24.547119 1053.709278 28.802246 1038.971406 35.551758 C 1024.378023 42.154541 1009.495663 48.17041 994.468813 53.452637 C 979.441964 58.881592 965.571026 62.98999 952.567022 66.071289 C 939.563017 69.005859 929.882259 67.391846 923.813723 61.229248 C 917.600699 55.06665 910.66523 49.19751 902.862827 43.768555 C 894.915936 38.3396 886.102111 32.763916 876.565841 27.481689 C 866.885082 22.199463 856.770856 17.50415 846.512142 13.54248 C 836.108938 9.434082 824.694312 6.206055 811.979286 3.858398 Z M -0.0485406 850.481934 L -0.0485406 800.007324 L 0.529415 800.007324 L 0.818393 800.154053 L 0.962882 800.44751 L 1.540838 801.034424 L 1.829816 801.181152 L 1.974305 801.474609 L 2.985727 802.061523 L 3.99715 802.501709 L 4.141639 802.795166 L 4.430616 802.941895 L 4.864083 803.235352 L 5.008572 803.528809 L 13.966886 808.957764 C 20.035422 812.625977 25.381512 815.707275 30.149647 818.20166 C 35.062271 820.696045 47.054853 826.711914 66.271882 836.249268 C 85.344421 845.786621 108.462651 855.177246 135.482082 864.567871 C 162.501514 873.811768 182.874454 880.121094 196.456414 883.49585 C 210.182863 886.870605 228.966425 890.098633 252.951588 893.473389 C 276.936752 896.848145 290.80769 898.608887 294.564402 899.049072 C 298.176626 899.342529 302.800272 899.635986 308.43534 899.929443 L 316.960187 900.516357 L 316.960187 900.956543 L -0.0485406 900.956543 Z M -0.0485406 850.481934 " transform="matrix(0.0270349,0,0,0.0266223,0.00912479,0.00665557)"/>
</g>
</svg>
