<?xml version="1.0" encoding="UTF-8"?>
<svg xmlns="http://www.w3.org/2000/svg" xmlns:xlink="http://www.w3.org/1999/xlink" width="25px" height="25px" viewBox="0 0 25 25" version="1.1">
<g id="surface1">
<path style=" stroke:none;fill-rule:nonzero;fill:rgb(100%,34.901961%,0%);fill-opacity:1;" d="M 0 12.167969 C 0 6.539062 4.730469 1.261719 10.964844 0.507812 C 15.4375 0.0078125 18.816406 1.664062 21.152344 3.824219 C 23.332031 5.835938 24.636719 8.398438 24.945312 11.414062 C 25.207031 14.429688 24.53125 17.042969 22.710938 19.503906 C 20.890625 21.917969 17.308594 24.582031 12.839844 24.582031 L 6.757812 24.582031 L 6.757812 12.972656 C 6.808594 10.410156 7.691406 8.195312 10.914062 7.140625 C 13.722656 6.339844 16.996094 7.84375 17.980469 10.710938 C 19.019531 13.777344 17.511719 15.835938 15.75 17.09375 C 13.980469 18.347656 11.226562 18.347656 9.40625 17.144531 L 9.40625 21.113281 C 10.601562 21.667969 12.109375 21.820312 13.199219 21.769531 C 17.152344 21.214844 20.21875 19.050781 21.515625 15.789062 C 22.867188 12.316406 21.933594 8.296875 19.128906 5.785156 C 15.75 3.121094 12.058594 2.46875 8.109375 4.328125 C 5.355469 5.6875 3.429688 8.449219 2.960938 11.464844 L 2.960938 24.582031 L 0.0507812 24.582031 Z M 0 12.167969 "/>
</g>
</svg>
