<?xml version="1.0" encoding="utf-8"?>
<!-- Generator: Adobe Illustrator 26.0.3, SVG Export Plug-In . SVG Version: 6.00 Build 0)  -->
<svg version="1.1" id="Layer_1" xmlns="http://www.w3.org/2000/svg" xmlns:xlink="http://www.w3.org/1999/xlink" x="0px" y="0px"
	 viewBox="0 0 3839 1695.3" style="enable-background:new 0 0 3839 1695.3;" xml:space="preserve">
<style type="text/css">
	.st0{fill:#FFFFFF;}
	.st1{fill:#FFA300;}
	.st2{fill:#D60700;}
	.st3{enable-background:new    ;}
	.st4{fill:#034693;}
	.st5{fill:none;stroke:#FFFFFF;stroke-width:11.9686;stroke-miterlimit:10;}
	
		.st6{clip-path:url(#SVGID_00000003076291097580312180000014120287485804912518_);fill:none;stroke:#FFFFFF;stroke-width:11.9686;stroke-miterlimit:10;}
	
		.st7{clip-path:url(#SVGID_00000119809825634619797460000016653082877284813713_);fill:none;stroke:#FFFFFF;stroke-width:11.9686;stroke-miterlimit:10;}
	
		.st8{clip-path:url(#SVGID_00000142163465206897492390000003926422187965787557_);fill:none;stroke:#FFFFFF;stroke-width:11.9686;stroke-miterlimit:10;}
	
		.st9{clip-path:url(#SVGID_00000027575922072158901480000002314333830931182501_);fill:none;stroke:#FFFFFF;stroke-width:11.9686;stroke-miterlimit:10;}
	
		.st10{clip-path:url(#SVGID_00000018238903502999142520000004524646809621165489_);fill:none;stroke:#FFFFFF;stroke-width:11.9686;stroke-miterlimit:10;}
	
		.st11{clip-path:url(#SVGID_00000054974420809075047930000006688293437976770467_);fill:none;stroke:#FFFFFF;stroke-width:11.9686;stroke-miterlimit:10;}
	.st12{fill:none;stroke:#000000;stroke-width:11.9686;stroke-miterlimit:10;}
	
		.st13{clip-path:url(#SVGID_00000044861154007736953160000009558504757353737371_);fill:none;stroke:#000000;stroke-width:11.9686;stroke-miterlimit:10;}
	
		.st14{clip-path:url(#SVGID_00000067924566786406590770000009239703951001147542_);fill:none;stroke:#000000;stroke-width:11.9686;stroke-miterlimit:10;}
	
		.st15{clip-path:url(#SVGID_00000029747919051033537950000013815898348189217422_);fill:none;stroke:#000000;stroke-width:11.9686;stroke-miterlimit:10;}
	
		.st16{clip-path:url(#SVGID_00000083808878459024484070000008870077528660273326_);fill:none;stroke:#000000;stroke-width:11.9686;stroke-miterlimit:10;}
	
		.st17{clip-path:url(#SVGID_00000128478652903814864040000004854168113080502458_);fill:none;stroke:#000000;stroke-width:11.9686;stroke-miterlimit:10;}
	
		.st18{clip-path:url(#SVGID_00000075157356708946485570000002362965481075004331_);fill:none;stroke:#000000;stroke-width:11.9686;stroke-miterlimit:10;}
	.st19{fill:none;}
</style>
<g>
	<g>
		<rect x="0" y="1429.1" class="st4" width="3839" height="266.2"/>
		<g>
			<g>
				<path class="st0" d="M228.6,1631.9c-5.8,3.4-9.1,4.1-15.7,4.1c-38.4,0-43.5-41.8-43.5-71.3s3.7-76.3,43.1-76.3
					c6.7,0,10.3,1.1,16.2,4.3v17.5c-3.9-2.2-8-3.7-12.5-3.7c-26.1,0-26.3,38.8-26.3,57.1c0,18.8,1.5,53.5,27.4,53.5
					c4.3,0,7.5-0.9,11.4-2.8V1631.9z"/>
				<path class="st0" d="M352.1,1598.7c-3.4,21.1-11,37.3-34.9,37.3c-12.3,0-22.8-5.2-28.9-16.2c-8.2-14.9-8.8-44-8.8-61
					c0-16.8,0.4-37.5,7.8-52.8c6-12.5,15.7-17.5,29.5-17.5c12.1,0,22,4.7,28.2,15.3c8.8,15.3,9.3,43.3,9.3,61
					C354.3,1576.3,353.8,1587.5,352.1,1598.7z M331,1519.6c-1.7-7.8-5.6-13.6-14.2-13.6c-5.2,0-8.4,1.9-11.2,6
					c-5.8,8.2-5.8,31.7-5.8,41.8c0,15.1-0.4,30.6,1.9,45.5c1.5,8.8,4.5,18.8,15.3,18.8c6.9,0,11-4.1,13.4-10.3
					c3.9-11,3.7-35.8,3.7-48.3C334,1546.4,334,1532.6,331,1519.6z"/>
				<path class="st0" d="M412.2,1634.1v-143.8h19.4v127.4h31.7v16.4H412.2z"/>
				<path class="st0" d="M579.5,1598.7c-3.4,21.1-11,37.3-34.9,37.3c-12.3,0-22.8-5.2-28.9-16.2c-8.2-14.9-8.8-44-8.8-61
					c0-16.8,0.4-37.5,7.8-52.8c6-12.5,15.7-17.5,29.5-17.5c12.1,0,22,4.7,28.2,15.3c8.8,15.3,9.3,43.3,9.3,61
					C581.6,1576.3,581.2,1587.5,579.5,1598.7z M558.4,1519.6c-1.7-7.8-5.6-13.6-14.2-13.6c-5.2,0-8.4,1.9-11.2,6
					c-5.8,8.2-5.8,31.7-5.8,41.8c0,15.1-0.4,30.6,1.9,45.5c1.5,8.8,4.5,18.8,15.3,18.8c6.9,0,11-4.1,13.4-10.3
					c3.9-11,3.7-35.8,3.7-48.3C561.4,1546.4,561.4,1532.6,558.4,1519.6z"/>
				<path class="st0" d="M685.3,1634.1l-26.3-67v67h-19.4v-143.8h25.7c7.8,0,14.4,0.4,20.9,5.4c9.7,7.3,12.3,20.7,12.3,32.1
					c0,14-3.9,32.5-20.7,36.4l27.4,69.8H685.3z M659,1554.1c5,0,10.1-0.2,14-3.4c5.4-4.5,6.7-12.7,6.7-19.4c0-5.8-0.9-13.8-3.9-19
					c-3.2-5.4-8-6-13.6-6H659V1554.1z"/>
			</g>
			<g>
				<path class="st0" d="M860.8,1490.3c8,0,14,0.2,21.1,4.5c11.9,7.1,14.2,22.8,14.2,35.6c0,11.9-2.6,25.6-12.5,33.4
					c-8.2,6.3-19,6.5-28.9,6.5v63.8h-19.4v-143.8H860.8z M856.5,1553.7c15.7,0,19.4-8.6,19.4-22.8c0-12.9-3.4-24.1-18.5-24.1h-2.6
					v47H856.5z"/>
				<path class="st0" d="M1019.7,1598.7c-3.4,21.1-11,37.3-34.9,37.3c-12.3,0-22.8-5.2-28.9-16.2c-8.2-14.9-8.8-44-8.8-61
					c0-16.8,0.4-37.5,7.8-52.8c6-12.5,15.7-17.5,29.5-17.5c12.1,0,22,4.7,28.2,15.3c8.8,15.3,9.3,43.3,9.3,61
					C1021.8,1576.3,1021.4,1587.5,1019.7,1598.7z M998.6,1519.6c-1.7-7.8-5.6-13.6-14.2-13.6c-5.2,0-8.4,1.9-11.2,6
					c-5.8,8.2-5.8,31.7-5.8,41.8c0,15.1-0.4,30.6,1.9,45.5c1.5,8.8,4.5,18.8,15.3,18.8c6.9,0,11-4.1,13.4-10.3
					c3.9-11,3.7-35.8,3.7-48.3C1001.6,1546.4,1001.6,1532.6,998.6,1519.6z"/>
				<path class="st0" d="M1125.5,1634.1l-26.3-67v67h-19.4v-143.8h25.7c7.8,0,14.4,0.4,20.9,5.4c9.7,7.3,12.3,20.7,12.3,32.1
					c0,14-3.9,32.5-20.7,36.4l27.4,69.8H1125.5z M1099.2,1554.1c5,0,10.1-0.2,14-3.4c5.4-4.5,6.7-12.7,6.7-19.4
					c0-5.8-0.9-13.8-3.9-19c-3.2-5.4-8-6-13.6-6h-3.2V1554.1z"/>
				<path class="st0" d="M1228.5,1507.4v126.7h-19v-126.7h-22v-17h62.9v17H1228.5z"/>
				<path class="st0" d="M1342.5,1634.1l-5.4-28h-28.5l-5.4,28h-18.8l31.3-143.8h15.3l30.6,143.8H1342.5z M1334.4,1591.2
					c-4.3-24.1-8.6-48.5-11.2-72.9c-2.4,24.6-7.1,48.7-11.6,72.9H1334.4z"/>
				<path class="st0" d="M1438,1490.3c24.1,0,30.8,17,30.8,38.4c0,8-0.9,16.6-5.4,23.5c-3.2,5-7.1,6.9-12.7,8.8
					c4.5,1.7,9.3,3.9,12.7,7.5c6.3,6.7,7.5,17.2,7.5,26.1c0,23.3-8.2,39.4-33.8,39.4h-25.4v-143.8H1438z M1431.3,1553.7
					c16.6,0,18.8-11,18.8-25c0-11.2-3.4-22.6-16.8-22.6h-3.2v47.6H1431.3z M1430,1617.5c4.1,0,8.4,0,12.1-1.7
					c8-3.7,8.8-14.2,8.8-21.8c0-15.7-3.2-25-20.9-25V1617.5z"/>
				<path class="st0" d="M1529,1634.1v-143.8h19.4v127.4h31.7v16.4H1529z"/>
				<path class="st0" d="M1630.9,1634.1v-143.8h51.5v16.4h-32.1v45.7h28.5v16.4h-28.5v48.9h32.1v16.4H1630.9z"/>
			</g>
			<g>
				<path class="st0" d="M1850.5,1634.1h-15.3l-27.8-143.8h19.2c4.5,27.8,9.1,55.6,13.1,83.6c1.3,8.2,2.6,16.4,3.4,24.6
					c0.4-7.8,1.9-15.5,3.2-23.3c1.7-10.6,3-21.3,5-31.9l9.3-53h18.1L1850.5,1634.1z"/>
				<path class="st0" d="M1928.1,1634.1v-143.8h19.4v143.8H1928.1z"/>
				<path class="st0" d="M2032.4,1490.3c14,0,23.5,1.9,32.5,13.1c12.5,15.3,12.9,41.8,12.9,60.8c0,18.1-0.6,44.4-13.8,58.4
					c-10.1,10.8-26.1,11.4-39.9,11.4h-15.7v-143.8H2032.4z M2028.8,1617.3c18.3,0,24.6-8.4,27.4-25.6c1.3-8.8,1.5-17.9,1.5-26.7
					c0-9.3-0.2-18.8-1.3-28c-2.2-16.6-6.5-30.2-26.1-30.2h-2.4v110.6H2028.8z"/>
				<path class="st0" d="M2135.9,1634.1v-143.8h51.5v16.4h-32.1v45.7h28.5v16.4h-28.5v48.9h32.1v16.4H2135.9z"/>
				<path class="st0" d="M2313.7,1598.7c-3.4,21.1-11,37.3-34.9,37.3c-12.3,0-22.8-5.2-28.9-16.2c-8.2-14.9-8.8-44-8.8-61
					c0-16.8,0.4-37.5,7.8-52.8c6-12.5,15.7-17.5,29.5-17.5c12.1,0,22,4.7,28.2,15.3c8.8,15.3,9.3,43.3,9.3,61
					C2315.9,1576.3,2315.4,1587.5,2313.7,1598.7z M2292.6,1519.6c-1.7-7.8-5.6-13.6-14.2-13.6c-5.2,0-8.4,1.9-11.2,6
					c-5.8,8.2-5.8,31.7-5.8,41.8c0,15.1-0.4,30.6,1.9,45.5c1.5,8.8,4.5,18.8,15.3,18.8c6.9,0,11-4.1,13.4-10.3
					c3.9-11,3.7-35.8,3.7-48.3C2295.6,1546.4,2295.6,1532.6,2292.6,1519.6z"/>
			</g>
			<g>
				<path class="st0" d="M2517.5,1564c0,15.7,0.2,33.4-4.1,48.7c-4.3,15.3-14.4,23.3-30.4,23.3c-24.6,0-32.3-17.2-35.8-38.6
					c-1.7-11.4-2.2-23.1-2.2-34.5c0-16.6,0.4-34.9,5.2-50.9c4.7-15.5,15.5-23.5,31.9-23.5c20.5,0,29.1,10.8,34.5,29.3l-18.1,7.5
					c-1.9-9.7-4.5-19.8-16.6-19.8c-6,0-8.8,2.4-11.6,7.5c-4.7,8.8-5.2,38.2-5.2,49.1c0,13.1,0.2,26.5,2.6,39.4
					c1.7,8.8,4.5,16.2,14.9,16.2c16.2,0,16.6-20.9,16.6-32.5v-10.6h-16.8v-16.4h35.1V1564z"/>
				<path class="st0" d="M2622.7,1634.1l-5.4-28h-28.5l-5.4,28h-18.8l31.3-143.8h15.3l30.6,143.8H2622.7z M2614.5,1591.2
					c-4.3-24.1-8.6-48.5-11.2-72.9c-2.4,24.6-7.1,48.7-11.6,72.9H2614.5z"/>
				<path class="st0" d="M2766,1634.1c-1.3-19.8-2.8-39.9-3.7-59.7c-0.2-6.5-0.6-12.7-0.9-19.2c-0.2-6.7,0.4-13.4-0.6-20
					c-5.2,33.2-12.1,66-18.3,98.9h-12.9c-6.9-32.8-14.9-65.5-19-98.9l-5.6,98.9h-18.1l11.9-143.8h16.6l12.5,58.6
					c0.6,3.4,1.7,6.9,2.4,10.3c2.2,11.6,3.9,23.3,5.4,34.9c0.4-6.9,2.2-13.6,3.2-20.3c0.9-5.2,1.5-10.6,2.4-15.7
					c0.6-3.4,1.5-6.7,2.2-10.1l11.2-57.8h16.8l13.4,143.8H2766z"/>
				<path class="st0" d="M2839.3,1634.1v-143.8h51.5v16.4h-32.1v45.7h28.5v16.4h-28.5v48.9h32.1v16.4H2839.3z"/>
			</g>
			<g>
				<path class="st0" d="M3070.2,1512.3c-4.7-3.7-9.7-6.5-15.7-6.5c-11,0-17.5,8.8-17.5,19.2c0,26.5,40.1,33.2,40.1,72.9
					c0,20-11.9,38.2-33.4,38.2c-8,0-14.7-1.9-21.1-6.9V1610c5.8,4.3,11.4,7.5,18.8,7.5c11.4,0,17-9.1,17-19.6
					c0-29.7-40.3-34.3-40.3-72.6c0-20.5,10.6-36.6,32.5-36.6c8,0,12.7,1.1,19.8,4.7L3070.2,1512.3z"/>
				<path class="st0" d="M3165.9,1572.2v61.9h-19.4v-61.9l-30-81.9h20.5l11.6,38.6c2.8,9.3,5,16.4,7.1,28c1.1-6.5,3.9-21.1,5.6-28.5
					l9.5-38.2h20L3165.9,1572.2z"/>
				<path class="st0" d="M3288.1,1512.3c-4.7-3.7-9.7-6.5-15.7-6.5c-11,0-17.5,8.8-17.5,19.2c0,26.5,40.1,33.2,40.1,72.9
					c0,20-11.9,38.2-33.4,38.2c-8,0-14.7-1.9-21.1-6.9V1610c5.8,4.3,11.4,7.5,18.8,7.5c11.4,0,17-9.1,17-19.6
					c0-29.7-40.3-34.3-40.3-72.6c0-20.5,10.6-36.6,32.5-36.6c8,0,12.7,1.1,19.8,4.7L3288.1,1512.3z"/>
				<path class="st0" d="M3377.6,1507.4v126.7h-19v-126.7h-22v-17h62.9v17H3377.6z"/>
				<path class="st0" d="M3448.9,1634.1v-143.8h51.5v16.4h-32.1v45.7h28.5v16.4h-28.5v48.9h32.1v16.4H3448.9z"/>
				<path class="st0" d="M3631,1634.1c-1.3-19.8-2.8-39.9-3.7-59.7c-0.2-6.5-0.6-12.7-0.9-19.2c-0.2-6.7,0.4-13.4-0.6-20
					c-5.2,33.2-12.1,66-18.3,98.9h-12.9c-6.9-32.8-14.9-65.5-19-98.9l-5.6,98.9h-18.1l11.9-143.8h16.6l12.5,58.6
					c0.6,3.4,1.7,6.9,2.4,10.3c2.2,11.6,3.9,23.3,5.4,34.9c0.4-6.9,2.2-13.6,3.2-20.3c0.9-5.2,1.5-10.6,2.4-15.7
					c0.6-3.4,1.5-6.7,2.2-10.1l11.2-57.8h16.8l13.4,143.8H3631z"/>
			</g>
		</g>
	</g>
	<g>
		<path class="st1" d="M0,1399.7V494.9c0-36.1,29.4-65.5,65.5-65.5h1007.1l142.9-386.7c9.5-25.6,34.1-42.8,61.4-42.8h1285.3
			c27.3,0,51.9,17.2,61.4,42.8l142.9,386.7h1007.1c36.1,0,65.5,29.4,65.5,65.5v904.7H0z"/>
		<path class="st2" d="M34.5,494.9v870.3h3770V494.9c0-17.1-13.9-31-31-31H2764c-13,0-24.6-8.1-29-20.2l-143.8-389
			c-4.5-12.2-16.1-20.2-29-20.2H1276.8c-13,0-24.6,8.1-29,20.2l-143.8,389c-4.5,12.2-16.1,20.2-29,20.2H65.5
			C48.3,464,34.5,477.8,34.5,494.9z"/>
		<g>
			<g>
				<g>
					<path class="st0" d="M169.5,751.9c0-127.7,81.8-189.1,194-189.1c102.3,0,194,37.6,194,160.4v72.8H414.2v-65.5
						c0-32.7-13.9-51.6-47.5-51.6c-40.1,0-46.7,39.3-46.7,59.7v323.3c0,17.2,0,59.7,43.4,59.7c33.6,0,48.3-15.6,48.3-49.1v-84.3
						h-53.2V867.3h198.9v360.1H425.7v-53.2h-1.6c-27,44.2-63,63.8-116.2,63.8c-108,0-138.3-90-138.3-189.1V751.9z"/>
					<path class="st0" d="M663.1,573.4h199.7l122.8,654h-158l-13.9-116.2H708.1l-15.6,116.2H541.9L663.1,573.4z M723.6,995h75.3
						l-35.2-320h-1.6L723.6,995z"/>
					<path class="st0" d="M974.1,573.4h237.4l42.6,324.1h1.6l42.6-324.1h237.4v654h-145.7V719.1h-1.6l-84.3,508.3h-98.2l-84.3-508.3
						h-1.6v508.3H974.1V573.4z"/>
					<path class="st0" d="M1568.3,573.4h334.8v126h-184.2v130.1h161.2v126h-161.2v145.7h191.5v126h-342.1V573.4z"/>
				</g>
				<g>
					<path class="st0" d="M2066.2,747.5c0-127.7,81.8-189.1,194-189.1c102.3,0,194,37.7,194,160.4v72.8h-143.2v-65.5
						c0-32.7-13.9-51.6-47.5-51.6c-40.1,0-46.7,39.3-46.7,59.7v323.3c0,17.2,0,59.7,43.4,59.7c33.6,0,48.3-15.6,48.3-49.1V984h-53.2
						V862.9h198.9V1223h-131.8v-53.2h-1.6c-27,44.2-63,63.8-116.2,63.8c-108,0-138.3-90-138.3-189.1V747.5z"/>
					<path class="st0" d="M2486.1,569.1h334.8v126h-184.2v130.1h161.2v126h-161.2V1097h191.5v126h-342.1V569.1z"/>
					<path class="st0" d="M2946.5,569.1h199.7l122.8,654h-158l-13.9-116.2h-105.6L2976,1223h-150.6L2946.5,569.1z M3007.1,990.6
						h75.3l-35.2-320h-1.6L3007.1,990.6z"/>
				</g>
			</g>
			<path class="st0" d="M3646.7,1132.4c-0.1-11.4,0-22.6,0-32.9V1069V984c0-54.8-34.4-93.3-87.6-103.9v-1.6
				c80.2-24.6,90.9-74.5,90.9-151.4c0-117.9-56.5-158-190.7-158h-198.9v654h150.6V940.7h27.8c42.6,0,57.3,16.4,57.3,54v104.8
				c0,43.4,0,98.5,0,123.6h150.6V1132.4z M3447.8,829.3h-36.8v-149h29.5c58.9,0,58.9,26.2,58.9,72
				C3499.3,795,3499.3,829.3,3447.8,829.3z"/>
		</g>
		<g>
			<g class="st3">
				<path class="st0" d="M2500.5,93.7h-14.1v-4.7h33.7v4.7h-14.1v37.5h-5.6V93.7z"/>
			</g>
			<g class="st3">
				<path class="st0" d="M2527.2,88.9h7.7l13.3,35.4l13.4-35.4h7.7v42.2h-5.3V96h-0.1l-13.2,35.1h-4.8L2532.6,96h-0.1v35.1h-5.3
					V88.9z"/>
			</g>
		</g>
		<g>
			<g class="st3">
				<path class="st0" d="M3653,595.4h-16.6v-5.6h39.9v5.6h-16.6v44.3h-6.6V595.4z"/>
			</g>
			<g class="st3">
				<path class="st0" d="M3684.5,589.8h9.1l15.7,41.9l15.8-41.9h9.1v49.9h-6.3v-41.5h-0.1l-15.6,41.5h-5.7l-15.6-41.5h-0.1v41.5
					h-6.3V589.8z"/>
			</g>
		</g>
		<g>
			<path d="M2217.8,224.5V97.1c0,0-118.5-0.9-175.5,0c-76.2,1.2-117.4,49.6-118.1,112.1c-0.6,62.5-0.5,156.1-0.3,176.3
				c0.6,72.1,53.9,114,121.2,113.1h172.7V236.5h-151.5c-0.7,0-1.1,0-1.3,0.1c-0.1,0.3-0.2,0.8-0.2,1.7c0,10.6,0,123.3,0,123.3
				l31.4,0v12h-43.4c0,0,0-124.7,0-135.2c0-4.1,1.3-13.8,13.5-13.8H2217.8z"/>
			<path id="path16_00000142173766573514681330000011476192049532741036_" d="M2205.6,498.6c0,0,114.8-341.2,116-344.7
				c3.2-9.8,21.1-60.6,82-60.6c60.9,0,81.4,60.6,81.4,60.6l112.2,344.7h-215.8v-95.1l-33.9,95.1H2205.6z M2417.6,365.8l-12.6-35
				l-14.2,35H2417.6z"/>
			<path id="path28_00000024701675090895411730000006942945018679734454_" d="M1901.3,373.9v124.7h-165
				c-111.3,0-122.1-85.2-122.1-114.3c0-4.4,0-157.2,0-157.2c0-113,64.6-130,144.9-130c10.2,0,142.7,0,142.7,0v128.6l-92.8,0.2h-25.6
				h-4.3H1752c-2.4,0-4.3,2.4-4.3,4.8c0,2.4,1.9,3.7,4.3,3.7h27.1h4.3h25.6h62.4v130.9h-62.6h-6.8h-4.3H1753c-2.4,0-4.3,1.9-4.3,4.3
				c0,2.4,1.9,4.3,4.3,4.3h44.5h4.3h6.8h59.4L1901.3,373.9"/>
			<path id="path36_00000167381049741913473640000009710215006047829669_" d="M1584.5,99.1c0,0-109.2,0-165.4,0
				c-93.4,0-136.2,60-135.2,133.9c0.8,60.6,43.1,121.5,111.7,125.6c0,0,50.3,1.9,57.3,1.9c7,0,10.1,0.2,9.7,5.3
				c-0.3,4.2-5.5,3.6-10.4,3.6h-164.7v58.3l0,72.1c0,0,158.4,0.4,182.9-1c51.2-2.9,122.3-47.5,122.3-127.5
				c0-80-60.3-131.4-113.7-135.6c0,0-59.2-0.8-62.6-0.8c-3.4,0-5.1-2.1-4.7-5c0.4-2.9,0.9-3.4,4.7-3.4c3.8,0,167.5,0,167.5,0
				L1584.5,99.1"/>
			<path class="st4" d="M2213.4,220.2V92.7c0,0-118.5-0.9-175.5,0c-76.2,1.2-117.4,49.6-118.1,112.1c-0.6,62.5-0.5,156.1-0.3,176.3
				c0.6,72.1,53.9,114,121.2,113.1h172.7V232.1h-151.5c-0.7,0-1.1,0-1.3,0.1c-0.1,0.3-0.2,0.8-0.2,1.7c0,10.6,0,123.3,0,123.3
				l31.4,0v12h-43.4c0,0,0-124.7,0-135.2c0-4.1,1.3-13.8,13.5-13.8H2213.4z"/>
			<path id="path16_00000026135402454154805720000004302244469648667807_" class="st4" d="M2201.2,494.2c0,0,114.8-341.2,116-344.7
				c3.2-9.8,21.1-60.6,82-60.6c60.9,0,81.4,60.6,81.4,60.6l112.2,344.7h-215.8v-95.1l-33.9,95.1H2201.2z M2413.2,361.4l-12.6-35
				l-14.2,35H2413.2z"/>
			<path id="path26_00000036226356993880220330000005392404106115293878_" class="st5" d="M2213.4,156.7c0,0-114.5,0-178.2,0
				c-36.4,0-51.9,25.7-52.3,53.5c-0.2,13.1,0,153.2,0,171.8s16.5,47.1,46.8,47.1c29.1,0,120.8,0,120.8,0V295h-60.6h-29.5"/>
			<path id="path28_00000076569803615486148720000015117477802354429878_" class="st4" d="M1896.9,369.6v124.7h-165
				c-111.3,0-122.1-85.2-122.1-114.3c0-4.4,0-157.2,0-157.2c0-113,64.6-130,144.9-130c10.2,0,142.7,0,142.7,0v128.6l-92.8,0.2H1779
				h-4.3h-27.1c-2.4,0-4.3,2.4-4.3,4.8c0,2.4,1.9,3.7,4.3,3.7h27.1h4.3h25.6h62.4v130.9h-62.6h-6.8h-4.3h-44.5
				c-2.4,0-4.3,1.9-4.3,4.3c0,2.4,1.9,4.3,4.3,4.3h44.5h4.3h6.8h59.4L1896.9,369.6"/>
			<path id="path32_00000123434227991310769930000016571636201010774177_" class="st5" d="M1897.4,429.6c0,0-134.3,0-167,0
				c-32.7,0-54.2-20-54.2-51.2c0-18.9,0-150.8,0-165.9c0-38,21.4-55.3,50-55.3c27.2,0,171.1,0,171.1,0"/>
			<path id="path34_00000083087113330376334830000000720325816964861879_" class="st5" d="M1867,294.2h-191.3"/>
			<path id="path36_00000133526405509225695840000002949517210921149354_" class="st4" d="M1580.2,94.7c0,0-109.2,0-165.4,0
				c-93.4,0-136.2,60-135.2,133.9c0.8,60.6,43.1,121.5,111.7,125.6c0,0,50.3,1.9,57.3,1.9c7,0,10.1,0.2,9.7,5.3
				c-0.3,4.2-5.5,3.6-10.4,3.6h-164.7v58.3l0,72.1c0,0,158.4,0.4,182.9-1c51.2-2.9,122.3-47.5,122.3-127.5
				c0-80-60.3-131.4-113.7-135.6c0,0-59.2-0.8-62.6-0.8c-3.4,0-5.1-2.1-4.7-5c0.4-2.9,0.9-3.4,4.7-3.4c3.8,0,167.5,0,167.5,0
				L1580.2,94.7"/>
			<path id="path38_00000054979013062016538870000014637744810576463279_" class="st5" d="M1579.8,158.2l-168.8-0.1
				c0,0-67.7-3.2-67.7,67.1c0,34.9,19.1,53.5,41.1,61.8c18,6.8,27.1,6,76.6,6c33.5,0,64.2,26.8,64.2,71.6
				c0,72.1-89.4,65.7-107.4,65.7c-12.1,0-134.8,0-134.8,0"/>
			<g>
				<defs>
					<rect id="SVGID_00000070119513574260689920000002133884515611427469_" x="2221.4" y="125.7" width="308.9" height="368.6"/>
				</defs>
				<clipPath id="SVGID_00000124877907254544003960000015856441533617460658_">
					<use xlink:href="#SVGID_00000070119513574260689920000002133884515611427469_"  style="overflow:visible;"/>
				</clipPath>
				
					<path id="path22_00000157269846533093244200000010223897760554135484_" style="clip-path:url(#SVGID_00000124877907254544003960000015856441533617460658_);fill:none;stroke:#FFFFFF;stroke-width:11.9686;stroke-miterlimit:10;" d="
					M2269.3,498.4c0,0,107.7-323.7,112.5-339.9s26.9-23.9,34.7-2.4s88.6,271.1,88.6,271.1h-128.2"/>
			</g>
		</g>
	</g>
</g>
</svg>
