<?xml version="1.0" encoding="UTF-8" standalone="no"?>
<svg
   xmlns:dc="http://purl.org/dc/elements/1.1/"
   xmlns:cc="http://creativecommons.org/ns#"
   xmlns:rdf="http://www.w3.org/1999/02/22-rdf-syntax-ns#"
   xmlns:svg="http://www.w3.org/2000/svg"
   xmlns="http://www.w3.org/2000/svg"
   viewBox="0 0 298.75998 320"
   height="320"
   width="298.75998"
   xml:space="preserve"
   id="svg2"
   version="1.1"><metadata
     id="metadata8"><rdf:RDF><cc:Work
         rdf:about=""><dc:format>image/svg+xml</dc:format><dc:type
           rdf:resource="http://purl.org/dc/dcmitype/StillImage" /></cc:Work></rdf:RDF></metadata><defs
     id="defs6"><clipPath
       id="clipPath30"
       clipPathUnits="userSpaceOnUse"><path
         id="path28"
         d="M 0,256 H 256 V 0 H 0 Z" /></clipPath></defs><g
     transform="matrix(1.3333333,0,0,-1.3333333,-21.333333,330.66666)"
     id="g10"><path
       id="path12"
       style="fill:#ffffff;fill-opacity:1;fill-rule:nonzero;stroke:none"
       d="M 72,236 H 184 V 148 H 72 Z m 112,-92 h 4 v 4 88 4 H 184 72 68 v -4 -88 -4 h 4 z" /><path
       id="path14"
       style="fill:#ffffff;fill-opacity:1;fill-rule:nonzero;stroke:none"
       d="M 76,108 H 180 V 28 H 76 Z M 72,24 h 112 v 88 H 72 Z" /><path
       id="path16"
       style="fill:#ffffff;fill-opacity:1;fill-rule:nonzero;stroke:none"
       d="m 44,236 h -4 v -4 h 4 z" /><path
       id="path18"
       style="fill:#ffffff;fill-opacity:1;fill-rule:nonzero;stroke:none"
       d="m 216,236 h -4 v -4 h 4 z" /><path
       id="path20"
       style="fill:#ffffff;fill-opacity:1;fill-rule:nonzero;stroke:none"
       d="m 44,148 h -4 v -4 h 4 z" /><path
       id="path22"
       style="fill:#ffffff;fill-opacity:1;fill-rule:nonzero;stroke:none"
       d="m 216,148 h -4 v -4 h 4 z" /><g
       id="g24"><g
         clip-path="url(#clipPath30)"
         id="g26"><g
           transform="translate(56,28)"
           id="g32"><path
             id="path34"
             style="fill:#ffffff;fill-opacity:1;fill-rule:nonzero;stroke:none"
             d="M 0,0 C -2.209,0 -4,1.791 -4,4 -4,6.209 -2.209,8 0,8 2.209,8 4,6.209 4,4 4,1.791 2.209,0 0,0 m 0,12 c -4.411,0 -8,-3.589 -8,-8 0,-4.411 3.589,-8 8,-8 4.411,0 8,3.589 8,8 0,4.411 -3.589,8 -8,8" /></g><g
           transform="translate(47.8604,73.3027)"
           id="g36"><path
             id="path38"
             style="fill:#ffffff;fill-opacity:1;fill-rule:nonzero;stroke:none"
             d="m 0,0 c 0,-0.72 -0.583,-1.303 -1.302,-1.303 h -9.116 c -0.72,0 -1.303,0.583 -1.303,1.303 v 6.837 h -6.837 c -0.719,0 -1.302,0.583 -1.302,1.302 v 9.117 c 0,0.719 0.583,1.302 1.302,1.302 h 6.837 v 6.837 c 0,0.719 0.583,1.302 1.303,1.302 h 9.116 C -0.583,26.697 0,26.114 0,25.395 v -6.837 h 6.837 c 0.72,0 1.303,-0.583 1.303,-1.302 V 8.139 C 8.14,7.42 7.557,6.837 6.837,6.837 H 0 Z m 4,0 v 2.837 h 2.837 c 2.924,0 5.303,2.379 5.303,5.302 v 9.117 c 0,2.923 -2.379,5.302 -5.303,5.302 H 4 v 2.837 c 0,2.923 -2.378,5.302 -5.302,5.302 h -9.116 c -2.924,0 -5.303,-2.379 -5.303,-5.302 v -2.837 h -2.837 c -2.924,0 -5.302,-2.379 -5.302,-5.302 V 8.139 c 0,-2.923 2.378,-5.302 5.302,-5.302 h 2.837 V 0 c 0,-2.924 2.379,-5.303 5.303,-5.303 h 9.116 C 1.622,-5.303 4,-2.924 4,0" /></g><g
           transform="translate(196,40)"
           id="g40"><path
             id="path42"
             style="fill:#ffffff;fill-opacity:1;fill-rule:nonzero;stroke:none"
             d="M 0,0 C 0,2.209 1.791,4 4,4 6.209,4 8,2.209 8,0 8,-2.209 6.209,-4 4,-4 1.791,-4 0,-2.209 0,0 m 8,-12 c 0,-2.209 -1.791,-4 -4,-4 -2.209,0 -4,1.791 -4,4 0,2.209 1.791,4 4,4 2.209,0 4,-1.791 4,-4 M 12,0 C 12,4.411 8.411,8 4,8 -0.411,8 -4,4.411 -4,0 -4,-2.391 -2.941,-4.533 -1.273,-6 -2.941,-7.467 -4,-9.609 -4,-12 c 0,-4.411 3.589,-8 8,-8 4.411,0 8,3.589 8,8 0,2.391 -1.059,4.533 -2.727,6 C 10.941,-4.533 12,-2.391 12,0" /></g><g
           transform="translate(222,80)"
           id="g44"><path
             id="path46"
             style="fill:#ffffff;fill-opacity:1;fill-rule:nonzero;stroke:none"
             d="m 0,0 c -3.309,0 -6,2.691 -6,6 0,3.309 2.691,6 6,6 C 3.309,12 6,9.309 6,6 6,2.691 3.309,0 0,0 m -10,-10 c -3.309,0 -6,2.691 -6,6 0,3.309 2.691,6 6,6 3.309,0 6,-2.691 6,-6 0,-3.309 -2.691,-6 -6,-6 M -20,0 c -3.309,0 -6,2.691 -6,6 0,3.309 2.691,6 6,6 3.309,0 6,-2.691 6,-6 0,-3.309 -2.691,-6 -6,-6 m 10,22 c 3.309,0 6,-2.691 6,-6 0,-3.309 -2.691,-6 -6,-6 -3.309,0 -6,2.691 -6,6 0,3.309 2.691,6 6,6 M 0,16 c 0,5.514 -4.486,10 -10,10 -5.514,0 -10,-4.486 -10,-10 -5.514,0 -10,-4.486 -10,-10 0,-5.514 4.486,-10 10,-10 0,-5.514 4.486,-10 10,-10 5.514,0 10,4.486 10,10 5.514,0 10,4.486 10,10 0,5.514 -4.486,10 -10,10" /></g><g
           transform="translate(42,124)"
           id="g48"><path
             id="path50"
             style="fill:#ffffff;fill-opacity:1;fill-rule:nonzero;stroke:none"
             d="M 0,0 C 1.1,0 2,0.9 2,2 V 6 C 2,7.1 1.1,8 0,8 -1.1,8 -2,7.1 -2,6 V 2 C -2,0.9 -1.1,0 0,0" /></g><g
           transform="translate(34,124)"
           id="g52"><path
             id="path54"
             style="fill:#ffffff;fill-opacity:1;fill-rule:nonzero;stroke:none"
             d="M 0,0 C 1.1,0 2,0.9 2,2 V 6 C 2,7.1 1.1,8 0,8 -1.1,8 -2,7.1 -2,6 V 2 C -2,0.9 -1.1,0 0,0" /></g><g
           transform="translate(26,124)"
           id="g56"><path
             id="path58"
             style="fill:#ffffff;fill-opacity:1;fill-rule:nonzero;stroke:none"
             d="M 0,0 C 1.1,0 2,0.9 2,2 V 6 C 2,7.1 1.1,8 0,8 -1.1,8 -2,7.1 -2,6 V 2 C -2,0.9 -1.1,0 0,0" /></g><g
           transform="translate(221.625,12)"
           id="g60"><path
             id="path62"
             style="fill:#ffffff;fill-opacity:1;fill-rule:nonzero;stroke:none"
             d="m 0,0 h -187.11 c -7.977,0 -14.445,6.8 -14.445,15.188 V 104 h 27.93 4 152 4 28 0.07 V 15.188 C 14.445,6.8 7.979,0 0,0 m -201.625,112 v 7.359 c 0,2.563 2.351,4.641 5.251,4.641 h 22.749 v -16 h -27.93 v 4 z m 116,4 c 0,1.104 0.896,2 2,2 1.104,0 2,-0.896 2,-2 0,-1.104 -0.896,-2 -2,-2 -1.104,0 -2,0.896 -2,2 m -8,4 c 2.209,0 4,-1.791 4,-4 0,-2.209 -1.791,-4 -4,-4 -2.209,0 -4,1.791 -4,4 0,2.209 1.791,4 4,4 m -8,-4 c 0,-4.411 3.589,-8 8,-8 2.616,0 4.936,1.268 6.396,3.215 1.004,-0.759 2.25,-1.215 3.604,-1.215 3.309,0 6,2.691 6,6 0,3.309 -2.691,6 -6,6 -1.354,0 -2.6,-0.456 -3.604,-1.215 -1.46,1.947 -3.779,3.214 -6.394,3.215 h 75.998 v -16 h -76 -76 v 16 h 75.998 c -4.411,-0.001 -7.998,-3.59 -7.998,-8 m 88,8 v 0 H 9.124 c 2.9,0 5.251,-2.078 5.251,-4.641 V 108 h -28 z M -187.18,232 H -0.07 c 7.978,0 14.445,-6.467 14.445,-14.445 v -91.09 C 12.882,127.431 11.074,128 9.124,128 h -205.498 c -1.95,0 -3.758,-0.569 -5.251,-1.535 v 91.09 c 0,7.978 6.467,14.445 14.445,14.445 M 18.375,112 v 7.359 c 0,0.217 -0.018,0.429 -0.035,0.641 h 0.035 v 4 93.555 C 18.375,227.726 10.101,236 -0.07,236 h -187.11 c -10.171,0 -18.445,-8.274 -18.445,-18.445 V 124 120 h 0.035 c -0.017,-0.212 -0.035,-0.424 -0.035,-0.641 V 108 104 h 0.07 V 15.188 C -205.555,4.607 -197.28,-4 -187.11,-4 H 0 c 10.171,0 18.445,8.607 18.445,19.188 V 112 Z" /></g><g
           transform="translate(38,184)"
           id="g64"><path
             id="path66"
             style="fill:#ffffff;fill-opacity:1;fill-rule:nonzero;stroke:none"
             d="M 0,0 C 1.104,0 2,0.896 2,2 2,3.104 1.104,4 0,4 -1.104,4 -2,3.104 -2,2 -2,0.896 -1.104,0 0,0" /></g><g
           transform="translate(42,180)"
           id="g68"><path
             id="path70"
             style="fill:#ffffff;fill-opacity:1;fill-rule:nonzero;stroke:none"
             d="m 0,0 c -1.104,0 -2,-0.896 -2,-2 0,-1.104 0.896,-2 2,-2 1.104,0 2,0.896 2,2 0,1.104 -0.896,2 -2,2" /></g><g
           transform="translate(50,176)"
           id="g72"><path
             id="path74"
             style="fill:#ffffff;fill-opacity:1;fill-rule:nonzero;stroke:none"
             d="M 0,0 C 1.104,0 2,0.896 2,2 2,3.104 1.104,4 0,4 -1.104,4 -2,3.104 -2,2 -2,0.896 -1.104,0 0,0" /></g><g
           transform="translate(34,176)"
           id="g76"><path
             id="path78"
             style="fill:#ffffff;fill-opacity:1;fill-rule:nonzero;stroke:none"
             d="M 0,0 C 1.104,0 2,0.896 2,2 2,3.104 1.104,4 0,4 -1.104,4 -2,3.104 -2,2 -2,0.896 -1.104,0 0,0" /></g><g
           transform="translate(46,184)"
           id="g80"><path
             id="path82"
             style="fill:#ffffff;fill-opacity:1;fill-rule:nonzero;stroke:none"
             d="M 0,0 C 1.104,0 2,0.896 2,2 2,3.104 1.104,4 0,4 -1.104,4 -2,3.104 -2,2 -2,0.896 -1.104,0 0,0" /></g><g
           transform="translate(38,172)"
           id="g84"><path
             id="path86"
             style="fill:#ffffff;fill-opacity:1;fill-rule:nonzero;stroke:none"
             d="m 0,0 c -1.104,0 -2,-0.896 -2,-2 0,-1.104 0.896,-2 2,-2 1.104,0 2,0.896 2,2 0,1.104 -0.896,2 -2,2" /></g><g
           transform="translate(46,172)"
           id="g88"><path
             id="path90"
             style="fill:#ffffff;fill-opacity:1;fill-rule:nonzero;stroke:none"
             d="m 0,0 c -1.104,0 -2,-0.896 -2,-2 0,-1.104 0.896,-2 2,-2 1.104,0 2,0.896 2,2 0,1.104 -0.896,2 -2,2" /></g><g
           transform="translate(210,184)"
           id="g92"><path
             id="path94"
             style="fill:#ffffff;fill-opacity:1;fill-rule:nonzero;stroke:none"
             d="M 0,0 C 1.104,0 2,0.896 2,2 2,3.104 1.104,4 0,4 -1.104,4 -2,3.104 -2,2 -2,0.896 -1.104,0 0,0" /></g><g
           transform="translate(214,180)"
           id="g96"><path
             id="path98"
             style="fill:#ffffff;fill-opacity:1;fill-rule:nonzero;stroke:none"
             d="m 0,0 c -1.104,0 -2,-0.896 -2,-2 0,-1.104 0.896,-2 2,-2 1.104,0 2,0.896 2,2 0,1.104 -0.896,2 -2,2" /></g><g
           transform="translate(222,176)"
           id="g100"><path
             id="path102"
             style="fill:#ffffff;fill-opacity:1;fill-rule:nonzero;stroke:none"
             d="M 0,0 C 1.104,0 2,0.896 2,2 2,3.104 1.104,4 0,4 -1.104,4 -2,3.104 -2,2 -2,0.896 -1.104,0 0,0" /></g><g
           transform="translate(206,176)"
           id="g104"><path
             id="path106"
             style="fill:#ffffff;fill-opacity:1;fill-rule:nonzero;stroke:none"
             d="M 0,0 C 1.104,0 2,0.896 2,2 2,3.104 1.104,4 0,4 -1.104,4 -2,3.104 -2,2 -2,0.896 -1.104,0 0,0" /></g><g
           transform="translate(218,184)"
           id="g108"><path
             id="path110"
             style="fill:#ffffff;fill-opacity:1;fill-rule:nonzero;stroke:none"
             d="M 0,0 C 1.104,0 2,0.896 2,2 2,3.104 1.104,4 0,4 -1.104,4 -2,3.104 -2,2 -2,0.896 -1.104,0 0,0" /></g><g
           transform="translate(210,172)"
           id="g112"><path
             id="path114"
             style="fill:#ffffff;fill-opacity:1;fill-rule:nonzero;stroke:none"
             d="m 0,0 c -1.104,0 -2,-0.896 -2,-2 0,-1.104 0.896,-2 2,-2 1.104,0 2,0.896 2,2 0,1.104 -0.896,2 -2,2" /></g><g
           transform="translate(218,172)"
           id="g116"><path
             id="path118"
             style="fill:#ffffff;fill-opacity:1;fill-rule:nonzero;stroke:none"
             d="m 0,0 c -1.104,0 -2,-0.896 -2,-2 0,-1.104 0.896,-2 2,-2 1.104,0 2,0.896 2,2 0,1.104 -0.896,2 -2,2" /></g></g></g></g></svg>