<?xml version="1.0" encoding="UTF-8" standalone="no"?>
<svg
   xmlns:dc="http://purl.org/dc/elements/1.1/"
   xmlns:cc="http://creativecommons.org/ns#"
   xmlns:rdf="http://www.w3.org/1999/02/22-rdf-syntax-ns#"
   xmlns:svg="http://www.w3.org/2000/svg"
   xmlns="http://www.w3.org/2000/svg"
   viewBox="0 0 245.33333 245.33333"
   height="245.33333"
   width="245.33333"
   xml:space="preserve"
   id="svg2"
   version="1.1"><metadata
     id="metadata8"><rdf:RDF><cc:Work
         rdf:about=""><dc:format>image/svg+xml</dc:format><dc:type
           rdf:resource="http://purl.org/dc/dcmitype/StillImage" /></cc:Work></rdf:RDF></metadata><defs
     id="defs6"><clipPath
       id="clipPath18"
       clipPathUnits="userSpaceOnUse"><path
         id="path16"
         d="M 0,256 H 256 V 0 H 0 Z" /></clipPath></defs><g
     transform="matrix(1.3333333,0,0,-1.3333333,-47.999999,293.33333)"
     id="g10"><g
       id="g12"><g
         clip-path="url(#clipPath18)"
         id="g14"><g
           transform="translate(172,140)"
           id="g20"><path
             id="path22"
             style="fill:#ffffff;fill-opacity:1;fill-rule:nonzero;stroke:none"
             d="M 0,0 V -8 -72 H -88 V 48 h 12 28 4 V 4 h 18.561 l -1.052,-0.242 c -9.43,-2.168 -19.18,-4.41 -28.773,-6.591 -1.27,-0.289 -4.229,-1.394 -4.277,-5.404 -0.085,-7.052 -0.187,-14.105 -0.289,-21.158 -0.056,-3.845 -0.111,-7.692 -0.164,-11.539 -0.002,-0.103 -0.003,-0.207 -0.004,-0.309 -1.196,0.271 -2.421,0.411 -3.647,0.411 -7.307,0 -13.821,-4.856 -15.841,-11.81 -1.036,-3.567 -0.476,-7.287 1.536,-10.206 2.022,-2.932 5.323,-4.788 9.054,-5.09 0.511,-0.041 1.028,-0.062 1.536,-0.062 10.05,0 18.032,8.065 18.171,18.362 0.161,11.861 0.259,21.787 0.308,31.078 5.708,1.237 11.47,2.517 17.057,3.759 2.425,0.539 4.849,1.077 7.275,1.614 0.522,0.116 1.043,0.23 1.564,0.343 v -20.047 c -1.093,0.209 -2.207,0.315 -3.338,0.315 -7.263,0 -13.741,-4.276 -16.505,-10.893 -1.384,-3.311 -1.191,-6.987 0.527,-10.084 1.653,-2.975 4.524,-4.996 7.877,-5.544 1.33,-0.216 2.68,-0.326 4.012,-0.326 1.57,0 3.086,0.152 4.504,0.455 8.966,1.909 14.009,8.057 13.834,16.865 -0.148,7.443 -0.076,15.043 -0.008,22.394 0.032,3.36 0.063,6.72 0.075,10.08 0.01,2.616 0.007,5.233 0.005,7.901 L -12.005,2 V 4 H 0 Z m -16.073,-42.182 c 0.155,-7.839 -4.633,-11.589 -10.669,-12.874 -1.18,-0.252 -2.425,-0.367 -3.67,-0.367 -1.137,0 -2.276,0.096 -3.367,0.275 -4.68,0.763 -7.186,5.762 -5.359,10.137 2.196,5.256 7.401,8.435 12.815,8.435 1.881,0 3.785,-0.383 5.598,-1.195 0.47,-0.21 0.938,-0.425 1.74,-0.79 V -7.89 c -2.032,-0.439 -4.232,-0.905 -6.428,-1.391 -8.607,-1.904 -17.205,-3.838 -25.821,-5.695 -1.248,-0.269 -1.633,-0.745 -1.639,-2.043 -0.052,-10.855 -0.169,-21.71 -0.315,-32.565 C -53.3,-57.808 -59.539,-64 -67.36,-64 c -0.401,0 -0.805,0.017 -1.213,0.049 -5.288,0.428 -8.545,5.123 -7.072,10.193 1.602,5.514 6.664,8.926 12,8.926 2.016,0 4.071,-0.486 5.994,-1.531 0.443,-0.241 0.885,-0.488 1.652,-0.91 0,2.262 -0.023,4.274 0.004,6.285 0.15,10.9 0.322,21.801 0.453,32.703 0.011,0.885 0.213,1.335 1.165,1.551 12.566,2.857 25.125,5.755 37.686,8.641 0.175,0.04 0.358,0.05 0.686,0.093 0,-3.981 0.012,-7.798 -0.002,-11.615 -0.038,-10.856 -0.281,-21.716 -0.066,-32.567 M -40,42.343 -5.657,8 H -40 Z M 4,4 -44,52 H -92 V -76 H 4 Z" /></g><path
           id="path24"
           style="fill:#ffffff;fill-opacity:1;fill-rule:nonzero;stroke:none"
           d="M 216,40 H 40 V 216 H 216 Z M 36,36 H 220 V 220 H 36 Z" /></g></g></g></svg>