<?xml version="1.0" encoding="UTF-8" standalone="no"?>
<svg
   xmlns:dc="http://purl.org/dc/elements/1.1/"
   xmlns:cc="http://creativecommons.org/ns#"
   xmlns:rdf="http://www.w3.org/1999/02/22-rdf-syntax-ns#"
   xmlns:svg="http://www.w3.org/2000/svg"
   xmlns="http://www.w3.org/2000/svg"
   viewBox="0 0 309.33331 309.33331"
   height="309.33331"
   width="309.33331"
   xml:space="preserve"
   id="svg2"
   version="1.1"><metadata
     id="metadata8"><rdf:RDF><cc:Work
         rdf:about=""><dc:format>image/svg+xml</dc:format><dc:type
           rdf:resource="http://purl.org/dc/dcmitype/StillImage" /></cc:Work></rdf:RDF></metadata><defs
     id="defs6"><clipPath
       id="clipPath18"
       clipPathUnits="userSpaceOnUse"><path
         id="path16"
         d="M 0,256 H 256 V 0 H 0 Z" /></clipPath></defs><g
     transform="matrix(1.3333333,0,0,-1.3333333,-16,330.66666)"
     id="g10"><g
       id="g12"><g
         clip-path="url(#clipPath18)"
         id="g14"><g
           transform="translate(127.9888,176)"
           id="g20"><path
             id="path22"
             style="fill:#ffffff;fill-opacity:1;fill-rule:nonzero;stroke:none"
             d="m 0,0 c 26.467,0 48,-21.533 48,-48 0,-26.467 -21.533,-48 -48,-48 -26.467,0 -48,21.533 -48,48 0,26.467 21.533,48 48,48 m 0,-100 c 28.719,0 52,23.281 52,52 0,28.719 -23.281,52 -52,52 -28.719,0 -52,-23.281 -52,-52 0,-28.719 23.281,-52 52,-52" /></g><g
           transform="translate(176.0889,196)"
           id="g24"><path
             id="path26"
             style="fill:#ffffff;fill-opacity:1;fill-rule:nonzero;stroke:none"
             d="M 0,0 H -96 V 17.511 C -91.708,19.386 -78.076,24 -48,24 -28.31,24 -15.809,21.999 -8.788,20.319 -4.47,19.287 -1.643,18.247 0,17.538 Z m 4,20 c 0,0 -12,8 -52,8 -40,0 -52.257,-8.039 -52,-8.11 V -4 H 4 Z" /></g><g
           transform="translate(56,228.1558)"
           id="g28"><path
             id="path30"
             style="fill:#ffffff;fill-opacity:1;fill-rule:nonzero;stroke:none"
             d="M 0,0 C -1.361,-0.531 -2.695,-1.077 -4,-1.637 V -55.828 H 0 Z" /></g><g
           transform="translate(48,224.7148)"
           id="g32"><path
             id="path34"
             style="fill:#ffffff;fill-opacity:1;fill-rule:nonzero;stroke:none"
             d="m 0,0 c -1.37,-0.649 -2.704,-1.315 -4,-1.997 v -50.39 h 4 z" /></g><g
           transform="translate(40,220.4961)"
           id="g36"><path
             id="path38"
             style="fill:#ffffff;fill-opacity:1;fill-rule:nonzero;stroke:none"
             d="M 0,0 C -1.387,-0.817 -2.718,-1.655 -4,-2.511 V -48.168 H 0 Z" /></g><g
           transform="translate(64,231.0024)"
           id="g40"><path
             id="path42"
             style="fill:#ffffff;fill-opacity:1;fill-rule:nonzero;stroke:none"
             d="M 0,0 C -1.355,-0.439 -2.689,-0.892 -4,-1.357 V -58.675 H 0 Z" /></g><g
           transform="translate(200,172.3276)"
           id="g44"><path
             id="path46"
             style="fill:#ffffff;fill-opacity:1;fill-rule:nonzero;stroke:none"
             d="m 0,0 h 4 v 54.191 c -1.305,0.56 -2.639,1.106 -4,1.637 z" /></g><g
           transform="translate(208,172.3276)"
           id="g48"><path
             id="path50"
             style="fill:#ffffff;fill-opacity:1;fill-rule:nonzero;stroke:none"
             d="M 0,0 H 4 V 50.39 C 2.704,51.072 1.37,51.738 0,52.387 Z" /></g><g
           transform="translate(192,172.3276)"
           id="g52"><path
             id="path54"
             style="fill:#ffffff;fill-opacity:1;fill-rule:nonzero;stroke:none"
             d="M 0,0 H 4 V 57.317 C 2.689,57.783 1.355,58.236 0,58.675 Z" /></g><g
           transform="translate(240,104)"
           id="g56"><path
             id="path58"
             style="fill:#ffffff;fill-opacity:1;fill-rule:nonzero;stroke:none"
             d="m 0,0 c 0,-4.78 -1.396,-9.409 -4,-13.806 v -20.659 c -5.246,7.351 -15.567,13.919 -30.316,19.109 -7.502,2.639 -15.896,4.844 -24.922,6.594 4.609,7.363 7.227,15.797 7.227,24.762 L -52,138 c 0,1.104 -0.896,2 -2,2 h 1.587 c 0.28,0 0.553,-0.028 0.827,-0.086 2.749,-0.585 18.61,-4.147 29.621,-10.686 1.214,-0.721 1.954,-2.032 1.954,-3.444 v -11.791 c -1.278,0.852 -2.605,1.689 -3.989,2.503 V 68.328 h 4 v 45.33 c 1.402,-0.936 2.729,-1.898 4,-2.877 V 68.328 h 4 v 39.094 c 1.454,-1.335 2.793,-2.701 4,-4.099 V -19.003 c 1.548,1.794 2.884,3.637 4,5.522 V 97.809 C -1.396,93.412 0,88.782 0,84 Z m -40.91,-78.604 c -0.201,-0.062 -0.403,-0.091 -0.6,-0.091 -1.107,0 -2.073,0.918 -2.007,2.097 0.011,0.199 0.017,0.398 0.017,0.598 0,13.258 -22.469,24.355 -52.631,27.255 -0.9,5.135 -7.295,8.745 -15.88,8.745 -8.614,0 -15.025,-3.633 -15.891,-8.795 -29.534,-2.942 -51.548,-13.765 -52.069,-26.736 -0.009,0.003 -0.02,0.005 -0.029,0.008 v -1.685 c -0.165,-0.949 -1.033,-1.637 -1.999,-1.637 -0.197,0 -0.398,0.03 -0.598,0.09 -21.578,6.565 -35.688,16.084 -37.25,26.772 l -0.015,7.983 c 2.026,13.75 24.833,25.563 57.574,31.634 10.707,-14.225 29.219,-23.634 50.277,-23.634 21.058,0 39.57,9.409 50.277,23.634 C -28.993,-18.438 -6.187,-30.25 -4.16,-44 l 0.008,-7.983 C -5.703,-62.589 -19.61,-72.045 -40.91,-78.604 M -124.011,-50 c 0,0.716 0.263,1.398 0.723,2.035 0.003,0.005 0.007,0.01 0.011,0.015 0.543,0.745 1.368,1.419 2.417,1.993 0.046,0.024 0.09,0.051 0.137,0.075 0.172,0.091 0.349,0.178 0.531,0.263 0.076,0.036 0.154,0.071 0.233,0.105 0.172,0.077 0.347,0.152 0.528,0.224 0.099,0.039 0.203,0.076 0.305,0.113 0.174,0.065 0.347,0.13 0.528,0.19 0.14,0.046 0.288,0.088 0.432,0.131 0.254,0.076 0.512,0.148 0.777,0.214 0.197,0.05 0.393,0.099 0.596,0.144 0.139,0.03 0.283,0.057 0.425,0.084 0.2,0.039 0.4,0.077 0.605,0.11 0.142,0.024 0.287,0.045 0.432,0.066 0.215,0.031 0.432,0.059 0.652,0.084 0.141,0.016 0.281,0.032 0.424,0.046 0.244,0.022 0.491,0.041 0.741,0.056 0.122,0.007 0.243,0.018 0.366,0.024 0.375,0.017 0.753,0.028 1.137,0.028 0.384,0 0.761,-0.011 1.136,-0.028 0.121,-0.006 0.24,-0.016 0.361,-0.024 0.25,-0.015 0.499,-0.033 0.745,-0.056 0.141,-0.014 0.279,-0.029 0.417,-0.045 0.223,-0.025 0.443,-0.053 0.661,-0.085 0.14,-0.02 0.281,-0.04 0.42,-0.063 0.212,-0.035 0.419,-0.074 0.625,-0.115 0.135,-0.026 0.271,-0.051 0.404,-0.079 0.231,-0.05 0.457,-0.107 0.68,-0.164 0.22,-0.056 0.435,-0.116 0.646,-0.179 0.163,-0.049 0.326,-0.096 0.483,-0.147 0.168,-0.055 0.329,-0.115 0.491,-0.174 0.116,-0.042 0.231,-0.084 0.343,-0.129 0.171,-0.066 0.336,-0.137 0.499,-0.208 0.089,-0.04 0.177,-0.08 0.264,-0.12 0.173,-0.081 0.342,-0.163 0.505,-0.248 0.054,-0.029 0.104,-0.058 0.156,-0.086 0.816,-0.446 1.497,-0.95 2.017,-1.503 0.01,-0.01 0.02,-0.021 0.029,-0.03 0.127,-0.137 0.241,-0.276 0.348,-0.417 0.011,-0.016 0.022,-0.032 0.034,-0.047 0.468,-0.642 0.736,-1.331 0.736,-2.053 0,-1.115 -0.62,-2.156 -1.679,-3.051 -0.057,-0.047 -0.114,-0.094 -0.172,-0.14 -0.555,-0.441 -1.22,-0.841 -1.978,-1.195 -0.085,-0.039 -0.169,-0.078 -0.256,-0.116 -0.388,-0.171 -0.793,-0.334 -1.224,-0.478 0,-0.001 -0.001,-0.001 -0.002,-0.001 -0.425,-0.144 -0.875,-0.268 -1.336,-0.383 -0.112,-0.028 -0.222,-0.055 -0.335,-0.081 -0.472,-0.109 -0.955,-0.208 -1.458,-0.286 -0.004,-10e-4 -0.01,-10e-4 -0.014,-0.002 -0.495,-0.077 -1.007,-0.131 -1.526,-0.175 -0.132,-0.012 -0.264,-0.022 -0.397,-0.03 -0.532,-0.037 -1.071,-0.062 -1.623,-0.062 -0.55,0 -1.086,0.025 -1.615,0.061 -0.133,0.008 -0.265,0.019 -0.396,0.03 -0.507,0.043 -1.007,0.096 -1.49,0.17 -0.015,0.003 -0.03,0.004 -0.045,0.006 -0.503,0.078 -0.986,0.176 -1.458,0.285 -0.107,0.024 -0.212,0.05 -0.317,0.076 -0.456,0.113 -0.901,0.236 -1.322,0.377 -0.006,10e-4 -0.011,0.003 -0.016,0.005 -0.439,0.146 -0.851,0.31 -1.247,0.484 -0.071,0.031 -0.14,0.064 -0.21,0.096 -0.777,0.357 -1.459,0.764 -2.025,1.213 -0.042,0.033 -0.082,0.066 -0.122,0.099 -1.095,0.906 -1.737,1.963 -1.737,3.098 m 76.5,-26.374 c -0.002,-0.035 0.001,-0.069 0,-0.105 -17.999,-4.723 -40.319,-7.521 -64.5,-7.521 -23.947,0 -46.063,2.747 -63.97,7.388 -0.002,0.047 0.001,0.092 -0.002,0.139 -0.011,0.158 -0.017,0.315 -0.017,0.473 0,9.705 19.296,20.351 48.552,23.237 1.78,-4.318 7.72,-7.237 15.437,-7.237 7.745,0 13.699,2.94 15.455,7.285 29.538,-2.813 49.056,-13.524 49.056,-23.285 0,-0.125 -0.004,-0.25 -0.011,-0.374 M -224,0 v 84 c 0,4.782 1.396,9.412 4,13.81 V -13.481 c 1.116,-1.885 2.453,-3.728 4,-5.522 v 122.326 c 1.207,1.398 2.546,2.763 4,4.098 V 68.328 h 4 v 42.452 c 1.267,0.977 2.59,1.937 3.989,2.87 v 12.133 c 0,1.413 0.74,2.724 1.954,3.445 11.014,6.54 26.894,10.102 29.644,10.686 0.274,0.058 0.545,0.086 0.825,0.086 H -170 c -1.104,0 -2,-0.896 -2,-2 l -0.011,-122 c 0,-8.965 2.618,-17.399 7.227,-24.762 -9.027,-1.75 -17.42,-3.955 -24.922,-6.594 -14.728,-5.183 -25.041,-11.74 -30.294,-19.078 v 20.628 c -2.603,4.397 -4,9.026 -4,13.806 m 56,136 h 112 l -0.002,-11.999 c -0.03,0.015 -15.947,7.999 -55.909,7.999 -40,0 -56.346,-8.039 -56.089,-8.11 V 120 c 0,0 24,8 56.089,8 31.886,0 55.871,-7.986 55.909,-8 L -56.011,16 c 0,-26.467 -25.122,-48 -56,-48 -30.879,0 -56,21.533 -56,48 z m 151.989,-20.229 v 10.013 c 0,2.813 -1.499,5.45 -3.912,6.883 -11.486,6.822 -27.698,10.493 -30.831,11.159 -0.542,0.115 -1.1,0.174 -1.659,0.174 h -55.598 -8 -55.577 c -0.558,0 -1.115,-0.059 -1.657,-0.173 -3.136,-0.667 -19.364,-4.337 -30.854,-11.16 -2.413,-1.432 -3.912,-4.07 -3.912,-6.884 V 115.755 C -221.099,106.499 -228,95.553 -228,84 V 0 c 0,-5.062 1.345,-10.058 4,-14.868 V -52 l 1.17,-4.339 c 3.909,-10.482 17.556,-19.698 39.069,-26.243 0.573,-0.174 1.165,-0.263 1.762,-0.263 1.676,0 3.292,0.703 4.436,1.929 0.145,0.155 0.28,0.317 0.406,0.484 18.804,-4.905 41.406,-7.568 65.146,-7.568 23.969,0 46.776,2.717 65.687,7.713 0.135,-0.18 0.278,-0.354 0.435,-0.52 1.135,-1.2 2.731,-1.888 4.379,-1.888 0.601,0 1.198,0.091 1.777,0.268 21.214,6.532 34.684,15.694 38.562,26.089 L 0,-52 v 37.132 C 2.655,-10.058 4,-5.062 4,0 v 84 c 0,11.56 -6.909,22.511 -20.011,31.771" /></g></g></g></g></svg>