<?xml version="1.0" encoding="UTF-8" standalone="no"?>
<svg
   xmlns:dc="http://purl.org/dc/elements/1.1/"
   xmlns:cc="http://creativecommons.org/ns#"
   xmlns:rdf="http://www.w3.org/1999/02/22-rdf-syntax-ns#"
   xmlns:svg="http://www.w3.org/2000/svg"
   xmlns="http://www.w3.org/2000/svg"
   viewBox="0 0 320 229.33333"
   height="229.33333"
   width="320"
   xml:space="preserve"
   id="svg2"
   version="1.1"><metadata
     id="metadata8"><rdf:RDF><cc:Work
         rdf:about=""><dc:format>image/svg+xml</dc:format><dc:type
           rdf:resource="http://purl.org/dc/dcmitype/StillImage" /></cc:Work></rdf:RDF></metadata><defs
     id="defs6"><clipPath
       id="clipPath20"
       clipPathUnits="userSpaceOnUse"><path
         id="path18"
         d="M 0,256 H 256 V 0 H 0 Z" /></clipPath></defs><g
     transform="matrix(1.3333333,0,0,-1.3333333,-10.666533,282.66706)"
     id="g10"><path
       id="path12"
       style="fill:#ffffff;fill-opacity:1;fill-rule:nonzero;stroke:none"
       d="m 120,148 h -4 v 16 h 4 z" /><g
       id="g14"><g
         clip-path="url(#clipPath20)"
         id="g16"><g
           transform="translate(150,74)"
           id="g22"><path
             id="path24"
             style="fill:#ffffff;fill-opacity:1;fill-rule:nonzero;stroke:none"
             d="m 0,0 c -1.104,0 -2,-0.896 -2,-2 0,-1.104 0.896,-2 2,-2 1.104,0 2,0.896 2,2 0,1.104 -0.896,2 -2,2" /></g><g
           transform="translate(23.7939,53.8633)"
           id="g26"><path
             id="path28"
             style="fill:#ffffff;fill-opacity:1;fill-rule:nonzero;stroke:none"
             d="m 0,0 -2.623,2.622 c -0.755,0.756 -1.171,1.76 -1.171,2.828 v 31.029 l 0.132,0.133 z m 220.206,138.799 v -100.662 -36 l -9.364,-9.365 c -1.688,-1.687 -3.977,-2.635 -6.363,-2.635 H 3.52 c -2.122,0 -4.157,0.842 -5.657,2.342 l -9.657,9.658 v 36 8 92.686 c 0,2.122 0.843,4.156 2.343,5.657 l 5.657,5.657 v -4 -4 -6 l -4,-2 v -4 l 4,2 v -4 l -4,-2 v -4 l 4,2 v -4 l -4,-2 v -4 l 4,2 v -4 l -4,-2 v -4 l 4,2 v -4 l -4,-2 v -4 l 4,2 v -4 l -4,-2 v -4 l 4,2 v -4 l -4,-2 v -4 l 4,2 v -4 l -4,-2 v -4 l 4,2 v -4 l -4,-2 v -4 l 4,2 v -4 l -4,-2 v -4 l 4,2 v -2 -4 -7 c 0,-1.379 0.561,-2.629 1.466,-3.534 L -7.794,38.137 V 5.45 c 0,-2.121 0.843,-4.156 2.343,-5.656 l 3.314,-3.315 c 1.5,-1.5 3.535,-2.342 5.657,-2.342 h 201.373 c 2.121,0 4.156,0.842 5.656,2.342 l 3.314,3.315 c 1.5,1.5 2.343,3.535 2.343,5.656 v 32.687 l -5.466,5.466 c 0.906,0.905 1.466,2.155 1.466,3.534 v 102.917 l 4,-3.959 v 0.042 l 1.657,-1.657 c 1.5,-1.501 2.343,-3.535 2.343,-5.657 z m -216,-96.662 v -44 l -4,40 z m 47,-36 h -22 c -0.552,0 -1,0.447 -1,1 v 6 c 0,0.552 0.448,1 1,1 h 22 c 0.552,0 1,-0.448 1,-1 v -6 c 0,-0.553 -0.448,-1 -1,-1 m -31,-4 h 4 v 4 1 c 0,-2.757 2.243,-5 5,-5 h 22 c 0.342,0 0.677,0.035 1,0.101 v -4.101 h -44 v 4 h 4 z m 0,4 h -8 v 12 h 8 z m -8,28 h 8 v -4 h -8 z m 8,-12 h -8 v 4 h 8 z m 16,4 h -4 v 8 h 4 z m 12,0 h -8 v 8 h 8 z m -16,12 h -4 v -4 -8 -4 h 4 16 4 v -4.102 c -0.323,0.067 -0.658,0.102 -1,0.102 h -22 c -2.757,0 -5,-2.243 -5,-5 v 21 4 h -4 -8 -4 v 4 h 44 v -4 h -4 z m 28,0 -4,-40 v 9 6 29 h 0.04 z m -60,16 h 32 4 v 4 84 4 h -4 -32 v 4 c 0,2.201 1.778,3.984 3.977,3.997 l 99.425,0.003 c -29.867,-9.979 -51.402,-37.578 -51.402,-70 0,-13.885 3.955,-26.885 10.816,-38 H 57.914 52.206 8.206 2.549 1.863 1.206 c -0.552,0 -1,0.447 -1,1 z m 0,8 h 28 v 4 h -28 v 4 h 28 v 4 h -28 v 4 h 28 v 4 h -28 v 4 h 28 v 4 h -28 v 4 h 28 v 4 h -28 v 4 h 28 v 4 h -28 v 4 h 28 v 4 h -28 v 4 h 28 v 4 h -28 v 4 h 28 v 4 h -28 v 4 h 28 v 4 h -28 v 4 h 32 v -84 h -32 z m 200,22 c 0,-29.004 -18.144,-53.888 -44,-64.509 v 2.509 4.524 1.715 c 21.313,10.062 36,31.248 36,55.761 0,34.241 -28.654,62 -64,62 -35.346,0 -64,-27.759 -64,-62 0,-22.945 12.876,-42.963 32,-53.685 v -2.076 -6.239 -0.706 c -23.703,11.456 -40,35.224 -40,62.706 0,38.66 32.235,70 72,70 39.765,0 72,-31.34 72,-70 m -48,-57.476 v -4.524 -4 -0.001 l -10e-4,-10e-4 c -2.606,-0.896 -5.286,-1.642 -8.019,-2.246 -0.276,-0.061 -0.548,-0.127 -0.824,-0.185 -0.654,-0.138 -1.314,-0.257 -1.974,-0.376 -0.458,-0.082 -0.915,-0.165 -1.376,-0.239 -0.581,-0.094 -1.166,-0.178 -1.752,-0.258 -0.569,-0.077 -1.139,-0.147 -1.711,-0.212 -0.518,-0.058 -1.035,-0.116 -1.556,-0.163 -0.699,-0.064 -1.402,-0.112 -2.106,-0.156 -0.417,-0.027 -0.831,-0.06 -1.25,-0.079 -1.138,-0.052 -2.281,-0.084 -3.431,-0.084 -1.241,0 -2.476,0.03 -3.702,0.091 -0.788,0.039 -1.568,0.11 -2.35,0.173 -0.433,0.036 -0.873,0.054 -1.304,0.097 -0.904,0.089 -1.797,0.21 -2.691,0.332 -0.302,0.041 -0.608,0.067 -0.909,0.112 -1.126,0.167 -2.241,0.364 -3.349,0.581 -0.063,0.012 -0.129,0.021 -0.192,0.034 -4.683,0.93 -9.2,2.303 -13.503,4.071 v 2.509 6.239 c 2.072,-0.978 4.208,-1.849 6.398,-2.609 0.208,-0.073 0.418,-0.136 0.627,-0.206 0.853,-0.287 1.71,-0.56 2.579,-0.812 0.325,-0.094 0.653,-0.18 0.98,-0.27 0.762,-0.208 1.527,-0.406 2.301,-0.587 0.383,-0.09 0.768,-0.174 1.154,-0.258 0.732,-0.157 1.468,-0.303 2.208,-0.436 0.412,-0.074 0.824,-0.147 1.239,-0.215 0.737,-0.117 1.479,-0.217 2.225,-0.311 0.416,-0.053 0.83,-0.11 1.248,-0.154 0.795,-0.084 1.596,-0.145 2.399,-0.202 0.369,-0.025 0.734,-0.061 1.104,-0.081 1.172,-0.061 2.351,-0.098 3.538,-0.098 1.079,0 2.15,0.027 3.216,0.079 0.539,0.025 1.071,0.075 1.606,0.114 0.515,0.037 1.033,0.065 1.544,0.113 0.728,0.071 1.447,0.165 2.167,0.259 0.304,0.039 0.612,0.069 0.914,0.112 0.845,0.122 1.68,0.267 2.514,0.42 0.167,0.031 0.338,0.055 0.505,0.087 0.92,0.176 1.83,0.376 2.735,0.59 0.073,0.018 0.149,0.032 0.222,0.05 0.962,0.23 1.914,0.484 2.857,0.757 0.016,0.004 0.031,0.008 0.045,0.011 1.933,0.559 3.824,1.206 5.675,1.932 m -2.352,3.398 c -0.494,-0.186 -0.988,-0.372 -1.485,-0.543 -0.405,-0.14 -0.814,-0.27 -1.223,-0.401 -0.511,-0.165 -1.022,-0.331 -1.536,-0.481 -0.435,-0.128 -0.876,-0.243 -1.314,-0.363 -0.49,-0.131 -0.98,-0.266 -1.473,-0.385 -0.485,-0.118 -0.976,-0.222 -1.467,-0.328 -0.455,-0.099 -0.908,-0.203 -1.364,-0.291 -0.541,-0.105 -1.087,-0.193 -1.632,-0.283 -0.417,-0.069 -0.832,-0.144 -1.25,-0.205 -0.596,-0.087 -1.2,-0.153 -1.802,-0.222 -0.376,-0.043 -0.751,-0.095 -1.128,-0.131 -0.674,-0.065 -1.354,-0.108 -2.034,-0.151 -0.313,-0.019 -0.625,-0.049 -0.938,-0.065 -0.995,-0.047 -1.995,-0.073 -3.002,-0.073 -1.084,0 -2.162,0.032 -3.235,0.087 -0.492,0.025 -0.978,0.071 -1.467,0.108 -0.561,0.041 -1.122,0.08 -1.68,0.136 -0.624,0.064 -1.241,0.147 -1.859,0.229 -0.406,0.054 -0.813,0.105 -1.217,0.167 -0.685,0.105 -1.365,0.226 -2.043,0.354 -0.324,0.06 -0.649,0.122 -0.973,0.188 -0.716,0.147 -1.427,0.306 -2.133,0.477 -0.278,0.067 -0.553,0.138 -0.829,0.209 -0.732,0.189 -1.46,0.386 -2.18,0.6 -0.236,0.07 -0.47,0.147 -0.705,0.22 -0.752,0.234 -1.502,0.473 -2.24,0.734 -0.117,0.041 -0.232,0.088 -0.347,0.13 -2.444,0.881 -4.81,1.916 -7.092,3.085 v 1.276 32 c 0,2.209 1.791,4 4,4 h 44 c 2.209,0 4,-1.791 4,-4 v -32 -3.143 c -0.775,-0.328 -1.56,-0.639 -2.352,-0.935 M 69.173,94.438 c 1.919,-4.646 6.494,-7.926 11.825,-7.926 h 94.417 c 5.33,0 9.905,3.28 11.824,7.926 0.623,-3.346 0.967,-6.784 0.967,-10.301 0,-22.21 -12.987,-41.534 -32,-51.276 v 33.276 c 0,4.411 -3.589,8 -8,8 h -44 c -4.411,0 -8,-3.589 -8,-8 V 35.11 c -16.809,10.289 -28,28.413 -28,49.027 0,3.517 0.344,6.955 0.967,10.301 m 10.404,23.612 c 10.909,14.576 28.637,24.087 48.629,24.087 19.992,0 37.721,-9.511 48.63,-24.087 -0.468,0.053 -0.94,0.087 -1.421,0.087 H 80.998 c -0.481,0 -0.954,-0.034 -1.421,-0.087 m 1.421,-3.913 h 94.417 c 1.765,0 3.41,-0.532 4.791,-1.437 0,0 2.88,-4.967 4,-7.777 v -5.619 c 0,-4.835 -3.956,-8.792 -8.791,-8.792 H 80.998 c -4.836,0 -8.792,3.957 -8.792,8.792 v 5.619 c 1.12,2.81 4,7.777 4,7.777 1.381,0.905 3.026,1.437 4.792,1.437 m -17.95,-73.186 -1.173,1.186 h 3.807 C 73.352,31.346 83.884,22.634 96.206,17.039 v -0.093 l 2.48,-1.018 c 8.064,-3.313 16.559,-5.209 25.304,-5.672 0.11,-0.006 0.216,-0.018 0.325,-0.024 1.292,-0.062 2.589,-0.095 3.891,-0.095 1.204,0 2.404,0.034 3.603,0.089 0.401,0.018 0.799,0.049 1.199,0.074 0.79,0.048 1.58,0.103 2.366,0.176 0.476,0.044 0.948,0.094 1.421,0.146 0.706,0.078 1.411,0.165 2.114,0.263 0.496,0.068 0.991,0.138 1.485,0.216 0.681,0.107 1.36,0.229 2.038,0.355 0.489,0.091 0.979,0.176 1.465,0.275 0.733,0.151 1.462,0.322 2.191,0.494 0.411,0.097 0.826,0.182 1.234,0.286 1.086,0.274 2.167,0.576 3.241,0.898 0.414,0.124 0.819,0.264 1.229,0.394 0.572,0.181 1.146,0.354 1.715,0.55 l 2.699,0.928 v 0.082 c 14.042,5.44 26.037,14.833 34.524,26.774 h 14.163 c 1.068,0 2.072,-0.416 2.828,-1.172 l 4.485,-4.486 V 5.45 c 0,-1.068 -0.416,-2.072 -1.172,-2.828 l -3.313,-3.313 c -0.756,-0.756 -1.76,-1.172 -2.828,-1.172 H 60.226 l 3.96,39.601 0.188,1.874 z m 142.098,113.063 c 1.753,-0.424 3.06,-1.993 3.06,-3.877 v -103 c 0,-0.553 -0.447,-1 -1,-1 h -2.313 -11.502 c 6.86,11.115 10.815,24.115 10.815,38 0,32.411 -21.521,60.003 -51.373,69.99 z m 15.545,-6.705 -1.657,1.656 -6.828,6.829 v -0.112 l -0.019,0.018 c -1.505,1.49 -3.502,2.312 -5.622,2.313 l -1.01,0.001 c -0.44,0.075 -0.888,0.123 -1.349,0.123 h -200 c -0.016,0 -0.031,-0.003 -0.046,-0.003 l -2.293,0.002 H 1.866 1.864 1.862 c -2.137,0 -4.146,-0.832 -5.657,-2.344 l -8.484,-8.484 c -2.267,-2.266 -3.515,-5.28 -3.515,-8.485 v -92.686 -8 -36 -1.658 l 1.171,-1.17 9.658,-9.658 c 2.266,-2.266 5.279,-3.514 8.485,-3.514 h 200.959 c 3.471,0 6.736,1.352 9.192,3.807 l 9.363,9.365 1.172,1.17 v 1.658 36 100.662 c 0,3.229 -1.248,6.243 -3.515,8.51" /></g><g
           transform="translate(112,156)"
           id="g30"><path
             id="path32"
             style="fill:#ffffff;fill-opacity:1;fill-rule:nonzero;stroke:none"
             d="M 0,0 V 4 H 72 V -4 H 4 c -8,0 -8,3.011 -8,4 z M 80,4 V 0 h 4 c 0,-0.989 0,-4 -8,-4 V 4 Z M 4,-8 h 68 4 c 6.043,0 12,1.733 12,8 V 4 H 84 V 8 H 76 72 -4 V 4 H -8 V 0 c 0,-6.267 5.957,-8 12,-8" /></g></g></g></g></svg>