<?xml version="1.0" encoding="utf-8"?>
<!-- Generator: Adobe Illustrator 25.0.0, SVG Export Plug-In . SVG Version: 6.00 Build 0)  -->
<svg version="1.1" id="Layer_1" xmlns="http://www.w3.org/2000/svg" xmlns:xlink="http://www.w3.org/1999/xlink" x="0px" y="0px"
	 viewBox="0 0 3840 817.97" style="enable-background:new 0 0 3840 817.97;" xml:space="preserve">
<style type="text/css">
	.st0{fill:#FFCC00;}
	.st1{fill-rule:evenodd;clip-rule:evenodd;fill:#FFCC00;}
	.st2{fill-rule:evenodd;clip-rule:evenodd;fill:#FF0000;}
	.st3{fill:#FF0000;}
</style>
<g>
	<g>
		<rect id="rect5539_3_" x="1.09" y="387.3" class="st0" width="245.22" height="303.72"/>
		<rect id="rect5541_3_" y="725.74" class="st0" width="620.66" height="92.23"/>
		<path id="path5543_3_" class="st1" d="M550.64,387.3h344l219.61,165.48l-168.72,108.4L550.64,387.3z"/>
		<path id="path5547_3_" class="st1" d="M1752.14,387.3l670.31,430.67h138.67V387.3h-122.61v300.46L1986.15,387.3H1752.14z"/>
		<path id="path5549_11_" class="st1" d="M1749.1,433.37l265.76,170.75v213.85h-266.9L1749.1,433.37z"/>
		<path id="path5549_10_" class="st1" d="M1446.76,387.3L972.14,692.24v125.73h247.45V681.25l424.4-293.95H1446.76z"/>
		<path id="path5549_9_" class="st1" d="M1760.44,392.62l265.76,170.75"/>
		<g>
			<path id="path5551-7_7_" class="st1" d="M3431.99,817.97l-518.03-226.35l115.34-42.23l190.8,83.33l88.84-32.52l498.38,217.76
				H3435.6H3431.99z"/>
			<path id="path5553-8_7_" class="st2" d="M3203.98,753.85l-153.84-67.22l-360.95,131.34h339.6L3203.98,753.85z"/>
		</g>
		<g>
			<path id="path5551-7_6_" class="st2" d="M3097.2,387.25l518.03,226.35l-115.34,42.23l-190.8-83.33l-88.84,32.52l-498.38-217.76
				h371.73H3097.2z"/>
			<path id="path5553-8_6_" class="st1" d="M3325.21,451.38l153.84,67.22L3840,387.25h-339.6L3325.21,451.38z"/>
		</g>
	</g>
	<g>
		<g>
			<path class="st3" d="M1476.66,0.58c6.72-0.02,13.44,0,20.16-0.02c0.03,15.8,0,31.61,0.01,47.41c0.07,13.19-0.3,26.38-0.85,39.56
				c-0.9,19.03-2.09,38.1-5.24,56.91c-2.16,12.97-6.65,25.48-12.22,37.35c-9.08,19.14-23.34,35.33-39.38,48.95
				c-14.35,12.62-31.47,21.82-49.48,28.04c-10.19,3.5-20.67,6.22-31.35,7.72c0.01-13.25,0.01-26.52,0-39.77
				c12.85-1.93,25.21-6.49,36.68-12.52c13.62-7.2,25.87-16.88,36.19-28.3c10.65-11.79,19.15-25.43,25.59-39.91
				c7.59-16.66,11.65-34.65,14.41-52.67c3.46-22.9,4.9-46.07,5.44-69.22C1476.7,16.26,1476.63,8.42,1476.66,0.58z"/>
			<path class="st3" d="M1504.93,0.61c12.37-0.08,24.75-0.01,37.12-0.03c0,88.64,0,177.28,0,265.92
				c-12.34,0.03-24.69-0.06-37.04,0.05c-0.16-28.26-0.02-56.53-0.07-84.79C1504.93,121.36,1504.97,60.98,1504.93,0.61z"/>
			<path class="st3" d="M1550.31,0.57c6.68,0,13.37-0.02,20.05,0c-0.22,27.03,0.7,54.1,3.93,80.95c2.64,20.86,6.35,41.87,14.66,61.3
				c7.87,18.8,19.23,36.27,34.02,50.36c14.13,13.47,31.24,23.82,49.84,29.79c5.19,1.66,10.5,2.96,15.89,3.75
				c-0.01,13.25-0.01,26.5,0,39.74c-10.6-1.44-20.99-4.17-31.11-7.61c-12.05-4.19-23.7-9.61-34.4-16.58
				c-7.81-5.03-14.92-11.04-21.74-17.31c-11.25-10.37-21.32-22.16-28.88-35.51c-5.92-10.39-10.23-21.63-13.61-33.09
				c-3.1-11.51-4.42-23.41-5.62-35.25c-2.32-25.58-3.19-51.29-3.03-76.96C1550.31,29.63,1550.3,15.09,1550.31,0.57z"/>
		</g>
		<path class="st3" d="M1810.68,11.56c10.34-13.23,31.75-15.49,44.44-4.39c5.19,4.37,8.83,10.4,10.69,16.89
			c23.49,80.84,47.09,161.64,70.55,242.48c-13.86,0.01-27.73-0.03-41.6,0.01c-6.54-22.29-12.92-44.62-19.38-66.92
			c-26.81-0.05-53.61-0.01-80.42-0.03c-6.56,22.3-13.05,44.62-19.49,66.96c-13.79-0.05-27.58-0.01-41.37-0.03
			c22.32-77.12,44.67-154.23,67.09-231.32C1803.86,27.16,1804.87,18.15,1810.68,11.56 M1835.16,61.09
			c-9.83,33.49-19.46,67.04-29.24,100.55c19.49,0.09,38.97,0.04,58.44,0.04C1854.61,128.15,1844.91,94.62,1835.16,61.09z"/>
		<path class="st3" d="M2102.76,13.3c7.23-10.48,21.19-15.57,33.49-12.33c11.26,2.59,19.87,12.29,22.85,23.22
			c23.47,80.78,47.03,161.53,70.49,242.31c-13.89,0.11-27.76,0-41.65,0.05c-6.46-22.31-12.84-44.64-19.35-66.95
			c-26.77,0.01-53.53-0.05-80.29,0.02c-6.4,22.32-13,44.59-19.39,66.92c-13.78,0.01-27.54-0.01-41.32,0.01
			c22.31-77.54,44.88-155.01,67.37-232.5C2097.31,27.06,2098.22,19.34,2102.76,13.3 M2099.38,161.68
			c19.41,0.03,38.8,0.02,58.21,0.02c-9.66-33.6-19.47-67.16-29.09-100.75C2118.81,94.52,2109.03,128.08,2099.38,161.68z"/>
		<path class="st3" d="M1905.32,0.56c50.16,0,100.31,0,150.46,0c0,13.54,0,27.05,0,40.58c-18.48,0.01-36.93-0.02-55.39,0.01
			c0,75.13,0.01,150.26-0.01,225.39c-13.22,0-26.46,0-39.68,0c0-75.13-0.01-150.26,0.01-225.39c-18.47-0.04-36.93,0-55.4-0.01
			C1905.32,27.61,1905.31,14.1,1905.32,0.56z"/>
		<path class="st3" d="M2273.68,2.21c3.81-1.32,7.88-1.77,11.91-1.67c15.82,0.05,31.63,0.01,47.44,0.02
			c26.63,0.49,52.05,17.01,63.58,40.99c7.98,15.57,8.8,33.67,6.79,50.74c-1.39,17.88-8.89,35.75-22.63,47.6
			c-7.25,6.46-16.29,10.38-24.07,16.15c-4.26,3.24-4.48,9.56-2.27,14.07c20.99,32.41,42.81,64.3,64.24,96.43
			c-15.67,0.03-31.34-0.04-47.02,0.03c-20.51-30.82-40.82-61.79-61.25-92.65c-6.01-8.79-7.64-20.42-4.05-30.44
			c2.8-7.69,9.53-13.31,17.01-16.22c14.28-5.45,28.37-14.01,36.28-27.5c6.02-10.13,5.7-22.63,3-33.72
			c-3.17-14.39-17.2-25.72-32.02-25.22c-10.25,0.07-20.49-0.05-30.72,0.05c-4.64-0.11-8.99,3.92-8.93,8.61
			c-0.05,72.36,0.02,144.72-0.02,217.07c-13.33-0.03-26.64,0-39.97-0.02c-0.03-77.89,0.03-155.79-0.03-233.69
			C2251.03,19.2,2260.74,6.36,2273.68,2.21z"/>
		<path class="st3" d="M2439.62,0.56c14.02,0,28.03,0,42.06,0c-0.01,88.67,0.03,177.32-0.03,265.99c-14-0.04-28.02,0-42.04-0.01
			C2439.62,177.87,2439.62,89.22,2439.62,0.56z"/>
	</g>
</g>
</svg>
