<?xml version="1.0" encoding="UTF-8" standalone="no"?>
<svg
   xmlns:dc="http://purl.org/dc/elements/1.1/"
   xmlns:cc="http://creativecommons.org/ns#"
   xmlns:rdf="http://www.w3.org/1999/02/22-rdf-syntax-ns#"
   xmlns:svg="http://www.w3.org/2000/svg"
   xmlns="http://www.w3.org/2000/svg"
   viewBox="0 0 317.94568 176"
   height="176"
   width="317.94568"
   xml:space="preserve"
   id="svg2"
   version="1.1"><metadata
     id="metadata8"><rdf:RDF><cc:Work
         rdf:about=""><dc:format>image/svg+xml</dc:format><dc:type
           rdf:resource="http://purl.org/dc/dcmitype/StillImage" /></cc:Work></rdf:RDF></metadata><defs
     id="defs6"><clipPath
       id="clipPath18"
       clipPathUnits="userSpaceOnUse"><path
         id="path16"
         d="M 0,256 H 256 V 0 H 0 Z" /></clipPath></defs><g
     transform="matrix(1.3333333,0,0,-1.3333333,-11.693521,255.99999)"
     id="g10"><g
       id="g12"><g
         clip-path="url(#clipPath18)"
         id="g14"><g
           transform="translate(177.4336,86.1963)"
           id="g20"><path
             id="path22"
             style="fill:#ffffff;fill-opacity:1;fill-rule:nonzero;stroke:none"
             d="m 0,0 c -6.541,-2.827 -20.428,-6.196 -49.434,-6.196 -29.006,0 -42.892,3.369 -49.433,6.196 -5.119,2.212 -6.473,4.375 -6.605,5.157 l 0.023,0.093 0.013,0.429 c 0.082,2.616 2.002,64.154 2.002,72.125 0,2.407 0.713,3.818 2.012,3.99 l 0.002,-10e-4 0.293,0.022 12.731,0.98 c 12.908,0.993 26.017,1.496 38.962,1.496 12.946,0 26.055,-0.503 38.962,-1.496 L 2.26,81.815 2.413,81.804 h 0.153 c 0.082,0 2,-0.046 2,-4 0,-7.971 1.92,-69.509 2.002,-72.125 L 6.582,5.25 6.605,5.157 C 6.474,4.375 5.119,2.212 0,0 m -117.434,13.804 v 0.055 l -1.558,0.259 c -1.435,0.608 -2.442,2.029 -2.442,3.686 0,2.209 1.791,4 4,4 2.209,0 4,-1.791 4,-4 0,-2.209 -1.791,-4 -4,-4 m 0,-12 -1.175,0.196 c -1.632,0.504 -2.825,2.007 -2.825,3.804 0,2.138 1.683,3.869 3.794,3.979 l 0.206,-0.034 v 0.055 c 2.209,0 4,-1.791 4,-4 0,-2.209 -1.791,-4 -4,-4 m -8,16 c 0,-0.946 0.172,-1.85 0.475,-2.691 l -11.268,1.878 c -0.218,0.036 -0.44,0.037 -0.66,0.055 l -1.204,0.201 c -1.929,0.321 -3.343,1.99 -3.343,3.945 0,2.192 1.788,3.908 3.899,3.908 0.214,0 0.431,-0.018 0.65,-0.054 l 13.242,-2.207 c -1.118,-1.376 -1.791,-3.128 -1.791,-5.035 m 0.497,-14.75 -13.154,2.193 c -1.929,0.321 -3.343,1.99 -3.343,3.945 0,2.191 1.786,3.906 3.895,3.908 l 13.872,-2.313 c -1.099,-1.368 -1.767,-3.096 -1.767,-4.983 0,-0.967 0.182,-1.891 0.497,-2.75 M 8.566,77.804 c 0,8 -6,8 -6,8 l -12.731,0.979 c -13.07,1.006 -26.169,1.508 -39.269,1.508 -13.099,0 -26.198,-0.502 -39.268,-1.508 l -12.732,-0.979 c 0,0 -6,0 -6,-8 0,-8 -2,-72 -2,-72 0,2.39 -1.059,4.533 -2.726,6 1.667,1.467 2.726,3.609 2.726,6 0,4.3 -3.412,7.808 -7.67,7.983 l 0.001,0.017 -19.124,3.187 c -0.433,0.072 -0.873,0.109 -1.308,0.109 v 0 c -4.356,0 -7.899,-3.548 -7.899,-7.908 0,-2.391 1.047,-4.553 2.738,-6.028 -1.673,-1.45 -2.738,-3.587 -2.738,-5.972 0,-3.926 2.812,-7.246 6.685,-7.891 l 19.152,-3.192 c 0.542,-0.153 1.106,-0.247 1.688,-0.281 l 0.475,-0.079 v 0.055 c 4.142,0 7.558,3.163 7.96,7.2 0.202,-3.234 4.689,-15.2 60.04,-15.2 64,0 60,16 60,16 0,0 -2,64 -2,72" /></g><path
           id="path24"
           style="fill:#ffffff;fill-opacity:1;fill-rule:nonzero;stroke:none"
           d="m 80,160 h 96 V 104 H 80 Z m -4,-60 h 104 v 64 H 76 Z" /><g
           transform="translate(224,132)"
           id="g26"><path
             id="path28"
             style="fill:#ffffff;fill-opacity:1;fill-rule:nonzero;stroke:none"
             d="m 0,0 c -4.418,0 -8,3.582 -8,8 0,4.418 3.582,8 8,8 C 4.418,16 8,12.418 8,8 8,3.582 4.418,0 0,0 m -20,-8 c -4.418,0 -8,3.582 -8,8 0,4.418 3.582,8 8,8 4.418,0 8,-3.582 8,-8 0,-4.418 -3.582,-8 -8,-8 M 0,20 C -6.32,20 -11.503,15.085 -11.955,8.878 -14.086,10.811 -16.903,12 -20,12 -26.617,12 -32,6.617 -32,0 c 0,-6.617 5.383,-12 12,-12 6.32,0 11.503,4.915 11.955,11.122 C -5.914,-2.811 -3.097,-4 0,-4 6.617,-4 12,1.383 12,8 12,14.617 6.617,20 0,20" /></g><g
           transform="translate(196,104)"
           id="g30"><path
             id="path32"
             style="fill:#ffffff;fill-opacity:1;fill-rule:nonzero;stroke:none"
             d="m 0,0 24,8 v 4 L 0,4 Z" /></g><g
           transform="translate(196,96)"
           id="g34"><path
             id="path36"
             style="fill:#ffffff;fill-opacity:1;fill-rule:nonzero;stroke:none"
             d="m 0,0 24,8 v 4 L 0,4 Z" /></g><g
           transform="translate(196,88)"
           id="g38"><path
             id="path40"
             style="fill:#ffffff;fill-opacity:1;fill-rule:nonzero;stroke:none"
             d="m 0,0 24,8 v 4 L 0,4 Z" /></g><g
           transform="translate(34,122)"
           id="g42"><path
             id="path44"
             style="fill:#ffffff;fill-opacity:1;fill-rule:nonzero;stroke:none"
             d="m 0,0 v 8 h -8 c -1.104,0 -2,0.896 -2,2 v 8 c 0,1.104 0.896,2 2,2 h 8 v 8 c 0,1.104 0.896,2 2,2 h 8 c 1.104,0 2,-0.896 2,-2 v -8 h 8 c 1.104,0 2,-0.896 2,-2 V 10 C 22,8.896 21.104,8 20,8 H 12 V 0 c 0,-1.104 -0.896,-2 -2,-2 H 2 C 0.896,-2 0,-1.104 0,0 m 10,-6 c 3.309,0 6,2.691 6,6 v 4 h 4 c 3.309,0 6,2.691 6,6 v 8 c 0,3.309 -2.691,6 -6,6 h -4 v 4 c 0,3.309 -2.691,6 -6,6 H 2 c -3.309,0 -6,-2.691 -6,-6 v -4 h -4 c -3.309,0 -6,-2.691 -6,-6 v -8 c 0,-3.309 2.691,-6 6,-6 h 4 V 0 c 0,-3.309 2.691,-6 6,-6 z" /></g><g
           transform="translate(36,136)"
           id="g46"><path
             id="path48"
             style="fill:#ffffff;fill-opacity:1;fill-rule:nonzero;stroke:none"
             d="M 0,0 C 0,2.209 1.791,4 4,4 6.209,4 8,2.209 8,0 8,-2.209 6.209,-4 4,-4 1.791,-4 0,-2.209 0,0 M 12,0 C 12,4.411 8.411,8 4,8 -0.411,8 -4,4.411 -4,0 c 0,-4.411 3.589,-8 8,-8 4.411,0 8,3.589 8,8" /></g><g
           transform="translate(228,80)"
           id="g50"><path
             id="path52"
             style="fill:#ffffff;fill-opacity:1;fill-rule:nonzero;stroke:none"
             d="m 0,0 -36.173,-10.852 c -2.677,-0.802 -5.41,-1.374 -8.184,-1.711 C -53.43,-13.664 -75.547,-16 -100,-16 c -24.453,0 -46.57,2.336 -55.643,3.437 -2.774,0.337 -5.508,0.909 -8.185,1.711 L -200,0 c -20,8 -16,28 -12,60 1.664,13.31 2.636,21.776 3.203,27.125 0.525,4.949 4.315,8.903 9.231,9.681 10.656,1.684 27.202,5.691 35.243,8.889 3.854,1.534 7.955,2.305 12.103,2.305 h 104.44 c 4.148,0 8.249,-0.771 12.103,-2.305 8.041,-3.198 24.587,-7.205 35.243,-8.889 C 4.482,96.028 8.271,92.074 8.797,87.125 9.364,81.776 10.336,73.31 12,60 16,28 20,8 0,0 m 16.729,54.508 c -0.249,1.947 -0.504,3.943 -0.76,5.988 -1.423,11.386 -2.498,20.488 -3.195,27.051 -0.712,6.719 -5.887,12.151 -12.583,13.209 -9.915,1.568 -26.477,5.509 -34.389,8.656 -4.317,1.717 -8.887,2.588 -13.582,2.588 h -104.44 c -4.696,0 -9.265,-0.871 -13.582,-2.588 -7.912,-3.147 -24.474,-7.088 -34.389,-8.656 -6.696,-1.058 -11.871,-6.49 -12.583,-13.209 -0.697,-6.563 -1.772,-15.665 -3.195,-27.051 -0.256,-2.045 -0.511,-4.041 -0.76,-5.988 -3.688,-28.785 -6.351,-49.584 15.244,-58.222 l 0.165,-0.066 0.171,-0.051 36.172,-10.852 c 2.881,-0.864 5.859,-1.487 8.852,-1.85 8.583,-1.043 31.234,-3.467 56.125,-3.467 24.891,0 47.542,2.424 56.125,3.467 2.992,0.363 5.971,0.986 8.852,1.849 L 1.149,-3.831 1.32,-3.78 1.485,-3.714 C 23.08,4.924 20.416,25.723 16.729,54.508" /></g></g></g></g></svg>