<?xml version="1.0" encoding="UTF-8" standalone="no"?>
<svg
   xmlns:dc="http://purl.org/dc/elements/1.1/"
   xmlns:cc="http://creativecommons.org/ns#"
   xmlns:rdf="http://www.w3.org/1999/02/22-rdf-syntax-ns#"
   xmlns:svg="http://www.w3.org/2000/svg"
   xmlns="http://www.w3.org/2000/svg"
   viewBox="0 0 247.98976 314.66665"
   height="314.66666"
   width="247.98976"
   xml:space="preserve"
   id="svg2"
   version="1.1"><metadata
     id="metadata8"><rdf:RDF><cc:Work
         rdf:about=""><dc:format>image/svg+xml</dc:format><dc:type
           rdf:resource="http://purl.org/dc/dcmitype/StillImage" /></cc:Work></rdf:RDF></metadata><defs
     id="defs6"><clipPath
       id="clipPath18"
       clipPathUnits="userSpaceOnUse"><path
         id="path16"
         d="M 0,256 H 256 V 0 H 0 Z" /></clipPath></defs><g
     transform="matrix(1.3333333,0,0,-1.3333333,-46.666399,327.99959)"
     id="g10"><g
       id="g12"><g
         clip-path="url(#clipPath18)"
         id="g14"><g
           transform="translate(215.6348,36.1787)"
           id="g20"><path
             id="path22"
             style="fill:#ffffff;fill-opacity:1;fill-rule:nonzero;stroke:none"
             d="m 0,0 c -0.22,-1.332 -0.416,-2.667 -0.576,-4.008 -0.63,-5.268 -3.711,-18.171 -18.813,-18.171 -7.59,0 -18.216,3.26 -33.09,12.386 0,0 -12.016,7.986 -72.091,7.986 0,0 -52.065,0 -52.065,39.928 V 106 c 0,0 0,95.829 36.045,99.821 h 2.003 6.007 20.945 v -4 h 48 v 4 h 27.175 c 0,0 32.04,0 36.045,-99.821 C 2.754,27.019 0.908,5.53 0,0 m 3.582,106.16 c -1.691,42.159 -8.493,72.25 -20.217,89.438 -9.429,13.824 -18.789,14.223 -19.825,14.223 h -96.12 -6.007 -2.003 -0.221 l -0.219,-0.024 c -16.909,-1.873 -28.696,-20.263 -35.033,-54.659 -4.52,-24.534 -4.572,-48.145 -4.572,-49.138 V 38.121 c 0,-18.125 9.89,-31.497 28.601,-38.672 13.552,-5.196 26.903,-5.256 27.464,-5.256 29.541,0 46.929,-1.982 56.315,-3.645 9.66,-1.712 13.15,-3.46 13.603,-3.703 l 0.103,-0.077 -0.022,0.03 c 14.034,-8.61 25.872,-12.977 35.182,-12.977 7.785,0 14.044,3.045 18.104,8.806 3.126,4.436 4.27,9.459 4.681,12.891 0.141,1.183 0.321,2.438 0.55,3.834 0.949,5.765 2.81,27.714 -0.364,106.808" /></g><g
           transform="translate(128,220)"
           id="g24"><path
             id="path26"
             style="fill:#ffffff;fill-opacity:1;fill-rule:nonzero;stroke:none"
             d="m 0,0 c 37.556,0 68,-23.281 68,-52 0,-28.719 -30.444,-52 -68,-52 -37.555,0 -68,23.281 -68,52 0,28.719 30.445,52 68,52 M -50.513,-91.947 C -36.976,-102.299 -19.037,-108 0,-108 c 19.037,0 36.976,5.701 50.513,16.053 C 64.369,-81.351 72,-67.165 72,-52 72,-36.835 64.369,-22.649 50.513,-12.053 36.976,-1.701 19.037,4 0,4 -19.037,4 -36.976,-1.701 -50.513,-12.053 -64.369,-22.649 -72,-36.835 -72,-52 c 0,-15.165 7.631,-29.351 21.487,-39.947" /></g><g
           transform="translate(80,188)"
           id="g28"><path
             id="path30"
             style="fill:#ffffff;fill-opacity:1;fill-rule:nonzero;stroke:none"
             d="M 0,0 C 0,6.6 5.4,12 12,12 H 84 C 90.6,12 96,6.6 96,0 v -40 c 0,-6.6 -5.4,-12 -12,-12 H 12 c -6.6,0 -12,5.4 -12,12 z m 12,-56 h 72 c 8.822,0 16,7.178 16,16 V 0 c 0,8.822 -7.178,16 -16,16 H 12 C 3.178,16 -4,8.822 -4,0 v -40 c 0,-8.822 7.178,-16 16,-16" /></g><g
           transform="translate(104,78)"
           id="g32"><path
             id="path34"
             style="fill:#ffffff;fill-opacity:1;fill-rule:nonzero;stroke:none"
             d="m 0,0 c 0,-1.657 -1.343,-3 -3,-3 h -12 v -12 c 0,-1.657 -1.343,-3 -3,-3 h -12 c -1.657,0 -3,1.343 -3,3 v 12 h -12 c -1.657,0 -3,1.343 -3,3 v 12 c 0,1.657 1.343,3 3,3 h 12 v 12 c 0,1.657 1.343,3 3,3 h 12 c 1.657,0 3,-1.343 3,-3 V 15 h 12 c 1.657,0 3,-1.343 3,-3 z m -3,19 h -8 v 8 c 0,3.859 -3.14,7 -7,7 h -12 c -3.86,0 -7,-3.141 -7,-7 v -8 h -8 c -3.86,0 -7,-3.141 -7,-7 V 0 c 0,-3.859 3.14,-7 7,-7 h 8 v -8 c 0,-3.859 3.14,-7 7,-7 h 12 c 3.86,0 7,3.141 7,7 v 8 h 8 c 3.86,0 7,3.141 7,7 v 12 c 0,3.859 -3.14,7 -7,7" /></g><g
           transform="translate(128,84)"
           id="g36"><path
             id="path38"
             style="fill:#ffffff;fill-opacity:1;fill-rule:nonzero;stroke:none"
             d="M 0,0 C -2.209,0 -4,1.791 -4,4 -4,6.209 -2.209,8 0,8 2.209,8 4,6.209 4,4 4,1.791 2.209,0 0,0 m 0,12 c -4.411,0 -8,-3.589 -8,-8 0,-4.411 3.589,-8 8,-8 4.411,0 8,3.589 8,8 0,4.411 -3.589,8 -8,8" /></g><g
           transform="translate(128,62)"
           id="g40"><path
             id="path42"
             style="fill:#ffffff;fill-opacity:1;fill-rule:nonzero;stroke:none"
             d="M 0,0 C -1.104,0 -2,0.896 -2,2 -2,3.104 -1.104,4 0,4 1.104,4 2,3.104 2,2 2,0.896 1.104,0 0,0 m 0,8 c -3.309,0 -6,-2.691 -6,-6 0,-3.309 2.691,-6 6,-6 3.309,0 6,2.691 6,6 0,3.309 -2.691,6 -6,6" /></g><g
           transform="translate(160,58.2041)"
           id="g44"><path
             id="path46"
             style="fill:#ffffff;fill-opacity:1;fill-rule:nonzero;stroke:none"
             d="m 0,0 c -6.627,0 -12,5.372 -12,12 0,6.627 5.373,12 12,12 C 6.627,24 12,18.627 12,12 12,5.372 6.627,0 0,0 M 0,28 C -8.822,28 -16,20.822 -16,12 -16,3.178 -8.822,-4 0,-4 8.822,-4 16,3.178 16,12 16,20.822 8.822,28 0,28" /></g><g
           transform="translate(192,82.2041)"
           id="g48"><path
             id="path50"
             style="fill:#ffffff;fill-opacity:1;fill-rule:nonzero;stroke:none"
             d="m 0,0 c -6.627,0 -12,5.372 -12,12 0,6.627 5.373,12 12,12 C 6.627,24 12,18.627 12,12 12,5.372 6.627,0 0,0 M 0,28 C -8.822,28 -16,20.822 -16,12 -16,3.178 -8.822,-4 0,-4 8.822,-4 16,3.178 16,12 16,20.822 8.822,28 0,28" /></g></g></g></g></svg>