<?xml version="1.0" encoding="utf-8"?>
<!-- Generator: Adobe Illustrator 25.0.0, SVG Export Plug-In . SVG Version: 6.00 Build 0)  -->
<svg version="1.1" id="Layer_1" xmlns="http://www.w3.org/2000/svg" xmlns:xlink="http://www.w3.org/1999/xlink" x="0px" y="0px"
	 viewBox="0 0 3839 603" style="enable-background:new 0 0 3839 603;" xml:space="preserve">
<style type="text/css">
	.st0{fill:url(#SVGID_1_);}
	.st1{fill:#FFFFFF;}
	.st2{fill:#B2AE85;}
	.st3{fill:url(#SVGID_2_);}
	.st4{fill:url(#SVGID_3_);}
	.st5{fill:url(#SVGID_4_);}
	.st6{fill:url(#SVGID_5_);}
	.st7{fill:url(#SVGID_6_);}
	.st8{fill:url(#SVGID_7_);}
	.st9{fill:url(#SVGID_8_);}
	.st10{fill:url(#SVGID_9_);}
	.st11{fill:url(#SVGID_10_);}
	.st12{fill:url(#SVGID_11_);}
	.st13{fill:url(#SVGID_12_);}
	.st14{fill:url(#SVGID_13_);}
	.st15{fill:url(#SVGID_14_);}
	.st16{fill:url(#SVGID_15_);}
	.st17{fill:url(#SVGID_16_);}
	.st18{fill:url(#SVGID_17_);}
</style>
<g>
	<rect x="1618" y="-1618" transform="matrix(6.123234e-17 -1 1 6.123234e-17 1617.9994 2221.0007)" width="603" height="3839"/>
	<g>
		<g>
			<g>
				<linearGradient id="SVGID_1_" gradientUnits="userSpaceOnUse" x1="27.1041" y1="301.5007" x2="3811.8953" y2="301.5007">
					<stop  offset="0" style="stop-color:#969696"/>
					<stop  offset="1" style="stop-color:#FFFFFF"/>
				</linearGradient>
				<path class="st0" d="M27.1,27.1v548.8h3784.8V27.1H27.1z M3762.2,526.2H76.8V76.8h3685.3V526.2z M1872.8,491.4
					c-6-0.5-10-3.3-10-8.1c0-7.1,10-17.9,48.8-88.5h229.2c44.8,77.6,50.8,85.2,50.8,91.2c0,2.7-3.3,5.4-12,5.4v7.6h133v-7.6
					c-14,0-16.7-3.8-26.1-20.6l-193.8-337c-3.3-5.4-6-9.8-6-14.1c0-3.8,4-7.1,14-8.1V104H1955v7.6c8.7,1.1,14,3.8,14,9.8
					c0,4.9-4,10.9-7.4,16.3l-182.4,333.2c-9.4,17.4-13.4,20.1-25.4,20.6v7.6h119V491.4z M2021.9,190.8l80.2,142.2H1943L2021.9,190.8
					z M3735,104H2434.7V499H3735V104z M173.3,372.6l-55.5,92.3l8.7,1.6c3.3-1.6,5.3-4.3,9.4-4.3c15.4,0,62.2,42.3,225.2,42.3
					c171.1,0,256.6-55.4,256.6-127c0-196.4-393.6-66.2-393.6-155.2c0-33.6,44.8-59.7,149-59.7c108.9,0,171.7,38,171.7,45
					c0,2.7-0.7,5.4-1.3,7.6l10.7,4.9l51.5-81.4L595,136c-2,1.6-3.3,3.8-12,3.8c-8,0-89.6-41.2-205.8-41.2
					c-129.6,0-247.9,38-247.9,129.2c0,180.2,388.3,48.3,388.3,154.7c0,29.8-41.4,58.1-163.1,58.1c-85.5,0-171.8-22.8-171.8-54.8
					c0-4.3,1.3-6.5,1.3-8.7L173.3,372.6z M1131.6,511h9.4v-89h-9.4c0,8.7-6.7,13-22.7,13H781.5V328.6h209.8c16,0,22.7,4.3,22.7,13
					h9.4v-91.2h-9.4c0,9.8-6.7,14.1-22.7,14.1H781.5V168h321.4c16,0,22.7,4.3,22.7,14.1h9.4V92h-9.4c0,7.6-6.7,11.9-22.7,11.9H669.2
					v7.6c14.7,0,17.4,4.3,17.4,16.3v347.3c0,11.9-2.7,16.3-17.4,16.3v7.6h439.7C1125,499,1131.6,503.4,1131.6,511z M1459.1,504.5
					c115.6,0,218.5-41.2,260.6-60.8v-7.6c-8.7-1.6-12-4.9-12-13.6V315.6c0-11.9,6-16.3,12.7-17.4v-7.6h-222.5
					c-13.4,0-21.4-5.4-21.4-13h-9.4v95.5h9.4c0-7.6,8-13,21.4-13h114.9v45c-20,11.9-69.5,35.3-153.7,35.3
					c-102.9,0-193.8-45-193.8-141.1c0-91.7,90.9-136.8,203.2-136.8c88.9,0,161.1,33.6,161.1,50.5c0,3.8-0.7,7.1-1.3,9.2l9.4,4.9
					l64.8-89l-9.4-3.3c-2.7,3.3-8.7,6-14.7,6c-4.7,0-30.7-9.8-66.2-22.3c-38.1-9.8-90.2-20.1-145-20.1c-139,0-296.7,61.9-296.7,203
					C1170.4,442.6,1305.4,504.5,1459.1,504.5z"/>
			</g>
		</g>
		<path d="M3054.2,440c-188.3,18.3-337.4-17.9-346.8-84.1c-9.6-67.4,132.5-146.2,323.4-179.4c1.4-0.2,2.3-1.5,2-2.9
			c-0.2-1.4-1.5-2.3-2.9-2.1c-314.5,48.9-552.8,143.5-542.6,215.5c6.9,48.9,122.8,75.9,295.4,75.9c80.2,0,172.6-5.9,272-18.1
			c1.4-0.2,2.3-1.4,2.2-2.8C3056.8,440.9,3055.6,439.9,3054.2,440z"/>
		<path d="M3682.9,217.6c-10.5-73.7-261.2-98-583.2-56.5c-1.7,0.2-2.9,1.8-2.7,3.5c0.2,1.7,1.7,2.9,3.5,2.8
			c190.8-20.5,347.6,15.6,357,82.2c8.4,59.3-105.3,117.9-297,152.9c-11.9-12.1-28.1-88.6-38.5-151.8c-0.3-1.9-2-3.2-3.9-3
			c-1.9,0.2-3.3,1.7-3.3,3.6v182.7c0,0.9,0.4,1.8,1.1,2.4c0.6,0.5,1.3,0.8,2.1,0.8c0.2,0,0.3,0,0.5,0
			C3445.6,388.9,3693.6,292.5,3682.9,217.6z"/>
	</g>
</g>
</svg>
