<?xml version="1.0" encoding="UTF-8" standalone="no"?>
<svg
   xmlns:dc="http://purl.org/dc/elements/1.1/"
   xmlns:cc="http://creativecommons.org/ns#"
   xmlns:rdf="http://www.w3.org/1999/02/22-rdf-syntax-ns#"
   xmlns:svg="http://www.w3.org/2000/svg"
   xmlns="http://www.w3.org/2000/svg"
   viewBox="0 0 320 309.33331"
   height="309.33331"
   width="320"
   xml:space="preserve"
   id="svg2"
   version="1.1"><metadata
     id="metadata8"><rdf:RDF><cc:Work
         rdf:about=""><dc:format>image/svg+xml</dc:format><dc:type
           rdf:resource="http://purl.org/dc/dcmitype/StillImage" /></cc:Work></rdf:RDF></metadata><defs
     id="defs6"><clipPath
       id="clipPath18"
       clipPathUnits="userSpaceOnUse"><path
         id="path16"
         d="M 0,256 H 256 V 0 H 0 Z" /></clipPath></defs><g
     transform="matrix(1.3333333,0,0,-1.3333333,-10.666666,325.33293)"
     id="g10"><g
       id="g12"><g
         clip-path="url(#clipPath18)"
         id="g14"><g
           transform="translate(196.293,53.9209)"
           id="g20"><path
             id="path22"
             style="fill:#ffffff;fill-opacity:1;fill-rule:nonzero;stroke:none"
             d="m 0,0 c 0,-5.514 -4.478,-10 -9.98,-10 h -116.041 c -5.502,0 -9.979,4.486 -9.979,10 0,5.515 4.477,10 9.979,10 H -9.98 C -4.478,10 0,5.515 0,0 m -140,0 c 0,-7.72 6.271,-14 13.979,-14 H -9.98 C -2.271,-14 4,-7.72 4,0 4,7.72 -2.271,14 -9.98,14 H -126.021 C -133.729,14 -140,7.72 -140,0" /></g><g
           transform="translate(92,54)"
           id="g24"><path
             id="path26"
             style="fill:#ffffff;fill-opacity:1;fill-rule:nonzero;stroke:none"
             d="M 0,0 C 0,-1.179 -0.763,-2 -1.448,-2 H -22.552 C -23.237,-2 -24,-1.179 -24,0 c 0,1.179 0.763,2 1.448,2 H -1.448 C -0.763,2 0,1.179 0,0 m -28,0 c 0,-3.309 2.444,-6 5.448,-6 H -1.448 C 1.556,-6 4,-3.309 4,0 4,3.309 1.556,6 -1.448,6 H -22.552 C -25.556,6 -28,3.309 -28,0" /></g><g
           transform="translate(165.4482,56)"
           id="g28"><path
             id="path30"
             style="fill:#ffffff;fill-opacity:1;fill-rule:nonzero;stroke:none"
             d="m 0,0 h 21.104 c 0.684,0 1.448,-0.821 1.448,-2 0,-1.179 -0.764,-2 -1.448,-2 H 0 c -0.686,0 -1.448,0.821 -1.448,2 0,1.179 0.762,2 1.448,2 m 0,-8 h 21.104 c 3.003,0 5.448,2.691 5.448,6 0,3.309 -2.445,6 -5.448,6 H 0 c -3.004,0 -5.448,-2.691 -5.448,-6 0,-3.309 2.444,-6 5.448,-6" /></g><g
           transform="translate(244,38.7217)"
           id="g32"><path
             id="path34"
             style="fill:#ffffff;fill-opacity:1;fill-rule:nonzero;stroke:none"
             d="M 0,0 C 0,-1.168 -0.426,-2.234 -1.127,-3.057 V -3.058 C -1.226,-3.173 -1.33,-3.283 -1.439,-3.389 l -16.995,-18.073 c -0.061,-0.065 -0.136,-0.113 -0.201,-0.174 l 2.951,41.311 c 0.461,6.457 -0.342,12.845 -2.39,18.986 l -2.374,7.121 c -1.749,5.248 -5.246,9.828 -9.849,12.896 -3.525,2.35 -7.63,3.593 -11.891,3.593 L -52.9,62.26 c -2.134,-0.002 -4.29,-0.147 -6.41,-0.429 l -52.6,-7 c -2.696,-0.359 -5.481,-0.359 -8.18,0 l -52.599,7 c -2.121,0.282 -4.277,0.427 -6.411,0.429 l -10.735,0.011 c -4.239,0 -8.343,-1.243 -11.868,-3.593 -4.603,-3.069 -8.101,-7.648 -9.85,-12.896 l -2.374,-7.121 c -2.047,-6.14 -2.851,-12.528 -2.39,-18.986 l 2.93,-41.02 -17.132,17.918 c -0.124,0.117 -0.243,0.239 -0.354,0.37 v 0 C -231.574,-2.234 -232,-1.168 -232,0 v 0.187 0 186.786 2.305 c 0,7.789 4.261,12 12,12 h 8 v -8 c 0,-4.411 3.589,-8 8,-8 h 51.071 c -4.674,-1.051 -9.213,-2.304 -13.59,-3.75 H -196 c -11,0 -20,-9 -20,-20 v -0.25 -4 -4 -4 -4 -0.761 c -2.634,-5.521 -4,-11.308 -4,-17.239 0,-5.93 1.366,-11.717 4,-17.238 v -1.012 c 0,-8.767 5.718,-16.264 13.608,-18.946 0.509,-0.173 2.141,-0.63 4.666,-1.274 2.777,-2.09 5.783,-4.093 9.041,-5.983 19.51,-11.315 45.323,-17.547 72.685,-17.547 27.362,0 53.175,6.232 72.685,17.547 3.257,1.89 6.263,3.893 9.041,5.983 2.526,0.644 4.158,1.101 4.666,1.274 7.89,2.682 13.608,10.179 13.608,18.946 v 1.018 c 2.633,5.519 4,11.304 4,17.232 0,5.929 -1.367,11.713 -4,17.232 v 0.768 4 4 4 4 0.25 c 0,11 -9,20 -20,20 h -29.481 c -4.376,1.446 -8.916,2.699 -13.59,3.75 H -28 c 4.411,0 8,3.589 8,8 v 8 h 8 c 7.739,0 12,-4.211 12,-12 z m -147.528,54.447 26.911,-3.581 c 3.048,-0.407 6.19,-0.407 9.234,0 l 26.911,3.581 -2.971,-17.826 c -0.322,-1.929 -1.991,-3.343 -3.946,-3.343 h -49.222 c -1.956,0 -3.624,1.414 -3.946,3.343 z m -4.147,0.552 3.173,-19.036 c 0.645,-3.873 3.964,-6.685 7.891,-6.685 h 49.222 c 3.927,0 7.246,2.812 7.892,6.685 l 3.173,19.036 21.541,2.867 c 1.947,0.259 3.929,0.392 5.887,0.394 l 10.731,0.011 c 2.803,0 5.474,-0.617 7.725,-1.785 4.77,-2.474 8.488,-6.837 10.199,-11.968 l 2.373,-7.122 c 1.88,-5.64 2.618,-11.506 2.195,-17.436 l -3.05,-42.682 h -186.555 l -3.049,42.682 c -0.423,5.931 0.315,11.797 2.195,17.436 l 2.374,7.122 c 1.469,4.407 4.407,8.253 8.274,10.832 2.866,1.911 6.21,2.921 9.669,2.921 l 10.711,-0.011 c 1.959,-0.002 3.939,-0.135 5.886,-0.394 z m 0.352,126.529 c 10.99,2.416 22.89,3.75 35.323,3.75 12.433,0 24.332,-1.334 35.323,-3.75 z M -45.68,86.107 C -63.76,75.718 -88.599,69.278 -116,69.278 c -27.402,0 -52.24,6.44 -70.321,16.83 17.406,-3.858 45.84,-9.08 70.321,-9.08 24.481,0 52.914,5.222 70.32,9.079 M -20,109.028 c 0,-6.852 -4.379,-12.944 -10.896,-15.159 -3.197,-1.087 -49.128,-12.841 -85.104,-12.841 -35.975,0 -81.907,11.754 -85.104,12.841 -6.517,2.215 -10.896,8.307 -10.896,15.159 v 7.633 c 2.875,-2.723 7.094,-5.633 12,-5.633 8.187,0 27.722,-4.096 43.105,-11.789 16.781,-8.389 32.961,-12.211 40.895,-12.211 7.934,0 24.114,3.822 40.895,12.211 15.383,7.693 34.918,11.789 43.105,11.789 4.906,0 9.125,2.91 12,5.633 v -5.632 z m 0,52.25 h -4 v -4 h 4 v -4 h -4 v -4 h 4 v -4 h -4 v -4 h 4 V 123.97 c -3.465,-4.168 -8.282,-8.942 -12,-8.942 -8.583,0 -28.959,-4.243 -44.895,-12.211 -15.478,-7.739 -31.388,-11.789 -39.105,-11.789 -7.717,0 -23.627,4.05 -39.105,11.789 -15.936,7.968 -36.312,12.211 -44.895,12.211 -3.709,0 -8.531,4.78 -12,8.95 v 17.3 h 4 v 4 h -4 v 4 h 4 v 4 h -4 v 4 h 4 v 4 h -4 v 0.25 c 0,8.823 7.178,16 16,16 h 160 c 8.822,0 16,-7.177 16,-16 z m -182,40 v -6 c 0,-1.104 0.896,-2 2,-2 h 2 v 8 h 4 v -8 h 4 v 8 h 4 v -8 h 4 v 8 h 4 v -8 h 4 v 8 h 4 v -8 h 4 v 8 h 4 v -8 h 4 v 8 h 4 v -8 h 4 v 8 h 4 v -8 h 4 v 8 h 4 v -8 h 4 v 8 h 4 v -8 h 4 v 8 h 4 v -8 h 4 v 8 h 4 v -8 h 4 v 8 h 4 v -8 h 4 v 8 h 4 v -8 h 4 v 8 h 4 v -8 h 4 v 8 h 4 v -8 h 4 v 8 h 4 v -8 h 4 v 8 h 4 v -8 h 4 v 8 h 4 v -8 h 4 v 8 h 4 v -8 h 4 v 8 h 4 v -8 h 4 v 8 h 4 v -8 h 2 c 1.104,0 2,0.896 2,2 v 6 h 6 v -8 c 0,-2.209 -1.791,-4 -4,-4 h -176 c -2.209,0 -4,1.791 -4,4 v 8 z m 190,4 h -8 -4 -6 -4 -4 -4 -4 -4 -4 -4 -4 -4 -4 -4 -4 -4 -4 -4 -4 -4 -4 -4 -4 -4 -4 -4 -4 -4 -4 -4 -4 -4 -4 -4 -4 -4 -4 -4 -4 -4 -4 -4 -4 -4 -4 -4 -6 -4 -8 c -10.019,0 -16,-5.981 -16,-16 V 186.973 0.187 -0.003 c 0,-2.066 0.74,-4.073 2.083,-5.649 0.175,-0.205 0.366,-0.408 0.569,-0.604 l 17.206,-17.994 c 1.501,-1.571 3.609,-2.472 5.782,-2.472 h 188.542 0.47 c 2.198,0 4.322,0.918 5.827,2.52 L 1.42,-6.187 c 0.173,0.17 0.339,0.35 0.496,0.534 C 3.26,-4.076 4,-2.068 4,0 v 189.278 c 0,10.019 -5.981,16 -16,16" /></g><path
           id="path36"
           style="fill:#ffffff;fill-opacity:1;fill-rule:nonzero;stroke:none"
           d="m 124,56 h -4 v -8 h 4 z" /><path
           id="path38"
           style="fill:#ffffff;fill-opacity:1;fill-rule:nonzero;stroke:none"
           d="m 136,56 h -4 v -8 h 4 z" /><path
           id="path40"
           style="fill:#ffffff;fill-opacity:1;fill-rule:nonzero;stroke:none"
           d="m 130,56 h -4 v -8 h 4 z" /><g
           transform="translate(212,183.75)"
           id="g42"><path
             id="path44"
             style="fill:#ffffff;fill-opacity:1;fill-rule:nonzero;stroke:none"
             d="M 0,0 C 0,-1.957 -3.476,-6.291 -6.591,-8.953 L -6.714,-9.058 -6.826,-9.17 c -0.221,-0.22 -14.254,-14.015 -35.065,-24.176 -0.161,0.449 -0.382,0.882 -0.713,1.268 C -46.588,-27.423 -55.523,-20 -72,-20 h -12 -12 c -16.477,0 -25.413,-7.423 -29.396,-12.078 -0.33,-0.386 -0.553,-0.819 -0.714,-1.268 -20.81,10.161 -34.843,23.956 -35.061,24.175 l -0.115,0.113 -0.123,0.105 C -164.526,-6.302 -168,-1.973 -168,0 v 20 c 0,4.411 3.589,8 8,8 H -8 c 4.411,0 8,-3.589 8,-8 z M -122.356,-34.678 C -118.943,-30.69 -110.981,-24 -96,-24 h 12 12 c 14.98,0 22.943,-6.69 26.38,-10.695 -1.286,-0.763 -2.633,-1.46 -4.016,-2.103 -4.745,-1.922 -9.751,-3.59 -14.965,-4.832 -8.993,-1.94 -16.901,-2.298 -18.93,-2.358 -0.134,-10e-4 -0.266,-0.01 -0.4,-0.01 C -83.953,-43.999 -83.985,-44 -84,-44 c -0.014,0 -0.047,10e-4 -0.07,0.002 -0.134,0 -0.266,0.009 -0.4,0.01 -2.044,0.061 -10.018,0.422 -19.059,2.391 -5.056,1.212 -9.917,2.821 -14.532,4.675 -1.482,0.68 -2.922,1.426 -4.295,2.244 M -8,32 h -152 c -6.6,0 -12,-5.4 -12,-12 V 0 c 0,-5.197 8,-12 8,-12 0,0 18.389,-18.379 44.939,-28.872 4.727,-2.09 9.779,-3.572 14.537,-4.616 6.277,-1.501 12.852,-2.413 19.622,-2.49 C -84.326,-47.997 -84,-48 -84,-48 c 0,0 0.326,0.003 0.902,0.022 6.77,0.077 13.344,0.989 19.621,2.49 4.759,1.044 9.811,2.526 14.539,4.616 C -22.389,-30.379 -4,-12 -4,-12 c 0,0 8,6.803 8,12 v 20 c 0,6.6 -5.4,12 -12,12" /></g><g
           transform="translate(200,187.75)"
           id="g46"><path
             id="path48"
             style="fill:#ffffff;fill-opacity:1;fill-rule:nonzero;stroke:none"
             d="m 0,0 c 0,-6.617 -5.383,-12 -12,-12 h -120 c -6.617,0 -12,5.383 -12,12 v 4 c 0,6.617 5.383,12 12,12 H -12 C -5.383,16 0,10.617 0,4 Z m -12,20 h -120 c -8.8,0 -16,-7.2 -16,-16 V 0 c 0,-8.8 7.2,-16 16,-16 h 120 c 8.8,0 16,7.2 16,16 v 4 c 0,8.8 -7.2,16 -16,16" /></g><g
           transform="translate(176,184.1016)"
           id="g50"><path
             id="path52"
             style="fill:#ffffff;fill-opacity:1;fill-rule:nonzero;stroke:none"
             d="M 0,0 V 3.898 H 7.597 C 6.413,1.368 2.836,0.381 0,0 M -103.625,3.898 H -96 v -3.906 c -2.027,0.275 -3.807,0.792 -5.175,1.529 -1.381,0.744 -2.085,1.571 -2.45,2.377 m 3.625,7.866 h 4 V 7.899 h -4 z m 92,0 h 4 V 7.899 H -8 Z M -84,3.898 h 72 v -4.135 h -72 z m 0,7.866 h 72 V 7.899 h -72 z m -4,-3.866 h -4 v 3.865 h 4 z m -4,-4 h 4 v -4.135 h -4 z m 88,-4.134 h -4 v 4.135 h 4 z M 4,7.898 H 0 v 3.865 h 4 z m 4,7.866 h -112 v -3.866 h -4 V 5.764 c 0,-7.373 7.988,-10 15.464,-10 h 89.072 c 7.476,0 15.464,2.627 15.464,10 v 6.134 H 8 Z" /></g></g></g></g></svg>