<?xml version="1.0" encoding="UTF-8" standalone="no"?>
<svg
   xmlns:dc="http://purl.org/dc/elements/1.1/"
   xmlns:cc="http://creativecommons.org/ns#"
   xmlns:rdf="http://www.w3.org/1999/02/22-rdf-syntax-ns#"
   xmlns:svg="http://www.w3.org/2000/svg"
   xmlns="http://www.w3.org/2000/svg"
   viewBox="0 0 309.33331 320"
   height="320"
   width="309.33331"
   xml:space="preserve"
   id="svg2"
   version="1.1"><metadata
     id="metadata8"><rdf:RDF><cc:Work
         rdf:about=""><dc:format>image/svg+xml</dc:format><dc:type
           rdf:resource="http://purl.org/dc/dcmitype/StillImage" /></cc:Work></rdf:RDF></metadata><defs
     id="defs6"><clipPath
       id="clipPath18"
       clipPathUnits="userSpaceOnUse"><path
         id="path16"
         d="M 0,256 H 256 V 0 H 0 Z" /></clipPath></defs><g
     transform="matrix(1.3333333,0,0,-1.3333333,-16,330.66706)"
     id="g10"><g
       id="g12"><g
         clip-path="url(#clipPath18)"
         id="g14"><g
           transform="translate(52,163.3301)"
           id="g20"><path
             id="path22"
             style="fill:#ffffff;fill-opacity:1;fill-rule:nonzero;stroke:none"
             d="M 0,0 H 4 V 55.828 C 2.639,55.297 1.305,54.751 0,54.191 Z" /></g><g
           transform="translate(44,163.3301)"
           id="g24"><path
             id="path26"
             style="fill:#ffffff;fill-opacity:1;fill-rule:nonzero;stroke:none"
             d="M 0,0 H 4 V 52.387 C 2.63,51.738 1.296,51.072 0,50.39 Z" /></g><g
           transform="translate(40,163.3301)"
           id="g28"><path
             id="path30"
             style="fill:#ffffff;fill-opacity:1;fill-rule:nonzero;stroke:none"
             d="m 0,0 v 48.168 c -1.387,-0.816 -2.718,-1.655 -4,-2.51 V 0 Z" /></g><g
           transform="translate(204,218.3633)"
           id="g32"><path
             id="path34"
             style="fill:#ffffff;fill-opacity:1;fill-rule:nonzero;stroke:none"
             d="M 0,0 C -1.305,0.56 -2.639,1.105 -4,1.637 V -54.191 H 0 Z" /></g><g
           transform="translate(212,214.562)"
           id="g36"><path
             id="path38"
             style="fill:#ffffff;fill-opacity:1;fill-rule:nonzero;stroke:none"
             d="M 0,0 C -1.296,0.682 -2.63,1.348 -4,1.997 V -50.39 h 4 z" /></g><g
           transform="translate(236,82.1943)"
           id="g40"><path
             id="path42"
             style="fill:#ffffff;fill-opacity:1;fill-rule:nonzero;stroke:none"
             d="m 0,0 v -20.659 c -5.246,7.35 -15.567,13.919 -30.316,19.108 -5.788,2.036 -12.106,3.817 -18.835,5.328 4.534,7.813 7.566,16.616 8.671,26.029 l 0.48,4 v 49.335 26.665 4 16 10.652 11.373 c 6.292,-1.758 15.119,-4.69 22.035,-8.797 1.214,-0.722 1.954,-2.032 1.954,-3.445 v -11.946 c -1.278,0.852 -2.605,1.689 -3.989,2.503 V 81.978 h 4 v 45.485 c 1.402,-0.936 2.729,-1.897 4,-2.877 V 83.141 h 4 v 38.087 c 1.454,-1.335 2.793,-2.702 4,-4.1 V -4.189 c 1.548,1.793 2.884,3.635 4,5.521 v 110.282 c 2.604,-4.397 4,-9.027 4,-13.808 v -84 C 4,9.025 2.604,4.396 0,0 m 0,-38.194 -0.152,0.016 c -1.551,-10.605 -15.458,-20.061 -36.758,-26.621 -0.201,-0.061 -0.403,-0.091 -0.6,-0.091 -1.107,0 -2.073,0.918 -2.007,2.098 0.011,0.198 0.017,0.397 0.017,0.598 0,13.256 -22.47,24.349 -52.63,27.248 -0.399,2.291 -1.896,4.275 -4.189,5.775 18.626,3.247 34.75,14.109 44.913,29.339 29.322,-6.362 49.353,-17.517 51.246,-30.362 H 0 Z m -43.511,-24.374 c -0.002,-0.036 0.001,-0.07 0,-0.105 -17.999,-4.723 -40.319,-7.521 -64.5,-7.521 -23.947,0 -46.063,2.747 -63.97,7.387 -0.002,0.047 0.001,0.093 -0.002,0.14 -0.011,0.157 -0.017,0.314 -0.017,0.473 0,9.705 19.299,20.345 48.554,23.232 1.782,-4.316 7.721,-7.232 15.435,-7.232 7.742,0 13.696,2.938 15.453,7.281 29.537,-2.814 49.058,-13.522 49.058,-23.281 0,-0.125 -0.004,-0.25 -0.011,-0.374 m -132.464,0.843 c -0.008,0.002 -0.017,0.005 -0.025,0.007 v -1.684 c -0.165,-0.95 -1.033,-1.637 -1.999,-1.637 -0.197,0 -0.398,0.029 -0.598,0.09 -21.578,6.564 -35.688,16.084 -37.25,26.771 l -0.015,7.984 c 1.893,12.848 21.932,24.005 51.265,30.367 0.338,-0.506 0.677,-1.011 1.028,-1.507 0.903,-3.324 3.197,-6.073 6.222,-7.588 9.873,-10.414 22.988,-17.686 37.649,-20.246 -2.314,-1.512 -3.821,-3.516 -4.206,-5.83 -29.534,-2.942 -51.549,-13.757 -52.071,-26.727 M -216,-0.673 c 1.116,-1.886 2.453,-3.728 4,-5.521 v 123.323 c 1.207,1.397 2.546,2.763 4,4.098 V 81.136 h 4 v 43.45 c 1.267,0.977 2.59,1.936 3.989,2.87 v 12.133 c 0,1.413 0.74,2.723 1.954,3.445 6.92,4.109 15.759,7.041 22.057,8.799 v -13.38 -4.647 -20 -4 -28.67 -47.33 l 0.48,-4 c 1.104,-9.411 4.136,-18.212 8.668,-26.025 -6.736,-1.511 -13.06,-3.293 -18.854,-5.332 -14.728,-5.182 -25.041,-11.739 -30.294,-19.077 z m -4,14.479 v 84 c 0,4.781 1.396,9.412 4,13.809 V 0 c -2.603,4.396 -4,9.025 -4,13.806 m 60,100 h -4 v 8 h 0.089 3.911 z m 100,8 h 4 v -8 h -4 z m -84,-8 h -4 v 8 h 4 z m 8,0 h -4 v 8 h 4 z m 8,0 h -4 v 8 h 4 z m 8,0 h -4 v 8 h 4 z m 8,0 h -4 v 8 h 4 z m 8,0 h -4 v 8 h 4 z m 8,0 h -4 v 8 h 4 z m 8,0 h -4 v 8 h 4 z m 8,0 h -4 v 8 h 4 z m 8,0 h -4 v 8 h 4 z m 8,0 h -4 v 8 h 4 z m -92,8 h 4 v -8 h -4 z m 48,-136 c -13.428,0 -25.74,5.147 -35.012,13.604 l -0.181,0.166 c -0.904,0.832 -1.776,1.694 -2.617,2.583 0,0 -0.001,0.001 -0.001,0.002 -1.659,1.756 -3.188,3.622 -4.584,5.583 -0.046,0.065 -0.09,0.13 -0.136,0.194 -0.675,0.958 -1.323,1.937 -1.931,2.939 l -0.282,0.462 c -4.073,6.864 -6.62,14.75 -7.142,23.206 l -0.114,1.85 v 73.411 H -56 V 36.395 l -0.114,-1.85 C -57.801,7.215 -80.592,-14.194 -108,-14.194 m 53.672,21.019 c -2.63,-4.54 -5.817,-8.712 -9.467,-12.426 -0.376,-0.382 -0.893,-0.593 -1.429,-0.593 h -0.007 c -1.76,0 -2.653,2.117 -1.419,3.373 3.413,3.474 6.392,7.38 8.853,11.627 0.357,0.615 1.005,1 1.716,1 h 0.019 c 1.528,0 2.499,-1.659 1.734,-2.981 M -48,113.806 h -4 v 8 h 0.089 3.911 z m -111.911,32 c 4,0 12,8 52,8 40,0 52,-8 52,-8 v -20 h -104 v 19.889 c -0.257,0.072 -0.276,0.111 0,0.111 m -12.089,-24 h 4 v -8 h -4 z m 0.137,-88 -0.137,47.33 v 28.67 h 8 V 36.271 l 0.122,-1.972 c 0.488,-7.905 2.628,-15.344 6.05,-22.006 -2.636,-1.467 -4.557,-3.855 -5.504,-6.624 -4.865,8.363 -7.9,17.923 -8.531,28.137 m 12.008,-33.494 c -0.092,0.485 -0.145,0.983 -0.145,1.494 0,3.009 1.664,5.628 4.12,6.993 0.011,-0.019 0.023,-0.036 0.034,-0.055 0.57,-0.934 1.171,-1.847 1.793,-2.743 0.166,-0.239 0.331,-0.48 0.5,-0.717 0.272,-0.38 0.55,-0.755 0.83,-1.127 0.161,-0.214 0.326,-0.425 0.49,-0.636 0.303,-0.389 0.606,-0.779 0.92,-1.161 0.012,-0.015 0.026,-0.031 0.039,-0.047 0.747,-0.908 1.525,-1.789 2.327,-2.649 0.106,-0.113 0.211,-0.229 0.318,-0.343 0.371,-0.39 0.748,-0.773 1.129,-1.153 0.129,-0.129 0.259,-0.256 0.39,-0.383 0.398,-0.389 0.798,-0.774 1.208,-1.151 -1.468,-1.729 -3.653,-2.828 -6.098,-2.828 -1.057,0 -2.064,0.21 -2.988,0.583 -1.734,1.877 -3.366,3.848 -4.867,5.923 m 9.424,-10.392 c 2.925,0.386 5.621,1.83 7.565,4.111 9.599,-7.655 21.737,-12.225 34.866,-12.225 14.025,0 26.922,5.213 36.797,13.836 0.018,-0.731 0.155,-1.464 0.45,-2.165 0.879,-2.097 2.851,-3.479 5.093,-3.639 -11.281,-9.971 -26.098,-16.032 -42.34,-16.032 -16.286,0 -31.138,6.094 -42.431,16.114 m 42.42,-20.114 c 6.627,0 12,-2.687 12,-6 0,-3.314 -5.373,-6 -12,-6 -6.553,0 -11.87,2.628 -11.989,5.889 v 0.221 c 0.119,3.262 5.436,5.89 11.989,5.89 m 64.011,64 c 0,0 -2.878,-16.639 -6.436,-23.954 -0.117,0.324 -0.252,0.643 -0.428,0.948 -1.069,1.854 -3.061,3.006 -5.198,3.006 h -0.019 c -0.482,0 -0.955,-0.067 -1.414,-0.18 3.032,6.314 4.918,13.293 5.373,20.673 L -52,36.271 v 73.535 h 8 V 83.141 Z m 0,128 v -19.99 -12.01 -4 h -7.911 v 20 2.14 l -1.781,1.188 c -0.532,0.354 -13.476,8.672 -54.219,8.672 -31.138,0 -43.527,-4.8 -49.481,-7.107 -1.017,-0.394 -2.167,-0.84 -2.564,-0.893 -2.507,-0.021 -3.893,-1.819 -4.119,-3.49 -0.076,-0.567 -0.028,-1.184 0.164,-1.778 V 125.806 H -172 v 8 6.005 21.995 z m 52,-64 c 0,11.56 -6.909,22.511 -20.011,31.77 v 10.013 c 0,2.813 -1.499,5.451 -3.912,6.884 -7.69,4.568 -17.494,7.72 -24.077,9.506 v 5.827 4 h -4 -128 -4 v -4 -5.825 c -6.589,-1.786 -16.404,-4.939 -24.099,-9.508 -2.413,-1.432 -3.912,-4.071 -3.912,-6.884 V 129.561 C -217.099,120.304 -224,109.359 -224,97.806 v -84 c 0,-5.062 1.345,-10.058 4,-14.868 v -37.132 l 1.17,-4.339 c 3.909,-10.483 17.556,-19.698 39.069,-26.243 0.573,-0.174 1.165,-0.263 1.762,-0.263 1.676,0 3.292,0.703 4.436,1.929 0.145,0.155 0.28,0.317 0.406,0.484 18.804,-4.905 41.406,-7.568 65.146,-7.568 23.969,0 46.776,2.716 65.687,7.713 0.135,-0.18 0.278,-0.354 0.435,-0.52 1.135,-1.2 2.731,-1.889 4.379,-1.889 0.601,0 1.198,0.091 1.777,0.269 21.214,6.532 34.684,15.693 38.562,26.089 L 4,-38.194 v 37.132 c 2.655,4.81 4,9.806 4,14.868 z" /></g><g
           transform="translate(90.6323,112)"
           id="g44"><path
             id="path46"
             style="fill:#ffffff;fill-opacity:1;fill-rule:nonzero;stroke:none"
             d="m 0,0 c -2.738,0 -5.26,-1.377 -6.746,-3.683 -1.469,-2.278 -1.681,-5.104 -0.567,-7.56 6.143,-13.553 19.898,-22.95 35.897,-24.524 0.261,-0.025 0.526,-0.038 0.788,-0.038 4.409,0 7.996,3.591 7.996,8.006 0,4.135 -3.093,7.553 -7.195,7.954 C 19.887,-18.836 11.125,-13.052 7.307,-4.748 5.98,-1.863 3.112,0 0,0 m 0,-4 c 1.598,0 3.005,-0.968 3.672,-2.419 4.307,-9.366 14.235,-16.242 26.111,-17.406 2.037,-0.2 3.585,-1.922 3.585,-3.969 v -0.005 c 0,-2.228 -1.816,-4.006 -3.996,-4.006 -0.131,0 -0.263,0.006 -0.396,0.02 C 14.146,-30.327 1.759,-21.57 -3.67,-9.592 -4.859,-6.971 -2.878,-4 0,-4" /></g></g></g></g></svg>