<?xml version="1.0" encoding="utf-8"?>
<!-- Generator: Adobe Illustrator 25.1.0, SVG Export Plug-In . SVG Version: 6.00 Build 0)  -->
<svg version="1.1" id="Layer_1" xmlns="http://www.w3.org/2000/svg" xmlns:xlink="http://www.w3.org/1999/xlink" x="0px" y="0px"
	 viewBox="0 0 3839.5 1335.5" style="enable-background:new 0 0 3839.5 1335.5;" xml:space="preserve">
<style type="text/css">
	.st0{fill:#444444;}
	.st1{fill:none;stroke:#BCBCBC;stroke-width:40.0516;stroke-linecap:round;stroke-miterlimit:10;}
	.st2{fill:#BCBCBC;}
	.st3{fill:#FFDD34;}
	.st4{fill:#7B46CE;}
	.st5{fill:none;stroke:#7B46CE;stroke-width:40.0516;stroke-linecap:round;stroke-miterlimit:10;}
	.st6{fill:#FF3ABD;}
	.st7{fill:none;stroke:#BCBCBC;stroke-width:40.1142;stroke-linecap:round;stroke-miterlimit:10;}
	.st8{fill:none;stroke:#7B46CE;stroke-width:40.1142;stroke-linecap:round;stroke-miterlimit:10;}
	.st9{fill:#E0E0E0;}
	.st10{fill:#FFFFFF;}
	.st11{fill:none;stroke:#FFFFFF;stroke-width:6.2774;stroke-miterlimit:10;}
	.st12{fill:none;stroke:#FFFFFF;stroke-width:6.0077;stroke-miterlimit:10;}
	.st13{fill:none;stroke:#000000;stroke-width:6.2774;stroke-miterlimit:10;}
	.st14{fill:none;stroke:#000000;stroke-width:6.0077;stroke-miterlimit:10;}
	.st15{fill:none;stroke:#000000;stroke-width:6.2907;stroke-miterlimit:10;}
	.st16{fill:none;stroke:#000000;stroke-width:37.9754;stroke-linecap:round;stroke-miterlimit:10;}
	.st17{clip-path:url(#SVGID_2_);}
	.st18{fill:#FFFFFF;stroke:#000000;stroke-width:6.6268;stroke-miterlimit:10;}
	.st19{clip-path:url(#SVGID_4_);}
	.st20{fill:none;stroke:#000000;stroke-width:40.693;stroke-linecap:round;stroke-miterlimit:10;}
	.st21{clip-path:url(#SVGID_6_);}
	.st22{clip-path:url(#SVGID_8_);}
</style>
<g>
	<g>
		<g>
			<path class="st0" d="M1171.1,378.6L1171.1,378.6l-171.6,0v0h-68.3v922.8h94v-255h146c0,0,0,0,0,0
				C1616.3,1046.4,1616.3,378.6,1171.1,378.6z M1171.1,952.4L1171.1,952.4l-146,0V472.6h146c0,0,0,0,0,0
				C1491,472.6,1491,952.4,1171.1,952.4z"/>
			<path class="st0" d="M2023.2,1214.2c-214.2,0-387.8-173.6-387.8-387.8c0-214.2,173.6-387.8,387.8-387.8
				c145.2,0,271.7,79.8,338.1,198H2466c-73.7-171.7-244.2-291.9-442.9-291.9c-266.1,0-481.8,215.7-481.8,481.8
				c0,266.1,215.7,481.8,481.8,481.8c198.7,0,369.2-120.3,442.9-291.9h-104.7C2294.8,1134.3,2168.4,1214.2,2023.2,1214.2z"/>
			<rect x="2406.2" y="736.2" class="st0" width="131.8" height="180.2"/>
			<polygon class="st0" points="3073.2,888.7 3073.2,707.5 2800.7,707.5 2800.7,543.5 3073.2,543.5 3073.2,362.3 2800.7,362.3 
				2659.8,362.3 2619.5,362.3 2619.5,1285.6 2800.7,1285.6 2800.7,888.7 			"/>
			<polygon class="st0" points="3553.9,791 3801.4,362.3 3592.2,362.3 3449.3,609.8 3306.4,362.3 3097.2,362.3 3344.7,791 
				3059.1,1285.6 3268.4,1285.6 3449.3,972.2 3630.3,1285.6 3839.5,1285.6 			"/>
		</g>
		<g>
			<path class="st7" d="M431.3,456C563.9,472.4,703,548.4,703,646.3c0,143.9-189.5,246-337.4,246c-137.9,0-249.7-55.9-249.7-123.3
				s111.8-122,249.7-122c95.6,0,228.3,53.5,242.8,121.8c17.3,81.2-43.1,128.6-43.1,128.6s-88.6,76.9-195.9,76.9
				s-184.8-36.6-184.8-87.1c0-50.5,78.1-91.5,185.4-91.5c66.5,0,148.5,31,172.9,81.9C567.3,928.4,510,1034,368.9,1034
				c-76.8,0-139-29.7-139-66.2c0-36.6,62.2-63.8,139-63.8c44.2,0,110.2,23.1,126.8,57.9c12.7,26.6-0.9,85.1-77.9,110"/>
			<circle class="st2" cx="365.7" cy="447.9" r="30.6"/>
			<g>
				<polygon class="st2" points="0,696 0,1116.6 373.4,897.6 373.4,477 				"/>
				<polygon class="st2" points="373.4,1137.7 373.4,1335.5 746.8,1116.6 746.8,918.7 				"/>
				<polygon class="st2" points="373.4,1137.7 373.4,1335.5 0,1116.6 0,918.7 				"/>
			</g>
			<polygon class="st3" points="32.6,661.8 32.6,1082.3 405.9,863.3 405.9,442.8 			"/>
			<circle class="st4" cx="409.5" cy="409.2" r="30.6"/>
			<path class="st8" d="M475,417.3c132.6,16.4,271.7,92.4,271.7,190.3c0,143.9-189.5,246-337.4,246c-137.9,0-249.7-55.9-249.7-123.3
				s111.8-122,249.7-122c95.6,0,228.3,53.5,242.8,121.8c17.3,81.2-43.1,128.6-43.1,128.6s-88.6,76.9-195.9,76.9
				S228.4,899,228.4,848.5c0-50.5,78.1-91.5,185.4-91.5c66.5,0,148.5,31,172.9,81.9c24.3,50.8-32.9,156.4-174.1,156.4
				c-76.8,0-139-29.7-139-66.2c0-36.6,62.2-63.8,139-63.8c44.2,0,110.2,23.1,126.8,57.9c12.7,26.6-0.9,85.1-77.9,110"/>
			<polygon class="st6" points="405.9,1103.4 405.9,1301.3 779.3,1082.3 779.3,884.4 			"/>
			<polygon class="st4" points="405.9,1103.4 405.9,1301.3 32.6,1082.3 32.6,884.4 			"/>
		</g>
	</g>
	<g>
		<path class="st0" d="M1434,8.2h78.2c17.9,0,39,16.7,48.4,25.9l137.1,152.1V8.2h46.6V251h-81.6c-17.2,0.1-33.7-7.1-45.3-19.8
			l-137-152.4V251H1434L1434,8.2z"/>
		<path class="st0" d="M2405.5,252.5c-56,7.4-112.6,8.6-168.8,3.7c-33.1-2-65.5-10.6-95.3-25.3c-37.6-19.4-49.5-63.1-49-102.8
			c0.4-36.6,11.2-75.6,43.9-96.9c21.4-14,44.3-18.7,68.5-23.1c66.3-11.7,132.6-9.1,197.3-2v34.6c-76.3-14.8-156.8-11.1-184.2,23.9
			c-13.6,17.6-20.5,39.5-19.5,61.8c0,33,11.2,82.8,78.2,92.5c43.6,6.4,86.7,1.6,128.6-6.1L2405.5,252.5z"/>
		<path class="st0" d="M1927.9,214.9c6.8,0,111.7,0.5,147.9,0v36.3c-72.7,2.8-142.5,4.1-216,1c-62.2-2.6-72.9-33.8-74.4-64V8.2
			h286.6v34.5h-185.2v61.8h169.2v33.8h-169.2c0,18.3,0.6,39,0.8,42.8c1,23.5,11.9,32.2,40.6,33.8"/>
	</g>
</g>
</svg>
