<?xml version="1.0" encoding="utf-8"?>
<svg version="1.1" id="Layer_1" xmlns="http://www.w3.org/2000/svg" xmlns:xlink="http://www.w3.org/1999/xlink" x="0px" y="0px"
	 viewBox="0 0 64 64" style="enable-background:new 0 0 64 64;" xml:space="preserve">
<style type="text/css">
	.st0{fill:#FFFFFF;}
	.st1{enable-background:new    ;}
</style>
<g id="Layer_3">
</g>
<g id="Layer_2_1_">
	<g>
		<path class="st0" d="M49.56,7.69c0-1.53-1.24-2.77-2.77-2.77H17.21c-1.53,0-2.77,1.24-2.77,2.77v41.58h0.91v4h-0.89
			c0.11,1.43,1.29,2.56,2.75,2.56h2.43c2.6,1.83,7.94,3.08,14.11,3.08c8.73,0,15.81-2.51,15.81-5.6c0-0.04-0.01-0.07-0.02-0.11
			c0-0.05,0.02-0.1,0.02-0.15V7.69z M20.28,53.27c-1.1,0-2-0.9-2-2s0.9-2,2-2s2,0.9,2,2C22.28,52.38,21.38,53.27,20.28,53.27z
			 M25.96,53.27c-1.1,0-2-0.9-2-2s0.9-2,2-2s2,0.9,2,2C27.96,52.38,27.07,53.27,25.96,53.27z M34,53.15c0,0.44-0.9,0.8-2,0.8
			c-1.1,0-2-0.36-2-0.8s0-1.12,0-1.12h4C34,52.03,34,52.87,34,53.15z M34,50.48h-4c0,0,0-0.84,0-1.12c0-0.44,0.9-0.8,2-0.8
			c1.1,0,2,0.36,2,0.8S34,50.48,34,50.48z M38.04,53.23c-1.1,0-2-0.9-2-2s0.9-2,2-2s2,0.9,2,2C40.04,52.34,39.14,53.23,38.04,53.23z
			 M43.72,53.23c-1.1,0-2-0.9-2-2s0.9-2,2-2s2,0.9,2,2C45.72,52.34,44.83,53.23,43.72,53.23z M45.88,44.36
			c0,0.79-0.67,1.44-1.49,1.44H19.61c-0.82,0-1.49-0.64-1.49-1.44V11.27c0-0.79,0.67-1.44,1.49-1.44h24.78
			c0.82,0,1.49,0.64,1.49,1.44V44.36z"/>
	</g>
</g>
<g class="st1">
	<path d="M50.84,77.86c0,0-1.61-0.3-5.27-0.57c0,0.04,0.01,0.08,0.01,0.13c0,1.66-1.5,3.01-3.35,3.01c-1.85,0-3.35-1.35-3.35-3.01
		c0-0.16,0.03-0.3,0.05-0.46c-2.02-0.06-4.32-0.1-6.93-0.1c-13.52,0-18.83,1-18.83,1s0.98,14.25,0.98,26s-0.98,23.71-0.98,23.71
		s5.31,3.29,18.83,3.29c13.52,0,18.83-3.29,18.83-3.29s-0.98-11.9-0.98-23.68C49.86,92.12,50.84,77.86,50.84,77.86z M18.83,84.92
		c0-0.93,0.75-1.68,1.68-1.68l23.01,0c0.93,0,1.68,0.75,1.68,1.68l0,29.9c0,0.77-0.51,1.44-1.26,1.62
		c-2.12,0.54-6.65,1.51-11.69,1.51c-5.09,0-9.91-1-12.14-1.53c-0.75-0.19-1.28-0.85-1.28-1.63C18.83,114.78,18.83,84.92,18.83,84.92
		z M18.59,125.74c-1.31,0-2.37-0.91-2.37-2.03s1.06-2.03,2.37-2.03c1.31,0,2.37,0.91,2.37,2.03
		C20.96,124.82,19.9,125.74,18.59,125.74z M25.41,126.78c-1.31,0-2.37-0.91-2.37-2.03s1.06-2.03,2.37-2.03
		c1.31,0,2.37,0.91,2.37,2.03C27.77,125.87,26.72,126.78,25.41,126.78z M34.38,126.51c0,1.12-1.06,2.03-2.37,2.03
		c-1.31,0-2.37-0.91-2.37-2.03l0-3.02c0-1.12,1.06-2.03,2.37-2.03c1.31,0,2.37,0.91,2.37,2.03L34.38,126.51z M38.61,126.78
		c-1.31,0-2.37-0.91-2.37-2.03c0-1.12,1.06-2.03,2.37-2.03c1.31,0,2.37,0.91,2.37,2.03C40.99,125.87,39.92,126.78,38.61,126.78z
		 M45.43,125.74c-1.31,0-2.37-0.91-2.37-2.03c0-1.12,1.06-2.03,2.37-2.03c1.31,0,2.37,0.91,2.37,2.03
		C47.79,124.82,46.74,125.74,45.43,125.74z"/>
	<path d="M42.24,79.46c1.31,0,2.37-0.91,2.37-2.03c0-0.06-0.02-0.12-0.02-0.18l-4.67-0.22c-0.03,0.13-0.05,0.26-0.05,0.41
		C39.86,78.55,40.93,79.46,42.24,79.46z"/>
</g>
</svg>
