<?xml version="1.0" encoding="UTF-8" standalone="no"?>
<svg
   xmlns:dc="http://purl.org/dc/elements/1.1/"
   xmlns:cc="http://creativecommons.org/ns#"
   xmlns:rdf="http://www.w3.org/1999/02/22-rdf-syntax-ns#"
   xmlns:svg="http://www.w3.org/2000/svg"
   xmlns="http://www.w3.org/2000/svg"
   viewBox="0 0 320 202.66665"
   height="202.66666"
   width="320"
   xml:space="preserve"
   id="svg2"
   version="1.1"><metadata
     id="metadata8"><rdf:RDF><cc:Work
         rdf:about=""><dc:format>image/svg+xml</dc:format><dc:type
           rdf:resource="http://purl.org/dc/dcmitype/StillImage" /></cc:Work></rdf:RDF></metadata><defs
     id="defs6"><clipPath
       id="clipPath20"
       clipPathUnits="userSpaceOnUse"><path
         id="path18"
         d="M 0,256 H 256 V 0 H 0 Z" /></clipPath></defs><g
     transform="matrix(1.3333333,0,0,-1.3333333,-10.666666,271.99999)"
     id="g10"><path
       id="path12"
       style="fill:#ffffff;fill-opacity:1;fill-rule:nonzero;stroke:none"
       d="M 244,56 H 12 v 144 h 232 z m 0,148 H 12 8 V 200 56 52 h 4 232 4 v 4 144 4 z" /><g
       id="g14"><g
         clip-path="url(#clipPath20)"
         id="g16"><g
           transform="translate(102.7588,156.3335)"
           id="g22"><path
             id="path24"
             style="fill:#ffffff;fill-opacity:1;fill-rule:nonzero;stroke:none"
             d="m 0,0 v 0 c -6.666,0 -12.07,5.225 -12.069,11.668 0.001,6.443 5.404,11.665 12.069,11.665 0,0 0,0 0,0 6.664,0 12.068,-5.223 12.069,-11.665 C 12.069,5.224 6.666,0 0,0 m 0,27.333 c -8.859,0 -16.068,-7.027 -16.069,-15.664 C -16.07,7.458 -14.381,3.506 -11.315,0.542 -8.286,-2.387 -4.268,-4 0,-4 c 4.267,0 8.285,1.613 11.314,4.542 3.067,2.964 4.755,6.916 4.755,11.126 C 16.067,20.306 8.859,27.333 0,27.333" /></g><path
           id="path26"
           style="fill:#ffffff;fill-opacity:1;fill-rule:nonzero;stroke:none"
           d="m 64,184 h 8 v -8 h -8 z m 8,-20 h -8 v 8 h 8 z m 0,-12 h -8 v 8 h 8 z m -12,0 h -8 v 8 h 8 z m -12,0 h -8 v 8 h 8 z m -12,0 h -8 v 8 h 8 z m -8,20 h 8 v -8 h -8 z m 0,12 h 8 v -8 h -8 z m 12,0 h 8 v -8 h -8 z m 0,-12 h 8 v -8 h -8 z m 20,-8 h -8 v 8 h 8 z m -8,20 h 8 v -8 h -8 z m 12,4 h -4 -8 -4 -8 -4 -8 -4 v -4 -8 -4 -8 -4 -8 -4 h 4 8 4 8 4 8 4 8 4 v 4 8 4 8 4 8 4 h -4 z" /><path
           id="path28"
           style="fill:#ffffff;fill-opacity:1;fill-rule:nonzero;stroke:none"
           d="m 80,160 h 4 v 16 h -4 z" /><g
           transform="translate(102.7588,127.6665)"
           id="g30"><path
             id="path32"
             style="fill:#ffffff;fill-opacity:1;fill-rule:nonzero;stroke:none"
             d="M 0,0 C 0,0 0,0 0,0 6.664,0 12.068,-5.222 12.069,-11.665 12.069,-18.109 6.666,-23.333 0,-23.333 v 0 c -6.666,0 -12.07,5.224 -12.069,11.668 C -12.068,-5.222 -6.665,0 0,0 m 0,-27.333 c 4.267,0 8.285,1.613 11.314,4.541 3.067,2.965 4.755,6.917 4.755,11.127 C 16.067,-3.027 8.859,4 0,4 c -8.859,0 -16.068,-7.027 -16.069,-15.665 -0.001,-4.21 1.688,-8.162 4.754,-11.127 3.029,-2.928 7.047,-4.541 11.315,-4.541" /></g><path
           id="path34"
           style="fill:#ffffff;fill-opacity:1;fill-rule:nonzero;stroke:none"
           d="m 36,100 h -8 v 8 h 8 z m -8,20 h 8 v -8 h -8 z m 0,12 h 8 v -8 h -8 z m 12,0 h 8 v -8 h -8 z m 12,0 h 8 v -8 h -8 z m 12,0 h 8 v -8 h -8 z m 8,-20 h -8 v 8 h 8 z m 0,-12 h -8 v 8 h 8 z m -12,0 h -8 v 8 h 8 z m 0,12 h -8 v 8 h 8 z m -20,8 h 8 v -8 h -8 z m 8,-20 h -8 v 8 h 8 z M 36,96 h 4 8 4 8 4 8 4 v 4 8 4 8 4 8 4 h -4 -8 -4 -8 -4 -8 -4 -8 -4 v -4 -8 -4 -8 -4 -8 -4 h 4 z" /><path
           id="path36"
           style="fill:#ffffff;fill-opacity:1;fill-rule:nonzero;stroke:none"
           d="m 84,124 h -4 v -16 h 4 z" /><g
           transform="translate(212,112)"
           id="g38"><path
             id="path40"
             style="fill:#ffffff;fill-opacity:1;fill-rule:nonzero;stroke:none"
             d="M 0,0 H -2.154 -56 -60 v -4 -4 h -20 v 84 h 12 V 60 h 4 v 16 h 4 V 60 h 4 v 16 h 4 V 60 h 4 v 16 h 4 V 60 h 4 v 16 h 4 V 60 h 4 v 16 h 4 V 60 h 4 v 16 h 4 V 60 h 4 v 16 h 4 V 60 h 4 v 16 h 4 V 60 H 0 V 76 H 4 V 60 h 4 v 16 h 4 V 60 h 4 v 16 h 8 V -8 H 4 v 4 4 H 1.846 Z m 0,-12 -4,-8 h -48 l -4,8 v 8 H 0 Z m 0,-20 h -72 v 8 H 0 Z m 0,-8 v -4 -4 h -72 v 4 4 4 H 0 Z m -76,8 h -12 v 8 h 12 z m 0,-8 v -4 -4 h -12 v 4 4 4 h 12 z m 80,-4 v 4 0.727 C 5.467,-40.941 7.609,-42 10,-42 c 2.391,0 4.533,1.059 6,2.727 V -44 -48 H 4 Z m 10,10 c 0,-2.209 -1.791,-4 -4,-4 -2.209,0 -4,1.791 -4,4 0,2.209 1.791,4 4,4 2.209,0 4,-1.791 4,-4 M 4,-24 h 12 v -4.727 C 14.533,-27.059 12.391,-26 10,-26 7.609,-26 5.467,-27.059 4,-28.727 Z m 16,-20 v 20 h 4 V -48 H 20 Z M -92,32 h -100 v 48 h 100 z m 0,-52 h -100 v 48 h 100 z m 0,-24 v -4 h -20 v 24 h 20 z m -24,-4 h -4 v 24 h 4 z m -8,0 h -4 v 24 h 4 z m -8,0 h -4 v 24 h 4 z m -8,0 h -4 v 24 h 4 z m -8,0 h -4 v 24 h 4 z m -8,0 h -4 v 24 h 4 z m -8,0 h -4 v 24 h 4 z m -8,0 h -4 v 24 h 4 z m -8,0 h -4 v 24 h 4 z m -8,0 h -4 v 24 h 4 z M 28,-12 V 80 H 16 12 8 4 0 h -4 -4 -4 -4 -4 -4 -4 -4 -4 -4 -4 -4 -4 -4 -4 -4 -4 -16 v -92 h 24 l 4,-8 h -32 v 48 4 48 4 h -4 -100 -4 v -4 -48 -4 -48 -4 -24 -4 h 4 216 4 v 4 24 4 H 24 20 16 0 l 4,8 z" /></g></g></g></g></svg>