<?xml version="1.0" encoding="utf-8"?>
<!-- Generator: Adobe Illustrator 26.0.1, SVG Export Plug-In . SVG Version: 6.00 Build 0)  -->
<svg version="1.1" id="Layer_1" xmlns="http://www.w3.org/2000/svg" xmlns:xlink="http://www.w3.org/1999/xlink" x="0px" y="0px"
	 viewBox="0 0 3839 1060.5" style="enable-background:new 0 0 3839 1060.5;" xml:space="preserve">
<style type="text/css">
	.st0{fill:#780117;}
	.st1{fill:#FF0000;}
</style>
<g id="Layer_1_00000108304571756947064140000003026997267212167861_">
</g>
<g id="Layer_2_00000080916050565241838210000016598106929658315180_">
	<g>
		<polygon class="st0" points="1403.7,26.7 1296.3,26.7 1188.4,26.7 1081,26.7 1081,138.4 1188.4,138.4 1188.4,1000.9 
			1296.3,1000.9 1296.3,138.4 1403.7,138.4 		"/>
		<path class="st0" d="M1665.8,26.7V889h-107V26.7H1451v816.2c0,92.2,72.2,167.1,161.4,167.1l0,0c89.1,0,161.4-74.8,161.4-167.1
			V26.7H1665.8z"/>
		<path class="st0" d="M2073,1000.9h92L1971.5,0L1778,1000.9h92l22.3-115h158.5L2073,1000.9z M1913.7,774.2l57.7-298.5l57.7,298.5
			H1913.7z"/>
		<polygon class="st0" points="54.5,26.7 247.9,1027.6 441.3,26.7 349.4,26.7 247.9,551.9 146.4,26.7 		"/>
		<path class="st0" d="M2943.3,169.9c0-79-61.9-143-138.2-143h-76.6h-75.9h-32v974h32h152.5c76.3,0,138.2-64,138.2-143V612.3
			c0-32.3-15-71.7-38.3-98.4c23.2-26.6,38.3-66.1,38.3-98.4V169.9L2943.3,169.9z M2835.5,138.4V458h-107V138.4H2835.5z
			 M2728.5,889.2V569.7h107v319.5H2728.5z"/>
		<rect x="501.5" y="26.7" class="st0" width="107.9" height="974"/>
		<path class="st0" d="M1076.8,1000.9L955.2,554.5c45.3-23.5,76.4-71.9,76.4-127.9V169.9c0-79-61.9-143-138.2-143h-76.6H708.9v111.7
			v862.3h107.9V458l0,0V138.4h107V458h-107l0,0l0,0l0,0l2.4,8.8l145.6,534.1L1076.8,1000.9L1076.8,1000.9z"/>
		<polygon class="st0" points="2323.9,889.2 2323.9,26.7 2216.1,26.7 2216.1,889.2 2216.1,945 2216.1,1000.9 2489,1000.9 
			2489,889.2 		"/>
		<path class="st0" d="M3207.3,17.6L3207.3,17.6c-89.1,0-161.4,74.8-161.4,167.1v136.7l0,0v409.5l0,0v112
			c0,92.2,72.2,167.1,161.4,167.1l0,0c89.1,0,161.4-74.8,161.4-167.1V730.8V581.2V446.5V321.4V184.7
			C3368.6,92.4,3296.4,17.6,3207.3,17.6z M3260.8,321.4v259.8v149.7v158.3h-106.9v-308l0,0V446.5l0,0v-308h107L3260.8,321.4
			L3260.8,321.4z"/>
		<g>
			<polygon class="st0" points="3781.3,25.9 3689.5,25.9 3589.3,458.9 3489.1,25.9 3396.4,25.9 3534.4,622.5 3534.4,1000.1 
				3642.2,1000.1 3642.2,630.4 			"/>
			<g>
				<polygon class="st1" points="1379.5,59.6 1268.3,59.6 1156.6,59.6 1045.5,59.6 1045.5,171.2 1156.6,171.2 1156.6,1033.6 
					1268.3,1033.6 1268.3,171.2 1379.5,171.2 				"/>
				<path class="st1" d="M1648.9,59.6v862.3h-110.7V59.6h-111.7v816.2c0,92.2,74.8,167.1,167.1,167.1l0,0
					c92.2,0,167.1-74.8,167.1-167.1V59.6H1648.9z"/>
				<path class="st1" d="M2094.4,1033.6h95.1L1989.3,32.7L1789,1033.6h95.1l23-115h164.1L2094.4,1033.6z M1929.6,806.9l59.7-298.5
					l59.7,298.5H1929.6z"/>
				<polygon class="st1" points="0,59.6 200.3,1060.5 400.5,59.6 305.4,59.6 200.3,584.8 95.3,59.6 				"/>
				<path class="st1" d="M2982.5,202.6c0-79-64-143-143-143h-79.3h-78.5h-33.2v974h33.2h157.8c79,0,143-64,143-143V645
					c0-32.3-15.6-71.7-39.6-98.4c24-26.6,39.6-66.1,39.6-98.4V202.6L2982.5,202.6z M2870.8,171.2v319.5h-110.7V171.2H2870.8z
					 M2760.1,921.9V602.4h110.7v319.5H2760.1z"/>
				<polygon class="st1" points="3839,59.6 3743.7,59.6 3640.1,492.6 3536.4,59.6 3440.4,59.6 3583.3,656.1 3583.3,1033.6 
					3695,1033.6 3695,664 				"/>
				<rect x="462.1" y="59.6" class="st1" width="111.7" height="974"/>
				<path class="st1" d="M1057.2,1033.6L931.3,587.3c46.9-23.5,79.1-71.9,79.1-127.9V202.6c0-79-64-143-143-143h-79.3H676.3v111.7
					v862.3H788V490.8l0,0V171.2h110.7v319.5H788l0,0l0,0l0,0l2.4,8.8l150.7,534.1H1057.2z"/>
				<polygon class="st1" points="2354.2,921.9 2354.2,59.6 2242.5,59.6 2242.5,921.9 2242.5,977.8 2242.5,1033.6 2525.1,1033.6 
					2525.1,921.9 				"/>
				<path class="st1" d="M3241.9,50.5L3241.9,50.5c-92.2,0-167.1,74.8-167.1,167.1v136.7l0,0v409.5l0,0v112.1
					c0,92.2,74.8,167.1,167.1,167.1l0,0c92.2,0,167.1-74.8,167.1-167.1V763.6V613.9V479.3V354.1V217.4
					C3409,125.3,3334.2,50.5,3241.9,50.5z M3297.3,354.1v259.8v149.7v158.3h-110.7v-308l0,0V479.3l0,0v-308h110.7V354.1
					L3297.3,354.1z"/>
			</g>
		</g>
	</g>
</g>
</svg>
